<?xml version="1.0" encoding="UTF-8" standalone="no"?>
<svg
   xmlns:dc="http://purl.org/dc/elements/1.1/"
   xmlns:cc="http://creativecommons.org/ns#"
   xmlns:rdf="http://www.w3.org/1999/02/22-rdf-syntax-ns#"
   xmlns:svg="http://www.w3.org/2000/svg"
   xmlns="http://www.w3.org/2000/svg"
   xmlns:xlink="http://www.w3.org/1999/xlink"
   xmlns:sodipodi="http://sodipodi.sourceforge.net/DTD/sodipodi-0.dtd"
   xmlns:inkscape="http://www.inkscape.org/namespaces/inkscape"
   inkscape:export-ydpi="96"
   inkscape:export-xdpi="96"
   inkscape:export-filename="C:\Users\Corey\Documents\KoBee\Mascot\404.png"
   sodipodi:docname="404.svg"
   inkscape:version="1.0 (4035a4fb49, 2020-05-01)"
   id="svg949"
   version="1.1"
   viewBox="0 0 845.16199 433.44055"
   height="433.44055mm"
   width="845.16199mm">
  <defs
     id="defs943">
    <inkscape:path-effect
       lpeversion="1"
       is_visible="true"
       id="path-effect5346"
       effect="spiro" />
    <inkscape:path-effect
       lpeversion="1"
       is_visible="true"
       id="path-effect5182"
       effect="spiro" />
    <inkscape:path-effect
       lpeversion="1"
       is_visible="true"
       id="path-effect5097"
       effect="spiro" />
    <inkscape:path-effect
       lpeversion="1"
       is_visible="true"
       id="path-effect4964"
       effect="spiro" />
    <inkscape:path-effect
       lpeversion="1"
       is_visible="true"
       id="path-effect4448"
       effect="spiro" />
    <inkscape:path-effect
       lpeversion="1"
       is_visible="true"
       id="path-effect4444"
       effect="spiro" />
    <inkscape:path-effect
       lpeversion="1"
       is_visible="true"
       id="path-effect4440"
       effect="spiro" />
    <inkscape:path-effect
       lpeversion="1"
       is_visible="true"
       id="path-effect4436"
       effect="spiro" />
    <inkscape:path-effect
       effect="spiro"
       id="path-effect4432"
       is_visible="true"
       lpeversion="1" />
    <inkscape:path-effect
       effect="spiro"
       id="path-effect4428"
       is_visible="true"
       lpeversion="1" />
    <inkscape:path-effect
       effect="spiro"
       id="path-effect4123"
       is_visible="true"
       lpeversion="1" />
    <inkscape:path-effect
       lpeversion="1"
       is_visible="true"
       id="path-effect4104"
       effect="spiro" />
    <inkscape:path-effect
       effect="spiro"
       id="path-effect4085"
       is_visible="true"
       lpeversion="1" />
    <inkscape:path-effect
       lpeversion="1"
       is_visible="true"
       id="path-effect4066"
       effect="spiro" />
    <linearGradient
       inkscape:collect="always"
       id="linearGradient2005">
      <stop
         style="stop-color:#3e1c1c;stop-opacity:1"
         offset="0"
         id="stop2001" />
      <stop
         style="stop-color:#674008;stop-opacity:1"
         offset="1"
         id="stop2003" />
    </linearGradient>
    <inkscape:path-effect
       lpeversion="1"
       is_visible="true"
       id="path-effect1985"
       effect="spiro" />
    <inkscape:path-effect
       lpeversion="1"
       is_visible="true"
       id="path-effect1969"
       effect="spiro" />
    <inkscape:path-effect
       lpeversion="1"
       is_visible="true"
       id="path-effect1965"
       effect="spiro" />
    <inkscape:path-effect
       lpeversion="1"
       is_visible="true"
       id="path-effect1961"
       effect="spiro" />
    <inkscape:path-effect
       lpeversion="1"
       is_visible="true"
       id="path-effect1957"
       effect="spiro" />
    <inkscape:path-effect
       lpeversion="1"
       is_visible="true"
       id="path-effect1936"
       effect="spiro" />
    <inkscape:path-effect
       lpeversion="1"
       is_visible="true"
       id="path-effect1868"
       effect="spiro" />
    <inkscape:path-effect
       lpeversion="1"
       is_visible="true"
       id="path-effect1829"
       effect="spiro" />
    <inkscape:path-effect
       effect="spiro"
       id="path-effect1827"
       is_visible="true"
       lpeversion="1" />
    <inkscape:path-effect
       lpeversion="1"
       is_visible="true"
       id="path-effect1789"
       effect="spiro" />
    <inkscape:path-effect
       effect="spiro"
       id="path-effect1255"
       is_visible="true"
       lpeversion="1" />
    <inkscape:path-effect
       effect="spiro"
       id="path-effect1253"
       is_visible="true"
       lpeversion="1" />
    <inkscape:path-effect
       effect="spiro"
       id="path-effect1251"
       is_visible="true"
       lpeversion="1" />
    <inkscape:path-effect
       effect="spiro"
       id="path-effect1249"
       is_visible="true"
       lpeversion="1" />
    <inkscape:path-effect
       lpeversion="1"
       is_visible="true"
       id="path-effect5170"
       effect="spiro" />
    <inkscape:path-effect
       effect="spiro"
       id="path-effect5174"
       is_visible="true"
       lpeversion="1" />
    <inkscape:path-effect
       lpeversion="1"
       is_visible="true"
       id="path-effect5140"
       effect="spiro" />
    <inkscape:path-effect
       lpeversion="1"
       is_visible="true"
       id="path-effect910"
       effect="spiro" />
    <inkscape:path-effect
       lpeversion="1"
       is_visible="true"
       id="path-effect5855"
       effect="spiro" />
    <linearGradient
       id="linearGradient5865"
       inkscape:collect="always">
      <stop
         id="stop5861"
         offset="0"
         style="stop-color:#4d4d4d;stop-opacity:1" />
      <stop
         id="stop5863"
         offset="1"
         style="stop-color:#848588;stop-opacity:1" />
    </linearGradient>
    <inkscape:path-effect
       lpeversion="1"
       is_visible="true"
       id="path-effect5859"
       effect="spiro" />
    <inkscape:path-effect
       lpeversion="1"
       is_visible="true"
       id="path-effect919"
       effect="spiro" />
    <inkscape:path-effect
       lpeversion="1"
       is_visible="true"
       id="path-effect5879"
       effect="spiro" />
    <inkscape:path-effect
       effect="spiro"
       id="path-effect5871"
       is_visible="true"
       lpeversion="1" />
    <inkscape:path-effect
       effect="spiro"
       id="path-effect882"
       is_visible="true"
       lpeversion="1" />
    <inkscape:path-effect
       lpeversion="1"
       is_visible="true"
       id="path-effect901"
       effect="spiro" />
    <clipPath
       id="clipPath5132"
       clipPathUnits="userSpaceOnUse">
      <g
         inkscape:label="Clip"
         id="use5134">
        <rect
           ry="1.8068535"
           y="194.57222"
           x="62.206989"
           height="39.22237"
           width="78.911324"
           id="rect4547"
           style="opacity:1;fill:#999999;fill-opacity:1;stroke:none;stroke-width:0.264999;stroke-linecap:round;stroke-linejoin:round;stroke-miterlimit:4;stroke-dasharray:none;stroke-opacity:1" />
      </g>
    </clipPath>
    <filter
       inkscape:collect="always"
       style="color-interpolation-filters:sRGB"
       id="filter1172-8"
       x="-2.3019003e-05"
       width="1.000046"
       y="-4.3058346e-05"
       height="1.0000861">
      <feGaussianBlur
         inkscape:collect="always"
         stdDeviation="0.00090649237"
         id="feGaussianBlur1174-6" />
    </filter>
    <radialGradient
       gradientUnits="userSpaceOnUse"
       gradientTransform="matrix(1.5677762,-0.72031316,0.25707905,0.55953777,-54.968667,85.005327)"
       r="15.610976"
       fy="150.8969"
       fx="28.490515"
       cy="150.8969"
       cx="28.490515"
       id="radialGradient1884"
       xlink:href="#linearGradient5865"
       inkscape:collect="always" />
    <radialGradient
       gradientUnits="userSpaceOnUse"
       gradientTransform="matrix(1.4851103,0,0,1.0240931,-117.10934,-16.52428)"
       r="75.369774"
       fy="165.54779"
       fx="80.044304"
       cy="165.54779"
       cx="80.044304"
       id="radialGradient1902"
       xlink:href="#linearGradient5865"
       inkscape:collect="always" />
    <radialGradient
       gradientUnits="userSpaceOnUse"
       gradientTransform="matrix(0.6862331,-1.5327296,1.1644774,0.52135938,-60.70162,234.93407)"
       r="10.574974"
       fy="55.680042"
       fx="152.88087"
       cy="55.680042"
       cx="152.88087"
       id="radialGradient1926"
       xlink:href="#linearGradient5865"
       inkscape:collect="always" />
    <linearGradient
       gradientTransform="matrix(1.4851103,0,0,1.4851103,-116.71642,-78.00361)"
       gradientUnits="userSpaceOnUse"
       y2="184.61302"
       x2="105.43646"
       y1="184.61302"
       x1="80.56562"
       id="linearGradient1999"
       xlink:href="#linearGradient2005"
       inkscape:collect="always" />
    <linearGradient
       gradientTransform="translate(-0.79374997,-3.0427083)"
       gradientUnits="userSpaceOnUse"
       y2="121.40906"
       x2="117.40826"
       y1="121.40906"
       x1="88.751396"
       id="linearGradient2017"
       xlink:href="#linearGradient2005"
       inkscape:collect="always" />
    <clipPath
       id="clipPath4149"
       clipPathUnits="userSpaceOnUse">
      <use
         height="100%"
         width="100%"
         id="use4151"
         xlink:href="#g4145"
         y="0"
         x="0" />
    </clipPath>
    <clipPath
       clipPathUnits="userSpaceOnUse"
       id="clipPath4149-5">
      <g
         inkscape:label="Clip"
         id="use4151-6">
        <path
           style="display:inline;fill:#fccb3a;fill-opacity:1;stroke:none;stroke-width:0.264583px;stroke-linecap:butt;stroke-linejoin:miter;stroke-opacity:1"
           d="m 100.14791,244.48664 c -1.060121,2.4669 -1.363551,5.2074 -2.432161,7.67064 -1.57352,3.62707 -4.66486,6.36033 -6.73519,9.72861 -3.2885,5.35016 -3.76458,12.29118 -1.37878,18.10034 2.3858,5.80916 7.53213,10.37786 13.539541,12.20802 3.81904,1.16347 7.93073,1.26233 11.84676,0.48546 3.91602,-0.77686 7.63868,-2.41343 10.97806,-4.60141 6.92771,-4.53909 12.28827,-11.69663 13.84456,-19.8314 1.42564,-7.45191 -0.46303,-15.47281 -5.05139,-21.51519 -3.29029,-4.33296 -7.89077,-7.6323 -13.0027,-9.49475 -3.0752,-1.1204 -6.38399,-1.73438 -9.63503,-1.3564 -2.5569,0.29727 -5.0469,1.21543 -7.14921,2.70082 -2.10231,1.48539 -3.80814,3.54027 -4.82446,5.90526 z"
           id="path5571" />
      </g>
    </clipPath>
    <clipPath
       id="clipPath4340"
       clipPathUnits="userSpaceOnUse">
      <path
         id="path4342"
         d="m 85.929171,247.29297 c -1.060122,2.4669 -1.363551,5.2074 -2.432161,7.67064 -1.57352,3.62707 -4.664861,6.36033 -6.735191,9.7286 -3.288498,5.35017 -3.764579,12.29119 -1.378778,18.10036 2.385798,5.80916 7.532129,10.37785 13.539541,12.208 3.819038,1.16348 7.930729,1.26233 11.846758,0.48546 3.91602,-0.77684 7.63868,-2.41342 10.97806,-4.60139 6.92771,-4.53909 12.28827,-11.69665 13.84456,-19.8314 1.42564,-7.45192 -0.46303,-15.47282 -5.05139,-21.5152 -3.29029,-4.33296 -7.89077,-7.6323 -13.0027,-9.49475 -3.0752,-1.1204 -6.38399,-1.73438 -9.635028,-1.3564 -2.556901,0.29727 -5.0469,1.21543 -7.149211,2.70082 -2.10231,1.48539 -3.80814,3.54027 -4.82446,5.90526 z"
         style="display:inline;fill:#fccb3a;fill-opacity:1;stroke:none;stroke-width:0.264583px;stroke-linecap:butt;stroke-linejoin:miter;stroke-opacity:1" />
    </clipPath>
    <clipPath
       id="clipPath4344"
       clipPathUnits="userSpaceOnUse">
      <path
         id="path4346"
         d="m 85.929171,247.29297 c -1.060122,2.4669 -1.363551,5.2074 -2.432161,7.67064 -1.57352,3.62707 -4.664861,6.36033 -6.735191,9.7286 -3.288498,5.35017 -3.764579,12.29119 -1.378778,18.10036 2.385798,5.80916 7.532129,10.37785 13.539541,12.208 3.819038,1.16348 7.930729,1.26233 11.846758,0.48546 3.91602,-0.77684 7.63868,-2.41342 10.97806,-4.60139 6.92771,-4.53909 12.28827,-11.69665 13.84456,-19.8314 1.42564,-7.45192 -0.46303,-15.47282 -5.05139,-21.5152 -3.29029,-4.33296 -7.89077,-7.6323 -13.0027,-9.49475 -3.0752,-1.1204 -6.38399,-1.73438 -9.635028,-1.3564 -2.556901,0.29727 -5.0469,1.21543 -7.149211,2.70082 -2.10231,1.48539 -3.80814,3.54027 -4.82446,5.90526 z"
         style="display:inline;fill:#fccb3a;fill-opacity:1;stroke:none;stroke-width:0.264583px;stroke-linecap:butt;stroke-linejoin:miter;stroke-opacity:1" />
    </clipPath>
    <clipPath
       id="clipPath4348"
       clipPathUnits="userSpaceOnUse">
      <path
         id="path4350"
         d="m 85.929171,247.29297 c -1.060122,2.4669 -1.363551,5.2074 -2.432161,7.67064 -1.57352,3.62707 -4.664861,6.36033 -6.735191,9.7286 -3.288498,5.35017 -3.764579,12.29119 -1.378778,18.10036 2.385798,5.80916 7.532129,10.37785 13.539541,12.208 3.819038,1.16348 7.930729,1.26233 11.846758,0.48546 3.91602,-0.77684 7.63868,-2.41342 10.97806,-4.60139 6.92771,-4.53909 12.28827,-11.69665 13.84456,-19.8314 1.42564,-7.45192 -0.46303,-15.47282 -5.05139,-21.5152 -3.29029,-4.33296 -7.89077,-7.6323 -13.0027,-9.49475 -3.0752,-1.1204 -6.38399,-1.73438 -9.635028,-1.3564 -2.556901,0.29727 -5.0469,1.21543 -7.149211,2.70082 -2.10231,1.48539 -3.80814,3.54027 -4.82446,5.90526 z"
         style="display:inline;fill:#fccb3a;fill-opacity:1;stroke:none;stroke-width:0.264583px;stroke-linecap:butt;stroke-linejoin:miter;stroke-opacity:1" />
    </clipPath>
    <clipPath
       id="clipPath4352"
       clipPathUnits="userSpaceOnUse">
      <path
         id="path4354"
         d="m 85.929171,247.29297 c -1.060122,2.4669 -1.363551,5.2074 -2.432161,7.67064 -1.57352,3.62707 -4.664861,6.36033 -6.735191,9.7286 -3.288498,5.35017 -3.764579,12.29119 -1.378778,18.10036 2.385798,5.80916 7.532129,10.37785 13.539541,12.208 3.819038,1.16348 7.930729,1.26233 11.846758,0.48546 3.91602,-0.77684 7.63868,-2.41342 10.97806,-4.60139 6.92771,-4.53909 12.28827,-11.69665 13.84456,-19.8314 1.42564,-7.45192 -0.46303,-15.47282 -5.05139,-21.5152 -3.29029,-4.33296 -7.89077,-7.6323 -13.0027,-9.49475 -3.0752,-1.1204 -6.38399,-1.73438 -9.635028,-1.3564 -2.556901,0.29727 -5.0469,1.21543 -7.149211,2.70082 -2.10231,1.48539 -3.80814,3.54027 -4.82446,5.90526 z"
         style="display:inline;fill:#fccb3a;fill-opacity:1;stroke:none;stroke-width:0.264583px;stroke-linecap:butt;stroke-linejoin:miter;stroke-opacity:1" />
    </clipPath>
    <radialGradient
       r="15.610976"
       fy="150.8969"
       fx="28.490515"
       cy="150.8969"
       cx="28.490515"
       gradientTransform="matrix(2.3283206,-1.0697445,0.38179075,0.83097531,-198.74388,53.73977)"
       gradientUnits="userSpaceOnUse"
       id="radialGradient4543"
       xlink:href="#linearGradient5865"
       inkscape:collect="always" />
    <linearGradient
       y2="121.40906"
       x2="117.40826"
       y1="121.40906"
       x1="88.751396"
       gradientTransform="matrix(1.4851103,0,0,1.4851103,-118.28815,-77.02128)"
       gradientUnits="userSpaceOnUse"
       id="linearGradient4545"
       xlink:href="#linearGradient2005"
       inkscape:collect="always" />
    <linearGradient
       gradientTransform="matrix(1.1411258,0,0,1.1411258,124.74298,-232.0994)"
       id="SVGID_24_"
       gradientUnits="userSpaceOnUse"
       x1="201.1132"
       y1="272.99899"
       x2="237.0392"
       y2="272.5499">
      <stop
         offset="6.760204e-02"
         style="stop-color:#E5F4F9"
         id="stop265" />
      <stop
         offset="1"
         style="stop-color:#A9BFD2"
         id="stop267" />
    </linearGradient>
    <linearGradient
       id="SVGID_25_"
       gradientUnits="userSpaceOnUse"
       x1="220.4492"
       y1="294.556"
       x2="220.4492"
       y2="344.11929">
      <stop
         offset="3.316326e-02"
         style="stop-color:#E4A030"
         id="stop272" />
      <stop
         offset="1"
         style="stop-color:#FFCA45"
         id="stop274" />
    </linearGradient>
    <linearGradient
       gradientTransform="matrix(1.1411258,0,0,1.1411258,124.74298,-232.0994)"
       id="SVGID_26_"
       gradientUnits="userSpaceOnUse"
       x1="179.9556"
       y1="266.6723"
       x2="193.4278"
       y2="327.29739">
      <stop
         offset="6.760204e-02"
         style="stop-color:#E5F4F9"
         id="stop279" />
      <stop
         offset="1"
         style="stop-color:#A9BFD2"
         id="stop281" />
    </linearGradient>
    <linearGradient
       gradientTransform="matrix(1.1411258,0,0,1.1411258,124.74298,-232.0994)"
       id="SVGID_27_"
       gradientUnits="userSpaceOnUse"
       x1="241.81551"
       y1="255.5061"
       x2="240.0192"
       y2="323.76541">
      <stop
         offset="6.760204e-02"
         style="stop-color:#E5F4F9"
         id="stop286" />
      <stop
         offset="1"
         style="stop-color:#A9BFD2"
         id="stop288" />
    </linearGradient>
    <linearGradient
       gradientTransform="matrix(1.1411258,0,0,1.1411258,124.74298,-232.0994)"
       id="SVGID_28_"
       gradientUnits="userSpaceOnUse"
       x1="152.4133"
       y1="276.07541"
       x2="195.07539"
       y2="347.02921">
      <stop
         offset="6.720345e-02"
         style="stop-color:#6F7676"
         id="stop293" />
      <stop
         offset="1"
         style="stop-color:#96A7B4"
         id="stop295" />
    </linearGradient>
  </defs>
  <sodipodi:namedview
     fit-margin-bottom="0"
     fit-margin-right="0"
     fit-margin-left="0"
     fit-margin-top="0"
     inkscape:window-maximized="1"
     inkscape:window-y="472"
     inkscape:window-x="-8"
     inkscape:window-height="1377"
     inkscape:window-width="2560"
     showgrid="false"
     inkscape:document-rotation="0"
     inkscape:current-layer="layer9"
     inkscape:document-units="mm"
     inkscape:cy="1102.636"
     inkscape:cx="976.0933"
     inkscape:zoom="0.25"
     inkscape:pageshadow="2"
     inkscape:pageopacity="0.0"
     borderopacity="1.0"
     bordercolor="#666666"
     pagecolor="#ffffff"
     id="base" />
  <metadata
     id="metadata946">
    <rdf:RDF>
      <cc:Work
         rdf:about="">
        <dc:format>image/svg+xml</dc:format>
        <dc:type
           rdf:resource="http://purl.org/dc/dcmitype/StillImage" />
        <dc:title></dc:title>
      </cc:Work>
    </rdf:RDF>
  </metadata>
  <g
     transform="translate(172.58099,134.70057)"
     inkscape:label="Backround"
     id="layer11"
     inkscape:groupmode="layer" />
  <g
     transform="translate(172.58099,134.70057)"
     style="display:inline"
     id="layer1"
     inkscape:groupmode="layer"
     inkscape:label="Reference">
    <text
       id="text5007"
       y="253.05565"
       x="800.99438"
       style="font-style:normal;font-weight:normal;font-size:12.6968px;line-height:1.25;font-family:sans-serif;fill:#000000;fill-opacity:1;stroke:none;stroke-width:0.31742"
       xml:space="preserve"><tspan
         style="stroke-width:0.31742"
         y="253.05565"
         x="800.99438"
         id="tspan5005"
         sodipodi:role="line"></tspan></text>
  </g>
  <g
     transform="translate(172.58099,134.70057)"
     style="display:inline"
     inkscape:label="Spanner"
     id="layer4"
     inkscape:groupmode="layer" />
  <g
     transform="translate(172.58099,134.70057)"
     style="display:inline"
     inkscape:label="Stinger"
     id="layer8"
     inkscape:groupmode="layer" />
  <g
     transform="translate(172.58099,134.70057)"
     style="display:inline"
     inkscape:label="Body"
     id="layer7"
     inkscape:groupmode="layer">
    <g
       transform="translate(-14.218739,2.80633)"
       clip-path="url(#clipPath4149)"
       id="g4147">
      <g
         id="g4145"
         inkscape:label="Clip" />
    </g>
  </g>
  <g
     transform="translate(172.58099,134.70057)"
     style="display:inline"
     inkscape:label="Hands"
     id="layer6"
     inkscape:groupmode="layer" />
  <g
     transform="translate(172.58099,134.70057)"
     style="display:inline"
     inkscape:label="Neck"
     id="layer5"
     inkscape:groupmode="layer" />
  <g
     transform="translate(172.58099,134.70057)"
     style="display:inline"
     inkscape:label="Face"
     id="layer2"
     inkscape:groupmode="layer" />
  <g
     transform="translate(172.58099,134.70057)"
     style="display:inline"
     inkscape:label="Features"
     id="layer3"
     inkscape:groupmode="layer" />
  <g
     transform="translate(172.58099,134.70057)"
     inkscape:label="Hard Hat"
     id="layer9"
     inkscape:groupmode="layer">
    <path
       inkscape:original-d="m 236.08866,-72.372119 c -75.48741,8.588006 -41.58536,44.29813 -62.37854,66.4466958 C 152.91694,16.223142 86.702093,17.833354 43.197585,29.71223 -0.30693876,41.591119 -62.805564,78.277077 -115.80764,102.55898 c -53.00208,24.28191 5.87657,51.07841 8.81435,76.61711 2.93778,25.5387 105.3206262,39.32595 157.980432,58.9884 52.659788,19.66246 50.626388,-25.31269 75.939078,-37.96954 25.31268,-12.65685 36.16181,-6.77994 54.24221,-10.17042 18.08037,-3.39048 113.90896,16.27301 170.86294,24.409 C 408.98534,222.56952 499.3897,132.16652 573.06835,91.032517 646.74699,49.898505 545.04354,43.570926 531.03063,19.83962 517.01775,-3.8916742 485.37711,-58.811239 462.54986,-98.137172 439.7226,-137.46311 311.57608,-80.960138 236.08866,-72.372119 Z"
       inkscape:path-effect="#path-effect5182"
       id="path5180"
       d="m 236.08866,-72.372119 c -20.94796,22.088808 -37.95727,48.271601 -62.37854,66.4466958 -18.35594,13.6610801 -40.15728,22.1519312 -62.46097,27.2617892 -22.3037,5.109859 -45.213342,6.968348 -68.051565,8.375864 -30.961204,1.908134 -62.464864,3.104661 -91.826275,13.111892 -14.680706,5.003616 -28.713025,12.232774 -40.565807,22.236315 -11.852783,10.003541 -21.470973,22.865795 -26.613143,37.498543 -4.38821,12.48723 -5.44574,26.04683 -3.70915,39.16825 1.7366,13.12141 6.22009,25.81038 12.5235,37.44886 14.592989,26.94417 39.245335,48.26034 67.967406,58.93677 28.722071,10.67642 61.261756,10.64917 90.013026,0.0516 26.585175,-9.79913 49.411888,-28.0145 75.939078,-37.96954 17.29376,-6.48995 35.79079,-9.31092 54.24221,-10.17042 57.63545,-2.68477 114.2436,13.30479 170.86294,24.409 24.89476,4.88237 50.08113,8.84683 75.44855,9.13042 25.36742,0.28359 51.02207,-3.20983 74.51213,-12.79124 23.49006,-9.5814 44.74959,-25.5239 58.41919,-46.89511 13.6696,-21.37121 19.21317,-48.33785 12.65711,-72.845083 C 569.48849,77.650629 562.54328,65.408034 554.79787,53.923307 547.05246,42.43858 538.43981,31.544078 531.03063,19.83962 518.8146,0.54167967 510.03723,-20.682545 500.11685,-41.255047 490.19646,-61.827549 478.85361,-82.142503 462.54986,-98.137172 447.4436,-112.95705 428.39711,-123.601 408.03802,-129.37465 c -20.3591,-5.77364 -41.9907,-6.72921 -62.89965,-3.46673 -41.81789,6.52496 -79.92577,29.7592 -109.04971,60.469261 z"
       style="fill:#c2c2c2;fill-opacity:0.532258;stroke:none;stroke-width:0.339013px;stroke-linecap:butt;stroke-linejoin:miter;stroke-opacity:1" />
    <path
       id="path5576"
       style="font-style:normal;font-variant:normal;font-weight:normal;font-stretch:normal;font-size:50.8px;line-height:1.25;font-family:Comfortaa;-inkscape-font-specification:Comfortaa;display:inline;fill:#000000;fill-opacity:1;stroke:none;stroke-width:0.0743924;stroke-opacity:1"
       d="m -170.59979,284.33406 q -0.8636,0 -1.4224,-0.5588 -0.5588,-0.5588 -0.5588,-1.4224 v -35.7124 q 0,-0.8636 0.5588,-1.4224 0.5588,-0.5588 1.4224,-0.5588 0.8636,0 1.4224,0.5588 0.5588,0.5588 0.5588,1.4224 v 35.7124 q 0,0.8636 -0.5588,1.4224 -0.5588,0.5588 -1.4224,0.5588 z" />
    <path
       id="path5578"
       style="font-style:normal;font-variant:normal;font-weight:normal;font-stretch:normal;font-size:50.8px;line-height:1.25;font-family:Comfortaa;-inkscape-font-specification:Comfortaa;display:inline;fill:#000000;fill-opacity:1;stroke:none;stroke-width:0.0743924;stroke-opacity:1"
       d="m -149.29713,284.58806 q -2.9972,0 -5.9436,-1.016 -2.9464,-1.016 -4.7752,-3.048 -0.5588,-0.6096 -0.4572,-1.3716 0.1016,-0.762 0.762,-1.3208 0.7112,-0.508 1.4732,-0.4064 0.762,0.1016 1.27,0.6604 1.2192,1.4224 3.2004,2.1844 2.032,0.762 4.4704,0.762 3.7592,0 5.4356,-1.27 1.6764,-1.3208 1.7272,-3.1496 0,-1.8288 -1.7272,-2.9972 -1.7272,-1.2192 -5.6896,-1.8796 -5.1308,-0.8128 -7.5184,-2.8448 -2.3876,-2.032 -2.3876,-4.826 0,-2.5908 1.3716,-4.318 1.3716,-1.7272 3.6576,-2.5908 2.286,-0.8636 5.0292,-0.8636 3.4036,0 5.842,1.1684 2.4892,1.1684 4.0132,3.1496 0.508,0.6604 0.4064,1.3716 -0.1016,0.7112 -0.8128,1.1684 -0.6096,0.3556 -1.4224,0.254 -0.762,-0.1524 -1.3208,-0.762 -1.27,-1.4732 -2.9464,-2.1336 -1.6764,-0.7112 -3.8608,-0.7112 -2.794,0 -4.4704,1.1684 -1.6764,1.1176 -1.6764,2.8448 0,1.1684 0.6096,2.032 0.6604,0.8636 2.1844,1.524 1.5748,0.6604 4.3688,1.1176 3.81,0.6096 5.9944,1.8288 2.2352,1.1684 3.1496,2.794 0.9652,1.5748 0.9652,3.4544 0,2.3876 -1.4224,4.2164 -1.3716,1.778 -3.8608,2.794 -2.4384,1.016 -5.6388,1.016 z" />
    <path
       id="path5580"
       style="font-style:normal;font-variant:normal;font-weight:normal;font-stretch:normal;font-size:50.8px;line-height:1.25;font-family:Comfortaa;-inkscape-font-specification:Comfortaa;display:inline;fill:#000000;fill-opacity:1;stroke:none;stroke-width:0.0743924;stroke-opacity:1"
       d="m -105.86154,284.33406 q -2.6924,0 -4.826,-1.27 -2.0828,-1.27 -3.302,-3.4544 -1.2192,-2.2352 -1.2192,-5.08 v -24.8412 q 0,-0.8636 0.508,-1.4224 0.5588,-0.5588 1.4224,-0.5588 0.8636,0 1.4224,0.5588 0.5588,0.5588 0.5588,1.4224 v 24.8412 q 0,2.5908 1.524,4.2672 1.524,1.6256 3.9116,1.6256 h 1.3716 q 0.8128,0 1.3208,0.5588 0.508,0.5588 0.508,1.4224 0,0.8636 -0.6096,1.4224 -0.6096,0.508 -1.524,0.508 z m -12.6492,-23.368 q -0.762,0 -1.27,-0.4572 -0.508,-0.508 -0.508,-1.2192 0,-0.762 0.508,-1.2192 0.508,-0.508 1.27,-0.508 h 12.954 q 0.762,0 1.27,0.508 0.508,0.4572 0.508,1.2192 0,0.7112 -0.508,1.2192 -0.508,0.4572 -1.27,0.4572 z" />
    <path
       id="path5582"
       style="font-style:normal;font-variant:normal;font-weight:normal;font-stretch:normal;font-size:50.8px;line-height:1.25;font-family:Comfortaa;-inkscape-font-specification:Comfortaa;display:inline;fill:#000000;fill-opacity:1;stroke:none;stroke-width:0.0743924;stroke-opacity:1"
       d="m -72.468484,284.33406 q -0.8636,0 -1.4224,-0.5588 -0.5588,-0.5588 -0.5588,-1.3716 v -13.208 q 0,-3.1496 -1.2192,-5.1816 -1.1684,-2.032 -3.2512,-3.048 -2.032,-1.016 -4.6228,-1.016 -2.4892,0 -4.5212,0.9652 -1.9812,0.9652 -3.1496,2.6416 -1.1684,1.6764 -1.1684,3.81 h -2.794 q 0.1016,-3.2004 1.7272,-5.6896 1.6256,-2.54 4.318,-3.9624 2.6924,-1.4732 5.9944,-1.4732 3.6068,0 6.4516,1.524 2.8448,1.4732 4.4704,4.3688 1.6764,2.8956 1.6764,7.0612 v 13.208 q 0,0.8128 -0.5588,1.3716 -0.5588,0.5588 -1.3716,0.5588 z m -21.844,0 q -0.9144,0 -1.4732,-0.508 -0.508,-0.5588 -0.508,-1.4224 v -23.876 q 0,-0.9144 0.508,-1.4224 0.5588,-0.5588 1.4732,-0.5588 0.8636,0 1.3716,0.5588 0.5588,0.508 0.5588,1.4224 v 23.876 q 0,0.8636 -0.5588,1.4224 -0.508,0.508 -1.3716,0.508 z m 0,-11.3284 q -0.9144,0 -1.4732,-0.5588 -0.508,-0.5588 -0.508,-1.4224 v -24.384 q 0,-0.9144 0.508,-1.4224 0.5588,-0.5588 1.4732,-0.5588 0.8636,0 1.3716,0.5588 0.5588,0.508 0.5588,1.4224 v 24.384 q 0,0.8636 -0.5588,1.4224 -0.508,0.5588 -1.3716,0.5588 z" />
    <path
       id="path5584"
       style="font-style:normal;font-variant:normal;font-weight:normal;font-stretch:normal;font-size:50.8px;line-height:1.25;font-family:Comfortaa;-inkscape-font-specification:Comfortaa;display:inline;fill:#000000;fill-opacity:1;stroke:none;stroke-width:0.0743924;stroke-opacity:1"
       d="m -59.070772,284.33406 q -0.914402,0 -1.473202,-0.508 -0.508,-0.5588 -0.508,-1.4732 v -23.8252 q 0,-0.9144 0.508,-1.4224 0.5588,-0.5588 1.473202,-0.5588 0.8636,0 1.3716,0.5588 0.5588,0.508 0.5588,1.4224 v 23.8252 q 0,0.9144 -0.5588,1.4732 -0.508,0.508 -1.3716,0.508 z m -0.0508,-33.0708 q -1.117602,0 -1.930402,-0.8128 -0.8128,-0.8128 -0.8128,-1.9812 0,-1.27 0.8128,-1.9812 0.8636,-0.762 1.981202,-0.762 1.0668,0 1.8796,0.762 0.8636,0.7112 0.8636,1.9812 0,1.1684 -0.8128,1.9812 -0.8128,0.8128 -1.9812,0.8128 z" />
    <path
       id="path5586"
       style="font-style:normal;font-variant:normal;font-weight:normal;font-stretch:normal;font-size:50.8px;line-height:1.25;font-family:Comfortaa;-inkscape-font-specification:Comfortaa;display:inline;fill:#000000;fill-opacity:1;stroke:none;stroke-width:0.0743924;stroke-opacity:1"
       d="m -37.4776,284.58806 q -2.997202,0 -5.943602,-1.016 -2.9464,-1.016 -4.7752,-3.048 -0.5588,-0.6096 -0.4572,-1.3716 0.1016,-0.762 0.762,-1.3208 0.7112,-0.508 1.4732,-0.4064 0.762,0.1016 1.27,0.6604 1.2192,1.4224 3.2004,2.1844 2.032,0.762 4.470402,0.762 3.7592,0 5.4356,-1.27 1.6764,-1.3208 1.7272,-3.1496 0,-1.8288 -1.7272,-2.9972 -1.7272,-1.2192 -5.6896,-1.8796 -5.130802,-0.8128 -7.518402,-2.8448 -2.3876,-2.032 -2.3876,-4.826 0,-2.5908 1.3716,-4.318 1.3716,-1.7272 3.6576,-2.5908 2.286,-0.8636 5.029202,-0.8636 3.4036,0 5.842,1.1684 2.4892,1.1684 4.0132,3.1496 0.508,0.6604 0.4064,1.3716 -0.1016,0.7112 -0.8128,1.1684 -0.6096,0.3556 -1.4224,0.254 -0.762,-0.1524 -1.3208,-0.762 -1.27,-1.4732 -2.9464,-2.1336 -1.6764,-0.7112 -3.8608,-0.7112 -2.794002,0 -4.470402,1.1684 -1.6764,1.1176 -1.6764,2.8448 0,1.1684 0.6096,2.032 0.6604,0.8636 2.1844,1.524 1.5748,0.6604 4.368802,1.1176 3.81,0.6096 5.9944,1.8288 2.2352,1.1684 3.1496,2.794 0.9652,1.5748 0.9652,3.4544 0,2.3876 -1.4224,4.2164 -1.3716,1.778 -3.8608,2.794 -2.4384,1.016 -5.6388,1.016 z" />
    <path
       id="path5588"
       style="font-style:normal;font-variant:normal;font-weight:normal;font-stretch:normal;font-size:50.8px;line-height:1.25;font-family:Comfortaa;-inkscape-font-specification:Comfortaa;display:inline;fill:#000000;fill-opacity:1;stroke:none;stroke-width:0.0743924;stroke-opacity:1"
       d="m 1.38599,284.33406 q -0.6604,0 -1.1684,-0.3556 -0.508,-0.3556 -0.7112,-0.9144 l -7.9248,-23.7744 q -0.3048,-1.27 0.0508,-1.9812 0.3556,-0.762 1.4224,-0.762 0.6604,0 1.1684,0.3556 0.508,0.3556 0.762,1.1176 l 7.0612,21.59 h -1.1176 l 6.5532,-21.5392 q 0.2032,-0.6604 0.6604,-1.0668 0.508,-0.4572 1.27,-0.4572 0.762,0 1.2192,0.4064 0.508,0.4064 0.7112,1.1176 l 6.2484,21.0312 h -0.8636 l 6.9088,-21.082 q 0.508,-1.4732 1.8796,-1.4732 1.1176,0 1.524,0.8636 0.4064,0.8128 0,1.8796 l -7.9248,23.7744 q -0.2032,0.5588 -0.7112,0.9144 -0.4572,0.3556 -1.1176,0.3556 -0.6604,0 -1.2192,-0.3556 -0.508,-0.3556 -0.6604,-0.9144 l -6.4008,-21.2344 h 0.6096 l -6.4008,21.2344 q -0.2032,0.6096 -0.7112,0.9652 -0.508,0.3048 -1.1176,0.3048 z" />
    <path
       id="path5590"
       style="font-style:normal;font-variant:normal;font-weight:normal;font-stretch:normal;font-size:50.8px;line-height:1.25;font-family:Comfortaa;-inkscape-font-specification:Comfortaa;display:inline;fill:#000000;fill-opacity:1;stroke:none;stroke-width:0.0743924;stroke-opacity:1"
       d="m 56.51589,284.33406 q -0.8636,0 -1.4224,-0.5588 -0.5588,-0.5588 -0.5588,-1.3716 v -13.208 q 0,-3.1496 -1.2192,-5.1816 -1.1684,-2.032 -3.2512,-3.048 -2.032,-1.016 -4.6228,-1.016 -2.4892,0 -4.5212,0.9652 -1.9812,0.9652 -3.1496,2.6416 -1.1684,1.6764 -1.1684,3.81 h -2.794 q 0.1016,-3.2004 1.7272,-5.6896 1.6256,-2.54 4.318,-3.9624 2.6924,-1.4732 5.9944,-1.4732 3.6068,0 6.4516,1.524 2.8448,1.4732 4.4704,4.3688 1.6764,2.8956 1.6764,7.0612 v 13.208 q 0,0.8128 -0.5588,1.3716 -0.5588,0.5588 -1.3716,0.5588 z m -21.844,0 q -0.9144,0 -1.4732,-0.508 -0.508,-0.5588 -0.508,-1.4224 v -23.876 q 0,-0.9144 0.508,-1.4224 0.5588,-0.5588 1.4732,-0.5588 0.8636,0 1.3716,0.5588 0.5588,0.508 0.5588,1.4224 v 23.876 q 0,0.8636 -0.5588,1.4224 -0.508,0.508 -1.3716,0.508 z m 0,-11.3284 q -0.9144,0 -1.4732,-0.5588 -0.508,-0.5588 -0.508,-1.4224 v -24.384 q 0,-0.9144 0.508,-1.4224 0.5588,-0.5588 1.4732,-0.5588 0.8636,0 1.3716,0.5588 0.5588,0.508 0.5588,1.4224 v 24.384 q 0,0.8636 -0.5588,1.4224 -0.508,0.5588 -1.3716,0.5588 z" />
    <path
       id="path5592"
       style="font-style:normal;font-variant:normal;font-weight:normal;font-stretch:normal;font-size:50.8px;line-height:1.25;font-family:Comfortaa;-inkscape-font-specification:Comfortaa;display:inline;fill:#000000;fill-opacity:1;stroke:none;stroke-width:0.0743924;stroke-opacity:1"
       d="m 79.71799,284.58806 q -4.1148,0 -7.3152,-1.778 -3.1496,-1.8288 -4.9784,-5.0292 -1.778,-3.2004 -1.778,-7.3152 0,-4.1656 1.6764,-7.3152 1.7272,-3.2004 4.7244,-5.0292 2.9972,-1.8288 6.9088,-1.8288 3.8608,0 6.7056,1.778 2.8956,1.7272 4.4704,4.826 1.5748,3.0988 1.5748,7.0612 0,0.8128 -0.508,1.3208 -0.508,0.4572 -1.3208,0.4572 h -21.59 v -3.2512 h 21.9964 l -2.1844,1.5748 q 0.0508,-2.9464 -1.0668,-5.2832 -1.1176,-2.3368 -3.2004,-3.6576 -2.032,-1.3208 -4.8768,-1.3208 -2.8956,0 -5.08,1.3716 -2.1844,1.3716 -3.4036,3.81 -1.1684,2.3876 -1.1684,5.4864 0,3.0988 1.3208,5.4864 1.3716,2.3876 3.7084,3.7592 2.3368,1.3716 5.3848,1.3716 1.8288,0 3.6576,-0.6096 1.8796,-0.6604 2.9972,-1.6256 0.5588,-0.4572 1.27,-0.4572 0.7112,-0.0508 1.2192,0.3556 0.6604,0.6096 0.6604,1.3208 0.0508,0.7112 -0.5588,1.2192 -1.6764,1.4224 -4.2672,2.3876 -2.5908,0.9144 -4.9784,0.9144 z" />
    <path
       id="path5594"
       style="font-style:normal;font-variant:normal;font-weight:normal;font-stretch:normal;font-size:50.8px;line-height:1.25;font-family:Comfortaa;-inkscape-font-specification:Comfortaa;display:inline;fill:#000000;fill-opacity:1;stroke:none;stroke-width:0.0743924;stroke-opacity:1"
       d="m 99.89989,267.21446 q 0.1524,-3.1496 1.6256,-5.6388 1.524,-2.4892 3.9116,-3.9116 2.4384,-1.4224 5.3848,-1.4224 2.3368,0 3.6068,0.6604 1.27,0.6604 0.9652,1.9304 -0.2032,0.762 -0.7112,1.016 -0.4572,0.254 -1.1684,0.2032 -0.6604,-0.0508 -1.524,-0.1016 -2.8448,-0.254 -5.08,0.6096 -2.1844,0.8128 -3.5052,2.54 -1.27,1.7272 -1.27,4.1148 z m 0.3048,17.1196 q -0.9144,0 -1.4224,-0.508 -0.508,-0.508 -0.508,-1.4224 v -23.9268 q 0,-0.9144 0.508,-1.4224 0.508,-0.508 1.4224,-0.508 0.9144,0 1.4224,0.508 0.508,0.508 0.508,1.4224 v 23.9268 q 0,0.9144 -0.508,1.4224 -0.508,0.508 -1.4224,0.508 z" />
    <path
       id="path5596"
       style="font-style:normal;font-variant:normal;font-weight:normal;font-stretch:normal;font-size:50.8px;line-height:1.25;font-family:Comfortaa;-inkscape-font-specification:Comfortaa;display:inline;fill:#000000;fill-opacity:1;stroke:none;stroke-width:0.0743924;stroke-opacity:1"
       d="m 132.20472,284.58806 q -4.1148,0 -7.3152,-1.778 -3.1496,-1.8288 -4.9784,-5.0292 -1.778,-3.2004 -1.778,-7.3152 0,-4.1656 1.6764,-7.3152 1.7272,-3.2004 4.7244,-5.0292 2.9972,-1.8288 6.9088,-1.8288 3.8608,0 6.7056,1.778 2.8956,1.7272 4.4704,4.826 1.5748,3.0988 1.5748,7.0612 0,0.8128 -0.508,1.3208 -0.508,0.4572 -1.3208,0.4572 h -21.59 v -3.2512 h 21.9964 l -2.1844,1.5748 q 0.0508,-2.9464 -1.0668,-5.2832 -1.1176,-2.3368 -3.2004,-3.6576 -2.032,-1.3208 -4.8768,-1.3208 -2.8956,0 -5.08,1.3716 -2.1844,1.3716 -3.4036,3.81 -1.1684,2.3876 -1.1684,5.4864 0,3.0988 1.3208,5.4864 1.3716,2.3876 3.7084,3.7592 2.3368,1.3716 5.3848,1.3716 1.8288,0 3.6576,-0.6096 1.8796,-0.6604 2.9972,-1.6256 0.5588,-0.4572 1.27,-0.4572 0.7112,-0.0508 1.2192,0.3556 0.6604,0.6096 0.6604,1.3208 0.0508,0.7112 -0.5588,1.2192 -1.6764,1.4224 -4.2672,2.3876 -2.5908,0.9144 -4.9784,0.9144 z" />
    <path
       id="path5598"
       style="font-style:normal;font-variant:normal;font-weight:normal;font-stretch:normal;font-size:50.8px;line-height:1.25;font-family:Comfortaa;-inkscape-font-specification:Comfortaa;display:inline;fill:#000000;fill-opacity:1;stroke:none;stroke-width:0.0743924;stroke-opacity:1"
       d="m 170.41903,296.42446 q -0.4064,0 -0.9144,-0.2032 -1.7272,-0.762 -0.9652,-2.4384 l 16.4084,-36.1696 q 0.762,-1.6256 2.4384,-0.9144 1.7272,0.7112 0.9652,2.3876 l -16.4592,36.1696 q -0.508,1.1684 -1.4732,1.1684 z m 5.6388,-12.954 q -0.762,0.3556 -1.4224,0.1524 -0.6604,-0.254 -1.0668,-1.016 l -11.3284,-23.4696 q -0.3556,-0.762 -0.1016,-1.4224 0.254,-0.6604 1.016,-1.016 0.762,-0.3556 1.4224,-0.1016 0.6604,0.2032 1.016,0.9652 l 11.1252,23.4696 q 0.4064,0.762 0.254,1.4224 -0.1524,0.6604 -0.9144,1.016 z" />
    <path
       id="path5600"
       style="font-style:normal;font-variant:normal;font-weight:normal;font-stretch:normal;font-size:50.8px;line-height:1.25;font-family:Comfortaa;-inkscape-font-specification:Comfortaa;display:inline;fill:#000000;fill-opacity:1;stroke:none;stroke-width:0.0743924;stroke-opacity:1"
       d="m 205.1813,284.58806 q -4.064,0 -7.2644,-1.8288 -3.2004,-1.8288 -5.0292,-5.0292 -1.8288,-3.2004 -1.8288,-7.2644 0,-4.1148 1.8288,-7.3152 1.8288,-3.2004 5.0292,-5.0292 3.2004,-1.8288 7.2644,-1.8288 4.064,0 7.2136,1.8288 3.2004,1.8288 5.0292,5.0292 1.8288,3.2004 1.8796,7.3152 0,4.064 -1.8796,7.2644 -1.8288,3.2004 -5.0292,5.0292 -3.1496,1.8288 -7.2136,1.8288 z m 0,-3.556 q 2.9464,0 5.2832,-1.3716 2.3368,-1.3716 3.6576,-3.7592 1.3208,-2.3876 1.3208,-5.4356 0,-3.048 -1.3208,-5.4356 -1.3208,-2.4384 -3.6576,-3.81 -2.3368,-1.3716 -5.2832,-1.3716 -2.9464,0 -5.2832,1.3716 -2.3368,1.3716 -3.7084,3.81 -1.3208,2.3876 -1.3208,5.4356 0,3.048 1.3208,5.4356 1.3716,2.3876 3.7084,3.7592 2.3368,1.3716 5.2832,1.3716 z" />
    <path
       id="path5602"
       style="font-style:normal;font-variant:normal;font-weight:normal;font-stretch:normal;font-size:50.8px;line-height:1.25;font-family:Comfortaa;-inkscape-font-specification:Comfortaa;display:inline;fill:#000000;fill-opacity:1;stroke:none;stroke-width:0.0743924;stroke-opacity:1"
       d="m 239.05139,284.63886 q -3.6068,0 -6.45159,-1.4732 -2.8448,-1.524 -4.5212,-4.4196 -1.6256,-2.8956 -1.6256,-7.0612 v -13.208 q 0,-0.8128 0.5588,-1.3716 0.5588,-0.5588 1.3716,-0.5588 0.8636,0 1.4224,0.5588 0.5588,0.5588 0.5588,1.3716 v 13.208 q 0,3.1496 1.1684,5.1816 1.2192,2.032 3.25119,3.048 2.0828,1.016 4.6736,1.016 2.4892,0 4.4704,-0.9652 2.032,-0.9652 3.2004,-2.6416 1.1684,-1.6764 1.1684,-3.81 h 2.794 q -0.1524,3.2004 -1.778,5.7404 -1.5748,2.4892 -4.2672,3.9624 -2.6924,1.4224 -5.9944,1.4224 z m 11.176,-0.3048 q -0.8636,0 -1.4224,-0.508 -0.508,-0.5588 -0.508,-1.4732 v -23.876 q 0,-0.8636 0.508,-1.3716 0.5588,-0.5588 1.4224,-0.5588 0.8636,0 1.4224,0.5588 0.5588,0.508 0.5588,1.3716 v 23.876 q 0,0.9144 -0.5588,1.4732 -0.5588,0.508 -1.4224,0.508 z" />
    <path
       id="path5604"
       style="font-style:normal;font-variant:normal;font-weight:normal;font-stretch:normal;font-size:50.8px;line-height:1.25;font-family:Comfortaa;-inkscape-font-specification:Comfortaa;display:inline;fill:#000000;fill-opacity:1;stroke:none;stroke-width:0.0743924;stroke-opacity:1"
       d="m 282.57193,284.33406 q -0.6604,0 -1.1684,-0.3556 -0.508,-0.3556 -0.7112,-0.9144 l -7.9248,-23.7744 q -0.3048,-1.27 0.0508,-1.9812 0.3556,-0.762 1.4224,-0.762 0.6604,0 1.1684,0.3556 0.508,0.3556 0.762,1.1176 l 7.0612,21.59 h -1.1176 l 6.5532,-21.5392 q 0.2032,-0.6604 0.6604,-1.0668 0.508,-0.4572 1.27,-0.4572 0.762,0 1.2192,0.4064 0.508,0.4064 0.7112,1.1176 l 6.2484,21.0312 h -0.8636 l 6.9088,-21.082 q 0.508,-1.4732 1.8796,-1.4732 1.1176,0 1.524,0.8636 0.4064,0.8128 0,1.8796 l -7.9248,23.7744 q -0.2032,0.5588 -0.7112,0.9144 -0.4572,0.3556 -1.1176,0.3556 -0.6604,0 -1.2192,-0.3556 -0.508,-0.3556 -0.6604,-0.9144 l -6.4008,-21.2344 h 0.6096 l -6.4008,21.2344 q -0.2032,0.6096 -0.7112,0.9652 -0.508,0.3048 -1.1176,0.3048 z" />
    <path
       id="path5606"
       style="font-style:normal;font-variant:normal;font-weight:normal;font-stretch:normal;font-size:50.8px;line-height:1.25;font-family:Comfortaa;-inkscape-font-specification:Comfortaa;display:inline;fill:#000000;fill-opacity:1;stroke:none;stroke-width:0.0743924;stroke-opacity:1"
       d="m 325.12723,284.58806 q -3.9116,0 -7.0104,-1.8288 -3.0988,-1.8796 -4.9276,-5.08 -1.778,-3.2004 -1.778,-7.2136 0,-4.064 1.8288,-7.2644 1.8796,-3.2004 5.08,-5.0292 3.2004,-1.8796 7.2136,-1.8796 4.0132,0 7.1628,1.8796 3.2004,1.8288 5.0292,5.0292 1.8796,3.2004 1.9304,7.2644 l -1.5748,1.2192 q 0,3.6576 -1.7272,6.604 -1.6764,2.8956 -4.6228,4.6228 -2.8956,1.6764 -6.604,1.6764 z m 0.4064,-3.556 q 2.9464,0 5.2324,-1.3716 2.3368,-1.3716 3.6576,-3.7592 1.3716,-2.4384 1.3716,-5.4356 0,-3.048 -1.3716,-5.4356 -1.3208,-2.3876 -3.6576,-3.7592 -2.286,-1.4224 -5.2324,-1.4224 -2.8956,0 -5.2324,1.4224 -2.3368,1.3716 -3.7084,3.7592 -1.3716,2.3876 -1.3716,5.4356 0,2.9972 1.3716,5.4356 1.3716,2.3876 3.7084,3.7592 2.3368,1.3716 5.2324,1.3716 z m 12.1412,3.302 q -0.8636,0 -1.4224,-0.508 -0.5588,-0.5588 -0.5588,-1.4224 v -8.6868 l 0.9652,-4.0132 2.9972,0.762 v 11.938 q 0,0.8636 -0.5588,1.4224 -0.5588,0.508 -1.4224,0.508 z" />
    <path
       id="path5608"
       style="font-style:normal;font-variant:normal;font-weight:normal;font-stretch:normal;font-size:50.8px;line-height:1.25;font-family:Comfortaa;-inkscape-font-specification:Comfortaa;display:inline;fill:#000000;fill-opacity:1;stroke:none;stroke-width:0.0743924;stroke-opacity:1"
       d="m 371.13855,284.33406 q -0.8636,0 -1.4224,-0.5588 -0.5588,-0.5588 -0.5588,-1.3716 v -13.208 q 0,-3.1496 -1.2192,-5.1816 -1.1684,-2.032 -3.2512,-3.048 -2.032,-1.016 -4.6228,-1.016 -2.4892,0 -4.5212,0.9652 -1.9812,0.9652 -3.1496,2.6416 -1.1684,1.6764 -1.1684,3.81 h -2.794 q 0.1016,-3.2004 1.7272,-5.6896 1.6256,-2.54 4.318,-3.9624 2.6924,-1.4732 5.9944,-1.4732 3.6068,0 6.4516,1.524 2.8448,1.4732 4.4704,4.3688 1.6764,2.8956 1.6764,7.0612 v 13.208 q 0,0.8128 -0.5588,1.3716 -0.5588,0.5588 -1.3716,0.5588 z m -21.844,0 q -0.9144,0 -1.4732,-0.508 -0.508,-0.5588 -0.508,-1.4224 v -23.876 q 0,-0.9144 0.508,-1.4224 0.5588,-0.5588 1.4732,-0.5588 0.8636,0 1.3716,0.5588 0.5588,0.508 0.5588,1.4224 v 23.876 q 0,0.8636 -0.5588,1.4224 -0.508,0.508 -1.3716,0.508 z" />
    <path
       id="path5614"
       style="font-style:normal;font-variant:normal;font-weight:normal;font-stretch:normal;font-size:50.8px;line-height:1.25;font-family:Comfortaa;-inkscape-font-specification:Comfortaa;display:inline;fill:#000000;fill-opacity:1;stroke:none;stroke-width:0.0743924;stroke-opacity:1"
       d="m 444.99301,284.58806 q -4.0132,0 -7.2136,-1.8288 -3.2004,-1.8796 -5.08,-5.08 -1.8288,-3.2004 -1.8288,-7.2644 0,-4.0132 1.778,-7.2136 1.8288,-3.2004 4.9276,-5.0292 3.0988,-1.8796 7.0104,-1.8796 3.4036,0 6.1468,1.4732 2.7432,1.4224 4.4196,3.81 v -14.9352 q 0,-0.9144 0.5588,-1.4224 0.5588,-0.5588 1.4224,-0.5588 0.8636,0 1.4224,0.5588 0.5588,0.508 0.5588,1.4224 v 23.9776 q -0.1016,3.9624 -1.9812,7.1628 -1.8288,3.1496 -5.0292,4.9784 -3.1496,1.8288 -7.112,1.8288 z m 0,-3.556 q 2.9464,0 5.2324,-1.3716 2.3368,-1.4224 3.6576,-3.81 1.3716,-2.3876 1.3716,-5.4356 0,-2.9972 -1.3716,-5.3848 -1.3208,-2.4384 -3.6576,-3.81 -2.286,-1.3716 -5.2324,-1.3716 -2.8956,0 -5.2324,1.3716 -2.3368,1.3716 -3.7084,3.81 -1.3716,2.3876 -1.3716,5.3848 0,3.048 1.3716,5.4356 1.3716,2.3876 3.7084,3.81 2.3368,1.3716 5.2324,1.3716 z" />
    <path
       id="path5616"
       style="font-style:normal;font-variant:normal;font-weight:normal;font-stretch:normal;font-size:50.8px;line-height:1.25;font-family:Comfortaa;-inkscape-font-specification:Comfortaa;display:inline;fill:#000000;fill-opacity:1;stroke:none;stroke-width:0.0743924;stroke-opacity:1"
       d="m 494.015,284.33406 q -2.6924,0 -4.826,-1.27 -2.0828,-1.27 -3.302,-3.4544 -1.2192,-2.2352 -1.2192,-5.08 v -24.8412 q 0,-0.8636 0.508,-1.4224 0.5588,-0.5588 1.4224,-0.5588 0.8636,0 1.4224,0.5588 0.5588,0.5588 0.5588,1.4224 v 24.8412 q 0,2.5908 1.524,4.2672 1.524,1.6256 3.9116,1.6256 h 1.3716 q 0.8128,0 1.3208,0.5588 0.508,0.5588 0.508,1.4224 0,0.8636 -0.6096,1.4224 -0.6096,0.508 -1.524,0.508 z m -12.6492,-23.368 q -0.762,0 -1.27,-0.4572 -0.508,-0.508 -0.508,-1.2192 0,-0.762 0.508,-1.2192 0.508,-0.508 1.27,-0.508 h 12.954 q 0.762,0 1.27,0.508 0.508,0.4572 0.508,1.2192 0,0.7112 -0.508,1.2192 -0.508,0.4572 -1.27,0.4572 z" />
    <path
       id="path5618"
       style="font-style:normal;font-variant:normal;font-weight:normal;font-stretch:normal;font-size:50.8px;line-height:1.25;font-family:Comfortaa;-inkscape-font-specification:Comfortaa;display:inline;fill:#000000;fill-opacity:1;stroke:none;stroke-width:0.0743924;stroke-opacity:1"
       d="m 516.23208,284.58806 q -4.064,0 -7.2644,-1.8288 -3.2004,-1.8288 -5.0292,-5.0292 -1.8288,-3.2004 -1.8288,-7.2644 0,-4.1148 1.8288,-7.3152 1.8288,-3.2004 5.0292,-5.0292 3.2004,-1.8288 7.2644,-1.8288 4.064,0 7.2136,1.8288 3.2004,1.8288 5.0292,5.0292 1.8288,3.2004 1.8796,7.3152 0,4.064 -1.8796,7.2644 -1.8288,3.2004 -5.0292,5.0292 -3.1496,1.8288 -7.2136,1.8288 z m 0,-3.556 q 2.9464,0 5.2832,-1.3716 2.3368,-1.3716 3.6576,-3.7592 1.3208,-2.3876 1.3208,-5.4356 0,-3.048 -1.3208,-5.4356 -1.3208,-2.4384 -3.6576,-3.81 -2.3368,-1.3716 -5.2832,-1.3716 -2.9464,0 -5.2832,1.3716 -2.3368,1.3716 -3.7084,3.81 -1.3208,2.3876 -1.3208,5.4356 0,3.048 1.3208,5.4356 1.3716,2.3876 3.7084,3.7592 2.3368,1.3716 5.2832,1.3716 z" />
    <path
       id="path5620"
       style="font-style:normal;font-variant:normal;font-weight:normal;font-stretch:normal;font-size:50.8px;line-height:1.25;font-family:Comfortaa;-inkscape-font-specification:Comfortaa;display:inline;fill:#000000;fill-opacity:1;stroke:none;stroke-width:0.0743924;stroke-opacity:1"
       d="m 566.96619,284.58806 q -3.9624,0 -7.1628,-1.8288 -3.1496,-1.8288 -5.0292,-4.9784 -1.8288,-3.2004 -1.8796,-7.1628 v -23.9776 q 0,-0.9144 0.508,-1.4224 0.5588,-0.5588 1.4732,-0.5588 0.8636,0 1.3716,0.5588 0.5588,0.508 0.5588,1.4224 v 14.9352 q 1.6764,-2.3876 4.4196,-3.81 2.794,-1.4732 6.1976,-1.4732 3.9116,0 7.0104,1.8796 3.0988,1.8288 4.8768,5.0292 1.8288,3.2004 1.8288,7.2136 0,4.064 -1.8796,7.2644 -1.8288,3.2004 -5.0292,5.08 -3.2004,1.8288 -7.2644,1.8288 z m 0,-3.556 q 2.9464,0 5.2832,-1.3716 2.3368,-1.4224 3.6576,-3.81 1.3716,-2.3876 1.3716,-5.4356 0,-2.9972 -1.3716,-5.3848 -1.3208,-2.4384 -3.6576,-3.81 -2.3368,-1.3716 -5.2832,-1.3716 -2.8956,0 -5.2324,1.3716 -2.3368,1.3716 -3.6576,3.81 -1.3208,2.3876 -1.3208,5.3848 0,3.048 1.3208,5.4356 1.3208,2.3876 3.6576,3.81 2.3368,1.3716 5.2324,1.3716 z" />
    <path
       id="path5622"
       style="font-style:normal;font-variant:normal;font-weight:normal;font-stretch:normal;font-size:50.8px;line-height:1.25;font-family:Comfortaa;-inkscape-font-specification:Comfortaa;display:inline;fill:#000000;fill-opacity:1;stroke:none;stroke-width:0.0743924;stroke-opacity:1"
       d="m 601.41016,284.58806 q -4.1148,0 -7.3152,-1.778 -3.1496,-1.8288 -4.9784,-5.0292 -1.778,-3.2004 -1.778,-7.3152 0,-4.1656 1.6764,-7.3152 1.7272,-3.2004 4.7244,-5.0292 2.9972,-1.8288 6.9088,-1.8288 3.8608,0 6.7056,1.778 2.8956,1.7272 4.4704,4.826 1.5748,3.0988 1.5748,7.0612 0,0.8128 -0.508,1.3208 -0.508,0.4572 -1.3208,0.4572 h -21.59 v -3.2512 h 21.9964 l -2.1844,1.5748 q 0.0508,-2.9464 -1.0668,-5.2832 -1.1176,-2.3368 -3.2004,-3.6576 -2.032,-1.3208 -4.8768,-1.3208 -2.8956,0 -5.08,1.3716 -2.1844,1.3716 -3.4036,3.81 -1.1684,2.3876 -1.1684,5.4864 0,3.0988 1.3208,5.4864 1.3716,2.3876 3.7084,3.7592 2.3368,1.3716 5.3848,1.3716 1.8288,0 3.6576,-0.6096 1.8796,-0.6604 2.9972,-1.6256 0.5588,-0.4572 1.27,-0.4572 0.7112,-0.0508 1.2192,0.3556 0.6604,0.6096 0.6604,1.3208 0.0508,0.7112 -0.5588,1.2192 -1.6764,1.4224 -4.2672,2.3876 -2.5908,0.9144 -4.9784,0.9144 z" />
    <path
       fill="url(#SVGID_24_)"
       d="m 377.0459,58.43125 -9.81368,11.52538 -5.36329,1.71169 10.8407,8.78667 -6.04797,10.49835 5.02095,6.04799 8.102,-1.02702 4.67861,4.6786 c 0,0 8.78667,1.36937 9.12901,0 0.34233,-1.36935 10.15601,-39.14062 10.15601,-39.14062 l -21.22495,-4.67861 z"
       id="path270"
       style="display:inline;fill:url(#SVGID_24_);stroke-width:1.14113" />
    <path
       fill="url(#SVGID_27_)"
       d="m 372.59551,54.77965 5.36329,6.73264 h 6.39031 l 13.12295,7.75966 -7.75967,13.46529 7.07498,5.02095 -10.49835,5.36329 1.36935,14.14997 34.462,-0.68469 c 7.75964,-11.18302 9.129,-42.22164 -2.39636,-51.693 -25.78945,0.91291 -47.1285,-0.11417 -47.1285,-0.11417 z"
       id="path291"
       style="display:inline;fill:url(#SVGID_27_);stroke-width:1.14113" />
    <path
       fill="url(#SVGID_25_)"
       d="m 342.599,97.57186 c 20.54027,-2.054 28.64228,-3.08102 40.85232,-1.02699 12.21005,2.05401 32.40797,2.05401 28.9846,6.39029 -3.42338,4.33629 8.10198,3.42338 15.5193,6.73266 7.41732,3.42335 17.57333,8.10197 7.41732,11.18302 -10.15601,3.08102 -21.56729,5.02095 -10.15601,8.44433 11.52537,3.42336 36.17368,6.73265 17.57333,16.54632 -18.60034,9.81369 -16.20399,6.39031 -22.59429,6.39031 -6.39032,0 -1.71168,13.80762 -60.82201,13.46528 -55.68694,-1.02701 -61.39257,-7.75966 -61.05023,-15.86166 0.34234,-8.10197 18.60034,-14.49228 38.11361,-15.17696 19.51323,-0.68469 40.16762,-2.05403 32.7503,-4.67863 -7.41732,-2.62457 -26.36002,-8.78666 -24.64831,-14.83462 1.71169,-6.04796 -13.12295,0.34233 -8.44433,-7.75966 4.79271,-8.10199 6.5044,-9.81369 6.5044,-9.81369 z"
       id="path277"
       style="display:inline;fill:#fab82e;fill-opacity:1;stroke-width:1.14113" />
    <path
       id="path5348"
       style="font-style:normal;font-variant:normal;font-weight:bold;font-stretch:normal;font-size:262.424px;line-height:1.25;font-family:Comfortaa;-inkscape-font-specification:'Comfortaa Bold';display:inline;fill:#2c2c2c;fill-opacity:1;stroke:none;stroke-width:0.281168;stroke-opacity:1"
       d="m 274.60748,200.09383 q -5.16933,0.90805 -9.46891,-2.33331 -4.29956,-3.24137 -5.25301,-8.66916 l -5.72073,-32.56679 -86.06937,15.11906 q -5.94473,1.04426 -9.94043,-1.98405 -3.9957,-3.02829 -5.32988,-7.58988 -1.12112,-4.86546 1.04098,-9.24189 L 230.06672,5.68841 q 1.61371,-2.9479 3.92596,-4.95272 2.57072,-2.05023 5.93078,-2.64046 5.4278,-0.95345 9.46891,2.33331 4.0411,3.28677 5.03996,8.97303 l 20.88518,118.89462 15.508,-2.72416 q 5.4278,-0.95345 9.75882,0.95018 4.33103,1.90362 5.5115,8.62376 0.86264,4.91086 -2.37872,9.21043 -3.28676,4.0411 -8.71457,4.99456 l -15.50799,2.72415 5.72073,32.5668 q 0.95345,5.42779 -1.98405,9.94042 -2.93748,4.51264 -8.62375,5.5115 z m -93.90979,-47.71622 -8.24987,-6.01119 77.53997,-13.62078 -18.70586,-106.48822 9.82856,8.93118 z" />
    <path
       id="path5350"
       style="font-style:normal;font-variant:normal;font-weight:bold;font-stretch:normal;font-size:262.424px;line-height:1.25;font-family:Comfortaa;-inkscape-font-specification:'Comfortaa Bold';display:inline;fill:#2c2c2c;fill-opacity:1;stroke:none;stroke-width:0.281168;stroke-opacity:1"
       d="m 370.12828,134.26608 q -19.64347,3.45059 -35.68918,-5.98712 -15.83265,-9.7416 -27.01974,-30.95692 -11.23249,-21.47379 -16.81701,-53.26517 -5.58451,-31.79139 -2.29748,-55.54925 3.24164,-24.01633 14.85184,-38.31213 11.82328,-14.59967 31.46675,-18.05027 19.64345,-3.4506 35.5215,6.54947 16.09112,9.69618 27.32361,31.16997 11.18709,21.21532 16.6808,52.48977 5.49371,31.27446 2.25208,55.29079 -3.28704,23.75786 -15.06492,38.616 -11.5648,14.55426 -31.20825,18.00486 z m -4.72187,-26.88053 q 11.88945,-2.08852 17.96356,-13.01386 6.02869,-11.1838 6.95452,-28.66517 0.92584,-17.48136 -2.79718,-38.67562 -3.72301,-21.19426 -10.55117,-37.31355 -6.82817,-16.11929 -16.30747,-24.57894 -9.47929,-8.45965 -21.36875,-6.37113 -11.88946,2.08852 -17.91816,13.27233 -6.0741,10.92534 -6.99994,28.4067 -0.92583,17.48137 2.84259,38.93409 3.76841,21.45272 10.59658,37.57201 6.82817,16.1193 16.26206,24.32047 9.69235,8.15579 21.32336,6.11267 z" />
    <path
       id="path5352"
       style="font-style:normal;font-variant:normal;font-weight:bold;font-stretch:normal;font-size:262.424px;line-height:1.25;font-family:Comfortaa;-inkscape-font-specification:'Comfortaa Bold';display:inline;fill:#2c2c2c;fill-opacity:1;stroke:none;stroke-width:0.281168;stroke-opacity:1"
       d="m 469.36944,142.81581 q -4.59159,-2.54241 -5.89889,-7.76579 -1.3073,-5.22338 1.36222,-10.04455 L 480.84996,96.07845 404.39999,53.74732 q -5.28033,-2.92377 -6.48517,-7.79045 -1.20485,-4.86668 0.62416,-9.25334 2.1857,-4.48914 6.6179,-6.53451 l 151.74343,-66.56173 q 3.10784,-1.27884 6.16636,-1.38512 3.28809,0.0209 6.27262,1.67342 4.82118,2.66953 5.8989,7.7658 1.07773,5.09625 -1.71893,10.147 l -58.47543,105.60655 13.77477,7.62724 q 4.82118,2.66953 6.99366,6.87213 2.17249,4.2026 -1.13264,10.17168 -2.4153,4.362 -7.63868,5.66931 -5.09625,1.07772 -9.91743,-1.59181 l -13.77476,-7.62723 -16.01719,28.92702 q -2.66953,4.82117 -7.79044,6.48517 -5.12092,1.66401 -10.17168,-1.13264 z m -43.05897,-96.13435 -2.63927,-9.86047 68.87385,38.13615 52.37365,-94.58674 2.03213,13.1239 z" />
    <path
       fill="url(#SVGID_26_)"
       d="m 305.38319,85.47592 c 0.34234,-2.39634 3.08105,-10.156 3.08105,-10.156 4.33627,-4.33628 27.38702,-15.17698 27.38702,-15.17698 0.68468,1.02702 4.33628,17.57334 4.33628,17.57334 l 10.15602,-0.34233 -5.70563,14.4923 6.73263,1.36934 -3.42337,9.81369 5.02096,2.39636 1.02702,5.02095 6.73264,-2.73869 4.6786,-0.34235 -20.31204,13.12294 c -3.42336,1.71169 -15.17696,1.02702 -15.17696,1.02702 -2.16815,1.71169 -24.53422,-36.05959 -24.53422,-36.05959 z"
       id="path284"
       style="display:inline;fill:url(#SVGID_26_);stroke-width:1.14113" />
    <path
       fill="url(#SVGID_28_)"
       d="m 295.34129,91.52391 10.15602,-6.04799 c 14.49229,7.07499 24.99065,30.6963 24.64832,36.17371 -4.33628,4.10804 -6.39031,5.70563 -6.39031,5.70563 -11.52536,-0.34234 -29.78337,-28.41405 -28.41403,-35.83135 z"
       id="path298"
       style="display:inline;fill:url(#SVGID_28_);stroke-width:1.14113" />
    <path
       d="m 400.84222,268.46107 h 25.88369 c -0.16145,-2.05165 -0.64958,-3.92438 -1.50016,-5.5981 -1.04987,-2.06587 -2.54014,-3.67409 -4.47054,-4.82555 -1.89653,-1.18534 -4.13165,-1.77819 -6.70552,-1.77819 -2.60773,0 -4.91101,0.60963 -6.90914,1.82883 -1.99813,1.2192 -3.5728,2.89554 -4.72427,5.02914 -0.84484,1.58732 -1.36787,3.3695 -1.57406,5.34387 z m 13.20747,-8.69661 c 1.89654,0 3.52203,0.44029 4.8767,1.32082 1.38853,0.88054 2.45525,2.09982 3.20032,3.65768 0.53967,1.1284 0.86841,2.36667 0.99943,3.7083 h -18.58182 c 0.17328,-1.27032 0.5029,-2.44518 1.02164,-3.50523 0.8128,-1.6256 1.94715,-2.89568 3.40342,-3.81008 1.45626,-0.9144 3.14991,-1.37149 5.08031,-1.37149 z"
       style="font-style:normal;font-variant:normal;font-weight:normal;font-stretch:normal;font-size:50.8px;line-height:1.25;font-family:Comfortaa;-inkscape-font-specification:Comfortaa;display:inline;fill:#000000;fill-opacity:1;stroke:none;stroke-width:0.0743924;stroke-opacity:1"
       id="path5747" />
    <path
       sodipodi:nodetypes="csssssssssssssssssssssssssssssssssssssssssssssssssssssssssssscscc"
       inkscape:original-d="m 449.23764,138.29732 c 0,0 2.46368,5.51589 0.99775,13.72591 -1.46593,8.21012 -13.97683,22.01931 -12.69347,34.64196 1.28338,12.62264 -7.93241,17.12987 -10.92571,26.98184 -2.99332,9.85198 0.26467,23.62343 -3.27851,31.73088 -3.54316,8.10747 -1.6199,31.38548 -1.55838,33.02799 0.0614,1.64252 1.77139,0.30723 0.18328,4.92569 -1.58812,4.61838 -1.03899,13.95541 -4.76544,13.85342 -3.72647,-0.10195 -9.47015,1.74393 -11.18046,-0.30779 -1.71032,-2.05178 -4.76582,-2.46349 -5.13202,-6.15711 -0.3662,-3.69365 -3.05514,-6.87604 -1.09973,-11.08281 1.95543,-4.20672 5.13167,-10.87812 5.86516,-12.62203 0.73352,-1.7439 3.2988,-1.6425 2.19947,-5.23352 -1.09937,-3.59103 -2.13874,-6.77344 -3.29917,-10.77491 -1.16046,-4.00153 -3.29953,-7.1839 -3.48244,-12.00633 -0.18291,-4.82246 -0.79461,-10.36507 -0.54986,-14.46919 0.24475,-4.10411 2.13797,-5.43937 0.73314,-12.3142 -1.40483,-6.87479 -3.4828,-19.49807 -4.21559,-20.62624 -0.73277,-1.12821 -1.77213,-3.59227 -2.19944,-3.38642 -0.42729,0.20588 -1.34449,-0.82156 -1.28299,0.61571 0.0616,1.43727 3.35988,-4.00272 0.18329,4.30997 -3.17659,8.3127 -9.5924,20.00993 -9.53089,24.93624 0.0614,4.92627 -1.03899,9.54287 0.18328,14.77705 1.22228,5.23413 2.13797,12.00568 3.66573,15.70059 1.52776,3.69487 9.5305,11.28735 4.58216,11.08275 -4.94837,-0.20463 -15.15204,2.25698 -14.84617,-0.61574 0.30584,-2.87266 0.36618,-5.43937 0.91642,-8.6199 0.55021,-3.18057 2.68784,-7.08129 1.64956,-9.54349 -1.03824,-2.46224 -2.74965,-3.69485 -3.11586,-7.38855 -0.36621,-3.69362 -1.34447,-7.18386 -1.09972,-11.08276 0.24476,-3.89884 1.40484,-6.87602 0.73315,-11.69846 -0.67168,-4.82245 -1.03897,-11.69909 -2.01614,-14.46917 -0.97718,-2.77009 -1.1612,-8.3127 -2.93258,-8.31208 -1.77141,6.1e-4 -2.4442,-5.33678 -5.31531,0 -2.87111,5.33677 -7.20961,14.05809 -8.61444,16.00843 -1.40483,1.95037 -4.8269,2.56486 -4.21559,5.84928 0.6113,3.28435 1.8325,6.36169 1.83287,9.85132 3.5e-4,3.48963 -1.22229,7.79839 0,10.46706 1.22227,2.66872 5.98695,6.87482 3.66571,8.00425 -2.32125,1.12935 -7.08743,8.61929 -6.96489,3.38633 0.12273,-5.23287 1.58811,-9.54407 0.36659,-15.70055 -1.22154,-6.15647 -3.17734,-13.34098 -3.66572,-18.47129 -0.48841,-5.13029 0.85496,-14.1619 -1.4663,-15.39272 -2.32126,-1.2308 -6.17098,-9.03103 -6.96487,-3.69427 -0.79389,5.33676 -1.77215,10.46646 -2.38272,16.00845 -0.61061,5.54203 -1.64995,12.31358 -1.83286,16.62415 -0.18294,4.31059 -0.8557,10.7743 -0.54987,12.92987 0.30584,2.15563 0.18292,4.00153 0.91644,6.465 0.73348,2.46345 3.35988,5.54076 2.19942,7.38849 -1.16043,1.84777 -1.89434,7.08004 -3.48243,5.54139 -1.58812,-1.53866 -4.64362,-1.95036 -4.76546,-4.61779 -0.12182,-2.66747 -0.97787,-6.6e-4 -0.36655,-8.00424 0.61133,-8.00362 3.0544,-19.19023 1.83286,-24.01269 -1.22153,-4.82242 -2.01653,-10.46766 -3.66575,-14.46915 -1.64918,-4.00152 -3.54389,-14.46982 -4.94871,-12.00636 -1.40484,2.46347 -3.29952,2.46221 -4.21559,7.38855 -0.91605,4.92626 -3.60499,11.59521 -2.74929,14.77699 0.8557,3.18181 3.72645,7.08007 2.56601,9.5435 -1.16046,2.46347 -2.0776,8.41411 -3.48244,7.3885 -1.40482,-1.02551 -4.15488,-1.02677 -4.21557,-3.07852 -0.0607,-2.05176 -0.9168,-3.28437 -0.18329,-6.1571 0.7335,-2.8727 2.19943,-8.61993 2.19943,-8.61993 0,0 1.22152,-17.34311 0.36656,-23.39695 -0.85495,-6.05387 -14.58062,-35.05247 -14.58062,-35.05247 z"
       inkscape:path-effect="#path-effect4964"
       id="path4962"
       d="m 449.23764,138.29732 c 1.0406,4.48678 1.37854,9.1358 0.99775,13.72591 -1.0237,12.33975 -7.08602,23.60231 -12.69347,34.64196 -4.40458,8.67151 -8.63206,17.53014 -10.92571,26.98184 -2.51144,10.34915 -2.63346,21.10091 -3.27851,31.73088 -0.6679,11.00645 -1.91013,22.00691 -1.55838,33.02799 0.0524,1.64221 0.14022,3.28321 0.18328,4.92569 0.0668,2.54924 0.0215,5.13385 -0.64598,7.59506 -0.6675,2.46121 -2.01757,4.81436 -4.11946,6.25836 -1.62956,1.11951 -3.64449,1.63556 -5.61947,1.54479 -1.97497,-0.0908 -3.90487,-0.77276 -5.56099,-1.85258 -2.2687,-1.47923 -4.01952,-3.6878 -5.13202,-6.15711 -1.55057,-3.44165 -1.87933,-7.38937 -1.09973,-11.08281 0.96274,-4.5611 3.50497,-8.60208 5.86516,-12.62203 0.96438,-1.64256 1.92322,-3.34892 2.19947,-5.23352 0.27689,-1.88896 -0.15865,-3.81977 -0.8522,-5.59849 -0.69354,-1.77872 -1.64099,-3.44574 -2.44697,-5.17642 -1.76508,-3.79016 -2.8439,-7.87437 -3.48244,-12.00633 -0.73869,-4.78002 -0.89697,-9.6449 -0.54986,-14.46919 0.29537,-4.10516 0.95546,-8.20444 0.73314,-12.3142 -0.37961,-7.01739 -3.30315,-13.65807 -4.21559,-20.62624 -0.0958,-0.73202 -0.17422,-1.48402 -0.49956,-2.14674 -0.16267,-0.33136 -0.38771,-0.63608 -0.6791,-0.8627 -0.29138,-0.22662 -0.65168,-0.3718 -1.02078,-0.37698 -0.49034,-0.007 -0.9689,0.23911 -1.28299,0.61571 -0.24119,0.2892 -0.3903,0.6488 -0.45691,1.01944 -0.0666,0.37064 -0.0533,0.75252 0.006,1.12436 0.11911,0.74368 0.41849,1.44448 0.63392,2.16617 0.6537,2.18987 0.52115,4.56293 -0.0854,6.76634 -0.60651,2.2034 -1.66829,4.25597 -2.85987,6.20609 -2.38314,3.90026 -5.35866,7.56088 -6.58566,11.96381 -1.33216,4.78026 -0.44604,9.85471 0.18328,14.77705 0.68581,5.36424 1.10553,10.93711 3.66573,15.70059 0.9663,1.79788 2.21554,3.43142 3.18759,5.22619 0.97206,1.79477 1.67005,3.83414 1.39457,5.85656 -0.23559,1.72957 -1.2005,3.3392 -2.58642,4.4004 -1.38591,1.0612 -3.17206,1.57195 -4.91348,1.45201 -1.74142,-0.11995 -3.42613,-0.86029 -4.72533,-2.02604 -1.2992,-1.16576 -2.21174,-2.74521 -2.62094,-4.44211 -0.68619,-2.84554 0.0248,-5.83189 0.91642,-8.6199 0.49719,-1.55467 1.05229,-3.09449 1.41445,-4.68604 0.36216,-1.59155 0.52762,-3.25164 0.23511,-4.85745 -0.48047,-2.63766 -2.13578,-4.89304 -3.11586,-7.38855 -1.36898,-3.48574 -1.38565,-7.34877 -1.09972,-11.08276 0.29856,-3.89894 0.90639,-7.79194 0.73315,-11.69846 -0.21588,-4.86802 -1.63864,-9.61101 -2.01614,-14.46917 -0.11847,-1.52467 -0.13535,-3.06923 -0.50206,-4.55387 -0.18335,-0.74232 -0.45517,-1.46697 -0.85455,-2.11901 -0.39937,-0.65205 -0.92967,-1.23059 -1.57597,-1.6392 -0.78397,-0.49565 -1.7226,-0.72766 -2.64992,-0.70915 -0.92733,0.0185 -1.84239,0.28142 -2.66539,0.70915 -1.37438,0.7143 -2.48257,1.87409 -3.31216,3.18211 -0.8296,1.30801 -1.39676,2.76487 -1.87347,4.2386 -0.95341,2.94746 -1.60416,6.08428 -3.42881,8.58772 -0.71364,0.97913 -1.58652,1.82946 -2.37635,2.74824 -0.78983,0.91877 -1.51102,1.93474 -1.83924,3.10104 -0.45847,1.62915 -0.10479,3.37478 0.41312,4.98602 0.51791,1.61124 1.20226,3.1869 1.41975,4.8653 0.22575,1.74212 -0.0631,3.50353 -0.26361,5.24872 -0.20056,1.7452 -0.30636,3.55669 0.26361,5.21834 0.48275,1.40738 1.41524,2.60591 2.21951,3.85768 0.40214,0.62588 0.77656,1.27377 1.0461,1.96716 0.26954,0.69339 0.43235,1.43617 0.4001,2.17941 -0.034,0.78385 -0.28835,1.5565 -0.72364,2.20926 -0.43529,0.65276 -1.04998,1.18404 -1.75737,1.52341 -0.70738,0.33938 -1.50546,0.48634 -2.28763,0.42473 -0.78216,-0.0616 -1.54654,-0.33123 -2.19625,-0.77107 -1.16391,-0.78794 -1.91751,-2.09318 -2.22044,-3.46569 -0.30293,-1.3725 -0.18699,-2.80996 0.12583,-4.18024 0.62565,-2.74057 2.02047,-5.27831 2.4612,-8.05462 0.49593,-3.124 -0.25305,-6.30774 -1.20104,-9.32546 -0.94799,-3.01772 -2.10744,-6.00295 -2.46468,-9.14583 -0.29397,-2.58622 -0.0346,-5.19908 -0.0176,-7.80189 0.0171,-2.60282 -0.2324,-5.28964 -1.44872,-7.59083 -0.6646,-1.25739 -1.62544,-2.38136 -2.85557,-3.09515 -1.23014,-0.71378 -2.74144,-0.98859 -4.1093,-0.59912 -1.43939,0.40983 -2.61841,1.52412 -3.30014,2.85644 -0.68172,1.33232 -0.90132,2.86474 -0.84002,4.36008 0.1226,2.99069 1.31253,5.83198 1.75744,8.79193 0.83281,5.54062 -0.96915,11.08826 -1.83286,16.62415 -0.6662,4.26992 -0.77458,8.61413 -0.54987,12.92987 0.11343,2.17844 0.31421,4.36839 0.91644,6.465 0.71135,2.47649 1.98024,4.8212 2.19942,7.38849 0.10311,1.20771 -0.0438,2.46608 -0.62701,3.52866 -0.2916,0.53128 -0.6905,1.00681 -1.18033,1.36369 -0.48983,0.35688 -1.07168,0.59252 -1.67509,0.64904 -0.60027,0.0562 -1.21188,-0.0654 -1.75964,-0.3173 -0.54776,-0.25189 -1.03264,-0.63121 -1.43472,-1.08045 -0.80414,-0.89849 -1.26746,-2.0531 -1.5711,-3.22004 -0.67613,-2.59849 -0.6281,-5.332 -0.36655,-8.00424 0.39309,-4.01621 1.25548,-7.97072 1.81871,-11.96662 0.56323,-3.9959 0.82324,-8.09262 0.0141,-12.04607 -0.50056,-2.44588 -1.40015,-4.78841 -2.18331,-7.15896 -0.78316,-2.37056 -1.45774,-4.81374 -1.48244,-7.31019 -0.0249,-2.5169 0.61055,-5.05528 0.14963,-7.52974 -0.23045,-1.23723 -0.75367,-2.44862 -1.65383,-3.32814 -0.45007,-0.43977 -0.99038,-0.79082 -1.58445,-0.99827 -0.59408,-0.20746 -1.24207,-0.26873 -1.86006,-0.15021 -0.74434,0.14275 -1.4268,0.54253 -1.96636,1.07477 -0.53957,0.53225 -0.9418,1.19259 -1.23434,1.89176 -0.58509,1.39833 -0.73788,2.93174 -1.01489,4.42202 -0.46035,2.47665 -1.27493,4.87144 -1.91261,7.30847 -0.63767,2.43702 -1.1011,4.96337 -0.83668,7.46852 0.34633,3.28116 1.91295,6.30939 2.56601,9.5435 0.30512,1.51102 0.40114,3.11696 -0.13363,4.56275 -0.26738,0.7229 -0.69325,1.39334 -1.27076,1.90378 -0.57751,0.51044 -1.31022,0.85487 -2.07805,0.92197 -0.9302,0.0813 -1.87297,-0.24995 -2.60813,-0.82565 -0.73516,-0.5757 -1.27079,-1.38192 -1.60744,-2.25287 -0.74962,-1.93932 -0.53083,-4.10719 -0.18329,-6.1571 0.49623,-2.92692 1.23265,-5.81308 2.19943,-8.61993 1.33502,-7.71689 1.45918,-15.64202 0.36656,-23.39695 -1.7847,-12.66692 -6.85522,-24.85668 -14.58062,-35.05247 z"
       style="display:inline;fill:#fab82e;fill-opacity:1;stroke:none;stroke-width:0.475082px;stroke-linecap:butt;stroke-linejoin:miter;stroke-opacity:1" />
    <path
       fill="#eefdff"
       d="m 362.74947,121.58559 c 0,0 -4.67863,17.23099 -3.76572,17.23099 0.91289,0 15.17697,4.10805 14.14995,3.08105 -1.02702,-1.027 -3.76572,-8.78668 -3.76572,-8.78668 l 12.78062,-3.7657 z"
       id="path300"
       style="display:inline;stroke-width:1.14113" />
    <path
       fill="#eefdff"
       d="m 364.83585,117.19923 c 1.02701,-0.34234 12.43827,-1.71169 12.43827,-1.71169 l 0.68468,8.78666 z"
       id="path304"
       style="display:inline;stroke-width:1.14113" />
    <polygon
       fill="#eefdff"
       points="215.1,329.8 225.2,325.9 223.1,333 "
       id="polygon306"
       transform="matrix(1.1411259,0,0,1.1411259,124.74298,-232.0994)"
       style="display:inline" />
    <path
       fill="none"
       stroke="#a6aaad"
       stroke-miterlimit="10"
       d="m 300.59046,92.09447 c 7.075,2.28225 20.65439,15.97576 21.45317,28.64225"
       id="path448"
       style="display:inline;stroke-width:1.14113" />
    <path
       fill="#eefdff"
       d="m 304.98341,151.95852 c 1.36931,-0.34236 16.54631,-7.41732 16.54631,-7.41732 l 12.21004,7.41732 c 0,0 -8.78668,-0.68469 -8.44433,0.34234 0.34233,1.027 -0.68468,5.36329 -0.68468,5.36329 z"
       id="path314"
       style="display:inline;stroke-width:1.14113" />
    <path
       id="path5610"
       style="font-style:normal;font-variant:normal;font-weight:normal;font-stretch:normal;font-size:50.8px;line-height:1.25;font-family:Comfortaa;-inkscape-font-specification:Comfortaa;display:inline;fill:#000000;fill-opacity:1;stroke:none;stroke-width:0.0743924;stroke-opacity:1"
       d="m 392.61344,284.33406 q -2.6924,0 -4.82599,-1.27 -2.0828,-1.27 -3.302,-3.4544 -1.2192,-2.2352 -1.2192,-5.08 v -24.8412 q 0,-0.8636 0.508,-1.4224 0.5588,-0.5588 1.4224,-0.5588 0.8636,0 1.4224,0.5588 0.5588,0.5588 0.5588,1.4224 v 24.8412 q 0,2.5908 1.52399,4.2672 1.524,1.6256 3.9116,1.6256 h 1.3716 q 0.8128,0 1.3208,0.5588 0.508,0.5588 0.508,1.4224 0,0.8636 -0.6096,1.4224 -0.6096,0.508 -1.524,0.508 z m -12.64919,-23.368 q -0.762,0 -1.27,-0.4572 -0.508,-0.508 -0.508,-1.2192 0,-0.762 0.508,-1.2192 0.508,-0.508 1.27,-0.508 h 12.95399 q 0.762,0 1.27,0.508 0.508,0.4572 0.508,1.2192 0,0.7112 -0.508,1.2192 -0.508,0.4572 -1.27,0.4572 z" />
    <path
       d="m 400.8422,268.42891 c -0.0666,0.63741 -0.10231,1.29371 -0.10231,1.97146 0,2.7432 0.59285,5.18121 1.77818,7.31481 1.2192,2.1336 2.87878,3.81045 4.97851,5.02965 2.1336,1.18533 4.5716,1.77768 7.3148,1.77768 1.59174,0 3.25131,-0.30456 4.97851,-0.91416 1.7272,-0.64347 3.14984,-1.43971 4.26744,-2.38797 0.4064,-0.33867 0.59248,-0.74491 0.55861,-1.21905 0,-0.47413 -0.22016,-0.91445 -0.66043,-1.32085 -0.33866,-0.27093 -0.7449,-0.38941 -1.21904,-0.35555 -0.47413,0 -0.89767,0.15256 -1.27021,0.45736 -0.74506,0.64347 -1.74416,1.18547 -2.99722,1.62574 -1.2192,0.4064 -2.43846,0.60925 -3.65766,0.60925 -2.032,0 -3.82682,-0.45709 -5.38469,-1.37149 -1.55787,-0.9144 -2.7939,-2.1672 -3.7083,-3.75894 -0.69479,-1.25597 -1.10453,-2.66562 -1.25108,-4.21679 h 20.50418 c 0.54186,0 0.98218,-0.15203 1.32085,-0.45683 0.33867,-0.33867 0.50797,-0.77896 0.50797,-1.32086 0,-0.50138 -0.0366,-0.98279 -0.0744,-1.46346 z"
       style="font-style:normal;font-variant:normal;font-weight:normal;font-stretch:normal;font-size:50.8px;line-height:1.25;font-family:Comfortaa;-inkscape-font-specification:Comfortaa;display:inline;fill:#000000;fill-opacity:1;stroke:none;stroke-width:0.0743924;stroke-opacity:1"
       id="path5741" />
    <path
       d="m 632.84106,284.58806 q -4.1148,0 -7.3152,-1.778 -3.1496,-1.8288 -4.9784,-5.0292 -1.778,-3.2004 -1.778,-7.3152 0,-4.1656 1.6764,-7.3152 1.7272,-3.2004 4.7244,-5.0292 2.9972,-1.8288 6.9088,-1.8288 3.8608,0 6.7056,1.778 2.8956,1.7272 4.4704,4.826 1.5748,3.0988 1.5748,7.0612 0,0.8128 -0.508,1.3208 -0.508,0.4572 -1.3208,0.4572 h -21.59 v -3.2512 h 21.9964 l -2.1844,1.5748 q 0.0508,-2.9464 -1.0668,-5.2832 -1.1176,-2.3368 -3.2004,-3.6576 -2.032,-1.3208 -4.8768,-1.3208 -2.8956,0 -5.08,1.3716 -2.1844,1.3716 -3.4036,3.81 -1.1684,2.3876 -1.1684,5.4864 0,3.0988 1.3208,5.4864 1.3716,2.3876 3.7084,3.7592 2.3368,1.3716 5.3848,1.3716 1.8288,0 3.6576,-0.6096 1.8796,-0.6604 2.9972,-1.6256 0.5588,-0.4572 1.27,-0.4572 0.7112,-0.0508 1.2192,0.3556 0.6604,0.6096 0.6604,1.3208 0.0508,0.7112 -0.5588,1.2192 -1.6764,1.4224 -4.2672,2.3876 -2.5908,0.9144 -4.9784,0.9144 z"
       style="font-style:normal;font-variant:normal;font-weight:normal;font-stretch:normal;font-size:50.8px;line-height:1.25;font-family:Comfortaa;-inkscape-font-specification:Comfortaa;display:inline;fill:#000000;fill-opacity:1;stroke:none;stroke-width:0.0743924;stroke-opacity:1"
       id="path5750" />
    <path
       d="m 660.69379,275.34246 q -0.8636,0 -1.4224,-0.5588 -0.5588,-0.5588 -0.5588,-1.4732 0,-2.032 0.9652,-4.3688 1.016,-2.3368 2.794,-4.0132 1.5748,-1.4732 2.9972,-2.8448 1.4224,-1.3716 2.286,-3.048 0.9144,-1.6764 0.9144,-4.2164 0,-1.9812 -0.9652,-3.6068 -0.9652,-1.6764 -2.7432,-2.6416 -1.7272,-0.9652 -4.064,-0.9652 -2.54,0 -4.3688,1.0668 -1.8288,1.016 -2.8448,2.8448 -0.9652,1.8288 -0.9652,4.2164 0,0.8636 -0.5588,1.4224 -0.508,0.508 -1.3716,0.508 -0.8636,0 -1.4224,-0.508 -0.5588,-0.5588 -0.5588,-1.4224 0,-3.5052 1.524,-6.1468 1.524,-2.6924 4.2164,-4.2164 2.7432,-1.524 6.35,-1.524 3.3528,0 5.9944,1.4732 2.6416,1.4224 4.1656,3.9624 1.524,2.4892 1.524,5.7404 0,2.8448 -1.016,4.826 -1.016,1.9812 -2.6924,3.6576 -1.6256,1.6256 -3.6068,3.4544 -1.5748,1.4224 -2.0828,3.2004 -0.508,1.778 -0.508,3.1496 0,0.9144 -0.5588,1.4732 -0.5588,0.5588 -1.4224,0.5588 z m 0,8.9916 q -1.27,0 -2.1336,-0.8636 -0.8128,-0.8636 -0.8128,-2.0828 0,-1.27 0.8636,-2.1336 0.8636,-0.8636 2.0828,-0.8636 1.2192,0 2.0828,0.8636 0.9144,0.8636 0.9144,2.1336 0,1.2192 -0.9144,2.0828 -0.8636,0.8636 -2.0828,0.8636 z"
       style="font-style:normal;font-variant:normal;font-weight:normal;font-stretch:normal;font-size:50.8px;line-height:1.25;font-family:Comfortaa;-inkscape-font-specification:Comfortaa;display:inline;fill:#000000;fill-opacity:1;stroke:none;stroke-width:0.0743924;stroke-opacity:1"
       id="path5752" />
    <path
       sodipodi:nodetypes="ccccccc"
       id="path1874"
       d="m -85.113171,149.78667 v 8.06921 l 30.733164,-19.71695 11.296894,16.4191 3.859432,-3.94774 -14.179244,-20.6812 z"
       style="display:inline;fill:url(#radialGradient4543);fill-opacity:1;stroke:none;stroke-width:0.392935px;stroke-linecap:butt;stroke-linejoin:miter;stroke-opacity:1" />
    <path
       id="path1876"
       d="m -71.462999,171.01079 v 8.53389 l 33.143209,5.25925 23.81549,-16.17467 4.96156,-26.09782 101.31504,-66.28641 29.07473,6.45003 23.12087,-15.97623 8.03772,-30.96013 -0.66194,-5.07114 -7.7123,30.1273 -21.89211,14.03341 -29.47016,-6.45537 -102.80416,67.2916 -4.7631,25.80011 -22.02932,14.48774 z"
       style="display:inline;fill:url(#radialGradient1902);fill-opacity:1;stroke:none;stroke-width:0.393554;stroke-linecap:butt;stroke-linejoin:miter;stroke-miterlimit:4;stroke-dasharray:none;stroke-opacity:1" />
    <path
       id="path1870"
       d="m -85.113171,149.78667 7.016704,-31.15417 23.576124,-15.99809 28.066823,6.73603 L 81.85663,46.83755 V 16.80554 l 24.10572,-16.27391 32.1509,6.35079 -30.96013,20.24317 12.59003,21.80655 31.60053,-18.24458 -7.7123,30.1273 -21.89211,14.03341 -29.47016,-6.45537 -102.80416,67.2916 -4.7631,25.80011 -22.02932,14.48774 -34.135529,-4.96156 31.952439,-20.44162 -13.892365,-20.64008 z"
       style="display:inline;fill:#bababa;fill-opacity:1;stroke:none;stroke-width:0.392935px;stroke-linecap:butt;stroke-linejoin:miter;stroke-opacity:1" />
    <path
       id="path1904"
       d="m 138.11325,6.88242 v 8.13696 l -27.94349,18.199 -3.01664,-6.09279 z"
       style="display:inline;fill:url(#radialGradient1926);fill-opacity:1;stroke:none;stroke-width:0.393554;stroke-linecap:butt;stroke-linejoin:miter;stroke-miterlimit:4;stroke-dasharray:none;stroke-opacity:1" />
    <path
       id="path1987"
       d="M 23.95447,176.815 2.93243,215.51915 39.86835,180.15496 Z"
       style="display:inline;fill:url(#linearGradient1999);fill-opacity:1;stroke:none;stroke-width:0.392934px;stroke-linecap:butt;stroke-linejoin:miter;stroke-opacity:1" />
    <path
       style="display:inline;fill:#fccb3a;fill-opacity:1;stroke:none;stroke-width:0.392935px;stroke-linecap:butt;stroke-linejoin:miter;stroke-opacity:1"
       d="m 15.93937,115.93447 c -1.57439,3.66362 -2.02502,7.73356 -3.61202,11.39174 -2.33686,5.3866 -6.92784,9.4458 -10.0025,14.44806 -4.88379,7.94558 -5.59082,18.25376 -2.04764,26.881 3.54317,8.62725 11.18604,15.41227 20.10771,18.13026 5.67169,1.72788 11.77801,1.8747 17.59374,0.72096 5.81572,-1.15372 11.34428,-3.58421 16.30363,-6.8336 10.28842,-6.74105 18.24944,-17.37079 20.5607,-29.45182 2.11723,-11.0669 -0.68765,-22.97883 -7.50187,-31.95243 -4.88644,-6.43492 -11.71866,-11.3348 -19.31044,-14.10075 -4.56702,-1.66391 -9.48093,-2.57574 -14.30909,-2.0144 -3.79727,0.44148 -7.4952,1.80505 -10.61736,4.01101 -3.12216,2.20597 -5.65551,5.2577 -7.16486,8.76997 z"
       id="path1983-2" />
    <path
       transform="matrix(1.4851103,0,0,1.4851103,-111.67492,-251.32287)"
       clip-path="url(#clipPath4352)"
       id="path4221"
       d="m 70.281314,269.51756 -4.378906,4.09961 c 6.742788,7.2003 15.160335,12.78972 24.414065,16.20703 11.859517,4.37962 24.985227,5.11907 37.261717,2.09961 l -1.4336,-5.82617 c -11.08819,2.72719 -23.03841,2.05335 -33.749997,-1.90234 -8.36703,-3.08987 -16.016587,-8.16737 -22.113279,-14.67774 z"
       style="color:#000000;font-style:normal;font-variant:normal;font-weight:normal;font-stretch:normal;font-size:medium;line-height:normal;font-family:sans-serif;font-variant-ligatures:normal;font-variant-position:normal;font-variant-caps:normal;font-variant-numeric:normal;font-variant-alternates:normal;font-variant-east-asian:normal;font-feature-settings:normal;font-variation-settings:normal;text-indent:0;text-align:start;text-decoration:none;text-decoration-line:none;text-decoration-style:solid;text-decoration-color:#000000;letter-spacing:normal;word-spacing:normal;text-transform:none;writing-mode:lr-tb;direction:ltr;text-orientation:mixed;dominant-baseline:auto;baseline-shift:baseline;text-anchor:start;white-space:normal;shape-padding:0;shape-margin:0;inline-size:0;clip-rule:nonzero;display:inline;overflow:visible;visibility:visible;isolation:auto;mix-blend-mode:normal;color-interpolation:sRGB;color-interpolation-filters:linearRGB;solid-color:#000000;solid-opacity:1;vector-effect:none;fill:#000000;fill-opacity:1;fill-rule:nonzero;stroke:none;stroke-width:6.00001;stroke-linecap:butt;stroke-linejoin:miter;stroke-miterlimit:4;stroke-dasharray:none;stroke-dashoffset:0;stroke-opacity:1;color-rendering:auto;image-rendering:auto;shape-rendering:auto;text-rendering:auto;enable-background:accumulate;stop-color:#000000" />
    <path
       transform="matrix(1.4851103,0,0,1.4851103,-111.67492,-251.32287)"
       clip-path="url(#clipPath4348)"
       id="path4217"
       d="m 72.384049,260.413 -3.613282,4.78906 c 7.87376,5.94251 17.122721,10.01071 26.824221,11.79687 12.433382,2.28914 25.492102,0.77551 37.072262,-4.29687 l -2.4082,-5.49609 c -10.45927,4.5814 -22.34822,5.96014 -33.578122,3.89257 -8.7719,-1.61501 -17.17759,-5.31245 -24.296879,-10.68554 z"
       style="color:#000000;font-style:normal;font-variant:normal;font-weight:normal;font-stretch:normal;font-size:medium;line-height:normal;font-family:sans-serif;font-variant-ligatures:normal;font-variant-position:normal;font-variant-caps:normal;font-variant-numeric:normal;font-variant-alternates:normal;font-variant-east-asian:normal;font-feature-settings:normal;font-variation-settings:normal;text-indent:0;text-align:start;text-decoration:none;text-decoration-line:none;text-decoration-style:solid;text-decoration-color:#000000;letter-spacing:normal;word-spacing:normal;text-transform:none;writing-mode:lr-tb;direction:ltr;text-orientation:mixed;dominant-baseline:auto;baseline-shift:baseline;text-anchor:start;white-space:normal;shape-padding:0;shape-margin:0;inline-size:0;clip-rule:nonzero;display:inline;overflow:visible;visibility:visible;isolation:auto;mix-blend-mode:normal;color-interpolation:sRGB;color-interpolation-filters:linearRGB;solid-color:#000000;solid-opacity:1;vector-effect:none;fill:#000000;fill-opacity:1;fill-rule:nonzero;stroke:none;stroke-width:6;stroke-linecap:butt;stroke-linejoin:miter;stroke-miterlimit:4;stroke-dasharray:none;stroke-dashoffset:0;stroke-opacity:1;color-rendering:auto;image-rendering:auto;shape-rendering:auto;text-rendering:auto;enable-background:accumulate;stop-color:#000000" />
    <path
       transform="matrix(1.4851103,0,0,1.4851103,-111.67492,-251.32287)"
       clip-path="url(#clipPath4344)"
       id="path4213"
       d="m 74.831314,249.45401 -2.710937,3.5918 c 7.779451,5.87133 16.924471,9.89343 26.509761,11.6582 12.282952,2.26145 25.194722,0.76492 36.634772,-4.24609 l -1.80469,-4.12305 c -10.59937,4.64278 -22.63529,6.03863 -34.015622,3.94336 -8.88809,-1.63641 -17.39969,-5.37995 -24.613284,-10.82422 z"
       style="color:#000000;font-style:normal;font-variant:normal;font-weight:normal;font-stretch:normal;font-size:medium;line-height:normal;font-family:sans-serif;font-variant-ligatures:normal;font-variant-position:normal;font-variant-caps:normal;font-variant-numeric:normal;font-variant-alternates:normal;font-variant-east-asian:normal;font-feature-settings:normal;font-variation-settings:normal;text-indent:0;text-align:start;text-decoration:none;text-decoration-line:none;text-decoration-style:solid;text-decoration-color:#000000;letter-spacing:normal;word-spacing:normal;text-transform:none;writing-mode:lr-tb;direction:ltr;text-orientation:mixed;dominant-baseline:auto;baseline-shift:baseline;text-anchor:start;white-space:normal;shape-padding:0;shape-margin:0;inline-size:0;clip-rule:nonzero;display:inline;overflow:visible;visibility:visible;isolation:auto;mix-blend-mode:normal;color-interpolation:sRGB;color-interpolation-filters:linearRGB;solid-color:#000000;solid-opacity:1;vector-effect:none;fill:#000000;fill-opacity:1;fill-rule:nonzero;stroke:none;stroke-width:4.50001;stroke-linecap:butt;stroke-linejoin:miter;stroke-miterlimit:4;stroke-dasharray:none;stroke-dashoffset:0;stroke-opacity:1;color-rendering:auto;image-rendering:auto;shape-rendering:auto;text-rendering:auto;enable-background:accumulate;stop-color:#000000" />
    <path
       transform="matrix(1.4851103,0,0,1.4851103,-111.67492,-251.32287)"
       clip-path="url(#clipPath4340)"
       id="path4209"
       d="m 137.61061,239.52042 c -9.50153,6.60478 -21.04062,10.30233 -32.61133,10.44727 -9.036762,0.11319 -18.111972,-1.91473 -26.242182,-5.86133 l -1.964846,4.04883 c 8.767966,4.25618 18.518036,6.43261 28.263678,6.31054 12.48841,-0.15643 24.86791,-4.12137 35.12304,-11.25 z"
       style="color:#000000;font-style:normal;font-variant:normal;font-weight:normal;font-stretch:normal;font-size:medium;line-height:normal;font-family:sans-serif;font-variant-ligatures:normal;font-variant-position:normal;font-variant-caps:normal;font-variant-numeric:normal;font-variant-alternates:normal;font-variant-east-asian:normal;font-feature-settings:normal;font-variation-settings:normal;text-indent:0;text-align:start;text-decoration:none;text-decoration-line:none;text-decoration-style:solid;text-decoration-color:#000000;letter-spacing:normal;word-spacing:normal;text-transform:none;writing-mode:lr-tb;direction:ltr;text-orientation:mixed;dominant-baseline:auto;baseline-shift:baseline;text-anchor:start;white-space:normal;shape-padding:0;shape-margin:0;inline-size:0;clip-rule:nonzero;display:inline;overflow:visible;visibility:visible;isolation:auto;mix-blend-mode:normal;color-interpolation:sRGB;color-interpolation-filters:linearRGB;solid-color:#000000;solid-opacity:1;vector-effect:none;fill:#000000;fill-opacity:1;fill-rule:nonzero;stroke:none;stroke-width:4.5;stroke-linecap:butt;stroke-linejoin:miter;stroke-miterlimit:4;stroke-dasharray:none;stroke-dashoffset:0;stroke-opacity:1;color-rendering:auto;image-rendering:auto;shape-rendering:auto;text-rendering:auto;enable-background:accumulate;stop-color:#000000" />
    <path
       inkscape:original-d="m -4.53335,97.24558 c 2.81565,-3.8e-4 3.60152,1.57135 0.78587,4.9117 -2.81564,3.34033 -5.95991,13.29392 -8.4481,10.01985 -2.48821,-3.27408 -9.69281,-8.12106 -7.46579,-9.82338 2.22704,-1.70235 4.45367,-3.40505 6.67991,-5.10817 2.22625,-1.7031 5.63247,3.9e-4 8.44811,0 z"
       inkscape:path-effect="#path-effect1965"
       id="path1963"
       d="m -4.53335,97.24558 c 0.5461989,0.659119 0.8338098,1.504957 0.9268985,2.355901 0.093089,0.850949 0.00224,1.711849 -0.1410285,2.555799 -0.3915469,2.30643 -1.1966945,4.57966 -2.6204702,6.43595 -1.4237757,1.85629 -3.5100501,3.26488 -5.8276298,3.5839 -1.252288,0.17238 -2.549023,0.0243 -3.725313,-0.43865 -1.17629,-0.4629 -2.228747,-1.24086 -3.005788,-2.23793 -0.777041,-0.99707 -1.275176,-2.21139 -1.408882,-3.46839 -0.133707,-1.25701 0.09919,-2.55266 0.674193,-3.67841 0.650323,-1.27321 1.712188,-2.29961 2.89353,-3.10486 1.181343,-0.805245 2.487097,-1.406776 3.78638,-2.00331 1.381998,-0.634511 2.795888,-1.276586 4.3086492,-1.431757 0.7563804,-0.07758 1.5313931,-0.02913 2.2562622,0.200428 0.7248691,0.229556 1.3980446,0.645875 1.8831986,1.231329 z"
       style="display:inline;fill:#000000;fill-opacity:1;stroke:#000000;stroke-width:0.392934px;stroke-linecap:butt;stroke-linejoin:miter;stroke-opacity:1" />
    <path
       inkscape:original-d="m 49.8345,97.67896 c 0,0 13.15183,-5.09349 19.72716,-7.6408 6.57532,-2.54734 13.61452,-13.4756 13.61452,-13.4756 0,0 -2.40762,-1.80562 -3.61202,-2.70901 -1.20439,-0.90339 4.26072,-4.121 6.39049,-6.18211 2.12976,-2.06109 -0.5553,5.64996 -0.83355,8.47435 -0.27823,2.82438 -1.48146,2.45472 -2.22278,3.68147 -0.74131,1.22678 -32.64704,27.78473 -32.64704,27.78473 0,0 -0.41678,-9.93303 -0.41678,-9.93303 z"
       inkscape:path-effect="#path-effect1969"
       id="path1967"
       d="m 49.8345,97.67896 c 7.022795,-1.088923 13.803115,-3.715103 19.72716,-7.6408 5.356569,-3.549647 10.010123,-8.155717 13.61452,-13.4756 -1.50074,-0.371605 -2.83507,-1.37235 -3.61202,-2.70901 -0.546784,-0.940683 -0.820932,-2.044634 -0.735287,-3.12931 0.08564,-1.084676 0.537761,-2.143847 1.292528,-2.927546 0.754767,-0.783699 1.812037,-1.278857 2.899463,-1.315764 1.087426,-0.03691 2.190558,0.395859 2.933786,1.19051 0.521437,0.557515 0.858948,1.274344 1.011873,2.02223 0.152924,0.747886 0.126391,1.526045 -0.02131,2.274979 -0.29541,1.497869 -1.057612,2.856777 -1.824109,4.177141 -0.719738,1.239818 -1.453302,2.471893 -2.22278,3.68147 -7.785695,12.23868 -19.320993,22.05596 -32.64704,27.78473 z"
       style="display:inline;fill:#000000;fill-opacity:1;stroke:#000000;stroke-width:0.392934px;stroke-linecap:butt;stroke-linejoin:miter;stroke-opacity:1" />
    <path
       sodipodi:nodetypes="sssssssss"
       inkscape:original-d="m 13.82823,94.47995 c -4.02916,-3.47348 4.53857,10.30391 2.63955,14.23969 -1.89901,3.93577 7.13182,5.9278 10.69714,8.89112 3.5653,2.96331 16.39334,-4.44518 24.58945,-6.66834 8.1961,-2.22316 2.87147,-9.44642 4.30664,-14.17023 C 57.49616,92.0484 55.9412,89.50345 51.2637,87.88229 46.58622,86.26112 39.0664,93.57735 37.58417,94.4105 36.10193,95.24364 17.77254,97.88028 13.82823,94.48 Z"
       inkscape:path-effect="#path-effect1936"
       id="path1934"
       d="m 13.82823,94.47995 c -0.864125,4.85664 0.09214,10.01543 2.63955,14.23969 2.438396,4.04348 6.291774,7.19163 10.69714,8.89112 4.25053,1.63976 9.018683,1.93974 13.422289,0.77181 4.403606,-1.16793 8.414852,-3.80964 11.167161,-7.44015 3.041484,-4.01196 4.487173,-9.13894 4.30664,-14.17023 -0.06403,-1.784437 -0.332389,-3.590178 -1.088027,-5.207994 -0.755638,-1.617815 -2.043368,-3.039221 -3.709283,-3.681906 -1.241216,-0.478842 -2.630393,-0.503745 -3.927327,-0.207316 -1.296933,0.296429 -2.508026,0.90148 -3.612854,1.642602 -2.209656,1.482244 -4.009905,3.497589 -6.139349,5.092924 -3.395879,2.544122 -7.623295,3.958899 -11.866453,3.971313 C 21.474559,98.394227 17.238936,97.004208 13.82823,94.48 Z"
       style="display:inline;fill:url(#linearGradient4545);fill-opacity:1;stroke:none;stroke-width:0.392934px;stroke-linecap:butt;stroke-linejoin:miter;stroke-opacity:1" />
    <path
       inkscape:original-d="m -19.11906,20.70339 c -29.342396,-0.0863 -8.43224,17.20976 -12.64891,25.8141 -4.21666,8.60434 10.326,30.46101 15.48846,45.69097 5.16247,15.22997 26.67494,6.53995 40.01187,9.80936 C 37.0693,105.28725 47.4817,96.68327 59.35583,94.01545 71.22995,91.34764 73.29581,67.34124 80.26524,54.00358 87.2347,40.66593 72.69347,31.9759 68.90706,20.96153 65.12061,9.94714 10.22333,20.78979 -19.11906,20.70339 Z"
       inkscape:path-effect="#path-effect1789"
       id="path1787"
       d="m -19.11906,20.70339 c -6.264269,7.384635 -10.714307,16.325622 -12.64891,25.8141 -1.695151,8.314059 -1.444523,17.072042 1.142226,25.153245 2.586748,8.081203 7.556476,15.448885 14.346234,20.537725 5.596354,4.194399 12.2844231,6.774211 19.1342664,8.18553 6.8498433,1.41131 13.8842406,1.69478 20.8776036,1.62383 12.326481,-0.12506 25.149246,-1.50249 35.62347,-8.00237 C 66.033839,89.87135 71.437019,83.769602 74.993747,76.761104 78.550474,69.752605 80.280661,61.862914 80.26524,54.00358 80.241968,42.143198 76.193291,30.319951 68.90706,20.96153 58.589627,7.7098397 41.853491,-0.18824563 25.059127,-0.11043173 8.2647624,-0.03261782 -8.2548635,7.8961282 -19.11906,20.70339 Z"
       style="display:inline;fill:#fccb3a;fill-opacity:1;stroke:none;stroke-width:0.361396px;stroke-linecap:butt;stroke-linejoin:miter;stroke-opacity:1" />
    <ellipse
       ry="22.85129"
       rx="16.339752"
       cy="51.481995"
       cx="-1.0588293"
       id="ellipse4398"
       style="display:inline;fill:#ffffff;fill-opacity:1;stroke:none;stroke-width:0.289086;stroke-linecap:round;stroke-linejoin:round"
       transform="matrix(0.99991407,0.01310936,-0.02204329,0.99975702,0,0)" />
    <ellipse
       transform="matrix(0.99991407,0.01310936,-0.02204329,0.99975702,0,0)"
       style="display:inline;fill:#ffffff;fill-opacity:1;stroke:none;stroke-width:0.289086;stroke-linecap:round;stroke-linejoin:round"
       id="ellipse4412"
       cx="46.934746"
       cy="49.063416"
       rx="16.339752"
       ry="22.85129" />
    <ellipse
       ry="13.942268"
       rx="9.9693823"
       cy="48.729889"
       cx="4.012063"
       id="ellipse4400"
       style="display:inline;mix-blend-mode:normal;fill:#a05a2c;fill-opacity:1;stroke:none;stroke-width:0.17638;stroke-linecap:round;stroke-linejoin:round"
       transform="matrix(0.99991407,0.01310936,-0.02204329,0.99975702,0,0)" />
    <ellipse
       transform="matrix(0.99922129,0.03945656,-0.05562315,0.99845183,0,0)"
       style="display:inline;fill:#000000;fill-opacity:1;stroke:none;stroke-width:0.101647;stroke-linecap:round;stroke-linejoin:round"
       id="ellipse4402"
       cx="7.1697803"
       cy="47.830276"
       rx="5.8403893"
       ry="7.9041009" />
    <ellipse
       ry="2.1351221"
       rx="2.3357596"
       transform="matrix(0.98482748,0.17353625,-0.2155952,0.97648283,0,0)"
       cy="39.646248"
       cx="16.034634"
       id="circle4404"
       style="display:inline;fill:#ffffff;fill-opacity:1;stroke:none;stroke-width:0.291291;stroke-linecap:round;stroke-linejoin:round;stroke-opacity:1" />
    <ellipse
       ry="1.1420422"
       rx="1.2493597"
       transform="matrix(0.98482748,0.17353625,-0.2155952,0.97648283,0,0)"
       style="display:inline;fill:#ffffff;fill-opacity:1;stroke:none;stroke-width:0.291291;stroke-linecap:round;stroke-linejoin:round;stroke-opacity:1"
       id="circle4406"
       cx="18.212399"
       cy="42.781502" />
    <ellipse
       transform="matrix(0.99991407,0.01310936,-0.02204329,0.99975702,0,0)"
       style="display:inline;mix-blend-mode:normal;fill:#a05a2c;fill-opacity:1;stroke:none;stroke-width:0.166217;stroke-linecap:round;stroke-linejoin:round"
       id="ellipse4414"
       cx="51.317268"
       cy="45.695496"
       rx="9.3949642"
       ry="13.138941" />
    <ellipse
       ry="7.4486814"
       rx="5.5038762"
       cy="43.594803"
       cx="54.248638"
       id="ellipse4416"
       style="display:inline;fill:#000000;fill-opacity:1;stroke:none;stroke-width:0.0957907;stroke-linecap:round;stroke-linejoin:round"
       transform="matrix(0.99922129,0.03945656,-0.05562315,0.99845183,0,0)" />
    <ellipse
       ry="2.0121002"
       rx="2.2011774"
       transform="matrix(0.98482748,0.17353625,-0.21559519,0.97648283,0,0)"
       style="display:inline;fill:#ffffff;fill-opacity:1;stroke:none;stroke-width:0.274507;stroke-linecap:round;stroke-linejoin:round;stroke-opacity:1"
       id="circle4418"
       cx="61.658417"
       cy="29.495794" />
    <ellipse
       ry="1.0762397"
       rx="1.1773739"
       transform="matrix(0.98482748,0.17353625,-0.21559519,0.97648283,0,0)"
       cy="32.450386"
       cx="63.710693"
       id="circle4420"
       style="display:inline;fill:#ffffff;fill-opacity:1;stroke:none;stroke-width:0.274507;stroke-linecap:round;stroke-linejoin:round;stroke-opacity:1" />
    <ellipse
       ry="7.3830328"
       rx="5.3006387"
       cy="87.402718"
       cx="17.064774"
       id="path4783"
       style="display:inline;fill:#000000;fill-opacity:1;stroke:none;stroke-width:1.80787;stroke-linecap:round;stroke-linejoin:round;stroke-miterlimit:4;stroke-dasharray:none;stroke-opacity:1" />
    <ellipse
       ry="1.5144682"
       rx="0.18930852"
       cy="83.27784"
       cx="19.74382"
       id="path4785"
       style="display:inline;fill:#000000;fill-opacity:1;stroke:none;stroke-width:1.80787;stroke-linecap:round;stroke-linejoin:round;stroke-miterlimit:4;stroke-dasharray:none;stroke-opacity:1" />
    <path
       style="fill:#ffab00;stroke-width:0.229788"
       d="M 79.36159,20.75501 H -33.66619 v -9.42914 c 0,-2.55639 2.4132,-4.62876 5.39003,-4.62876 H 73.97156 c 2.97683,0 5.39003,2.07237 5.39003,4.62876 z"
       id="path2" />
    <path
       style="fill:#ffd740;stroke-width:0.229788"
       d="M 69.46726,20.75501 H -23.51645 V -0.94414 c 0,-15.64539 14.76909,-28.32852 32.98764,-28.32852 h 27.00843 c 18.21855,0 32.98764,12.68313 32.98764,28.32852 z"
       id="path4" />
    <path
       style="fill:#ffc400;stroke-width:0.229788"
       d="m 36.48335,-29.27288 h -7.66339 c 18.21656,0 32.98391,12.68462 32.98391,28.33192 v 17.7465 h 7.66339 v -17.7465 c 0,-15.6473 -14.76736,-28.33192 -32.98391,-28.33192 z"
       id="path6" />
    <path
       transform="matrix(0.90931296,0,0,0.90931296,-58.795178,-35.04213)"
       inkscape:original-d="m 75.875642,58.714078 c 0,0 -3.14953,-12.913931 -4.7247,-19.371291 -1.57516,-6.45736 -22.48932,-13.79587 -33.73437,-20.69419 -11.245061,-6.89833 10.5206,11.08756 15.7805,16.63095 5.25991,5.54338 9.26068,6.74084 13.89062,10.11086 4.62995,3.37003 8.78795,13.323671 8.78795,13.323671 z"
       inkscape:path-effect="#path-effect1829"
       id="path860-7"
       d="M 75.875642,58.714078 C 73.996299,52.336345 72.419046,45.869603 71.150942,39.342787 70.212573,34.513088 69.438002,29.629176 67.883324,24.961253 66.328646,20.29333 63.925201,15.79037 60.227607,12.544707 58.37881,10.921876 56.220399,9.634984 53.87483,8.8934049 51.529261,8.1518257 48.995017,7.9659449 46.587927,8.4734384 c -2.40709,0.5074934 -4.677792,1.7218276 -6.353144,3.5231686 -1.675352,1.801341 -2.730847,4.193535 -2.818211,6.65199 -0.07186,2.022114 0.501114,4.04009 1.480145,5.810854 0.97903,1.770765 2.352709,3.303462 3.900158,4.607115 3.094897,2.607307 6.836488,4.295584 10.400197,6.212981 5.063034,2.724086 9.879279,5.99211 13.89062,10.11086 3.734198,3.834186 6.733523,8.381551 8.78795,13.323671 z"
       style="display:inline;opacity:0.999;fill:#000000;fill-opacity:1;stroke:#000000;stroke-width:0.264583px;stroke-linecap:butt;stroke-linejoin:miter;stroke-opacity:1;filter:url(#filter1172-8)"
       inkscape:transform-center-x="-188.66711"
       inkscape:transform-center-y="-17.00473" />
    <path
       transform="matrix(1.0491788,0,0,1.0491788,-63.580019,-42.37525)"
       style="display:inline;opacity:0.999;fill:#000000;fill-opacity:1;stroke:#000000;stroke-width:0.228326px;stroke-linecap:butt;stroke-linejoin:miter;stroke-opacity:1;filter:url(#filter1172-8)"
       d="m 98.728898,57.387108 c 1.621812,-5.503755 2.982932,-11.084322 4.077262,-16.716731 0.80978,-4.167858 1.47821,-8.3825 2.81984,-12.410751 1.34163,-4.028252 3.41572,-7.914147 6.60661,-10.71504 1.59544,-1.400446 3.45807,-2.510988 5.48222,-3.150946 2.02414,-0.639957 4.2111,-0.800367 6.28833,-0.362419 2.07724,0.437948 4.03677,1.485874 5.48254,3.040367 1.44577,1.554492 2.35663,3.61887 2.43202,5.740429 0.062,1.745013 -0.43244,3.486454 -1.27731,5.014561 -0.84487,1.528108 -2.03031,2.850771 -3.3657,3.975777 -2.67079,2.250013 -5.89965,3.706936 -8.975,5.361582 -4.36922,2.350791 -8.52547,5.170982 -11.98712,8.72532 -3.22248,3.308766 -5.81079,7.232979 -7.583692,11.497851 z"
       id="path860-6-7"
       inkscape:path-effect="#path-effect1827"
       inkscape:original-d="m 98.728898,57.387108 c 0,0 2.717942,-11.144261 4.077262,-16.716731 1.3593,-5.57247 19.40748,-11.90535 29.11156,-17.85836 9.70407,-5.95301 -9.07891,9.56818 -13.61801,14.35192 -4.53911,4.78375 -7.99164,5.81711 -11.98712,8.72532 -3.99547,2.90821 -7.583692,11.497851 -7.583692,11.497851 z" />
    <path
       style="fill:#ffc400;stroke-width:0.229788"
       d="M 55.07681,20.75501 H -9.126 V 3.41608 c 0,-2.3 2.17119,-4.16431 4.84922,-4.16431 h 54.50437 c 2.67829,0 4.84922,1.86453 4.84922,4.16431 z"
       id="path8" />
    <path
       style="fill:#ffab00;stroke-width:0.229788"
       d="m 50.22809,-0.74823 h -7.66338 c 2.67803,0 4.84872,1.86474 4.84872,4.16496 v 17.33828 h 7.66338 V 3.41673 c 2.4e-4,-2.30022 -2.17069,-4.16496 -4.84872,-4.16496 z"
       id="path10" />
    <path
       style="fill:#ffd740;stroke-width:0.229788"
       d="M 81.85613,24.70468 H -35.90531 c -2.53968,0 -4.59854,-1.76807 -4.59854,-3.94903 v -8.5e-4 c 0,-2.18098 2.05886,-3.94905 4.59854,-3.94905 H 81.85588 c 2.53966,0 4.59853,1.76807 4.59853,3.94905 v 8.5e-4 c 2.4e-4,2.18096 -2.05861,3.94903 -4.59828,3.94903 z"
       id="path12" />
    <path
       style="fill:#ffc400;stroke-width:0.229788"
       d="m 81.85662,16.80554 h -7.66338 c 2.53942,0 4.59803,1.76828 4.59803,3.94947 v 0 c 0,2.18118 -2.05861,3.94967 -4.59803,3.94967 h 7.66338 c 2.53942,0 4.59803,-1.76828 4.59803,-3.94967 v 0 c 0,-2.18119 -2.05861,-3.94947 -4.59803,-3.94947 z"
       id="path14" />
    <path
       style="fill:#ffab00;stroke-width:0.229788"
       d="M 36.76974,-0.74823 H 9.18107 V -31.2162 c 0,-0.98677 0.93161,-1.78681 2.08068,-1.78681 h 23.42731 c 1.14908,0 2.08068,0.80004 2.08068,1.78681 z"
       id="path16" />
    <path
       style="fill:#ff9800;stroke-width:0.229788"
       d="m 34.68931,-33.00301 h -7.66338 c 1.14907,0 2.08043,0.80004 2.08043,1.78702 v 30.46796 h 7.66338 v -30.46796 c 0,-0.98698 -0.93136,-1.78702 -2.08043,-1.78702 z"
       id="path18" />
    <ellipse
       style="fill:#b5fcff;stroke-width:0.229788"
       cx="22.975403"
       cy="-0.85790455"
       rx="6.8971696"
       ry="5.9243007"
       id="ellipse20" />
    <path
       style="fill:#71f6fc;stroke-width:0.229788"
       d="m 22.97541,-6.7822 c -1.41812,0 -2.73581,0.36797 -3.83182,0.99828 1.8481,1.06279 3.06536,2.87217 3.06536,4.92601 0,2.05385 -1.21726,3.86322 -3.06536,4.92602 1.09601,0.63032 2.4137,0.99828 3.83182,0.99828 3.80925,0 6.89716,-2.65242 6.89716,-5.9243 0,-3.27187 -3.08791,-5.92429 -6.89716,-5.92429 z"
       id="path22" />
  </g>
  <g
     transform="translate(172.58099,134.70057)"
     inkscape:label="Ears"
     id="layer10"
     inkscape:groupmode="layer" />
</svg>
