<?xml version="1.0" encoding="UTF-8" standalone="no"?>
<svg
   xmlns:dc="http://purl.org/dc/elements/1.1/"
   xmlns:cc="http://creativecommons.org/ns#"
   xmlns:rdf="http://www.w3.org/1999/02/22-rdf-syntax-ns#"
   xmlns:svg="http://www.w3.org/2000/svg"
   xmlns="http://www.w3.org/2000/svg"
   xmlns:sodipodi="http://sodipodi.sourceforge.net/DTD/sodipodi-0.dtd"
   xmlns:inkscape="http://www.inkscape.org/namespaces/inkscape"
   inkscape:export-ydpi="96"
   inkscape:export-xdpi="96"
   inkscape:export-filename="C:\Users\Corey\Documents\KoBee\Website Assets\Calculator Assets\LED-Series-Resistor.png"
   width="660"
   height="360"
   viewBox="0 0 174.625 95.250003"
   version="1.1"
   id="svg8"
   inkscape:version="1.0 (4035a4fb49, 2020-05-01)"
   sodipodi:docname="555-Timer.svg">
  <defs
     id="defs2">
    <marker
       inkscape:stockid="Arrow1Mend"
       orient="auto"
       refY="0.0"
       refX="0.0"
       id="marker3841"
       style="overflow:visible;"
       inkscape:isstock="true">
      <path
         id="path3839"
         d="M 0.0,0.0 L 5.0,-5.0 L -12.5,0.0 L 5.0,5.0 L 0.0,0.0 z "
         style="fill-rule:evenodd;stroke:#4e5153;stroke-width:1pt;stroke-opacity:1;fill:#4e5153;fill-opacity:1"
         transform="scale(0.4) rotate(180) translate(10,0)" />
    </marker>
    <marker
       inkscape:stockid="Arrow1Mend"
       orient="auto"
       refY="0.0"
       refX="0.0"
       id="marker3831"
       style="overflow:visible;"
       inkscape:isstock="true">
      <path
         id="path3829"
         d="M 0.0,0.0 L 5.0,-5.0 L -12.5,0.0 L 5.0,5.0 L 0.0,0.0 z "
         style="fill-rule:evenodd;stroke:#4e5153;stroke-width:1pt;stroke-opacity:1;fill:#4e5153;fill-opacity:1"
         transform="scale(0.4) rotate(180) translate(10,0)" />
    </marker>
    <marker
       inkscape:isstock="true"
       style="overflow:visible"
       id="TriangleOutL"
       refX="0.0"
       refY="0.0"
       orient="auto"
       inkscape:stockid="TriangleOutL">
      <path
         transform="scale(0.8)"
         style="fill-rule:evenodd;stroke:#000000;stroke-width:1pt;stroke-opacity:1;fill:#000000;fill-opacity:1"
         d="M 5.77,0.0 L -2.88,5.0 L -2.88,-5.0 L 5.77,0.0 z "
         id="path2502" />
    </marker>
    <marker
       inkscape:isstock="true"
       style="overflow:visible;"
       id="marker2926"
       refX="0.0"
       refY="0.0"
       orient="auto"
       inkscape:stockid="Arrow2Lend">
      <path
         transform="scale(1.1) rotate(180) translate(1,0)"
         d="M 8.7185878,4.0337352 L -2.2072895,0.016013256 L 8.7185884,-4.0017078 C 6.9730900,-1.6296469 6.9831476,1.6157441 8.7185878,4.0337352 z "
         style="fill-rule:evenodd;stroke-width:0.625;stroke-linejoin:round;stroke:#000000;stroke-opacity:1;fill:#000000;fill-opacity:1"
         id="path2924" />
    </marker>
    <marker
       inkscape:isstock="true"
       style="overflow:visible;"
       id="marker2868"
       refX="0.0"
       refY="0.0"
       orient="auto"
       inkscape:stockid="Arrow2Lend">
      <path
         transform="scale(1.1) rotate(180) translate(1,0)"
         d="M 8.7185878,4.0337352 L -2.2072895,0.016013256 L 8.7185884,-4.0017078 C 6.9730900,-1.6296469 6.9831476,1.6157441 8.7185878,4.0337352 z "
         style="fill-rule:evenodd;stroke-width:0.625;stroke-linejoin:round;stroke:#000000;stroke-opacity:1;fill:#000000;fill-opacity:1"
         id="path2866" />
    </marker>
    <marker
       inkscape:isstock="true"
       style="overflow:visible;"
       id="Arrow2Lend"
       refX="0.0"
       refY="0.0"
       orient="auto"
       inkscape:stockid="Arrow2Lend">
      <path
         transform="scale(1.1) rotate(180) translate(1,0)"
         d="M 8.7185878,4.0337352 L -2.2072895,0.016013256 L 8.7185884,-4.0017078 C 6.9730900,-1.6296469 6.9831476,1.6157441 8.7185878,4.0337352 z "
         style="fill-rule:evenodd;stroke-width:0.625;stroke-linejoin:round;stroke:#000000;stroke-opacity:1;fill:#000000;fill-opacity:1"
         id="path2381" />
    </marker>
    <marker
       inkscape:isstock="true"
       style="overflow:visible;"
       id="Arrow1Lend"
       refX="0.0"
       refY="0.0"
       orient="auto"
       inkscape:stockid="Arrow1Lend">
      <path
         transform="scale(0.8) rotate(180) translate(12.5,0)"
         style="fill-rule:evenodd;stroke:#000000;stroke-width:1pt;stroke-opacity:1;fill:#000000;fill-opacity:1"
         d="M 0.0,0.0 L 5.0,-5.0 L -12.5,0.0 L 5.0,5.0 L 0.0,0.0 z "
         id="path2363" />
    </marker>
    <marker
       inkscape:isstock="true"
       style="overflow:visible"
       id="Arrow1Lstart"
       refX="0.0"
       refY="0.0"
       orient="auto"
       inkscape:stockid="Arrow1Lstart">
      <path
         transform="scale(0.8) translate(12.5,0)"
         style="fill-rule:evenodd;stroke:#000000;stroke-width:1pt;stroke-opacity:1;fill:#000000;fill-opacity:1"
         d="M 0.0,0.0 L 5.0,-5.0 L -12.5,0.0 L 5.0,5.0 L 0.0,0.0 z "
         id="path2360" />
    </marker>
    <marker
       inkscape:isstock="true"
       style="overflow:visible"
       id="TriangleInL"
       refX="0.0"
       refY="0.0"
       orient="auto"
       inkscape:stockid="TriangleInL">
      <path
         transform="scale(-0.8)"
         style="fill-rule:evenodd;stroke:#000000;stroke-width:1pt;stroke-opacity:1;fill:#000000;fill-opacity:1"
         d="M 5.77,0.0 L -2.88,5.0 L -2.88,-5.0 L 5.77,0.0 z "
         id="path2493" />
    </marker>
    <marker
       inkscape:isstock="true"
       style="overflow:visible"
       id="Arrow2Mstart"
       refX="0.0"
       refY="0.0"
       orient="auto"
       inkscape:stockid="Arrow2Mstart">
      <path
         transform="scale(0.6) translate(0,0)"
         d="M 8.7185878,4.0337352 L -2.2072895,0.016013256 L 8.7185884,-4.0017078 C 6.9730900,-1.6296469 6.9831476,1.6157441 8.7185878,4.0337352 z "
         style="fill-rule:evenodd;stroke-width:0.625;stroke-linejoin:round;stroke:#000000;stroke-opacity:1;fill:#000000;fill-opacity:1"
         id="path2384" />
    </marker>
    <marker
       inkscape:stockid="TriangleInL"
       orient="auto"
       refY="0"
       refX="0"
       id="TriangleInL-7"
       style="overflow:visible"
       inkscape:isstock="true">
      <path
         id="path2493-4"
         d="M 5.77,0 -2.88,5 V -5 Z"
         style="fill:#000000;fill-opacity:1;fill-rule:evenodd;stroke:#000000;stroke-width:1pt;stroke-opacity:1"
         transform="scale(-0.8)" />
    </marker>
    <marker
       inkscape:stockid="Arrow1Lstart"
       orient="auto"
       refY="0"
       refX="0"
       id="Arrow1Lstart-8"
       style="overflow:visible"
       inkscape:isstock="true">
      <path
         id="path2360-1"
         d="M 0,0 5,-5 -12.5,0 5,5 Z"
         style="fill:#000000;fill-opacity:1;fill-rule:evenodd;stroke:#000000;stroke-width:1pt;stroke-opacity:1"
         transform="matrix(0.8,0,0,0.8,10,0)" />
    </marker>
    <marker
       inkscape:stockid="TriangleOutL"
       orient="auto"
       refY="0"
       refX="0"
       id="TriangleOutL-0"
       style="overflow:visible"
       inkscape:isstock="true">
      <path
         id="path2502-7"
         d="M 5.77,0 -2.88,5 V -5 Z"
         style="fill:#000000;fill-opacity:1;fill-rule:evenodd;stroke:#000000;stroke-width:1pt;stroke-opacity:1"
         transform="scale(0.8)" />
    </marker>
    <marker
       inkscape:isstock="true"
       style="overflow:visible"
       id="marker3831-4"
       refX="0"
       refY="0"
       orient="auto"
       inkscape:stockid="Arrow1Mend">
      <path
         transform="matrix(-0.4,0,0,-0.4,-4,0)"
         style="fill:#4e5153;fill-opacity:1;fill-rule:evenodd;stroke:#4e5153;stroke-width:1pt;stroke-opacity:1"
         d="M 0,0 5,-5 -12.5,0 5,5 Z"
         id="path3829-7" />
    </marker>
    <marker
       inkscape:isstock="true"
       style="overflow:visible"
       id="marker3841-2"
       refX="0"
       refY="0"
       orient="auto"
       inkscape:stockid="Arrow1Mend">
      <path
         transform="matrix(-0.4,0,0,-0.4,-4,0)"
         style="fill:#4e5153;fill-opacity:1;fill-rule:evenodd;stroke:#4e5153;stroke-width:1pt;stroke-opacity:1"
         d="M 0,0 5,-5 -12.5,0 5,5 Z"
         id="path3839-2" />
    </marker>
  </defs>
  <sodipodi:namedview
     showguides="true"
     id="base"
     pagecolor="#ffffff"
     bordercolor="#666666"
     borderopacity="1.0"
     inkscape:pageopacity="0.0"
     inkscape:pageshadow="2"
     inkscape:zoom="1.4"
     inkscape:cx="306.02208"
     inkscape:cy="288.88403"
     inkscape:document-units="mm"
     inkscape:current-layer="text1054-6"
     inkscape:document-rotation="0"
     showgrid="false"
     units="px"
     inkscape:window-width="2560"
     inkscape:window-height="1377"
     inkscape:window-x="-8"
     inkscape:window-y="477"
     inkscape:window-maximized="1" />
  <metadata
     id="metadata5">
    <rdf:RDF>
      <cc:Work
         rdf:about="">
        <dc:format>image/svg+xml</dc:format>
        <dc:type
           rdf:resource="http://purl.org/dc/dcmitype/StillImage" />
        <dc:title></dc:title>
      </cc:Work>
    </rdf:RDF>
  </metadata>
  <g
     inkscape:label="Layer 1"
     inkscape:groupmode="layer"
     id="layer1">
    <rect
       style="fill:none;fill-opacity:1;stroke:none;stroke-width:0.197656;stroke-linecap:round;stroke-linejoin:round;stroke-miterlimit:4;stroke-dasharray:none;stroke-opacity:1"
       id="rect846"
       width="172.98044"
       height="92.524414"
       x="-176.58397"
       y="0.84995687"
       ry="6.6088867" />
    <rect
       ry="6.6088867"
       y="1.7948973"
       x="0.93217969"
       height="92.524414"
       width="172.98044"
       id="rect846-0"
       style="fill:none;fill-opacity:1;stroke:none;stroke-width:0.197656;stroke-linecap:round;stroke-linejoin:round;stroke-miterlimit:4;stroke-dasharray:none;stroke-opacity:1" />
    <rect
       style="fill:none;fill-opacity:1;stroke:none;stroke-width:0.197656;stroke-linecap:round;stroke-linejoin:round;stroke-miterlimit:4;stroke-dasharray:none;stroke-opacity:1"
       id="rect846-0-6"
       width="172.98045"
       height="92.524414"
       x="-176.58398"
       y="93.374374"
       ry="6.6088867" />
    <rect
       style="fill:none;fill-opacity:1;stroke:none;stroke-width:0.197656;stroke-linecap:round;stroke-linejoin:round;stroke-miterlimit:4;stroke-dasharray:none;stroke-opacity:1"
       id="rect846-0-4"
       width="172.98045"
       height="92.524414"
       x="93.674706"
       y="-106.44927"
       ry="6.6088867" />
    <rect
       style="fill:none;fill-opacity:1;stroke:none;stroke-width:0.197656;stroke-linecap:round;stroke-linejoin:round;stroke-miterlimit:4;stroke-dasharray:none;stroke-opacity:1"
       id="rect846-0-0"
       width="172.98045"
       height="92.524414"
       x="-176.58398"
       y="-91.674454"
       ry="6.6088867" />
    <rect
       ry="1.3363477"
       y="18.760817"
       x="51.98748"
       height="38.217693"
       width="70.783463"
       id="rect1016"
       style="fill:#fed700;fill-opacity:1;stroke:#ffffff;stroke-width:0;stroke-linecap:round;stroke-linejoin:round;stroke-miterlimit:3.4;stroke-dasharray:none;stroke-opacity:1" />
    <circle
       transform="rotate(-90)"
       sodipodi:arc-type="chord"
       sodipodi:open="true"
       sodipodi:end="3.1300997"
       sodipodi:start="0.015167388"
       sodipodi:ry="4.7440343"
       sodipodi:rx="4.7440343"
       sodipodi:cy="51.932034"
       sodipodi:cx="-37.869549"
       sodipodi:type="arc"
       id="path1018"
       style="fill:#ffffff;fill-opacity:1;stroke:#ffffff;stroke-width:0.265;stroke-linecap:round;stroke-linejoin:round;stroke-miterlimit:3.4;stroke-dasharray:none;stroke-opacity:1"
       d="m -33.12606,52.003985 a 4.7440343,4.7440343 0 0 1 -4.752205,4.672075 4.7440343,4.7440343 0 0 1 -4.735005,-4.689505 z" />
    <rect
       ry="0"
       y="57.172363"
       x="58.532192"
       height="6.0577464"
       width="6.4712586"
       id="rect1026"
       style="fill:#4e5153;fill-opacity:1;stroke:#4e5153;stroke-width:0.387709;stroke-linecap:round;stroke-linejoin:miter;stroke-miterlimit:3.4;stroke-dasharray:none;stroke-opacity:1" />
    <rect
       style="fill:#4e5153;fill-opacity:1;stroke:#4e5153;stroke-width:0.387709;stroke-linecap:round;stroke-linejoin:miter;stroke-miterlimit:3.4;stroke-dasharray:none;stroke-opacity:1"
       id="rect1030"
       width="6.4712586"
       height="6.0577464"
       x="75.606453"
       y="57.172363"
       ry="0" />
    <rect
       ry="0"
       y="57.172363"
       x="92.680717"
       height="6.0577464"
       width="6.4712586"
       id="rect1032"
       style="fill:#4e5153;fill-opacity:1;stroke:#4e5153;stroke-width:0.387709;stroke-linecap:round;stroke-linejoin:miter;stroke-miterlimit:3.4;stroke-dasharray:none;stroke-opacity:1" />
    <rect
       style="fill:#4e5153;fill-opacity:1;stroke:#4e5153;stroke-width:0.387709;stroke-linecap:round;stroke-linejoin:miter;stroke-miterlimit:3.4;stroke-dasharray:none;stroke-opacity:1"
       id="rect1034"
       width="6.4712586"
       height="6.0577464"
       x="109.75497"
       y="57.172363"
       ry="0" />
    <rect
       style="fill:#4e5153;fill-opacity:1;stroke:#4e5153;stroke-width:0.387709;stroke-linecap:round;stroke-linejoin:miter;stroke-miterlimit:3.4;stroke-dasharray:none;stroke-opacity:1"
       id="rect1042"
       width="6.4712586"
       height="6.0577464"
       x="58.532192"
       y="12.509215"
       ry="0" />
    <rect
       ry="0"
       y="12.509215"
       x="75.606453"
       height="6.0577464"
       width="6.4712586"
       id="rect1044"
       style="fill:#4e5153;fill-opacity:1;stroke:#4e5153;stroke-width:0.387709;stroke-linecap:round;stroke-linejoin:miter;stroke-miterlimit:3.4;stroke-dasharray:none;stroke-opacity:1" />
    <rect
       style="fill:#4e5153;fill-opacity:1;stroke:#4e5153;stroke-width:0.387709;stroke-linecap:round;stroke-linejoin:miter;stroke-miterlimit:3.4;stroke-dasharray:none;stroke-opacity:1"
       id="rect1046"
       width="6.4712586"
       height="6.0577464"
       x="92.680717"
       y="12.509215"
       ry="0" />
    <rect
       ry="0"
       y="12.509215"
       x="109.75497"
       height="6.0577464"
       width="6.4712586"
       id="rect1048"
       style="fill:#4e5153;fill-opacity:1;stroke:#4e5153;stroke-width:0.387709;stroke-linecap:round;stroke-linejoin:miter;stroke-miterlimit:3.4;stroke-dasharray:none;stroke-opacity:1" />
    <g
       style="font-style:normal;font-weight:normal;font-size:14.1111px;line-height:1.25;font-family:sans-serif;fill:#000000;fill-opacity:1;stroke:none;stroke-width:0.265;stroke-miterlimit:3.4;stroke-dasharray:none"
       id="text1054"
       aria-label="555">
      <path
         id="path1224"
         style="font-style:normal;font-variant:normal;font-weight:normal;font-stretch:normal;font-size:14.1111px;font-family:Comfortaa;-inkscape-font-specification:Comfortaa;fill:#4e5153;fill-opacity:1;stroke-width:0.265;stroke-miterlimit:3.4;stroke-dasharray:none"
         d="m 78.458445,43.387104 q -1.015999,0 -1.820332,-0.465666 -0.804333,-0.479778 -1.28411,-1.28411 -0.465666,-0.818444 -0.465666,-1.834443 0,-0.239889 0.155222,-0.395111 0.155222,-0.155222 0.380999,-0.155222 0.239889,0 0.395111,0.155222 0.169333,0.155222 0.169333,0.395111 0,0.705555 0.324556,1.269999 0.324555,0.564444 0.874888,0.888999 0.564444,0.324555 1.269999,0.324555 0.705555,0 1.269999,-0.324555 0.564444,-0.324555 0.888999,-0.888999 0.324556,-0.564444 0.324556,-1.269999 0,-0.705555 -0.324556,-1.269999 -0.324555,-0.564444 -0.888999,-0.889 Q 79.164,37.319331 78.458445,37.319331 h -2.469443 q -0.239888,0 -0.39511,-0.155222 -0.155222,-0.169333 -0.155222,-0.395111 v -3.866441 q 0,-0.225778 0.155222,-0.381 0.155222,-0.169333 0.39511,-0.169333 h 4.952997 q 0.225777,0 0.380999,0.169333 0.169334,0.155222 0.169334,0.381 0,0.225777 -0.155223,0.39511 -0.155222,0.155222 -0.39511,0.155222 h -4.416775 v 2.765776 h 1.933221 q 1.03011,0 1.834443,0.479778 0.804333,0.465666 1.269999,1.28411 0.479777,0.804332 0.479777,1.820332 0,1.015999 -0.479777,1.834443 -0.465666,0.804332 -1.269999,1.28411 -0.804333,0.465666 -1.834443,0.465666 z" />
      <path
         id="path1226"
         style="font-style:normal;font-variant:normal;font-weight:normal;font-stretch:normal;font-size:14.1111px;font-family:Comfortaa;-inkscape-font-specification:Comfortaa;fill:#4e5153;fill-opacity:1;stroke-width:0.265;stroke-miterlimit:3.4;stroke-dasharray:none"
         d="m 87.305443,43.387104 q -1.015999,0 -1.820332,-0.465666 -0.804332,-0.479778 -1.28411,-1.28411 -0.465666,-0.818444 -0.465666,-1.834443 0,-0.239889 0.155222,-0.395111 0.155222,-0.155222 0.381,-0.155222 0.239888,0 0.39511,0.155222 0.169334,0.155222 0.169334,0.395111 0,0.705555 0.324555,1.269999 0.324555,0.564444 0.874888,0.888999 0.564444,0.324555 1.269999,0.324555 0.705555,0 1.269999,-0.324555 0.564444,-0.324555 0.889,-0.888999 0.324555,-0.564444 0.324555,-1.269999 0,-0.705555 -0.324555,-1.269999 -0.324556,-0.564444 -0.889,-0.889 -0.564444,-0.324555 -1.269999,-0.324555 h -2.469442 q -0.239889,0 -0.395111,-0.155222 -0.155222,-0.169333 -0.155222,-0.395111 v -3.866441 q 0,-0.225778 0.155222,-0.381 0.155222,-0.169333 0.395111,-0.169333 h 4.952996 q 0.225777,0 0.381,0.169333 0.169333,0.155222 0.169333,0.381 0,0.225777 -0.155222,0.39511 -0.155222,0.155222 -0.395111,0.155222 h -4.416775 v 2.765776 h 1.933221 q 1.030111,0 1.834443,0.479778 0.804333,0.465666 1.269999,1.28411 0.479778,0.804332 0.479778,1.820332 0,1.015999 -0.479778,1.834443 -0.465666,0.804332 -1.269999,1.28411 -0.804332,0.465666 -1.834443,0.465666 z" />
      <path
         id="path1228"
         style="font-style:normal;font-variant:normal;font-weight:normal;font-stretch:normal;font-size:14.1111px;font-family:Comfortaa;-inkscape-font-specification:Comfortaa;fill:#4e5153;fill-opacity:1;stroke-width:0.265;stroke-miterlimit:3.4;stroke-dasharray:none"
         d="m 96.152441,43.387104 q -1.015999,0 -1.820332,-0.465666 -0.804332,-0.479778 -1.28411,-1.28411 -0.465666,-0.818444 -0.465666,-1.834443 0,-0.239889 0.155222,-0.395111 0.155222,-0.155222 0.381,-0.155222 0.239889,0 0.395111,0.155222 0.169333,0.155222 0.169333,0.395111 0,0.705555 0.324555,1.269999 0.324555,0.564444 0.874888,0.888999 0.564444,0.324555 1.269999,0.324555 0.705555,0 1.269999,-0.324555 0.564444,-0.324555 0.889,-0.888999 0.324555,-0.564444 0.324555,-1.269999 0,-0.705555 -0.324555,-1.269999 -0.324556,-0.564444 -0.889,-0.889 -0.564444,-0.324555 -1.269999,-0.324555 h -2.469442 q -0.239889,0 -0.395111,-0.155222 -0.155222,-0.169333 -0.155222,-0.395111 v -3.866441 q 0,-0.225778 0.155222,-0.381 0.155222,-0.169333 0.395111,-0.169333 h 4.952996 q 0.225778,0 0.381,0.169333 0.169333,0.155222 0.169333,0.381 0,0.225777 -0.155222,0.39511 -0.155222,0.155222 -0.395111,0.155222 h -4.416774 v 2.765776 h 1.93322 q 1.030111,0 1.834443,0.479778 0.804333,0.465666 1.269999,1.28411 0.479778,0.804332 0.479778,1.820332 0,1.015999 -0.479778,1.834443 -0.465666,0.804332 -1.269999,1.28411 -0.804332,0.465666 -1.834443,0.465666 z" />
    </g>
    <g
       style="font-style:normal;font-weight:normal;font-size:6.35px;line-height:1.25;font-family:sans-serif;fill:#000000;fill-opacity:1;stroke:none;stroke-width:0.264999;stroke-miterlimit:3.4;stroke-dasharray:none"
       id="text1054-7"
       aria-label="1">
      <path
         id="path1234"
         style="font-style:normal;font-variant:normal;font-weight:normal;font-stretch:normal;font-size:6.35px;font-family:Comfortaa;-inkscape-font-specification:Comfortaa;fill:#4e5153;fill-opacity:1;stroke-width:0.264999;stroke-miterlimit:3.4;stroke-dasharray:none"
         d="m 62.272647,55.126816 q -0.1016,0 -0.1778,-0.06985 -0.06985,-0.06985 -0.06985,-0.1778 v -4.1275 l -0.635,0.22225 q -0.06985,0.03175 -0.127,0.03175 -0.10795,0 -0.1778,-0.06985 -0.06985,-0.06985 -0.06985,-0.17145 0,-0.0762 0.03175,-0.1397 0.0381,-0.0635 0.127,-0.09525 l 0.9779,-0.33655 q 0.03175,-0.0127 0.0635,-0.01905 0.0381,-0.0127 0.0635,-0.0127 0.10795,0 0.17145,0.0762 0.06985,0.06985 0.06985,0.17145 v 4.4704 q 0,0.10795 -0.06985,0.1778 -0.06985,0.06985 -0.1778,0.06985 z" />
    </g>
    <g
       style="font-style:normal;font-weight:normal;font-size:6.35px;line-height:1.25;font-family:sans-serif;fill:#000000;fill-opacity:1;stroke:none;stroke-width:0.264999;stroke-miterlimit:3.4;stroke-dasharray:none"
       id="text1144"
       aria-label="2">
      <path
         id="path1257"
         style="font-style:normal;font-variant:normal;font-weight:normal;font-stretch:normal;font-size:6.35px;font-family:Comfortaa;-inkscape-font-specification:Comfortaa;fill:#4e5153;fill-opacity:1;stroke-width:0.264999;stroke-miterlimit:3.4;stroke-dasharray:none"
         d="m 77.638754,55.126816 q -0.1016,0 -0.1778,-0.06985 -0.06985,-0.06985 -0.06985,-0.1778 0,-0.09525 0.06985,-0.17145 l 1.92405,-2.2733 q 0.15875,-0.17145 0.254,-0.381 0.09525,-0.2159 0.09525,-0.40005 0,-0.29845 -0.12065,-0.52705 -0.1143,-0.2286 -0.3302,-0.3556 -0.20955,-0.13335 -0.4826,-0.13335 -0.2667,0 -0.48895,0.1397 -0.2159,0.13335 -0.3429,0.36195 -0.12065,0.2286 -0.12065,0.51435 0,0.1016 -0.06985,0.17145 -0.06985,0.06985 -0.1778,0.06985 -0.1016,0 -0.1778,-0.06985 -0.06985,-0.06985 -0.06985,-0.17145 0,-0.42545 0.1905,-0.762 0.1905,-0.33655 0.51435,-0.5334 0.3302,-0.19685 0.74295,-0.19685 0.41275,0 0.73025,0.1905 0.32385,0.1905 0.50165,0.52705 0.18415,0.33655 0.18415,0.7747 0,0.20955 -0.06985,0.40005 -0.0635,0.1905 -0.1778,0.3683 -0.1143,0.17145 -0.24765,0.32385 l -1.6256,1.88595 h 1.98755 q 0.1016,0 0.17145,0.0762 0.0762,0.0762 0.0762,0.17145 0,0.10795 -0.0762,0.1778 -0.06985,0.06985 -0.17145,0.06985 z" />
    </g>
    <g
       style="font-style:normal;font-weight:normal;font-size:6.35px;line-height:1.25;font-family:sans-serif;fill:#000000;fill-opacity:1;stroke:none;stroke-width:0.264999;stroke-miterlimit:3.4;stroke-dasharray:none"
       id="text1148"
       aria-label="3">
      <path
         id="path1260"
         style="font-style:normal;font-variant:normal;font-weight:normal;font-stretch:normal;font-size:6.35px;font-family:Comfortaa;-inkscape-font-specification:Comfortaa;fill:#4e5153;fill-opacity:1;stroke-width:0.264999;stroke-miterlimit:3.4;stroke-dasharray:none"
         d="m 95.932222,55.158566 q -0.4445,0 -0.8001,-0.1905 -0.34925,-0.19685 -0.55245,-0.5334 -0.2032,-0.33655 -0.2032,-0.762 0,-0.10795 0.0635,-0.18415 0.0635,-0.0762 0.17145,-0.0762 0.10795,0 0.17145,0.0762 0.0635,0.0762 0.0635,0.18415 0,0.2921 0.1397,0.52705 0.1397,0.2286 0.381,0.3683 0.24765,0.13335 0.5461,0.13335 0.4953,0 0.7747,-0.27305 0.2794,-0.2794 0.2794,-0.71755 0,-0.31115 -0.13335,-0.53975 -0.13335,-0.23495 -0.36195,-0.36195 -0.2286,-0.13335 -0.51435,-0.13335 -0.1016,0 -0.17145,-0.06985 -0.06985,-0.06985 -0.06985,-0.1778 0,-0.1016 0.06985,-0.17145 0.06985,-0.06985 0.17145,-0.06985 0.22225,0 0.4064,-0.10795 0.1905,-0.1143 0.3048,-0.29845 0.1143,-0.18415 0.1143,-0.4064 0,-0.33655 -0.2286,-0.5588 -0.2286,-0.2286 -0.6096,-0.2286 -0.2667,0 -0.47625,0.10795 -0.20955,0.1016 -0.3302,0.2794 -0.1143,0.17145 -0.1143,0.3937 0,0.10795 -0.06985,0.18415 -0.0635,0.06985 -0.1651,0.06985 -0.10795,0 -0.17145,-0.06985 -0.0635,-0.0762 -0.0635,-0.1778 0,-0.34925 0.1778,-0.62865 0.18415,-0.28575 0.4953,-0.4445 0.31115,-0.1651 0.71755,-0.1651 0.3683,0 0.6604,0.1651 0.29845,0.15875 0.4699,0.4445 0.1778,0.2794 0.1778,0.62865 0,0.2159 -0.10795,0.4191 -0.1016,0.2032 -0.27305,0.3683 -0.17145,0.15875 -0.37465,0.24765 0.32385,0.09525 0.53975,0.2921 0.2159,0.19685 0.3175,0.46355 0.1016,0.26035 0.1016,0.5461 0,0.4191 -0.2032,0.7493 -0.19685,0.32385 -0.5461,0.51435 -0.34925,0.18415 -0.7747,0.18415 z" />
    </g>
    <g
       style="font-style:normal;font-weight:normal;font-size:6.35px;line-height:1.25;font-family:sans-serif;fill:#000000;fill-opacity:1;stroke:none;stroke-width:0.264999;stroke-miterlimit:3.4;stroke-dasharray:none"
       id="text1152"
       aria-label="4">
      <path
         id="path1263"
         style="font-style:normal;font-variant:normal;font-weight:normal;font-stretch:normal;font-size:6.35px;font-family:Comfortaa;-inkscape-font-specification:Comfortaa;fill:#4e5153;fill-opacity:1;stroke-width:0.264999;stroke-miterlimit:3.4;stroke-dasharray:none"
         d="m 113.87357,55.126816 q -0.0953,0 -0.1651,-0.06985 -0.0699,-0.06985 -0.0699,-0.1778 v -0.9398 h -2.2733 q -0.1016,0 -0.17145,-0.0635 -0.0635,-0.06985 -0.0762,-0.15875 -0.006,-0.0889 0.0508,-0.1651 l 2.5146,-3.2893 q 0.0318,-0.04445 0.0762,-0.06985 0.0508,-0.03175 0.127,-0.03175 0.1016,0 0.1651,0.0762 0.0698,0.06985 0.0698,0.1778 v 3.07975 h 0.50165 q 0.1016,0 0.17145,0.0508 0.0699,0.0508 0.0699,0.1778 0,0.08255 -0.0699,0.1524 -0.0699,0.0635 -0.17145,0.0635 h -0.50165 v 0.9398 q 0,0.10795 -0.0698,0.1778 -0.0699,0.06985 -0.1778,0.06985 z m -2.24155,-1.44145 -0.0889,-0.1905 h 2.0955 v -2.72415 l 0.127,0.13335 z" />
    </g>
    <g
       style="font-style:normal;font-weight:normal;font-size:6.35px;line-height:1.25;font-family:sans-serif;fill:#000000;fill-opacity:1;stroke:none;stroke-width:0.264999;stroke-miterlimit:3.4;stroke-dasharray:none"
       id="text1152-6"
       aria-label="5">
      <path
         id="path1266"
         style="font-style:normal;font-variant:normal;font-weight:normal;font-stretch:normal;font-size:6.35px;font-family:Comfortaa;-inkscape-font-specification:Comfortaa;fill:#4e5153;fill-opacity:1;stroke-width:0.264999;stroke-miterlimit:3.4;stroke-dasharray:none"
         d="m 112.98743,25.444904 q -0.4572,0 -0.81915,-0.20955 -0.36195,-0.2159 -0.57785,-0.57785 -0.20955,-0.3683 -0.20955,-0.8255 0,-0.10795 0.0698,-0.1778 0.0699,-0.06985 0.17145,-0.06985 0.10795,0 0.1778,0.06985 0.0762,0.06985 0.0762,0.1778 0,0.3175 0.14605,0.5715 0.14605,0.254 0.3937,0.40005 0.254,0.14605 0.5715,0.14605 0.3175,0 0.5715,-0.14605 0.254,-0.14605 0.40005,-0.40005 0.14605,-0.254 0.14605,-0.5715 0,-0.3175 -0.14605,-0.5715 -0.14605,-0.254 -0.40005,-0.40005 -0.254,-0.14605 -0.5715,-0.14605 h -1.11125 q -0.10795,0 -0.1778,-0.06985 -0.0699,-0.0762 -0.0699,-0.1778 v -1.7399 q 0,-0.1016 0.0699,-0.17145 0.0699,-0.0762 0.1778,-0.0762 h 2.22885 q 0.1016,0 0.17145,0.0762 0.0762,0.06985 0.0762,0.17145 0,0.1016 -0.0699,0.1778 -0.0699,0.06985 -0.1778,0.06985 h -1.98755 v 1.2446 h 0.86995 q 0.46355,0 0.8255,0.2159 0.36195,0.20955 0.5715,0.57785 0.2159,0.36195 0.2159,0.81915 0,0.4572 -0.2159,0.8255 -0.20955,0.36195 -0.5715,0.57785 -0.36195,0.20955 -0.8255,0.20955 z" />
    </g>
    <g
       style="font-style:normal;font-weight:normal;font-size:6.35px;line-height:1.25;font-family:sans-serif;fill:#000000;fill-opacity:1;stroke:none;stroke-width:0.264999;stroke-miterlimit:3.4;stroke-dasharray:none"
       id="text1174"
       aria-label="6">
      <path
         id="path1269"
         style="font-style:normal;font-variant:normal;font-weight:normal;font-stretch:normal;font-size:6.35px;font-family:Comfortaa;-inkscape-font-specification:Comfortaa;fill:#4e5153;fill-opacity:1;stroke-width:0.264999;stroke-miterlimit:3.4;stroke-dasharray:none"
         d="m 95.919519,25.444904 q -0.4318,0 -0.76835,-0.1905 -0.33655,-0.19685 -0.5334,-0.5334 -0.1905,-0.33655 -0.1905,-0.76835 0,-0.42545 0.1905,-0.762 0.19685,-0.3429 0.5334,-0.5334 0.33655,-0.19685 0.76835,-0.19685 0.42545,0 0.762,0.19685 0.33655,0.1905 0.52705,0.5334 0.19685,0.33655 0.19685,0.762 0,0.4318 -0.19685,0.76835 -0.1905,0.33655 -0.52705,0.5334 -0.33655,0.1905 -0.762,0.1905 z m -0.0063,-0.4572 q 0.2921,0 0.5207,-0.13335 0.23495,-0.13335 0.3683,-0.3683 0.13335,-0.23495 0.13335,-0.5334 0,-0.29845 -0.13335,-0.5334 -0.13335,-0.23495 -0.3683,-0.3683 -0.2286,-0.1397 -0.5207,-0.1397 -0.2921,0 -0.5207,0.1397 -0.2286,0.13335 -0.36195,0.3683 -0.13335,0.23495 -0.13335,0.5334 0,0.29845 0.13335,0.5334 0.13335,0.23495 0.36195,0.3683 0.2286,0.13335 0.5207,0.13335 z m -1.30175,-1.7907 1.56845,-2.5781 q 0.08255,-0.13335 0.22225,-0.13335 0.09525,0 0.1651,0.05715 0.06985,0.05715 0.08255,0.14605 0.01905,0.0889 -0.03175,0.17145 l -1.04775,1.70815 z" />
    </g>
    <g
       style="font-style:normal;font-weight:normal;font-size:6.35px;line-height:1.25;font-family:sans-serif;fill:#000000;fill-opacity:1;stroke:none;stroke-width:0.264999;stroke-miterlimit:3.4;stroke-dasharray:none"
       id="text1178"
       aria-label="7">
      <path
         id="path1272"
         style="font-style:normal;font-variant:normal;font-weight:normal;font-stretch:normal;font-size:6.35px;font-family:Comfortaa;-inkscape-font-specification:Comfortaa;fill:#4e5153;fill-opacity:1;stroke-width:0.264999;stroke-miterlimit:3.4;stroke-dasharray:none"
         d="m 78.045159,25.444904 q -0.1016,0 -0.1778,-0.06985 -0.06985,-0.06985 -0.06985,-0.1778 0,-0.03175 0.0127,-0.06985 0.0127,-0.0381 0.0381,-0.0889 l 1.8923,-4.064 h -2.1844 q -0.10795,0 -0.18415,-0.06985 -0.06985,-0.0762 -0.06985,-0.1778 0,-0.1016 0.06985,-0.17145 0.0762,-0.0762 0.18415,-0.0762 h 2.58445 q 0.1016,0 0.17145,0.0762 0.06985,0.06985 0.06985,0.17145 0,0.03175 -0.0127,0.06985 -0.0127,0.03175 -0.0254,0.0635 l -2.07645,4.445 q -0.06985,0.1397 -0.22225,0.1397 z" />
    </g>
    <g
       style="font-style:normal;font-weight:normal;font-size:6.35px;line-height:1.25;font-family:sans-serif;fill:#000000;fill-opacity:1;stroke:none;stroke-width:0.264999;stroke-miterlimit:3.4;stroke-dasharray:none"
       id="text1182"
       aria-label="8">
      <path
         id="path1231"
         style="font-style:normal;font-variant:normal;font-weight:normal;font-stretch:normal;font-size:6.35px;font-family:Comfortaa;-inkscape-font-specification:Comfortaa;fill:#4e5153;fill-opacity:1;stroke-width:0.264999;stroke-miterlimit:3.4;stroke-dasharray:none"
         d="m 61.770998,25.470304 q -0.42545,0 -0.762,-0.19685 -0.33655,-0.2032 -0.5334,-0.5461 -0.1905,-0.3429 -0.1905,-0.7747 0,-0.4191 0.1905,-0.7493 0.19685,-0.3302 0.5334,-0.5207 0.33655,-0.1905 0.762,-0.1905 0.42545,0 0.762,0.1905 0.33655,0.1905 0.52705,0.5207 0.1905,0.3302 0.1905,0.7493 -0.0064,0.4318 -0.2032,0.7747 -0.1905,0.3429 -0.52705,0.5461 -0.3302,0.19685 -0.7493,0.19685 z m 0,-0.4445 q 0.2794,0 0.50165,-0.1397 0.22225,-0.14605 0.34925,-0.38735 0.13335,-0.2413 0.13335,-0.5461 0,-0.2921 -0.127,-0.5207 -0.127,-0.23495 -0.34925,-0.3683 -0.22225,-0.13335 -0.508,-0.13335 -0.28575,0 -0.508,0.13335 -0.22225,0.13335 -0.3556,0.3683 -0.127,0.2286 -0.127,0.5207 0,0.3048 0.127,0.5461 0.127,0.2413 0.34925,0.38735 0.2286,0.1397 0.51435,0.1397 z m 0,-2.13995 q -0.34925,0 -0.62865,-0.15875 -0.2794,-0.15875 -0.43815,-0.4318 -0.15875,-0.27305 -0.15875,-0.6223 0,-0.33655 0.15875,-0.6096 0.15875,-0.27305 0.43815,-0.4318 0.2794,-0.15875 0.62865,-0.15875 0.34925,-0.0064 0.62865,0.1524 0.2794,0.1524 0.43815,0.4318 0.15875,0.27305 0.1524,0.61595 0,0.34925 -0.1651,0.6223 -0.15875,0.27305 -0.43815,0.4318 -0.27305,0.15875 -0.61595,0.15875 z m 0,-0.42545 q 0.20955,0 0.37465,-0.1016 0.17145,-0.10795 0.27305,-0.28575 0.1016,-0.18415 0.1016,-0.4064 0.0064,-0.2159 -0.09525,-0.381 -0.09525,-0.17145 -0.2667,-0.2667 -0.17145,-0.09525 -0.38735,-0.09525 -0.32385,0 -0.53975,0.2159 -0.20955,0.20955 -0.2159,0.52705 -0.0064,0.33655 0.20955,0.56515 0.2159,0.2286 0.5461,0.2286 z" />
    </g>
    <g
       style="font-style:normal;font-weight:normal;font-size:3.52778px;line-height:1.25;font-family:sans-serif;fill:#000000;fill-opacity:1;stroke:none;stroke-width:0.264999;stroke-miterlimit:3.4;stroke-dasharray:none"
       id="text1186"
       aria-label="O">
      <path
         id="path1237"
         style="font-style:normal;font-variant:normal;font-weight:bold;font-stretch:normal;font-size:3.52778px;font-family:Comfortaa;-inkscape-font-specification:'Comfortaa Bold';fill:#4e5153;fill-opacity:1;stroke-width:0.264999;stroke-miterlimit:3.4;stroke-dasharray:none"
         d="m 55.36548,55.028457 q -0.310444,0 -0.567972,-0.102305 -0.257528,-0.105834 -0.4445,-0.292806 -0.183445,-0.1905 -0.285751,-0.448028 -0.102305,-0.261056 -0.102305,-0.571501 0,-0.310444 0.102305,-0.567972 0.102306,-0.257528 0.285751,-0.444501 0.186972,-0.1905 0.4445,-0.292805 0.257528,-0.105834 0.567972,-0.105834 0.310445,0 0.564445,0.105834 0.257528,0.102305 0.444501,0.292805 0.186972,0.186973 0.289278,0.444501 0.102305,0.257528 0.102305,0.567972 0,0.310445 -0.102305,0.571501 -0.102306,0.257528 -0.289278,0.448028 -0.186973,0.186972 -0.444501,0.292806 -0.254,0.102305 -0.564445,0.102305 z m 0,-0.331611 q 0.229306,0 0.419806,-0.08114 0.194028,-0.08467 0.335139,-0.229306 0.141112,-0.148167 0.215195,-0.345722 0.07761,-0.197556 0.07761,-0.426862 0,-0.229305 -0.07761,-0.426861 -0.07408,-0.197556 -0.215195,-0.342195 -0.141111,-0.148166 -0.335139,-0.229305 -0.1905,-0.08114 -0.419806,-0.08114 -0.229305,0 -0.423333,0.08114 -0.1905,0.08114 -0.331611,0.229305 -0.137584,0.144639 -0.215195,0.342195 -0.07761,0.197556 -0.07761,0.426861 0,0.229306 0.07761,0.426862 0.07761,0.197555 0.215195,0.345722 0.141111,0.144639 0.331611,0.229306 0.194028,0.08114 0.423333,0.08114 z" />
    </g>
    <g
       style="font-style:normal;font-variant:normal;font-weight:300;font-stretch:normal;font-size:12.7px;line-height:1.25;font-family:Comfortaa;-inkscape-font-specification:'Comfortaa Light';fill:#000000;fill-opacity:1;stroke:none;stroke-width:0.264999;stroke-miterlimit:3.4;stroke-dasharray:none"
       id="text1054-6"
       aria-label="555 Timer">
      <path
         id="path1240"
         style="font-style:normal;font-variant:normal;font-weight:300;font-stretch:normal;font-size:12.7px;font-family:Comfortaa;-inkscape-font-specification:'Comfortaa Light';fill:#4e5153;fill-opacity:1;stroke-width:0.264999;stroke-miterlimit:3.4;stroke-dasharray:none"
         d="m 58.844108,84.896484 q -0.9144,0 -1.6383,-0.4191 -0.7239,-0.4318 -1.1557,-1.1557 -0.4191,-0.7239 -0.4191,-1.6383 0,-0.1778 0.1016,-0.2794 0.1143,-0.1143 0.2794,-0.1143 0.1651,0 0.2794,0.1143 0.1143,0.1016 0.1143,0.2794 0,0.6858 0.3175,1.2446 0.3302,0.5461 0.8763,0.8763 0.5588,0.3175 1.2446,0.3175 0.6985,0 1.2446,-0.3175 0.5461,-0.3302 0.8636,-0.8763 0.3302,-0.5588 0.3302,-1.2446 0,-0.6985 -0.3302,-1.2446 -0.3175,-0.5588 -0.8636,-0.8763 -0.5461,-0.3302 -1.2446,-0.3302 h -2.3114 q -0.1651,0 -0.2794,-0.1016 -0.1016,-0.1143 -0.1016,-0.2794 v -3.505199 q 0,-0.1651 0.1016,-0.2667 0.1143,-0.1143 0.2794,-0.1143 h 4.6228 q 0.1651,0 0.2794,0.1143 0.1143,0.1016 0.1143,0.2667 0,0.1651 -0.1143,0.2794 -0.1143,0.1143 -0.2794,0.1143 h -4.2418 v 2.730499 h 1.9304 q 0.9144,0 1.6383,0.4191 0.7239,0.4191 1.143,1.1557 0.4318,0.7239 0.4318,1.6383 0,0.9144 -0.4318,1.6383 -0.4191,0.7239 -1.143,1.1557 -0.7239,0.4191 -1.6383,0.4191 z" />
      <path
         id="path1242"
         style="font-style:normal;font-variant:normal;font-weight:300;font-stretch:normal;font-size:12.7px;font-family:Comfortaa;-inkscape-font-specification:'Comfortaa Light';fill:#4e5153;fill-opacity:1;stroke-width:0.264999;stroke-miterlimit:3.4;stroke-dasharray:none"
         d="m 66.806412,84.896484 q -0.9144,0 -1.6383,-0.4191 -0.7239,-0.4318 -1.1557,-1.1557 -0.4191,-0.7239 -0.4191,-1.6383 0,-0.1778 0.1016,-0.2794 0.1143,-0.1143 0.2794,-0.1143 0.1651,0 0.2794,0.1143 0.1143,0.1016 0.1143,0.2794 0,0.6858 0.3175,1.2446 0.3302,0.5461 0.8763,0.8763 0.5588,0.3175 1.2446,0.3175 0.6985,0 1.2446,-0.3175 0.5461,-0.3302 0.8636,-0.8763 0.3302,-0.5588 0.3302,-1.2446 0,-0.6985 -0.3302,-1.2446 -0.3175,-0.5588 -0.8636,-0.8763 -0.5461,-0.3302 -1.2446,-0.3302 h -2.3114 q -0.1651,0 -0.2794,-0.1016 -0.1016,-0.1143 -0.1016,-0.2794 v -3.505199 q 0,-0.1651 0.1016,-0.2667 0.1143,-0.1143 0.2794,-0.1143 h 4.6228 q 0.1651,0 0.2794,0.1143 0.1143,0.1016 0.1143,0.2667 0,0.1651 -0.1143,0.2794 -0.1143,0.1143 -0.2794,0.1143 h -4.2418 v 2.730499 h 1.9304 q 0.9144,0 1.6383,0.4191 0.7239,0.4191 1.143,1.1557 0.4318,0.7239 0.4318,1.6383 0,0.9144 -0.4318,1.6383 -0.4191,0.7239 -1.143,1.1557 -0.7239,0.4191 -1.6383,0.4191 z" />
      <path
         id="path1244"
         style="font-style:normal;font-variant:normal;font-weight:300;font-stretch:normal;font-size:12.7px;font-family:Comfortaa;-inkscape-font-specification:'Comfortaa Light';fill:#4e5153;fill-opacity:1;stroke-width:0.264999;stroke-miterlimit:3.4;stroke-dasharray:none"
         d="m 74.768717,84.896484 q -0.9144,0 -1.6383,-0.4191 -0.7239,-0.4318 -1.1557,-1.1557 -0.4191,-0.7239 -0.4191,-1.6383 0,-0.1778 0.1016,-0.2794 0.1143,-0.1143 0.2794,-0.1143 0.1651,0 0.2794,0.1143 0.1143,0.1016 0.1143,0.2794 0,0.6858 0.3175,1.2446 0.3302,0.5461 0.8763,0.8763 0.5588,0.3175 1.2446,0.3175 0.6985,0 1.2446,-0.3175 0.5461,-0.3302 0.8636,-0.8763 0.3302,-0.5588 0.3302,-1.2446 0,-0.6985 -0.3302,-1.2446 -0.3175,-0.5588 -0.8636,-0.8763 -0.5461,-0.3302 -1.2446,-0.3302 h -2.3114 q -0.1651,0 -0.2794,-0.1016 -0.1016,-0.1143 -0.1016,-0.2794 v -3.505199 q 0,-0.1651 0.1016,-0.2667 0.1143,-0.1143 0.2794,-0.1143 h 4.6228 q 0.1651,0 0.2794,0.1143 0.1143,0.1016 0.1143,0.2667 0,0.1651 -0.1143,0.2794 -0.1143,0.1143 -0.2794,0.1143 h -4.2418 v 2.730499 h 1.9304 q 0.9144,0 1.6383,0.4191 0.7239,0.4191 1.143,1.1557 0.4318,0.7239 0.4318,1.6383 0,0.9144 -0.4318,1.6383 -0.4191,0.7239 -1.143,1.1557 -0.7239,0.4191 -1.6383,0.4191 z" />
      <path
         id="path1246"
         style="font-style:normal;font-variant:normal;font-weight:300;font-stretch:normal;font-size:12.7px;font-family:Comfortaa;-inkscape-font-specification:'Comfortaa Light';fill:#4e5153;fill-opacity:1;stroke-width:0.264999;stroke-miterlimit:3.4;stroke-dasharray:none"
         d="m 86.540624,84.896484 q -0.1651,0 -0.2794,-0.1016 -0.1016,-0.1143 -0.1016,-0.2794 v -9.537699 h 0.762 v 9.537699 q 0,0.1651 -0.1143,0.2794 -0.1016,0.1016 -0.2667,0.1016 z m -3.5941,-9.232899 q -0.1524,0 -0.254,-0.0889 -0.0889,-0.1016 -0.0889,-0.254 0,-0.1524 0.0889,-0.2413 0.1016,-0.1016 0.254,-0.1016 h 7.1882 q 0.1524,0 0.2413,0.1016 0.1016,0.0889 0.1016,0.2413 0,0.1524 -0.1016,0.254 -0.0889,0.0889 -0.2413,0.0889 z" />
      <path
         id="path1248"
         style="font-style:normal;font-variant:normal;font-weight:300;font-stretch:normal;font-size:12.7px;font-family:Comfortaa;-inkscape-font-specification:'Comfortaa Light';fill:#4e5153;fill-opacity:1;stroke-width:0.264999;stroke-miterlimit:3.4;stroke-dasharray:none"
         d="m 92.327061,84.896484 q -0.1651,0 -0.2794,-0.1016 -0.1016,-0.1143 -0.1016,-0.2794 v -6.1849 q 0,-0.1778 0.1016,-0.2794 0.1143,-0.1016 0.2794,-0.1016 0.1778,0 0.2794,0.1016 0.1016,0.1016 0.1016,0.2794 v 6.1849 q 0,0.1651 -0.1016,0.2794 -0.1016,0.1016 -0.2794,0.1016 z m -0.0127,-8.407399 q -0.2413,0 -0.4191,-0.1651 -0.1651,-0.1778 -0.1651,-0.4318 0,-0.2921 0.1778,-0.4318 0.1905,-0.1524 0.4191,-0.1524 0.2159,0 0.3937,0.1524 0.1905,0.1397 0.1905,0.4318 0,0.254 -0.1778,0.4318 -0.1651,0.1651 -0.4191,0.1651 z" />
      <path
         id="path1250"
         style="font-style:normal;font-variant:normal;font-weight:300;font-stretch:normal;font-size:12.7px;font-family:Comfortaa;-inkscape-font-specification:'Comfortaa Light';fill:#4e5153;fill-opacity:1;stroke-width:0.264999;stroke-miterlimit:3.4;stroke-dasharray:none"
         d="m 104.80223,84.896484 q -0.1651,0 -0.2794,-0.1016 -0.1016,-0.1143 -0.1016,-0.2794 v -3.6703 q 0,-0.9779 -0.5207,-1.6002 -0.508,-0.6223 -1.3335,-0.6223 -0.8763,0 -1.4351,0.5842 -0.5461,0.5715 -0.5207,1.5494 h -0.761996 q 0.0254,-0.8763 0.380996,-1.524 0.3556,-0.6477 0.9652,-1.0033 0.6096,-0.3683 1.3716,-0.3683 0.7747,0 1.3589,0.381 0.5842,0.381 0.9144,1.0541 0.3429,0.6731 0.3429,1.5494 v 3.6703 q 0,0.1651 -0.1016,0.2794 -0.1016,0.1016 -0.2794,0.1016 z m -9.182096,0 q -0.1651,0 -0.2794,-0.1016 -0.1016,-0.1143 -0.1016,-0.2794 v -6.1849 q 0,-0.1778 0.1016,-0.2794 0.1143,-0.1016 0.2794,-0.1016 0.1778,0 0.2794,0.1016 0.1016,0.1016 0.1016,0.2794 v 6.1849 q 0,0.1651 -0.1016,0.2794 -0.1016,0.1016 -0.2794,0.1016 z m 4.610096,0 q -0.1651,0 -0.279396,-0.1016 -0.1016,-0.1143 -0.1016,-0.2794 v -3.6703 q 0,-0.9779 -0.5207,-1.6002 -0.508,-0.6223 -1.3335,-0.6223 -0.8763,0 -1.4351,0.5588 -0.5588,0.5588 -0.5588,1.4478 h -0.635 q 0.0381,-0.8128 0.381,-1.4351 0.3556,-0.6223 0.9398,-0.9779 0.5842,-0.3556 1.3081,-0.3556 0.7747,0 1.3589,0.381 0.5842,0.381 0.914396,1.0541 0.3429,0.6731 0.3429,1.5494 v 3.6703 q 0,0.1651 -0.1016,0.2794 -0.1016,0.1016 -0.2794,0.1016 z" />
      <path
         id="path1252"
         style="font-style:normal;font-variant:normal;font-weight:300;font-stretch:normal;font-size:12.7px;font-family:Comfortaa;-inkscape-font-specification:'Comfortaa Light';fill:#4e5153;fill-opacity:1;stroke-width:0.264999;stroke-miterlimit:3.4;stroke-dasharray:none"
         d="m 110.41722,84.959984 q -1.0033,0 -1.7907,-0.4445 -0.7747,-0.4572 -1.2192,-1.2573 -0.4445,-0.8001 -0.4445,-1.8288 0,-1.0414 0.4191,-1.8288 0.4191,-0.8001 1.1557,-1.2573 0.7366,-0.4572 1.6891,-0.4572 0.9398,0 1.6637,0.4445 0.7239,0.4318 1.1303,1.2065 0.4064,0.762 0.4064,1.7653 0,0.1651 -0.1016,0.2667 -0.1016,0.0889 -0.2667,0.0889 h -5.588 v -0.6604 h 5.7912 l -0.5588,0.4191 q 0.0254,-0.8255 -0.2794,-1.4605 -0.3048,-0.635 -0.8763,-0.9906 -0.5588,-0.3683 -1.3208,-0.3683 -0.7239,0 -1.2954,0.3683 -0.5588,0.3556 -0.889,0.9906 -0.3175,0.635 -0.3175,1.4732 0,0.8255 0.3429,1.4605 0.3429,0.635 0.9525,1.0033 0.6096,0.3556 1.397,0.3556 0.4953,0 0.9906,-0.1651 0.508,-0.1778 0.8001,-0.4572 0.1016,-0.1016 0.2413,-0.1016 0.1524,-0.0127 0.254,0.0762 0.1397,0.1143 0.1397,0.254 0.0127,0.1397 -0.1143,0.254 -0.4064,0.3683 -1.0668,0.6096 -0.6477,0.2413 -1.2446,0.2413 z" />
      <path
         id="path1254"
         style="font-style:normal;font-variant:normal;font-weight:300;font-stretch:normal;font-size:12.7px;font-family:Comfortaa;-inkscape-font-specification:'Comfortaa Light';fill:#4e5153;fill-opacity:1;stroke-width:0.264999;stroke-miterlimit:3.4;stroke-dasharray:none"
         d="m 115.33688,80.654684 q 0.0762,-0.8128 0.4445,-1.4351 0.3683,-0.635 0.9525,-0.9906 0.5842,-0.3556 1.2954,-0.3556 0.4826,0 0.7493,0.1143 0.2667,0.1143 0.2032,0.4064 -0.0381,0.1905 -0.1778,0.2286 -0.1397,0.0381 -0.3429,0.0127 -0.1905,-0.0381 -0.4318,-0.0381 -0.635,0 -1.1303,0.2667 -0.4953,0.2667 -0.7747,0.7366 -0.2794,0.4572 -0.2794,1.0541 z m 0.127,4.2418 q -0.1651,0 -0.2794,-0.1016 -0.1016,-0.1143 -0.1016,-0.2794 v -6.1849 q 0,-0.1778 0.1016,-0.2794 0.1143,-0.1016 0.2794,-0.1016 0.1778,0 0.2794,0.1016 0.1016,0.1016 0.1016,0.2794 v 6.1849 q 0,0.1651 -0.1016,0.2794 -0.1016,0.1016 -0.2794,0.1016 z" />
    </g>
  </g>
</svg>
