<?xml version="1.0" encoding="UTF-8" standalone="no"?>
<svg
   xmlns:dc="http://purl.org/dc/elements/1.1/"
   xmlns:cc="http://creativecommons.org/ns#"
   xmlns:rdf="http://www.w3.org/1999/02/22-rdf-syntax-ns#"
   xmlns:svg="http://www.w3.org/2000/svg"
   xmlns="http://www.w3.org/2000/svg"
   xmlns:sodipodi="http://sodipodi.sourceforge.net/DTD/sodipodi-0.dtd"
   xmlns:inkscape="http://www.inkscape.org/namespaces/inkscape"
   inkscape:export-ydpi="96"
   inkscape:export-xdpi="96"
   inkscape:export-filename="C:\Users\Corey\Documents\KoBee\Website Assets\Calculator Assets\Battery-Time.png"
   width="660"
   height="360"
   viewBox="0 0 174.625 95.250003"
   version="1.1"
   id="svg8"
   inkscape:version="1.0 (4035a4fb49, 2020-05-01)"
   sodipodi:docname="Battery-Time.svg">
  <defs
     id="defs2">
    <inkscape:path-effect
       effect="bspline"
       id="path-effect2056"
       is_visible="true"
       lpeversion="1"
       weight="33.333333"
       steps="2"
       helper_size="0"
       apply_no_weight="true"
       apply_with_weight="true"
       only_selected="false" />
    <inkscape:path-effect
       effect="bspline"
       id="path-effect2052"
       is_visible="true"
       lpeversion="1"
       weight="33.333333"
       steps="2"
       helper_size="0"
       apply_no_weight="true"
       apply_with_weight="true"
       only_selected="false" />
    <inkscape:path-effect
       only_selected="false"
       apply_with_weight="true"
       apply_no_weight="true"
       helper_size="0"
       steps="2"
       weight="33.333333"
       lpeversion="1"
       is_visible="true"
       id="path-effect2048"
       effect="bspline" />
    <inkscape:path-effect
       effect="bspline"
       id="path-effect2044"
       is_visible="true"
       lpeversion="1"
       weight="33.333333"
       steps="2"
       helper_size="0"
       apply_no_weight="true"
       apply_with_weight="true"
       only_selected="false" />
    <inkscape:path-effect
       only_selected="false"
       apply_with_weight="true"
       apply_no_weight="true"
       helper_size="0"
       steps="2"
       weight="33.333333"
       lpeversion="1"
       is_visible="true"
       id="path-effect2040"
       effect="bspline" />
    <marker
       inkscape:isstock="true"
       style="overflow:visible;"
       id="Arrow1Mend"
       refX="0.0"
       refY="0.0"
       orient="auto"
       inkscape:stockid="Arrow1Mend">
      <path
         transform="scale(0.4) rotate(180) translate(10,0)"
         style="fill-rule:evenodd;stroke:#4e5153;stroke-width:1pt;stroke-opacity:1;fill:#4e5153;fill-opacity:1"
         d="M 0.0,0.0 L 5.0,-5.0 L -12.5,0.0 L 5.0,5.0 L 0.0,0.0 z "
         id="path1013" />
    </marker>
    <marker
       inkscape:isstock="true"
       style="overflow:visible"
       id="Arrow2Lstart"
       refX="0.0"
       refY="0.0"
       orient="auto"
       inkscape:stockid="Arrow2Lstart">
      <path
         transform="scale(1.1) translate(1,0)"
         d="M 8.7185878,4.0337352 L -2.2072895,0.016013256 L 8.7185884,-4.0017078 C 6.9730900,-1.6296469 6.9831476,1.6157441 8.7185878,4.0337352 z "
         style="fill-rule:evenodd;stroke-width:0.625;stroke-linejoin:round;stroke:#000000;stroke-opacity:1;fill:#000000;fill-opacity:1"
         id="path1022" />
    </marker>
    <marker
       inkscape:isstock="true"
       style="overflow:visible;"
       id="Arrow1Send"
       refX="0.0"
       refY="0.0"
       orient="auto"
       inkscape:stockid="Arrow1Send">
      <path
         transform="scale(0.2) rotate(180) translate(6,0)"
         style="fill-rule:evenodd;stroke:#000000;stroke-width:1pt;stroke-opacity:1;fill:#000000;fill-opacity:1"
         d="M 0.0,0.0 L 5.0,-5.0 L -12.5,0.0 L 5.0,5.0 L 0.0,0.0 z "
         id="path1019" />
    </marker>
    <marker
       inkscape:stockid="Arrow1Mend"
       orient="auto"
       refY="0.0"
       refX="0.0"
       id="marker3841"
       style="overflow:visible;"
       inkscape:isstock="true">
      <path
         id="path3839"
         d="M 0.0,0.0 L 5.0,-5.0 L -12.5,0.0 L 5.0,5.0 L 0.0,0.0 z "
         style="fill-rule:evenodd;stroke:#000000;stroke-width:1pt;stroke-opacity:1;fill:#000000;fill-opacity:1"
         transform="scale(0.4) rotate(180) translate(10,0)" />
    </marker>
    <marker
       inkscape:stockid="Arrow1Mend"
       orient="auto"
       refY="0.0"
       refX="0.0"
       id="marker3831"
       style="overflow:visible;"
       inkscape:isstock="true">
      <path
         id="path3829"
         d="M 0.0,0.0 L 5.0,-5.0 L -12.5,0.0 L 5.0,5.0 L 0.0,0.0 z "
         style="fill-rule:evenodd;stroke:#4e5153;stroke-width:1pt;stroke-opacity:1;fill:#4e5153;fill-opacity:1"
         transform="scale(0.4) rotate(180) translate(10,0)" />
    </marker>
    <marker
       inkscape:isstock="true"
       style="overflow:visible"
       id="TriangleOutL"
       refX="0.0"
       refY="0.0"
       orient="auto"
       inkscape:stockid="TriangleOutL">
      <path
         transform="scale(0.8)"
         style="fill-rule:evenodd;stroke:#000000;stroke-width:1pt;stroke-opacity:1;fill:#000000;fill-opacity:1"
         d="M 5.77,0.0 L -2.88,5.0 L -2.88,-5.0 L 5.77,0.0 z "
         id="path2502" />
    </marker>
    <marker
       inkscape:isstock="true"
       style="overflow:visible;"
       id="marker2926"
       refX="0.0"
       refY="0.0"
       orient="auto"
       inkscape:stockid="Arrow2Lend">
      <path
         transform="scale(1.1) rotate(180) translate(1,0)"
         d="M 8.7185878,4.0337352 L -2.2072895,0.016013256 L 8.7185884,-4.0017078 C 6.9730900,-1.6296469 6.9831476,1.6157441 8.7185878,4.0337352 z "
         style="fill-rule:evenodd;stroke-width:0.625;stroke-linejoin:round;stroke:#000000;stroke-opacity:1;fill:#000000;fill-opacity:1"
         id="path2924" />
    </marker>
    <marker
       inkscape:isstock="true"
       style="overflow:visible;"
       id="marker2868"
       refX="0.0"
       refY="0.0"
       orient="auto"
       inkscape:stockid="Arrow2Lend">
      <path
         transform="scale(1.1) rotate(180) translate(1,0)"
         d="M 8.7185878,4.0337352 L -2.2072895,0.016013256 L 8.7185884,-4.0017078 C 6.9730900,-1.6296469 6.9831476,1.6157441 8.7185878,4.0337352 z "
         style="fill-rule:evenodd;stroke-width:0.625;stroke-linejoin:round;stroke:#000000;stroke-opacity:1;fill:#000000;fill-opacity:1"
         id="path2866" />
    </marker>
    <marker
       inkscape:isstock="true"
       style="overflow:visible;"
       id="Arrow2Lend"
       refX="0.0"
       refY="0.0"
       orient="auto"
       inkscape:stockid="Arrow2Lend">
      <path
         transform="scale(1.1) rotate(180) translate(1,0)"
         d="M 8.7185878,4.0337352 L -2.2072895,0.016013256 L 8.7185884,-4.0017078 C 6.9730900,-1.6296469 6.9831476,1.6157441 8.7185878,4.0337352 z "
         style="fill-rule:evenodd;stroke-width:0.625;stroke-linejoin:round;stroke:#000000;stroke-opacity:1;fill:#000000;fill-opacity:1"
         id="path2381" />
    </marker>
    <marker
       inkscape:isstock="true"
       style="overflow:visible;"
       id="Arrow1Lend"
       refX="0.0"
       refY="0.0"
       orient="auto"
       inkscape:stockid="Arrow1Lend">
      <path
         transform="scale(0.8) rotate(180) translate(12.5,0)"
         style="fill-rule:evenodd;stroke:#000000;stroke-width:1pt;stroke-opacity:1;fill:#000000;fill-opacity:1"
         d="M 0.0,0.0 L 5.0,-5.0 L -12.5,0.0 L 5.0,5.0 L 0.0,0.0 z "
         id="path2363" />
    </marker>
    <marker
       inkscape:isstock="true"
       style="overflow:visible"
       id="Arrow1Lstart"
       refX="0.0"
       refY="0.0"
       orient="auto"
       inkscape:stockid="Arrow1Lstart">
      <path
         transform="scale(0.8) translate(12.5,0)"
         style="fill-rule:evenodd;stroke:#000000;stroke-width:1pt;stroke-opacity:1;fill:#000000;fill-opacity:1"
         d="M 0.0,0.0 L 5.0,-5.0 L -12.5,0.0 L 5.0,5.0 L 0.0,0.0 z "
         id="path2360" />
    </marker>
    <marker
       inkscape:isstock="true"
       style="overflow:visible"
       id="TriangleInL"
       refX="0.0"
       refY="0.0"
       orient="auto"
       inkscape:stockid="TriangleInL">
      <path
         transform="scale(-0.8)"
         style="fill-rule:evenodd;stroke:#000000;stroke-width:1pt;stroke-opacity:1;fill:#000000;fill-opacity:1"
         d="M 5.77,0.0 L -2.88,5.0 L -2.88,-5.0 L 5.77,0.0 z "
         id="path2493" />
    </marker>
    <marker
       inkscape:isstock="true"
       style="overflow:visible"
       id="Arrow2Mstart"
       refX="0.0"
       refY="0.0"
       orient="auto"
       inkscape:stockid="Arrow2Mstart">
      <path
         transform="scale(0.6) translate(0,0)"
         d="M 8.7185878,4.0337352 L -2.2072895,0.016013256 L 8.7185884,-4.0017078 C 6.9730900,-1.6296469 6.9831476,1.6157441 8.7185878,4.0337352 z "
         style="fill-rule:evenodd;stroke-width:0.625;stroke-linejoin:round;stroke:#4e5153;stroke-opacity:1;fill:#4e5153;fill-opacity:1"
         id="path2384" />
    </marker>
    <marker
       inkscape:stockid="TriangleInL"
       orient="auto"
       refY="0"
       refX="0"
       id="TriangleInL-7"
       style="overflow:visible"
       inkscape:isstock="true">
      <path
         id="path2493-4"
         d="M 5.77,0 -2.88,5 V -5 Z"
         style="fill:#000000;fill-opacity:1;fill-rule:evenodd;stroke:#000000;stroke-width:1pt;stroke-opacity:1"
         transform="scale(-0.8)" />
    </marker>
    <marker
       inkscape:stockid="Arrow1Lstart"
       orient="auto"
       refY="0"
       refX="0"
       id="Arrow1Lstart-8"
       style="overflow:visible"
       inkscape:isstock="true">
      <path
         id="path2360-1"
         d="M 0,0 5,-5 -12.5,0 5,5 Z"
         style="fill:#000000;fill-opacity:1;fill-rule:evenodd;stroke:#000000;stroke-width:1pt;stroke-opacity:1"
         transform="matrix(0.8,0,0,0.8,10,0)" />
    </marker>
    <marker
       inkscape:stockid="TriangleOutL"
       orient="auto"
       refY="0"
       refX="0"
       id="TriangleOutL-0"
       style="overflow:visible"
       inkscape:isstock="true">
      <path
         id="path2502-7"
         d="M 5.77,0 -2.88,5 V -5 Z"
         style="fill:#000000;fill-opacity:1;fill-rule:evenodd;stroke:#000000;stroke-width:1pt;stroke-opacity:1"
         transform="scale(0.8)" />
    </marker>
    <marker
       inkscape:isstock="true"
       style="overflow:visible"
       id="marker3831-4"
       refX="0"
       refY="0"
       orient="auto"
       inkscape:stockid="Arrow1Mend">
      <path
         transform="matrix(-0.4,0,0,-0.4,-4,0)"
         style="fill:#4e5153;fill-opacity:1;fill-rule:evenodd;stroke:#4e5153;stroke-width:1pt;stroke-opacity:1"
         d="M 0,0 5,-5 -12.5,0 5,5 Z"
         id="path3829-7" />
    </marker>
    <marker
       inkscape:isstock="true"
       style="overflow:visible"
       id="marker3841-2"
       refX="0"
       refY="0"
       orient="auto"
       inkscape:stockid="Arrow1Mend">
      <path
         transform="matrix(-0.4,0,0,-0.4,-4,0)"
         style="fill:#4e5153;fill-opacity:1;fill-rule:evenodd;stroke:#4e5153;stroke-width:1pt;stroke-opacity:1"
         d="M 0,0 5,-5 -12.5,0 5,5 Z"
         id="path3839-2" />
    </marker>
    <marker
       inkscape:isstock="true"
       style="overflow:visible"
       id="marker2926-3"
       refX="0"
       refY="0"
       orient="auto"
       inkscape:stockid="Arrow2Lend">
      <path
         transform="matrix(-1.1,0,0,-1.1,-1.1,0)"
         d="M 8.7185878,4.0337352 -2.2072895,0.01601326 8.7185884,-4.0017078 c -1.7454984,2.3720609 -1.7354408,5.6174519 -6e-7,8.035443 z"
         style="fill:#000000;fill-opacity:1;fill-rule:evenodd;stroke:#000000;stroke-width:0.625;stroke-linejoin:round;stroke-opacity:1"
         id="path2924-1" />
    </marker>
  </defs>
  <sodipodi:namedview
     showguides="true"
     id="base"
     pagecolor="#ffffff"
     bordercolor="#666666"
     borderopacity="1.0"
     inkscape:pageopacity="0.0"
     inkscape:pageshadow="2"
     inkscape:zoom="0.70000001"
     inkscape:cx="-182.3863"
     inkscape:cy="49.620796"
     inkscape:document-units="mm"
     inkscape:current-layer="layer1"
     inkscape:document-rotation="0"
     showgrid="false"
     units="px"
     inkscape:window-width="2560"
     inkscape:window-height="1377"
     inkscape:window-x="-8"
     inkscape:window-y="472"
     inkscape:window-maximized="1" />
  <metadata
     id="metadata5">
    <rdf:RDF>
      <cc:Work
         rdf:about="">
        <dc:format>image/svg+xml</dc:format>
        <dc:type
           rdf:resource="http://purl.org/dc/dcmitype/StillImage" />
        <dc:title />
      </cc:Work>
    </rdf:RDF>
  </metadata>
  <g
     inkscape:label="Layer 1"
     inkscape:groupmode="layer"
     id="layer1">
    <path
       d="M 7.5410664,1.7948973 H 167.30373 c 3.66132,0 6.60889,2.9475635 6.60889,6.6088867 v 79.306641 c 0,3.661323 -2.94757,6.608886 -6.60889,6.608886 H 7.5410664 c -3.6613232,0 -6.60888671,-2.947563 -6.60888671,-6.608886 V 8.403784 c 0,-3.6613232 2.94756351,-6.6088867 6.60888671,-6.6088867 z"
       style="fill:none;fill-opacity:1;stroke:none;stroke-width:0.197656;stroke-linecap:round;stroke-linejoin:round;stroke-miterlimit:4;stroke-dasharray:none;stroke-opacity:1"
       id="rect846-0" />
    <path
       d="m 46.932159,87.712303 q -0.2159,0 -0.3556,-0.0889 -0.1397,-0.1016 -0.1397,-0.2921 v -9.1567 q 0,-0.1778 0.1016,-0.2794 0.1143,-0.1016 0.2794,-0.1016 h 3.1115 q 0.7112,0 1.2954,0.3175 0.5842,0.3048 0.9398,0.8509 0.3556,0.5334 0.3556,1.2319 0,0.7366 -0.3937,1.2954 -0.381,0.5461 -1.0033,0.8255 0.8636,0.2413 1.3843,0.889 0.5334,0.6477 0.5334,1.6256 0,0.8382 -0.381,1.4986 -0.3683,0.6477 -1.0287,1.016 -0.6604,0.3683 -1.5113,0.3683 z m 0.2667,-0.762 h 2.921 q 0.635,0 1.1176,-0.2667 0.4826,-0.2794 0.762,-0.7493 0.2794,-0.4826 0.2794,-1.1049 0,-0.6096 -0.2794,-1.0795 -0.2794,-0.4699 -0.762,-0.7366 -0.4826,-0.2667 -1.1176,-0.2667 h -2.921 z m 0,-4.9657 h 2.7305 q 0.8001,0 1.3081,-0.4826 0.5207,-0.4953 0.5207,-1.3081 0,-0.7874 -0.5207,-1.2065 -0.508,-0.4318 -1.3081,-0.4318 h -2.7305 z"
       style="font-style:normal;font-variant:normal;font-weight:300;font-stretch:normal;font-size:12.7px;line-height:1.25;font-family:Comfortaa;-inkscape-font-specification:'Comfortaa Light';fill:#4e5153;fill-opacity:1;stroke:none;stroke-width:0.264999;stroke-miterlimit:3.4;stroke-dasharray:none"
       id="path2160" />
    <path
       d="m 58.06728,87.788503 q -1.016,0 -1.8288,-0.4572 -0.8001,-0.4699 -1.27,-1.27 -0.4572,-0.8128 -0.4572,-1.8161 0,-1.016 0.4572,-1.8161 0.4699,-0.8128 1.27,-1.27 0.8128,-0.4699 1.8288,-0.4699 1.016,0 1.8161,0.4699 0.8001,0.4572 1.2573,1.27 0.4699,0.8001 0.4699,1.8161 l -0.3175,0.508 q 0,0.8636 -0.4318,1.5494 -0.4191,0.6858 -1.143,1.0922 -0.7239,0.3937 -1.651,0.3937 z m 0,-0.7112 q 0.8001,0 1.4224,-0.3683 0.635,-0.381 0.9906,-1.016 0.3683,-0.6477 0.3683,-1.4478 0,-0.8128 -0.3683,-1.4478 -0.3556,-0.6477 -0.9906,-1.016 -0.6223,-0.381 -1.4224,-0.381 -0.7874,0 -1.4224,0.381 -0.635,0.3683 -1.0033,1.016 -0.3683,0.635 -0.3683,1.4478 0,0.8001 0.3683,1.4478 0.3683,0.635 1.0033,1.016 0.635,0.3683 1.4224,0.3683 z m 3.175,0.635 q -0.1778,0 -0.2921,-0.1016 -0.1016,-0.1143 -0.1016,-0.2794 v -2.3241 l 0.2413,-0.762 h 0.5207 v 3.0861 q 0,0.1651 -0.1016,0.2794 -0.1016,0.1016 -0.2667,0.1016 z"
       style="font-style:normal;font-variant:normal;font-weight:300;font-stretch:normal;font-size:12.7px;line-height:1.25;font-family:Comfortaa;-inkscape-font-specification:'Comfortaa Light';fill:#4e5153;fill-opacity:1;stroke:none;stroke-width:0.264999;stroke-miterlimit:3.4;stroke-dasharray:none"
       id="path2162" />
    <path
       d="m 66.369111,87.712303 q -0.6985,-0.0127 -1.2446,-0.3175 -0.5461,-0.3175 -0.8509,-0.8636 -0.3048,-0.5588 -0.3048,-1.2573 v -6.3246 q 0,-0.1778 0.1016,-0.2794 0.1143,-0.1143 0.2794,-0.1143 0.1778,0 0.2794,0.1143 0.1143,0.1016 0.1143,0.2794 v 6.3246 q 0,0.7366 0.4572,1.2065 0.4572,0.4572 1.1811,0.4572 h 0.2794 q 0.1778,0 0.2794,0.1143 0.1143,0.1016 0.1143,0.2794 0,0.1651 -0.1143,0.2794 -0.1016,0.1016 -0.2794,0.1016 z m -3.3909,-6.0071 q -0.1524,0 -0.254,-0.0889 -0.0889,-0.1016 -0.0889,-0.254 0,-0.1524 0.0889,-0.2413 0.1016,-0.1016 0.254,-0.1016 h 3.4417 q 0.1524,0 0.2413,0.1016 0.1016,0.0889 0.1016,0.2413 0,0.1524 -0.1016,0.254 -0.0889,0.0889 -0.2413,0.0889 z"
       style="font-style:normal;font-variant:normal;font-weight:300;font-stretch:normal;font-size:12.7px;line-height:1.25;font-family:Comfortaa;-inkscape-font-specification:'Comfortaa Light';fill:#4e5153;fill-opacity:1;stroke:none;stroke-width:0.264999;stroke-miterlimit:3.4;stroke-dasharray:none"
       id="path2164" />
    <path
       d="m 71.478877,87.712303 q -0.6985,-0.0127 -1.2446,-0.3175 -0.5461,-0.3175 -0.8509,-0.8636 -0.3048,-0.5588 -0.3048,-1.2573 v -6.3246 q 0,-0.1778 0.1016,-0.2794 0.1143,-0.1143 0.2794,-0.1143 0.1778,0 0.2794,0.1143 0.1143,0.1016 0.1143,0.2794 v 6.3246 q 0,0.7366 0.4572,1.2065 0.4572,0.4572 1.1811,0.4572 h 0.2794 q 0.1778,0 0.2794,0.1143 0.1143,0.1016 0.1143,0.2794 0,0.1651 -0.1143,0.2794 -0.1016,0.1016 -0.2794,0.1016 z m -3.3909,-6.0071 q -0.1524,0 -0.254,-0.0889 -0.0889,-0.1016 -0.0889,-0.254 0,-0.1524 0.0889,-0.2413 0.1016,-0.1016 0.254,-0.1016 h 3.4417 q 0.1524,0 0.2413,0.1016 0.1016,0.0889 0.1016,0.2413 0,0.1524 -0.1016,0.254 -0.0889,0.0889 -0.2413,0.0889 z"
       style="font-style:normal;font-variant:normal;font-weight:300;font-stretch:normal;font-size:12.7px;line-height:1.25;font-family:Comfortaa;-inkscape-font-specification:'Comfortaa Light';fill:#4e5153;fill-opacity:1;stroke:none;stroke-width:0.264999;stroke-miterlimit:3.4;stroke-dasharray:none"
       id="path2166" />
    <path
       d="m 76.817241,87.775803 q -1.0033,0 -1.7907,-0.4445 -0.7747,-0.4572 -1.219199,-1.2573 -0.4445,-0.8001 -0.4445,-1.8288 0,-1.0414 0.4191,-1.8288 0.419099,-0.8001 1.155699,-1.2573 0.7366,-0.4572 1.6891,-0.4572 0.9398,0 1.6637,0.4445 0.7239,0.4318 1.1303,1.2065 0.4064,0.762 0.4064,1.7653 0,0.1651 -0.1016,0.2667 -0.1016,0.0889 -0.2667,0.0889 h -5.587999 v -0.6604 h 5.791199 l -0.5588,0.4191 q 0.0254,-0.8255 -0.2794,-1.4605 -0.3048,-0.635 -0.8763,-0.9906 -0.5588,-0.3683 -1.3208,-0.3683 -0.7239,0 -1.2954,0.3683 -0.5588,0.3556 -0.889,0.9906 -0.3175,0.635 -0.3175,1.4732 0,0.8255 0.3429,1.4605 0.3429,0.635 0.9525,1.0033 0.6096,0.3556 1.397,0.3556 0.4953,0 0.9906,-0.1651 0.508,-0.1778 0.8001,-0.4572 0.1016,-0.1016 0.2413,-0.1016 0.1524,-0.0127 0.254,0.0762 0.1397,0.1143 0.1397,0.254 0.0127,0.1397 -0.1143,0.254 -0.4064,0.3683 -1.0668,0.6096 -0.6477,0.2413 -1.2446,0.2413 z"
       style="font-style:normal;font-variant:normal;font-weight:300;font-stretch:normal;font-size:12.7px;line-height:1.25;font-family:Comfortaa;-inkscape-font-specification:'Comfortaa Light';fill:#4e5153;fill-opacity:1;stroke:none;stroke-width:0.264999;stroke-miterlimit:3.4;stroke-dasharray:none"
       id="path2168" />
    <path
       d="m 81.736905,83.470503 q 0.0762,-0.8128 0.4445,-1.4351 0.3683,-0.635 0.9525,-0.9906 0.5842,-0.3556 1.2954,-0.3556 0.4826,0 0.7493,0.1143 0.2667,0.1143 0.2032,0.4064 -0.0381,0.1905 -0.1778,0.2286 -0.1397,0.0381 -0.3429,0.0127 -0.1905,-0.0381 -0.4318,-0.0381 -0.635,0 -1.1303,0.2667 -0.4953,0.2667 -0.7747,0.7366 -0.2794,0.4572 -0.2794,1.0541 z m 0.127,4.2418 q -0.1651,0 -0.2794,-0.1016 -0.1016,-0.1143 -0.1016,-0.2794 v -6.1849 q 0,-0.1778 0.1016,-0.2794 0.1143,-0.1016 0.2794,-0.1016 0.1778,0 0.2794,0.1016 0.1016,0.1016 0.1016,0.2794 v 6.1849 q 0,0.1651 -0.1016,0.2794 -0.1016,0.1016 -0.2794,0.1016 z"
       style="font-style:normal;font-variant:normal;font-weight:300;font-stretch:normal;font-size:12.7px;line-height:1.25;font-family:Comfortaa;-inkscape-font-specification:'Comfortaa Light';fill:#4e5153;fill-opacity:1;stroke:none;stroke-width:0.264999;stroke-miterlimit:3.4;stroke-dasharray:none"
       id="path2170" />
    <path
       d="m 88.194856,90.722203 q -0.0762,0 -0.1778,-0.0381 -0.3429,-0.1397 -0.1905,-0.4699 l 4.2672,-9.2456 q 0.1524,-0.3175 0.4699,-0.1905 0.3429,0.1397 0.1905,0.4699 l -4.2672,9.2456 q -0.1143,0.2286 -0.2921,0.2286 z m 1.3462,-3.175 q -0.1651,0.0762 -0.2921,0.0381 -0.127,-0.0381 -0.2032,-0.2032 l -2.7813,-6.096 q -0.0762,-0.1651 -0.0381,-0.2921 0.0381,-0.127 0.2032,-0.2032 0.1651,-0.0762 0.2921,-0.0381 0.127,0.0381 0.2032,0.2032 l 2.7813,6.096 q 0.0762,0.1651 0.0381,0.2921 -0.0381,0.127 -0.2032,0.2032 z"
       style="font-style:normal;font-variant:normal;font-weight:300;font-stretch:normal;font-size:12.7px;line-height:1.25;font-family:Comfortaa;-inkscape-font-specification:'Comfortaa Light';fill:#4e5153;fill-opacity:1;stroke:none;stroke-width:0.264999;stroke-miterlimit:3.4;stroke-dasharray:none"
       id="path2172" />
    <path
       d="m 100.78889,87.712303 q -0.1651,0 -0.2794,-0.1016 -0.1016,-0.1143 -0.1016,-0.2794 v -9.5377 h 0.762 v 9.5377 q 0,0.1651 -0.1143,0.2794 -0.1016,0.1016 -0.2667,0.1016 z m -3.594102,-9.2329 q -0.1524,0 -0.254,-0.0889 -0.0889,-0.1016 -0.0889,-0.254 0,-0.1524 0.0889,-0.2413 0.1016,-0.1016 0.254,-0.1016 h 7.188202 q 0.1524,0 0.2413,0.1016 0.1016,0.0889 0.1016,0.2413 0,0.1524 -0.1016,0.254 -0.0889,0.0889 -0.2413,0.0889 z"
       style="font-style:normal;font-variant:normal;font-weight:300;font-stretch:normal;font-size:12.7px;line-height:1.25;font-family:Comfortaa;-inkscape-font-specification:'Comfortaa Light';fill:#4e5153;fill-opacity:1;stroke:none;stroke-width:0.264999;stroke-miterlimit:3.4;stroke-dasharray:none"
       id="path2174" />
    <path
       d="m 106.57533,87.712303 q -0.1651,0 -0.2794,-0.1016 -0.1016,-0.1143 -0.1016,-0.2794 v -6.1849 q 0,-0.1778 0.1016,-0.2794 0.1143,-0.1016 0.2794,-0.1016 0.1778,0 0.2794,0.1016 0.1016,0.1016 0.1016,0.2794 v 6.1849 q 0,0.1651 -0.1016,0.2794 -0.1016,0.1016 -0.2794,0.1016 z m -0.0127,-8.4074 q -0.2413,0 -0.4191,-0.1651 -0.1651,-0.1778 -0.1651,-0.4318 0,-0.2921 0.1778,-0.4318 0.1905,-0.1524 0.4191,-0.1524 0.2159,0 0.3937,0.1524 0.1905,0.1397 0.1905,0.4318 0,0.254 -0.1778,0.4318 -0.1651,0.1651 -0.4191,0.1651 z"
       style="font-style:normal;font-variant:normal;font-weight:300;font-stretch:normal;font-size:12.7px;line-height:1.25;font-family:Comfortaa;-inkscape-font-specification:'Comfortaa Light';fill:#4e5153;fill-opacity:1;stroke:none;stroke-width:0.264999;stroke-miterlimit:3.4;stroke-dasharray:none"
       id="path2176" />
    <path
       d="m 119.0505,87.712303 q -0.1651,0 -0.2794,-0.1016 -0.1016,-0.1143 -0.1016,-0.2794 v -3.6703 q 0,-0.9779 -0.5207,-1.6002 -0.508,-0.6223 -1.3335,-0.6223 -0.8763,0 -1.4351,0.5842 -0.5461,0.5715 -0.5207,1.5494 h -0.762 q 0.0254,-0.8763 0.381,-1.524 0.3556,-0.6477 0.9652,-1.0033 0.6096,-0.3683 1.3716,-0.3683 0.7747,0 1.3589,0.381 0.5842,0.381 0.9144,1.0541 0.3429,0.6731 0.3429,1.5494 v 3.6703 q 0,0.1651 -0.1016,0.2794 -0.1016,0.1016 -0.2794,0.1016 z m -9.1821,0 q -0.1651,0 -0.2794,-0.1016 -0.1016,-0.1143 -0.1016,-0.2794 v -6.1849 q 0,-0.1778 0.1016,-0.2794 0.1143,-0.1016 0.2794,-0.1016 0.1778,0 0.2794,0.1016 0.1016,0.1016 0.1016,0.2794 v 6.1849 q 0,0.1651 -0.1016,0.2794 -0.1016,0.1016 -0.2794,0.1016 z m 4.6101,0 q -0.1651,0 -0.2794,-0.1016 -0.1016,-0.1143 -0.1016,-0.2794 v -3.6703 q 0,-0.9779 -0.5207,-1.6002 -0.508,-0.6223 -1.3335,-0.6223 -0.8763,0 -1.4351,0.5588 -0.5588,0.5588 -0.5588,1.4478 h -0.635 q 0.0381,-0.8128 0.381,-1.4351 0.3556,-0.6223 0.9398,-0.9779 0.5842,-0.3556 1.3081,-0.3556 0.7747,0 1.3589,0.381 0.5842,0.381 0.9144,1.0541 0.3429,0.6731 0.3429,1.5494 v 3.6703 q 0,0.1651 -0.1016,0.2794 -0.1016,0.1016 -0.2794,0.1016 z"
       style="font-style:normal;font-variant:normal;font-weight:300;font-stretch:normal;font-size:12.7px;line-height:1.25;font-family:Comfortaa;-inkscape-font-specification:'Comfortaa Light';fill:#4e5153;fill-opacity:1;stroke:none;stroke-width:0.264999;stroke-miterlimit:3.4;stroke-dasharray:none"
       id="path2178" />
    <path
       d="m 124.66549,87.775803 q -1.0033,0 -1.7907,-0.4445 -0.7747,-0.4572 -1.2192,-1.2573 -0.4445,-0.8001 -0.4445,-1.8288 0,-1.0414 0.4191,-1.8288 0.4191,-0.8001 1.1557,-1.2573 0.7366,-0.4572 1.6891,-0.4572 0.9398,0 1.6637,0.4445 0.7239,0.4318 1.1303,1.2065 0.4064,0.762 0.4064,1.7653 0,0.1651 -0.1016,0.2667 -0.1016,0.0889 -0.2667,0.0889 h -5.588 v -0.6604 h 5.7912 l -0.5588,0.4191 q 0.0254,-0.8255 -0.2794,-1.4605 -0.3048,-0.635 -0.8763,-0.9906 -0.5588,-0.3683 -1.3208,-0.3683 -0.7239,0 -1.2954,0.3683 -0.5588,0.3556 -0.889,0.9906 -0.3175,0.635 -0.3175,1.4732 0,0.8255 0.3429,1.4605 0.3429,0.635 0.9525,1.0033 0.6096,0.3556 1.397,0.3556 0.4953,0 0.9906,-0.1651 0.508,-0.1778 0.8001,-0.4572 0.1016,-0.1016 0.2413,-0.1016 0.1524,-0.0127 0.254,0.0762 0.1397,0.1143 0.1397,0.254 0.0127,0.1397 -0.1143,0.254 -0.4064,0.3683 -1.0668,0.6096 -0.6477,0.2413 -1.2446,0.2413 z"
       style="font-style:normal;font-variant:normal;font-weight:300;font-stretch:normal;font-size:12.7px;line-height:1.25;font-family:Comfortaa;-inkscape-font-specification:'Comfortaa Light';fill:#4e5153;fill-opacity:1;stroke:none;stroke-width:0.264999;stroke-miterlimit:3.4;stroke-dasharray:none"
       id="path2180" />
    <path
       id="path1002"
       d="M 28.759105,10.772321 V 72.949402 H 146.12071"
       style="fill:none;stroke:#4e5153;stroke-width:0.4;stroke-linecap:butt;stroke-linejoin:miter;stroke-miterlimit:4;stroke-dasharray:none;stroke-opacity:1;marker-start:url(#Arrow2Mstart);marker-end:url(#Arrow1Mend)" />
    <path
       sodipodi:nodetypes="cccc"
       id="path2046"
       d="m 39.153449,16.81994 c 1.763959,7.874813 3.527813,15.749158 11.495512,23.17512 7.967699,7.425962 22.138069,14.402954 37.149857,18.330334 15.011792,3.927379 30.863532,4.80483 46.715322,5.682282"
       style="fill:none;stroke:#fed700;stroke-width:1;stroke-linecap:round;stroke-linejoin:round;stroke-miterlimit:4;stroke-dasharray:8, 8;stroke-dashoffset:0;stroke-opacity:1" />
    <path
       style="fill:none;stroke:#fed700;stroke-width:1;stroke-linecap:round;stroke-linejoin:round;stroke-miterlimit:4;stroke-dasharray:none;stroke-opacity:1"
       d="m 39.153449,16.81994 c 1.763959,7.874813 3.527813,15.749158 10.111142,24.159257 6.583328,8.410099 17.985151,17.355176 32.974678,22.306088 14.989528,4.950913 33.565341,5.907299 52.141241,6.863689"
       id="path2050"
       sodipodi:nodetypes="cccc" />
    <path
       style="fill:none;stroke:#fed700;stroke-width:1;stroke-linecap:round;stroke-linejoin:round;stroke-miterlimit:4;stroke-dasharray:1, 2;stroke-dashoffset:0;stroke-opacity:1"
       d="m 39.153449,16.81994 c 1.763959,7.874813 3.527813,15.749158 12.09082,22.029019 8.563006,6.27986 23.923921,10.964849 38.989485,13.776759 15.065566,2.811911 29.834286,3.750501 44.603016,4.689092"
       id="path2054"
       sodipodi:nodetypes="cccc" />
  </g>
</svg>
