<?xml version="1.0" encoding="UTF-8" standalone="no"?>
<svg
   xmlns:dc="http://purl.org/dc/elements/1.1/"
   xmlns:cc="http://creativecommons.org/ns#"
   xmlns:rdf="http://www.w3.org/1999/02/22-rdf-syntax-ns#"
   xmlns:svg="http://www.w3.org/2000/svg"
   xmlns="http://www.w3.org/2000/svg"
   xmlns:sodipodi="http://sodipodi.sourceforge.net/DTD/sodipodi-0.dtd"
   xmlns:inkscape="http://www.inkscape.org/namespaces/inkscape"
   sodipodi:docname="LEDs-In-Series.svg"
   inkscape:version="1.0 (4035a4fb49, 2020-05-01)"
   id="svg8"
   version="1.1"
   viewBox="0 0 171.97917 79.110416"
   height="299"
   width="650"
   inkscape:export-filename="C:\Users\Corey\Documents\KoBee\Support Data\Circuits\Resistors-In-Series.png"
   inkscape:export-xdpi="146.3"
   inkscape:export-ydpi="146.3">
  <defs
     id="defs2">
    <marker
       inkscape:isstock="true"
       style="overflow:visible"
       id="marker2621"
       refX="0"
       refY="0"
       orient="auto"
       inkscape:stockid="Arrow1Mend">
      <path
         transform="matrix(-0.4,0,0,-0.4,-4,0)"
         style="fill:#4e5153;fill-opacity:1;fill-rule:evenodd;stroke:#4e5153;stroke-width:1pt;stroke-opacity:1"
         d="M 0,0 5,-5 -12.5,0 5,5 Z"
         id="path2619" />
    </marker>
    <marker
       inkscape:isstock="true"
       style="overflow:visible"
       id="marker2611"
       refX="0"
       refY="0"
       orient="auto"
       inkscape:stockid="Arrow1Mend">
      <path
         transform="matrix(-0.4,0,0,-0.4,-4,0)"
         style="fill:#4e5153;fill-opacity:1;fill-rule:evenodd;stroke:#4e5153;stroke-width:1pt;stroke-opacity:1"
         d="M 0,0 5,-5 -12.5,0 5,5 Z"
         id="path2609" />
    </marker>
    <marker
       inkscape:isstock="true"
       style="overflow:visible"
       id="marker1495"
       refX="0"
       refY="0"
       orient="auto"
       inkscape:stockid="Arrow1Mend">
      <path
         transform="matrix(-0.4,0,0,-0.4,-4,0)"
         style="fill:#4e5153;fill-opacity:1;fill-rule:evenodd;stroke:#4e5153;stroke-width:1pt;stroke-opacity:1"
         d="M 0,0 5,-5 -12.5,0 5,5 Z"
         id="path1493" />
    </marker>
    <marker
       inkscape:isstock="true"
       style="overflow:visible"
       id="marker1485"
       refX="0"
       refY="0"
       orient="auto"
       inkscape:stockid="Arrow1Mend">
      <path
         transform="matrix(-0.4,0,0,-0.4,-4,0)"
         style="fill:#4e5153;fill-opacity:1;fill-rule:evenodd;stroke:#4e5153;stroke-width:1pt;stroke-opacity:1"
         d="M 0,0 5,-5 -12.5,0 5,5 Z"
         id="path1483" />
    </marker>
    <marker
       inkscape:stockid="Arrow1Mend"
       orient="auto"
       refY="0"
       refX="0"
       id="marker1337"
       style="overflow:visible"
       inkscape:isstock="true"
       inkscape:collect="always">
      <path
         id="path1335"
         d="M 0,0 5,-5 -12.5,0 5,5 Z"
         style="fill:#4e5153;fill-opacity:1;fill-rule:evenodd;stroke:#4e5153;stroke-width:1pt;stroke-opacity:1"
         transform="matrix(-0.4,0,0,-0.4,-4,0)" />
    </marker>
    <marker
       inkscape:stockid="Arrow1Mend"
       orient="auto"
       refY="0"
       refX="0"
       id="marker1327"
       style="overflow:visible"
       inkscape:isstock="true"
       inkscape:collect="always">
      <path
         id="path1325"
         d="M 0,0 5,-5 -12.5,0 5,5 Z"
         style="fill:#4e5153;fill-opacity:1;fill-rule:evenodd;stroke:#4e5153;stroke-width:1pt;stroke-opacity:1"
         transform="matrix(-0.4,0,0,-0.4,-4,0)" />
    </marker>
    <marker
       inkscape:isstock="true"
       style="overflow:visible"
       id="TriangleOutL"
       refX="0.0"
       refY="0.0"
       orient="auto"
       inkscape:stockid="TriangleOutL">
      <path
         transform="scale(0.8)"
         style="fill-rule:evenodd;stroke:#4e4c4c;stroke-width:1pt;stroke-opacity:1;fill:#4e4c4c;fill-opacity:1"
         d="M 5.77,0.0 L -2.88,5.0 L -2.88,-5.0 L 5.77,0.0 z "
         id="path1222" />
    </marker>
    <marker
       inkscape:isstock="true"
       style="overflow:visible"
       id="Arrow1Mstart"
       refX="0.0"
       refY="0.0"
       orient="auto"
       inkscape:stockid="Arrow1Mstart">
      <path
         transform="scale(0.4) translate(10,0)"
         style="fill-rule:evenodd;stroke:#000000;stroke-width:1pt;stroke-opacity:1;fill:#000000;fill-opacity:1"
         d="M 0.0,0.0 L 5.0,-5.0 L -12.5,0.0 L 5.0,5.0 L 0.0,0.0 z "
         id="path1086" />
    </marker>
    <marker
       inkscape:isstock="true"
       style="overflow:visible"
       id="Arrow1Lstart"
       refX="0.0"
       refY="0.0"
       orient="auto"
       inkscape:stockid="Arrow1Lstart">
      <path
         transform="scale(0.8) translate(12.5,0)"
         style="fill-rule:evenodd;stroke:#000000;stroke-width:1pt;stroke-opacity:1;fill:#000000;fill-opacity:1"
         d="M 0.0,0.0 L 5.0,-5.0 L -12.5,0.0 L 5.0,5.0 L 0.0,0.0 z "
         id="path1080" />
    </marker>
    <marker
       inkscape:isstock="true"
       style="overflow:visible"
       id="DiamondSstart"
       refX="0.0"
       refY="0.0"
       orient="auto"
       inkscape:stockid="DiamondSstart">
      <path
         transform="scale(0.2) translate(6,0)"
         style="fill-rule:evenodd;stroke:#000000;stroke-width:1pt;stroke-opacity:1;fill:#000000;fill-opacity:1"
         d="M 0,-7.0710768 L -7.0710894,0 L 0,7.0710589 L 7.0710462,0 L 0,-7.0710768 z "
         id="path1174" />
    </marker>
    <marker
       inkscape:isstock="true"
       style="overflow:visible"
       id="DiamondL"
       refX="0.0"
       refY="0.0"
       orient="auto"
       inkscape:stockid="DiamondL">
      <path
         transform="scale(0.8)"
         style="fill-rule:evenodd;stroke:#000000;stroke-width:1pt;stroke-opacity:1;fill:#000000;fill-opacity:1"
         d="M 0,-7.0710768 L -7.0710894,0 L 0,7.0710589 L 7.0710462,0 L 0,-7.0710768 z "
         id="path1159" />
    </marker>
    <marker
       inkscape:isstock="true"
       style="overflow:visible"
       id="Tail"
       refX="0.0"
       refY="0.0"
       orient="auto"
       inkscape:stockid="Tail">
      <g
         style="stroke:#000000;stroke-opacity:1;fill:#000000;fill-opacity:1"
         transform="scale(-1.2)"
         id="g1128">
        <path
           style="fill:#000000;fill-rule:evenodd;stroke:#000000;stroke-width:0.8;stroke-linecap:round;stroke-opacity:1;fill-opacity:1"
           d="M -3.8048674,-3.9585227 L 0.54352094,0"
           id="path1116" />
        <path
           style="fill:#000000;fill-rule:evenodd;stroke:#000000;stroke-width:0.8;stroke-linecap:round;stroke-opacity:1;fill-opacity:1"
           d="M -1.2866832,-3.9585227 L 3.0617053,0"
           id="path1118" />
        <path
           style="fill:#000000;fill-rule:evenodd;stroke:#000000;stroke-width:0.8;stroke-linecap:round;stroke-opacity:1;fill-opacity:1"
           d="M 1.3053582,-3.9585227 L 5.6537466,0"
           id="path1120" />
        <path
           style="fill:#000000;fill-rule:evenodd;stroke:#000000;stroke-width:0.8;stroke-linecap:round;stroke-opacity:1;fill-opacity:1"
           d="M -3.8048674,4.1775838 L 0.54352094,0.21974226"
           id="path1122" />
        <path
           style="fill:#000000;fill-rule:evenodd;stroke:#000000;stroke-width:0.8;stroke-linecap:round;stroke-opacity:1;fill-opacity:1"
           d="M -1.2866832,4.1775838 L 3.0617053,0.21974226"
           id="path1124" />
        <path
           style="fill:#000000;fill-rule:evenodd;stroke:#000000;stroke-width:0.8;stroke-linecap:round;stroke-opacity:1;fill-opacity:1"
           d="M 1.3053582,4.1775838 L 5.6537466,0.21974226"
           id="path1126" />
      </g>
    </marker>
    <marker
       inkscape:isstock="true"
       style="overflow:visible;"
       id="Arrow2Lend"
       refX="0.0"
       refY="0.0"
       orient="auto"
       inkscape:stockid="Arrow2Lend">
      <path
         transform="scale(1.1) rotate(180) translate(1,0)"
         d="M 8.7185878,4.0337352 L -2.2072895,0.016013256 L 8.7185884,-4.0017078 C 6.9730900,-1.6296469 6.9831476,1.6157441 8.7185878,4.0337352 z "
         style="fill-rule:evenodd;stroke-width:0.625;stroke-linejoin:round;stroke:#000000;stroke-opacity:1;fill:#000000;fill-opacity:1"
         id="path1101" />
    </marker>
    <marker
       inkscape:stockid="TriangleOutL"
       orient="auto"
       refY="0"
       refX="0"
       id="TriangleOutL-2"
       style="overflow:visible"
       inkscape:isstock="true">
      <path
         id="path1222-4"
         d="M 5.77,0 -2.88,5 V -5 Z"
         style="fill:#4e4c4c;fill-opacity:1;fill-rule:evenodd;stroke:#4e4c4c;stroke-width:1pt;stroke-opacity:1"
         transform="scale(0.8)" />
    </marker>
  </defs>
  <sodipodi:namedview
     inkscape:snap-global="false"
     inkscape:snap-bbox="true"
     showguides="false"
     inkscape:window-maximized="1"
     inkscape:window-y="477"
     inkscape:window-x="-8"
     inkscape:window-height="1377"
     inkscape:window-width="2560"
     showgrid="true"
     inkscape:document-rotation="0"
     inkscape:current-layer="text1653"
     inkscape:document-units="mm"
     inkscape:cy="255.93735"
     inkscape:cx="279.04017"
     inkscape:zoom="2"
     inkscape:pageshadow="2"
     inkscape:pageopacity="0.0"
     borderopacity="1.0"
     bordercolor="#666666"
     pagecolor="#ffffff"
     id="base"
     units="px">
    <inkscape:grid
       dotted="false"
       empspacing="5"
       snapvisiblegridlinesonly="false"
       spacingy="1"
       spacingx="1"
       units="mm"
       id="grid842"
       type="xygrid" />
  </sodipodi:namedview>
  <metadata
     id="metadata5">
    <rdf:RDF>
      <cc:Work
         rdf:about="">
        <dc:format>image/svg+xml</dc:format>
        <dc:type
           rdf:resource="http://purl.org/dc/dcmitype/StillImage" />
        <dc:title />
      </cc:Work>
    </rdf:RDF>
  </metadata>
  <g
     id="layer1"
     inkscape:groupmode="layer"
     inkscape:label="Layer 1">
    <path
       style="fill:none;stroke:#4e4c4c;stroke-width:0.937;stroke-linecap:round;stroke-linejoin:miter;stroke-miterlimit:4;stroke-dasharray:none;stroke-opacity:1"
       d="m 29.589839,69.933192 h 64.756728 v 0"
       id="path1459-2-5-3" />
    <rect
       style="fill:#fed700;fill-opacity:1;stroke:none;stroke-width:0.364116;stroke-linecap:round;stroke-linejoin:round;stroke-miterlimit:4;stroke-dasharray:none"
       id="rect1504-1-0"
       width="15.989537"
       height="6.3957925"
       x="9.6471939"
       y="24.735195"
       ry="3.1978958" />
    <path
       d="m 15.274099,29.943296 q -0.154434,0 -0.221356,-0.154435 l -1.518607,-3.49537 q -0.06692,-0.16473 -0.01544,-0.267686 0.05663,-0.102957 0.205913,-0.102957 0.16473,0 0.226504,0.149287 l 1.353876,3.248274 h -0.07207 l 1.36932,-3.243126 q 0.03603,-0.08751 0.08751,-0.1184 0.05148,-0.03603 0.138991,-0.03603 0.144139,0 0.195617,0.102957 0.05663,0.102956 0,0.231651 l -1.528902,3.531405 q -0.03603,0.07722 -0.09266,0.1184 -0.05148,0.03603 -0.128696,0.03603 z"
       style="font-style:normal;font-variant:normal;font-weight:600;font-stretch:normal;font-size:5.14782px;line-height:1.25;font-family:Comfortaa;-inkscape-font-specification:'Comfortaa Semi-Bold';fill:#4e5153;fill-opacity:1;stroke:none;stroke-width:0.187792"
       id="path1328" />
    <path
       d="m 17.922492,29.943296 q -0.108104,0 -0.175026,-0.06692 -0.06692,-0.06692 -0.06692,-0.175026 v -2.331964 q 0,-0.108105 0.06692,-0.175026 0.06692,-0.06692 0.175026,-0.06692 0.108104,0 0.175026,0.06692 0.06692,0.06692 0.06692,0.175026 v 2.331962 q 0,0.108104 -0.06692,0.175026 -0.06692,0.06692 -0.175026,0.06692 z m 0,-3.299753 q -0.128696,0 -0.226504,-0.09266 -0.09266,-0.09781 -0.09266,-0.226504 0,-0.138991 0.09266,-0.226504 0.09781,-0.09266 0.226504,-0.09266 0.128695,0 0.221356,0.09266 0.09781,0.08751 0.09781,0.226504 0,0.128696 -0.09266,0.226504 -0.09266,0.09266 -0.226504,0.09266 z"
       style="font-style:normal;font-variant:normal;font-weight:600;font-stretch:normal;font-size:5.14782px;line-height:1.25;font-family:Comfortaa;-inkscape-font-specification:'Comfortaa Semi-Bold';fill:#4e5153;fill-opacity:1;stroke:none;stroke-width:0.187792"
       id="path1330" />
    <path
       d="m 21.545672,29.948443 q -0.102956,0 -0.175025,-0.06692 -0.06692,-0.07207 -0.06692,-0.175026 v -1.292103 q 0,-0.298574 -0.113252,-0.489043 -0.108104,-0.195617 -0.303722,-0.288278 -0.190469,-0.09781 -0.432416,-0.09781 -0.231652,0 -0.416974,0.09266 -0.180174,0.09266 -0.288278,0.247096 -0.108104,0.154434 -0.108104,0.350052 h -0.314017 q 0.0051,-0.324313 0.16473,-0.576556 0.159583,-0.257391 0.432417,-0.40153 0.272835,-0.149287 0.612591,-0.149287 0.355199,0 0.638329,0.154435 0.28313,0.149286 0.447861,0.442712 0.16473,0.293426 0.16473,0.715547 v 1.292103 q 0,0.102956 -0.07207,0.175026 -0.06692,0.06692 -0.169878,0.06692 z m -2.146641,0 q -0.108104,0 -0.175025,-0.06692 -0.06692,-0.07207 -0.06692,-0.175026 v -2.337111 q 0,-0.108105 0.06692,-0.175026 0.06692,-0.06692 0.175025,-0.06692 0.108105,0 0.175026,0.06692 0.06692,0.06692 0.06692,0.175026 v 2.33711 q 0,0.102956 -0.06692,0.175026 -0.06692,0.06692 -0.175026,0.06692 z"
       style="font-style:normal;font-variant:normal;font-weight:600;font-stretch:normal;font-size:5.14782px;line-height:1.25;font-family:Comfortaa;-inkscape-font-specification:'Comfortaa Semi-Bold';fill:#4e5153;fill-opacity:1;stroke:none;stroke-width:0.187792"
       id="path1332" />
    <path
       id="path911"
       d="m 29.601726,10.111227 h 9.066826 v 0"
       style="fill:none;stroke:#4e4c4c;stroke-width:0.937;stroke-linecap:round;stroke-linejoin:miter;stroke-miterlimit:4;stroke-dasharray:none;stroke-opacity:1" />
    <path
       id="path1459-2-5-3-2"
       d="m 29.613334,48.707546 v 21.122907 0"
       style="fill:none;stroke:#4e4c4c;stroke-width:0.937;stroke-linecap:round;stroke-linejoin:miter;stroke-miterlimit:4;stroke-dasharray:none;stroke-opacity:1" />
    <path
       style="fill:none;stroke:#4e4c4c;stroke-width:0.937;stroke-linecap:round;stroke-linejoin:miter;stroke-miterlimit:4;stroke-dasharray:none;stroke-opacity:1"
       d="m 29.613334,10.062233 v 24.141028 0"
       id="path928" />
    <path
       id="path930"
       d="m 33.613334,48.576727 h -8 v 0"
       style="fill:none;stroke:#4e4c4c;stroke-width:0.937;stroke-linecap:round;stroke-linejoin:miter;stroke-miterlimit:4;stroke-dasharray:none;stroke-opacity:1" />
    <path
       style="fill:none;stroke:#4e4c4c;stroke-width:0.937;stroke-linecap:round;stroke-linejoin:miter;stroke-miterlimit:4;stroke-dasharray:none;stroke-opacity:1"
       d="m 33.613334,39.117873 h -8 v 0"
       id="path932" />
    <path
       style="fill:none;stroke:#4e4c4c;stroke-width:0.937;stroke-linecap:round;stroke-linejoin:miter;stroke-miterlimit:4;stroke-dasharray:none;stroke-opacity:1"
       d="M 38.63672,44.07881 H 20.589948 v 0"
       id="path936" />
    <path
       id="path938"
       d="M 38.63672,34.289227 H 20.589948 v 0"
       style="fill:none;stroke:#4e4c4c;stroke-width:0.937;stroke-linecap:round;stroke-linejoin:miter;stroke-miterlimit:4;stroke-dasharray:none;stroke-opacity:1" />
    <path
       id="path909"
       d="m 73.303582,9.27387 h -7.777958 l -1.796258,3.11119 -2.870525,-4.9719 -3.111194,5.38872 -3.111174,-5.38872 -3.1112,5.38872 -3.111174,-5.38872 -1.555609,2.69436 h -7.777958"
       style="fill:none;stroke:#4e5153;stroke-width:0.937;stroke-linecap:round;stroke-linejoin:round;stroke-miterlimit:4;stroke-dasharray:none;stroke-opacity:1" />
    <ellipse
       cy="-39.799751"
       cx="10.171633"
       id="path1389-0-9-3-8-4-5-6-5"
       style="fill:#4e4c4c;fill-opacity:1;stroke:#4e4c4c;stroke-width:0.846106;stroke-linecap:round;stroke-linejoin:round;stroke-miterlimit:0.7;stroke-dasharray:none;stroke-dashoffset:0;stroke-opacity:1;paint-order:fill markers stroke"
       rx="2.2071371"
       ry="2.2385306"
       inkscape:transform-center-x="-4.4317708"
       inkscape:transform-center-y="0.09921875"
       transform="rotate(90)" />
    <ellipse
       cy="-72.532829"
       cx="9.3405018"
       id="ellipse1022"
       style="fill:#4e4c4c;fill-opacity:1;stroke:#4e4c4c;stroke-width:0.846106;stroke-linecap:round;stroke-linejoin:round;stroke-miterlimit:0.7;stroke-dasharray:none;stroke-dashoffset:0;stroke-opacity:1;paint-order:fill markers stroke"
       rx="2.2071371"
       ry="2.2385306"
       inkscape:transform-center-x="-4.4317708"
       inkscape:transform-center-y="0.09921875"
       transform="rotate(90)" />
    <path
       style="fill:none;stroke:#4e4c4c;stroke-width:0.937;stroke-linecap:round;stroke-linejoin:miter;stroke-miterlimit:4;stroke-dasharray:none;stroke-opacity:1"
       d="M 121.92772,69.88697 H 97.35634 v 0"
       id="path1093" />
    <path
       id="path1095"
       d="m 149.84711,45.736249 v 24.173165 0"
       style="fill:none;stroke:#4e4c4c;stroke-width:0.937;stroke-linecap:round;stroke-linejoin:miter;stroke-miterlimit:4;stroke-dasharray:none;stroke-opacity:1" />
    <path
       style="fill:none;stroke:#4e4c4c;stroke-width:0.937;stroke-linecap:round;stroke-linejoin:miter;stroke-miterlimit:4;stroke-dasharray:none;stroke-opacity:1"
       d="m 150.07985,9.1855129 v 29.8089281 0"
       id="path1097" />
    <path
       id="path1121"
       d="m 70.99976,9.34361 h 28.652024 v 0"
       style="fill:none;stroke:#4e4c4c;stroke-width:0.937;stroke-linecap:round;stroke-linejoin:miter;stroke-miterlimit:4;stroke-dasharray:none;stroke-opacity:1" />
    <path
       id="path1127"
       d="m 150.03664,9.184582 h -44.28227 v 0"
       style="fill:none;stroke:#4e4c4c;stroke-width:0.937;stroke-linecap:round;stroke-linejoin:miter;stroke-miterlimit:4;stroke-dasharray:none;stroke-opacity:1" />
    <path
       style="fill:none;stroke:#4e4c4c;stroke-width:0.937;stroke-linecap:round;stroke-linejoin:miter;stroke-miterlimit:4;stroke-dasharray:none;stroke-opacity:1"
       d="m 105.45985,4.369879 v 9.811737 0"
       id="path1028" />
    <path
       transform="matrix(0,1,1,0,64.824543,-86.675014)"
       sodipodi:type="star"
       style="fill:#4e4c4c;fill-opacity:1;stroke:#4e4c4c;stroke-width:0.845132;stroke-linecap:round;stroke-linejoin:round;stroke-miterlimit:4;stroke-dasharray:none"
       id="path995"
       sodipodi:sides="3"
       sodipodi:cx="95.95076"
       sodipodi:cy="34.440178"
       sodipodi:r1="5.7472615"
       sodipodi:r2="2.8736305"
       sodipodi:arg1="1.5707963"
       sodipodi:arg2="2.6179939"
       inkscape:flatsided="false"
       inkscape:rounded="0"
       inkscape:randomized="0"
       inkscape:transform-center-x="4.2088255e-06"
       inkscape:transform-center-y="1.4368135"
       d="m 95.95076,40.187439 -2.488637,-4.310446 -2.488638,-4.310446 4.977275,0 4.97727,0 -2.488633,4.310446 z" />
    <path
       id="path1319"
       d="m 101.92368,14.1791 5.17355,5.17355"
       style="fill:none;stroke:#4e5153;stroke-width:0.264999;stroke-linecap:butt;stroke-linejoin:miter;stroke-miterlimit:4;stroke-dasharray:none;stroke-opacity:1;marker-end:url(#marker1327)" />
    <path
       id="path1321"
       d="m 99.08886,15.7855 5.10268,5.10268"
       style="fill:none;stroke:#4e5153;stroke-width:0.264999;stroke-linecap:butt;stroke-linejoin:miter;stroke-miterlimit:4;stroke-dasharray:none;stroke-opacity:1;marker-end:url(#marker1337)" />
    <path
       style="fill:none;stroke:#4e4c4c;stroke-width:0.937;stroke-linecap:round;stroke-linejoin:miter;stroke-miterlimit:4;stroke-dasharray:none;stroke-opacity:1"
       d="m 144.90753,45.349078 h 9.81173 v 0"
       id="path1019" />
    <path
       sodipodi:type="star"
       style="fill:#4e4c4c;fill-opacity:1;stroke:#4e4c4c;stroke-width:0.845132;stroke-linecap:round;stroke-linejoin:round;stroke-miterlimit:4;stroke-dasharray:none"
       id="path1021"
       sodipodi:sides="3"
       sodipodi:cx="149.81339"
       sodipodi:cy="39.153949"
       sodipodi:r1="5.7472615"
       sodipodi:r2="2.8736305"
       sodipodi:arg1="1.5707963"
       sodipodi:arg2="2.6179939"
       inkscape:flatsided="false"
       inkscape:rounded="0"
       inkscape:randomized="0"
       inkscape:transform-center-x="4.2088255e-06"
       inkscape:transform-center-y="1.4368135"
       d="m 149.81339,44.901211 -2.48864,-4.310446 -2.48864,-4.310446 4.97728,0 4.97727,0 -2.48864,4.310446 z" />
    <path
       style="fill:none;stroke:#4e5153;stroke-width:0.264999;stroke-linecap:butt;stroke-linejoin:miter;stroke-miterlimit:4;stroke-dasharray:none;stroke-opacity:1;marker-end:url(#marker1485)"
       d="m 155.25362,41.812911 5.17355,5.173548"
       id="path1477" />
    <path
       style="fill:none;stroke:#4e5153;stroke-width:0.264999;stroke-linecap:butt;stroke-linejoin:miter;stroke-miterlimit:4;stroke-dasharray:none;stroke-opacity:1;marker-end:url(#marker1495)"
       d="m 156.86002,38.978088 5.10268,5.102681"
       id="path1479" />
    <rect
       ry="3.1978958"
       y="15.367603"
       x="48.803879"
       height="6.395792"
       width="15.989537"
       id="rect1504-9"
       style="fill:#fed700;fill-opacity:1;stroke:none;stroke-width:0.364116;stroke-linecap:round;stroke-linejoin:round;stroke-miterlimit:4;stroke-dasharray:none" />
    <g
       style="font-style:normal;font-weight:normal;font-size:5.03854px;line-height:1.25;font-family:sans-serif;fill:#000000;fill-opacity:1;stroke:none;stroke-width:0.125964"
       id="text1653"
       aria-label="R1">
      <path
         id="path1544"
         style="font-style:normal;font-variant:normal;font-weight:600;font-stretch:normal;font-family:Comfortaa;-inkscape-font-specification:'Comfortaa Semi-Bold';fill:#4e5153;fill-opacity:1;stroke-width:0.125964"
         d="m 54.987411,20.533051 q -0.10581,0 -0.176349,-0.0655 -0.0655,-0.07054 -0.0655,-0.176349 v -3.4514 q 0,-0.10581 0.0655,-0.171311 0.07054,-0.07054 0.176349,-0.07054 h 0.917014 q 0.372852,0 0.665087,0.156195 0.292236,0.156194 0.453469,0.433314 0.166272,0.27712 0.166272,0.639895 0,0.34262 -0.166272,0.609663 -0.161233,0.267043 -0.453469,0.418199 -0.292235,0.151156 -0.665087,0.151156 h -0.680203 v 1.284828 q 0,0.105809 -0.0655,0.176349 -0.0655,0.0655 -0.17131,0.0655 z m 2.096032,0 q -0.07054,0 -0.120925,-0.02519 -0.05039,-0.03023 -0.09069,-0.09069 l -0.927092,-1.491408 0.473623,-0.131002 0.851513,1.370483 q 0.08566,0.136041 0.02519,0.251927 -0.06046,0.115887 -0.211619,0.115887 z m -1.859221,-1.975108 h 0.680203 q 0.24185,0 0.423237,-0.09069 0.186426,-0.09573 0.292236,-0.262004 0.105809,-0.166272 0.105809,-0.37789 0,-0.226735 -0.105809,-0.403084 -0.10581,-0.181387 -0.292236,-0.277119 -0.181387,-0.100771 -0.423237,-0.100771 h -0.680203 z" />
      <path
         id="path1546"
         style="font-style:normal;font-variant:normal;font-weight:600;font-stretch:normal;font-family:Comfortaa;-inkscape-font-specification:'Comfortaa Semi-Bold';fill:#4e5153;fill-opacity:1;stroke-width:0.125964"
         d="m 58.609885,20.533051 q -0.09069,0 -0.161233,-0.0655 -0.07054,-0.07054 -0.07054,-0.171311 v -3.13901 l -0.41316,0.161233 q -0.07558,0.03023 -0.141079,0.03023 -0.100771,0 -0.171311,-0.0655 -0.0655,-0.0655 -0.0655,-0.166272 0,-0.07054 0.03527,-0.131002 0.03527,-0.06046 0.115886,-0.09069 l 0.786013,-0.27712 q 0.02519,-0.01008 0.05038,-0.01512 0.02519,-0.005 0.04535,-0.005 0.105809,0 0.166272,0.07054 0.0655,0.0655 0.0655,0.166272 v 3.461477 q 0,0.100771 -0.07054,0.171311 -0.0655,0.0655 -0.17131,0.0655 z" />
    </g>
    <rect
       style="fill:#fed700;fill-opacity:1;stroke:none;stroke-width:0.364117;stroke-linecap:round;stroke-linejoin:round;stroke-miterlimit:4;stroke-dasharray:none"
       id="rect1504-9-4"
       width="15.989537"
       height="6.395792"
       x="108.16521"
       y="10.677589"
       ry="3.1978958" />
    <g
       style="font-style:normal;font-weight:normal;font-size:5.03854px;line-height:1.25;font-family:sans-serif;fill:#000000;fill-opacity:1;stroke:none;stroke-width:0.125964"
       id="text1653-3"
       aria-label="L1">
      <path
         id="path1539"
         style="font-style:normal;font-variant:normal;font-weight:600;font-stretch:normal;font-family:Comfortaa;-inkscape-font-specification:'Comfortaa Semi-Bold';fill:#4e5153;fill-opacity:1;stroke-width:0.125964"
         d="m 114.31418,15.843035 q -0.10077,0 -0.17131,-0.0655 -0.0655,-0.07054 -0.0655,-0.176349 v -3.4514 q 0,-0.100771 0.0705,-0.17131 0.0705,-0.07054 0.16627,-0.07054 0.10077,0 0.17131,0.07054 0.0705,0.07054 0.0705,0.17131 v 3.219627 h 1.8693 q 0.10077,0 0.17131,0.07054 0.0705,0.0655 0.0705,0.166271 0,0.100771 -0.0705,0.171311 -0.0705,0.0655 -0.17131,0.0655 z" />
      <path
         id="path1541"
         style="font-style:normal;font-variant:normal;font-weight:600;font-stretch:normal;font-family:Comfortaa;-inkscape-font-specification:'Comfortaa Semi-Bold';fill:#4e5153;fill-opacity:1;stroke-width:0.125964"
         d="m 118.00074,15.843035 q -0.0907,0 -0.16123,-0.0655 -0.0705,-0.07054 -0.0705,-0.171311 v -3.13901 l -0.41316,0.161233 q -0.0756,0.03023 -0.14108,0.03023 -0.10077,0 -0.17131,-0.0655 -0.0655,-0.0655 -0.0655,-0.166272 0,-0.07054 0.0353,-0.131002 0.0353,-0.06046 0.11588,-0.09069 l 0.78601,-0.27712 q 0.0252,-0.01008 0.0504,-0.01511 0.0252,-0.005 0.0453,-0.005 0.10581,0 0.16627,0.07054 0.0655,0.0655 0.0655,0.166271 v 3.461477 q 0,0.100771 -0.0705,0.171311 -0.0655,0.0655 -0.17131,0.0655 z" />
    </g>
    <rect
       ry="3.1978958"
       y="28.224588"
       x="132.92401"
       height="6.395792"
       width="15.989537"
       id="rect1689"
       style="fill:#fed700;fill-opacity:1;stroke:none;stroke-width:0.364117;stroke-linecap:round;stroke-linejoin:round;stroke-miterlimit:4;stroke-dasharray:none" />
    <g
       style="font-style:normal;font-weight:normal;font-size:5.03854px;line-height:1.25;font-family:sans-serif;fill:#000000;fill-opacity:1;stroke:none;stroke-width:0.125964"
       id="text1693"
       aria-label="L2">
      <path
         id="path1529"
         style="font-style:normal;font-variant:normal;font-weight:600;font-stretch:normal;font-family:Comfortaa;-inkscape-font-specification:'Comfortaa Semi-Bold';fill:#4e5153;fill-opacity:1;stroke-width:0.125964"
         d="m 138.44568,33.390034 q -0.10077,0 -0.17131,-0.0655 -0.0655,-0.07054 -0.0655,-0.176349 v -3.4514 q 0,-0.100771 0.0705,-0.17131 0.0705,-0.07054 0.16627,-0.07054 0.10077,0 0.17131,0.07054 0.0705,0.07054 0.0705,0.17131 v 3.219627 h 1.8693 q 0.10077,0 0.17131,0.07054 0.0705,0.0655 0.0705,0.166271 0,0.100771 -0.0705,0.171311 -0.0705,0.0655 -0.17131,0.0655 z" />
      <path
         id="path1531"
         style="font-style:normal;font-variant:normal;font-weight:600;font-stretch:normal;font-family:Comfortaa;-inkscape-font-specification:'Comfortaa Semi-Bold';fill:#4e5153;fill-opacity:1;stroke-width:0.125964"
         d="m 141.49738,33.390034 q -0.10077,0 -0.17131,-0.0655 -0.0655,-0.07054 -0.0655,-0.171311 0,-0.10077 0.0655,-0.166271 l 1.46118,-1.718143 q 0.14612,-0.161233 0.22673,-0.322466 0.0806,-0.161233 0.0806,-0.302313 0,-0.226734 -0.0857,-0.393006 -0.0806,-0.17131 -0.23178,-0.262004 -0.14611,-0.09573 -0.35269,-0.09573 -0.19651,0 -0.35774,0.105809 -0.16123,0.100771 -0.25193,0.272082 -0.0907,0.166271 -0.0907,0.372851 0,0.09573 -0.0705,0.166272 -0.0655,0.0655 -0.16627,0.0655 -0.0957,0 -0.16627,-0.0655 -0.0705,-0.07054 -0.0705,-0.166272 0,-0.34262 0.15115,-0.609663 0.1562,-0.267042 0.42324,-0.423237 0.26704,-0.156195 0.59959,-0.156195 0.33758,0 0.5895,0.146118 0.25697,0.146117 0.39301,0.41316 0.14108,0.267043 0.14108,0.629817 0,0.161234 -0.0655,0.322467 -0.0605,0.161233 -0.16123,0.31239 -0.0957,0.146117 -0.20155,0.267042 l -1.19917,1.370483 h 1.46622 q 0.10077,0 0.17131,0.07558 0.0705,0.07054 0.0705,0.161233 0,0.100771 -0.0705,0.171311 -0.0705,0.0655 -0.17131,0.0655 z" />
    </g>
    <rect
       style="fill:#fed700;fill-opacity:1;stroke:none;stroke-width:0.364117;stroke-linecap:round;stroke-linejoin:round;stroke-miterlimit:4;stroke-dasharray:none"
       id="rect1695"
       width="15.989537"
       height="6.395792"
       x="106.15086"
       y="62.478062"
       ry="3.1978958" />
    <g
       style="font-style:normal;font-weight:normal;font-size:5.03854px;line-height:1.25;font-family:sans-serif;fill:#000000;fill-opacity:1;stroke:none;stroke-width:0.125964"
       id="text1699"
       aria-label="Ln">
      <path
         id="path1534"
         style="font-style:normal;font-variant:normal;font-weight:600;font-stretch:normal;font-family:Comfortaa;-inkscape-font-specification:'Comfortaa Semi-Bold';fill:#4e5153;fill-opacity:1;stroke-width:0.125964"
         d="m 111.5113,67.640984 q -0.10078,0 -0.17132,-0.0655 -0.0655,-0.07054 -0.0655,-0.176349 v -3.4514 q 0,-0.100771 0.0705,-0.171311 0.0705,-0.07054 0.16628,-0.07054 0.10077,0 0.17131,0.07054 0.0705,0.07054 0.0705,0.171311 v 3.219627 h 1.86929 q 0.10077,0 0.17131,0.07054 0.0705,0.0655 0.0705,0.166272 0,0.100771 -0.0705,0.171311 -0.0705,0.0655 -0.17131,0.0655 z" />
      <path
         id="path1536"
         style="font-style:normal;font-variant:normal;font-weight:600;font-stretch:normal;font-family:Comfortaa;-inkscape-font-specification:'Comfortaa Semi-Bold';fill:#4e5153;fill-opacity:1;stroke-width:0.125964"
         d="m 116.77995,67.646022 q -0.10077,0 -0.17131,-0.0655 -0.0655,-0.07054 -0.0655,-0.17131 v -1.264674 q 0,-0.292235 -0.11084,-0.478661 -0.10581,-0.191465 -0.29728,-0.282158 -0.18642,-0.09573 -0.42324,-0.09573 -0.22673,0 -0.40812,0.09069 -0.17635,0.09069 -0.28216,0.24185 -0.10581,0.151156 -0.10581,0.342621 h -0.30735 q 0.005,-0.317428 0.16124,-0.564317 0.15619,-0.251927 0.42323,-0.393006 0.26705,-0.146117 0.59959,-0.146117 0.34766,0 0.62478,0.151156 0.27712,0.146117 0.43835,0.433314 0.16124,0.287197 0.16124,0.700357 v 1.264674 q 0,0.100771 -0.0705,0.17131 -0.0655,0.0655 -0.16628,0.0655 z m -2.10107,0 q -0.10581,0 -0.17131,-0.0655 -0.0655,-0.07054 -0.0655,-0.17131 v -2.287497 q 0,-0.10581 0.0655,-0.171311 0.0655,-0.0655 0.17131,-0.0655 0.10581,0 0.17131,0.0655 0.0655,0.0655 0.0655,0.171311 v 2.287497 q 0,0.100771 -0.0655,0.17131 -0.0655,0.0655 -0.17131,0.0655 z" />
    </g>
    <path
       id="path1703"
       d="m 122.63825,69.890179 h 28.84823 v 0"
       style="fill:none;stroke:#4e4c4c;stroke-width:0.937;stroke-linecap:round;stroke-linejoin:miter;stroke-miterlimit:4;stroke-dasharray:0.937, 2.811;stroke-dashoffset:0;stroke-opacity:1" />
    <path
       id="path2595"
       d="m 94.767273,74.740537 v -9.811737 0"
       style="fill:none;stroke:#4e4c4c;stroke-width:0.937;stroke-linecap:round;stroke-linejoin:miter;stroke-miterlimit:4;stroke-dasharray:none;stroke-opacity:1" />
    <path
       transform="matrix(0,-1,-1,0,135.40258,165.78543)"
       inkscape:transform-center-y="1.4368135"
       inkscape:transform-center-x="4.2088255e-06"
       inkscape:randomized="0"
       inkscape:rounded="0"
       inkscape:flatsided="false"
       sodipodi:arg2="2.6179939"
       sodipodi:arg1="1.5707963"
       sodipodi:r2="2.8736305"
       sodipodi:r1="5.7472615"
       sodipodi:cy="34.440178"
       sodipodi:cx="95.95076"
       sodipodi:sides="3"
       id="path2597"
       style="fill:#4e4c4c;fill-opacity:1;stroke:#4e4c4c;stroke-width:0.845132;stroke-linecap:round;stroke-linejoin:round;stroke-miterlimit:4;stroke-dasharray:none"
       sodipodi:type="star"
       d="m 95.95076,40.187439 -2.488637,-4.310446 -2.488638,-4.310446 4.977275,0 4.97727,0 -2.488633,4.310446 z" />
    <path
       style="fill:none;stroke:#4e5153;stroke-width:0.264999;stroke-linecap:butt;stroke-linejoin:miter;stroke-miterlimit:4;stroke-dasharray:none;stroke-opacity:1;marker-end:url(#marker2611)"
       d="M 98.303435,64.93132 93.129887,59.75777"
       id="path2601" />
    <path
       style="fill:none;stroke:#4e5153;stroke-width:0.264999;stroke-linecap:butt;stroke-linejoin:miter;stroke-miterlimit:4;stroke-dasharray:none;stroke-opacity:1;marker-end:url(#marker2621)"
       d="M 101.13826,63.32492 96.035578,58.22224"
       id="path2603" />
  </g>
</svg>
