<?xml version="1.0" encoding="UTF-8" standalone="no"?>
<svg
   xmlns:dc="http://purl.org/dc/elements/1.1/"
   xmlns:cc="http://creativecommons.org/ns#"
   xmlns:rdf="http://www.w3.org/1999/02/22-rdf-syntax-ns#"
   xmlns:svg="http://www.w3.org/2000/svg"
   xmlns="http://www.w3.org/2000/svg"
   xmlns:sodipodi="http://sodipodi.sourceforge.net/DTD/sodipodi-0.dtd"
   xmlns:inkscape="http://www.inkscape.org/namespaces/inkscape"
   sodipodi:docname="Ohms-Law-Reference.svg"
   inkscape:version="1.0 (4035a4fb49, 2020-05-01)"
   id="svg8"
   version="1.1"
   viewBox="0 0 158.75 158.75001"
   height="600"
   width="600">
  <defs
     id="defs2">
    <inkscape:path-effect
       effect="bspline"
       id="path-effect1462"
       is_visible="true"
       lpeversion="1"
       weight="33.333333"
       steps="2"
       helper_size="0"
       apply_no_weight="true"
       apply_with_weight="true"
       only_selected="false" />
    <inkscape:path-effect
       only_selected="false"
       apply_with_weight="true"
       apply_no_weight="true"
       helper_size="0"
       steps="2"
       weight="33.333333"
       lpeversion="1"
       is_visible="true"
       id="path-effect1399"
       effect="bspline" />
    <inkscape:path-effect
       effect="bspline"
       id="path-effect1302"
       is_visible="true"
       lpeversion="1"
       weight="33.333333"
       steps="2"
       helper_size="0"
       apply_no_weight="true"
       apply_with_weight="true"
       only_selected="false" />
    <inkscape:path-effect
       only_selected="false"
       apply_with_weight="true"
       apply_no_weight="true"
       helper_size="0"
       steps="2"
       weight="33.333333"
       lpeversion="1"
       is_visible="true"
       id="path-effect1218"
       effect="bspline" />
    <inkscape:path-effect
       effect="bspline"
       id="path-effect1194"
       is_visible="true"
       lpeversion="1"
       weight="33.333333"
       steps="2"
       helper_size="0"
       apply_no_weight="true"
       apply_with_weight="true"
       only_selected="false" />
    <inkscape:path-effect
       only_selected="false"
       apply_with_weight="true"
       apply_no_weight="true"
       helper_size="0"
       steps="2"
       weight="33.333333"
       lpeversion="1"
       is_visible="true"
       id="path-effect1148"
       effect="bspline" />
    <inkscape:path-effect
       only_selected="false"
       apply_with_weight="true"
       apply_no_weight="true"
       helper_size="0"
       steps="2"
       weight="33.333333"
       lpeversion="1"
       is_visible="true"
       id="path-effect1127"
       effect="bspline" />
    <inkscape:path-effect
       effect="bspline"
       id="path-effect1078"
       is_visible="true"
       lpeversion="1"
       weight="33.333333"
       steps="2"
       helper_size="0"
       apply_no_weight="true"
       apply_with_weight="true"
       only_selected="false" />
    <inkscape:path-effect
       only_selected="false"
       apply_with_weight="true"
       apply_no_weight="true"
       helper_size="0"
       steps="2"
       weight="33.333333"
       lpeversion="1"
       is_visible="true"
       id="path-effect1066"
       effect="bspline" />
    <inkscape:path-effect
       effect="bspline"
       id="path-effect883"
       is_visible="true"
       lpeversion="1"
       weight="33.333333"
       steps="2"
       helper_size="0"
       apply_no_weight="true"
       apply_with_weight="true"
       only_selected="false" />
    <inkscape:path-effect
       only_selected="false"
       apply_with_weight="true"
       apply_no_weight="true"
       helper_size="0"
       steps="2"
       weight="33.333333"
       lpeversion="1"
       is_visible="true"
       id="path-effect879"
       effect="bspline" />
    <inkscape:path-effect
       effect="bspline"
       id="path-effect875"
       is_visible="true"
       lpeversion="1"
       weight="33.333333"
       steps="2"
       helper_size="0"
       apply_no_weight="true"
       apply_with_weight="true"
       only_selected="false" />
    <inkscape:path-effect
       only_selected="false"
       apply_with_weight="true"
       apply_no_weight="true"
       helper_size="0"
       steps="2"
       weight="33.333333"
       lpeversion="1"
       is_visible="true"
       id="path-effect871"
       effect="bspline" />
    <inkscape:path-effect
       effect="bspline"
       id="path-effect852"
       is_visible="true"
       lpeversion="1"
       weight="33.333333"
       steps="2"
       helper_size="0"
       apply_no_weight="true"
       apply_with_weight="true"
       only_selected="false" />
    <inkscape:path-effect
       only_selected="false"
       apply_with_weight="true"
       apply_no_weight="true"
       helper_size="0"
       steps="2"
       weight="33.333333"
       lpeversion="1"
       is_visible="true"
       id="path-effect848"
       effect="bspline" />
  </defs>
  <sodipodi:namedview
     inkscape:window-maximized="1"
     inkscape:window-y="472"
     inkscape:window-x="-8"
     inkscape:window-height="1377"
     inkscape:window-width="2560"
     units="px"
     showgrid="false"
     inkscape:document-rotation="0"
     inkscape:current-layer="layer1"
     inkscape:document-units="mm"
     inkscape:cy="234.27928"
     inkscape:cx="76.234541"
     inkscape:zoom="1.4"
     inkscape:pageshadow="2"
     inkscape:pageopacity="0.0"
     borderopacity="1.0"
     bordercolor="#666666"
     pagecolor="#ffffff"
     id="base" />
  <metadata
     id="metadata5">
    <rdf:RDF>
      <cc:Work
         rdf:about="">
        <dc:format>image/svg+xml</dc:format>
        <dc:type
           rdf:resource="http://purl.org/dc/dcmitype/StillImage" />
        <dc:title></dc:title>
      </cc:Work>
    </rdf:RDF>
  </metadata>
  <g
     id="layer1"
     inkscape:groupmode="layer"
     inkscape:label="Layer 1">
    <path
       d="M 154.67989,79.375 A 75.304886,75.304886 0 0 1 79.375,154.67989 75.304886,75.304886 0 0 1 4.0701141,79.375 75.304886,75.304886 0 0 1 79.375,4.0701141 75.304886,75.304886 0 0 1 154.67989,79.375"
       style="fill:none;stroke:#4e5153;stroke-width:1;stroke-linecap:round;stroke-linejoin:round;stroke-miterlimit:3.9;stroke-dasharray:none"
       id="path844" />
    <path
       id="path869"
       d="M 144.84239,117.17262 C 101.14268,91.94258 57.552307,66.775661 13.907608,41.577379"
       style="fill:none;stroke:#4e5153;stroke-width:0.5;stroke-linecap:butt;stroke-linejoin:miter;stroke-miterlimit:4;stroke-dasharray:none;stroke-opacity:1" />
    <path
       style="fill:none;stroke:#4e5153;stroke-width:0.5;stroke-linecap:butt;stroke-linejoin:miter;stroke-miterlimit:4;stroke-dasharray:none;stroke-opacity:1"
       d="M 117.17261,144.84239 C 91.942577,101.14269 66.775663,57.552306 41.577386,13.907604"
       id="path873" />
    <path
       id="path877"
       d="M 41.577379,144.84239 C 66.807418,101.14269 91.974337,57.552308 117.17262,13.907608"
       style="fill:none;stroke:#4e5153;stroke-width:0.5;stroke-linecap:butt;stroke-linejoin:miter;stroke-miterlimit:4;stroke-dasharray:none;stroke-opacity:1" />
    <path
       style="fill:none;stroke:#4e5153;stroke-width:0.5;stroke-linecap:butt;stroke-linejoin:miter;stroke-miterlimit:4;stroke-dasharray:none;stroke-opacity:1"
       d="M 13.907604,117.17261 C 57.607311,91.942576 101.19769,66.77566 144.84239,41.577386"
       id="path881" />
    <path
       d="m -17.376987,100.10657 a 33.411362,33.411362 0 0 1 -33.411362,33.41136 33.411362,33.411362 0 0 1 -33.411362,-33.41136 33.411362,33.411362 0 0 1 33.411362,-33.411364 33.411362,33.411362 0 0 1 33.411362,33.411364"
       transform="matrix(-0.95051916,0.31066593,0.31066593,0.95051916,0,0)"
       style="fill:#ffffff;fill-opacity:1;stroke:#4e5153;stroke-width:0.443681;stroke-linecap:round;stroke-linejoin:round;stroke-miterlimit:3.9;stroke-dasharray:none"
       id="path844-6" />
    <path
       id="path846"
       d="m 79.375,3.7797609 c 0,50.4600841 0,100.7939191 0,151.1904791"
       style="fill:none;stroke:#4e5153;stroke-width:1;stroke-linecap:butt;stroke-linejoin:miter;stroke-miterlimit:4;stroke-dasharray:none;stroke-opacity:1" />
    <path
       style="fill:none;stroke:#4e5153;stroke-width:1;stroke-linecap:butt;stroke-linejoin:miter;stroke-miterlimit:4;stroke-dasharray:none;stroke-opacity:1"
       d="m 154.97024,79.375 c -50.46008,0 -100.79392,0 -151.19048,0"
       id="path850" />
    <g
       style="font-style:normal;font-weight:normal;font-size:14.1111px;line-height:1.25;font-family:sans-serif;fill:#4e5153;fill-opacity:1;stroke:none;stroke-width:0.264583"
       id="text909"
       aria-label="R">
      <path
         id="path1793"
         style="font-style:normal;font-variant:normal;font-weight:normal;font-stretch:normal;font-size:14.1111px;font-family:Comfortaa;-inkscape-font-specification:Comfortaa;fill:#4e5153;fill-opacity:1;stroke-width:0.264583"
         d="m 84.360247,92.88765 q -0.239889,0 -0.395111,-0.155223 -0.155222,-0.155222 -0.155222,-0.39511 v -9.920104 q 0,-0.239889 0.155222,-0.395111 0.155222,-0.155222 0.395111,-0.155222 h 2.638775 q 1.030111,0 1.834443,0.437444 0.804333,0.423333 1.255888,1.199444 0.465667,0.761999 0.465667,1.763887 0,0.959555 -0.465667,1.707444 -0.451555,0.747888 -1.255888,1.171221 -0.804332,0.423333 -1.834443,0.423333 H 84.91058 v 3.767664 q 0,0.239888 -0.155223,0.39511 -0.155222,0.155223 -0.39511,0.155223 z m 5.89844,0 q -0.183445,0 -0.296334,-0.07056 -0.09878,-0.07055 -0.183444,-0.211666 l -2.709331,-4.317997 1.100666,-0.282222 2.525887,4.035775 q 0.211666,0.338666 0.07056,0.592666 -0.127,0.254 -0.507999,0.254 z M 84.91058,87.51132 h 2.088442 q 0.719666,0 1.269999,-0.282222 0.564444,-0.296333 0.889,-0.804332 0.324555,-0.508 0.324555,-1.157111 0,-0.691443 -0.324555,-1.213554 -0.324556,-0.536222 -0.889,-0.832555 -0.550333,-0.296333 -1.269999,-0.296333 H 84.91058 Z" />
    </g>
    <g
       style="font-style:normal;font-weight:normal;font-size:10.5833px;line-height:1.25;font-family:sans-serif;fill:#000000;fill-opacity:1;stroke:none;stroke-width:0.264583"
       id="text913" />
    <g
       style="font-style:normal;font-weight:normal;font-size:14.1111px;line-height:1.25;font-family:sans-serif;fill:#4e5153;fill-opacity:1;stroke:none;stroke-width:0.264583"
       id="text917"
       aria-label="V">
      <path
         id="path1789"
         style="font-style:normal;font-variant:normal;font-weight:normal;font-stretch:normal;font-size:14.1111px;font-family:Comfortaa;-inkscape-font-specification:Comfortaa;fill:#4e5153;fill-opacity:1;stroke-width:0.264583"
         d="m 86.51975,76.918152 q -0.352777,0 -0.508,-0.352778 L 81.820754,66.75816 q -0.155222,-0.395111 -0.02822,-0.620889 0.141111,-0.239888 0.479778,-0.239888 0.352777,0 0.507999,0.352777 l 3.894664,9.313326 h -0.310444 l 3.880552,-9.285104 q 0.08467,-0.211666 0.211667,-0.296333 0.127,-0.08467 0.338666,-0.08467 0.324556,0 0.437444,0.253999 0.112889,0.239889 -0.01411,0.550333 l -4.205107,9.863659 q -0.08467,0.197556 -0.211667,0.282222 -0.127,0.07056 -0.282222,0.07056 z" />
    </g>
    <g
       style="font-style:normal;font-weight:normal;font-size:14.1111px;line-height:1.25;font-family:sans-serif;fill:#4e5153;fill-opacity:1;stroke:none;stroke-width:0.264583"
       id="text921"
       aria-label="P">
      <path
         id="path1786"
         style="font-style:normal;font-variant:normal;font-weight:normal;font-stretch:normal;font-size:14.1111px;font-family:Comfortaa;-inkscape-font-specification:Comfortaa;fill:#4e5153;fill-opacity:1;stroke-width:0.264583"
         d="m 68.86323,76.918152 q -0.239889,0 -0.395111,-0.155222 -0.155222,-0.155222 -0.155222,-0.395111 v -9.920103 q 0,-0.239889 0.155222,-0.395111 0.155222,-0.155222 0.395111,-0.155222 h 2.82222 q 1.044221,0 1.848554,0.465666 0.804333,0.451555 1.255888,1.255888 0.451555,0.804333 0.451555,1.862665 0,1.03011 -0.451555,1.834443 -0.451555,0.790222 -1.255888,1.255888 -0.804333,0.451555 -1.848554,0.451555 h -2.271887 v 3.344331 q 0,0.239889 -0.155222,0.395111 -0.155223,0.155222 -0.395111,0.155222 z m 0.550333,-4.952996 h 2.271887 q 0.719666,0 1.28411,-0.310445 0.564444,-0.324555 0.874888,-0.888999 0.324555,-0.564444 0.324555,-1.28411 0,-0.747888 -0.324555,-1.312332 -0.310444,-0.564444 -0.874888,-0.889 -0.564444,-0.324555 -1.28411,-0.324555 h -2.271887 z" />
    </g>
    <g
       style="font-style:normal;font-weight:normal;font-size:14.1111px;line-height:1.25;font-family:sans-serif;fill:#4e5153;fill-opacity:1;stroke:none;stroke-width:0.264583"
       id="text925"
       aria-label="I">
      <path
         id="path1783"
         style="font-style:normal;font-variant:normal;font-weight:normal;font-stretch:normal;font-size:14.1111px;font-family:Comfortaa;-inkscape-font-specification:Comfortaa;fill:#4e5153;fill-opacity:1;stroke-width:0.264583"
         d="m 71.272585,92.698654 q -0.239889,0 -0.395111,-0.155222 -0.155222,-0.155222 -0.155222,-0.395111 v -9.920103 q 0,-0.239889 0.155222,-0.395111 0.155222,-0.155222 0.395111,-0.155222 0.239889,0 0.395111,0.155222 0.155222,0.155222 0.155222,0.395111 v 9.920103 q 0,0.239889 -0.155222,0.395111 -0.155222,0.155222 -0.395111,0.155222 z" />
    </g>
    <g
       style="font-style:normal;font-weight:normal;font-size:8.46667px;line-height:1.25;font-family:sans-serif;letter-spacing:1.32292px;fill:#4e5153;fill-opacity:1;stroke:none;stroke-width:0.264583"
       id="text929"
       transform="translate(1.0690781,-0.93544335)"
       aria-label="AMPS">
      <path
         id="path1774"
         style="font-style:normal;font-variant:normal;font-weight:normal;font-stretch:normal;font-family:Comfortaa;-inkscape-font-specification:Comfortaa"
         d="m 47.683974,90.246769 q -0.07655,-0.179055 0.03808,-0.320144 0.114631,-0.14109 0.281388,-0.138721 l 6.412481,-0.03444 q 0.246807,-0.0042 0.336674,0.205963 0.08654,0.20241 -0.08704,0.377912 l -4.459836,4.623129 q -0.117959,0.133305 -0.29803,0.0998 -0.176742,-0.02572 -0.246639,-0.189209 -0.03994,-0.09342 -0.02651,-0.19124 0.01675,-0.09004 0.0902,-0.176686 l 4.277284,-4.360921 0.103181,0.241335 -6.114563,0.0636 q -0.110062,0.001 -0.190056,-0.05686 -0.07667,-0.05009 -0.116607,-0.143515 z m 1.667685,-0.105273 0.621447,0.01055 1.351332,3.16071 -0.421743,0.456553 z" />
      <path
         id="path1776"
         style="font-style:normal;font-variant:normal;font-weight:normal;font-stretch:normal;font-family:Comfortaa;-inkscape-font-specification:Comfortaa"
         d="m 51.110837,97.455524 q -0.08282,-0.107198 -0.07124,-0.244538 0.02346,-0.135816 0.130653,-0.218641 l 4.709987,-3.639114 q 0.113897,-0.088 0.244538,-0.07124 0.135816,0.02346 0.218641,0.130654 0.124237,0.160796 0.04718,0.338025 l -2.744396,5.726133 -0.176003,-0.227794 6.20233,-1.250641 q 0.196116,-0.02313 0.315176,0.130963 0.08282,0.107198 0.06607,0.237838 -0.01676,0.13064 -0.130654,0.218642 l -4.709987,3.639114 q -0.107197,0.0828 -0.244537,0.0712 -0.13064,-0.0168 -0.213465,-0.12395 -0.088,-0.1139 -0.07642,-0.25124 0.02346,-0.13581 0.130654,-0.21864 l 4.033303,-3.11628 0.0813,0.119073 -5.567085,1.145007 q -0.184239,0.02466 -0.303299,-0.129441 -0.129414,-0.167496 -0.02556,-0.365431 l 2.44227,-5.064722 0.13703,0.108114 -4.033303,3.116282 q -0.107198,0.08282 -0.249714,0.06455 -0.130641,-0.01676 -0.213465,-0.123954 z" />
      <path
         id="path1778"
         style="font-style:normal;font-variant:normal;font-weight:normal;font-stretch:normal;font-family:Comfortaa;-inkscape-font-specification:Comfortaa"
         d="m 57.474556,104.65366 q -0.112744,-0.0895 -0.127801,-0.22033 -0.01506,-0.13084 0.07442,-0.24359 l 3.700016,-4.662293 q 0.08947,-0.112744 0.220321,-0.127801 0.130847,-0.01506 0.243591,0.07442 l 1.3264,1.052637 q 0.490768,0.38948 0.695107,0.90833 0.209602,0.51223 0.121825,1.05867 -0.08778,0.54645 -0.482516,1.04385 -0.384212,0.48414 -0.896437,0.69374 -0.506962,0.20297 -1.058671,0.12182 -0.546446,-0.0878 -1.037214,-0.47725 l -1.067752,-0.84737 -1.247374,1.57178 q -0.08947,0.11275 -0.220321,0.1278 -0.130847,0.0151 -0.243591,-0.0744 z m 2.106024,-2.12257 1.067752,0.84737 q 0.338232,0.26842 0.719302,0.33305 0.386333,0.058 0.742765,-0.0915 0.363063,-0.14423 0.631485,-0.48246 0.278949,-0.3515 0.33694,-0.73783 0.06462,-0.38107 -0.0796,-0.74413 -0.144226,-0.36307 -0.482458,-0.63149 l -1.067752,-0.84737 z" />
      <path
         id="path1780"
         style="font-style:normal;font-variant:normal;font-weight:normal;font-stretch:normal;font-family:Comfortaa;-inkscape-font-specification:Comfortaa"
         d="m 64.249445,109.26158 q -0.482923,-0.24578 -0.82881,-0.59281 -0.334502,-0.35074 -0.50576,-0.76091 -0.171259,-0.41016 -0.156907,-0.83036 0.0011,-0.15145 0.103821,-0.22266 0.114128,-0.0749 0.269152,-0.0435 0.121,0.0236 0.192212,0.12632 0.07876,0.10658 0.07781,0.2391 0.0018,0.27643 0.132317,0.56135 0.130499,0.28492 0.382403,0.53662 0.255743,0.24416 0.617935,0.42849 0.399921,0.20353 0.774577,0.2327 0.378497,0.0216 0.678775,-0.13905 0.311664,-0.16439 0.495995,-0.52658 0.234255,-0.46029 0.06367,-0.96511 -0.170585,-0.50482 -0.848886,-0.96403 -0.82908,-0.55494 -1.10436,-1.24605 -0.27144,-0.69865 0.05498,-1.34003 0.234254,-0.46028 0.648526,-0.67695 0.421818,-0.21283 0.944087,-0.17503 0.526109,0.0302 1.084488,0.31443 0.415012,0.21121 0.685442,0.51984 0.274271,0.30109 0.411912,0.64664 0.149026,0.34185 0.176917,0.67905 0.01401,0.15913 -0.07377,0.25695 -0.08024,0.10167 -0.216601,0.10827 -0.140067,-0.005 -0.241597,-0.10396 -0.09398,-0.0953 -0.100585,-0.23169 -0.02486,-0.23115 -0.121606,-0.47039 -0.08536,-0.24295 -0.280738,-0.45638 -0.195378,-0.21344 -0.531093,-0.39379 -0.596108,-0.30338 -1.088868,-0.23116 -0.48892,0.0647 -0.734695,0.5476 -0.130568,0.25655 -0.106113,0.5445 0.0283,0.2804 0.257023,0.59631 0.240113,0.3122 0.729908,0.65648 0.874084,0.61585 1.10025,1.29146 0.237552,0.6719 -0.12343,1.38119 -0.207373,0.40747 -0.519576,0.64758 -0.304658,0.24396 -0.687669,0.32453 -0.371625,0.0769 -0.79142,0.006 -0.41225,-0.0673 -0.819716,-0.27468 z" />
    </g>
    <g
       style="font-style:normal;font-weight:normal;font-size:8.46667px;line-height:1.25;font-family:sans-serif;letter-spacing:1.32292px;fill:#4e5153;fill-opacity:1;stroke:none;stroke-width:0.264583"
       id="text946"
       transform="rotate(-92.240302,78.412318,79.663385)"
       aria-label="OHMS">
      <path
         id="path1765"
         style="font-style:normal;font-variant:normal;font-weight:normal;font-stretch:normal;font-family:Comfortaa;-inkscape-font-specification:Comfortaa"
         d="m 48.963324,93.422304 q -0.308219,-0.669015 -0.336144,-1.336655 -0.02793,-0.66764 0.196017,-1.274199 0.227485,-0.598869 0.68256,-1.088184 0.458618,-0.481626 1.127633,-0.789845 0.661325,-0.304676 1.325422,-0.340291 0.66764,-0.02793 1.270656,0.188327 0.606559,0.223942 1.095874,0.679017 0.489316,0.455076 0.797534,1.124091 0.304677,0.661325 0.332602,1.328965 0.02793,0.667639 -0.196017,1.274198 -0.223942,0.606559 -0.68256,1.088185 -0.455075,0.489315 -1.1164,0.793991 -0.669015,0.308219 -1.336655,0.336145 -0.664097,0.03562 -1.270656,-0.188327 -0.606559,-0.223943 -1.095874,-0.679018 -0.489316,-0.455075 -0.793992,-1.1164 z m 0.569047,-0.262163 q 0.24445,0.530598 0.638028,0.899272 0.401267,0.365131 0.891958,0.539913 0.501923,0.178929 1.040649,0.154462 0.546415,-0.02801 1.084703,-0.276001 0.530598,-0.244449 0.899272,-0.638027 0.376364,-0.39712 0.558836,-0.891354 0.193704,-0.490086 0.169238,-1.028812 -0.01678,-0.542268 -0.261226,-1.072866 -0.247992,-0.538288 -0.64926,-0.903419 -0.393578,-0.368674 -0.895501,-0.547603 -0.49069,-0.174782 -1.037106,-0.146773 -0.538725,0.02447 -1.069324,0.268915 -0.538288,0.247993 -0.914651,0.645113 -0.368674,0.393578 -0.562379,0.883664 -0.182471,0.494233 -0.165695,1.036502 0.02447,0.538726 0.272458,1.077014 z" />
      <path
         id="path1767"
         style="font-style:normal;font-variant:normal;font-weight:normal;font-stretch:normal;font-family:Comfortaa;-inkscape-font-specification:Comfortaa"
         d="m 52.190766,98.96348 q -0.09231,-0.110437 -0.08057,-0.241624 0.01173,-0.131187 0.122169,-0.223493 l 4.566906,-3.817132 q 0.110437,-0.09231 0.241624,-0.08057 0.131187,0.01173 0.223493,0.122169 0.09231,0.110438 0.08057,0.241625 -0.01173,0.131186 -0.122169,0.223493 l -2.026848,1.69409 2.64973,3.170197 2.026849,-1.694088 q 0.110437,-0.09231 0.241624,-0.08057 0.131187,0.01173 0.223493,0.122169 0.09231,0.110438 0.08057,0.241625 -0.01173,0.131186 -0.122169,0.223493 l -4.566905,3.817136 q -0.110437,0.0923 -0.241624,0.0806 -0.131187,-0.0117 -0.223493,-0.12217 -0.09231,-0.11044 -0.08058,-0.24162 0.01173,-0.13119 0.122169,-0.2235 l 2.085316,-1.74295 -2.649731,-3.170203 -2.085315,1.742958 q -0.110438,0.09231 -0.241624,0.08057 -0.131187,-0.01173 -0.223494,-0.12217 z" />
      <path
         id="path1769"
         style="font-style:normal;font-variant:normal;font-weight:normal;font-stretch:normal;font-family:Comfortaa;-inkscape-font-specification:Comfortaa"
         d="m 57.945491,105.18563 q -0.111537,-0.0769 -0.142334,-0.21123 -0.01902,-0.1365 0.05786,-0.24804 l 3.377966,-4.900662 q 0.08169,-0.118508 0.211224,-0.142334 0.136508,-0.01902 0.248045,0.05786 0.167306,0.115322 0.147886,0.307596 l -0.870148,6.28993 -0.237016,-0.16337 5.526821,-3.08014 q 0.179755,-0.0818 0.340089,0.0288 0.111537,0.0769 0.135363,0.20642 0.02383,0.12954 -0.05786,0.24805 l -3.377966,4.90066 q -0.07688,0.11154 -0.211223,0.14233 -0.129538,0.0238 -0.241075,-0.053 -0.118508,-0.0817 -0.149305,-0.21603 -0.01902,-0.13651 0.05786,-0.24805 l 2.892653,-4.19658 0.113703,0.0887 -4.953923,2.78606 q -0.167978,0.0796 -0.328312,-0.0309 -0.174277,-0.12012 -0.135637,-0.34028 l 0.783805,-5.56792 0.163447,0.0612 -2.892653,4.19658 q -0.07688,0.11154 -0.218195,0.13753 -0.129538,0.0238 -0.241075,-0.053 z" />
      <path
         id="path1771"
         style="font-style:normal;font-variant:normal;font-weight:normal;font-stretch:normal;font-family:Comfortaa;-inkscape-font-specification:Comfortaa"
         d="m 67.757183,110.79322 q -0.507691,-0.18939 -0.890721,-0.49494 -0.372138,-0.31052 -0.588829,-0.6986 -0.216692,-0.38809 -0.250111,-0.8072 -0.01611,-0.1506 0.07789,-0.23301 0.104892,-0.0874 0.262476,-0.0738 0.122894,0.01 0.205304,0.1037 0.09034,0.097 0.104442,0.22873 0.03317,0.27444 0.195155,0.54271 0.161984,0.26827 0.44082,0.48976 0.281796,0.21357 0.662564,0.35561 0.420431,0.15684 0.795978,0.14332 0.378506,-0.0215 0.658614,-0.21517 0.290999,-0.19869 0.433044,-0.57946 0.180515,-0.48389 -0.04625,-0.9661 -0.226762,-0.4822 -0.952787,-0.86148 -0.886692,-0.4573 -1.23861,-1.1127 -0.348959,-0.66334 -0.09742,-1.33762 0.180515,-0.48389 0.567528,-0.74617 0.394945,-0.25931 0.91813,-0.28101 0.526143,-0.0296 1.113161,0.18934 0.436296,0.16276 0.74,0.43872 0.306662,0.26802 0.482621,0.59572 0.186851,0.32273 0.252822,0.65459 0.03198,0.15651 -0.04414,0.26367 -0.06819,0.11011 -0.202919,0.13214 -0.139705,0.0111 -0.251831,-0.0759 -0.104194,-0.0841 -0.126225,-0.21878 -0.05093,-0.22685 -0.174193,-0.45356 -0.112374,-0.23169 -0.330708,-0.42158 -0.218334,-0.18989 -0.572345,-0.33099 -0.626681,-0.23378 -1.108064,-0.10612 -0.478424,0.11974 -0.667817,0.62743 -0.100616,0.26971 -0.04365,0.55302 0.05993,0.27538 0.323023,0.5633 0.273986,0.28294 0.79968,0.56942 0.938317,0.5127 1.23968,1.15828 0.312255,0.64061 0.03408,1.38628 -0.1598,0.42836 -0.442743,0.70235 -0.27501,0.27695 -0.646405,0.40046 -0.360503,0.11854 -0.78566,0.0955 -0.417224,-0.0201 -0.845588,-0.1799 z" />
    </g>
    <path
       d="m 87.981598,55.649251 q -0.202979,-0.07947 -0.207658,-0.305049 l -0.05861,-6.243026 q 0.0055,-0.248448 0.132714,-0.341826 0.138742,-0.09782 0.333601,-0.02153 0.202978,0.07947 0.207657,0.305049 l 0.0066,5.909417 -0.178621,-0.06993 4.460279,-4.142568 q 0.09949,-0.09529 0.192879,-0.112426 0.09338,-0.01714 0.21517,0.03055 0.18674,0.07311 0.190759,0.235784 0.0074,0.155044 -0.140145,0.294169 l -4.785817,4.382047 q -0.09611,0.08767 -0.189492,0.104802 -0.09,0.0095 -0.17931,-0.02546 z"
       style="font-style:normal;font-variant:normal;font-weight:normal;font-stretch:normal;font-size:10.5833px;line-height:1.25;font-family:Comfortaa;-inkscape-font-specification:Comfortaa;letter-spacing:0px;fill:#4e5153;fill-opacity:1;stroke:none;stroke-width:0.213109"
       id="path1049" />
    <path
       d="m 93.759299,58.888432 q -0.610393,-0.433506 -0.963374,-0.994904 -0.352981,-0.561399 -0.445308,-1.186244 -0.08531,-0.619863 0.09157,-1.2503 0.183891,-0.625454 0.645535,-1.198643 0.456337,-0.566602 1.047158,-0.903051 0.597836,-0.331467 1.256221,-0.42315 0.665402,-0.0867 1.336759,0.0794 0.671355,0.166094 1.281748,0.599601 0.603377,0.428524 0.956358,0.989922 0.35298,0.561399 0.445308,1.186244 0.09233,0.624846 -0.09157,1.2503 -0.176876,0.630437 -0.633213,1.197038 -0.461644,0.573189 -1.05948,0.904656 -0.59082,0.33645 -1.256222,0.42315 -0.665402,0.0867 -1.336758,-0.07939 -0.671355,-0.166096 -1.274732,-0.59462 z m 0.392662,-0.48754 q 0.484105,0.343816 1.025399,0.479681 0.546601,0.129278 1.081763,0.05365 0.547487,-0.07723 1.028939,-0.34636 0.486759,-0.275714 0.858196,-0.736902 0.366131,-0.454598 0.510816,-0.962901 0.14999,-0.51489 0.07476,-1.024024 -0.06291,-0.510739 -0.349502,-0.962847 -0.281288,-0.458697 -0.765393,-0.802512 -0.49112,-0.348799 -1.03772,-0.478077 -0.541295,-0.135865 -1.08878,-0.05863 -0.535164,0.07562 -1.021923,0.351343 -0.481452,0.269126 -0.847583,0.723725 -0.371437,0.461187 -0.521428,0.976078 -0.144685,0.508302 -0.08178,1.019042 0.07523,0.509133 0.356518,0.967829 0.286594,0.452109 0.777714,0.800907 z"
       style="font-style:normal;font-variant:normal;font-weight:normal;font-stretch:normal;font-size:10.5833px;line-height:1.25;font-family:Comfortaa;-inkscape-font-specification:Comfortaa;letter-spacing:0px;fill:#4e5153;fill-opacity:1;stroke:none;stroke-width:0.213109"
       id="path1051" />
    <path
       d="m 97.705469,62.159614 q -0.09035,-0.101343 -0.08392,-0.235678 0.01208,-0.128001 0.126746,-0.218144 l 4.741745,-3.727697 q 0.10792,-0.08484 0.24423,-0.0735 0.1487,0.01238 0.23905,0.113719 0.0904,0.101342 0.0715,0.234646 -0.006,0.134335 -0.11435,0.219175 l -4.505672,3.542108 2.207872,2.476556 q 0.0904,0.101342 0.0783,0.229344 3.3e-4,0.129032 -0.1076,0.213872 -0.10793,0.08484 -0.24988,0.06717 -0.12957,-0.01665 -0.21991,-0.117989 z"
       style="font-style:normal;font-variant:normal;font-weight:normal;font-stretch:normal;font-size:10.5833px;line-height:1.25;font-family:Comfortaa;-inkscape-font-specification:Comfortaa;letter-spacing:0px;fill:#4e5153;fill-opacity:1;stroke:none;stroke-width:0.213109"
       id="path1053" />
    <path
       d="m 101.22889,66.788217 c -0.0466,-0.0765 -0.0593,-0.158463 -0.0382,-0.245896 0.0291,-0.08539 0.0844,-0.14994 0.16582,-0.193665 l 5.66674,-3.041577 0.34049,0.559387 -2.24947,1.207387 -3.41727,1.83419 c -0.0815,0.04372 -0.16875,0.05568 -0.26186,0.03589 -0.088,-0.02254 -0.15676,-0.07444 -0.20623,-0.155715 z m 4.21755,-4.889775 c -0.0466,-0.0765 -0.0589,-0.152315 -0.0371,-0.227453 0.0218,-0.07514 0.0709,-0.133205 0.14727,-0.174196 0.0815,-0.04372 0.16221,-0.05534 0.24222,-0.03486 0.08,0.02048 0.1433,0.06897 0.18987,0.145471 l 2.41396,3.965911 c 0.0466,0.0765 0.0589,0.152316 0.0371,0.227455 -0.0218,0.07514 -0.0734,0.13457 -0.15492,0.178294 -0.0764,0.04099 -0.15456,0.05125 -0.23458,0.03076 -0.08,-0.02048 -0.1433,-0.06897 -0.18986,-0.145471 z"
       style="font-style:normal;font-variant:normal;font-weight:normal;font-stretch:normal;font-size:10.5833px;line-height:1.25;font-family:Comfortaa;-inkscape-font-specification:Comfortaa;letter-spacing:0px;fill:#4e5153;fill-opacity:1;stroke:none;stroke-width:0.213109"
       id="path1055"
       sodipodi:nodetypes="scccccccsscsssccssscc" />
    <path
       d="m 103.40013,71.630453 q -0.17516,-0.502433 -0.1752,-0.980471 0.0111,-0.472758 0.18583,-0.874157 0.17477,-0.4014 0.4935,-0.681909 0.11187,-0.103924 0.2397,-0.08238 0.13894,0.02683 0.23,0.155284 0.0718,0.09963 0.0488,0.219674 -0.0202,0.127898 -0.11808,0.21883 -0.20139,0.192287 -0.31431,0.479061 -0.11292,0.286775 -0.11213,0.634205 0.009,0.344861 0.14052,0.721686 0.14505,0.416077 0.39938,0.694259 0.26269,0.275613 0.60151,0.371366 0.34993,0.101033 0.75121,-0.02235 0.50997,-0.156769 0.75465,-0.62312 0.24469,-0.466353 0.0823,-1.250842 -0.20316,-0.95449 0.1011,-1.621683 0.31261,-0.669762 1.02322,-0.88821 0.50996,-0.156768 0.97375,-0.02117 0.46651,0.143419 0.82315,0.52922 0.365,0.38323 0.56752,0.964169 0.15052,0.431778 0.12319,0.831311 -0.019,0.396963 -0.17109,0.73056 -0.14103,0.338877 -0.3678,0.591116 -0.1064,0.119625 -0.24274,0.126772 -0.13362,0.015 -0.23881,-0.07435 -0.0996,-0.09977 -0.10156,-0.238226 7.1e-4,-0.130608 0.0959,-0.229392 0.15123,-0.176867 0.25549,-0.408829 0.11535,-0.22668 0.1281,-0.508736 0.0127,-0.282057 -0.10205,-0.6379 -0.21621,-0.620191 -0.63182,-0.909638 -0.40724,-0.292016 -0.94229,-0.127538 -0.28424,0.08738 -0.47742,0.303217 -0.18482,0.213269 -0.24817,0.58911 -0.0523,0.381121 0.0557,0.956356 0.19162,1.027575 -0.13742,1.650235 -0.31794,0.62794 -1.10379,0.869516 -0.45144,0.138779 -0.8573,0.08971 -0.40312,-0.04122 -0.74408,-0.249311 -0.32987,-0.202809 -0.58664,-0.541085 -0.25403,-0.330425 -0.40181,-0.754353 z"
       style="font-style:normal;font-variant:normal;font-weight:normal;font-stretch:normal;font-size:10.5833px;line-height:1.25;font-family:Comfortaa;-inkscape-font-specification:Comfortaa;letter-spacing:0px;fill:#4e5153;fill-opacity:1;stroke:none;stroke-width:0.213109"
       id="path1057" />
    <path
       d="m 55.825695,71.329263 q -0.0548,0.111802 -0.169729,0.164419 -0.111014,0.04463 -0.238473,0.02178 L 49.08088,70.440011 q -0.21906,-0.03804 -0.311606,-0.17254 -0.08863,-0.142486 -0.0064,-0.310189 0.04697,-0.09583 0.142013,-0.148289 0.09097,-0.06436 0.246303,-0.03774 l 5.867021,1.04337 -0.09003,0.183675 -4.322145,-3.851737 q -0.0761,-0.06702 -0.09286,-0.174272 -0.01285,-0.115244 0.03804,-0.21906 0.04697,-0.09583 0.145928,-0.156276 0.09097,-0.06436 0.20653,-0.03743 l 5.688048,1.044786 -0.09003,0.183675 -4.446792,-4.021779 q -0.180233,-0.157671 -0.05889,-0.405233 0.0822,-0.167703 0.249273,-0.165048 0.159086,-0.0012 0.319276,0.136683 l 4.727714,4.33775 q 0.108203,0.102557 0.137019,0.225629 0.02474,0.111172 -0.03005,0.222974 -0.0548,0.111803 -0.169728,0.164419 -0.111015,0.04463 -0.238474,0.02178 l -5.752093,-1.095986 0.09394,-0.191661 4.385875,3.863164 q 0.100216,0.09864 0.129033,0.221715 0.03273,0.115086 -0.02206,0.226889 z"
       id="path1038"
       style="font-style:normal;font-variant:normal;font-weight:normal;font-stretch:normal;font-size:10.5833px;line-height:1.25;font-family:Comfortaa;-inkscape-font-specification:Comfortaa;letter-spacing:0px;fill:#4e5153;fill-opacity:1;stroke:none;stroke-width:0.222339" />
    <path
       d="m 58.621915,66.189042 q -0.130655,0.157387 -0.317476,0.117884 -0.186822,-0.03951 -0.264549,-0.196497 l -3.106245,-5.976897 q -0.122271,-0.228649 0.03111,-0.413407 0.147697,-0.177916 0.394942,-0.09981 l 6.458981,1.952103 q 0.181141,0.04634 0.236145,0.230713 0.06069,0.177522 -0.05861,0.321224 -0.06817,0.08211 -0.166031,0.11646 -0.09218,0.0275 -0.208382,3.77e-4 l -6.126394,-1.907181 0.1761,-0.21213 2.990686,5.684467 q 0.05371,0.102382 0.03796,0.204895 -0.01007,0.09567 -0.07823,0.177785 z m -0.897859,-1.50823 -0.288057,-0.585889 2.306337,-2.778221 0.628894,0.175314 z"
       id="path1040"
       style="font-style:normal;font-variant:normal;font-weight:normal;font-stretch:normal;font-size:10.5833px;line-height:1.25;font-family:Comfortaa;-inkscape-font-specification:Comfortaa;letter-spacing:0px;fill:#4e5153;fill-opacity:1;stroke:none;stroke-width:0.222339" />
    <path
       d="m 64.112742,60.475267 q -0.111089,0.08892 -0.255542,0.07924 -0.143067,-0.02218 -0.231991,-0.13327 l -4.123865,-5.151756 0.541559,-0.433506 4.123865,5.151756 q 0.08892,0.111089 0.07924,0.255541 -0.01524,0.137509 -0.133271,0.231991 z m -5.862304,-3.395634 q -0.111089,0.08892 -0.236097,0.07507 -0.125009,-0.01385 -0.208375,-0.117999 -0.08892,-0.111089 -0.07507,-0.236098 0.01385,-0.125008 0.124942,-0.213933 l 3.839516,-3.073446 q 0.111089,-0.08892 0.236098,-0.07507 0.125008,0.01386 0.213932,0.124942 0.08337,0.104146 0.06952,0.229154 -0.01385,0.125009 -0.124942,0.213933 z"
       id="path1042"
       style="font-style:normal;font-variant:normal;font-weight:normal;font-stretch:normal;font-size:10.5833px;line-height:1.25;font-family:Comfortaa;-inkscape-font-specification:Comfortaa;letter-spacing:0px;fill:#4e5153;fill-opacity:1;stroke:none;stroke-width:0.222339" />
    <path
       d="m 68.997521,57.33184 q -0.126658,0.06485 -0.266239,0.02642 -0.135719,-0.05041 -0.200573,-0.177062 l -3.007663,-5.87374 0.617454,-0.316169 3.007664,5.873739 q 0.06485,0.126658 0.02642,0.266238 -0.04249,0.131666 -0.177063,0.200575 z m -5.062794,-4.501671 q -0.126657,0.06485 -0.246353,0.02623 -0.119695,-0.03863 -0.180497,-0.157369 -0.06486,-0.126657 -0.02623,-0.246352 0.03863,-0.119696 0.165284,-0.18455 l 4.377599,-2.241561 q 0.126657,-0.06485 0.246352,-0.02623 0.119696,0.03863 0.18455,0.165284 0.0608,0.11874 0.02217,0.238436 -0.03863,0.119695 -0.165284,0.184551 z"
       id="path1044"
       style="font-style:normal;font-variant:normal;font-weight:normal;font-stretch:normal;font-size:10.5833px;line-height:1.25;font-family:Comfortaa;-inkscape-font-specification:Comfortaa;letter-spacing:0px;fill:#4e5153;fill-opacity:1;stroke:none;stroke-width:0.222339" />
    <path
       d="m 74.306351,55.378912 q -0.548522,0.151976 -1.062651,0.128308 -0.507933,-0.03461 -0.931497,-0.231031 -0.423563,-0.196417 -0.710405,-0.53223 -0.106559,-0.118134 -0.07743,-0.246174 0.03532,-0.138987 0.177719,-0.224583 0.11049,-0.06753 0.238532,-0.0384 0.136611,0.02675 0.22985,0.130117 0.197424,0.21293 0.50059,0.341191 0.303165,0.128261 0.676861,0.144695 0.371322,0.0078 0.782713,-0.106119 0.454245,-0.125855 0.765273,-0.368915 0.308654,-0.251632 0.427417,-0.589079 0.124959,-0.348394 0.01101,-0.759785 -0.144851,-0.52281 -0.635014,-0.793062 -0.490163,-0.27025 -1.341441,-0.145135 -1.036012,0.157841 -1.739403,-0.182532 -0.705767,-0.348943 -0.907609,-1.07745 -0.144852,-0.522809 0.02256,-0.984477 0.175973,-0.464042 0.60751,-0.805091 0.429162,-0.34962 1.063391,-0.525342 0.471386,-0.130603 0.899808,-0.08319 0.426049,0.03884 0.777744,0.20903 0.357892,0.159242 0.618613,0.400777 0.123701,0.113384 0.125037,0.251442 0.0099,0.135684 -0.09109,0.237494 -0.111937,0.09561 -0.260941,0.09076 -0.140433,-0.0072 -0.242243,-0.108226 -0.183176,-0.161507 -0.427793,-0.278304 -0.238422,-0.127741 -0.541178,-0.154602 -0.302757,-0.02686 -0.690811,0.07143 -0.677082,0.187594 -1.007737,0.592979 -0.333029,0.396813 -0.181053,0.945335 0.08074,0.291403 0.303873,0.497208 0.220761,0.197235 0.622025,0.27986 0.40746,0.07168 1.031152,-0.0088 1.114075,-0.142556 1.768418,0.220635 0.660537,0.352247 0.883751,1.157889 0.12823,0.462815 0.05655,0.870275 -0.0631,0.405086 -0.302789,0.739121 -0.233483,0.32309 -0.609255,0.565632 -0.367202,0.240167 -0.830017,0.368396 z"
       id="path1046"
       style="font-style:normal;font-variant:normal;font-weight:normal;font-stretch:normal;font-size:10.5833px;line-height:1.25;font-family:Comfortaa;-inkscape-font-specification:Comfortaa;letter-spacing:0px;fill:#4e5153;fill-opacity:1;stroke:none;stroke-width:0.222339" />
    <g
       style="font-style:normal;font-weight:normal;font-size:9.87778px;line-height:1.25;font-family:sans-serif;fill:#fed700;fill-opacity:1;stroke:none;stroke-width:0.264583"
       id="text1062"
       aria-label="V">
      <path
         id="path1762"
         style="font-style:normal;font-variant:normal;font-weight:normal;font-stretch:normal;font-size:9.87778px;font-family:Comfortaa;-inkscape-font-specification:Comfortaa;fill:#fed700;fill-opacity:1;stroke-width:0.264583"
         d="m 92.715999,132.28934 q -0.246944,0 -0.3556,-0.24695 l -2.933701,-6.86505 q -0.108655,-0.27658 -0.01976,-0.43463 0.09878,-0.16792 0.335844,-0.16792 0.246945,0 0.3556,0.24695 l 2.726268,6.51933 h -0.217311 l 2.716389,-6.49958 q 0.05927,-0.14817 0.148167,-0.20743 0.0889,-0.0593 0.237066,-0.0593 0.227189,0 0.306212,0.1778 0.07902,0.16792 -0.0099,0.38523 l -2.943579,6.90457 q -0.05927,0.13829 -0.148166,0.19756 -0.0889,0.0494 -0.197556,0.0494 z" />
    </g>
    <path
       id="path1064"
       d="m 87.441605,134.27371 c 3.512293,0 7.024322,0 10.536086,0"
       style="fill:none;stroke:#fed700;stroke-width:0.265;stroke-linecap:round;stroke-linejoin:miter;stroke-miterlimit:4;stroke-dasharray:none;stroke-opacity:1" />
    <g
       style="font-style:normal;font-weight:normal;font-size:9.87778px;line-height:1.25;font-family:sans-serif;fill:#fed700;fill-opacity:1;stroke:none;stroke-width:0.264583"
       id="text1070"
       aria-label="P">
      <path
         id="path1759"
         style="font-style:normal;font-variant:normal;font-weight:normal;font-stretch:normal;font-size:9.87778px;font-family:Comfortaa;-inkscape-font-specification:Comfortaa;fill:#fed700;fill-opacity:1;stroke-width:0.264583"
         d="m 90.669886,143.72311 q -0.167922,0 -0.276577,-0.10865 -0.108656,-0.10866 -0.108656,-0.27658 v -6.94408 q 0,-0.16792 0.108656,-0.27658 0.108655,-0.10865 0.276577,-0.10865 h 1.975556 q 0.730956,0 1.29399,0.32596 0.563033,0.31609 0.879122,0.87913 0.316089,0.56303 0.316089,1.30386 0,0.72108 -0.316089,1.28412 -0.316089,0.55315 -0.879122,0.87912 -0.563034,0.31609 -1.29399,0.31609 H 91.05512 v 2.34103 q 0,0.16792 -0.108656,0.27658 -0.108655,0.10865 -0.276578,0.10865 z m 0.385234,-3.4671 h 1.590322 q 0.503767,0 0.898878,-0.21731 0.395112,-0.22719 0.612423,-0.6223 0.227189,-0.39511 0.227189,-0.89888 0,-0.52352 -0.227189,-0.91863 -0.217311,-0.39511 -0.612423,-0.6223 -0.395111,-0.22719 -0.898878,-0.22719 H 91.05512 Z" />
    </g>
    <g
       style="font-style:normal;font-weight:normal;font-size:3.9568px;line-height:1.25;font-family:sans-serif;fill:#fed700;fill-opacity:1;stroke:none;stroke-width:0.105985"
       id="text1086"
       aria-label="2">
      <path
         id="path1756"
         style="font-style:normal;font-variant:normal;font-weight:normal;font-stretch:normal;font-size:3.9568px;font-family:Comfortaa;-inkscape-font-specification:Comfortaa;fill:#fed700;fill-opacity:1;stroke-width:0.105985"
         d="m 97.206259,126.65686 q -0.06331,0 -0.11079,-0.0435 -0.04352,-0.0435 -0.04352,-0.11079 0,-0.0594 0.04352,-0.10684 l 1.19891,-1.41653 q 0.09892,-0.10684 0.158272,-0.23741 0.05935,-0.13453 0.05935,-0.24928 0,-0.18597 -0.07518,-0.32841 -0.07122,-0.14245 -0.205753,-0.22158 -0.130575,-0.0831 -0.300717,-0.0831 -0.166186,0 -0.304674,0.0871 -0.134531,0.0831 -0.213667,0.22554 -0.07518,0.14244 -0.07518,0.3205 0,0.0633 -0.04353,0.10683 -0.04352,0.0435 -0.11079,0.0435 -0.06331,0 -0.110791,-0.0435 -0.04352,-0.0435 -0.04352,-0.10683 0,-0.2651 0.118704,-0.47482 0.118704,-0.20971 0.320501,-0.33237 0.205754,-0.12266 0.462946,-0.12266 0.257192,0 0.455032,0.11871 0.201797,0.1187 0.312587,0.32841 0.114747,0.20971 0.114747,0.48273 0,0.13058 -0.04353,0.24928 -0.03957,0.1187 -0.11079,0.22949 -0.07122,0.10684 -0.154315,0.2018 l -1.012941,1.17517 h 1.238478 q 0.06331,0 0.106834,0.0475 0.04748,0.0475 0.04748,0.10684 0,0.0673 -0.04748,0.11079 -0.04353,0.0435 -0.106834,0.0435 z" />
    </g>
    <g
       style="font-style:normal;font-weight:normal;font-size:9.87778px;line-height:1.25;font-family:sans-serif;fill:#fed700;fill-opacity:1;stroke:none;stroke-width:0.264583"
       id="text1074"
       aria-label="P">
      <path
         id="path1747"
         style="font-style:normal;font-variant:normal;font-weight:normal;font-stretch:normal;font-size:9.87778px;font-family:Comfortaa;-inkscape-font-specification:Comfortaa;fill:#fed700;fill-opacity:1;stroke-width:0.264583"
         d="m 115.86668,117.12412 q -0.16792,0 -0.27658,-0.10865 -0.10865,-0.10866 -0.10865,-0.27658 v -6.94408 q 0,-0.16792 0.10865,-0.27658 0.10866,-0.10865 0.27658,-0.10865 h 1.97556 q 0.73095,0 1.29398,0.32596 0.56304,0.31609 0.87913,0.87913 0.31609,0.56303 0.31609,1.30386 0,0.72108 -0.31609,1.28411 -0.31609,0.55316 -0.87913,0.87913 -0.56303,0.31609 -1.29398,0.31609 h -1.59033 v 2.34103 q 0,0.16792 -0.10865,0.27658 -0.10866,0.10865 -0.27658,0.10865 z m 0.38523,-3.4671 h 1.59033 q 0.50376,0 0.89887,-0.21731 0.39511,-0.22719 0.61243,-0.6223 0.22718,-0.39511 0.22718,-0.89888 0,-0.52352 -0.22718,-0.91863 -0.21732,-0.39511 -0.61243,-0.6223 -0.39511,-0.22719 -0.89887,-0.22719 h -1.59033 z" />
    </g>
    <path
       style="fill:none;stroke:#fed700;stroke-width:0.265;stroke-linecap:round;stroke-linejoin:miter;stroke-miterlimit:4;stroke-dasharray:none;stroke-opacity:1"
       d="m 112.6384,119.1085 c 3.5123,0 7.02432,0 10.53609,0"
       id="path1076" />
    <g
       style="font-style:normal;font-weight:normal;font-size:9.87778px;line-height:1.25;font-family:sans-serif;fill:#fed700;fill-opacity:1;stroke:none;stroke-width:0.264583"
       id="text1082"
       aria-label="I">
      <path
         id="path1750"
         style="font-style:normal;font-variant:normal;font-weight:normal;font-stretch:normal;font-size:9.87778px;font-family:Comfortaa;-inkscape-font-specification:Comfortaa;fill:#fed700;fill-opacity:1;stroke-width:0.264583"
         d="m 117.90644,128.55791 q -0.16792,0 -0.27657,-0.10866 -0.10866,-0.10865 -0.10866,-0.27658 v -6.94408 q 0,-0.16792 0.10866,-0.27657 0.10865,-0.10866 0.27657,-0.10866 0.16793,0 0.27658,0.10866 0.10866,0.10865 0.10866,0.27657 v 6.94408 q 0,0.16793 -0.10866,0.27658 -0.10865,0.10866 -0.27658,0.10866 z" />
    </g>
    <g
       style="font-style:normal;font-weight:normal;font-size:3.9568px;line-height:1.25;font-family:sans-serif;fill:#fed700;fill-opacity:1;stroke:none;stroke-width:0.105985"
       id="text1090"
       aria-label="2">
      <path
         id="path1753"
         style="font-style:normal;font-variant:normal;font-weight:normal;font-stretch:normal;font-size:3.9568px;font-family:Comfortaa;-inkscape-font-specification:Comfortaa;fill:#fed700;fill-opacity:1;stroke-width:0.105985"
         d="m 119.72373,123.85287 q -0.0633,0 -0.11079,-0.0435 -0.0435,-0.0435 -0.0435,-0.11079 0,-0.0593 0.0435,-0.10683 l 1.19891,-1.41654 q 0.0989,-0.10683 0.15827,-0.2374 0.0594,-0.13454 0.0594,-0.24928 0,-0.18597 -0.0752,-0.32842 -0.0712,-0.14244 -0.20576,-0.22158 -0.13057,-0.0831 -0.30071,-0.0831 -0.16619,0 -0.30468,0.0871 -0.13453,0.0831 -0.21367,0.22554 -0.0752,0.14244 -0.0752,0.3205 0,0.0633 -0.0435,0.10683 -0.0435,0.0435 -0.11079,0.0435 -0.0633,0 -0.11079,-0.0435 -0.0435,-0.0435 -0.0435,-0.10683 0,-0.26511 0.11871,-0.47482 0.1187,-0.20971 0.3205,-0.33237 0.20575,-0.12266 0.46295,-0.12266 0.25719,0 0.45503,0.1187 0.20179,0.11871 0.31258,0.32842 0.11475,0.20971 0.11475,0.48273 0,0.13057 -0.0435,0.24928 -0.0396,0.1187 -0.11079,0.22949 -0.0712,0.10683 -0.15432,0.2018 l -1.01294,1.17517 h 1.23848 q 0.0633,0 0.10683,0.0475 0.0475,0.0475 0.0475,0.10683 0,0.0673 -0.0475,0.11079 -0.0435,0.0435 -0.10683,0.0435 z" />
    </g>
    <g
       style="font-style:normal;font-weight:normal;font-size:9.87777px;line-height:1.25;font-family:sans-serif;fill:#fed700;fill-opacity:1;stroke:none;stroke-width:0.264583"
       id="text1074-1"
       aria-label="V">
      <path
         id="path1741"
         style="font-style:normal;font-variant:normal;font-weight:normal;font-stretch:normal;font-size:9.87777px;font-family:Comfortaa;-inkscape-font-specification:Comfortaa;fill:#fed700;fill-opacity:1;stroke-width:0.264583"
         d="m 134.84946,91.422188 q -0.24694,0 -0.3556,-0.246944 l -2.93369,-6.865051 q -0.10866,-0.276577 -0.0198,-0.434622 0.0988,-0.167922 0.33585,-0.167922 0.24694,0 0.3556,0.246944 l 2.72626,6.519329 h -0.21731 l 2.71639,-6.499573 q 0.0593,-0.148167 0.14816,-0.207433 0.0889,-0.05927 0.23707,-0.05927 0.22719,0 0.30621,0.1778 0.079,0.167922 -0.01,0.385233 l -2.94357,6.904562 q -0.0593,0.138288 -0.14817,0.197555 -0.0889,0.04939 -0.19756,0.04939 z" />
    </g>
    <path
       id="path1076-2"
       d="m 129.44808,93.40657 c 3.5123,0 7.02432,0 10.53609,0"
       style="fill:none;stroke:#fed700;stroke-width:0.264999;stroke-linecap:round;stroke-linejoin:miter;stroke-miterlimit:4;stroke-dasharray:none;stroke-opacity:1" />
    <g
       style="font-style:normal;font-weight:normal;font-size:9.87777px;line-height:1.25;font-family:sans-serif;fill:#fed700;fill-opacity:1;stroke:none;stroke-width:0.264583"
       id="text1082-7"
       aria-label="I">
      <path
         id="path1744"
         style="font-style:normal;font-variant:normal;font-weight:normal;font-stretch:normal;font-size:9.87777px;font-family:Comfortaa;-inkscape-font-specification:Comfortaa;fill:#fed700;fill-opacity:1;stroke-width:0.264583"
         d="m 134.71612,102.85597 q -0.16792,0 -0.27658,-0.10865 -0.10865,-0.10866 -0.10865,-0.27658 v -6.944073 q 0,-0.167922 0.10865,-0.276578 0.10866,-0.108655 0.27658,-0.108655 0.16792,0 0.27658,0.108655 0.10865,0.108656 0.10865,0.276578 v 6.944073 q 0,0.16792 -0.10865,0.27658 -0.10866,0.10865 -0.27658,0.10865 z" />
    </g>
    <g
       style="font-style:normal;font-weight:normal;font-size:9.87777px;line-height:1.25;font-family:sans-serif;fill:#fed700;fill-opacity:1;stroke:none;stroke-width:0.264583"
       id="text1074-5"
       aria-label="V">
      <path
         id="path1735"
         style="font-style:normal;font-variant:normal;font-weight:normal;font-stretch:normal;font-size:9.87777px;font-family:Comfortaa;-inkscape-font-specification:Comfortaa;fill:#fed700;fill-opacity:1;stroke-width:0.264583"
         d="m 66.892586,131.83051 q -0.246945,0 -0.3556,-0.24695 l -2.933698,-6.86505 q -0.108655,-0.27658 -0.01975,-0.43462 0.09878,-0.16792 0.335844,-0.16792 0.246944,0 0.355599,0.24694 l 2.726265,6.51933 H 66.78393 l 2.716387,-6.49957 q 0.05927,-0.14817 0.148167,-0.20744 0.0889,-0.0593 0.237066,-0.0593 0.227189,0 0.306211,0.1778 0.07902,0.16792 -0.0099,0.38523 l -2.943575,6.90456 q -0.05927,0.13829 -0.148167,0.19756 -0.0889,0.0494 -0.197555,0.0494 z" />
    </g>
    <path
       id="path1076-6"
       d="m 61.618193,133.81487 c 3.5123,0 7.02432,0 10.53609,0"
       style="fill:none;stroke:#fed700;stroke-width:0.264999;stroke-linecap:round;stroke-linejoin:miter;stroke-miterlimit:4;stroke-dasharray:none;stroke-opacity:1" />
    <g
       style="font-style:normal;font-weight:normal;font-size:9.87777px;line-height:1.25;font-family:sans-serif;fill:#fed700;fill-opacity:1;stroke:none;stroke-width:0.264583"
       id="text1082-8"
       aria-label="R">
      <path
         id="path1738"
         style="font-style:normal;font-variant:normal;font-weight:normal;font-stretch:normal;font-size:9.87777px;font-family:Comfortaa;-inkscape-font-specification:Comfortaa;fill:#fed700;fill-opacity:1;stroke-width:0.264583"
         d="m 64.816846,143.16978 q -0.167922,0 -0.276577,-0.10865 -0.108656,-0.10866 -0.108656,-0.27658 v -6.94407 q 0,-0.16792 0.108656,-0.27658 0.108655,-0.10865 0.276577,-0.10865 h 1.847143 q 0.721078,0 1.284111,0.30621 0.563032,0.29633 0.879121,0.83961 0.325967,0.5334 0.325967,1.23472 0,0.67169 -0.325967,1.19521 -0.316089,0.52352 -0.879121,0.81985 -0.563033,0.29634 -1.284111,0.29634 h -1.46191 v 2.63736 q 0,0.16792 -0.108655,0.27658 -0.108656,0.10865 -0.276578,0.10865 z m 4.128908,0 q -0.128411,0 -0.207433,-0.0494 -0.06914,-0.0494 -0.128411,-0.14817 l -1.896532,-3.0226 0.770466,-0.19755 1.768121,2.82504 q 0.148167,0.23706 0.04939,0.41486 -0.0889,0.1778 -0.3556,0.1778 z m -3.743675,-3.76343 h 1.46191 q 0.503767,0 0.889,-0.19755 0.395111,-0.20743 0.622299,-0.56303 0.227189,-0.3556 0.227189,-0.80998 0,-0.48401 -0.227189,-0.84949 -0.227188,-0.37536 -0.622299,-0.58279 -0.385233,-0.20743 -0.889,-0.20743 h -1.46191 z" />
    </g>
    <g
       style="font-style:normal;font-weight:normal;font-size:9.87777px;line-height:1.25;font-family:sans-serif;fill:#fed700;fill-opacity:1;stroke:none;stroke-width:0.264583"
       id="text1184"
       aria-label="P">
      <path
         id="path1729"
         style="font-style:normal;font-variant:normal;font-weight:normal;font-stretch:normal;font-size:9.87777px;font-family:Comfortaa;-inkscape-font-specification:Comfortaa;fill:#fed700;fill-opacity:1;stroke-width:0.264583"
         d="m 38.083261,117.17137 q -0.167922,0 -0.276578,-0.10865 -0.108655,-0.10866 -0.108655,-0.27658 v -6.94407 q 0,-0.16793 0.108655,-0.27658 0.108656,-0.10866 0.276578,-0.10866 h 1.975554 q 0.730955,0 1.293988,0.32597 0.563033,0.31609 0.879122,0.87912 0.316088,0.56303 0.316088,1.30387 0,0.72107 -0.316088,1.28411 -0.316089,0.55315 -0.879122,0.87912 -0.563033,0.31609 -1.293988,0.31609 h -1.590321 v 2.34103 q 0,0.16792 -0.108655,0.27658 -0.108656,0.10865 -0.276578,0.10865 z m 0.385233,-3.4671 h 1.590321 q 0.503766,0 0.898877,-0.21731 0.395111,-0.22719 0.612422,-0.6223 0.227189,-0.39511 0.227189,-0.89887 0,-0.52353 -0.227189,-0.91864 -0.217311,-0.39511 -0.612422,-0.6223 -0.395111,-0.22718 -0.898877,-0.22718 h -1.590321 z" />
    </g>
    <path
       style="fill:none;stroke:#fed700;stroke-width:0.264999;stroke-linecap:round;stroke-linejoin:miter;stroke-miterlimit:4;stroke-dasharray:none;stroke-opacity:1"
       d="m 34.854976,119.15574 c 3.5123,0 7.02432,0 10.53609,0"
       id="path1186" />
    <g
       style="font-style:normal;font-weight:normal;font-size:9.87777px;line-height:1.25;font-family:sans-serif;fill:#fed700;fill-opacity:1;stroke:none;stroke-width:0.264583"
       id="text1190"
       aria-label="V">
      <path
         id="path1732"
         style="font-style:normal;font-variant:normal;font-weight:normal;font-stretch:normal;font-size:9.87777px;font-family:Comfortaa;-inkscape-font-specification:Comfortaa;fill:#fed700;fill-opacity:1;stroke-width:0.264583"
         d="m 40.129368,128.51065 q -0.246945,0 -0.3556,-0.24694 l -2.933698,-6.86505 q -0.108655,-0.27658 -0.01975,-0.43463 0.09878,-0.16792 0.335844,-0.16792 0.246944,0 0.3556,0.24695 l 2.726264,6.51932 h -0.217311 l 2.716387,-6.49957 q 0.05927,-0.14816 0.148167,-0.20743 0.0889,-0.0593 0.237066,-0.0593 0.227189,0 0.306211,0.1778 0.07902,0.16792 -0.0099,0.38523 l -2.943575,6.90457 q -0.05927,0.13829 -0.148167,0.19755 -0.0889,0.0494 -0.197555,0.0494 z" />
    </g>
    <g
       style="font-style:normal;font-weight:normal;font-size:9.87777px;line-height:1.25;font-family:sans-serif;fill:#fed700;fill-opacity:1;stroke:none;stroke-width:0.264583"
       id="text1206"
       aria-label="R x I">
      <path
         id="path1719"
         style="font-style:normal;font-variant:normal;font-weight:normal;font-stretch:normal;font-size:9.87777px;font-family:Comfortaa;-inkscape-font-specification:Comfortaa;fill:#fed700;fill-opacity:1;stroke-width:0.264583"
         d="m 17.855693,70.375328 q -0.167922,0 -0.276577,-0.108655 -0.108656,-0.108656 -0.108656,-0.276578 v -6.944073 q 0,-0.167922 0.108656,-0.276577 0.108655,-0.108656 0.276577,-0.108656 h 1.847143 q 0.721078,0 1.28411,0.306211 0.563033,0.296333 0.879122,0.839611 0.325966,0.533399 0.325966,1.234721 0,0.671688 -0.325966,1.19521 -0.316089,0.523522 -0.879122,0.819855 -0.563032,0.296333 -1.28411,0.296333 h -1.46191 v 2.637365 q 0,0.167922 -0.108655,0.276578 -0.108656,0.108655 -0.276578,0.108655 z m 4.128908,0 q -0.128411,0 -0.207433,-0.04939 -0.06914,-0.04939 -0.128411,-0.148166 l -1.896532,-3.022598 0.770466,-0.197556 1.768121,2.825043 q 0.148167,0.237066 0.04939,0.414866 -0.0889,0.1778 -0.3556,0.1778 z m -3.743675,-3.76343 h 1.46191 q 0.503767,0 0.889,-0.197556 0.39511,-0.207433 0.622299,-0.563033 0.227189,-0.3556 0.227189,-0.809977 0,-0.484011 -0.227189,-0.849488 -0.227189,-0.375355 -0.622299,-0.582789 -0.385233,-0.207433 -0.889,-0.207433 h -1.46191 z" />
      <path
         id="path1721"
         style="font-size:7.05556px"
         d="m 28.803222,70.375328 q -0.08467,0 -0.141111,-0.02822 -0.04939,-0.02822 -0.105834,-0.09878 L 27.335666,68.696105 27.123999,68.51266 25.896331,66.953381 q -0.07761,-0.09172 -0.07761,-0.1905 0.0071,-0.09878 0.07056,-0.169333 0.0635,-0.07761 0.183444,-0.07761 0.119945,0 0.204612,0.08467 l 1.185334,1.516946 0.1905,0.155222 1.312334,1.679223 q 0.09172,0.112889 0.07761,0.211667 -0.01411,0.09878 -0.09172,0.155223 -0.07056,0.05644 -0.148167,0.05644 z m -2.794002,0 q -0.112889,0 -0.183444,-0.07056 -0.0635,-0.07055 -0.07056,-0.169333 0,-0.09878 0.07761,-0.1905 l 1.298223,-1.622779 0.303389,0.402167 -1.234723,1.566334 q -0.0635,0.08467 -0.1905,0.08467 z m 1.651001,-1.834446 -0.345722,-0.352778 1.220612,-1.545167 q 0.04939,-0.07056 0.105833,-0.09878 0.0635,-0.02822 0.127,-0.02822 0.119945,0 0.183445,0.07761 0.0635,0.07055 0.05644,0.176389 0,0.09878 -0.07056,0.1905 z" />
      <path
         id="path1723"
         style="font-style:normal;font-variant:normal;font-weight:normal;font-stretch:normal;font-size:9.87777px;font-family:Comfortaa;-inkscape-font-specification:Comfortaa;fill:#fed700;fill-opacity:1;stroke-width:0.264583"
         d="m 33.612175,70.375328 q -0.167922,0 -0.276577,-0.108655 -0.108656,-0.108656 -0.108656,-0.276578 v -6.944073 q 0,-0.167922 0.108656,-0.276577 0.108655,-0.108656 0.276577,-0.108656 0.167922,0 0.276578,0.108656 0.108655,0.108655 0.108655,0.276577 v 6.944073 q 0,0.167922 -0.108655,0.276578 -0.108656,0.108655 -0.276578,0.108655 z" />
    </g>
    <g
       style="font-style:normal;font-weight:normal;font-size:3.95679px;line-height:1.25;font-family:sans-serif;fill:#fed700;fill-opacity:1;stroke:none;stroke-width:0.105985"
       id="text1086-1"
       aria-label="2">
      <path
         id="path1726"
         style="font-style:normal;font-variant:normal;font-weight:normal;font-stretch:normal;font-size:3.95679px;font-family:Comfortaa;-inkscape-font-specification:Comfortaa;fill:#fed700;fill-opacity:1;stroke-width:0.105985"
         d="m 35.064302,65.157249 q -0.06331,0 -0.11079,-0.04352 -0.04353,-0.04353 -0.04353,-0.11079 0,-0.05935 0.04353,-0.106834 l 1.198907,-1.41653 q 0.09892,-0.106834 0.158272,-0.237408 0.05935,-0.134531 0.05935,-0.249278 0,-0.185969 -0.07518,-0.328413 -0.07122,-0.142445 -0.205753,-0.22158 -0.130575,-0.08309 -0.300717,-0.08309 -0.166185,0 -0.304672,0.08705 -0.134531,0.08309 -0.213667,0.225537 -0.07518,0.142445 -0.07518,0.3205 0,0.06331 -0.04353,0.106834 -0.04352,0.04352 -0.11079,0.04352 -0.06331,0 -0.11079,-0.04352 -0.04353,-0.04353 -0.04353,-0.106834 0,-0.265105 0.118704,-0.474814 0.118704,-0.20971 0.3205,-0.332371 0.205753,-0.12266 0.462944,-0.12266 0.257192,0 0.455031,0.118703 0.201797,0.118704 0.312587,0.328414 0.114747,0.20971 0.114747,0.482728 0,0.130574 -0.04352,0.249278 -0.03957,0.118704 -0.11079,0.229494 -0.07122,0.106833 -0.154315,0.201796 l -1.012938,1.175167 h 1.238475 q 0.06331,0 0.106833,0.04748 0.04748,0.04748 0.04748,0.106834 0,0.06727 -0.04748,0.11079 -0.04352,0.04352 -0.106833,0.04352 z" />
    </g>
    <g
       style="font-style:normal;font-weight:normal;font-size:9.87777px;line-height:1.25;font-family:sans-serif;fill:#fed700;fill-opacity:1;stroke:none;stroke-width:0.264583"
       id="text1257"
       aria-label="I x V">
      <path
         id="path1712"
         style="font-style:normal;font-variant:normal;font-weight:normal;font-stretch:normal;font-size:9.87777px;font-family:Comfortaa;-inkscape-font-specification:Comfortaa;fill:#fed700;fill-opacity:1;stroke-width:0.264583"
         d="m 32.82279,45.920177 q -0.167922,0 -0.276578,-0.108655 -0.108655,-0.108655 -0.108655,-0.276578 v -6.944072 q 0,-0.167922 0.108655,-0.276578 0.108656,-0.108655 0.276578,-0.108655 0.167922,0 0.276577,0.108655 0.108656,0.108656 0.108656,0.276578 v 6.944072 q 0,0.167923 -0.108656,0.276578 -0.108655,0.108655 -0.276577,0.108655 z" />
      <path
         id="path1714"
         style="font-size:7.05556px"
         d="m 40.41342,45.920177 q -0.08467,0 -0.141111,-0.02822 -0.04939,-0.02822 -0.105834,-0.09878 L 38.945864,44.240954 38.734197,44.05751 37.506529,42.498231 q -0.07761,-0.09172 -0.07761,-0.1905 0.0071,-0.09878 0.07056,-0.169334 0.0635,-0.07761 0.183444,-0.07761 0.119945,0 0.204612,0.08467 l 1.185334,1.516945 0.1905,0.155223 1.312334,1.679223 q 0.09172,0.112889 0.07761,0.211667 -0.01411,0.09878 -0.09172,0.155222 -0.07056,0.05644 -0.148167,0.05644 z m -2.794002,0 q -0.112889,0 -0.183444,-0.07056 -0.0635,-0.07056 -0.07056,-0.169334 0,-0.09878 0.07761,-0.1905 l 1.298223,-1.622779 0.303389,0.402167 -1.234723,1.566335 q -0.0635,0.08467 -0.1905,0.08467 z m 1.651001,-1.834445 -0.345722,-0.352778 1.220612,-1.545168 q 0.04939,-0.07056 0.105833,-0.09878 0.0635,-0.02822 0.127,-0.02822 0.119945,0 0.183445,0.07761 0.0635,0.07056 0.05644,0.176389 0,0.09878 -0.07055,0.1905 z" />
      <path
         id="path1716"
         style="font-style:normal;font-variant:normal;font-weight:normal;font-stretch:normal;font-size:9.87777px;font-family:Comfortaa;-inkscape-font-specification:Comfortaa;fill:#fed700;fill-opacity:1;stroke-width:0.264583"
         d="m 47.395483,45.920177 q -0.246944,0 -0.3556,-0.246944 l -2.933698,-6.86505 q -0.108655,-0.276578 -0.01976,-0.434622 0.09878,-0.167922 0.335844,-0.167922 0.246944,0 0.3556,0.246944 l 2.726264,6.519328 h -0.217311 l 2.716387,-6.499572 q 0.05927,-0.148167 0.148167,-0.207434 0.0889,-0.05927 0.237066,-0.05927 0.227189,0 0.306211,0.1778 0.07902,0.167922 -0.0099,0.385233 l -2.943575,6.904561 q -0.05927,0.138289 -0.148167,0.197556 -0.0889,0.04939 -0.197555,0.04939 z" />
    </g>
    <g
       style="font-style:normal;font-weight:normal;font-size:9.87777px;line-height:1.25;font-family:sans-serif;fill:#fed700;fill-opacity:1;stroke:none;stroke-width:0.264583"
       id="text1062-0"
       aria-label="V">
      <path
         id="path1703"
         style="font-style:normal;font-variant:normal;font-weight:normal;font-stretch:normal;font-size:9.87777px;font-family:Comfortaa;-inkscape-font-specification:Comfortaa;fill:#fed700;fill-opacity:1;stroke-width:0.264583"
         d="m 66.588417,25.343565 q -0.246944,0 -0.3556,-0.246944 L 63.299119,18.23157 q -0.108655,-0.276577 -0.01975,-0.434622 0.09878,-0.167922 0.335844,-0.167922 0.246944,0 0.3556,0.246945 l 2.726264,6.519328 h -0.217311 l 2.716387,-6.499573 q 0.05927,-0.148166 0.148167,-0.207433 0.0889,-0.05927 0.237066,-0.05927 0.227189,0 0.306211,0.1778 0.07902,0.167922 -0.0099,0.385233 l -2.943575,6.904562 q -0.05927,0.138289 -0.148167,0.197555 -0.0889,0.04939 -0.197555,0.04939 z" />
    </g>
    <path
       style="fill:none;stroke:#fed700;stroke-width:0.264999;stroke-linecap:round;stroke-linejoin:miter;stroke-miterlimit:4;stroke-dasharray:none;stroke-opacity:1"
       d="m 61.314024,27.327937 c 3.512293,0 7.024322,0 10.536086,0"
       id="path1064-4" />
    <g
       style="font-style:normal;font-weight:normal;font-size:9.87777px;line-height:1.25;font-family:sans-serif;fill:#fed700;fill-opacity:1;stroke:none;stroke-width:0.264583"
       id="text1070-5"
       aria-label="R">
      <path
         id="path1706"
         style="font-style:normal;font-variant:normal;font-weight:normal;font-stretch:normal;font-size:9.87777px;font-family:Comfortaa;-inkscape-font-specification:Comfortaa;fill:#fed700;fill-opacity:1;stroke-width:0.264583"
         d="m 64.542306,36.77734 q -0.167922,0 -0.276577,-0.108656 -0.108656,-0.108655 -0.108656,-0.276577 v -6.944073 q 0,-0.167922 0.108656,-0.276577 0.108655,-0.108656 0.276577,-0.108656 h 1.847143 q 0.721078,0 1.284111,0.306211 0.563032,0.296333 0.879121,0.839611 0.325967,0.533399 0.325967,1.234721 0,0.671688 -0.325967,1.19521 -0.316089,0.523522 -0.879121,0.819855 -0.563033,0.296333 -1.284111,0.296333 h -1.46191 v 2.637365 q 0,0.167922 -0.108655,0.276577 -0.108656,0.108656 -0.276578,0.108656 z m 4.128908,0 q -0.128411,0 -0.207433,-0.04939 -0.06914,-0.04939 -0.128411,-0.148166 l -1.896532,-3.022598 0.770466,-0.197556 1.768121,2.825043 q 0.148167,0.237066 0.04939,0.414866 -0.0889,0.1778 -0.3556,0.1778 z m -3.743675,-3.763431 h 1.46191 q 0.503767,0 0.889,-0.197555 0.395111,-0.207433 0.622299,-0.563033 0.227189,-0.3556 0.227189,-0.809977 0,-0.484011 -0.227189,-0.849488 -0.227188,-0.375356 -0.622299,-0.582789 -0.385233,-0.207433 -0.889,-0.207433 h -1.46191 z" />
    </g>
    <g
       style="font-style:normal;font-weight:normal;font-size:3.95679px;line-height:1.25;font-family:sans-serif;fill:#fed700;fill-opacity:1;stroke:none;stroke-width:0.105985"
       id="text1086-4"
       aria-label="2">
      <path
         id="path1709"
         style="font-style:normal;font-variant:normal;font-weight:normal;font-stretch:normal;font-size:3.95679px;font-family:Comfortaa;-inkscape-font-specification:Comfortaa;fill:#fed700;fill-opacity:1;stroke-width:0.105985"
         d="m 71.07868,19.711088 q -0.06331,0 -0.110791,-0.04352 -0.04352,-0.04352 -0.04352,-0.11079 0,-0.05935 0.04352,-0.106833 l 1.198908,-1.416531 q 0.09892,-0.106833 0.158271,-0.237407 0.05935,-0.134531 0.05935,-0.249278 0,-0.185969 -0.07518,-0.328414 -0.07122,-0.142444 -0.205753,-0.22158 -0.130574,-0.08309 -0.300716,-0.08309 -0.166185,0 -0.304673,0.08705 -0.134531,0.08309 -0.213666,0.225537 -0.07518,0.142445 -0.07518,0.3205 0,0.06331 -0.04353,0.106833 -0.04353,0.04353 -0.11079,0.04353 -0.06331,0 -0.11079,-0.04353 -0.04353,-0.04352 -0.04353,-0.106833 0,-0.265105 0.118704,-0.474815 0.118703,-0.20971 0.3205,-0.33237 0.205753,-0.122661 0.462944,-0.122661 0.257191,0 0.455031,0.118704 0.201796,0.118704 0.312586,0.328414 0.114747,0.20971 0.114747,0.482728 0,0.130574 -0.04352,0.249278 -0.03957,0.118704 -0.110791,0.229494 -0.07122,0.106833 -0.154314,0.201796 l -1.012939,1.175167 h 1.238476 q 0.06331,0 0.106833,0.04748 0.04748,0.04748 0.04748,0.106833 0,0.06727 -0.04748,0.11079 -0.04353,0.04352 -0.106833,0.04352 z" />
    </g>
    <g
       style="font-style:normal;font-weight:normal;font-size:9.87777px;line-height:1.25;font-family:sans-serif;fill:#fed700;fill-opacity:1;stroke:none;stroke-width:0.264583"
       id="text1257-8"
       aria-label="I x R">
      <path
         id="path1696"
         style="font-style:normal;font-variant:normal;font-weight:normal;font-stretch:normal;font-size:9.87777px;font-family:Comfortaa;-inkscape-font-specification:Comfortaa;fill:#fed700;fill-opacity:1;stroke-width:0.264583"
         d="m 85.543146,30.554375 q -0.167923,0 -0.276578,-0.108656 -0.108655,-0.108655 -0.108655,-0.276577 v -6.944073 q 0,-0.167922 0.108655,-0.276578 0.108655,-0.108655 0.276578,-0.108655 0.167922,0 0.276577,0.108655 0.108656,0.108656 0.108656,0.276578 v 6.944073 q 0,0.167922 -0.108656,0.276577 -0.108655,0.108656 -0.276577,0.108656 z" />
      <path
         id="path1698"
         style="font-size:7.05556px"
         d="m 93.133776,30.554375 q -0.08467,0 -0.141111,-0.02822 -0.04939,-0.02822 -0.105834,-0.09878 L 91.66622,28.875151 91.454553,28.691707 90.226885,27.132428 q -0.07761,-0.09172 -0.07761,-0.1905 0.0071,-0.09878 0.07056,-0.169334 0.0635,-0.07761 0.183444,-0.07761 0.119945,0 0.204612,0.08467 l 1.185334,1.516945 0.1905,0.155223 1.312334,1.679223 q 0.09172,0.112889 0.07761,0.211667 -0.01411,0.09878 -0.09172,0.155222 -0.07056,0.05645 -0.148167,0.05645 z m -2.794002,0 q -0.112889,0 -0.183444,-0.07056 -0.0635,-0.07056 -0.07056,-0.169333 0,-0.09878 0.07761,-0.1905 l 1.298223,-1.622779 0.303389,0.402167 -1.234723,1.566334 q -0.0635,0.08467 -0.1905,0.08467 z m 1.651001,-1.834446 -0.345722,-0.352778 1.220612,-1.545168 q 0.04939,-0.07055 0.105833,-0.09878 0.0635,-0.02822 0.127,-0.02822 0.119945,0 0.183445,0.07761 0.0635,0.07056 0.05644,0.176389 0,0.09878 -0.07055,0.190501 z" />
      <path
         id="path1700"
         style="font-style:normal;font-variant:normal;font-weight:normal;font-stretch:normal;font-size:9.87777px;font-family:Comfortaa;-inkscape-font-specification:Comfortaa;fill:#fed700;fill-opacity:1;stroke-width:0.264583"
         d="m 97.942729,30.554375 q -0.167922,0 -0.276577,-0.108656 -0.108656,-0.108655 -0.108656,-0.276577 v -6.944073 q 0,-0.167922 0.108656,-0.276578 0.108655,-0.108655 0.276577,-0.108655 h 1.847143 q 0.721078,0 1.284108,0.306211 0.56304,0.296333 0.87912,0.83961 0.32597,0.5334 0.32597,1.234722 0,0.671688 -0.32597,1.19521 -0.31608,0.523522 -0.87912,0.819855 -0.56303,0.296333 -1.284108,0.296333 h -1.46191 v 2.637365 q 0,0.167922 -0.108655,0.276577 -0.108655,0.108656 -0.276578,0.108656 z m 4.128911,0 q -0.12841,0 -0.20744,-0.04939 -0.0691,-0.04939 -0.12841,-0.148167 l -1.896529,-3.022597 0.770469,-0.197556 1.76812,2.825042 q 0.14816,0.237067 0.0494,0.414867 -0.0889,0.1778 -0.3556,0.1778 z m -3.743678,-3.763431 h 1.46191 q 0.503768,0 0.888998,-0.197555 0.39511,-0.207433 0.6223,-0.563033 0.22719,-0.3556 0.22719,-0.809977 0,-0.484011 -0.22719,-0.849489 -0.22719,-0.375355 -0.6223,-0.582788 -0.38523,-0.207433 -0.888998,-0.207433 h -1.46191 z" />
    </g>
    <g
       style="font-style:normal;font-weight:normal;font-size:9.87778px;line-height:1.25;font-family:sans-serif;fill:#fed700;fill-opacity:1;stroke:none;stroke-width:0.264583"
       id="text1074-57"
       aria-label="P">
      <path
         id="path1693"
         style="font-style:normal;font-variant:normal;font-weight:normal;font-stretch:normal;font-size:9.87778px;font-family:Comfortaa;-inkscape-font-specification:Comfortaa;fill:#fed700;fill-opacity:1;stroke-width:0.264583"
         d="m 115.32183,40.203289 q -0.16792,0 -0.27657,-0.108656 -0.10866,-0.108655 -0.10866,-0.276577 v -6.94408 q 0,-0.167922 0.10866,-0.276578 0.10865,-0.108655 0.27657,-0.108655 h 1.97556 q 0.73096,0 1.29399,0.325967 0.56303,0.316089 0.87912,0.879122 0.31609,0.563033 0.31609,1.303867 0,0.721078 -0.31609,1.284111 -0.31609,0.553156 -0.87912,0.879123 -0.56303,0.316089 -1.29399,0.316089 h -1.59032 v 2.341034 q 0,0.167922 -0.10866,0.276577 -0.10865,0.108656 -0.27658,0.108656 z m 0.38524,-3.467101 h 1.59032 q 0.50377,0 0.89888,-0.217311 0.39511,-0.227189 0.61242,-0.6223 0.22719,-0.395111 0.22719,-0.898878 0,-0.523522 -0.22719,-0.918634 -0.21731,-0.395111 -0.61242,-0.6223 -0.39511,-0.227189 -0.89888,-0.227189 h -1.59032 z" />
    </g>
    <path
       id="path1076-8"
       d="m 112.09356,42.187665 c 3.5123,0 7.02432,0 10.53609,0"
       style="fill:none;stroke:#fed700;stroke-width:0.265;stroke-linecap:round;stroke-linejoin:miter;stroke-miterlimit:4;stroke-dasharray:none;stroke-opacity:1" />
    <g
       style="font-style:normal;font-weight:normal;font-size:9.87778px;line-height:1.25;font-family:sans-serif;fill:#fed700;fill-opacity:1;stroke:none;stroke-width:0.264583"
       id="text1082-2"
       aria-label="I">
      <path
         id="path1690"
         style="font-style:normal;font-variant:normal;font-weight:normal;font-stretch:normal;font-size:9.87778px;font-family:Comfortaa;-inkscape-font-specification:Comfortaa;fill:#fed700;fill-opacity:1;stroke-width:0.264583"
         d="m 117.3616,51.637074 q -0.16792,0 -0.27658,-0.108656 -0.10866,-0.108656 -0.10866,-0.276578 v -6.944079 q 0,-0.167922 0.10866,-0.276578 0.10866,-0.108656 0.27658,-0.108656 0.16792,0 0.27658,0.108656 0.10865,0.108656 0.10865,0.276578 v 6.944079 q 0,0.167922 -0.10865,0.276578 -0.10866,0.108656 -0.27658,0.108656 z" />
    </g>
    <g
       style="font-style:normal;font-weight:normal;font-size:3.9568px;line-height:1.25;font-family:sans-serif;fill:#fed700;fill-opacity:1;stroke:none;stroke-width:0.105985"
       id="text1090-1" />
    <g
       style="font-style:normal;font-weight:normal;font-size:9.87777px;line-height:1.25;font-family:sans-serif;fill:#fed700;fill-opacity:1;stroke:none;stroke-width:0.264583"
       id="text1257-3"
       aria-label="P x R">
      <path
         id="path1682"
         style="font-style:normal;font-variant:normal;font-weight:normal;font-stretch:normal;font-size:9.87777px;font-family:Comfortaa;-inkscape-font-specification:Comfortaa;fill:#fed700;fill-opacity:1;stroke-width:0.264583"
         d="m 123.81602,70.465828 q -0.16792,0 -0.27658,-0.108656 -0.10865,-0.108655 -0.10865,-0.276577 v -6.944073 q 0,-0.167922 0.10865,-0.276577 0.10866,-0.108656 0.27658,-0.108656 h 1.97555 q 0.73096,0 1.29399,0.325967 0.56303,0.316088 0.87912,0.879121 0.31609,0.563033 0.31609,1.303866 0,0.721077 -0.31609,1.28411 -0.31609,0.553155 -0.87912,0.879122 -0.56303,0.316088 -1.29399,0.316088 h -1.59032 v 2.341032 q 0,0.167922 -0.10865,0.276577 -0.10866,0.108656 -0.27658,0.108656 z m 0.38523,-3.467097 h 1.59032 q 0.50377,0 0.89888,-0.217311 0.39511,-0.227189 0.61242,-0.6223 0.22719,-0.395111 0.22719,-0.898877 0,-0.523522 -0.22719,-0.918633 -0.21731,-0.395111 -0.61242,-0.622299 -0.39511,-0.227189 -0.89888,-0.227189 h -1.59032 z" />
      <path
         id="path1684"
         style="font-size:7.05556px"
         d="m 134.70567,70.465828 q -0.0847,0 -0.14111,-0.02822 -0.0494,-0.02822 -0.10583,-0.09878 l -1.22062,-1.552223 -0.21166,-0.183445 -1.22767,-1.559279 q -0.0776,-0.09172 -0.0776,-0.1905 0.007,-0.09878 0.0705,-0.169333 0.0635,-0.07761 0.18345,-0.07761 0.11994,0 0.20461,0.08467 l 1.18533,1.516946 0.1905,0.155222 1.31234,1.679223 q 0.0917,0.112889 0.0776,0.211667 -0.0141,0.09878 -0.0917,0.155222 -0.0706,0.05644 -0.14817,0.05644 z m -2.794,0 q -0.11289,0 -0.18345,-0.07056 -0.0635,-0.07055 -0.0705,-0.169333 0,-0.09878 0.0776,-0.1905 l 1.29822,-1.622779 0.30339,0.402167 -1.23472,1.566334 q -0.0635,0.08467 -0.1905,0.08467 z m 1.651,-1.834446 -0.34572,-0.352778 1.22061,-1.545167 q 0.0494,-0.07056 0.10583,-0.09878 0.0635,-0.02822 0.127,-0.02822 0.11995,0 0.18345,0.07761 0.0635,0.07055 0.0564,0.176389 0,0.09878 -0.0705,0.1905 z" />
      <path
         id="path1686"
         style="font-style:normal;font-variant:normal;font-weight:normal;font-stretch:normal;font-size:9.87777px;font-family:Comfortaa;-inkscape-font-specification:Comfortaa;fill:#fed700;fill-opacity:1;stroke-width:0.264583"
         d="m 139.51462,70.465828 q -0.16792,0 -0.27657,-0.108656 -0.10866,-0.108655 -0.10866,-0.276577 v -6.944073 q 0,-0.167922 0.10866,-0.276577 0.10865,-0.108656 0.27657,-0.108656 h 1.84715 q 0.72107,0 1.28411,0.306211 0.56303,0.296333 0.87912,0.839611 0.32596,0.533399 0.32596,1.234721 0,0.671688 -0.32596,1.19521 -0.31609,0.523522 -0.87912,0.819855 -0.56304,0.296333 -1.28411,0.296333 h -1.46191 v 2.637365 q 0,0.167922 -0.10866,0.276577 -0.10865,0.108656 -0.27658,0.108656 z m 4.12891,0 q -0.12841,0 -0.20743,-0.04939 -0.0692,-0.04939 -0.12841,-0.148166 l -1.89653,-3.022598 0.77046,-0.197556 1.76812,2.825043 q 0.14817,0.237066 0.0494,0.414866 -0.0889,0.1778 -0.3556,0.1778 z m -3.74367,-3.763431 h 1.46191 q 0.50376,0 0.889,-0.197555 0.39511,-0.207433 0.6223,-0.563033 0.22718,-0.3556 0.22718,-0.809977 0,-0.484011 -0.22718,-0.849488 -0.22719,-0.375356 -0.6223,-0.582789 -0.38524,-0.207433 -0.889,-0.207433 h -1.46191 z" />
    </g>
    <path
       id="path1428"
       d="m 117.33132,70.161121 1.20271,-1.20272 1.48365,2.56975 2.84506,-10.61791 h 22.39824"
       style="fill:none;stroke:#fed700;stroke-width:0.265;stroke-linecap:round;stroke-linejoin:round;stroke-miterlimit:4;stroke-dasharray:none;stroke-opacity:1" />
    <g
       style="font-style:normal;font-weight:normal;font-size:9.87777px;line-height:1.25;font-family:sans-serif;fill:#fed700;fill-opacity:1;stroke:none;stroke-width:0.264583"
       id="text1074-5-4"
       aria-label="P">
      <path
         id="path1676"
         style="font-style:normal;font-variant:normal;font-weight:normal;font-stretch:normal;font-size:9.87777px;font-family:Comfortaa;-inkscape-font-specification:Comfortaa;fill:#fed700;fill-opacity:1;stroke-width:0.264583"
         d="m 22.398292,91.469444 q -0.167922,0 -0.276578,-0.108655 -0.108655,-0.108656 -0.108655,-0.276578 v -6.944072 q 0,-0.167922 0.108655,-0.276578 0.108656,-0.108655 0.276578,-0.108655 h 1.975554 q 0.730955,0 1.293988,0.325966 0.563033,0.316089 0.879122,0.879122 0.316088,0.563032 0.316088,1.303865 0,0.721078 -0.316088,1.28411 -0.316089,0.553156 -0.879122,0.879122 -0.563033,0.316089 -1.293988,0.316089 h -1.590321 v 2.341031 q 0,0.167922 -0.108655,0.276578 -0.108656,0.108655 -0.276578,0.108655 z m 0.385233,-3.467097 h 1.590321 q 0.503766,0 0.898877,-0.217311 0.395111,-0.227189 0.612422,-0.6223 0.227189,-0.39511 0.227189,-0.898877 0,-0.523522 -0.227189,-0.918632 -0.217311,-0.395111 -0.612422,-0.6223 -0.395111,-0.227189 -0.898877,-0.227189 h -1.590321 z" />
    </g>
    <path
       style="fill:none;stroke:#fed700;stroke-width:0.264999;stroke-linecap:round;stroke-linejoin:miter;stroke-miterlimit:4;stroke-dasharray:none;stroke-opacity:1"
       d="m 19.297009,93.453808 c 3.5123,0 7.02432,0 10.53609,0"
       id="path1076-6-2" />
    <g
       style="font-style:normal;font-weight:normal;font-size:9.87777px;line-height:1.25;font-family:sans-serif;fill:#fed700;fill-opacity:1;stroke:none;stroke-width:0.264583"
       id="text1082-8-8"
       aria-label="R">
      <path
         id="path1679"
         style="font-style:normal;font-variant:normal;font-weight:normal;font-stretch:normal;font-size:9.87777px;font-family:Comfortaa;-inkscape-font-specification:Comfortaa;fill:#fed700;fill-opacity:1;stroke-width:0.264583"
         d="m 22.495662,102.80872 q -0.167922,0 -0.276577,-0.10865 -0.108656,-0.10866 -0.108656,-0.27658 v -6.944072 q 0,-0.167922 0.108656,-0.276578 0.108655,-0.108655 0.276577,-0.108655 h 1.847143 q 0.721077,0 1.28411,0.306211 0.563033,0.296333 0.879122,0.83961 0.325966,0.5334 0.325966,1.234721 0,0.671689 -0.325966,1.195211 -0.316089,0.523521 -0.879122,0.819855 -0.563033,0.296333 -1.28411,0.296333 h -1.46191 v 2.637364 q 0,0.16792 -0.108655,0.27658 -0.108656,0.10865 -0.276578,0.10865 z m 4.128908,0 q -0.128411,0 -0.207433,-0.0494 -0.06914,-0.0494 -0.128411,-0.14816 l -1.896532,-3.0226 0.770466,-0.197555 1.768121,2.825045 q 0.148167,0.23706 0.04939,0.41486 -0.0889,0.1778 -0.3556,0.1778 z m -3.743675,-3.763427 h 1.46191 q 0.503767,0 0.889,-0.197555 0.39511,-0.207434 0.622299,-0.563033 0.227189,-0.3556 0.227189,-0.809978 0,-0.48401 -0.227189,-0.849488 -0.227189,-0.375355 -0.622299,-0.582788 -0.385233,-0.207433 -0.889,-0.207433 h -1.46191 z" />
    </g>
    <path
       sodipodi:nodetypes="ccccc"
       style="fill:none;stroke:#fed700;stroke-width:0.265;stroke-linecap:round;stroke-linejoin:round;stroke-miterlimit:4;stroke-dasharray:none;stroke-opacity:1"
       d="m 13.765589,102.70469 1.20271,-1.20272 1.48365,2.56975 2.84506,-21.957198 11.578672,0"
       id="path1596" />
  </g>
</svg>
