<?xml version="1.0" encoding="UTF-8" standalone="no"?>
<svg
   xmlns:dc="http://purl.org/dc/elements/1.1/"
   xmlns:cc="http://creativecommons.org/ns#"
   xmlns:rdf="http://www.w3.org/1999/02/22-rdf-syntax-ns#"
   xmlns:svg="http://www.w3.org/2000/svg"
   xmlns="http://www.w3.org/2000/svg"
   xmlns:sodipodi="http://sodipodi.sourceforge.net/DTD/sodipodi-0.dtd"
   xmlns:inkscape="http://www.inkscape.org/namespaces/inkscape"
   sodipodi:docname="Ohms-Law-Calculator.svg"
   inkscape:version="1.0 (4035a4fb49, 2020-05-01)"
   id="svg8"
   version="1.1"
   viewBox="0 0 174.625 95.250003"
   height="360"
   width="660"
   inkscape:export-filename="C:\Users\Corey\Documents\KoBee\Website Assets\Calculator Assets\Ohms-Law.png"
   inkscape:export-xdpi="96"
   inkscape:export-ydpi="96">
  <defs
     id="defs2">
    <marker
       inkscape:isstock="true"
       style="overflow:visible;"
       id="marker3841"
       refX="0.0"
       refY="0.0"
       orient="auto"
       inkscape:stockid="Arrow1Mend">
      <path
         transform="scale(0.4) rotate(180) translate(10,0)"
         style="fill-rule:evenodd;stroke:#4e5153;stroke-width:1pt;stroke-opacity:1;fill:#4e5153;fill-opacity:1"
         d="M 0.0,0.0 L 5.0,-5.0 L -12.5,0.0 L 5.0,5.0 L 0.0,0.0 z "
         id="path3839" />
    </marker>
    <marker
       inkscape:isstock="true"
       style="overflow:visible;"
       id="marker3831"
       refX="0.0"
       refY="0.0"
       orient="auto"
       inkscape:stockid="Arrow1Mend">
      <path
         transform="scale(0.4) rotate(180) translate(10,0)"
         style="fill-rule:evenodd;stroke:#4e5153;stroke-width:1pt;stroke-opacity:1;fill:#4e5153;fill-opacity:1"
         d="M 0.0,0.0 L 5.0,-5.0 L -12.5,0.0 L 5.0,5.0 L 0.0,0.0 z "
         id="path3829" />
    </marker>
    <marker
       inkscape:stockid="TriangleOutL"
       orient="auto"
       refY="0.0"
       refX="0.0"
       id="TriangleOutL"
       style="overflow:visible"
       inkscape:isstock="true">
      <path
         id="path2502"
         d="M 5.77,0.0 L -2.88,5.0 L -2.88,-5.0 L 5.77,0.0 z "
         style="fill-rule:evenodd;stroke:#000000;stroke-width:1pt;stroke-opacity:1;fill:#000000;fill-opacity:1"
         transform="scale(0.8)" />
    </marker>
    <marker
       inkscape:stockid="Arrow2Lend"
       orient="auto"
       refY="0.0"
       refX="0.0"
       id="marker2926"
       style="overflow:visible;"
       inkscape:isstock="true">
      <path
         id="path2924"
         style="fill-rule:evenodd;stroke-width:0.625;stroke-linejoin:round;stroke:#4e5153;stroke-opacity:1;fill:#4e5153;fill-opacity:1"
         d="M 8.7185878,4.0337352 L -2.2072895,0.016013256 L 8.7185884,-4.0017078 C 6.9730900,-1.6296469 6.9831476,1.6157441 8.7185878,4.0337352 z "
         transform="scale(1.1) rotate(180) translate(1,0)" />
    </marker>
    <marker
       inkscape:stockid="Arrow2Lend"
       orient="auto"
       refY="0.0"
       refX="0.0"
       id="marker2868"
       style="overflow:visible;"
       inkscape:isstock="true">
      <path
         id="path2866"
         style="fill-rule:evenodd;stroke-width:0.625;stroke-linejoin:round;stroke:#4e5153;stroke-opacity:1;fill:#4e5153;fill-opacity:1"
         d="M 8.7185878,4.0337352 L -2.2072895,0.016013256 L 8.7185884,-4.0017078 C 6.9730900,-1.6296469 6.9831476,1.6157441 8.7185878,4.0337352 z "
         transform="scale(1.1) rotate(180) translate(1,0)" />
    </marker>
    <marker
       inkscape:stockid="Arrow2Lend"
       orient="auto"
       refY="0.0"
       refX="0.0"
       id="Arrow2Lend"
       style="overflow:visible;"
       inkscape:isstock="true">
      <path
         id="path2381"
         style="fill-rule:evenodd;stroke-width:0.625;stroke-linejoin:round;stroke:#000000;stroke-opacity:1;fill:#000000;fill-opacity:1"
         d="M 8.7185878,4.0337352 L -2.2072895,0.016013256 L 8.7185884,-4.0017078 C 6.9730900,-1.6296469 6.9831476,1.6157441 8.7185878,4.0337352 z "
         transform="scale(1.1) rotate(180) translate(1,0)" />
    </marker>
    <marker
       inkscape:stockid="Arrow1Lend"
       orient="auto"
       refY="0.0"
       refX="0.0"
       id="Arrow1Lend"
       style="overflow:visible;"
       inkscape:isstock="true">
      <path
         id="path2363"
         d="M 0.0,0.0 L 5.0,-5.0 L -12.5,0.0 L 5.0,5.0 L 0.0,0.0 z "
         style="fill-rule:evenodd;stroke:#000000;stroke-width:1pt;stroke-opacity:1;fill:#000000;fill-opacity:1"
         transform="scale(0.8) rotate(180) translate(12.5,0)" />
    </marker>
    <marker
       inkscape:stockid="Arrow1Lstart"
       orient="auto"
       refY="0.0"
       refX="0.0"
       id="Arrow1Lstart"
       style="overflow:visible"
       inkscape:isstock="true">
      <path
         id="path2360"
         d="M 0.0,0.0 L 5.0,-5.0 L -12.5,0.0 L 5.0,5.0 L 0.0,0.0 z "
         style="fill-rule:evenodd;stroke:#000000;stroke-width:1pt;stroke-opacity:1;fill:#000000;fill-opacity:1"
         transform="scale(0.8) translate(12.5,0)" />
    </marker>
    <marker
       inkscape:stockid="TriangleInL"
       orient="auto"
       refY="0.0"
       refX="0.0"
       id="TriangleInL"
       style="overflow:visible"
       inkscape:isstock="true">
      <path
         id="path2493"
         d="M 5.77,0.0 L -2.88,5.0 L -2.88,-5.0 L 5.77,0.0 z "
         style="fill-rule:evenodd;stroke:#000000;stroke-width:1pt;stroke-opacity:1;fill:#000000;fill-opacity:1"
         transform="scale(-0.8)" />
    </marker>
    <marker
       inkscape:stockid="Arrow2Mstart"
       orient="auto"
       refY="0.0"
       refX="0.0"
       id="Arrow2Mstart"
       style="overflow:visible"
       inkscape:isstock="true">
      <path
         id="path2384"
         style="fill-rule:evenodd;stroke-width:0.625;stroke-linejoin:round;stroke:#000000;stroke-opacity:1;fill:#000000;fill-opacity:1"
         d="M 8.7185878,4.0337352 L -2.2072895,0.016013256 L 8.7185884,-4.0017078 C 6.9730900,-1.6296469 6.9831476,1.6157441 8.7185878,4.0337352 z "
         transform="scale(0.6) translate(0,0)" />
    </marker>
    <marker
       inkscape:isstock="true"
       style="overflow:visible"
       id="TriangleInL-7"
       refX="0"
       refY="0"
       orient="auto"
       inkscape:stockid="TriangleInL">
      <path
         transform="scale(-0.8)"
         style="fill:#000000;fill-opacity:1;fill-rule:evenodd;stroke:#000000;stroke-width:1pt;stroke-opacity:1"
         d="M 5.77,0 -2.88,5 V -5 Z"
         id="path2493-4" />
    </marker>
    <marker
       inkscape:isstock="true"
       style="overflow:visible"
       id="Arrow1Lstart-8"
       refX="0"
       refY="0"
       orient="auto"
       inkscape:stockid="Arrow1Lstart">
      <path
         transform="matrix(0.8,0,0,0.8,10,0)"
         style="fill:#000000;fill-opacity:1;fill-rule:evenodd;stroke:#000000;stroke-width:1pt;stroke-opacity:1"
         d="M 0,0 5,-5 -12.5,0 5,5 Z"
         id="path2360-1" />
    </marker>
    <marker
       inkscape:isstock="true"
       style="overflow:visible"
       id="TriangleOutL-0"
       refX="0"
       refY="0"
       orient="auto"
       inkscape:stockid="TriangleOutL">
      <path
         transform="scale(0.8)"
         style="fill:#000000;fill-opacity:1;fill-rule:evenodd;stroke:#000000;stroke-width:1pt;stroke-opacity:1"
         d="M 5.77,0 -2.88,5 V -5 Z"
         id="path2502-7" />
    </marker>
    <marker
       inkscape:stockid="Arrow1Mend"
       orient="auto"
       refY="0"
       refX="0"
       id="marker3831-4"
       style="overflow:visible"
       inkscape:isstock="true">
      <path
         id="path3829-7"
         d="M 0,0 5,-5 -12.5,0 5,5 Z"
         style="fill:#4e5153;fill-opacity:1;fill-rule:evenodd;stroke:#4e5153;stroke-width:1pt;stroke-opacity:1"
         transform="matrix(-0.4,0,0,-0.4,-4,0)" />
    </marker>
    <marker
       inkscape:stockid="Arrow1Mend"
       orient="auto"
       refY="0"
       refX="0"
       id="marker3841-2"
       style="overflow:visible"
       inkscape:isstock="true">
      <path
         id="path3839-2"
         d="M 0,0 5,-5 -12.5,0 5,5 Z"
         style="fill:#4e5153;fill-opacity:1;fill-rule:evenodd;stroke:#4e5153;stroke-width:1pt;stroke-opacity:1"
         transform="matrix(-0.4,0,0,-0.4,-4,0)" />
    </marker>
    <marker
       inkscape:isstock="true"
       style="overflow:visible"
       id="TriangleInL-7-6"
       refX="0"
       refY="0"
       orient="auto"
       inkscape:stockid="TriangleInL">
      <path
         transform="scale(-0.8)"
         style="fill:#000000;fill-opacity:1;fill-rule:evenodd;stroke:#000000;stroke-width:1pt;stroke-opacity:1"
         d="M 5.77,0 -2.88,5 V -5 Z"
         id="path2493-4-6" />
    </marker>
    <marker
       inkscape:isstock="true"
       style="overflow:visible"
       id="Arrow1Lstart-8-8"
       refX="0"
       refY="0"
       orient="auto"
       inkscape:stockid="Arrow1Lstart">
      <path
         transform="matrix(0.8,0,0,0.8,10,0)"
         style="fill:#000000;fill-opacity:1;fill-rule:evenodd;stroke:#000000;stroke-width:1pt;stroke-opacity:1"
         d="M 0,0 5,-5 -12.5,0 5,5 Z"
         id="path2360-1-3" />
    </marker>
    <marker
       inkscape:isstock="true"
       style="overflow:visible"
       id="TriangleOutL-0-6"
       refX="0"
       refY="0"
       orient="auto"
       inkscape:stockid="TriangleOutL">
      <path
         transform="scale(0.8)"
         style="fill:#000000;fill-opacity:1;fill-rule:evenodd;stroke:#000000;stroke-width:1pt;stroke-opacity:1"
         d="M 5.77,0 -2.88,5 V -5 Z"
         id="path2502-7-8" />
    </marker>
  </defs>
  <sodipodi:namedview
     inkscape:window-maximized="1"
     inkscape:window-y="472"
     inkscape:window-x="-8"
     inkscape:window-height="1377"
     inkscape:window-width="2560"
     units="px"
     showgrid="false"
     inkscape:document-rotation="0"
     inkscape:current-layer="layer1"
     inkscape:document-units="mm"
     inkscape:cy="191.49235"
     inkscape:cx="257.8454"
     inkscape:zoom="1.4"
     inkscape:pageshadow="2"
     inkscape:pageopacity="0.0"
     borderopacity="1.0"
     bordercolor="#666666"
     pagecolor="#ffffff"
     id="base"
     showguides="true" />
  <metadata
     id="metadata5">
    <rdf:RDF>
      <cc:Work
         rdf:about="">
        <dc:format>image/svg+xml</dc:format>
        <dc:type
           rdf:resource="http://purl.org/dc/dcmitype/StillImage" />
        <dc:title />
      </cc:Work>
    </rdf:RDF>
  </metadata>
  <g
     id="layer1"
     inkscape:groupmode="layer"
     inkscape:label="Layer 1">
    <rect
       ry="6.6088867"
       y="0.84995687"
       x="-176.58397"
       height="92.524414"
       width="172.98044"
       id="rect846"
       style="fill:none;fill-opacity:1;stroke:none;stroke-width:0.197656;stroke-linecap:round;stroke-linejoin:round;stroke-miterlimit:4;stroke-dasharray:none;stroke-opacity:1" />
    <path
       d="M 7.5410664,1.7948973 H 167.30373 c 3.66132,0 6.60889,2.9475635 6.60889,6.6088867 v 79.306641 c 0,3.661323 -2.94757,6.608886 -6.60889,6.608886 H 7.5410664 c -3.6613232,0 -6.60888671,-2.947563 -6.60888671,-6.608886 V 8.403784 c 0,-3.6613232 2.94756351,-6.6088867 6.60888671,-6.6088867 z"
       style="fill:none;fill-opacity:1;stroke:none;stroke-width:0.197656;stroke-linecap:round;stroke-linejoin:round;stroke-miterlimit:4;stroke-dasharray:none;stroke-opacity:1"
       id="rect846-0" />
    <rect
       ry="6.6088867"
       y="93.374374"
       x="-176.58398"
       height="92.524414"
       width="172.98045"
       id="rect846-0-6"
       style="fill:none;fill-opacity:1;stroke:none;stroke-width:0.197656;stroke-linecap:round;stroke-linejoin:round;stroke-miterlimit:4;stroke-dasharray:none;stroke-opacity:1" />
    <rect
       ry="6.6088867"
       y="-106.44927"
       x="93.674706"
       height="92.524414"
       width="172.98045"
       id="rect846-0-4"
       style="fill:none;fill-opacity:1;stroke:none;stroke-width:0.197656;stroke-linecap:round;stroke-linejoin:round;stroke-miterlimit:4;stroke-dasharray:none;stroke-opacity:1" />
    <rect
       ry="6.6088867"
       y="-91.674454"
       x="-176.58398"
       height="92.524414"
       width="172.98045"
       id="rect846-0-0"
       style="fill:none;fill-opacity:1;stroke:none;stroke-width:0.197656;stroke-linecap:round;stroke-linejoin:round;stroke-miterlimit:4;stroke-dasharray:none;stroke-opacity:1" />
    <g
       style="font-style:normal;font-variant:normal;font-weight:300;font-stretch:normal;font-size:12.7px;line-height:1.25;font-family:Comfortaa;-inkscape-font-specification:'Comfortaa Light';fill:#000000;fill-opacity:1;stroke:none;stroke-width:0.264999;stroke-miterlimit:3.4;stroke-dasharray:none"
       id="text1054-6"
       aria-label="Ohms Law">
      <path
         id="path3843"
         style="font-style:normal;font-variant:normal;font-weight:300;font-stretch:normal;font-size:12.7px;font-family:Comfortaa;-inkscape-font-specification:'Comfortaa Light';fill:#4e5153;fill-opacity:1;stroke-width:0.264999;stroke-miterlimit:3.4;stroke-dasharray:none"
         d="m 58.599088,85.023484 q -1.092199,0 -2.019299,-0.381 -0.9271,-0.381 -1.6256,-1.0668 -0.6858,-0.6985 -1.0668,-1.6256 -0.381,-0.9271 -0.381,-2.0193 0,-1.0922 0.381,-2.0066 0.381,-0.9271 1.0668,-1.612899 0.6985,-0.6985 1.6256,-1.0795 0.9271,-0.381 2.019299,-0.381 1.0922,0 2.0066,0.381 0.9271,0.381 1.6129,1.0795 0.6985,0.685799 1.0795,1.612899 0.381,0.9144 0.381,2.0066 0,1.0922 -0.381,2.0193 -0.381,0.9271 -1.0795,1.6256 -0.6858,0.6858 -1.6129,1.0668 -0.9144,0.381 -2.0066,0.381 z m 0,-0.762 q 0.9144,0 1.7018,-0.3175 0.7874,-0.3302 1.3716,-0.9144 0.5969,-0.5969 0.9144,-1.3843 0.3302,-0.7874 0.3302,-1.7145 0,-0.9144 -0.3302,-1.7018 -0.3175,-0.7874 -0.9144,-1.3716 -0.5842,-0.596899 -1.3716,-0.914399 -0.7874,-0.3302 -1.7018,-0.3302 -0.927099,0 -1.714499,0.3302 -0.7874,0.3175 -1.3843,0.914399 -0.5842,0.5842 -0.9144,1.3716 -0.3175,0.7874 -0.3175,1.7018 0,0.9271 0.3175,1.7145 0.3302,0.7874 0.9144,1.3843 0.5969,0.5842 1.3843,0.9144 0.7874,0.3175 1.714499,0.3175 z" />
      <path
         id="path3845"
         style="font-style:normal;font-variant:normal;font-weight:300;font-stretch:normal;font-size:12.7px;font-family:Comfortaa;-inkscape-font-specification:'Comfortaa Light';fill:#4e5153;fill-opacity:1;stroke-width:0.264999;stroke-miterlimit:3.4;stroke-dasharray:none"
         d="m 71.602301,84.896484 q -0.1651,0 -0.2794,-0.1016 -0.1016,-0.1143 -0.1016,-0.2794 v -3.4163 q 0,-0.8382 -0.3302,-1.3843 -0.3175,-0.5461 -0.8763,-0.8128 -0.5461,-0.2794 -1.2446,-0.2794 -0.6858,0 -1.2319,0.2667 -0.5461,0.254 -0.8636,0.7112 -0.3175,0.4572 -0.3175,1.0287 h -0.635 q 0.0508,-0.7874 0.4699,-1.4097 0.4191,-0.635 1.0922,-0.9906 0.6731,-0.3683 1.4859,-0.3683 0.9144,0 1.6383,0.381 0.7366,0.3683 1.1557,1.0922 0.4191,0.7112 0.4191,1.7653 v 3.4163 q 0,0.1651 -0.1143,0.2794 -0.1016,0.1016 -0.2667,0.1016 z m -5.6261,0 q -0.1651,0 -0.2794,-0.1016 -0.1016,-0.1143 -0.1016,-0.2794 v -6.1849 q 0,-0.1778 0.1016,-0.2794 0.1143,-0.1016 0.2794,-0.1016 0.1778,0 0.2794,0.1016 0.1016,0.1016 0.1016,0.2794 v 6.1849 q 0,0.1651 -0.1016,0.2794 -0.1016,0.1016 -0.2794,0.1016 z m 0,-3.048 q -0.1651,0 -0.2794,-0.1016 -0.1016,-0.1143 -0.1016,-0.2794 v -6.108699 q 0,-0.1778 0.1016,-0.2794 0.1143,-0.1016 0.2794,-0.1016 0.1778,0 0.2794,0.1016 0.1016,0.1016 0.1016,0.2794 v 6.108699 q 0,0.1651 -0.1016,0.2794 -0.1016,0.1016 -0.2794,0.1016 z" />
      <path
         id="path3847"
         style="font-style:normal;font-variant:normal;font-weight:300;font-stretch:normal;font-size:12.7px;font-family:Comfortaa;-inkscape-font-specification:'Comfortaa Light';fill:#4e5153;fill-opacity:1;stroke-width:0.264999;stroke-miterlimit:3.4;stroke-dasharray:none"
         d="m 83.715919,84.896484 q -0.1651,0 -0.2794,-0.1016 -0.1016,-0.1143 -0.1016,-0.2794 v -3.6703 q 0,-0.9779 -0.5207,-1.6002 -0.508,-0.6223 -1.3335,-0.6223 -0.8763,0 -1.4351,0.5842 -0.5461,0.5715 -0.5207,1.5494 h -0.762 q 0.0254,-0.8763 0.381,-1.524 0.3556,-0.6477 0.9652,-1.0033 0.6096,-0.3683 1.3716,-0.3683 0.7747,0 1.3589,0.381 0.5842,0.381 0.9144,1.0541 0.3429,0.6731 0.3429,1.5494 v 3.6703 q 0,0.1651 -0.1016,0.2794 -0.1016,0.1016 -0.2794,0.1016 z m -9.1821,0 q -0.1651,0 -0.2794,-0.1016 -0.1016,-0.1143 -0.1016,-0.2794 v -6.1849 q 0,-0.1778 0.1016,-0.2794 0.1143,-0.1016 0.2794,-0.1016 0.1778,0 0.2794,0.1016 0.1016,0.1016 0.1016,0.2794 v 6.1849 q 0,0.1651 -0.1016,0.2794 -0.1016,0.1016 -0.2794,0.1016 z m 4.6101,0 q -0.1651,0 -0.2794,-0.1016 -0.1016,-0.1143 -0.1016,-0.2794 v -3.6703 q 0,-0.9779 -0.5207,-1.6002 -0.508,-0.6223 -1.3335,-0.6223 -0.8763,0 -1.4351,0.5588 -0.5588,0.5588 -0.5588,1.4478 h -0.635 q 0.0381,-0.8128 0.381,-1.4351 0.3556,-0.6223 0.9398,-0.9779 0.5842,-0.3556 1.3081,-0.3556 0.7747,0 1.3589,0.381 0.5842,0.381 0.9144,1.0541 0.3429,0.6731 0.3429,1.5494 v 3.6703 q 0,0.1651 -0.1016,0.2794 -0.1016,0.1016 -0.2794,0.1016 z" />
      <path
         id="path3849"
         style="font-style:normal;font-variant:normal;font-weight:300;font-stretch:normal;font-size:12.7px;font-family:Comfortaa;-inkscape-font-specification:'Comfortaa Light';fill:#4e5153;fill-opacity:1;stroke-width:0.264999;stroke-miterlimit:3.4;stroke-dasharray:none"
         d="m 88.619706,84.972684 q -0.6604,0 -1.3843,-0.2413 -0.7239,-0.2413 -1.2065,-0.8128 -0.1016,-0.127 -0.0889,-0.2667 0.0254,-0.1524 0.1651,-0.254 0.127,-0.0889 0.2667,-0.0635 0.1524,0.0254 0.2413,0.1397 0.3683,0.4318 0.889,0.6096 0.5334,0.1651 1.1557,0.1651 1.0668,0 1.5113,-0.381 0.4445,-0.381 0.4445,-0.889 0,-0.4953 -0.4826,-0.8128 -0.4699,-0.3302 -1.4605,-0.4699 -1.27,-0.1778 -1.8796,-0.6858 -0.6096,-0.508 -0.6096,-1.1811 0,-0.635 0.3175,-1.0668 0.3175,-0.4445 0.8636,-0.6604 0.5588,-0.2286 1.27,-0.2286 0.8636,0 1.4605,0.3175 0.5969,0.3048 0.9652,0.8255 0.1016,0.127 0.0635,0.2794 -0.0254,0.1397 -0.1905,0.2286 -0.127,0.0635 -0.2667,0.0381 -0.1397,-0.0254 -0.2413,-0.1524 -0.3175,-0.4064 -0.7747,-0.6096 -0.4445,-0.2159 -1.0414,-0.2159 -0.8001,0 -1.2446,0.3429 -0.4445,0.3429 -0.4445,0.8255 0,0.3302 0.1778,0.5842 0.1905,0.2413 0.6096,0.4191 0.4191,0.1651 1.1176,0.2667 0.9525,0.127 1.4986,0.4318 0.5588,0.3048 0.7874,0.7112 0.2413,0.3937 0.2413,0.8509 0,0.5969 -0.381,1.0414 -0.381,0.4445 -1.0033,0.6858 -0.6223,0.2286 -1.3462,0.2286 z" />
      <path
         id="path3851"
         style="font-style:normal;font-variant:normal;font-weight:300;font-stretch:normal;font-size:12.7px;font-family:Comfortaa;-inkscape-font-specification:'Comfortaa Light';fill:#4e5153;fill-opacity:1;stroke-width:0.264999;stroke-miterlimit:3.4;stroke-dasharray:none"
         d="m 97.282695,84.896484 q -0.1524,0 -0.2667,-0.1016 -0.1143,-0.1143 -0.1143,-0.2794 v -9.156699 q 0,-0.1651 0.1143,-0.2667 0.1143,-0.1143 0.2667,-0.1143 0.1651,0 0.2667,0.1143 0.1143,0.1016 0.1143,0.2667 v 8.851899 h 5.219695 q 0.1778,0 0.2794,0.1016 0.1016,0.0889 0.1016,0.2413 0,0.1524 -0.1016,0.254 -0.1016,0.0889 -0.2794,0.0889 z" />
      <path
         id="path3853"
         style="font-style:normal;font-variant:normal;font-weight:300;font-stretch:normal;font-size:12.7px;font-family:Comfortaa;-inkscape-font-specification:'Comfortaa Light';fill:#4e5153;fill-opacity:1;stroke-width:0.264999;stroke-miterlimit:3.4;stroke-dasharray:none"
         d="m 107.912,84.972684 q -1.016,0 -1.8288,-0.4572 -0.8001,-0.4699 -1.27,-1.27 -0.4572,-0.8128 -0.4572,-1.8161 0,-1.016 0.4572,-1.8161 0.4699,-0.8128 1.27,-1.27 0.8128,-0.4699 1.8288,-0.4699 1.016,0 1.8161,0.4699 0.8001,0.4572 1.2573,1.27 0.4699,0.8001 0.4699,1.8161 l -0.3175,0.508 q 0,0.8636 -0.4318,1.5494 -0.4191,0.6858 -1.143,1.0922 -0.7239,0.3937 -1.651,0.3937 z m 0,-0.7112 q 0.8001,0 1.4224,-0.3683 0.635,-0.381 0.9906,-1.016 0.3683,-0.6477 0.3683,-1.4478 0,-0.8128 -0.3683,-1.4478 -0.3556,-0.6477 -0.9906,-1.016 -0.6223,-0.381 -1.4224,-0.381 -0.7874,0 -1.4224,0.381 -0.635,0.3683 -1.0033,1.016 -0.3683,0.635 -0.3683,1.4478 0,0.8001 0.3683,1.4478 0.3683,0.635 1.0033,1.016 0.635,0.3683 1.4224,0.3683 z m 3.175,0.635 q -0.1778,0 -0.2921,-0.1016 -0.1016,-0.1143 -0.1016,-0.2794 v -2.3241 l 0.2413,-0.762 h 0.5207 v 3.0861 q 0,0.1651 -0.1016,0.2794 -0.1016,0.1016 -0.2667,0.1016 z" />
      <path
         id="path3855"
         style="font-style:normal;font-variant:normal;font-weight:300;font-stretch:normal;font-size:12.7px;font-family:Comfortaa;-inkscape-font-specification:'Comfortaa Light';fill:#4e5153;fill-opacity:1;stroke-width:0.264999;stroke-miterlimit:3.4;stroke-dasharray:none"
         d="m 114.54636,84.896484 q -0.127,0 -0.2286,-0.0635 -0.0889,-0.0635 -0.127,-0.1778 l -2.0574,-6.1595 q -0.0508,-0.2794 0.0254,-0.4064 0.0762,-0.1397 0.2667,-0.1397 0.1016,0 0.2032,0.0635 0.1016,0.0508 0.1524,0.1651 l 1.8796,5.6642 h -0.1651 l 1.7272,-5.588 q 0.0381,-0.1397 0.1397,-0.2159 0.1016,-0.0889 0.2413,-0.0889 0.1397,0 0.2286,0.0889 0.1016,0.0762 0.1524,0.2159 l 1.778,5.588 h -0.2286 l 1.8796,-5.6642 q 0.1016,-0.2286 0.3556,-0.2286 0.2286,0 0.3048,0.1778 0.0889,0.1778 0,0.3683 l -2.0447,6.1595 q -0.0381,0.1143 -0.1397,0.1778 -0.0889,0.0635 -0.2286,0.0635 -0.127,0 -0.2286,-0.0635 -0.1016,-0.0635 -0.127,-0.1778 l -1.8161,-5.6388 h 0.1651 l -1.7526,5.6388 q -0.0508,0.127 -0.1524,0.1905 -0.0889,0.0508 -0.2032,0.0508 z" />
    </g>
    <path
       id="path1607-2-1-3-8"
       d="m 123.81383,21.259466 v 6.2206 l 2.48824,1.43658 -3.9764,2.29577 4.30977,2.48824 -4.30977,2.48824 4.30977,2.48823 -4.30977,2.48824 2.15487,1.24412 v 6.2206"
       style="fill:none;stroke:#fed700;stroke-width:0.756163;stroke-linecap:round;stroke-linejoin:round;stroke-miterlimit:4;stroke-dasharray:none;stroke-opacity:1" />
    <path
       d="m 125.68444,48.308247 a 1.2038528,1.2038528 0 0 1 -1.20386,1.203852 1.2038528,1.2038528 0 0 1 -1.20385,-1.203852 1.2038528,1.2038528 0 0 1 1.20385,-1.203853 1.2038528,1.2038528 0 0 1 1.20386,1.203853"
       style="fill:#fed700;fill-opacity:1;stroke:#fed700;stroke-width:0.805823;stroke-linecap:round;stroke-linejoin:round;stroke-miterlimit:4;stroke-dasharray:none;stroke-opacity:1"
       id="path1707-9-1-6" />
    <path
       d="m 124.94944,21.714922 a 1.2038528,1.2038528 0 0 1 -1.20386,1.203853 1.2038528,1.2038528 0 0 1 -1.20385,-1.203853 1.2038528,1.2038528 0 0 1 1.20385,-1.203853 1.2038528,1.2038528 0 0 1 1.20386,1.203853"
       style="fill:#fed700;fill-opacity:1;stroke:#fed700;stroke-width:0.805823;stroke-linecap:round;stroke-linejoin:round;stroke-miterlimit:4;stroke-dasharray:none;stroke-opacity:1"
       id="path1707-9-0-7" />
    <g
       transform="translate(8.5284618,-18.760564)"
       style="font-style:normal;font-weight:normal;font-size:5.29167px;line-height:1.15;font-family:sans-serif;fill:#000000;fill-opacity:1;stroke:none;stroke-width:0.264583"
       id="text3420-2"
       aria-label="VOUT" />
    <path
       id="path3434-9"
       d="M 36.441792,27.027592 H 61.439274"
       style="fill:none;stroke:#fed700;stroke-width:1;stroke-linecap:round;stroke-linejoin:miter;stroke-miterlimit:4;stroke-dasharray:none;stroke-opacity:1" />
    <path
       id="path3436-3"
       d="M 42.239694,32.350244 H 54.690898"
       style="fill:none;stroke:#fed700;stroke-width:1;stroke-linecap:round;stroke-linejoin:miter;stroke-miterlimit:4;stroke-dasharray:none;stroke-opacity:1" />
    <path
       style="fill:none;stroke:#fed700;stroke-width:1;stroke-linecap:round;stroke-linejoin:miter;stroke-miterlimit:4;stroke-dasharray:none;stroke-opacity:1"
       d="M 36.394255,37.6729 H 61.391757"
       id="path3434-8-9" />
    <path
       style="fill:none;stroke:#fed700;stroke-width:1;stroke-linecap:round;stroke-linejoin:miter;stroke-miterlimit:4;stroke-dasharray:none;stroke-opacity:1"
       d="M 42.192157,42.995576 H 54.643381"
       id="path3436-1-0" />
    <path
       sodipodi:nodetypes="cccc"
       id="path3456-8"
       d="M 123.81383,21.259466 123.80203,8.3310267 H 48.843265 V 26.894006"
       style="fill:none;stroke:#fed700;stroke-width:1;stroke-linecap:round;stroke-linejoin:round;stroke-miterlimit:4;stroke-dasharray:none;stroke-opacity:1" />
    <path
       sodipodi:nodetypes="cccc"
       id="path3458-3"
       d="m 124.58031,48.474805 0.0413,14.597462 H 48.442735 V 43.130634"
       style="fill:none;stroke:#fed700;stroke-width:1;stroke-linecap:round;stroke-linejoin:round;stroke-miterlimit:4;stroke-dasharray:none;stroke-opacity:1" />
    <g
       style="font-style:normal;font-variant:normal;font-weight:300;font-stretch:normal;font-size:12.7px;line-height:1.25;font-family:Comfortaa;-inkscape-font-specification:'Comfortaa Light';fill:#000000;fill-opacity:1;stroke:none;stroke-width:0.264999;stroke-miterlimit:3.4;stroke-dasharray:none"
       id="text2058"
       aria-label="R">
      <path
         id="path3860"
         style="font-style:normal;font-variant:normal;font-weight:300;font-stretch:normal;font-size:12.7px;font-family:Comfortaa;-inkscape-font-specification:'Comfortaa Light';fill:#4e5153;fill-opacity:1;stroke-width:0.264999;stroke-miterlimit:3.4;stroke-dasharray:none"
         d="m 129.63177,41.064281 q -0.1651,0 -0.2794,-0.1016 -0.1016,-0.1143 -0.1016,-0.2794 v -9.156699 q 0,-0.1778 0.1016,-0.2794 0.1143,-0.1016 0.2794,-0.1016 h 2.4257 q 0.9271,0 1.6383,0.3937 0.7239,0.381 1.1303,1.0541 0.4064,0.6731 0.4064,1.5621 0,0.8636 -0.4064,1.5367 -0.4064,0.6731 -1.1303,1.0541 -0.7112,0.381 -1.6383,0.381 h -2.0447 v 3.555999 q 0,0.1651 -0.1016,0.2794 -0.1016,0.1016 -0.2794,0.1016 z m 5.334,0 q -0.1397,0 -0.2159,-0.0508 -0.0635,-0.0635 -0.127,-0.1524 l -2.5273,-4.038599 0.7874,-0.1778 2.4003,3.835399 q 0.1651,0.254 0.0635,0.4191 -0.0889,0.1651 -0.381,0.1651 z m -4.953,-4.698999 h 2.0447 q 0.7112,0 1.2446,-0.2794 0.5461,-0.2921 0.8509,-0.7874 0.3175,-0.4953 0.3175,-1.143 0,-0.6604 -0.3175,-1.1684 -0.3048,-0.508 -0.8509,-0.7874 -0.5334,-0.2921 -1.2446,-0.2921 h -2.0447 z" />
    </g>
    <g
       style="font-style:normal;font-variant:normal;font-weight:300;font-stretch:normal;font-size:12.7px;line-height:1.25;font-family:Comfortaa;-inkscape-font-specification:'Comfortaa Light';fill:#000000;fill-opacity:1;stroke:none;stroke-width:0.264999;stroke-miterlimit:3.4;stroke-dasharray:none"
       id="text2062"
       aria-label="V">
      <path
         id="path3863"
         style="font-style:normal;font-variant:normal;font-weight:300;font-stretch:normal;font-size:12.7px;font-family:Comfortaa;-inkscape-font-specification:'Comfortaa Light';fill:#4e5153;fill-opacity:1;stroke-width:0.264999;stroke-miterlimit:3.4;stroke-dasharray:none"
         d="m 28.750591,41.064281 q -0.2413,0 -0.3429,-0.2413 l -3.81,-9.055099 q -0.127,-0.2921 -0.0127,-0.4572 0.127,-0.1651 0.3429,-0.1651 0.2413,0 0.3683,0.2667 l 3.6576,8.750299 h -0.3683 l 3.6068,-8.699499 q 0.0635,-0.1778 0.1651,-0.2413 0.1016,-0.0762 0.254,-0.0762 0.2286,0 0.3048,0.1905 0.0762,0.1905 -0.0254,0.4318 l -3.7973,9.055099 q -0.0635,0.1397 -0.1651,0.1905 -0.0889,0.0508 -0.1778,0.0508 z" />
    </g>
    <path
       id="path2064"
       d="M 70.401891,11.626224 H 101.06125"
       style="fill:#4e5153;fill-opacity:1;stroke:#4e5153;stroke-width:0.332813px;stroke-linecap:butt;stroke-linejoin:miter;stroke-opacity:1;marker-end:url(#marker2926)" />
    <g
       style="font-style:normal;font-variant:normal;font-weight:300;font-stretch:normal;font-size:12.7px;line-height:1.25;font-family:Comfortaa;-inkscape-font-specification:'Comfortaa Light';fill:#000000;fill-opacity:1;stroke:none;stroke-width:0.264999;stroke-miterlimit:3.4;stroke-dasharray:none"
       id="text2116"
       aria-label="I">
      <path
         id="path3866"
         style="font-style:normal;font-variant:normal;font-weight:300;font-stretch:normal;font-size:12.7px;font-family:Comfortaa;-inkscape-font-specification:'Comfortaa Light';fill:#4e5153;fill-opacity:1;stroke-width:0.264999;stroke-miterlimit:3.4;stroke-dasharray:none"
         d="m 66.689795,20.618162 q -0.1651,0 -0.2794,-0.1016 -0.1016,-0.1143 -0.1016,-0.2794 v -9.1567 q 0,-0.1651 0.1016,-0.2667 0.1143,-0.1143 0.2794,-0.1143 0.1651,0 0.2667,0.1143 0.1143,0.1016 0.1143,0.2667 v 9.1567 q 0,0.1651 -0.1143,0.2794 -0.1016,0.1016 -0.2667,0.1016 z" />
    </g>
  </g>
</svg>
