<?xml version="1.0" encoding="UTF-8" standalone="no"?>
<svg
   xmlns:dc="http://purl.org/dc/elements/1.1/"
   xmlns:cc="http://creativecommons.org/ns#"
   xmlns:rdf="http://www.w3.org/1999/02/22-rdf-syntax-ns#"
   xmlns:svg="http://www.w3.org/2000/svg"
   xmlns="http://www.w3.org/2000/svg"
   xmlns:sodipodi="http://sodipodi.sourceforge.net/DTD/sodipodi-0.dtd"
   xmlns:inkscape="http://www.inkscape.org/namespaces/inkscape"
   sodipodi:docname="Op-Amp-Gain.svg"
   inkscape:version="1.0 (4035a4fb49, 2020-05-01)"
   id="svg8"
   version="1.1"
   viewBox="0 0 174.625 95.250003"
   height="360"
   width="660"
   inkscape:export-filename="C:\Users\Corey\Documents\KoBee\Website Assets\Calculator Assets\Op-Amp-Gain.png"
   inkscape:export-xdpi="96"
   inkscape:export-ydpi="96">
  <defs
     id="defs2">
    <rect
       x="20.599702"
       y="51.026785"
       width="14.741071"
       height="12.095238"
       id="rect1026" />
    <rect
       x="117.92857"
       y="41.766369"
       width="13.985119"
       height="10.961309"
       id="rect1020" />
    <marker
       inkscape:isstock="true"
       style="overflow:visible;"
       id="marker3841"
       refX="0.0"
       refY="0.0"
       orient="auto"
       inkscape:stockid="Arrow1Mend">
      <path
         transform="scale(0.4) rotate(180) translate(10,0)"
         style="fill-rule:evenodd;stroke:#4e5153;stroke-width:1pt;stroke-opacity:1;fill:#4e5153;fill-opacity:1"
         d="M 0.0,0.0 L 5.0,-5.0 L -12.5,0.0 L 5.0,5.0 L 0.0,0.0 z "
         id="path3839" />
    </marker>
    <marker
       inkscape:isstock="true"
       style="overflow:visible;"
       id="marker3831"
       refX="0.0"
       refY="0.0"
       orient="auto"
       inkscape:stockid="Arrow1Mend">
      <path
         transform="scale(0.4) rotate(180) translate(10,0)"
         style="fill-rule:evenodd;stroke:#4e5153;stroke-width:1pt;stroke-opacity:1;fill:#4e5153;fill-opacity:1"
         d="M 0.0,0.0 L 5.0,-5.0 L -12.5,0.0 L 5.0,5.0 L 0.0,0.0 z "
         id="path3829" />
    </marker>
    <marker
       inkscape:stockid="TriangleOutL"
       orient="auto"
       refY="0.0"
       refX="0.0"
       id="TriangleOutL"
       style="overflow:visible"
       inkscape:isstock="true">
      <path
         id="path2502"
         d="M 5.77,0.0 L -2.88,5.0 L -2.88,-5.0 L 5.77,0.0 z "
         style="fill-rule:evenodd;stroke:#000000;stroke-width:1pt;stroke-opacity:1;fill:#000000;fill-opacity:1"
         transform="scale(0.8)" />
    </marker>
    <marker
       inkscape:stockid="Arrow2Lend"
       orient="auto"
       refY="0.0"
       refX="0.0"
       id="marker2926"
       style="overflow:visible;"
       inkscape:isstock="true">
      <path
         id="path2924"
         style="fill-rule:evenodd;stroke-width:0.625;stroke-linejoin:round;stroke:#000000;stroke-opacity:1;fill:#000000;fill-opacity:1"
         d="M 8.7185878,4.0337352 L -2.2072895,0.016013256 L 8.7185884,-4.0017078 C 6.9730900,-1.6296469 6.9831476,1.6157441 8.7185878,4.0337352 z "
         transform="scale(1.1) rotate(180) translate(1,0)" />
    </marker>
    <marker
       inkscape:stockid="Arrow2Lend"
       orient="auto"
       refY="0.0"
       refX="0.0"
       id="marker2868"
       style="overflow:visible;"
       inkscape:isstock="true">
      <path
         id="path2866"
         style="fill-rule:evenodd;stroke-width:0.625;stroke-linejoin:round;stroke:#000000;stroke-opacity:1;fill:#000000;fill-opacity:1"
         d="M 8.7185878,4.0337352 L -2.2072895,0.016013256 L 8.7185884,-4.0017078 C 6.9730900,-1.6296469 6.9831476,1.6157441 8.7185878,4.0337352 z "
         transform="scale(1.1) rotate(180) translate(1,0)" />
    </marker>
    <marker
       inkscape:stockid="Arrow2Lend"
       orient="auto"
       refY="0.0"
       refX="0.0"
       id="Arrow2Lend"
       style="overflow:visible;"
       inkscape:isstock="true">
      <path
         id="path2381"
         style="fill-rule:evenodd;stroke-width:0.625;stroke-linejoin:round;stroke:#000000;stroke-opacity:1;fill:#000000;fill-opacity:1"
         d="M 8.7185878,4.0337352 L -2.2072895,0.016013256 L 8.7185884,-4.0017078 C 6.9730900,-1.6296469 6.9831476,1.6157441 8.7185878,4.0337352 z "
         transform="scale(1.1) rotate(180) translate(1,0)" />
    </marker>
    <marker
       inkscape:stockid="Arrow1Lend"
       orient="auto"
       refY="0.0"
       refX="0.0"
       id="Arrow1Lend"
       style="overflow:visible;"
       inkscape:isstock="true">
      <path
         id="path2363"
         d="M 0.0,0.0 L 5.0,-5.0 L -12.5,0.0 L 5.0,5.0 L 0.0,0.0 z "
         style="fill-rule:evenodd;stroke:#000000;stroke-width:1pt;stroke-opacity:1;fill:#000000;fill-opacity:1"
         transform="scale(0.8) rotate(180) translate(12.5,0)" />
    </marker>
    <marker
       inkscape:stockid="Arrow1Lstart"
       orient="auto"
       refY="0.0"
       refX="0.0"
       id="Arrow1Lstart"
       style="overflow:visible"
       inkscape:isstock="true">
      <path
         id="path2360"
         d="M 0.0,0.0 L 5.0,-5.0 L -12.5,0.0 L 5.0,5.0 L 0.0,0.0 z "
         style="fill-rule:evenodd;stroke:#000000;stroke-width:1pt;stroke-opacity:1;fill:#000000;fill-opacity:1"
         transform="scale(0.8) translate(12.5,0)" />
    </marker>
    <marker
       inkscape:stockid="TriangleInL"
       orient="auto"
       refY="0.0"
       refX="0.0"
       id="TriangleInL"
       style="overflow:visible"
       inkscape:isstock="true">
      <path
         id="path2493"
         d="M 5.77,0.0 L -2.88,5.0 L -2.88,-5.0 L 5.77,0.0 z "
         style="fill-rule:evenodd;stroke:#000000;stroke-width:1pt;stroke-opacity:1;fill:#000000;fill-opacity:1"
         transform="scale(-0.8)" />
    </marker>
    <marker
       inkscape:stockid="Arrow2Mstart"
       orient="auto"
       refY="0.0"
       refX="0.0"
       id="Arrow2Mstart"
       style="overflow:visible"
       inkscape:isstock="true">
      <path
         id="path2384"
         style="fill-rule:evenodd;stroke-width:0.625;stroke-linejoin:round;stroke:#000000;stroke-opacity:1;fill:#000000;fill-opacity:1"
         d="M 8.7185878,4.0337352 L -2.2072895,0.016013256 L 8.7185884,-4.0017078 C 6.9730900,-1.6296469 6.9831476,1.6157441 8.7185878,4.0337352 z "
         transform="scale(0.6) translate(0,0)" />
    </marker>
    <marker
       inkscape:isstock="true"
       style="overflow:visible"
       id="TriangleInL-7"
       refX="0"
       refY="0"
       orient="auto"
       inkscape:stockid="TriangleInL">
      <path
         transform="scale(-0.8)"
         style="fill:#000000;fill-opacity:1;fill-rule:evenodd;stroke:#000000;stroke-width:1pt;stroke-opacity:1"
         d="M 5.77,0 -2.88,5 V -5 Z"
         id="path2493-4" />
    </marker>
    <marker
       inkscape:isstock="true"
       style="overflow:visible"
       id="Arrow1Lstart-8"
       refX="0"
       refY="0"
       orient="auto"
       inkscape:stockid="Arrow1Lstart">
      <path
         transform="matrix(0.8,0,0,0.8,10,0)"
         style="fill:#000000;fill-opacity:1;fill-rule:evenodd;stroke:#000000;stroke-width:1pt;stroke-opacity:1"
         d="M 0,0 5,-5 -12.5,0 5,5 Z"
         id="path2360-1" />
    </marker>
    <marker
       inkscape:isstock="true"
       style="overflow:visible"
       id="TriangleOutL-0"
       refX="0"
       refY="0"
       orient="auto"
       inkscape:stockid="TriangleOutL">
      <path
         transform="scale(0.8)"
         style="fill:#000000;fill-opacity:1;fill-rule:evenodd;stroke:#000000;stroke-width:1pt;stroke-opacity:1"
         d="M 5.77,0 -2.88,5 V -5 Z"
         id="path2502-7" />
    </marker>
    <marker
       inkscape:stockid="Arrow1Mend"
       orient="auto"
       refY="0"
       refX="0"
       id="marker3831-4"
       style="overflow:visible"
       inkscape:isstock="true">
      <path
         id="path3829-7"
         d="M 0,0 5,-5 -12.5,0 5,5 Z"
         style="fill:#4e5153;fill-opacity:1;fill-rule:evenodd;stroke:#4e5153;stroke-width:1pt;stroke-opacity:1"
         transform="matrix(-0.4,0,0,-0.4,-4,0)" />
    </marker>
    <marker
       inkscape:stockid="Arrow1Mend"
       orient="auto"
       refY="0"
       refX="0"
       id="marker3841-2"
       style="overflow:visible"
       inkscape:isstock="true">
      <path
         id="path3839-2"
         d="M 0,0 5,-5 -12.5,0 5,5 Z"
         style="fill:#4e5153;fill-opacity:1;fill-rule:evenodd;stroke:#4e5153;stroke-width:1pt;stroke-opacity:1"
         transform="matrix(-0.4,0,0,-0.4,-4,0)" />
    </marker>
    <marker
       inkscape:stockid="Arrow2Lend"
       orient="auto"
       refY="0"
       refX="0"
       id="marker2926-3"
       style="overflow:visible"
       inkscape:isstock="true">
      <path
         id="path2924-1"
         style="fill:#4e5153;fill-opacity:1;fill-rule:evenodd;stroke:#4e5153;stroke-width:0.625;stroke-linejoin:round;stroke-opacity:1"
         d="M 8.7185878,4.0337352 -2.2072895,0.01601326 8.7185884,-4.0017078 c -1.7454984,2.3720609 -1.7354408,5.6174519 -6e-7,8.035443 z"
         transform="matrix(-1.1,0,0,-1.1,-1.1,0)" />
    </marker>
    <rect
       id="rect1032"
       height="12.095238"
       width="14.741071"
       y="51.026785"
       x="20.599702" />
    <rect
       id="rect1036"
       height="12.095238"
       width="14.741071"
       y="51.026785"
       x="20.599702" />
    <rect
       id="rect1040"
       height="12.095238"
       width="14.741071"
       y="51.026785"
       x="20.599702" />
    <rect
       x="20.599702"
       y="51.026785"
       width="14.741071"
       height="12.095238"
       id="rect1044" />
    <rect
       id="rect1048"
       height="12.095238"
       width="14.741071"
       y="51.026785"
       x="20.599702" />
  </defs>
  <sodipodi:namedview
     inkscape:window-maximized="1"
     inkscape:window-y="472"
     inkscape:window-x="-8"
     inkscape:window-height="1377"
     inkscape:window-width="2560"
     units="px"
     showgrid="false"
     inkscape:document-rotation="0"
     inkscape:current-layer="layer1"
     inkscape:document-units="mm"
     inkscape:cy="-50.1465"
     inkscape:cx="-166.21158"
     inkscape:zoom="0.7"
     inkscape:pageshadow="2"
     inkscape:pageopacity="0.0"
     borderopacity="1.0"
     bordercolor="#666666"
     pagecolor="#ffffff"
     id="base"
     showguides="true" />
  <metadata
     id="metadata5">
    <rdf:RDF>
      <cc:Work
         rdf:about="">
        <dc:format>image/svg+xml</dc:format>
        <dc:type
           rdf:resource="http://purl.org/dc/dcmitype/StillImage" />
        <dc:title />
      </cc:Work>
    </rdf:RDF>
  </metadata>
  <g
     id="layer1"
     inkscape:groupmode="layer"
     inkscape:label="Layer 1">
    <path
       id="path3434-9"
       d="M 54.146938,49.882727 H 79.14442"
       style="fill:none;stroke:#fed700;stroke-width:1;stroke-linecap:round;stroke-linejoin:miter;stroke-miterlimit:4;stroke-dasharray:none;stroke-opacity:1" />
    <path
       id="path3436-3"
       d="M 105.91898,16.097837 V 28.549041"
       style="fill:none;stroke:#fed700;stroke-width:1;stroke-linecap:round;stroke-linejoin:miter;stroke-miterlimit:4;stroke-dasharray:none;stroke-opacity:1" />
    <path
       d="M 7.5410664,1.7948973 H 167.30373 c 3.66132,0 6.60889,2.9475635 6.60889,6.6088867 v 79.306641 c 0,3.661323 -2.94757,6.608886 -6.60889,6.608886 H 7.5410664 c -3.6613232,0 -6.60888671,-2.947563 -6.60888671,-6.608886 V 8.403784 c 0,-3.6613232 2.94756351,-6.6088867 6.60888671,-6.6088867 z"
       style="fill:none;fill-opacity:1;stroke:none;stroke-width:0.197656;stroke-linecap:round;stroke-linejoin:round;stroke-miterlimit:4;stroke-dasharray:none;stroke-opacity:1"
       id="rect846-0" />
    <g
       style="font-style:normal;font-variant:normal;font-weight:300;font-stretch:normal;font-size:12.7px;line-height:1.25;font-family:Comfortaa;-inkscape-font-specification:'Comfortaa Light';fill:#000000;fill-opacity:1;stroke:none;stroke-width:0.264999;stroke-miterlimit:3.4;stroke-dasharray:none"
       id="text1054-6"
       aria-label="Op Amp Gain">
      <path
         id="path1017"
         style="font-style:normal;font-variant:normal;font-weight:300;font-stretch:normal;font-size:12.7px;font-family:Comfortaa;-inkscape-font-specification:'Comfortaa Light';fill:#4e5153;fill-opacity:1;stroke-width:0.264999;stroke-miterlimit:3.4;stroke-dasharray:none"
         d="m 49.209127,85.023484 q -1.0922,0 -2.0193,-0.381 -0.9271,-0.381 -1.6256,-1.0668 -0.6858,-0.6985 -1.0668,-1.6256 -0.381,-0.9271 -0.381,-2.0193 0,-1.0922 0.381,-2.0066 0.381,-0.9271 1.0668,-1.612899 0.6985,-0.6985 1.6256,-1.0795 0.9271,-0.381 2.0193,-0.381 1.0922,0 2.0066,0.381 0.9271,0.381 1.6129,1.0795 0.6985,0.685799 1.0795,1.612899 0.381,0.9144 0.381,2.0066 0,1.0922 -0.381,2.0193 -0.381,0.9271 -1.0795,1.6256 -0.6858,0.6858 -1.6129,1.0668 -0.9144,0.381 -2.0066,0.381 z m 0,-0.762 q 0.9144,0 1.7018,-0.3175 0.7874,-0.3302 1.3716,-0.9144 0.5969,-0.5969 0.9144,-1.3843 0.3302,-0.7874 0.3302,-1.7145 0,-0.9144 -0.3302,-1.7018 -0.3175,-0.7874 -0.9144,-1.3716 -0.5842,-0.596899 -1.3716,-0.914399 -0.7874,-0.3302 -1.7018,-0.3302 -0.9271,0 -1.7145,0.3302 -0.7874,0.3175 -1.3843,0.914399 -0.5842,0.5842 -0.9144,1.3716 -0.3175,0.7874 -0.3175,1.7018 0,0.9271 0.3175,1.7145 0.3302,0.7874 0.9144,1.3843 0.5969,0.5842 1.3843,0.9144 0.7874,0.3175 1.7145,0.3175 z" />
      <path
         id="path1019"
         style="font-style:normal;font-variant:normal;font-weight:300;font-stretch:normal;font-size:12.7px;font-family:Comfortaa;-inkscape-font-specification:'Comfortaa Light';fill:#4e5153;fill-opacity:1;stroke-width:0.264999;stroke-miterlimit:3.4;stroke-dasharray:none"
         d="m 56.58624,87.868284 q -0.1651,0 -0.2794,-0.1143 -0.1016,-0.1016 -0.1016,-0.2667 v -6.1341 q 0.0254,-1.0033 0.4826,-1.778 0.4699,-0.7874 1.27,-1.2446 0.8001,-0.4572 1.7907,-0.4572 1.016,0 1.8161,0.4699 0.8128,0.4572 1.27,1.27 0.4699,0.8001 0.4699,1.8161 0,1.0033 -0.4699,1.8161 -0.4572,0.8001 -1.27,1.27 -0.8001,0.4572 -1.8161,0.4572 -0.9144,0 -1.651,-0.3937 -0.7239,-0.3937 -1.1303,-1.0541 v 3.9624 q 0,0.1651 -0.1016,0.2667 -0.1016,0.1143 -0.2794,0.1143 z m 3.1623,-3.6068 q 0.8001,0 1.4224,-0.3683 0.635,-0.381 1.0033,-1.016 0.3683,-0.6477 0.3683,-1.4478 0,-0.8128 -0.3683,-1.4478 -0.3683,-0.6477 -1.0033,-1.016 -0.6223,-0.381 -1.4224,-0.381 -0.7874,0 -1.4224,0.381 -0.635,0.3683 -1.0033,1.016 -0.3556,0.635 -0.3556,1.4478 0,0.8001 0.3556,1.4478 0.3683,0.635 1.0033,1.016 0.635,0.3683 1.4224,0.3683 z" />
      <path
         id="path1021"
         style="font-style:normal;font-variant:normal;font-weight:300;font-stretch:normal;font-size:12.7px;font-family:Comfortaa;-inkscape-font-specification:'Comfortaa Light';fill:#4e5153;fill-opacity:1;stroke-width:0.264999;stroke-miterlimit:3.4;stroke-dasharray:none"
         d="m 68.409345,84.896484 q -0.2413,0 -0.3429,-0.1905 -0.0889,-0.1905 0,-0.3556 l 3.848099,-9.105899 q 0.1016,-0.2667 0.3683,-0.2667 0.254,0 0.3683,0.2667 l 3.8608,9.105899 q 0.1016,0.1778 -0.0127,0.3683 -0.1143,0.1778 -0.3302,0.1778 -0.127,0 -0.2159,-0.0508 -0.0762,-0.0635 -0.1397,-0.1905 l -3.7338,-8.902699 h 0.4064 l -3.721099,8.902699 q -0.0508,0.127 -0.1397,0.1905 -0.0889,0.0508 -0.2159,0.0508 z m 0.9398,-2.4892 0.304799,-0.6858 h 5.2832 l 0.2921,0.6858 z" />
      <path
         id="path1023"
         style="font-style:normal;font-variant:normal;font-weight:300;font-stretch:normal;font-size:12.7px;font-family:Comfortaa;-inkscape-font-specification:'Comfortaa Light';fill:#4e5153;fill-opacity:1;stroke-width:0.264999;stroke-miterlimit:3.4;stroke-dasharray:none"
         d="m 87.422832,84.896484 q -0.1651,0 -0.2794,-0.1016 -0.1016,-0.1143 -0.1016,-0.2794 v -3.6703 q 0,-0.9779 -0.5207,-1.6002 -0.508,-0.6223 -1.3335,-0.6223 -0.8763,0 -1.4351,0.5842 -0.5461,0.5715 -0.5207,1.5494 h -0.762 q 0.0254,-0.8763 0.381,-1.524 0.3556,-0.6477 0.9652,-1.0033 0.6096,-0.3683 1.3716,-0.3683 0.7747,0 1.3589,0.381 0.5842,0.381 0.9144,1.0541 0.3429,0.6731 0.3429,1.5494 v 3.6703 q 0,0.1651 -0.1016,0.2794 -0.1016,0.1016 -0.2794,0.1016 z m -9.1821,0 q -0.1651,0 -0.2794,-0.1016 -0.1016,-0.1143 -0.1016,-0.2794 v -6.1849 q 0,-0.1778 0.1016,-0.2794 0.1143,-0.1016 0.2794,-0.1016 0.1778,0 0.2794,0.1016 0.1016,0.1016 0.1016,0.2794 v 6.1849 q 0,0.1651 -0.1016,0.2794 -0.1016,0.1016 -0.2794,0.1016 z m 4.6101,0 q -0.1651,0 -0.2794,-0.1016 -0.1016,-0.1143 -0.1016,-0.2794 v -3.6703 q 0,-0.9779 -0.5207,-1.6002 -0.508,-0.6223 -1.3335,-0.6223 -0.8763,0 -1.4351,0.5588 -0.5588,0.5588 -0.5588,1.4478 h -0.635 q 0.0381,-0.8128 0.381,-1.4351 0.3556,-0.6223 0.9398,-0.9779 0.5842,-0.3556 1.3081,-0.3556 0.7747,0 1.3589,0.381 0.5842,0.381 0.9144,1.0541 0.3429,0.6731 0.3429,1.5494 v 3.6703 q 0,0.1651 -0.1016,0.2794 -0.1016,0.1016 -0.2794,0.1016 z" />
      <path
         id="path1025"
         style="font-style:normal;font-variant:normal;font-weight:300;font-stretch:normal;font-size:12.7px;font-family:Comfortaa;-inkscape-font-specification:'Comfortaa Light';fill:#4e5153;fill-opacity:1;stroke-width:0.264999;stroke-miterlimit:3.4;stroke-dasharray:none"
         d="m 90.345419,87.868284 q -0.1651,0 -0.2794,-0.1143 -0.1016,-0.1016 -0.1016,-0.2667 v -6.1341 q 0.0254,-1.0033 0.4826,-1.778 0.4699,-0.7874 1.27,-1.2446 0.8001,-0.4572 1.7907,-0.4572 1.016,0 1.8161,0.4699 0.8128,0.4572 1.27,1.27 0.4699,0.8001 0.4699,1.8161 0,1.0033 -0.4699,1.8161 -0.4572,0.8001 -1.27,1.27 -0.8001,0.4572 -1.8161,0.4572 -0.9144,0 -1.651,-0.3937 -0.7239,-0.3937 -1.1303,-1.0541 v 3.9624 q 0,0.1651 -0.1016,0.2667 -0.1016,0.1143 -0.2794,0.1143 z m 3.1623,-3.6068 q 0.8001,0 1.4224,-0.3683 0.635,-0.381 1.0033,-1.016 0.3683,-0.6477 0.3683,-1.4478 0,-0.8128 -0.3683,-1.4478 -0.3683,-0.6477 -1.0033,-1.016 -0.6223,-0.381 -1.4224,-0.381 -0.7874,0 -1.4224,0.381 -0.635,0.3683 -1.0033,1.016 -0.3556,0.635 -0.3556,1.4478 0,0.8001 0.3556,1.4478 0.3683,0.635 1.0033,1.016 0.635,0.3683 1.4224,0.3683 z" />
      <path
         id="path1027"
         style="font-style:normal;font-variant:normal;font-weight:300;font-stretch:normal;font-size:12.7px;font-family:Comfortaa;-inkscape-font-specification:'Comfortaa Light';fill:#4e5153;fill-opacity:1;stroke-width:0.264999;stroke-miterlimit:3.4;stroke-dasharray:none"
         d="m 107.27392,85.023484 q -1.016,0 -1.9177,-0.3937 -0.889,-0.4064 -1.5748,-1.1049 -0.6858,-0.7112 -1.0795,-1.6256 -0.3937,-0.9271 -0.3937,-1.9685 0,-1.0287 0.381,-1.9431 0.381,-0.9271 1.0541,-1.625599 0.6858,-0.7112 1.5875,-1.1049 0.9017,-0.4064 1.9431,-0.4064 0.8763,0 1.6637,0.2794 0.7874,0.2794 1.4732,0.8509 0.1143,0.0889 0.1143,0.254 0,0.1524 -0.1016,0.2794 -0.1016,0.114299 -0.2794,0.114299 -0.0508,0 -0.1016,-0.0127 -0.0508,-0.0254 -0.1016,-0.0508 -0.0508,-0.0381 -0.1143,-0.0889 -0.508,-0.4572 -1.1557,-0.6604 -0.6477,-0.2032 -1.397,-0.2032 -0.8509,0 -1.6129,0.3556 -0.762,0.3429 -1.3462,0.952499 -0.5842,0.5969 -0.9144,1.3716 -0.3302,0.7747 -0.3302,1.6383 0,0.889 0.3302,1.6764 0.3302,0.7874 0.9017,1.3843 0.5842,0.5969 1.3462,0.9398 0.762,0.3302 1.6256,0.3302 0.7493,0 1.397,-0.2286 0.6604,-0.2286 1.2319,-0.6985 0.1016,-0.0889 0.2413,-0.0635 0.1397,0.0254 0.2413,0.127 0.1016,0.1016 0.1016,0.2667 0,0.0762 -0.0127,0.1397 -0.0127,0.0635 -0.0762,0.127 -0.6223,0.6223 -1.4478,0.8636 -0.8128,0.2286 -1.6764,0.2286 z m 3.2131,-1.3589 -0.762,-0.1651 v -2.7432 h -2.1336 q -0.1651,0 -0.2794,-0.1016 -0.1016,-0.1016 -0.1016,-0.254 0,-0.1397 0.1016,-0.2286 0.1143,-0.1016 0.2794,-0.1016 h 2.5146 q 0.1778,0 0.2794,0.1016 0.1016,0.1016 0.1016,0.2667 z" />
      <path
         id="path1029"
         style="font-style:normal;font-variant:normal;font-weight:300;font-stretch:normal;font-size:12.7px;font-family:Comfortaa;-inkscape-font-specification:'Comfortaa Light';fill:#4e5153;fill-opacity:1;stroke-width:0.264999;stroke-miterlimit:3.4;stroke-dasharray:none"
         d="m 115.11637,84.972684 q -1.016,0 -1.8288,-0.4572 -0.8001,-0.4699 -1.27,-1.27 -0.4572,-0.8128 -0.4572,-1.8161 0,-1.016 0.4572,-1.8161 0.4699,-0.8128 1.27,-1.27 0.8128,-0.4699 1.8288,-0.4699 1.016,0 1.8161,0.4699 0.8001,0.4572 1.2573,1.27 0.4699,0.8001 0.4699,1.8161 l -0.3175,0.508 q 0,0.8636 -0.4318,1.5494 -0.4191,0.6858 -1.143,1.0922 -0.7239,0.3937 -1.651,0.3937 z m 0,-0.7112 q 0.8001,0 1.4224,-0.3683 0.635,-0.381 0.9906,-1.016 0.3683,-0.6477 0.3683,-1.4478 0,-0.8128 -0.3683,-1.4478 -0.3556,-0.6477 -0.9906,-1.016 -0.6223,-0.381 -1.4224,-0.381 -0.7874,0 -1.4224,0.381 -0.635,0.3683 -1.0033,1.016 -0.3683,0.635 -0.3683,1.4478 0,0.8001 0.3683,1.4478 0.3683,0.635 1.0033,1.016 0.635,0.3683 1.4224,0.3683 z m 3.175,0.635 q -0.1778,0 -0.2921,-0.1016 -0.1016,-0.1143 -0.1016,-0.2794 v -2.3241 l 0.2413,-0.762 h 0.5207 v 3.0861 q 0,0.1651 -0.1016,0.2794 -0.1016,0.1016 -0.2667,0.1016 z" />
      <path
         id="path1031"
         style="font-style:normal;font-variant:normal;font-weight:300;font-stretch:normal;font-size:12.7px;font-family:Comfortaa;-inkscape-font-specification:'Comfortaa Light';fill:#4e5153;fill-opacity:1;stroke-width:0.264999;stroke-miterlimit:3.4;stroke-dasharray:none"
         d="m 121.2084,84.896484 q -0.1651,0 -0.2794,-0.1016 -0.1016,-0.1143 -0.1016,-0.2794 v -6.1849 q 0,-0.1778 0.1016,-0.2794 0.1143,-0.1016 0.2794,-0.1016 0.1778,0 0.2794,0.1016 0.1016,0.1016 0.1016,0.2794 v 6.1849 q 0,0.1651 -0.1016,0.2794 -0.1016,0.1016 -0.2794,0.1016 z m -0.0127,-8.407399 q -0.2413,0 -0.4191,-0.1651 -0.1651,-0.1778 -0.1651,-0.4318 0,-0.2921 0.1778,-0.4318 0.1905,-0.1524 0.4191,-0.1524 0.2159,0 0.3937,0.1524 0.1905,0.1397 0.1905,0.4318 0,0.254 -0.1778,0.4318 -0.1651,0.1651 -0.4191,0.1651 z" />
      <path
         id="path1033"
         style="font-style:normal;font-variant:normal;font-weight:300;font-stretch:normal;font-size:12.7px;font-family:Comfortaa;-inkscape-font-specification:'Comfortaa Light';fill:#4e5153;fill-opacity:1;stroke-width:0.264999;stroke-miterlimit:3.4;stroke-dasharray:none"
         d="m 130.12757,84.896484 q -0.1651,0 -0.2794,-0.1016 -0.1016,-0.1143 -0.1016,-0.2794 v -3.4163 q 0,-0.8382 -0.3302,-1.3843 -0.3175,-0.5461 -0.8763,-0.8128 -0.5461,-0.2794 -1.2446,-0.2794 -0.6858,0 -1.2319,0.2667 -0.5461,0.254 -0.8636,0.7112 -0.3175,0.4572 -0.3175,1.0287 h -0.635 q 0.0508,-0.7874 0.4699,-1.4097 0.4191,-0.635 1.0922,-0.9906 0.6731,-0.3683 1.4859,-0.3683 0.9144,0 1.6383,0.381 0.7366,0.3683 1.1557,1.0922 0.4191,0.7112 0.4191,1.7653 v 3.4163 q 0,0.1651 -0.1143,0.2794 -0.1016,0.1016 -0.2667,0.1016 z m -5.6261,0 q -0.1651,0 -0.2794,-0.1016 -0.1016,-0.1143 -0.1016,-0.2794 v -6.1849 q 0,-0.1778 0.1016,-0.2794 0.1143,-0.1016 0.2794,-0.1016 0.1778,0 0.2794,0.1016 0.1016,0.1016 0.1016,0.2794 v 6.1849 q 0,0.1651 -0.1016,0.2794 -0.1016,0.1016 -0.2794,0.1016 z" />
    </g>
    <path
       d="m 79.710984,60.956539 10e-7,-23.536911 -10e-7,-23.53691 20.383566,11.768456 20.38356,11.768454 -20.38356,11.768455 z"
       inkscape:transform-center-x="-6.7945212"
       style="fill:none;stroke:#fed700;stroke-width:1;stroke-linecap:round;stroke-linejoin:round;stroke-miterlimit:4;stroke-dasharray:none;stroke-dashoffset:0"
       id="path1008" />
    <path
       style="fill:none;stroke:#fed700;stroke-width:1;stroke-linecap:round;stroke-linejoin:miter;stroke-miterlimit:4;stroke-dasharray:none;stroke-opacity:1"
       d="M 54.146938,23.823948 H 79.14442"
       id="path1014" />
    <path
       style="fill:none;stroke:#fed700;stroke-width:1;stroke-linecap:round;stroke-linejoin:miter;stroke-miterlimit:4;stroke-dasharray:none;stroke-opacity:1"
       d="M 105.91898,46.146944 V 58.598148"
       id="path1016" />
    <g
       style="font-style:normal;font-weight:normal;font-size:10.5833px;line-height:1.25;font-family:sans-serif;white-space:pre;shape-inside:url(#rect1020);fill:#000000;fill-opacity:1;stroke:none"
       id="text1018" />
    <g
       style="font-style:normal;font-weight:normal;font-size:7.05556px;line-height:1.25;font-family:sans-serif;white-space:pre;shape-inside:url(#rect1026);fill:#fed700;fill-opacity:1;stroke:none"
       id="text1024"
       transform="translate(60.135643,-5.0447123)"
       aria-label="+">
      <path
         id="path1012"
         style="shape-inside:url(#rect1026)"
         d="m 23.844891,52.846355 v 1.91892 h 1.91892 v 0.585666 h -1.91892 v 1.91892 h -0.578776 v -1.91892 h -1.918919 v -0.585666 h 1.918919 v -1.91892 z" />
    </g>
    <g
       style="font-style:normal;font-weight:normal;font-size:7.05556px;line-height:1.25;font-family:sans-serif;white-space:pre;shape-inside:url(#rect1040);fill:#fed700;fill-opacity:1;stroke:none"
       id="text1038"
       transform="translate(82.051744,-21.749057)"
       aria-label="+">
      <path
         id="path1009"
         style="shape-inside:url(#rect1040)"
         d="m 23.844891,52.846355 v 1.91892 h 1.91892 v 0.585666 h -1.91892 v 1.91892 h -0.578776 v -1.91892 h -1.918919 v -0.585666 h 1.918919 v -1.91892 z" />
    </g>
    <g
       style="font-style:normal;font-weight:normal;font-size:7.05556px;line-height:1.25;font-family:sans-serif;white-space:pre;shape-inside:url(#rect1044);fill:#fed700;fill-opacity:1;stroke:none"
       id="text1042"
       transform="matrix(1.8995787,0,0,1.2365234,64.079487,-26.017695)"
       aria-label="-">
      <path
         id="path1006"
         style="shape-inside:url(#rect1044)"
         d="m 20.944119,55.054663 h 1.856908 v 0.564996 h -1.856908 z" />
    </g>
    <g
       style="font-style:normal;font-weight:normal;font-size:7.05556px;line-height:1.25;font-family:sans-serif;white-space:pre;shape-inside:url(#rect1048);fill:#fed700;fill-opacity:1;stroke:none"
       id="text1046"
       transform="matrix(1.8995787,0,0,1.2365234,41.361577,-44.860197)"
       aria-label="-">
      <path
         id="path1003"
         style="shape-inside:url(#rect1048)"
         d="m 20.944119,55.054663 h 1.856908 v 0.564996 h -1.856908 z" />
    </g>
  </g>
</svg>
