<?xml version="1.0" encoding="UTF-8" standalone="no"?>
<svg
   xmlns:dc="http://purl.org/dc/elements/1.1/"
   xmlns:cc="http://creativecommons.org/ns#"
   xmlns:rdf="http://www.w3.org/1999/02/22-rdf-syntax-ns#"
   xmlns:svg="http://www.w3.org/2000/svg"
   xmlns="http://www.w3.org/2000/svg"
   xmlns:sodipodi="http://sodipodi.sourceforge.net/DTD/sodipodi-0.dtd"
   xmlns:inkscape="http://www.inkscape.org/namespaces/inkscape"
   sodipodi:docname="Peak-Peak-Voltage.svg"
   inkscape:version="1.0 (4035a4fb49, 2020-05-01)"
   id="svg8"
   version="1.1"
   viewBox="0 0 174.625 95.250003"
   height="360"
   width="660"
   inkscape:export-filename="C:\Users\Corey\Documents\KoBee\Website Assets\Calculator Assets\Peak-To-Peak-Voltage.png"
   inkscape:export-xdpi="96"
   inkscape:export-ydpi="96">
  <defs
     id="defs2">
    <marker
       inkscape:stockid="Arrow1Mend"
       orient="auto"
       refY="0.0"
       refX="0.0"
       id="marker2136"
       style="overflow:visible;"
       inkscape:isstock="true">
      <path
         id="path2134"
         d="M 0.0,0.0 L 5.0,-5.0 L -12.5,0.0 L 5.0,5.0 L 0.0,0.0 z "
         style="fill-rule:evenodd;stroke:#4e5153;stroke-width:1pt;stroke-opacity:1;fill:#4e5153;fill-opacity:1"
         transform="scale(0.4) rotate(180) translate(10,0)" />
    </marker>
    <marker
       inkscape:isstock="true"
       style="overflow:visible"
       id="marker2126"
       refX="0.0"
       refY="0.0"
       orient="auto"
       inkscape:stockid="Arrow1Mstart">
      <path
         transform="scale(0.4) translate(10,0)"
         style="fill-rule:evenodd;stroke:#4e5153;stroke-width:1pt;stroke-opacity:1;fill:#4e5153;fill-opacity:1"
         d="M 0.0,0.0 L 5.0,-5.0 L -12.5,0.0 L 5.0,5.0 L 0.0,0.0 z "
         id="path2124" />
    </marker>
    <inkscape:path-effect
       only_selected="false"
       apply_with_weight="true"
       apply_no_weight="true"
       helper_size="0"
       steps="2"
       weight="33.333333"
       lpeversion="1"
       is_visible="true"
       id="path-effect2122"
       effect="bspline" />
    <marker
       inkscape:stockid="Arrow1Mend"
       orient="auto"
       refY="0.0"
       refX="0.0"
       id="marker1796"
       style="overflow:visible;"
       inkscape:isstock="true">
      <path
         id="path1794"
         d="M 0.0,0.0 L 5.0,-5.0 L -12.5,0.0 L 5.0,5.0 L 0.0,0.0 z "
         style="fill-rule:evenodd;stroke:#4e5153;stroke-width:1pt;stroke-opacity:1;fill:#4e5153;fill-opacity:1"
         transform="scale(0.4) rotate(180) translate(10,0)" />
    </marker>
    <marker
       inkscape:isstock="true"
       style="overflow:visible"
       id="marker1786"
       refX="0.0"
       refY="0.0"
       orient="auto"
       inkscape:stockid="Arrow1Mstart">
      <path
         transform="scale(0.4) translate(10,0)"
         style="fill-rule:evenodd;stroke:#4e5153;stroke-width:1pt;stroke-opacity:1;fill:#4e5153;fill-opacity:1"
         d="M 0.0,0.0 L 5.0,-5.0 L -12.5,0.0 L 5.0,5.0 L 0.0,0.0 z "
         id="path1784" />
    </marker>
    <inkscape:path-effect
       only_selected="false"
       apply_with_weight="true"
       apply_no_weight="true"
       helper_size="0"
       steps="2"
       weight="33.333333"
       lpeversion="1"
       is_visible="true"
       id="path-effect1782"
       effect="bspline" />
    <marker
       inkscape:stockid="Arrow1Mstart"
       orient="auto"
       refY="0.0"
       refX="0.0"
       id="Arrow1Mstart"
       style="overflow:visible"
       inkscape:isstock="true"
       inkscape:collect="always">
      <path
         id="path1318"
         d="M 0.0,0.0 L 5.0,-5.0 L -12.5,0.0 L 5.0,5.0 L 0.0,0.0 z "
         style="fill-rule:evenodd;stroke:#4e5153;stroke-width:1pt;stroke-opacity:1;fill:#4e5153;fill-opacity:1"
         transform="scale(0.4) translate(10,0)" />
    </marker>
    <inkscape:path-effect
       effect="bspline"
       id="path-effect1274"
       is_visible="true"
       lpeversion="1"
       weight="33.333333"
       steps="2"
       helper_size="0"
       apply_no_weight="true"
       apply_with_weight="true"
       only_selected="false" />
    <inkscape:path-effect
       effect="bspline"
       id="path-effect1270"
       is_visible="true"
       lpeversion="1"
       weight="33.333333"
       steps="2"
       helper_size="0"
       apply_no_weight="true"
       apply_with_weight="true"
       only_selected="false" />
    <inkscape:path-effect
       effect="bspline"
       id="path-effect1148"
       is_visible="true"
       lpeversion="1"
       weight="33.333333"
       steps="2"
       helper_size="0"
       apply_no_weight="true"
       apply_with_weight="true"
       only_selected="false" />
    <inkscape:path-effect
       only_selected="false"
       apply_with_weight="true"
       apply_no_weight="true"
       helper_size="0"
       steps="2"
       weight="33.333333"
       lpeversion="1"
       is_visible="true"
       id="path-effect1144"
       effect="bspline" />
    <inkscape:path-effect
       only_selected="false"
       apply_with_weight="true"
       apply_no_weight="true"
       helper_size="0"
       steps="2"
       weight="33.333333"
       lpeversion="1"
       is_visible="true"
       id="path-effect1124"
       effect="bspline" />
    <inkscape:path-effect
       effect="bspline"
       id="path-effect1120"
       is_visible="true"
       lpeversion="1"
       weight="33.333333"
       steps="2"
       helper_size="0"
       apply_no_weight="true"
       apply_with_weight="true"
       only_selected="false" />
    <inkscape:path-effect
       only_selected="false"
       apply_with_weight="true"
       apply_no_weight="true"
       helper_size="0"
       steps="2"
       weight="33.333333"
       lpeversion="1"
       is_visible="true"
       id="path-effect1116"
       effect="bspline" />
    <inkscape:path-effect
       effect="bspline"
       id="path-effect1112"
       is_visible="true"
       lpeversion="1"
       weight="33.333333"
       steps="2"
       helper_size="0"
       apply_no_weight="true"
       apply_with_weight="true"
       only_selected="false" />
    <inkscape:path-effect
       effect="bspline"
       id="path-effect1096"
       is_visible="true"
       lpeversion="1"
       weight="33.333333"
       steps="2"
       helper_size="0"
       apply_no_weight="true"
       apply_with_weight="true"
       only_selected="false" />
    <inkscape:path-effect
       effect="bspline"
       id="path-effect1040"
       is_visible="true"
       lpeversion="1"
       weight="33.333333"
       steps="2"
       helper_size="0"
       apply_no_weight="true"
       apply_with_weight="true"
       only_selected="false" />
    <inkscape:path-effect
       only_selected="false"
       apply_with_weight="true"
       apply_no_weight="true"
       helper_size="0"
       steps="2"
       weight="33.333333"
       lpeversion="1"
       is_visible="true"
       id="path-effect2056"
       effect="bspline" />
    <inkscape:path-effect
       only_selected="false"
       apply_with_weight="true"
       apply_no_weight="true"
       helper_size="0"
       steps="2"
       weight="33.333333"
       lpeversion="1"
       is_visible="true"
       id="path-effect2052"
       effect="bspline" />
    <inkscape:path-effect
       effect="bspline"
       id="path-effect2048"
       is_visible="true"
       lpeversion="1"
       weight="33.333333"
       steps="2"
       helper_size="0"
       apply_no_weight="true"
       apply_with_weight="true"
       only_selected="false" />
    <inkscape:path-effect
       only_selected="false"
       apply_with_weight="true"
       apply_no_weight="true"
       helper_size="0"
       steps="2"
       weight="33.333333"
       lpeversion="1"
       is_visible="true"
       id="path-effect2044"
       effect="bspline" />
    <inkscape:path-effect
       effect="bspline"
       id="path-effect2040"
       is_visible="true"
       lpeversion="1"
       weight="33.333333"
       steps="2"
       helper_size="0"
       apply_no_weight="true"
       apply_with_weight="true"
       only_selected="false" />
    <marker
       inkscape:stockid="Arrow1Mend"
       orient="auto"
       refY="0.0"
       refX="0.0"
       id="Arrow1Mend"
       style="overflow:visible;"
       inkscape:isstock="true">
      <path
         id="path1013"
         d="M 0.0,0.0 L 5.0,-5.0 L -12.5,0.0 L 5.0,5.0 L 0.0,0.0 z "
         style="fill-rule:evenodd;stroke:#4e5153;stroke-width:1pt;stroke-opacity:1;fill:#4e5153;fill-opacity:1"
         transform="scale(0.4) rotate(180) translate(10,0)" />
    </marker>
    <marker
       inkscape:stockid="Arrow2Lstart"
       orient="auto"
       refY="0.0"
       refX="0.0"
       id="Arrow2Lstart"
       style="overflow:visible"
       inkscape:isstock="true">
      <path
         id="path1022"
         style="fill-rule:evenodd;stroke-width:0.625;stroke-linejoin:round;stroke:#000000;stroke-opacity:1;fill:#000000;fill-opacity:1"
         d="M 8.7185878,4.0337352 L -2.2072895,0.016013256 L 8.7185884,-4.0017078 C 6.9730900,-1.6296469 6.9831476,1.6157441 8.7185878,4.0337352 z "
         transform="scale(1.1) translate(1,0)" />
    </marker>
    <marker
       inkscape:stockid="Arrow1Send"
       orient="auto"
       refY="0.0"
       refX="0.0"
       id="Arrow1Send"
       style="overflow:visible;"
       inkscape:isstock="true">
      <path
         id="path1019"
         d="M 0.0,0.0 L 5.0,-5.0 L -12.5,0.0 L 5.0,5.0 L 0.0,0.0 z "
         style="fill-rule:evenodd;stroke:#000000;stroke-width:1pt;stroke-opacity:1;fill:#000000;fill-opacity:1"
         transform="scale(0.2) rotate(180) translate(6,0)" />
    </marker>
    <marker
       inkscape:isstock="true"
       style="overflow:visible;"
       id="marker3841"
       refX="0.0"
       refY="0.0"
       orient="auto"
       inkscape:stockid="Arrow1Mend"
       inkscape:collect="always">
      <path
         transform="scale(0.4) rotate(180) translate(10,0)"
         style="fill-rule:evenodd;stroke:#4e5153;stroke-width:1pt;stroke-opacity:1;fill:#4e5153;fill-opacity:1"
         d="M 0.0,0.0 L 5.0,-5.0 L -12.5,0.0 L 5.0,5.0 L 0.0,0.0 z "
         id="path3839" />
    </marker>
    <marker
       inkscape:isstock="true"
       style="overflow:visible;"
       id="marker3831"
       refX="0.0"
       refY="0.0"
       orient="auto"
       inkscape:stockid="Arrow1Mend">
      <path
         transform="scale(0.4) rotate(180) translate(10,0)"
         style="fill-rule:evenodd;stroke:#4e5153;stroke-width:1pt;stroke-opacity:1;fill:#4e5153;fill-opacity:1"
         d="M 0.0,0.0 L 5.0,-5.0 L -12.5,0.0 L 5.0,5.0 L 0.0,0.0 z "
         id="path3829" />
    </marker>
    <marker
       inkscape:stockid="TriangleOutL"
       orient="auto"
       refY="0.0"
       refX="0.0"
       id="TriangleOutL"
       style="overflow:visible"
       inkscape:isstock="true">
      <path
         id="path2502"
         d="M 5.77,0.0 L -2.88,5.0 L -2.88,-5.0 L 5.77,0.0 z "
         style="fill-rule:evenodd;stroke:#000000;stroke-width:1pt;stroke-opacity:1;fill:#000000;fill-opacity:1"
         transform="scale(0.8)" />
    </marker>
    <marker
       inkscape:stockid="Arrow2Lend"
       orient="auto"
       refY="0.0"
       refX="0.0"
       id="marker2926"
       style="overflow:visible;"
       inkscape:isstock="true">
      <path
         id="path2924"
         style="fill-rule:evenodd;stroke-width:0.625;stroke-linejoin:round;stroke:#000000;stroke-opacity:1;fill:#000000;fill-opacity:1"
         d="M 8.7185878,4.0337352 L -2.2072895,0.016013256 L 8.7185884,-4.0017078 C 6.9730900,-1.6296469 6.9831476,1.6157441 8.7185878,4.0337352 z "
         transform="scale(1.1) rotate(180) translate(1,0)" />
    </marker>
    <marker
       inkscape:stockid="Arrow2Lend"
       orient="auto"
       refY="0.0"
       refX="0.0"
       id="marker2868"
       style="overflow:visible;"
       inkscape:isstock="true">
      <path
         id="path2866"
         style="fill-rule:evenodd;stroke-width:0.625;stroke-linejoin:round;stroke:#000000;stroke-opacity:1;fill:#000000;fill-opacity:1"
         d="M 8.7185878,4.0337352 L -2.2072895,0.016013256 L 8.7185884,-4.0017078 C 6.9730900,-1.6296469 6.9831476,1.6157441 8.7185878,4.0337352 z "
         transform="scale(1.1) rotate(180) translate(1,0)" />
    </marker>
    <marker
       inkscape:stockid="Arrow2Lend"
       orient="auto"
       refY="0.0"
       refX="0.0"
       id="Arrow2Lend"
       style="overflow:visible;"
       inkscape:isstock="true">
      <path
         id="path2381"
         style="fill-rule:evenodd;stroke-width:0.625;stroke-linejoin:round;stroke:#000000;stroke-opacity:1;fill:#000000;fill-opacity:1"
         d="M 8.7185878,4.0337352 L -2.2072895,0.016013256 L 8.7185884,-4.0017078 C 6.9730900,-1.6296469 6.9831476,1.6157441 8.7185878,4.0337352 z "
         transform="scale(1.1) rotate(180) translate(1,0)" />
    </marker>
    <marker
       inkscape:stockid="Arrow1Lend"
       orient="auto"
       refY="0.0"
       refX="0.0"
       id="Arrow1Lend"
       style="overflow:visible;"
       inkscape:isstock="true">
      <path
         id="path2363"
         d="M 0.0,0.0 L 5.0,-5.0 L -12.5,0.0 L 5.0,5.0 L 0.0,0.0 z "
         style="fill-rule:evenodd;stroke:#000000;stroke-width:1pt;stroke-opacity:1;fill:#000000;fill-opacity:1"
         transform="scale(0.8) rotate(180) translate(12.5,0)" />
    </marker>
    <marker
       inkscape:stockid="Arrow1Lstart"
       orient="auto"
       refY="0.0"
       refX="0.0"
       id="Arrow1Lstart"
       style="overflow:visible"
       inkscape:isstock="true">
      <path
         id="path2360"
         d="M 0.0,0.0 L 5.0,-5.0 L -12.5,0.0 L 5.0,5.0 L 0.0,0.0 z "
         style="fill-rule:evenodd;stroke:#000000;stroke-width:1pt;stroke-opacity:1;fill:#000000;fill-opacity:1"
         transform="scale(0.8) translate(12.5,0)" />
    </marker>
    <marker
       inkscape:stockid="TriangleInL"
       orient="auto"
       refY="0.0"
       refX="0.0"
       id="TriangleInL"
       style="overflow:visible"
       inkscape:isstock="true">
      <path
         id="path2493"
         d="M 5.77,0.0 L -2.88,5.0 L -2.88,-5.0 L 5.77,0.0 z "
         style="fill-rule:evenodd;stroke:#000000;stroke-width:1pt;stroke-opacity:1;fill:#000000;fill-opacity:1"
         transform="scale(-0.8)" />
    </marker>
    <marker
       inkscape:stockid="Arrow2Mstart"
       orient="auto"
       refY="0.0"
       refX="0.0"
       id="Arrow2Mstart"
       style="overflow:visible"
       inkscape:isstock="true">
      <path
         id="path2384"
         style="fill-rule:evenodd;stroke-width:0.625;stroke-linejoin:round;stroke:#4e5153;stroke-opacity:1;fill:#4e5153;fill-opacity:1"
         d="M 8.7185878,4.0337352 L -2.2072895,0.016013256 L 8.7185884,-4.0017078 C 6.9730900,-1.6296469 6.9831476,1.6157441 8.7185878,4.0337352 z "
         transform="scale(0.6) translate(0,0)" />
    </marker>
    <marker
       inkscape:isstock="true"
       style="overflow:visible"
       id="TriangleInL-7"
       refX="0"
       refY="0"
       orient="auto"
       inkscape:stockid="TriangleInL">
      <path
         transform="scale(-0.8)"
         style="fill:#000000;fill-opacity:1;fill-rule:evenodd;stroke:#000000;stroke-width:1pt;stroke-opacity:1"
         d="M 5.77,0 -2.88,5 V -5 Z"
         id="path2493-4" />
    </marker>
    <marker
       inkscape:isstock="true"
       style="overflow:visible"
       id="Arrow1Lstart-8"
       refX="0"
       refY="0"
       orient="auto"
       inkscape:stockid="Arrow1Lstart">
      <path
         transform="matrix(0.8,0,0,0.8,10,0)"
         style="fill:#000000;fill-opacity:1;fill-rule:evenodd;stroke:#000000;stroke-width:1pt;stroke-opacity:1"
         d="M 0,0 5,-5 -12.5,0 5,5 Z"
         id="path2360-1" />
    </marker>
    <marker
       inkscape:isstock="true"
       style="overflow:visible"
       id="TriangleOutL-0"
       refX="0"
       refY="0"
       orient="auto"
       inkscape:stockid="TriangleOutL">
      <path
         transform="scale(0.8)"
         style="fill:#000000;fill-opacity:1;fill-rule:evenodd;stroke:#000000;stroke-width:1pt;stroke-opacity:1"
         d="M 5.77,0 -2.88,5 V -5 Z"
         id="path2502-7" />
    </marker>
    <marker
       inkscape:stockid="Arrow1Mend"
       orient="auto"
       refY="0"
       refX="0"
       id="marker3831-4"
       style="overflow:visible"
       inkscape:isstock="true">
      <path
         id="path3829-7"
         d="M 0,0 5,-5 -12.5,0 5,5 Z"
         style="fill:#4e5153;fill-opacity:1;fill-rule:evenodd;stroke:#4e5153;stroke-width:1pt;stroke-opacity:1"
         transform="matrix(-0.4,0,0,-0.4,-4,0)" />
    </marker>
    <marker
       inkscape:stockid="Arrow1Mend"
       orient="auto"
       refY="0"
       refX="0"
       id="marker3841-2"
       style="overflow:visible"
       inkscape:isstock="true">
      <path
         id="path3839-2"
         d="M 0,0 5,-5 -12.5,0 5,5 Z"
         style="fill:#4e5153;fill-opacity:1;fill-rule:evenodd;stroke:#4e5153;stroke-width:1pt;stroke-opacity:1"
         transform="matrix(-0.4,0,0,-0.4,-4,0)" />
    </marker>
    <marker
       inkscape:stockid="Arrow2Lend"
       orient="auto"
       refY="0"
       refX="0"
       id="marker2926-3"
       style="overflow:visible"
       inkscape:isstock="true">
      <path
         id="path2924-1"
         style="fill:#000000;fill-opacity:1;fill-rule:evenodd;stroke:#000000;stroke-width:0.625;stroke-linejoin:round;stroke-opacity:1"
         d="M 8.7185878,4.0337352 -2.2072895,0.01601326 8.7185884,-4.0017078 c -1.7454984,2.3720609 -1.7354408,5.6174519 -6e-7,8.035443 z"
         transform="matrix(-1.1,0,0,-1.1,-1.1,0)" />
    </marker>
  </defs>
  <sodipodi:namedview
     inkscape:window-maximized="1"
     inkscape:window-y="472"
     inkscape:window-x="-8"
     inkscape:window-height="1377"
     inkscape:window-width="2560"
     units="px"
     showgrid="false"
     inkscape:document-rotation="0"
     inkscape:current-layer="layer1"
     inkscape:document-units="mm"
     inkscape:cy="272.36357"
     inkscape:cx="39.900569"
     inkscape:zoom="1.4"
     inkscape:pageshadow="2"
     inkscape:pageopacity="0.0"
     borderopacity="1.0"
     bordercolor="#666666"
     pagecolor="#ffffff"
     id="base"
     showguides="true" />
  <metadata
     id="metadata5">
    <rdf:RDF>
      <cc:Work
         rdf:about="">
        <dc:format>image/svg+xml</dc:format>
        <dc:type
           rdf:resource="http://purl.org/dc/dcmitype/StillImage" />
        <dc:title />
      </cc:Work>
    </rdf:RDF>
  </metadata>
  <g
     id="layer1"
     inkscape:groupmode="layer"
     inkscape:label="Layer 1">
    <path
       style="fill:none;stroke:#4e5153;stroke-width:0.2;stroke-linecap:butt;stroke-linejoin:miter;stroke-opacity:1;stroke-miterlimit:4;stroke-dasharray:0.4, 0.20000000000000001;stroke-dashoffset:0"
       d="m 28.865123,31.927266 c 38.576168,0 77.152077,0 115.727707,0"
       id="path1268" />
    <path
       id="rect846-0"
       style="fill:none;fill-opacity:1;stroke:none;stroke-width:0.197656;stroke-linecap:round;stroke-linejoin:round;stroke-miterlimit:4;stroke-dasharray:none;stroke-opacity:1"
       d="M 7.5410664,1.7948973 H 167.30373 c 3.66132,0 6.60889,2.9475635 6.60889,6.6088867 v 79.306641 c 0,3.661323 -2.94757,6.608886 -6.60889,6.608886 H 7.5410664 c -3.6613232,0 -6.60888671,-2.947563 -6.60888671,-6.608886 V 8.403784 c 0,-3.6613232 2.94756351,-6.6088867 6.60888671,-6.6088867 z" />
    <path
       d="m 20.434001,89.307411 q -0.1651,0 -0.2794,-0.1016 -0.1016,-0.1143 -0.1016,-0.2794 v -9.1567 q 0,-0.1778 0.1016,-0.2794 0.1143,-0.1016 0.2794,-0.1016 h 2.54 q 0.9271,0 1.6383,0.4064 0.7239,0.4064 1.1303,1.1303 0.4064,0.7112 0.4064,1.6383 0,0.9271 -0.4064,1.651 -0.4064,0.7239 -1.1303,1.1303 -0.7112,0.4064 -1.6383,0.4064 h -2.159 v 3.175 q 0,0.1651 -0.1016,0.2794 -0.1016,0.1016 -0.2794,0.1016 z m 0.381,-4.318 h 2.159 q 0.7112,0 1.2446,-0.3048 0.5461,-0.3175 0.8509,-0.8636 0.3175,-0.5461 0.3175,-1.2573 0,-0.7112 -0.3175,-1.2446 -0.3048,-0.5461 -0.8509,-0.8509 -0.5334,-0.3175 -1.2446,-0.3175 h -2.159 z"
       style="font-style:normal;font-variant:normal;font-weight:300;font-stretch:normal;font-size:12.7px;line-height:1.25;font-family:Comfortaa;-inkscape-font-specification:'Comfortaa Light';fill:#4e5153;fill-opacity:1;stroke:none;stroke-width:0.264999;stroke-miterlimit:3.4;stroke-dasharray:none"
       id="path1425" />
    <path
       d="m 30.440807,89.370911 q -1.0033,0 -1.7907,-0.4445 -0.7747,-0.4572 -1.2192,-1.2573 -0.4445,-0.8001 -0.4445,-1.8288 0,-1.0414 0.4191,-1.8288 0.4191,-0.8001 1.1557,-1.2573 0.7366,-0.4572 1.6891,-0.4572 0.9398,0 1.6637,0.4445 0.7239,0.4318 1.1303,1.2065 0.4064,0.762 0.4064,1.7653 0,0.1651 -0.1016,0.2667 -0.1016,0.0889 -0.2667,0.0889 h -5.588 v -0.6604 h 5.7912 l -0.5588,0.4191 q 0.0254,-0.8255 -0.2794,-1.4605 -0.3048,-0.635 -0.8763,-0.9906 -0.5588,-0.3683 -1.3208,-0.3683 -0.7239,0 -1.2954,0.3683 -0.5588,0.3556 -0.889,0.9906 -0.3175,0.635 -0.3175,1.4732 0,0.8255 0.3429,1.4605 0.3429,0.635 0.9525,1.0033 0.6096,0.3556 1.397,0.3556 0.4953,0 0.9906,-0.1651 0.508,-0.1778 0.8001,-0.4572 0.1016,-0.1016 0.2413,-0.1016 0.1524,-0.0127 0.254,0.0762 0.1397,0.1143 0.1397,0.254 0.0127,0.1397 -0.1143,0.254 -0.4064,0.3683 -1.0668,0.6096 -0.6477,0.2413 -1.2446,0.2413 z"
       style="font-style:normal;font-variant:normal;font-weight:300;font-stretch:normal;font-size:12.7px;line-height:1.25;font-family:Comfortaa;-inkscape-font-specification:'Comfortaa Light';fill:#4e5153;fill-opacity:1;stroke:none;stroke-width:0.264999;stroke-miterlimit:3.4;stroke-dasharray:none"
       id="path1427" />
    <path
       d="m 38.033423,89.383611 q -1.016,0 -1.8288,-0.4572 -0.8001,-0.4699 -1.27,-1.27 -0.4572,-0.8128 -0.4572,-1.8161 0,-1.016 0.4572,-1.8161 0.4699,-0.8128 1.27,-1.27 0.8128,-0.4699 1.8288,-0.4699 1.016,0 1.8161,0.4699 0.8001,0.4572 1.2573,1.27 0.4699,0.8001 0.4699,1.8161 l -0.3175,0.508 q 0,0.8636 -0.4318,1.5494 -0.4191,0.6858 -1.143,1.0922 -0.7239,0.3937 -1.651,0.3937 z m 0,-0.7112 q 0.8001,0 1.4224,-0.3683 0.635,-0.381 0.9906,-1.016 0.3683,-0.6477 0.3683,-1.4478 0,-0.8128 -0.3683,-1.4478 -0.3556,-0.6477 -0.9906,-1.016 -0.6223,-0.381 -1.4224,-0.381 -0.7874,0 -1.4224,0.381 -0.635,0.3683 -1.0033,1.016 -0.3683,0.635 -0.3683,1.4478 0,0.8001 0.3683,1.4478 0.3683,0.635 1.0033,1.016 0.635,0.3683 1.4224,0.3683 z m 3.175,0.635 q -0.1778,0 -0.2921,-0.1016 -0.1016,-0.1143 -0.1016,-0.2794 v -2.3241 l 0.2413,-0.762 h 0.5207 v 3.0861 q 0,0.1651 -0.1016,0.2794 -0.1016,0.1016 -0.2667,0.1016 z"
       style="font-style:normal;font-variant:normal;font-weight:300;font-stretch:normal;font-size:12.7px;line-height:1.25;font-family:Comfortaa;-inkscape-font-specification:'Comfortaa Light';fill:#4e5153;fill-opacity:1;stroke:none;stroke-width:0.264999;stroke-miterlimit:3.4;stroke-dasharray:none"
       id="path1429" />
    <path
       d="m 43.998454,87.135711 -0.4572,-0.508 4.6482,-4.2291 q 0.127,-0.1016 0.2413,-0.1016 0.127,0 0.2413,0.127 0.1143,0.127 0.1143,0.254 0,0.127 -0.127,0.2286 z m -0.127,2.1717 q -0.1651,0 -0.2794,-0.1016 -0.1016,-0.1143 -0.1016,-0.2794 v -9.1567 q 0,-0.1778 0.1016,-0.2794 0.1143,-0.1016 0.2794,-0.1016 0.1778,0 0.2794,0.1016 0.1016,0.1016 0.1016,0.2794 v 9.1567 q 0,0.1651 -0.1016,0.2794 -0.1016,0.1016 -0.2794,0.1016 z m 4.8133,-0.0635 q -0.127,0.1143 -0.2667,0.0889 -0.127,-0.0127 -0.2286,-0.1397 l -3.0099,-3.683 0.5461,-0.4445 3.0099,3.683 q 0.1016,0.127 0.0889,0.254 0,0.127 -0.1397,0.2413 z"
       style="font-style:normal;font-variant:normal;font-weight:300;font-stretch:normal;font-size:12.7px;line-height:1.25;font-family:Comfortaa;-inkscape-font-specification:'Comfortaa Light';fill:#4e5153;fill-opacity:1;stroke:none;stroke-width:0.264999;stroke-miterlimit:3.4;stroke-dasharray:none"
       id="path1431" />
    <path
       d="m 57.348537,89.307411 q -0.6985,-0.0127 -1.2446,-0.3175 -0.5461,-0.3175 -0.8509,-0.8636 -0.3048,-0.5588 -0.3048,-1.2573 v -6.3246 q 0,-0.1778 0.1016,-0.2794 0.1143,-0.1143 0.2794,-0.1143 0.1778,0 0.2794,0.1143 0.1143,0.1016 0.1143,0.2794 v 6.3246 q 0,0.7366 0.4572,1.2065 0.4572,0.4572 1.1811,0.4572 h 0.2794 q 0.1778,0 0.2794,0.1143 0.1143,0.1016 0.1143,0.2794 0,0.1651 -0.1143,0.2794 -0.1016,0.1016 -0.2794,0.1016 z m -3.3909,-6.0071 q -0.1524,0 -0.254,-0.0889 -0.0889,-0.1016 -0.0889,-0.254 0,-0.1524 0.0889,-0.2413 0.1016,-0.1016 0.254,-0.1016 h 3.4417 q 0.1524,0 0.2413,0.1016 0.1016,0.0889 0.1016,0.2413 0,0.1524 -0.1016,0.254 -0.0889,0.0889 -0.2413,0.0889 z"
       style="font-style:normal;font-variant:normal;font-weight:300;font-stretch:normal;font-size:12.7px;line-height:1.25;font-family:Comfortaa;-inkscape-font-specification:'Comfortaa Light';fill:#4e5153;fill-opacity:1;stroke:none;stroke-width:0.264999;stroke-miterlimit:3.4;stroke-dasharray:none"
       id="path1433" />
    <path
       d="m 62.788501,89.383611 q -1.016,0 -1.8288,-0.4572 -0.8001,-0.4699 -1.27,-1.27 -0.4572,-0.8128 -0.4572,-1.8161 0,-1.016 0.4572,-1.8161 0.4699,-0.8128 1.27,-1.27 0.8128,-0.4699 1.8288,-0.4699 1.016,0 1.8161,0.4699 0.8001,0.4572 1.2573,1.27 0.4699,0.8001 0.4699,1.8161 0,1.0033 -0.4699,1.8161 -0.4572,0.8001 -1.2573,1.27 -0.8001,0.4572 -1.8161,0.4572 z m 0,-0.7112 q 0.8001,0 1.4224,-0.3683 0.635,-0.381 0.9906,-1.016 0.3683,-0.6477 0.3683,-1.4605 0,-0.8001 -0.3683,-1.4351 -0.3556,-0.6477 -0.9906,-1.016 -0.6223,-0.381 -1.4224,-0.381 -0.7874,0 -1.4224,0.381 -0.635,0.3683 -1.0033,1.016 -0.3683,0.635 -0.3683,1.4478 0,0.8001 0.3683,1.4478 0.3683,0.635 1.0033,1.016 0.635,0.3683 1.4224,0.3683 z"
       style="font-style:normal;font-variant:normal;font-weight:300;font-stretch:normal;font-size:12.7px;line-height:1.25;font-family:Comfortaa;-inkscape-font-specification:'Comfortaa Light';fill:#4e5153;fill-opacity:1;stroke:none;stroke-width:0.264999;stroke-miterlimit:3.4;stroke-dasharray:none"
       id="path1435" />
    <path
       d="m 72.474235,89.307411 q -0.1651,0 -0.2794,-0.1016 -0.1016,-0.1143 -0.1016,-0.2794 v -9.1567 q 0,-0.1778 0.1016,-0.2794 0.1143,-0.1016 0.2794,-0.1016 h 2.539999 q 0.9271,0 1.6383,0.4064 0.7239,0.4064 1.1303,1.1303 0.4064,0.7112 0.4064,1.6383 0,0.9271 -0.4064,1.651 -0.4064,0.7239 -1.1303,1.1303 -0.7112,0.4064 -1.6383,0.4064 h -2.158999 v 3.175 q 0,0.1651 -0.1016,0.2794 -0.1016,0.1016 -0.2794,0.1016 z m 0.381,-4.318 h 2.158999 q 0.7112,0 1.2446,-0.3048 0.5461,-0.3175 0.8509,-0.8636 0.3175,-0.5461 0.3175,-1.2573 0,-0.7112 -0.3175,-1.2446 -0.3048,-0.5461 -0.8509,-0.8509 -0.5334,-0.3175 -1.2446,-0.3175 h -2.158999 z"
       style="font-style:normal;font-variant:normal;font-weight:300;font-stretch:normal;font-size:12.7px;line-height:1.25;font-family:Comfortaa;-inkscape-font-specification:'Comfortaa Light';fill:#4e5153;fill-opacity:1;stroke:none;stroke-width:0.264999;stroke-miterlimit:3.4;stroke-dasharray:none"
       id="path1437" />
    <path
       d="m 82.481041,89.370911 q -1.0033,0 -1.7907,-0.4445 -0.7747,-0.4572 -1.2192,-1.2573 -0.4445,-0.8001 -0.4445,-1.8288 0,-1.0414 0.4191,-1.8288 0.4191,-0.8001 1.1557,-1.2573 0.7366,-0.4572 1.6891,-0.4572 0.9398,0 1.6637,0.4445 0.7239,0.4318 1.1303,1.2065 0.4064,0.762 0.4064,1.7653 0,0.1651 -0.1016,0.2667 -0.1016,0.0889 -0.2667,0.0889 h -5.588 v -0.6604 h 5.7912 l -0.5588,0.4191 q 0.0254,-0.8255 -0.2794,-1.4605 -0.3048,-0.635 -0.8763,-0.9906 -0.5588,-0.3683 -1.3208,-0.3683 -0.7239,0 -1.2954,0.3683 -0.5588,0.3556 -0.889,0.9906 -0.3175,0.635 -0.3175,1.4732 0,0.8255 0.3429,1.4605 0.3429,0.635 0.9525,1.0033 0.6096,0.3556 1.397,0.3556 0.4953,0 0.9906,-0.1651 0.508,-0.1778 0.8001,-0.4572 0.1016,-0.1016 0.2413,-0.1016 0.1524,-0.0127 0.254,0.0762 0.1397,0.1143 0.1397,0.254 0.0127,0.1397 -0.1143,0.254 -0.4064,0.3683 -1.0668,0.6096 -0.6477,0.2413 -1.2446,0.2413 z"
       style="font-style:normal;font-variant:normal;font-weight:300;font-stretch:normal;font-size:12.7px;line-height:1.25;font-family:Comfortaa;-inkscape-font-specification:'Comfortaa Light';fill:#4e5153;fill-opacity:1;stroke:none;stroke-width:0.264999;stroke-miterlimit:3.4;stroke-dasharray:none"
       id="path1439" />
    <path
       d="m 90.073657,89.383611 q -1.016,0 -1.8288,-0.4572 -0.8001,-0.4699 -1.27,-1.27 -0.4572,-0.8128 -0.4572,-1.8161 0,-1.016 0.4572,-1.8161 0.4699,-0.8128 1.27,-1.27 0.8128,-0.4699 1.8288,-0.4699 1.016,0 1.8161,0.4699 0.8001,0.4572 1.2573,1.27 0.4699,0.8001 0.4699,1.8161 l -0.3175,0.508 q 0,0.8636 -0.4318,1.5494 -0.4191,0.6858 -1.143,1.0922 -0.7239,0.3937 -1.651,0.3937 z m 0,-0.7112 q 0.8001,0 1.4224,-0.3683 0.635,-0.381 0.9906,-1.016 0.3683,-0.6477 0.3683,-1.4478 0,-0.8128 -0.3683,-1.4478 -0.3556,-0.6477 -0.9906,-1.016 -0.6223,-0.381 -1.4224,-0.381 -0.7874,0 -1.4224,0.381 -0.635,0.3683 -1.0033,1.016 -0.3683,0.635 -0.3683,1.4478 0,0.8001 0.3683,1.4478 0.3683,0.635 1.0033,1.016 0.635,0.3683 1.4224,0.3683 z m 3.175,0.635 q -0.1778,0 -0.2921,-0.1016 -0.1016,-0.1143 -0.1016,-0.2794 v -2.3241 l 0.2413,-0.762 h 0.5207 v 3.0861 q 0,0.1651 -0.1016,0.2794 -0.1016,0.1016 -0.2667,0.1016 z"
       style="font-style:normal;font-variant:normal;font-weight:300;font-stretch:normal;font-size:12.7px;line-height:1.25;font-family:Comfortaa;-inkscape-font-specification:'Comfortaa Light';fill:#4e5153;fill-opacity:1;stroke:none;stroke-width:0.264999;stroke-miterlimit:3.4;stroke-dasharray:none"
       id="path1441" />
    <path
       d="m 96.038691,87.135711 -0.4572,-0.508 4.648199,-4.2291 q 0.127,-0.1016 0.2413,-0.1016 0.127,0 0.2413,0.127 0.1143,0.127 0.1143,0.254 0,0.127 -0.127,0.2286 z m -0.127,2.1717 q -0.1651,0 -0.2794,-0.1016 -0.1016,-0.1143 -0.1016,-0.2794 v -9.1567 q 0,-0.1778 0.1016,-0.2794 0.1143,-0.1016 0.2794,-0.1016 0.1778,0 0.2794,0.1016 0.1016,0.1016 0.1016,0.2794 v 9.1567 q 0,0.1651 -0.1016,0.2794 -0.1016,0.1016 -0.2794,0.1016 z m 4.813299,-0.0635 q -0.127,0.1143 -0.2667,0.0889 -0.127,-0.0127 -0.2286,-0.1397 l -3.009899,-3.683 0.5461,-0.4445 3.009899,3.683 q 0.1016,0.127 0.0889,0.254 0,0.127 -0.1397,0.2413 z"
       style="font-style:normal;font-variant:normal;font-weight:300;font-stretch:normal;font-size:12.7px;line-height:1.25;font-family:Comfortaa;-inkscape-font-specification:'Comfortaa Light';fill:#4e5153;fill-opacity:1;stroke:none;stroke-width:0.264999;stroke-miterlimit:3.4;stroke-dasharray:none"
       id="path1443" />
    <path
       d="m 109.87137,89.307411 q -0.2413,0 -0.3429,-0.2413 l -3.81,-9.0551 q -0.127,-0.2921 -0.0127,-0.4572 0.127,-0.1651 0.3429,-0.1651 0.2413,0 0.3683,0.2667 l 3.6576,8.7503 h -0.3683 l 3.6068,-8.6995 q 0.0635,-0.1778 0.1651,-0.2413 0.1016,-0.0762 0.254,-0.0762 0.2286,0 0.3048,0.1905 0.0762,0.1905 -0.0254,0.4318 l -3.7973,9.0551 q -0.0635,0.1397 -0.1651,0.1905 -0.0889,0.0508 -0.1778,0.0508 z"
       style="font-style:normal;font-variant:normal;font-weight:300;font-stretch:normal;font-size:12.7px;line-height:1.25;font-family:Comfortaa;-inkscape-font-specification:'Comfortaa Light';fill:#4e5153;fill-opacity:1;stroke:none;stroke-width:0.264999;stroke-miterlimit:3.4;stroke-dasharray:none"
       id="path1445" />
    <path
       d="m 117.23479,89.383611 q -1.016,0 -1.8288,-0.4572 -0.8001,-0.4699 -1.27,-1.27 -0.4572,-0.8128 -0.4572,-1.8161 0,-1.016 0.4572,-1.8161 0.4699,-0.8128 1.27,-1.27 0.8128,-0.4699 1.8288,-0.4699 1.016,0 1.8161,0.4699 0.8001,0.4572 1.2573,1.27 0.4699,0.8001 0.4699,1.8161 0,1.0033 -0.4699,1.8161 -0.4572,0.8001 -1.2573,1.27 -0.8001,0.4572 -1.8161,0.4572 z m 0,-0.7112 q 0.8001,0 1.4224,-0.3683 0.635,-0.381 0.9906,-1.016 0.3683,-0.6477 0.3683,-1.4605 0,-0.8001 -0.3683,-1.4351 -0.3556,-0.6477 -0.9906,-1.016 -0.6223,-0.381 -1.4224,-0.381 -0.7874,0 -1.4224,0.381 -0.635,0.3683 -1.0033,1.016 -0.3683,0.635 -0.3683,1.4478 0,0.8001 0.3683,1.4478 0.3683,0.635 1.0033,1.016 0.635,0.3683 1.4224,0.3683 z"
       style="font-style:normal;font-variant:normal;font-weight:300;font-stretch:normal;font-size:12.7px;line-height:1.25;font-family:Comfortaa;-inkscape-font-specification:'Comfortaa Light';fill:#4e5153;fill-opacity:1;stroke:none;stroke-width:0.264999;stroke-miterlimit:3.4;stroke-dasharray:none"
       id="path1447" />
    <path
       d="m 124.08882,89.307411 q -0.4826,0 -0.8636,-0.2667 -0.3683,-0.2667 -0.5842,-0.7366 -0.2032,-0.4699 -0.2032,-1.0922 v -7.4422 q 0,-0.1778 0.1016,-0.2794 0.1143,-0.1016 0.2794,-0.1016 0.1778,0 0.2794,0.1016 0.1016,0.1016 0.1016,0.2794 v 7.4422 q 0,0.5842 0.2413,0.9652 0.254,0.3683 0.6477,0.3683 h 0.3175 q 0.1397,0 0.2286,0.1016 0.0889,0.1016 0.0889,0.2794 0,0.1651 -0.1016,0.2794 -0.1016,0.1016 -0.2794,0.1016 z"
       style="font-style:normal;font-variant:normal;font-weight:300;font-stretch:normal;font-size:12.7px;line-height:1.25;font-family:Comfortaa;-inkscape-font-specification:'Comfortaa Light';fill:#4e5153;fill-opacity:1;stroke:none;stroke-width:0.264999;stroke-miterlimit:3.4;stroke-dasharray:none"
       id="path1449" />
    <path
       d="m 128.95967,89.307411 q -0.6985,-0.0127 -1.2446,-0.3175 -0.5461,-0.3175 -0.8509,-0.8636 -0.3048,-0.5588 -0.3048,-1.2573 v -6.3246 q 0,-0.1778 0.1016,-0.2794 0.1143,-0.1143 0.2794,-0.1143 0.1778,0 0.2794,0.1143 0.1143,0.1016 0.1143,0.2794 v 6.3246 q 0,0.7366 0.4572,1.2065 0.4572,0.4572 1.1811,0.4572 h 0.2794 q 0.1778,0 0.2794,0.1143 0.1143,0.1016 0.1143,0.2794 0,0.1651 -0.1143,0.2794 -0.1016,0.1016 -0.2794,0.1016 z m -3.3909,-6.0071 q -0.1524,0 -0.254,-0.0889 -0.0889,-0.1016 -0.0889,-0.254 0,-0.1524 0.0889,-0.2413 0.1016,-0.1016 0.254,-0.1016 h 3.4417 q 0.1524,0 0.2413,0.1016 0.1016,0.0889 0.1016,0.2413 0,0.1524 -0.1016,0.254 -0.0889,0.0889 -0.2413,0.0889 z"
       style="font-style:normal;font-variant:normal;font-weight:300;font-stretch:normal;font-size:12.7px;line-height:1.25;font-family:Comfortaa;-inkscape-font-specification:'Comfortaa Light';fill:#4e5153;fill-opacity:1;stroke:none;stroke-width:0.264999;stroke-miterlimit:3.4;stroke-dasharray:none"
       id="path1451" />
    <path
       d="m 134.39963,89.383611 q -1.016,0 -1.8288,-0.4572 -0.8001,-0.4699 -1.27,-1.27 -0.4572,-0.8128 -0.4572,-1.8161 0,-1.016 0.4572,-1.8161 0.4699,-0.8128 1.27,-1.27 0.8128,-0.4699 1.8288,-0.4699 1.016,0 1.8161,0.4699 0.8001,0.4572 1.2573,1.27 0.4699,0.8001 0.4699,1.8161 l -0.3175,0.508 q 0,0.8636 -0.4318,1.5494 -0.4191,0.6858 -1.143,1.0922 -0.7239,0.3937 -1.651,0.3937 z m 0,-0.7112 q 0.8001,0 1.4224,-0.3683 0.635,-0.381 0.9906,-1.016 0.3683,-0.6477 0.3683,-1.4478 0,-0.8128 -0.3683,-1.4478 -0.3556,-0.6477 -0.9906,-1.016 -0.6223,-0.381 -1.4224,-0.381 -0.7874,0 -1.4224,0.381 -0.635,0.3683 -1.0033,1.016 -0.3683,0.635 -0.3683,1.4478 0,0.8001 0.3683,1.4478 0.3683,0.635 1.0033,1.016 0.635,0.3683 1.4224,0.3683 z m 3.175,0.635 q -0.1778,0 -0.2921,-0.1016 -0.1016,-0.1143 -0.1016,-0.2794 v -2.3241 l 0.2413,-0.762 h 0.5207 v 3.0861 q 0,0.1651 -0.1016,0.2794 -0.1016,0.1016 -0.2667,0.1016 z"
       style="font-style:normal;font-variant:normal;font-weight:300;font-stretch:normal;font-size:12.7px;line-height:1.25;font-family:Comfortaa;-inkscape-font-specification:'Comfortaa Light';fill:#4e5153;fill-opacity:1;stroke:none;stroke-width:0.264999;stroke-miterlimit:3.4;stroke-dasharray:none"
       id="path1453" />
    <path
       d="m 143.03166,89.383611 q -1.0414,0 -1.8415,-0.4572 -0.8001,-0.4572 -1.2573,-1.2573 -0.4572,-0.8001 -0.4572,-1.8288 0,-1.0414 0.4699,-1.8415 0.4699,-0.8001 1.27,-1.2573 0.8128,-0.4572 1.8161,-0.4572 1.0414,0 1.8288,0.4572 0.8001,0.4572 1.2573,1.2573 0.4572,0.8001 0.4572,1.8415 l -0.4445,0.508 q 0,0.889 -0.3937,1.5748 -0.3937,0.6858 -1.0922,1.0795 -0.6985,0.381 -1.6129,0.381 z m 0.0508,2.5781 q -1.0541,0 -1.8034,-0.3937 -0.7366,-0.3937 -1.2192,-1.0033 -0.1016,-0.127 -0.1016,-0.2667 0,-0.1397 0.127,-0.2413 0.127,-0.0889 0.2921,-0.0635 0.1778,0.0254 0.2667,0.1651 0.3937,0.4699 1.0033,0.7747 0.6096,0.3175 1.4351,0.3175 0.7874,0 1.397,-0.381 0.6223,-0.381 0.9779,-1.0541 0.3556,-0.6604 0.3556,-1.4859 v -2.0193 l 0.3429,-0.4699 h 0.4191 v 2.4892 q 0,1.0287 -0.4572,1.8542 -0.4572,0.8255 -1.2446,1.2954 -0.7874,0.4826 -1.7907,0.4826 z m -0.0508,-3.2893 q 0.8128,0 1.4351,-0.3556 0.635,-0.3683 0.9906,-1.0033 0.3556,-0.6477 0.3556,-1.4732 0,-0.8382 -0.3556,-1.4732 -0.3556,-0.6477 -0.9906,-1.0033 -0.6223,-0.3683 -1.4351,-0.3683 -0.8128,0 -1.4478,0.3683 -0.635,0.3556 -0.9906,1.0033 -0.3556,0.635 -0.3556,1.4732 0,0.8255 0.3556,1.4732 0.3556,0.635 0.9906,1.0033 0.635,0.3556 1.4478,0.3556 z"
       style="font-style:normal;font-variant:normal;font-weight:300;font-stretch:normal;font-size:12.7px;line-height:1.25;font-family:Comfortaa;-inkscape-font-specification:'Comfortaa Light';fill:#4e5153;fill-opacity:1;stroke:none;stroke-width:0.264999;stroke-miterlimit:3.4;stroke-dasharray:none"
       id="path1455" />
    <path
       d="m 151.5621,89.370911 q -1.0033,0 -1.7907,-0.4445 -0.7747,-0.4572 -1.2192,-1.2573 -0.4445,-0.8001 -0.4445,-1.8288 0,-1.0414 0.4191,-1.8288 0.4191,-0.8001 1.1557,-1.2573 0.7366,-0.4572 1.6891,-0.4572 0.9398,0 1.6637,0.4445 0.7239,0.4318 1.1303,1.2065 0.4064,0.762 0.4064,1.7653 0,0.1651 -0.1016,0.2667 -0.1016,0.0889 -0.2667,0.0889 h -5.588 v -0.6604 h 5.7912 l -0.5588,0.4191 q 0.0254,-0.8255 -0.2794,-1.4605 -0.3048,-0.635 -0.8763,-0.9906 -0.5588,-0.3683 -1.3208,-0.3683 -0.7239,0 -1.2954,0.3683 -0.5588,0.3556 -0.889,0.9906 -0.3175,0.635 -0.3175,1.4732 0,0.8255 0.3429,1.4605 0.3429,0.635 0.9525,1.0033 0.6096,0.3556 1.397,0.3556 0.4953,0 0.9906,-0.1651 0.508,-0.1778 0.8001,-0.4572 0.1016,-0.1016 0.2413,-0.1016 0.1524,-0.0127 0.254,0.0762 0.1397,0.1143 0.1397,0.254 0.0127,0.1397 -0.1143,0.254 -0.4064,0.3683 -1.0668,0.6096 -0.6477,0.2413 -1.2446,0.2413 z"
       style="font-style:normal;font-variant:normal;font-weight:300;font-stretch:normal;font-size:12.7px;line-height:1.25;font-family:Comfortaa;-inkscape-font-specification:'Comfortaa Light';fill:#4e5153;fill-opacity:1;stroke:none;stroke-width:0.264999;stroke-miterlimit:3.4;stroke-dasharray:none"
       id="path1457" />
    <path
       style="fill:none;stroke:#4e5153;stroke-width:0.4;stroke-linecap:butt;stroke-linejoin:miter;stroke-miterlimit:4;stroke-dasharray:none;stroke-opacity:1;marker-start:url(#Arrow2Mstart);marker-end:url(#Arrow1Mend)"
       d="M 28.759105,10.772321 V 72.949402 H 146.12071"
       id="path1002" />
    <path
       style="fill:none;stroke:#4e5153;stroke-width:0.264583px;stroke-linecap:butt;stroke-linejoin:miter;stroke-opacity:1"
       d="m 28.865123,47.010804 c 38.576168,0 77.152077,0 115.727707,0"
       id="path1094" />
    <path
       id="path1142"
       d="m 28.865123,22.288372 c 38.576168,0 77.152077,0 115.727707,0"
       style="fill:none;stroke:#4e5153;stroke-width:0.264583px;stroke-linecap:butt;stroke-linejoin:miter;stroke-opacity:1" />
    <path
       style="fill:none;stroke:#fed700;stroke-width:1;stroke-linecap:round;stroke-linejoin:round;stroke-miterlimit:4;stroke-dasharray:none;stroke-opacity:1"
       d="m 28.865123,47.010804 c 9.6789,-14.8767 19.358681,-29.754755 31.921932,-22.047645 12.563251,7.70711 28.010599,37.998599 40.746695,45.487946 12.7361,7.489346 22.76053,-7.822967 32.78542,-23.135997"
       id="path1038"
       sodipodi:nodetypes="cccc" />
    <path
       d="m 21.964411,24.66379 q -0.180622,0 -0.265289,-0.186267 l -1.653821,-3.781775 q -0.07902,-0.191911 -0.01693,-0.316088 0.06209,-0.124178 0.237066,-0.124178 0.197556,0 0.270933,0.174978 l 1.450621,3.482619 H 21.9249 l 1.478843,-3.482619 q 0.04516,-0.1016 0.1016,-0.135467 0.06209,-0.03951 0.163689,-0.03951 0.169333,0 0.231422,0.124178 0.06773,0.118533 0,0.265288 l -1.670755,3.832575 q -0.03951,0.09031 -0.107244,0.141111 -0.06209,0.04516 -0.158044,0.04516 z"
       style="font-style:normal;font-variant:normal;font-weight:bold;font-stretch:normal;font-size:5.64444px;line-height:1.25;font-family:Comfortaa;-inkscape-font-specification:'Comfortaa Bold';fill:#4e5153;fill-opacity:1;stroke:none;stroke-width:0.264999;stroke-miterlimit:3.4;stroke-dasharray:none"
       id="path1389" />
    <path
       d="m 24.442408,25.984589 q -0.124178,0 -0.208844,-0.08467 -0.07902,-0.07902 -0.07902,-0.2032 v -2.573864 q 0.0056,-0.445911 0.208844,-0.801511 0.2032,-0.3556 0.553155,-0.5588 0.349955,-0.208844 0.790222,-0.208844 0.445911,0 0.795866,0.208844 0.349955,0.2032 0.553155,0.5588 0.208844,0.3556 0.208844,0.801511 0,0.44591 -0.191911,0.80151 -0.186266,0.349955 -0.513644,0.5588 -0.327377,0.2032 -0.739421,0.2032 -0.333022,0 -0.615244,-0.135467 -0.276578,-0.141111 -0.474133,-0.378178 v 1.523999 q 0,0.124178 -0.07902,0.2032 -0.07902,0.08467 -0.208844,0.08467 z m 1.264355,-1.806221 q 0.287866,0 0.513644,-0.135467 0.225777,-0.141111 0.3556,-0.378177 0.135466,-0.242711 0.135466,-0.541866 0,-0.3048 -0.135466,-0.541867 -0.129823,-0.242711 -0.3556,-0.378177 -0.225778,-0.141111 -0.513644,-0.141111 -0.282222,0 -0.513644,0.141111 -0.225778,0.135466 -0.3556,0.378177 -0.129822,0.237067 -0.129822,0.541867 0,0.299155 0.129822,0.541866 0.129822,0.237066 0.3556,0.378177 0.231422,0.135467 0.513644,0.135467 z"
       style="font-style:normal;font-variant:normal;font-weight:bold;font-stretch:normal;font-size:5.64444px;line-height:1.25;font-family:Comfortaa;-inkscape-font-specification:'Comfortaa Bold';fill:#4e5153;fill-opacity:1;stroke:none;stroke-width:0.264999;stroke-miterlimit:3.4;stroke-dasharray:none"
       id="path1391" />
    <path
       d="m 19.244316,72.473628 q -0.124177,0 -0.208844,-0.07902 -0.07902,-0.07902 -0.07902,-0.2032 0,-0.129822 0.07902,-0.208845 0.08467,-0.07902 0.208844,-0.07902 h 1.258711 q 0.124177,0 0.203199,0.07902 0.07902,0.07902 0.07902,0.208845 0,0.124177 -0.07902,0.2032 -0.07902,0.07902 -0.203199,0.07902 z"
       style="font-style:normal;font-variant:normal;font-weight:bold;font-stretch:normal;font-size:5.64444px;line-height:1.25;font-family:Comfortaa;-inkscape-font-specification:'Comfortaa Bold';fill:#4e5153;fill-opacity:1;stroke:none;stroke-width:0.264999;stroke-miterlimit:3.4;stroke-dasharray:none"
       id="path1394" />
    <path
       d="m 22.528146,73.732338 q -0.180622,0 -0.265289,-0.186267 l -1.653821,-3.781774 q -0.07902,-0.191911 -0.01693,-0.316089 0.06209,-0.124178 0.237066,-0.124178 0.197556,0 0.270933,0.174978 l 1.450622,3.482619 h -0.06209 l 1.478843,-3.482619 q 0.04516,-0.1016 0.1016,-0.135467 0.06209,-0.03951 0.163689,-0.03951 0.169333,0 0.231422,0.124178 0.06773,0.118533 0,0.265289 l -1.670754,3.832574 q -0.03951,0.09031 -0.107245,0.141111 -0.06209,0.04516 -0.158044,0.04516 z"
       style="font-style:normal;font-variant:normal;font-weight:bold;font-stretch:normal;font-size:5.64444px;line-height:1.25;font-family:Comfortaa;-inkscape-font-specification:'Comfortaa Bold';fill:#4e5153;fill-opacity:1;stroke:none;stroke-width:0.264999;stroke-miterlimit:3.4;stroke-dasharray:none"
       id="path1396" />
    <path
       d="m 25.006144,75.053137 q -0.124178,0 -0.208845,-0.08467 -0.07902,-0.07902 -0.07902,-0.203199 v -2.573865 q 0.0056,-0.445911 0.208844,-0.801511 0.2032,-0.355599 0.553156,-0.558799 0.349955,-0.208845 0.790221,-0.208845 0.445911,0 0.795866,0.208845 0.349956,0.2032 0.553155,0.558799 0.208845,0.3556 0.208845,0.801511 0,0.445911 -0.191911,0.80151 -0.186267,0.349956 -0.513644,0.5588 -0.327378,0.2032 -0.739422,0.2032 -0.333022,0 -0.615244,-0.135467 -0.276578,-0.141111 -0.474133,-0.378177 v 1.523999 q 0,0.124177 -0.07902,0.203199 -0.07902,0.08467 -0.208844,0.08467 z m 1.264354,-1.806221 q 0.287867,0 0.513644,-0.135466 0.225778,-0.141111 0.3556,-0.378178 0.135467,-0.242711 0.135467,-0.541866 0,-0.3048 -0.135467,-0.541866 -0.129822,-0.242711 -0.3556,-0.378178 -0.225777,-0.141111 -0.513644,-0.141111 -0.282222,0 -0.513644,0.141111 -0.225777,0.135467 -0.3556,0.378178 -0.129822,0.237066 -0.129822,0.541866 0,0.299155 0.129822,0.541866 0.129823,0.237067 0.3556,0.378178 0.231422,0.135466 0.513644,0.135466 z"
       style="font-style:normal;font-variant:normal;font-weight:bold;font-stretch:normal;font-size:5.64444px;line-height:1.25;font-family:Comfortaa;-inkscape-font-specification:'Comfortaa Bold';fill:#4e5153;fill-opacity:1;stroke:none;stroke-width:0.264999;stroke-miterlimit:3.4;stroke-dasharray:none"
       id="path1398" />
    <path
       d="m 25.193018,48.987251 q -0.428977,0 -0.733777,-0.259644 -0.299155,-0.265289 -0.457199,-0.756355 -0.158045,-0.496711 -0.158045,-1.190977 0,-0.694266 0.158045,-1.185332 0.158044,-0.496711 0.457199,-0.756355 0.3048,-0.265289 0.733777,-0.265289 0.428978,0 0.728133,0.270933 0.3048,0.265289 0.462844,0.762 0.158045,0.491066 0.158045,1.174043 0,0.682977 -0.158045,1.179688 -0.158044,0.491066 -0.462844,0.762 -0.299155,0.265288 -0.728133,0.265288 z m 0,-0.587021 q 0.259645,0 0.428978,-0.208845 0.169333,-0.214489 0.254,-0.581377 0.08467,-0.366889 0.08467,-0.829733 0,-0.462844 -0.08467,-0.829733 -0.08467,-0.366888 -0.254,-0.581377 -0.169333,-0.214489 -0.428978,-0.214489 -0.259644,0 -0.428977,0.214489 -0.169333,0.208844 -0.254,0.575733 -0.08467,0.366889 -0.08467,0.835377 0,0.468489 0.08467,0.835377 0.08467,0.366889 0.254,0.575733 0.174978,0.208845 0.428977,0.208845 z"
       style="font-style:normal;font-variant:normal;font-weight:bold;font-stretch:normal;font-size:5.64444px;line-height:1.25;font-family:Comfortaa;-inkscape-font-specification:'Comfortaa Bold';fill:#4e5153;fill-opacity:1;stroke:none;stroke-width:0.264999;stroke-miterlimit:3.4;stroke-dasharray:none"
       id="path1401" />
    <path
       d="m 56.388713,41.378754 q -0.158045,0 -0.232128,-0.162984 L 54.70949,37.906714 q -0.06914,-0.167922 -0.01482,-0.276578 0.05433,-0.108655 0.207433,-0.108655 0.172861,0 0.237067,0.153105 l 1.269294,3.047295 h -0.05433 l 1.293989,-3.047295 q 0.03951,-0.0889 0.0889,-0.118533 0.05433,-0.03457 0.143228,-0.03457 0.148166,0 0.202494,0.108655 0.05927,0.103717 0,0.232128 l -1.461911,3.353506 q -0.03457,0.07902 -0.09384,0.123473 -0.05433,0.03951 -0.138289,0.03951 z"
       style="font-style:normal;font-variant:normal;font-weight:bold;font-stretch:normal;font-size:4.93889px;line-height:1.25;font-family:Comfortaa;-inkscape-font-specification:'Comfortaa Bold';fill:#4e5153;fill-opacity:1;stroke:none;stroke-width:0.264999;stroke-miterlimit:3.4;stroke-dasharray:none"
       id="path1404" />
    <path
       d="m 58.556963,42.534454 q -0.108656,0 -0.182739,-0.07408 -0.06914,-0.06914 -0.06914,-0.1778 V 40.03044 q 0.0049,-0.390173 0.182739,-0.701323 0.1778,-0.31115 0.484011,-0.48895 0.306212,-0.182739 0.691445,-0.182739 0.390172,0 0.696384,0.182739 0.306211,0.1778 0.484011,0.48895 0.182739,0.31115 0.182739,0.701323 0,0.390172 -0.167923,0.701322 -0.162983,0.306211 -0.449439,0.48895 -0.286455,0.1778 -0.646994,0.1778 -0.291395,0 -0.538339,-0.118533 -0.242006,-0.123472 -0.414867,-0.330906 v 1.333501 q 0,0.108655 -0.06914,0.1778 -0.06914,0.07408 -0.182739,0.07408 z m 1.106311,-1.580445 q 0.251883,0 0.449439,-0.118533 0.197556,-0.123472 0.31115,-0.330906 0.118534,-0.212372 0.118534,-0.474133 0,-0.2667 -0.118534,-0.474134 -0.113594,-0.212372 -0.31115,-0.330905 -0.197556,-0.123473 -0.449439,-0.123473 -0.246944,0 -0.449439,0.123473 -0.197555,0.118533 -0.31115,0.330905 -0.113594,0.207434 -0.113594,0.474134 0,0.261761 0.113594,0.474133 0.113595,0.207434 0.31115,0.330906 0.202495,0.118533 0.449439,0.118533 z"
       style="font-style:normal;font-variant:normal;font-weight:bold;font-stretch:normal;font-size:4.93889px;line-height:1.25;font-family:Comfortaa;-inkscape-font-specification:'Comfortaa Bold';fill:#4e5153;fill-opacity:1;stroke:none;stroke-width:0.264999;stroke-miterlimit:3.4;stroke-dasharray:none"
       id="path1406" />
    <path
       d="m 87.854995,41.378754 q -0.158045,0 -0.232128,-0.162984 l -1.447095,-3.309056 q -0.06914,-0.167922 -0.01482,-0.276578 0.05433,-0.108655 0.207434,-0.108655 0.172861,0 0.237067,0.153105 l 1.269294,3.047295 h -0.05433 l 1.29399,-3.047295 q 0.03951,-0.0889 0.0889,-0.118533 0.05433,-0.03457 0.143228,-0.03457 0.148166,0 0.202494,0.108655 0.05927,0.103717 0,0.232128 l -1.461911,3.353506 q -0.03457,0.07902 -0.09384,0.123473 -0.05433,0.03951 -0.138289,0.03951 z"
       style="font-style:normal;font-variant:normal;font-weight:bold;font-stretch:normal;font-size:4.93889px;line-height:1.25;font-family:Comfortaa;-inkscape-font-specification:'Comfortaa Bold';fill:#4e5153;fill-opacity:1;stroke:none;stroke-width:0.264999;stroke-miterlimit:3.4;stroke-dasharray:none"
       id="path1409" />
    <path
       d="m 90.013367,39.689653 q 0,-0.296333 0.143228,-0.528461 0.148166,-0.237067 0.395111,-0.375356 0.246944,-0.138288 0.543278,-0.138288 0.296333,0 0.439561,0.09878 0.148167,0.09384 0.113594,0.227189 -0.01482,0.06914 -0.05927,0.108656 -0.03951,0.03457 -0.09384,0.04445 -0.05433,0.0099 -0.118534,-0.0049 -0.316088,-0.06421 -0.567972,-0.0099 -0.251883,0.05433 -0.40005,0.202495 -0.143228,0.148166 -0.143228,0.375355 z m 0.0049,1.689101 q -0.118534,0 -0.182739,-0.05927 -0.06421,-0.06421 -0.06421,-0.187678 v -2.207684 q 0,-0.118533 0.06421,-0.182739 0.06421,-0.06421 0.182739,-0.06421 0.123472,0 0.182739,0.06421 0.06421,0.05927 0.06421,0.182739 v 2.207684 q 0,0.118534 -0.06421,0.182739 -0.05927,0.06421 -0.182739,0.06421 z"
       style="font-style:normal;font-variant:normal;font-weight:bold;font-stretch:normal;font-size:4.93889px;line-height:1.25;font-family:Comfortaa;-inkscape-font-specification:'Comfortaa Bold';fill:#4e5153;fill-opacity:1;stroke:none;stroke-width:0.264999;stroke-miterlimit:3.4;stroke-dasharray:none"
       id="path1411" />
    <path
       d="m 95.719405,41.383693 q -0.108655,0 -0.182739,-0.06914 -0.06914,-0.07408 -0.06914,-0.182739 v -1.412522 q 0,-0.31115 -0.153106,-0.459317 -0.153105,-0.153106 -0.40005,-0.153106 -0.256822,0 -0.424744,0.1778 -0.162984,0.1778 -0.162984,0.454378 H 93.91671 q 0,-0.321028 0.138289,-0.563033 0.138289,-0.246945 0.385234,-0.385234 0.251883,-0.138289 0.572911,-0.138289 0.281517,0 0.498828,0.123473 0.217311,0.123472 0.335844,0.365478 0.123473,0.237066 0.123473,0.57785 v 1.412522 q 0,0.108656 -0.06914,0.182739 -0.06914,0.06914 -0.182739,0.06914 z m -3.294239,0 q -0.108656,0 -0.182739,-0.06914 -0.06915,-0.07408 -0.06915,-0.182739 v -2.197806 q 0,-0.113594 0.06915,-0.182739 0.07408,-0.06914 0.182739,-0.06914 0.113594,0 0.182739,0.06914 0.06914,0.06914 0.06914,0.182739 v 2.197806 q 0,0.108656 -0.06914,0.182739 -0.06915,0.06914 -0.182739,0.06914 z m 1.649589,0 q -0.108656,0 -0.182739,-0.06914 -0.06914,-0.07408 -0.06914,-0.182739 v -1.412522 q 0,-0.31115 -0.153106,-0.459317 -0.153106,-0.153106 -0.40005,-0.153106 -0.256822,0 -0.424745,0.1778 -0.167922,0.1778 -0.167922,0.454378 h -0.31115 q 0,-0.321028 0.128411,-0.563033 0.128411,-0.246945 0.3556,-0.385234 0.227189,-0.138289 0.518584,-0.138289 0.281516,0 0.498828,0.123473 0.217311,0.123472 0.335844,0.365478 0.123472,0.237066 0.123472,0.57785 v 1.412522 q 0,0.108656 -0.06914,0.182739 -0.06914,0.06914 -0.182739,0.06914 z"
       style="font-style:normal;font-variant:normal;font-weight:bold;font-stretch:normal;font-size:4.93889px;line-height:1.25;font-family:Comfortaa;-inkscape-font-specification:'Comfortaa Bold';fill:#4e5153;fill-opacity:1;stroke:none;stroke-width:0.264999;stroke-miterlimit:3.4;stroke-dasharray:none"
       id="path1413" />
    <path
       d="m 97.786331,41.398509 q -0.345722,0 -0.642056,-0.103716 -0.291394,-0.108656 -0.454378,-0.271639 -0.07408,-0.07902 -0.06421,-0.1778 0.01482,-0.103717 0.09878,-0.167923 0.09878,-0.07902 0.192617,-0.06421 0.09878,0.0099 0.167922,0.08396 0.08396,0.09384 0.266701,0.1778 0.187677,0.07902 0.414866,0.07902 0.286456,0 0.434623,-0.09384 0.153105,-0.09384 0.158044,-0.242005 0.0049,-0.148167 -0.143228,-0.256823 -0.143228,-0.108655 -0.528461,-0.1778 -0.498828,-0.09878 -0.726017,-0.296333 -0.22225,-0.197556 -0.22225,-0.484011 0,-0.251884 0.148167,-0.414867 0.148167,-0.167922 0.380294,-0.246945 0.232128,-0.08396 0.484012,-0.08396 0.325966,0 0.57785,0.103717 0.251883,0.103717 0.40005,0.286456 0.06914,0.07902 0.06421,0.167922 -0.0049,0.08396 -0.08396,0.143228 -0.07902,0.05433 -0.187678,0.03457 -0.108655,-0.01976 -0.182738,-0.0889 -0.123473,-0.118533 -0.266701,-0.162983 -0.143227,-0.04445 -0.330905,-0.04445 -0.217311,0 -0.370417,0.07408 -0.148167,0.07408 -0.148167,0.217311 0,0.0889 0.04445,0.162983 0.04939,0.06914 0.187678,0.128412 0.138289,0.05433 0.404989,0.108655 0.370417,0.07408 0.582789,0.187678 0.217311,0.113594 0.31115,0.2667 0.09384,0.148167 0.09384,0.345722 0,0.227189 -0.123472,0.409928 -0.118533,0.182739 -0.3556,0.291395 -0.232128,0.108655 -0.582789,0.108655 z"
       style="font-style:normal;font-variant:normal;font-weight:bold;font-stretch:normal;font-size:4.93889px;line-height:1.25;font-family:Comfortaa;-inkscape-font-specification:'Comfortaa Bold';fill:#4e5153;fill-opacity:1;stroke:none;stroke-width:0.264999;stroke-miterlimit:3.4;stroke-dasharray:none"
       id="path1415" />
    <path
       d="m 112.61189,41.378754 q -0.15804,0 -0.23213,-0.162984 l -1.44709,-3.309056 q -0.0692,-0.167922 -0.0148,-0.276578 0.0543,-0.108655 0.20744,-0.108655 0.17286,0 0.23706,0.153105 l 1.2693,3.047295 h -0.0543 l 1.29399,-3.047295 q 0.0395,-0.0889 0.0889,-0.118533 0.0543,-0.03457 0.14323,-0.03457 0.14816,0 0.20249,0.108655 0.0593,0.103717 0,0.232128 l -1.46191,3.353506 q -0.0346,0.07902 -0.0938,0.123473 -0.0543,0.03951 -0.13829,0.03951 z"
       style="font-style:normal;font-variant:normal;font-weight:bold;font-stretch:normal;font-size:4.93889px;line-height:1.25;font-family:Comfortaa;-inkscape-font-specification:'Comfortaa Bold';fill:#4e5153;fill-opacity:1;stroke:none;stroke-width:0.264999;stroke-miterlimit:3.4;stroke-dasharray:none"
       id="path1418" />
    <path
       d="m 114.78014,42.534454 q -0.10865,0 -0.18274,-0.07408 -0.0691,-0.06914 -0.0691,-0.1778 V 40.03044 q 0.005,-0.390173 0.18274,-0.701323 0.1778,-0.31115 0.48401,-0.48895 0.30621,-0.182739 0.69144,-0.182739 0.39018,0 0.69639,0.182739 0.30621,0.1778 0.48401,0.48895 0.18274,0.31115 0.18274,0.701323 0,0.390172 -0.16793,0.701322 -0.16298,0.306211 -0.44943,0.48895 -0.28646,0.1778 -0.647,0.1778 -0.29139,0 -0.53834,-0.118533 -0.242,-0.123472 -0.41487,-0.330906 v 1.333501 q 0,0.108655 -0.0691,0.1778 -0.0691,0.07408 -0.18274,0.07408 z m 1.10631,-1.580445 q 0.25189,0 0.44944,-0.118533 0.19756,-0.123472 0.31115,-0.330906 0.11854,-0.212372 0.11854,-0.474133 0,-0.2667 -0.11854,-0.474134 -0.11359,-0.212372 -0.31115,-0.330905 -0.19755,-0.123473 -0.44944,-0.123473 -0.24694,0 -0.44944,0.123473 -0.19755,0.118533 -0.31115,0.330905 -0.11359,0.207434 -0.11359,0.474134 0,0.261761 0.11359,0.474133 0.1136,0.207434 0.31115,0.330906 0.2025,0.118533 0.44944,0.118533 z"
       style="font-style:normal;font-variant:normal;font-weight:bold;font-stretch:normal;font-size:4.93889px;line-height:1.25;font-family:Comfortaa;-inkscape-font-specification:'Comfortaa Bold';fill:#4e5153;fill-opacity:1;stroke:none;stroke-width:0.264999;stroke-miterlimit:3.4;stroke-dasharray:none"
       id="path1420" />
    <path
       d="m 118.2528,42.534454 q -0.10866,0 -0.18274,-0.07408 -0.0691,-0.06914 -0.0691,-0.1778 V 40.03044 q 0.005,-0.390173 0.18273,-0.701323 0.1778,-0.31115 0.48402,-0.48895 0.30621,-0.182739 0.69144,-0.182739 0.39017,0 0.69638,0.182739 0.30621,0.1778 0.48401,0.48895 0.18274,0.31115 0.18274,0.701323 0,0.390172 -0.16792,0.701322 -0.16298,0.306211 -0.44944,0.48895 -0.28645,0.1778 -0.64699,0.1778 -0.2914,0 -0.53834,-0.118533 -0.24201,-0.123472 -0.41487,-0.330906 v 1.333501 q 0,0.108655 -0.0691,0.1778 -0.0692,0.07408 -0.18274,0.07408 z m 1.10631,-1.580445 q 0.25188,0 0.44944,-0.118533 0.19755,-0.123472 0.31115,-0.330906 0.11853,-0.212372 0.11853,-0.474133 0,-0.2667 -0.11853,-0.474134 -0.1136,-0.212372 -0.31115,-0.330905 -0.19756,-0.123473 -0.44944,-0.123473 -0.24694,0 -0.44944,0.123473 -0.19755,0.118533 -0.31115,0.330905 -0.11359,0.207434 -0.11359,0.474134 0,0.261761 0.11359,0.474133 0.1136,0.207434 0.31115,0.330906 0.2025,0.118533 0.44944,0.118533 z"
       style="font-style:normal;font-variant:normal;font-weight:bold;font-stretch:normal;font-size:4.93889px;line-height:1.25;font-family:Comfortaa;-inkscape-font-specification:'Comfortaa Bold';fill:#4e5153;fill-opacity:1;stroke:none;stroke-width:0.264999;stroke-miterlimit:3.4;stroke-dasharray:none"
       id="path1422" />
    <path
       style="fill:none;stroke:#4e5153;stroke-width:0.15;stroke-linecap:butt;stroke-linejoin:miter;stroke-miterlimit:3.9000001;stroke-dasharray:none;stroke-opacity:1;marker-start:url(#Arrow1Mstart);marker-end:url(#marker3841)"
       d="m 53.641903,46.638581 c 0,-7.59697 0,-15.194075 0,-22.791299"
       id="path1272" />
    <path
       id="path1780"
       d="m 109.67845,70.937362 c 0,-15.884108 0,-31.768499 0,-47.653136"
       style="fill:none;stroke:#4e5153;stroke-width:0.15;stroke-linecap:butt;stroke-linejoin:miter;stroke-miterlimit:3.9;stroke-dasharray:none;stroke-opacity:1;marker-start:url(#marker1786);marker-end:url(#marker1796)" />
    <path
       id="path2120"
       d="m 85.060108,46.752065 c 0,-4.680422 0,-9.360928 0,-14.041508"
       style="fill:none;stroke:#4e5153;stroke-width:0.117737;stroke-linecap:butt;stroke-linejoin:miter;stroke-miterlimit:3.9;stroke-dasharray:none;stroke-opacity:1;marker-start:url(#marker2126);marker-end:url(#marker2136)" />
  </g>
</svg>
