<?xml version="1.0" encoding="UTF-8" standalone="no"?>
<svg
   xmlns:dc="http://purl.org/dc/elements/1.1/"
   xmlns:cc="http://creativecommons.org/ns#"
   xmlns:rdf="http://www.w3.org/1999/02/22-rdf-syntax-ns#"
   xmlns:svg="http://www.w3.org/2000/svg"
   xmlns="http://www.w3.org/2000/svg"
   xmlns:sodipodi="http://sodipodi.sourceforge.net/DTD/sodipodi-0.dtd"
   xmlns:inkscape="http://www.inkscape.org/namespaces/inkscape"
   sodipodi:docname="RC-Time-Constant.svg"
   inkscape:version="1.0 (4035a4fb49, 2020-05-01)"
   id="svg8"
   version="1.1"
   viewBox="0 0 174.625 95.250003"
   height="360"
   width="660"
   inkscape:export-filename="C:\Users\Corey\Documents\KoBee\Website Assets\Calculator Assets\RC-Time-Constant.png"
   inkscape:export-xdpi="96"
   inkscape:export-ydpi="96">
  <defs
     id="defs2">
    <marker
       inkscape:isstock="true"
       style="overflow:visible;"
       id="marker3841"
       refX="0.0"
       refY="0.0"
       orient="auto"
       inkscape:stockid="Arrow1Mend">
      <path
         transform="scale(0.4) rotate(180) translate(10,0)"
         style="fill-rule:evenodd;stroke:#4e5153;stroke-width:1pt;stroke-opacity:1;fill:#4e5153;fill-opacity:1"
         d="M 0.0,0.0 L 5.0,-5.0 L -12.5,0.0 L 5.0,5.0 L 0.0,0.0 z "
         id="path3839" />
    </marker>
    <marker
       inkscape:isstock="true"
       style="overflow:visible;"
       id="marker3831"
       refX="0.0"
       refY="0.0"
       orient="auto"
       inkscape:stockid="Arrow1Mend">
      <path
         transform="scale(0.4) rotate(180) translate(10,0)"
         style="fill-rule:evenodd;stroke:#4e5153;stroke-width:1pt;stroke-opacity:1;fill:#4e5153;fill-opacity:1"
         d="M 0.0,0.0 L 5.0,-5.0 L -12.5,0.0 L 5.0,5.0 L 0.0,0.0 z "
         id="path3829" />
    </marker>
    <marker
       inkscape:stockid="TriangleOutL"
       orient="auto"
       refY="0.0"
       refX="0.0"
       id="TriangleOutL"
       style="overflow:visible"
       inkscape:isstock="true">
      <path
         id="path2502"
         d="M 5.77,0.0 L -2.88,5.0 L -2.88,-5.0 L 5.77,0.0 z "
         style="fill-rule:evenodd;stroke:#000000;stroke-width:1pt;stroke-opacity:1;fill:#000000;fill-opacity:1"
         transform="scale(0.8)" />
    </marker>
    <marker
       inkscape:stockid="Arrow2Lend"
       orient="auto"
       refY="0.0"
       refX="0.0"
       id="marker2926"
       style="overflow:visible;"
       inkscape:isstock="true">
      <path
         id="path2924"
         style="fill-rule:evenodd;stroke-width:0.625;stroke-linejoin:round;stroke:#000000;stroke-opacity:1;fill:#000000;fill-opacity:1"
         d="M 8.7185878,4.0337352 L -2.2072895,0.016013256 L 8.7185884,-4.0017078 C 6.9730900,-1.6296469 6.9831476,1.6157441 8.7185878,4.0337352 z "
         transform="scale(1.1) rotate(180) translate(1,0)" />
    </marker>
    <marker
       inkscape:stockid="Arrow2Lend"
       orient="auto"
       refY="0.0"
       refX="0.0"
       id="marker2868"
       style="overflow:visible;"
       inkscape:isstock="true">
      <path
         id="path2866"
         style="fill-rule:evenodd;stroke-width:0.625;stroke-linejoin:round;stroke:#000000;stroke-opacity:1;fill:#000000;fill-opacity:1"
         d="M 8.7185878,4.0337352 L -2.2072895,0.016013256 L 8.7185884,-4.0017078 C 6.9730900,-1.6296469 6.9831476,1.6157441 8.7185878,4.0337352 z "
         transform="scale(1.1) rotate(180) translate(1,0)" />
    </marker>
    <marker
       inkscape:stockid="Arrow2Lend"
       orient="auto"
       refY="0.0"
       refX="0.0"
       id="Arrow2Lend"
       style="overflow:visible;"
       inkscape:isstock="true">
      <path
         id="path2381"
         style="fill-rule:evenodd;stroke-width:0.625;stroke-linejoin:round;stroke:#000000;stroke-opacity:1;fill:#000000;fill-opacity:1"
         d="M 8.7185878,4.0337352 L -2.2072895,0.016013256 L 8.7185884,-4.0017078 C 6.9730900,-1.6296469 6.9831476,1.6157441 8.7185878,4.0337352 z "
         transform="scale(1.1) rotate(180) translate(1,0)" />
    </marker>
    <marker
       inkscape:stockid="Arrow1Lend"
       orient="auto"
       refY="0.0"
       refX="0.0"
       id="Arrow1Lend"
       style="overflow:visible;"
       inkscape:isstock="true">
      <path
         id="path2363"
         d="M 0.0,0.0 L 5.0,-5.0 L -12.5,0.0 L 5.0,5.0 L 0.0,0.0 z "
         style="fill-rule:evenodd;stroke:#000000;stroke-width:1pt;stroke-opacity:1;fill:#000000;fill-opacity:1"
         transform="scale(0.8) rotate(180) translate(12.5,0)" />
    </marker>
    <marker
       inkscape:stockid="Arrow1Lstart"
       orient="auto"
       refY="0.0"
       refX="0.0"
       id="Arrow1Lstart"
       style="overflow:visible"
       inkscape:isstock="true">
      <path
         id="path2360"
         d="M 0.0,0.0 L 5.0,-5.0 L -12.5,0.0 L 5.0,5.0 L 0.0,0.0 z "
         style="fill-rule:evenodd;stroke:#000000;stroke-width:1pt;stroke-opacity:1;fill:#000000;fill-opacity:1"
         transform="scale(0.8) translate(12.5,0)" />
    </marker>
    <marker
       inkscape:stockid="TriangleInL"
       orient="auto"
       refY="0.0"
       refX="0.0"
       id="TriangleInL"
       style="overflow:visible"
       inkscape:isstock="true">
      <path
         id="path2493"
         d="M 5.77,0.0 L -2.88,5.0 L -2.88,-5.0 L 5.77,0.0 z "
         style="fill-rule:evenodd;stroke:#000000;stroke-width:1pt;stroke-opacity:1;fill:#000000;fill-opacity:1"
         transform="scale(-0.8)" />
    </marker>
    <marker
       inkscape:stockid="Arrow2Mstart"
       orient="auto"
       refY="0.0"
       refX="0.0"
       id="Arrow2Mstart"
       style="overflow:visible"
       inkscape:isstock="true">
      <path
         id="path2384"
         style="fill-rule:evenodd;stroke-width:0.625;stroke-linejoin:round;stroke:#000000;stroke-opacity:1;fill:#000000;fill-opacity:1"
         d="M 8.7185878,4.0337352 L -2.2072895,0.016013256 L 8.7185884,-4.0017078 C 6.9730900,-1.6296469 6.9831476,1.6157441 8.7185878,4.0337352 z "
         transform="scale(0.6) translate(0,0)" />
    </marker>
    <marker
       inkscape:isstock="true"
       style="overflow:visible"
       id="TriangleInL-7"
       refX="0"
       refY="0"
       orient="auto"
       inkscape:stockid="TriangleInL">
      <path
         transform="scale(-0.8)"
         style="fill:#000000;fill-opacity:1;fill-rule:evenodd;stroke:#000000;stroke-width:1pt;stroke-opacity:1"
         d="M 5.77,0 -2.88,5 V -5 Z"
         id="path2493-4" />
    </marker>
    <marker
       inkscape:isstock="true"
       style="overflow:visible"
       id="Arrow1Lstart-8"
       refX="0"
       refY="0"
       orient="auto"
       inkscape:stockid="Arrow1Lstart">
      <path
         transform="matrix(0.8,0,0,0.8,10,0)"
         style="fill:#000000;fill-opacity:1;fill-rule:evenodd;stroke:#000000;stroke-width:1pt;stroke-opacity:1"
         d="M 0,0 5,-5 -12.5,0 5,5 Z"
         id="path2360-1" />
    </marker>
    <marker
       inkscape:isstock="true"
       style="overflow:visible"
       id="TriangleOutL-0"
       refX="0"
       refY="0"
       orient="auto"
       inkscape:stockid="TriangleOutL">
      <path
         transform="scale(0.8)"
         style="fill:#000000;fill-opacity:1;fill-rule:evenodd;stroke:#000000;stroke-width:1pt;stroke-opacity:1"
         d="M 5.77,0 -2.88,5 V -5 Z"
         id="path2502-7" />
    </marker>
    <marker
       inkscape:stockid="Arrow1Mend"
       orient="auto"
       refY="0"
       refX="0"
       id="marker3831-4"
       style="overflow:visible"
       inkscape:isstock="true">
      <path
         id="path3829-7"
         d="M 0,0 5,-5 -12.5,0 5,5 Z"
         style="fill:#4e5153;fill-opacity:1;fill-rule:evenodd;stroke:#4e5153;stroke-width:1pt;stroke-opacity:1"
         transform="matrix(-0.4,0,0,-0.4,-4,0)" />
    </marker>
    <marker
       inkscape:stockid="Arrow1Mend"
       orient="auto"
       refY="0"
       refX="0"
       id="marker3841-2"
       style="overflow:visible"
       inkscape:isstock="true">
      <path
         id="path3839-2"
         d="M 0,0 5,-5 -12.5,0 5,5 Z"
         style="fill:#4e5153;fill-opacity:1;fill-rule:evenodd;stroke:#4e5153;stroke-width:1pt;stroke-opacity:1"
         transform="matrix(-0.4,0,0,-0.4,-4,0)" />
    </marker>
    <marker
       inkscape:stockid="Arrow2Lend"
       orient="auto"
       refY="0"
       refX="0"
       id="marker2926-3"
       style="overflow:visible"
       inkscape:isstock="true">
      <path
         id="path2924-1"
         style="fill:#4e5153;fill-opacity:1;fill-rule:evenodd;stroke:#4e5153;stroke-width:0.625;stroke-linejoin:round;stroke-opacity:1"
         d="M 8.7185878,4.0337352 -2.2072895,0.01601326 8.7185884,-4.0017078 c -1.7454984,2.3720609 -1.7354408,5.6174519 -6e-7,8.035443 z"
         transform="matrix(-1.1,0,0,-1.1,-1.1,0)" />
    </marker>
  </defs>
  <sodipodi:namedview
     inkscape:window-maximized="1"
     inkscape:window-y="472"
     inkscape:window-x="-8"
     inkscape:window-height="1377"
     inkscape:window-width="2560"
     units="px"
     showgrid="false"
     inkscape:document-rotation="0"
     inkscape:current-layer="layer1"
     inkscape:document-units="mm"
     inkscape:cy="394.42462"
     inkscape:cx="807.72604"
     inkscape:zoom="0.49497475"
     inkscape:pageshadow="2"
     inkscape:pageopacity="0.0"
     borderopacity="1.0"
     bordercolor="#666666"
     pagecolor="#ffffff"
     id="base"
     showguides="true" />
  <metadata
     id="metadata5">
    <rdf:RDF>
      <cc:Work
         rdf:about="">
        <dc:format>image/svg+xml</dc:format>
        <dc:type
           rdf:resource="http://purl.org/dc/dcmitype/StillImage" />
        <dc:title></dc:title>
      </cc:Work>
    </rdf:RDF>
  </metadata>
  <g
     id="layer1"
     inkscape:groupmode="layer"
     inkscape:label="Layer 1">
    <rect
       style="fill:none;fill-opacity:1;stroke:none;stroke-width:0.197656;stroke-linecap:round;stroke-linejoin:round;stroke-miterlimit:4;stroke-dasharray:none;stroke-opacity:1"
       id="rect846-0"
       width="172.98044"
       height="92.524414"
       x="0.93217969"
       y="1.7948973"
       ry="6.6088867" />
    <text
       id="text1054-6"
       y="84.896484"
       x="28.35652"
       style="font-style:normal;font-variant:normal;font-weight:300;font-stretch:normal;font-size:12.7px;line-height:1.25;font-family:Comfortaa;-inkscape-font-specification:'Comfortaa Light';fill:#000000;fill-opacity:1;stroke:none;stroke-width:0.264999;stroke-miterlimit:3.4;stroke-dasharray:none"
       xml:space="preserve"><tspan
         style="font-style:normal;font-variant:normal;font-weight:300;font-stretch:normal;font-size:12.7px;font-family:Comfortaa;-inkscape-font-specification:'Comfortaa Light';fill:#4e5153;fill-opacity:1;stroke-width:0.264999;stroke-miterlimit:3.4;stroke-dasharray:none"
         y="84.896484"
         x="28.35652"
         id="tspan1052-4"
         sodipodi:role="line">RC Time Constant</tspan></text>
    <path
       id="path1895-8-4-8"
       d="m 122.04133,24.865233 v 10.80774 h -3.83704"
       style="fill:none;stroke:#fed700;stroke-width:0.833;stroke-linecap:round;stroke-linejoin:miter;stroke-miterlimit:4;stroke-dasharray:none;stroke-opacity:1" />
    <path
       id="path1897-7-4-2"
       d="m 122.04133,35.672973 h 4.10526"
       style="fill:none;stroke:#fed700;stroke-width:0.833;stroke-linecap:round;stroke-linejoin:miter;stroke-miterlimit:4;stroke-dasharray:none;stroke-opacity:1" />
    <path
       style="fill:none;stroke:#fed700;stroke-width:0.833;stroke-linecap:round;stroke-linejoin:miter;stroke-miterlimit:4;stroke-dasharray:none;stroke-opacity:1"
       d="m 122.29626,50.948753 v -10.80774 h 3.83703"
       id="path1895-1-8-6-2" />
    <path
       style="fill:none;stroke:#fed700;stroke-width:0.833;stroke-linecap:round;stroke-linejoin:miter;stroke-miterlimit:4;stroke-dasharray:none;stroke-opacity:1"
       d="M 122.29626,40.141013 H 118.191"
       id="path1897-0-3-7-2" />
    <path
       id="path1607-2-1-3-8-0"
       d="m 69.957573,11.024397 h 6.2206 l 1.43658,-2.48824 2.295771,3.9764 2.48824,-4.30977 2.48824,4.30977 2.488229,-4.30977 2.488242,4.30977 1.244118,-2.15487 h 6.220601"
       style="fill:none;stroke:#fed700;stroke-width:0.756163;stroke-linecap:round;stroke-linejoin:round;stroke-miterlimit:4;stroke-dasharray:none;stroke-opacity:1" />
    <path
       d="m 97.006354,9.153787 a 1.2038528,1.2038528 0 0 1 1.203852,1.20386 1.2038528,1.2038528 0 0 1 -1.203852,1.20385 1.2038528,1.2038528 0 0 1 -1.203851,-1.20385 1.2038528,1.2038528 0 0 1 1.203851,-1.20386"
       style="fill:#fed700;fill-opacity:1;stroke:#fed700;stroke-width:0.805823;stroke-linecap:round;stroke-linejoin:round;stroke-miterlimit:4;stroke-dasharray:none;stroke-opacity:1"
       id="path1707-9-1-6-4" />
    <path
       d="m 70.413029,9.888787 a 1.2038528,1.2038528 0 0 1 1.203853,1.20386 1.2038528,1.2038528 0 0 1 -1.203853,1.20385 1.2038528,1.2038528 0 0 1 -1.203853,-1.20385 1.2038528,1.2038528 0 0 1 1.203853,-1.20386"
       style="fill:#fed700;fill-opacity:1;stroke:#fed700;stroke-width:0.805823;stroke-linecap:round;stroke-linejoin:round;stroke-miterlimit:4;stroke-dasharray:none;stroke-opacity:1"
       id="path1707-9-0-7-6" />
    <path
       id="path3434-9-0"
       d="M 34.157737,29.50154 H 59.155219"
       style="fill:none;stroke:#fed700;stroke-width:1;stroke-linecap:round;stroke-linejoin:miter;stroke-miterlimit:4;stroke-dasharray:none;stroke-opacity:1" />
    <path
       id="path3436-3-4"
       d="M 39.955639,34.824193 H 52.406844"
       style="fill:none;stroke:#fed700;stroke-width:1;stroke-linecap:round;stroke-linejoin:miter;stroke-miterlimit:4;stroke-dasharray:none;stroke-opacity:1" />
    <path
       style="fill:none;stroke:#fed700;stroke-width:1;stroke-linecap:round;stroke-linejoin:miter;stroke-miterlimit:4;stroke-dasharray:none;stroke-opacity:1"
       d="M 34.1102,40.146848 H 59.107703"
       id="path3434-8-9-2" />
    <path
       style="fill:none;stroke:#fed700;stroke-width:1;stroke-linecap:round;stroke-linejoin:miter;stroke-miterlimit:4;stroke-dasharray:none;stroke-opacity:1"
       d="M 39.908102,45.469523 H 52.359327"
       id="path3436-1-0-2" />
    <path
       sodipodi:nodetypes="cccc"
       id="path3458-3"
       d="m 122.29626,50.948753 0.0413,14.597462 H 46.15868 V 45.604583"
       style="fill:none;stroke:#fed700;stroke-width:1;stroke-linecap:round;stroke-linejoin:round;stroke-miterlimit:4;stroke-dasharray:none;stroke-opacity:1" />
    <path
       d="m 26.466536,43.538229 q -0.2413,0 -0.3429,-0.2413 l -3.81,-9.055099 q -0.127,-0.2921 -0.0127,-0.4572 0.127,-0.1651 0.3429,-0.1651 0.2413,0 0.3683,0.2667 l 3.6576,8.750299 h -0.3683 l 3.6068,-8.699499 q 0.0635,-0.1778 0.1651,-0.2413 0.1016,-0.0762 0.254,-0.0762 0.2286,0 0.3048,0.1905 0.0762,0.1905 -0.0254,0.4318 l -3.7973,9.055099 q -0.0635,0.1397 -0.1651,0.1905 -0.0889,0.0508 -0.1778,0.0508 z"
       style="font-style:normal;font-variant:normal;font-weight:300;font-stretch:normal;font-size:12.7px;line-height:1.25;font-family:Comfortaa;-inkscape-font-specification:'Comfortaa Light';fill:#4e5153;fill-opacity:1;stroke:none;stroke-width:0.264999;stroke-miterlimit:3.4;stroke-dasharray:none"
       id="path3863" />
    <path
       id="path1259"
       d="M 69.957573,11.024397 H 46.504896 V 29.33283"
       style="fill:none;stroke:#fed700;stroke-width:1;stroke-linecap:butt;stroke-linejoin:round;stroke-opacity:1;stroke-miterlimit:4;stroke-dasharray:none" />
    <path
       id="path1274"
       d="M 97.328192,10.357687 H 121.8749 V 25.25697"
       style="fill:none;stroke:#fed700;stroke-width:1;stroke-linecap:butt;stroke-linejoin:round;stroke-opacity:1;stroke-miterlimit:4;stroke-dasharray:none" />
    <path
       id="path1279"
       style="fill:#fed700;fill-opacity:1;stroke:#fed700;stroke-width:0.805823;stroke-linecap:round;stroke-linejoin:round;stroke-miterlimit:4;stroke-dasharray:none;stroke-opacity:1"
       d="m 121.94683,24.865233 a 1.2038528,1.2038528 0 0 1 1.20385,1.20386 1.2038528,1.2038528 0 0 1 -1.20385,1.20385 1.2038528,1.2038528 0 0 1 -1.20385,-1.20385 1.2038528,1.2038528 0 0 1 1.20385,-1.20386" />
    <path
       d="m 122.32481,49.386438 a 1.2038528,1.2038528 0 0 1 1.20385,1.20386 1.2038528,1.2038528 0 0 1 -1.20385,1.20385 1.2038528,1.2038528 0 0 1 -1.20385,-1.20385 1.2038528,1.2038528 0 0 1 1.20385,-1.20386"
       style="fill:#fed700;fill-opacity:1;stroke:#fed700;stroke-width:0.805823;stroke-linecap:round;stroke-linejoin:round;stroke-miterlimit:4;stroke-dasharray:none;stroke-opacity:1"
       id="path1281" />
    <text
       xml:space="preserve"
       style="font-style:normal;font-variant:normal;font-weight:300;font-stretch:normal;font-size:12.7px;line-height:1.25;font-family:Comfortaa;-inkscape-font-specification:'Comfortaa Light';fill:#000000;fill-opacity:1;stroke:none;stroke-width:0.264999;stroke-miterlimit:3.4;stroke-dasharray:none"
       x="106.93376"
       y="43.068806"
       id="text1285"><tspan
         sodipodi:role="line"
         id="tspan1283"
         x="106.93376"
         y="43.068806"
         style="font-style:normal;font-variant:normal;font-weight:300;font-stretch:normal;font-size:12.7px;font-family:Comfortaa;-inkscape-font-specification:'Comfortaa Light';fill:#4e5153;fill-opacity:1;stroke-width:0.264999;stroke-miterlimit:3.4;stroke-dasharray:none">C</tspan></text>
    <text
       id="text1289"
       y="25.295382"
       x="79.672272"
       style="font-style:normal;font-variant:normal;font-weight:300;font-stretch:normal;font-size:12.7px;line-height:1.25;font-family:Comfortaa;-inkscape-font-specification:'Comfortaa Light';fill:#000000;fill-opacity:1;stroke:none;stroke-width:0.264999;stroke-miterlimit:3.4;stroke-dasharray:none"
       xml:space="preserve"><tspan
         style="font-style:normal;font-variant:normal;font-weight:300;font-stretch:normal;font-size:12.7px;font-family:Comfortaa;-inkscape-font-specification:'Comfortaa Light';fill:#4e5153;fill-opacity:1;stroke-width:0.264999;stroke-miterlimit:3.4;stroke-dasharray:none"
         y="25.295382"
         x="79.672272"
         id="tspan1287"
         sodipodi:role="line">R</tspan></text>
  </g>
</svg>
