<?xml version="1.0" encoding="UTF-8" standalone="no"?>
<svg
   xmlns:dc="http://purl.org/dc/elements/1.1/"
   xmlns:cc="http://creativecommons.org/ns#"
   xmlns:rdf="http://www.w3.org/1999/02/22-rdf-syntax-ns#"
   xmlns:svg="http://www.w3.org/2000/svg"
   xmlns="http://www.w3.org/2000/svg"
   xmlns:sodipodi="http://sodipodi.sourceforge.net/DTD/sodipodi-0.dtd"
   xmlns:inkscape="http://www.inkscape.org/namespaces/inkscape"
   sodipodi:docname="Resistors-In-Series.svg"
   inkscape:version="1.0 (4035a4fb49, 2020-05-01)"
   id="svg8"
   version="1.1"
   viewBox="0 0 171.97917 79.110416"
   height="299"
   width="650"
   inkscape:export-filename="C:\Users\Corey\Documents\KoBee\Support Data\Circuits\Resistors-In-Series.png"
   inkscape:export-xdpi="146.3"
   inkscape:export-ydpi="146.3">
  <defs
     id="defs2" />
  <sodipodi:namedview
     inkscape:window-maximized="1"
     inkscape:window-y="477"
     inkscape:window-x="-8"
     inkscape:window-height="1377"
     inkscape:window-width="2560"
     showgrid="true"
     inkscape:document-rotation="0"
     inkscape:current-layer="layer1"
     inkscape:document-units="mm"
     inkscape:cy="377.652"
     inkscape:cx="-149.99256"
     inkscape:zoom="1"
     inkscape:pageshadow="2"
     inkscape:pageopacity="0.0"
     borderopacity="1.0"
     bordercolor="#666666"
     pagecolor="#ffffff"
     id="base"
     units="px">
    <inkscape:grid
       dotted="false"
       empspacing="5"
       snapvisiblegridlinesonly="false"
       spacingy="1"
       spacingx="1"
       units="mm"
       id="grid842"
       type="xygrid" />
  </sodipodi:namedview>
  <metadata
     id="metadata5">
    <rdf:RDF>
      <cc:Work
         rdf:about="">
        <dc:format>image/svg+xml</dc:format>
        <dc:type
           rdf:resource="http://purl.org/dc/dcmitype/StillImage" />
        <dc:title />
      </cc:Work>
    </rdf:RDF>
  </metadata>
  <g
     id="layer1"
     inkscape:groupmode="layer"
     inkscape:label="Layer 1">
    <rect
       ry="3.1978958"
       y="18.206652"
       x="67.253868"
       height="6.3957925"
       width="15.989538"
       id="rect1504-4"
       style="fill:#fed700;fill-opacity:1;stroke:none;stroke-width:0.364116;stroke-linecap:round;stroke-linejoin:round;stroke-miterlimit:4;stroke-dasharray:none" />
    <g
       style="font-style:normal;font-weight:normal;font-size:5.14783px;line-height:1.25;font-family:sans-serif;fill:#000000;fill-opacity:1;stroke:none;stroke-width:0.187792"
       id="text1508-3"
       aria-label="R1">
      <path
         id="path926"
         style="font-style:normal;font-variant:normal;font-weight:600;font-stretch:normal;font-family:Comfortaa;-inkscape-font-specification:'Comfortaa Semi-Bold';fill:#4e5153;fill-opacity:1;stroke-width:0.187792"
         d="m 73.398109,23.414772 q -0.108104,0 -0.180174,-0.06692 -0.06692,-0.07207 -0.06692,-0.180174 v -3.526263 q 0,-0.108105 0.06692,-0.175027 0.07207,-0.07207 0.180174,-0.07207 h 0.936905 q 0.38094,0 0.679514,0.159583 0.298574,0.159582 0.463305,0.442713 0.169878,0.283131 0.169878,0.653774 0,0.350053 -0.169878,0.622888 -0.164731,0.272835 -0.463305,0.42727 -0.298574,0.154435 -0.679514,0.154435 h -0.694957 v 1.312696 q 0,0.108105 -0.06692,0.180174 -0.06692,0.06692 -0.175027,0.06692 z m 2.141498,0 q -0.07207,0 -0.123548,-0.02574 -0.05148,-0.03089 -0.09266,-0.09266 l -0.947201,-1.523758 0.483896,-0.133843 0.869983,1.400209 q 0.08751,0.138992 0.02574,0.257392 -0.06177,0.1184 -0.216208,0.1184 z m -1.89955,-2.017949 h 0.694957 q 0.247096,0 0.432418,-0.09266 0.19047,-0.09781 0.298574,-0.267687 0.108105,-0.169879 0.108105,-0.386088 0,-0.231652 -0.108105,-0.411826 -0.108104,-0.185322 -0.298574,-0.283131 -0.185322,-0.102956 -0.432418,-0.102956 h -0.694957 z" />
      <path
         id="path928"
         style="font-style:normal;font-variant:normal;font-weight:600;font-stretch:normal;font-family:Comfortaa;-inkscape-font-specification:'Comfortaa Semi-Bold';fill:#4e5153;fill-opacity:1;stroke-width:0.187792"
         d="m 77.099158,23.414772 q -0.09266,0 -0.164731,-0.06692 -0.07207,-0.07207 -0.07207,-0.175026 v -3.207098 l -0.422122,0.16473 q -0.07722,0.03089 -0.14414,0.03089 -0.102956,0 -0.175026,-0.06692 -0.06692,-0.06692 -0.06692,-0.169879 0,-0.07207 0.03603,-0.133843 0.03603,-0.06177 0.1184,-0.09266 l 0.803062,-0.283131 q 0.02574,-0.0103 0.05148,-0.01544 0.02574,-0.0051 0.04633,-0.0051 0.108104,0 0.169878,0.07207 0.06692,0.06692 0.06692,0.169879 v 3.536559 q 0,0.102957 -0.07207,0.175026 -0.06692,0.06692 -0.175026,0.06692 z" />
    </g>
    <path
       style="fill:none;stroke:#4e4c4c;stroke-width:0.846103;stroke-linecap:round;stroke-linejoin:miter;stroke-miterlimit:4;stroke-dasharray:0.846103, 2.53833;stroke-dashoffset:0;stroke-opacity:1"
       d="m 120.82206,62.977231 h 28.78109"
       id="path1439-7-1-7" />
    <path
       id="path1741-3-5"
       d="M 57.660232,64.246381 H 12.889647"
       style="fill:none;stroke:#4e4c4c;stroke-width:0.84611px;stroke-linecap:butt;stroke-linejoin:miter;stroke-opacity:1" />
    <ellipse
       ry="2.2385306"
       rx="2.2071369"
       style="fill:#4e4c4c;fill-opacity:1;stroke:#4e4c4c;stroke-width:0.846107;stroke-linecap:round;stroke-linejoin:round;stroke-miterlimit:0.7;stroke-dasharray:none;stroke-dashoffset:0;stroke-opacity:1;paint-order:fill markers stroke"
       id="path1389-0-9-3-2-4"
       cx="12.889647"
       cy="64.246422" />
    <ellipse
       cy="11.810845"
       cx="12.889647"
       id="path1389-0-9-3-8-4-9"
       style="fill:#4e4c4c;fill-opacity:1;stroke:#4e4c4c;stroke-width:0.846107;stroke-linecap:round;stroke-linejoin:round;stroke-miterlimit:0.7;stroke-dasharray:none;stroke-dashoffset:0;stroke-opacity:1;paint-order:fill markers stroke"
       rx="2.2071369"
       ry="2.2385306" />
    <path
       id="path1459-2-5-3-6"
       d="m 105.09698,62.977199 h 15.9895 v 0"
       style="fill:none;stroke:#4e4c4c;stroke-width:0.846107px;stroke-linecap:butt;stroke-linejoin:miter;stroke-opacity:1" />
    <rect
       style="fill:#fed700;fill-opacity:1;stroke:none;stroke-width:0.364116;stroke-linecap:round;stroke-linejoin:round;stroke-miterlimit:4;stroke-dasharray:none"
       id="rect1504-1-1"
       width="15.989537"
       height="6.3957925"
       x="153.5972"
       y="15.008744"
       ry="3.1978958" />
    <g
       style="font-style:normal;font-weight:normal;font-size:5.14785px;line-height:1.25;font-family:sans-serif;fill:#000000;fill-opacity:1;stroke:none;stroke-width:0.187792"
       id="text1508-2-8"
       aria-label="R2">
      <path
         id="path921"
         style="font-style:normal;font-variant:normal;font-weight:600;font-stretch:normal;font-family:Comfortaa;-inkscape-font-specification:'Comfortaa Semi-Bold';fill:#4e5153;fill-opacity:1;stroke-width:0.187792"
         d="m 159.10054,20.216846 q -0.10811,0 -0.18018,-0.06692 -0.0669,-0.07207 -0.0669,-0.180174 v -3.526278 q 0,-0.108104 0.0669,-0.175027 0.0721,-0.07207 0.18018,-0.07207 h 0.9369 q 0.38094,0 0.67952,0.159583 0.29858,0.159583 0.46331,0.442715 0.16988,0.283132 0.16988,0.653777 0,0.350054 -0.16988,0.62289 -0.16473,0.272836 -0.46331,0.427271 -0.29858,0.154436 -0.67952,0.154436 h -0.69496 v 1.312702 q 0,0.108105 -0.0669,0.180174 -0.0669,0.06692 -0.17502,0.06692 z m 2.1415,0 q -0.0721,0 -0.12355,-0.02574 -0.0515,-0.03089 -0.0927,-0.09266 l -0.9472,-1.523764 0.48389,-0.133844 0.86999,1.400215 q 0.0875,0.138992 0.0257,0.257393 -0.0618,0.1184 -0.21621,0.1184 z m -1.89956,-2.017957 h 0.69496 q 0.2471,0 0.43242,-0.09266 0.19047,-0.09781 0.29858,-0.267688 0.1081,-0.169879 0.1081,-0.386089 0,-0.231653 -0.1081,-0.411828 -0.10811,-0.185323 -0.29858,-0.283132 -0.18532,-0.102957 -0.43242,-0.102957 h -0.69496 z" />
      <path
         id="path923"
         style="font-style:normal;font-variant:normal;font-weight:600;font-stretch:normal;font-family:Comfortaa;-inkscape-font-specification:'Comfortaa Semi-Bold';fill:#4e5153;fill-opacity:1;stroke-width:0.187792"
         d="m 162.15297,20.216846 q -0.10296,0 -0.17503,-0.06692 -0.0669,-0.07207 -0.0669,-0.175026 0,-0.102957 0.0669,-0.16988 l 1.49288,-1.755416 q 0.14929,-0.164732 0.23165,-0.329463 0.0824,-0.164731 0.0824,-0.308871 0,-0.231653 -0.0875,-0.401532 -0.0824,-0.175027 -0.2368,-0.267688 -0.14928,-0.09781 -0.36035,-0.09781 -0.20076,0 -0.36549,0.108104 -0.16474,0.102957 -0.2574,0.277984 -0.0927,0.169879 -0.0927,0.380941 0,0.09781 -0.0721,0.169879 -0.0669,0.06692 -0.16988,0.06692 -0.0978,0 -0.16988,-0.06692 -0.0721,-0.07207 -0.0721,-0.169879 0,-0.350054 0.15444,-0.62289 0.15958,-0.272836 0.43242,-0.432419 0.27284,-0.159583 0.61259,-0.159583 0.34491,0 0.6023,0.149287 0.26254,0.149288 0.40153,0.422124 0.14414,0.272836 0.14414,0.643481 0,0.164731 -0.0669,0.329463 -0.0618,0.164731 -0.16473,0.319166 -0.0978,0.149288 -0.20591,0.272836 l -1.22519,1.400216 h 1.49802 q 0.10296,0 0.17503,0.07722 0.0721,0.07207 0.0721,0.164732 0,0.102957 -0.0721,0.175026 -0.0721,0.06692 -0.17503,0.06692 z" />
    </g>
    <rect
       ry="3.1978958"
       y="69.373032"
       x="67.253891"
       height="6.3957925"
       width="15.989537"
       id="rect1504-1-0-1"
       style="fill:#fed700;fill-opacity:1;stroke:none;stroke-width:0.364116;stroke-linecap:round;stroke-linejoin:round;stroke-miterlimit:4;stroke-dasharray:none" />
    <g
       style="font-style:normal;font-weight:normal;font-size:5.14782px;line-height:1.25;font-family:sans-serif;fill:#000000;fill-opacity:1;stroke:none;stroke-width:0.187792"
       id="text1508-2-5-3"
       aria-label="RN">
      <path
         id="path916"
         style="font-style:normal;font-variant:normal;font-weight:600;font-stretch:normal;font-family:Comfortaa;-inkscape-font-specification:'Comfortaa Semi-Bold';fill:#4e5153;fill-opacity:1;stroke-width:0.187792"
         d="m 72.265601,74.581131 q -0.108105,0 -0.180174,-0.06692 -0.06692,-0.07207 -0.06692,-0.180173 v -3.526257 q 0,-0.108104 0.06692,-0.175026 0.07207,-0.07207 0.180174,-0.07207 h 0.936903 q 0.380938,0 0.679512,0.159582 0.298574,0.159582 0.463304,0.442713 0.169878,0.28313 0.169878,0.653773 0,0.350051 -0.169878,0.622886 -0.16473,0.272834 -0.463304,0.427269 -0.298574,0.154435 -0.679512,0.154435 h -0.694956 v 1.312694 q 0,0.108104 -0.06692,0.180173 -0.06692,0.06692 -0.175025,0.06692 z m 2.141493,0 q -0.07207,0 -0.123548,-0.02574 -0.05148,-0.03089 -0.09266,-0.09266 l -0.947199,-1.523755 0.483895,-0.133843 0.869982,1.400207 q 0.08751,0.138991 0.02574,0.257391 -0.06177,0.1184 -0.216208,0.1184 z m -1.899546,-2.017945 h 0.694956 q 0.247095,0 0.432417,-0.09266 0.190469,-0.09781 0.298573,-0.267687 0.108104,-0.169878 0.108104,-0.386086 0,-0.231652 -0.108104,-0.411826 -0.108104,-0.185321 -0.298573,-0.28313 -0.185322,-0.102956 -0.432417,-0.102956 h -0.694956 z" />
      <path
         id="path918"
         style="font-style:normal;font-variant:normal;font-weight:600;font-stretch:normal;font-family:Comfortaa;-inkscape-font-specification:'Comfortaa Semi-Bold';fill:#4e5153;fill-opacity:1;stroke-width:0.187792"
         d="m 75.487894,74.581131 q -0.102956,0 -0.175025,-0.06692 -0.06692,-0.07207 -0.06692,-0.180173 v -3.526257 q 0,-0.108104 0.06692,-0.175026 0.07207,-0.07207 0.175025,-0.07207 0.113253,0 0.19047,0.08751 l 2.316519,3.0681 v -2.908518 q 0,-0.108104 0.06692,-0.175026 0.07207,-0.07207 0.175026,-0.07207 0.108105,0 0.175026,0.07207 0.06692,0.06692 0.06692,0.175026 v 3.526257 q 0,0.108104 -0.06692,0.180173 -0.06692,0.06692 -0.175026,0.06692 -0.04633,0 -0.102956,-0.02059 -0.05148,-0.02059 -0.08237,-0.06177 L 75.73499,71.430665 v 2.903371 q 0,0.108104 -0.07207,0.180173 -0.06692,0.06692 -0.175026,0.06692 z" />
    </g>
    <path
       style="fill:none;stroke:#4e5153;stroke-width:0.936984;stroke-linecap:round;stroke-linejoin:round;stroke-miterlimit:4;stroke-dasharray:none;stroke-opacity:1"
       d="m 54.46233,64.246381 h 11.628711 l 2.685564,-4.651504 4.291676,7.43342 4.651504,-8.056595 4.651472,8.056595 4.651504,-8.056595 4.651471,8.056595 L 94,63 h 11.62871"
       id="path1607-6-8" />
    <ellipse
       ry="2.2385306"
       rx="2.2071369"
       style="fill:#4e4c4c;fill-opacity:1;stroke:#4e4c4c;stroke-width:0.846107;stroke-linecap:round;stroke-linejoin:round;stroke-miterlimit:0.7;stroke-dasharray:none;stroke-dashoffset:0;stroke-opacity:1;paint-order:fill markers stroke"
       id="path1389-0-9-3-8-4-1-5"
       cx="54.44442"
       cy="64.415451" />
    <ellipse
       inkscape:transform-center-y="0.09921875"
       inkscape:transform-center-x="-4.4317708"
       ry="2.2385306"
       rx="2.2071369"
       style="fill:#4e4c4c;fill-opacity:1;stroke:#4e4c4c;stroke-width:0.846107;stroke-linecap:round;stroke-linejoin:round;stroke-miterlimit:0.7;stroke-dasharray:none;stroke-dashoffset:0;stroke-opacity:1;paint-order:fill markers stroke"
       id="path1389-0-9-3-8-4-5-8"
       cx="105.96516"
       cy="63.002316" />
    <path
       id="path1439-7-1-8-1"
       d="m 120.9807,10.647453 h 28.78109"
       style="fill:none;stroke:#4e4c4c;stroke-width:0.846103;stroke-linecap:round;stroke-linejoin:miter;stroke-miterlimit:4;stroke-dasharray:0.846103, 2.53833;stroke-dashoffset:0;stroke-opacity:1" />
    <path
       style="fill:none;stroke:#4e4c4c;stroke-width:0.84611px;stroke-linecap:butt;stroke-linejoin:miter;stroke-opacity:1"
       d="M 57.660232,11.810848 H 12.889644"
       id="path1741-3-7-8" />
    <path
       style="fill:none;stroke:#4e4c4c;stroke-width:0.846107px;stroke-linecap:butt;stroke-linejoin:miter;stroke-opacity:1"
       d="m 105.09698,10.541666 h 15.98949 v 0"
       id="path1459-2-5-3-3-6" />
    <path
       id="path1607-6-4-1"
       d="m 54.46233,11.810848 h 11.628711 l 2.685564,-4.6515035 4.291676,7.4334205 4.651504,-8.0565951 4.651472,8.0565951 4.651504,-8.0565951 4.651471,8.0565951 L 94,10.564467 h 11.62872"
       style="fill:none;stroke:#4e5153;stroke-width:0.936984;stroke-linecap:round;stroke-linejoin:round;stroke-miterlimit:4;stroke-dasharray:none;stroke-opacity:1" />
    <ellipse
       cy="11.979876"
       cx="54.44442"
       id="path1389-0-9-3-8-4-1-7-4"
       style="fill:#4e4c4c;fill-opacity:1;stroke:#4e4c4c;stroke-width:0.846107;stroke-linecap:round;stroke-linejoin:round;stroke-miterlimit:0.7;stroke-dasharray:none;stroke-dashoffset:0;stroke-opacity:1;paint-order:fill markers stroke"
       rx="2.2071369"
       ry="2.2385306" />
    <ellipse
       cy="10.513638"
       cx="105.98197"
       id="path1389-0-9-3-8-4-5-0-2"
       style="fill:#4e4c4c;fill-opacity:1;stroke:#4e4c4c;stroke-width:0.846107;stroke-linecap:round;stroke-linejoin:round;stroke-miterlimit:0.7;stroke-dasharray:none;stroke-dashoffset:0;stroke-opacity:1;paint-order:fill markers stroke"
       rx="2.2071369"
       ry="2.2385306" />
    <path
       id="path1607-6-9-1"
       d="m 149.20288,10.914253 v 11.628712 l 4.6515,2.685564 -7.43342,4.291676 8.0566,4.651504 -8.0566,4.651472 8.0566,4.651503 -8.0566,4.651472 4.0283,2.325768 v 11.628712"
       style="fill:none;stroke:#4e5153;stroke-width:0.936984;stroke-linecap:round;stroke-linejoin:round;stroke-miterlimit:4;stroke-dasharray:none;stroke-opacity:1" />
    <ellipse
       cy="62.76009"
       cx="150.0058"
       id="path1389-0-9-3-8-4-5-6-8"
       style="fill:#4e4c4c;fill-opacity:1;stroke:#4e4c4c;stroke-width:0.846107;stroke-linecap:round;stroke-linejoin:round;stroke-miterlimit:0.7;stroke-dasharray:none;stroke-dashoffset:0;stroke-opacity:1;paint-order:fill markers stroke"
       rx="2.2071369"
       ry="2.2385306"
       inkscape:transform-center-x="-4.4317708"
       inkscape:transform-center-y="0.09921875" />
    <ellipse
       inkscape:transform-center-y="0.09921875"
       inkscape:transform-center-x="-4.4317708"
       ry="2.2385306"
       rx="2.2071369"
       style="fill:#4e4c4c;fill-opacity:1;stroke:#4e4c4c;stroke-width:0.846107;stroke-linecap:round;stroke-linejoin:round;stroke-miterlimit:0.7;stroke-dasharray:none;stroke-dashoffset:0;stroke-opacity:1;paint-order:fill markers stroke"
       id="path1389-0-9-3-8-4-5-6-3-0"
       cx="149.09045"
       cy="11.025815" />
  </g>
</svg>
