<?xml version="1.0" encoding="UTF-8" standalone="no"?>
<svg
   xmlns:dc="http://purl.org/dc/elements/1.1/"
   xmlns:cc="http://creativecommons.org/ns#"
   xmlns:rdf="http://www.w3.org/1999/02/22-rdf-syntax-ns#"
   xmlns:svg="http://www.w3.org/2000/svg"
   xmlns="http://www.w3.org/2000/svg"
   xmlns:sodipodi="http://sodipodi.sourceforge.net/DTD/sodipodi-0.dtd"
   xmlns:inkscape="http://www.inkscape.org/namespaces/inkscape"
   sodipodi:docname="Resistors-In-Parallel.svg"
   inkscape:version="1.0 (4035a4fb49, 2020-05-01)"
   id="svg8"
   version="1.1"
   viewBox="0 0 171.97917 79.110416"
   height="299"
   width="650"
   inkscape:export-filename="C:\Users\Corey\Documents\KoBee\Support Data\Circuits\Resistors-In-Series.png"
   inkscape:export-xdpi="146.3"
   inkscape:export-ydpi="146.3">
  <defs
     id="defs2" />
  <sodipodi:namedview
     inkscape:window-maximized="1"
     inkscape:window-y="477"
     inkscape:window-x="-8"
     inkscape:window-height="1377"
     inkscape:window-width="2560"
     showgrid="true"
     inkscape:document-rotation="0"
     inkscape:current-layer="layer1"
     inkscape:document-units="mm"
     inkscape:cy="377.652"
     inkscape:cx="-149.99256"
     inkscape:zoom="1"
     inkscape:pageshadow="2"
     inkscape:pageopacity="0.0"
     borderopacity="1.0"
     bordercolor="#666666"
     pagecolor="#ffffff"
     id="base"
     units="px">
    <inkscape:grid
       dotted="false"
       empspacing="5"
       snapvisiblegridlinesonly="false"
       spacingy="1"
       spacingx="1"
       units="mm"
       id="grid842"
       type="xygrid" />
  </sodipodi:namedview>
  <metadata
     id="metadata5">
    <rdf:RDF>
      <cc:Work
         rdf:about="">
        <dc:format>image/svg+xml</dc:format>
        <dc:type
           rdf:resource="http://purl.org/dc/dcmitype/StillImage" />
        <dc:title />
      </cc:Work>
    </rdf:RDF>
  </metadata>
  <g
     id="layer1"
     inkscape:groupmode="layer"
     inkscape:label="Layer 1">
    <rect
       style="fill:#fed700;fill-opacity:1;stroke:none;stroke-width:0.364116;stroke-linecap:round;stroke-linejoin:round;stroke-miterlimit:4;stroke-dasharray:none"
       id="rect1504"
       width="15.989538"
       height="6.3957925"
       x="38.160397"
       y="15.837371"
       ry="3.1978958" />
    <g
       style="font-style:normal;font-weight:normal;font-size:5.14783px;line-height:1.25;font-family:sans-serif;fill:#000000;fill-opacity:1;stroke:none;stroke-width:0.187792"
       id="text1508"
       aria-label="R1">
      <path
         id="path963"
         style="font-style:normal;font-variant:normal;font-weight:600;font-stretch:normal;font-family:Comfortaa;-inkscape-font-specification:'Comfortaa Semi-Bold';fill:#4e5153;fill-opacity:1;stroke-width:0.187792"
         d="m 44.304638,21.045492 q -0.108105,0 -0.180174,-0.06692 -0.06692,-0.07207 -0.06692,-0.180174 v -3.526263 q 0,-0.108105 0.06692,-0.175026 0.07207,-0.07207 0.180174,-0.07207 h 0.936905 q 0.380939,0 0.679513,0.159583 0.298575,0.159582 0.463305,0.442713 0.169878,0.283131 0.169878,0.653774 0,0.350053 -0.169878,0.622888 -0.16473,0.272835 -0.463305,0.42727 -0.298574,0.154435 -0.679513,0.154435 h -0.694957 v 1.312696 q 0,0.108105 -0.06692,0.180174 -0.06692,0.06692 -0.175026,0.06692 z m 2.141497,0 q -0.07207,0 -0.123548,-0.02574 -0.05148,-0.03089 -0.09266,-0.09266 l -0.947201,-1.523758 0.483897,-0.133843 0.869983,1.40021 q 0.08751,0.138991 0.02574,0.257391 -0.06177,0.1184 -0.216209,0.1184 z m -1.899549,-2.017949 h 0.694957 q 0.247096,0 0.432418,-0.09266 0.190469,-0.09781 0.298574,-0.267687 0.108104,-0.169879 0.108104,-0.386088 0,-0.231652 -0.108104,-0.411826 -0.108105,-0.185322 -0.298574,-0.283131 -0.185322,-0.102956 -0.432418,-0.102956 h -0.694957 z" />
      <path
         id="path965"
         style="font-style:normal;font-variant:normal;font-weight:600;font-stretch:normal;font-family:Comfortaa;-inkscape-font-specification:'Comfortaa Semi-Bold';fill:#4e5153;fill-opacity:1;stroke-width:0.187792"
         d="m 48.005686,21.045492 q -0.09266,0 -0.16473,-0.06692 -0.07207,-0.07207 -0.07207,-0.175026 v -3.207098 l -0.422122,0.164731 q -0.07722,0.03089 -0.144139,0.03089 -0.102957,0 -0.175026,-0.06692 -0.06692,-0.06692 -0.06692,-0.169879 0,-0.07207 0.03604,-0.133843 0.03603,-0.06177 0.1184,-0.09266 l 0.803061,-0.283131 q 0.02574,-0.01029 0.05148,-0.01544 0.02574,-0.0051 0.04633,-0.0051 0.108104,0 0.169878,0.07207 0.06692,0.06692 0.06692,0.169878 v 3.536559 q 0,0.102957 -0.07207,0.175026 -0.06692,0.06692 -0.175027,0.06692 z" />
    </g>
    <path
       id="path1439-7-1"
       d="m 125.29778,65.61762 h 28.78108"
       style="fill:none;stroke:#4e4c4c;stroke-width:0.846103;stroke-linecap:round;stroke-linejoin:miter;stroke-miterlimit:4;stroke-dasharray:0.846103, 2.53833;stroke-dashoffset:0;stroke-opacity:1" />
    <ellipse
       cy="65.717506"
       cx="17.78631"
       id="path1389-0-9-3-2"
       style="fill:#4e4c4c;fill-opacity:1;stroke:#4e4c4c;stroke-width:0.846107;stroke-linecap:round;stroke-linejoin:round;stroke-miterlimit:0.7;stroke-dasharray:none;stroke-dashoffset:0;stroke-opacity:1;paint-order:fill markers stroke"
       rx="2.2071369"
       ry="2.2385306" />
    <ellipse
       ry="2.2385306"
       rx="2.2071369"
       style="fill:#4e4c4c;fill-opacity:1;stroke:#4e4c4c;stroke-width:0.846107;stroke-linecap:round;stroke-linejoin:round;stroke-miterlimit:0.7;stroke-dasharray:none;stroke-dashoffset:0;stroke-opacity:1;paint-order:fill markers stroke"
       id="path1389-0-9-3-8-4"
       cx="17.497652"
       cy="13.392901" />
    <path
       style="fill:none;stroke:#4e4c4c;stroke-width:0.937;stroke-linecap:butt;stroke-linejoin:miter;stroke-miterlimit:4;stroke-dasharray:none;stroke-opacity:1"
       d="M 18.149945,65.61759 H 125.56219 v 0"
       id="path1459-2-5-3" />
    <rect
       style="fill:#fed700;fill-opacity:1;stroke:none;stroke-width:0.364116;stroke-linecap:round;stroke-linejoin:round;stroke-miterlimit:4;stroke-dasharray:none"
       id="rect1504-1-0"
       width="15.989537"
       height="6.3957925"
       x="128.16042"
       y="15.837358"
       ry="3.1978958" />
    <g
       style="font-style:normal;font-weight:normal;font-size:5.14782px;line-height:1.25;font-family:sans-serif;fill:#000000;fill-opacity:1;stroke:none;stroke-width:0.187792"
       id="text1508-2-5"
       aria-label="RN">
      <path
         id="path958"
         style="font-style:normal;font-variant:normal;font-weight:600;font-stretch:normal;font-family:Comfortaa;-inkscape-font-specification:'Comfortaa Semi-Bold';fill:#4e5153;fill-opacity:1;stroke-width:0.187792"
         d="m 133.17213,21.04546 q -0.10811,0 -0.18018,-0.06692 -0.0669,-0.07207 -0.0669,-0.180174 v -3.526256 q 0,-0.108105 0.0669,-0.175026 0.0721,-0.07207 0.18018,-0.07207 h 0.9369 q 0.38094,0 0.67951,0.159583 0.29857,0.159582 0.4633,0.442712 0.16988,0.28313 0.16988,0.653773 0,0.350052 -0.16988,0.622887 -0.16473,0.272834 -0.4633,0.427269 -0.29857,0.154434 -0.67951,0.154434 h -0.69496 v 1.312694 q 0,0.108105 -0.0669,0.180174 -0.0669,0.06692 -0.17502,0.06692 z m 2.14149,0 q -0.0721,0 -0.12355,-0.02574 -0.0515,-0.03089 -0.0927,-0.09266 l -0.9472,-1.523755 0.4839,-0.133843 0.86998,1.400207 q 0.0875,0.138991 0.0257,0.257391 -0.0618,0.1184 -0.21621,0.1184 z m -1.89955,-2.017946 h 0.69496 q 0.24709,0 0.43242,-0.09266 0.19046,-0.09781 0.29857,-0.267687 0.1081,-0.169878 0.1081,-0.386087 0,-0.231651 -0.1081,-0.411825 -0.10811,-0.185322 -0.29857,-0.28313 -0.18533,-0.102957 -0.43242,-0.102957 h -0.69496 z" />
      <path
         id="path960"
         style="font-style:normal;font-variant:normal;font-weight:600;font-stretch:normal;font-family:Comfortaa;-inkscape-font-specification:'Comfortaa Semi-Bold';fill:#4e5153;fill-opacity:1;stroke-width:0.187792"
         d="m 136.39442,21.04546 q -0.10296,0 -0.17503,-0.06692 -0.0669,-0.07207 -0.0669,-0.180174 v -3.526256 q 0,-0.108105 0.0669,-0.175026 0.0721,-0.07207 0.17503,-0.07207 0.11325,0 0.19047,0.08751 l 2.31652,3.068101 v -2.908518 q 0,-0.108105 0.0669,-0.175026 0.0721,-0.07207 0.17503,-0.07207 0.1081,0 0.17502,0.07207 0.0669,0.06692 0.0669,0.175026 v 3.526256 q 0,0.108105 -0.0669,0.180174 -0.0669,0.06692 -0.17502,0.06692 -0.0463,0 -0.10296,-0.02059 -0.0515,-0.02059 -0.0824,-0.06177 l -2.31652,-3.068101 v 2.90337 q 0,0.108105 -0.0721,0.180174 -0.0669,0.06692 -0.17503,0.06692 z" />
    </g>
    <path
       style="fill:none;stroke:#4e4c4c;stroke-width:0.846103;stroke-linecap:round;stroke-linejoin:miter;stroke-miterlimit:4;stroke-dasharray:0.846103, 2.53833;stroke-dashoffset:0;stroke-opacity:1"
       d="M 125.45642,13.28784 H 154.2375"
       id="path1439-7-1-8" />
    <path
       id="path1459-2-5-3-3"
       d="M 18.149945,13.18206 H 125.56219 v 0"
       style="fill:none;stroke:#4e4c4c;stroke-width:0.937;stroke-linecap:butt;stroke-linejoin:miter;stroke-miterlimit:4;stroke-dasharray:none;stroke-opacity:1" />
    <path
       style="fill:none;stroke:#4e5153;stroke-width:0.936984;stroke-linecap:round;stroke-linejoin:round;stroke-miterlimit:4;stroke-dasharray:none;stroke-opacity:1"
       d="m 125.93187,13.55465 v 11.62871 l 4.65149,2.68556 -7.43341,4.29168 8.05659,4.6515 -8.05659,4.65147 8.05659,4.65151 -8.05659,4.65147 4.0283,2.32577 v 11.62871"
       id="path1607-6-9" />
    <ellipse
       inkscape:transform-center-y="0.09921875"
       inkscape:transform-center-x="-4.4317708"
       ry="2.2385306"
       rx="2.2071369"
       style="fill:#4e4c4c;fill-opacity:1;stroke:#4e4c4c;stroke-width:0.846107;stroke-linecap:round;stroke-linejoin:round;stroke-miterlimit:0.7;stroke-dasharray:none;stroke-dashoffset:0;stroke-opacity:1;paint-order:fill markers stroke"
       id="path1389-0-9-3-8-4-5-6"
       cx="154.48151"
       cy="65.400475" />
    <ellipse
       cy="13.666209"
       cx="153.56616"
       id="path1389-0-9-3-8-4-5-6-3"
       style="fill:#4e4c4c;fill-opacity:1;stroke:#4e4c4c;stroke-width:0.846107;stroke-linecap:round;stroke-linejoin:round;stroke-miterlimit:0.7;stroke-dasharray:none;stroke-dashoffset:0;stroke-opacity:1;paint-order:fill markers stroke"
       rx="2.2071369"
       ry="2.2385306"
       inkscape:transform-center-x="-4.4317708"
       inkscape:transform-center-y="0.09921875" />
    <path
       id="path1607-6-9-5"
       d="m 35.931865,13.6272 v 11.62872 l 4.6515,2.68556 -7.43342,4.29168 8.0566,4.6515 -8.0566,4.65147 8.0566,4.65151 -8.0566,4.65147 4.0283,2.32577 v 11.62871"
       style="fill:none;stroke:#4e5153;stroke-width:0.936985;stroke-linecap:round;stroke-linejoin:round;stroke-miterlimit:4;stroke-dasharray:none;stroke-opacity:1" />
    <path
       style="fill:none;stroke:#4e5153;stroke-width:0.936985;stroke-linecap:round;stroke-linejoin:round;stroke-miterlimit:4;stroke-dasharray:none;stroke-opacity:1"
       d="m 62.875265,12.9757 v 11.62871 l 4.6515,2.68557 -7.43342,4.29167 8.0566,4.65151 -8.0566,4.65147 8.0566,4.6515 -8.0566,4.65147 4.0283,2.32577 v 11.62872"
       id="path1607-6-9-5-2" />
    <path
       style="fill:none;stroke:#4e5153;stroke-width:0.936985;stroke-linecap:round;stroke-linejoin:round;stroke-miterlimit:4;stroke-dasharray:none;stroke-opacity:1"
       d="m 89.875265,13.9757 v 11.62871 l 4.6515,2.68557 -7.43342,4.29167 8.0566,4.65151 -8.0566,4.65147 8.0566,4.6515 -8.0566,4.65147 4.0283,2.32577 v 11.62872"
       id="path1607-6-9-5-6" />
    <rect
       ry="3.1978958"
       y="15.837365"
       x="66.1604"
       height="6.395792"
       width="15.989537"
       id="rect1504-3"
       style="fill:#fed700;fill-opacity:1;stroke:none;stroke-width:0.364116;stroke-linecap:round;stroke-linejoin:round;stroke-miterlimit:4;stroke-dasharray:none" />
    <g
       style="font-style:normal;font-weight:normal;font-size:5.14783px;line-height:1.25;font-family:sans-serif;fill:#000000;fill-opacity:1;stroke:none;stroke-width:0.187792"
       id="text1508-0"
       aria-label="R2">
      <path
         id="path948"
         style="font-style:normal;font-variant:normal;font-weight:600;font-stretch:normal;font-family:Comfortaa;-inkscape-font-specification:'Comfortaa Semi-Bold';fill:#4e5153;fill-opacity:1;stroke-width:0.187792"
         d="m 71.66375,21.045486 q -0.108105,0 -0.180174,-0.06692 -0.06692,-0.07207 -0.06692,-0.180174 v -3.526264 q 0,-0.108104 0.06692,-0.175026 0.07207,-0.07207 0.180174,-0.07207 h 0.936905 q 0.380939,0 0.679513,0.159583 0.298574,0.159583 0.463305,0.442713 0.169878,0.283131 0.169878,0.653775 0,0.350052 -0.169878,0.622887 -0.164731,0.272835 -0.463305,0.42727 -0.298574,0.154435 -0.679513,0.154435 h -0.694957 v 1.312697 q 0,0.108104 -0.06692,0.180174 -0.06692,0.06692 -0.175026,0.06692 z m 2.141497,0 q -0.07207,0 -0.123548,-0.02574 -0.05148,-0.03089 -0.09266,-0.09266 l -0.947201,-1.523757 0.483896,-0.133844 0.869984,1.40021 q 0.08751,0.138991 0.02574,0.257391 -0.06177,0.1184 -0.216209,0.1184 z m -1.899549,-2.017949 h 0.694957 q 0.247095,0 0.432417,-0.09266 0.19047,-0.09781 0.298574,-0.267687 0.108105,-0.169878 0.108105,-0.386087 0,-0.231653 -0.108105,-0.411827 -0.108104,-0.185322 -0.298574,-0.28313 -0.185322,-0.102957 -0.432417,-0.102957 h -0.694957 z" />
      <path
         id="path950"
         style="font-style:normal;font-variant:normal;font-weight:600;font-stretch:normal;font-family:Comfortaa;-inkscape-font-specification:'Comfortaa Semi-Bold';fill:#4e5153;fill-opacity:1;stroke-width:0.187792"
         d="m 74.716172,21.045486 q -0.102957,0 -0.175027,-0.06692 -0.06692,-0.07207 -0.06692,-0.175027 0,-0.102956 0.06692,-0.169878 l 1.492871,-1.75541 q 0.149287,-0.164731 0.231652,-0.329461 0.08237,-0.164731 0.08237,-0.30887 0,-0.231652 -0.08751,-0.401531 -0.08237,-0.175026 -0.236801,-0.267687 -0.149287,-0.09781 -0.360348,-0.09781 -0.200765,0 -0.365496,0.108105 -0.16473,0.102956 -0.257391,0.277983 -0.09266,0.169878 -0.09266,0.380939 0,0.09781 -0.07207,0.169878 -0.06692,0.06692 -0.169878,0.06692 -0.09781,0 -0.169878,-0.06692 -0.07207,-0.07207 -0.07207,-0.169878 0,-0.350052 0.154435,-0.622887 0.159583,-0.272835 0.432418,-0.432418 0.272835,-0.159583 0.612591,-0.159583 0.344905,0 0.602296,0.149287 0.26254,0.149287 0.401531,0.422122 0.144139,0.272835 0.144139,0.643479 0,0.164731 -0.06692,0.329461 -0.06177,0.164731 -0.164731,0.319166 -0.09781,0.149287 -0.205913,0.272835 l -1.225184,1.400209 h 1.498019 q 0.102956,0 0.175026,0.07722 0.07207,0.07207 0.07207,0.16473 0,0.102957 -0.07207,0.175027 -0.07207,0.06692 -0.175026,0.06692 z" />
    </g>
    <rect
       ry="3.1978958"
       y="15.837369"
       x="93.160408"
       height="6.395792"
       width="15.989537"
       id="rect1504-5"
       style="fill:#fed700;fill-opacity:1;stroke:none;stroke-width:0.364116;stroke-linecap:round;stroke-linejoin:round;stroke-miterlimit:4;stroke-dasharray:none" />
    <g
       style="font-style:normal;font-weight:normal;font-size:5.14783px;line-height:1.25;font-family:sans-serif;fill:#000000;fill-opacity:1;stroke:none;stroke-width:0.187792"
       id="text1508-9"
       aria-label="R3">
      <path
         id="path953"
         style="font-style:normal;font-variant:normal;font-weight:600;font-stretch:normal;font-family:Comfortaa;-inkscape-font-specification:'Comfortaa Semi-Bold';fill:#4e5153;fill-opacity:1;stroke-width:0.187792"
         d="m 98.632851,21.04549 q -0.108105,0 -0.180175,-0.06692 -0.06692,-0.07207 -0.06692,-0.180174 v -3.526263 q 0,-0.108105 0.06692,-0.175026 0.07207,-0.07207 0.180175,-0.07207 h 0.936905 q 0.380939,0 0.679514,0.159583 0.29857,0.159582 0.4633,0.442713 0.16988,0.283131 0.16988,0.653775 0,0.350052 -0.16988,0.622887 -0.16473,0.272835 -0.4633,0.42727 -0.298575,0.154435 -0.679514,0.154435 h -0.694957 v 1.312696 q 0,0.108105 -0.06692,0.180174 -0.06692,0.06692 -0.175026,0.06692 z m 2.141499,0 q -0.0721,0 -0.12355,-0.02574 -0.0515,-0.03089 -0.0927,-0.09266 l -0.947202,-1.523758 0.483892,-0.133843 0.86999,1.40021 q 0.0875,0.138991 0.0257,0.257391 -0.0618,0.1184 -0.21621,0.1184 z m -1.899551,-2.017949 h 0.694957 q 0.247095,0 0.432414,-0.09266 0.19047,-0.09781 0.29858,-0.267687 0.1081,-0.169879 0.1081,-0.386087 0,-0.231653 -0.1081,-0.411827 -0.10811,-0.185322 -0.29858,-0.283131 -0.185319,-0.102956 -0.432414,-0.102956 h -0.694957 z" />
      <path
         id="path955"
         style="font-style:normal;font-variant:normal;font-weight:600;font-stretch:normal;font-family:Comfortaa;-inkscape-font-specification:'Comfortaa Semi-Bold';fill:#4e5153;fill-opacity:1;stroke-width:0.187792"
         d="m 102.68395,21.055786 q -0.37579,0 -0.67436,-0.159583 -0.29343,-0.16473 -0.46331,-0.442713 -0.16473,-0.277983 -0.16473,-0.622888 0,-0.108104 0.0618,-0.180174 0.0669,-0.07207 0.15959,-0.07207 0.0978,0 0.15958,0.07207 0.0618,0.07207 0.0618,0.180174 0,0.216209 0.10811,0.401531 0.11325,0.180174 0.29857,0.288279 0.19047,0.102956 0.42727,0.102956 0.36035,0 0.57141,-0.195617 0.21621,-0.200766 0.21621,-0.54567 0,-0.231653 -0.0978,-0.406679 -0.0978,-0.180174 -0.26769,-0.283131 -0.16473,-0.102956 -0.37579,-0.102956 -0.10295,0 -0.17502,-0.06692 -0.0669,-0.07207 -0.0669,-0.180174 0,-0.102957 0.0669,-0.169878 0.0721,-0.06692 0.17502,-0.06692 0.15444,0 0.29343,-0.07722 0.14414,-0.08236 0.23165,-0.216208 0.0875,-0.133844 0.0875,-0.303722 0,-0.241948 -0.16987,-0.401531 -0.16988,-0.164731 -0.44786,-0.164731 -0.20077,0 -0.3655,0.08237 -0.16473,0.07722 -0.26254,0.211061 -0.0927,0.128695 -0.0927,0.298574 0,0.108104 -0.0618,0.180174 -0.0618,0.07207 -0.15958,0.07207 -0.0927,0 -0.15958,-0.06692 -0.0618,-0.07207 -0.0618,-0.175027 0,-0.293426 0.14928,-0.525078 0.15444,-0.2368 0.41698,-0.370644 0.26254,-0.133844 0.592,-0.133844 0.30372,0 0.54567,0.133844 0.24195,0.128696 0.38094,0.3552 0.14414,0.221357 0.14414,0.504488 0,0.195617 -0.0875,0.3552 -0.0875,0.154435 -0.2265,0.272835 -0.13899,0.1184 -0.29858,0.19047 0.26769,0.08751 0.43757,0.247095 0.17503,0.154435 0.25224,0.365496 0.0824,0.205914 0.0824,0.442714 0,0.339756 -0.16988,0.607444 -0.16473,0.262539 -0.44786,0.416974 -0.28313,0.149287 -0.62289,0.149287 z" />
    </g>
  </g>
</svg>
