<?xml version="1.0" encoding="UTF-8" standalone="no"?>
<svg
   xmlns:dc="http://purl.org/dc/elements/1.1/"
   xmlns:cc="http://creativecommons.org/ns#"
   xmlns:rdf="http://www.w3.org/1999/02/22-rdf-syntax-ns#"
   xmlns:svg="http://www.w3.org/2000/svg"
   xmlns="http://www.w3.org/2000/svg"
   xmlns:sodipodi="http://sodipodi.sourceforge.net/DTD/sodipodi-0.dtd"
   xmlns:inkscape="http://www.inkscape.org/namespaces/inkscape"
   sodipodi:docname="Series-And-Parallel-Resistors.svg"
   inkscape:version="1.0 (4035a4fb49, 2020-05-01)"
   id="svg8"
   version="1.1"
   viewBox="0 0 174.625 95.250003"
   height="360"
   width="660"
   inkscape:export-filename="C:\Users\Corey\Documents\KoBee\Website Assets\Calculator Assets\LED-Series-Resistor.png"
   inkscape:export-xdpi="96"
   inkscape:export-ydpi="96">
  <defs
     id="defs2">
    <marker
       inkscape:isstock="true"
       style="overflow:visible;"
       id="marker3841"
       refX="0.0"
       refY="0.0"
       orient="auto"
       inkscape:stockid="Arrow1Mend">
      <path
         transform="scale(0.4) rotate(180) translate(10,0)"
         style="fill-rule:evenodd;stroke:#4e5153;stroke-width:1pt;stroke-opacity:1;fill:#4e5153;fill-opacity:1"
         d="M 0.0,0.0 L 5.0,-5.0 L -12.5,0.0 L 5.0,5.0 L 0.0,0.0 z "
         id="path3839" />
    </marker>
    <marker
       inkscape:isstock="true"
       style="overflow:visible;"
       id="marker3831"
       refX="0.0"
       refY="0.0"
       orient="auto"
       inkscape:stockid="Arrow1Mend">
      <path
         transform="scale(0.4) rotate(180) translate(10,0)"
         style="fill-rule:evenodd;stroke:#4e5153;stroke-width:1pt;stroke-opacity:1;fill:#4e5153;fill-opacity:1"
         d="M 0.0,0.0 L 5.0,-5.0 L -12.5,0.0 L 5.0,5.0 L 0.0,0.0 z "
         id="path3829" />
    </marker>
    <marker
       inkscape:stockid="TriangleOutL"
       orient="auto"
       refY="0.0"
       refX="0.0"
       id="TriangleOutL"
       style="overflow:visible"
       inkscape:isstock="true">
      <path
         id="path2502"
         d="M 5.77,0.0 L -2.88,5.0 L -2.88,-5.0 L 5.77,0.0 z "
         style="fill-rule:evenodd;stroke:#000000;stroke-width:1pt;stroke-opacity:1;fill:#000000;fill-opacity:1"
         transform="scale(0.8)" />
    </marker>
    <marker
       inkscape:stockid="Arrow2Lend"
       orient="auto"
       refY="0.0"
       refX="0.0"
       id="marker2926"
       style="overflow:visible;"
       inkscape:isstock="true">
      <path
         id="path2924"
         style="fill-rule:evenodd;stroke-width:0.625;stroke-linejoin:round;stroke:#000000;stroke-opacity:1;fill:#000000;fill-opacity:1"
         d="M 8.7185878,4.0337352 L -2.2072895,0.016013256 L 8.7185884,-4.0017078 C 6.9730900,-1.6296469 6.9831476,1.6157441 8.7185878,4.0337352 z "
         transform="scale(1.1) rotate(180) translate(1,0)" />
    </marker>
    <marker
       inkscape:stockid="Arrow2Lend"
       orient="auto"
       refY="0.0"
       refX="0.0"
       id="marker2868"
       style="overflow:visible;"
       inkscape:isstock="true">
      <path
         id="path2866"
         style="fill-rule:evenodd;stroke-width:0.625;stroke-linejoin:round;stroke:#000000;stroke-opacity:1;fill:#000000;fill-opacity:1"
         d="M 8.7185878,4.0337352 L -2.2072895,0.016013256 L 8.7185884,-4.0017078 C 6.9730900,-1.6296469 6.9831476,1.6157441 8.7185878,4.0337352 z "
         transform="scale(1.1) rotate(180) translate(1,0)" />
    </marker>
    <marker
       inkscape:stockid="Arrow2Lend"
       orient="auto"
       refY="0.0"
       refX="0.0"
       id="Arrow2Lend"
       style="overflow:visible;"
       inkscape:isstock="true">
      <path
         id="path2381"
         style="fill-rule:evenodd;stroke-width:0.625;stroke-linejoin:round;stroke:#000000;stroke-opacity:1;fill:#000000;fill-opacity:1"
         d="M 8.7185878,4.0337352 L -2.2072895,0.016013256 L 8.7185884,-4.0017078 C 6.9730900,-1.6296469 6.9831476,1.6157441 8.7185878,4.0337352 z "
         transform="scale(1.1) rotate(180) translate(1,0)" />
    </marker>
    <marker
       inkscape:stockid="Arrow1Lend"
       orient="auto"
       refY="0.0"
       refX="0.0"
       id="Arrow1Lend"
       style="overflow:visible;"
       inkscape:isstock="true">
      <path
         id="path2363"
         d="M 0.0,0.0 L 5.0,-5.0 L -12.5,0.0 L 5.0,5.0 L 0.0,0.0 z "
         style="fill-rule:evenodd;stroke:#000000;stroke-width:1pt;stroke-opacity:1;fill:#000000;fill-opacity:1"
         transform="scale(0.8) rotate(180) translate(12.5,0)" />
    </marker>
    <marker
       inkscape:stockid="Arrow1Lstart"
       orient="auto"
       refY="0.0"
       refX="0.0"
       id="Arrow1Lstart"
       style="overflow:visible"
       inkscape:isstock="true">
      <path
         id="path2360"
         d="M 0.0,0.0 L 5.0,-5.0 L -12.5,0.0 L 5.0,5.0 L 0.0,0.0 z "
         style="fill-rule:evenodd;stroke:#000000;stroke-width:1pt;stroke-opacity:1;fill:#000000;fill-opacity:1"
         transform="scale(0.8) translate(12.5,0)" />
    </marker>
    <marker
       inkscape:stockid="TriangleInL"
       orient="auto"
       refY="0.0"
       refX="0.0"
       id="TriangleInL"
       style="overflow:visible"
       inkscape:isstock="true">
      <path
         id="path2493"
         d="M 5.77,0.0 L -2.88,5.0 L -2.88,-5.0 L 5.77,0.0 z "
         style="fill-rule:evenodd;stroke:#000000;stroke-width:1pt;stroke-opacity:1;fill:#000000;fill-opacity:1"
         transform="scale(-0.8)" />
    </marker>
    <marker
       inkscape:stockid="Arrow2Mstart"
       orient="auto"
       refY="0.0"
       refX="0.0"
       id="Arrow2Mstart"
       style="overflow:visible"
       inkscape:isstock="true">
      <path
         id="path2384"
         style="fill-rule:evenodd;stroke-width:0.625;stroke-linejoin:round;stroke:#000000;stroke-opacity:1;fill:#000000;fill-opacity:1"
         d="M 8.7185878,4.0337352 L -2.2072895,0.016013256 L 8.7185884,-4.0017078 C 6.9730900,-1.6296469 6.9831476,1.6157441 8.7185878,4.0337352 z "
         transform="scale(0.6) translate(0,0)" />
    </marker>
    <marker
       inkscape:isstock="true"
       style="overflow:visible"
       id="TriangleInL-7"
       refX="0"
       refY="0"
       orient="auto"
       inkscape:stockid="TriangleInL">
      <path
         transform="scale(-0.8)"
         style="fill:#000000;fill-opacity:1;fill-rule:evenodd;stroke:#000000;stroke-width:1pt;stroke-opacity:1"
         d="M 5.77,0 -2.88,5 V -5 Z"
         id="path2493-4" />
    </marker>
    <marker
       inkscape:isstock="true"
       style="overflow:visible"
       id="Arrow1Lstart-8"
       refX="0"
       refY="0"
       orient="auto"
       inkscape:stockid="Arrow1Lstart">
      <path
         transform="matrix(0.8,0,0,0.8,10,0)"
         style="fill:#000000;fill-opacity:1;fill-rule:evenodd;stroke:#000000;stroke-width:1pt;stroke-opacity:1"
         d="M 0,0 5,-5 -12.5,0 5,5 Z"
         id="path2360-1" />
    </marker>
    <marker
       inkscape:isstock="true"
       style="overflow:visible"
       id="TriangleOutL-0"
       refX="0"
       refY="0"
       orient="auto"
       inkscape:stockid="TriangleOutL">
      <path
         transform="scale(0.8)"
         style="fill:#000000;fill-opacity:1;fill-rule:evenodd;stroke:#000000;stroke-width:1pt;stroke-opacity:1"
         d="M 5.77,0 -2.88,5 V -5 Z"
         id="path2502-7" />
    </marker>
    <marker
       inkscape:stockid="Arrow1Mend"
       orient="auto"
       refY="0"
       refX="0"
       id="marker3831-4"
       style="overflow:visible"
       inkscape:isstock="true">
      <path
         id="path3829-7"
         d="M 0,0 5,-5 -12.5,0 5,5 Z"
         style="fill:#4e5153;fill-opacity:1;fill-rule:evenodd;stroke:#4e5153;stroke-width:1pt;stroke-opacity:1"
         transform="matrix(-0.4,0,0,-0.4,-4,0)" />
    </marker>
    <marker
       inkscape:stockid="Arrow1Mend"
       orient="auto"
       refY="0"
       refX="0"
       id="marker3841-2"
       style="overflow:visible"
       inkscape:isstock="true">
      <path
         id="path3839-2"
         d="M 0,0 5,-5 -12.5,0 5,5 Z"
         style="fill:#4e5153;fill-opacity:1;fill-rule:evenodd;stroke:#4e5153;stroke-width:1pt;stroke-opacity:1"
         transform="matrix(-0.4,0,0,-0.4,-4,0)" />
    </marker>
  </defs>
  <sodipodi:namedview
     inkscape:window-maximized="1"
     inkscape:window-y="477"
     inkscape:window-x="-8"
     inkscape:window-height="1377"
     inkscape:window-width="2560"
     units="px"
     showgrid="false"
     inkscape:document-rotation="0"
     inkscape:current-layer="text844"
     inkscape:document-units="mm"
     inkscape:cy="182.14186"
     inkscape:cx="137.5306"
     inkscape:zoom="0.98994949"
     inkscape:pageshadow="2"
     inkscape:pageopacity="0.0"
     borderopacity="1.0"
     bordercolor="#666666"
     pagecolor="#ffffff"
     id="base"
     showguides="true" />
  <metadata
     id="metadata5">
    <rdf:RDF>
      <cc:Work
         rdf:about="">
        <dc:format>image/svg+xml</dc:format>
        <dc:type
           rdf:resource="http://purl.org/dc/dcmitype/StillImage" />
        <dc:title />
      </cc:Work>
    </rdf:RDF>
  </metadata>
  <g
     id="layer1"
     inkscape:groupmode="layer"
     inkscape:label="Layer 1">
    <rect
       ry="6.6088867"
       y="0.84995687"
       x="-176.58397"
       height="92.524414"
       width="172.98044"
       id="rect846"
       style="fill:none;fill-opacity:1;stroke:none;stroke-width:0.197656;stroke-linecap:round;stroke-linejoin:round;stroke-miterlimit:4;stroke-dasharray:none;stroke-opacity:1" />
    <g
       inkscape:export-ydpi="96"
       inkscape:export-xdpi="96"
       transform="translate(177.38712,-2.2198171)"
       id="g10179">
      <g
         style="font-style:normal;font-weight:normal;font-size:12.7856px;line-height:1.25;font-family:sans-serif;fill:#4e5153;fill-opacity:1;stroke:none;stroke-width:0.31964"
         id="text844"
         aria-label="Series and Parallel 
Resistors">
        <path
           id="path979"
           style="font-style:normal;font-variant:normal;font-weight:300;font-stretch:normal;font-family:Comfortaa;-inkscape-font-specification:'Comfortaa Light';text-align:center;text-anchor:middle;fill:#4e5153;fill-opacity:1;stroke-width:0.31964"
           d="m -146.92464,70.814006 q -0.8055,0 -1.48313,-0.217356 -0.66485,-0.23014 -1.15071,-0.63928 -0.48585,-0.421924 -0.76713,-0.984491 -0.0767,-0.153427 -0.0128,-0.294069 0.0767,-0.140641 0.24293,-0.191784 0.14064,-0.05114 0.28128,0.01279 0.14064,0.06393 0.21736,0.20457 0.23014,0.409139 0.60092,0.715993 0.38357,0.306855 0.89499,0.473067 0.52421,0.153428 1.17628,0.153428 0.72878,0 1.25299,-0.242927 0.53699,-0.242926 0.81827,-0.715993 0.29407,-0.473068 0.29407,-1.150704 0,-0.84385 -0.61371,-1.419202 -0.60092,-0.588137 -1.84112,-0.75435 -1.43199,-0.20457 -2.23748,-0.920563 -0.8055,-0.72878 -0.8055,-1.764413 0,-0.754351 0.37079,-1.316917 0.38356,-0.562566 1.0612,-0.869421 0.69042,-0.31964 1.58542,-0.31964 0.66485,0 1.22741,0.217355 0.56257,0.217356 0.98449,0.575352 0.42193,0.345212 0.65207,0.72878 0.0895,0.140641 0.0384,0.306854 -0.0384,0.153427 -0.20457,0.217355 -0.14064,0.05114 -0.28129,0.01279 -0.14064,-0.05114 -0.23014,-0.178999 -0.17899,-0.268497 -0.46028,-0.524209 -0.28128,-0.255712 -0.70321,-0.421925 -0.42192,-0.166213 -1.02284,-0.166213 -1.04842,0 -1.64935,0.473067 -0.60092,0.473068 -0.60092,1.342488 0,0.460282 0.24293,0.84385 0.25571,0.370782 0.7927,0.63928 0.537,0.268498 1.36806,0.409139 1.64935,0.281283 2.36534,1.022848 0.72878,0.728779 0.72878,1.866698 0,0.664851 -0.23014,1.201846 -0.21736,0.536995 -0.63928,0.907778 -0.40914,0.370782 -0.98449,0.575352 -0.57536,0.191784 -1.27856,0.191784 z" />
        <path
           id="path981"
           style="font-style:normal;font-variant:normal;font-weight:300;font-stretch:normal;font-family:Comfortaa;-inkscape-font-specification:'Comfortaa Light';text-align:center;text-anchor:middle;fill:#4e5153;fill-opacity:1;stroke-width:0.31964"
           d="m -138.7095,70.750078 q -1.01006,0 -1.80277,-0.447496 -0.77992,-0.460282 -1.22741,-1.265775 -0.4475,-0.805493 -0.4475,-1.841126 0,-1.048419 0.42193,-1.841126 0.42192,-0.805493 1.16349,-1.265775 0.74156,-0.460281 1.70048,-0.460281 0.94613,0 1.67491,0.447496 0.72878,0.43471 1.13792,1.214632 0.40914,0.767136 0.40914,1.777198 0,0.166213 -0.10228,0.268497 -0.10229,0.0895 -0.2685,0.0895 h -5.62567 V 66.76097 h 5.83024 l -0.56257,0.421925 q 0.0256,-0.831064 -0.28128,-1.470344 -0.30686,-0.63928 -0.88221,-0.997276 -0.56256,-0.370783 -1.3297,-0.370783 -0.72878,0 -1.30413,0.370783 -0.56257,0.357996 -0.89499,0.997276 -0.31964,0.63928 -0.31964,1.48313 0,0.831064 0.34521,1.470344 0.34521,0.63928 0.95892,1.010062 0.61371,0.357997 1.40641,0.357997 0.49864,0 0.99728,-0.166213 0.51142,-0.178998 0.80549,-0.460281 0.10229,-0.102285 0.24293,-0.102285 0.15343,-0.01279 0.25571,0.07671 0.14064,0.115071 0.14064,0.255712 0.0128,0.140642 -0.11507,0.255712 -0.40914,0.370783 -1.07399,0.613709 -0.65206,0.242927 -1.25299,0.242927 z" />
        <path
           id="path983"
           style="font-style:normal;font-variant:normal;font-weight:300;font-stretch:normal;font-family:Comfortaa;-inkscape-font-specification:'Comfortaa Light';text-align:center;text-anchor:middle;fill:#4e5153;fill-opacity:1;stroke-width:0.31964"
           d="m -133.75667,66.415759 q 0.0767,-0.818278 0.44749,-1.444772 0.37078,-0.63928 0.95892,-0.997277 0.58814,-0.357997 1.30413,-0.357997 0.48586,0 0.75435,0.11507 0.2685,0.115071 0.20457,0.40914 -0.0384,0.191784 -0.179,0.23014 -0.14064,0.03836 -0.34521,0.01279 -0.19178,-0.03836 -0.43471,-0.03836 -0.63928,0 -1.13791,0.268498 -0.49864,0.268497 -0.77993,0.741565 -0.28128,0.460281 -0.28128,1.061204 z m 0.12785,4.270391 q -0.16621,0 -0.28128,-0.102285 -0.10229,-0.115071 -0.10229,-0.281283 v -6.226587 q 0,-0.178999 0.10229,-0.281284 0.11507,-0.102284 0.28128,-0.102284 0.179,0 0.28129,0.102284 0.10228,0.102285 0.10228,0.281284 v 6.226587 q 0,0.166212 -0.10228,0.281283 -0.10229,0.102285 -0.28129,0.102285 z" />
        <path
           id="path985"
           style="font-style:normal;font-variant:normal;font-weight:300;font-stretch:normal;font-family:Comfortaa;-inkscape-font-specification:'Comfortaa Light';text-align:center;text-anchor:middle;fill:#4e5153;fill-opacity:1;stroke-width:0.31964"
           d="m -127.77941,70.68615 q -0.16621,0 -0.28128,-0.102285 -0.10228,-0.115071 -0.10228,-0.281283 v -6.226587 q 0,-0.178999 0.10228,-0.281284 0.11507,-0.102284 0.28128,-0.102284 0.179,0 0.28129,0.102284 0.10228,0.102285 0.10228,0.281284 v 6.226587 q 0,0.166212 -0.10228,0.281283 -0.10229,0.102285 -0.28129,0.102285 z m -0.0128,-8.464067 q -0.24293,0 -0.42193,-0.166213 -0.16621,-0.178999 -0.16621,-0.434711 0,-0.294068 0.179,-0.43471 0.19178,-0.153427 0.42192,-0.153427 0.21736,0 0.39636,0.153427 0.19178,0.140642 0.19178,0.43471 0,0.255712 -0.179,0.434711 -0.16621,0.166213 -0.42192,0.166213 z" />
        <path
           id="path987"
           style="font-style:normal;font-variant:normal;font-weight:300;font-stretch:normal;font-family:Comfortaa;-inkscape-font-specification:'Comfortaa Light';text-align:center;text-anchor:middle;fill:#4e5153;fill-opacity:1;stroke-width:0.31964"
           d="m -121.75359,70.750078 q -1.01007,0 -1.80277,-0.447496 -0.77993,-0.460282 -1.22742,-1.265775 -0.4475,-0.805493 -0.4475,-1.841126 0,-1.048419 0.42193,-1.841126 0.42192,-0.805493 1.16349,-1.265775 0.74156,-0.460281 1.70048,-0.460281 0.94614,0 1.67492,0.447496 0.72877,0.43471 1.13791,1.214632 0.40914,0.767136 0.40914,1.777198 0,0.166213 -0.10228,0.268497 -0.10229,0.0895 -0.2685,0.0895 h -5.62566 V 66.76097 h 5.83023 l -0.56257,0.421925 q 0.0256,-0.831064 -0.28128,-1.470344 -0.30685,-0.63928 -0.88221,-0.997276 -0.56256,-0.370783 -1.3297,-0.370783 -0.72878,0 -1.30413,0.370783 -0.56257,0.357996 -0.89499,0.997276 -0.31964,0.63928 -0.31964,1.48313 0,0.831064 0.34521,1.470344 0.34521,0.63928 0.95892,1.010062 0.61371,0.357997 1.40642,0.357997 0.49863,0 0.99727,-0.166213 0.51143,-0.178998 0.8055,-0.460281 0.10228,-0.102285 0.24292,-0.102285 0.15343,-0.01279 0.25571,0.07671 0.14065,0.115071 0.14065,0.255712 0.0128,0.140642 -0.11507,0.255712 -0.40914,0.370783 -1.074,0.613709 -0.65206,0.242927 -1.25298,0.242927 z" />
        <path
           id="path989"
           style="font-style:normal;font-variant:normal;font-weight:300;font-stretch:normal;font-family:Comfortaa;-inkscape-font-specification:'Comfortaa Light';text-align:center;text-anchor:middle;fill:#4e5153;fill-opacity:1;stroke-width:0.31964"
           d="m -114.67836,70.762863 q -0.66485,0 -1.39363,-0.242926 -0.72878,-0.242927 -1.21463,-0.818279 -0.10229,-0.127856 -0.0895,-0.268497 0.0256,-0.153427 0.16621,-0.255712 0.12786,-0.0895 0.2685,-0.06393 0.15342,0.02557 0.24292,0.140641 0.37079,0.434711 0.895,0.613709 0.53699,0.166213 1.16348,0.166213 1.074,0 1.52149,-0.383568 0.4475,-0.383568 0.4475,-0.894992 0,-0.498638 -0.48586,-0.818278 -0.47306,-0.332426 -1.47034,-0.473068 -1.27856,-0.178998 -1.89227,-0.690422 -0.61371,-0.511424 -0.61371,-1.189061 0,-0.63928 0.31964,-1.07399 0.31964,-0.447496 0.86942,-0.664851 0.56257,-0.230141 1.27856,-0.230141 0.86942,0 1.47035,0.31964 0.60092,0.306854 0.9717,0.831064 0.10229,0.127856 0.0639,0.281283 -0.0256,0.140642 -0.19178,0.230141 -0.12786,0.06393 -0.2685,0.03836 -0.14064,-0.02557 -0.24293,-0.153427 -0.31964,-0.40914 -0.77992,-0.613709 -0.44749,-0.217355 -1.04842,-0.217355 -0.80549,0 -1.25299,0.345211 -0.44749,0.345211 -0.44749,0.831064 0,0.332425 0.179,0.588137 0.19178,0.242927 0.6137,0.421925 0.42193,0.166213 1.12514,0.268498 0.95892,0.127856 1.5087,0.43471 0.56256,0.306854 0.79271,0.715994 0.24292,0.396353 0.24292,0.856635 0,0.600923 -0.38357,1.048419 -0.38356,0.447496 -1.01006,0.690422 -0.62649,0.230141 -1.35527,0.230141 z" />
        <path
           id="path991"
           style="font-style:normal;font-variant:normal;font-weight:300;font-stretch:normal;font-family:Comfortaa;-inkscape-font-specification:'Comfortaa Light';text-align:center;text-anchor:middle;fill:#4e5153;fill-opacity:1;stroke-width:0.31964"
           d="m -103.27201,70.762863 q -1.02285,0 -1.84113,-0.460281 -0.80549,-0.473068 -1.27856,-1.27856 -0.46028,-0.818279 -0.46028,-1.828341 0,-1.022848 0.46028,-1.828341 0.47307,-0.818278 1.27856,-1.27856 0.81828,-0.473067 1.84113,-0.473067 1.02285,0 1.82834,0.473067 0.80549,0.460282 1.26578,1.27856 0.473062,0.805493 0.473062,1.828341 l -0.319642,0.511424 q 0,0.869421 -0.43471,1.559843 -0.42192,0.690422 -1.1507,1.099562 -0.72878,0.396353 -1.66213,0.396353 z m 0,-0.715993 q 0.80549,0 1.43199,-0.370783 0.63928,-0.383568 0.99727,-1.022848 0.37079,-0.652065 0.37079,-1.457558 0,-0.818279 -0.37079,-1.457558 -0.35799,-0.652066 -0.99727,-1.022848 -0.6265,-0.383568 -1.43199,-0.383568 -0.79271,0 -1.43199,0.383568 -0.63928,0.370782 -1.01006,1.022848 -0.37078,0.639279 -0.37078,1.457558 0,0.805493 0.37078,1.457558 0.37078,0.63928 1.01006,1.022848 0.63928,0.370783 1.43199,0.370783 z m 3.1964,0.63928 q -0.179,0 -0.29407,-0.102285 -0.10228,-0.115071 -0.10228,-0.281283 v -2.339765 l 0.24292,-0.767136 h 0.524212 v 3.106901 q 0,0.166212 -0.102284,0.281283 -0.102285,0.102285 -0.268498,0.102285 z" />
        <path
           id="path993"
           style="font-style:normal;font-variant:normal;font-weight:300;font-stretch:normal;font-family:Comfortaa;-inkscape-font-specification:'Comfortaa Light';text-align:center;text-anchor:middle;fill:#4e5153;fill-opacity:1;stroke-width:0.31964"
           d="m -91.730609,70.68615 q -0.166213,0 -0.281283,-0.102285 -0.102285,-0.115071 -0.102285,-0.281283 v -3.439327 q 0,-0.843849 -0.332426,-1.39363 -0.31964,-0.549781 -0.882206,-0.818278 -0.549781,-0.281284 -1.252989,-0.281284 -0.690422,0 -1.240203,0.268498 -0.549781,0.255712 -0.869421,0.715994 -0.31964,0.460281 -0.31964,1.035633 h -0.63928 q 0.05114,-0.792707 0.473068,-1.419201 0.421924,-0.63928 1.099561,-0.997277 0.677637,-0.370783 1.495915,-0.370783 0.920563,0 1.649343,0.383568 0.741564,0.370783 1.163489,1.099562 0.421925,0.715994 0.421925,1.777198 v 3.439327 q 0,0.166212 -0.11507,0.281283 -0.102285,0.102285 -0.268498,0.102285 z m -5.664021,0 q -0.166212,0 -0.281283,-0.102285 -0.102285,-0.115071 -0.102285,-0.281283 v -6.226587 q 0,-0.178999 0.102285,-0.281284 0.115071,-0.102284 0.281283,-0.102284 0.178999,0 0.281284,0.102284 0.102284,0.102285 0.102284,0.281284 v 6.226587 q 0,0.166212 -0.102284,0.281283 -0.102285,0.102285 -0.281284,0.102285 z" />
        <path
           id="path995"
           style="font-style:normal;font-variant:normal;font-weight:300;font-stretch:normal;font-family:Comfortaa;-inkscape-font-specification:'Comfortaa Light';text-align:center;text-anchor:middle;fill:#4e5153;fill-opacity:1;stroke-width:0.31964"
           d="m -85.966499,70.762863 q -1.022847,0 -1.841126,-0.460281 -0.805493,-0.473068 -1.27856,-1.27856 -0.460281,-0.818279 -0.460281,-1.841127 0,-1.022848 0.460281,-1.82834 0.473067,-0.805493 1.27856,-1.265775 0.818279,-0.473067 1.841126,-0.473067 0.920564,0 1.649343,0.396354 0.741565,0.396353 1.150704,1.061204 v -3.989107 q 0,-0.178998 0.102285,-0.281283 0.11507,-0.102285 0.281283,-0.102285 0.178998,0 0.281283,0.102285 0.102285,0.102285 0.102285,0.281283 v 6.175445 q -0.01279,0.997277 -0.485853,1.789984 -0.473067,0.792707 -1.27856,1.252989 -0.792707,0.460281 -1.80277,0.460281 z m 0,-0.715993 q 0.805493,0 1.431988,-0.370783 0.63928,-0.383568 0.997276,-1.022848 0.370783,-0.652065 0.370783,-1.470344 0,-0.818278 -0.370783,-1.457558 -0.357996,-0.63928 -0.997276,-1.010062 -0.626495,-0.383568 -1.431988,-0.383568 -0.792707,0 -1.431987,0.383568 -0.63928,0.370782 -1.010062,1.010062 -0.370782,0.63928 -0.370782,1.457558 0,0.818279 0.370782,1.470344 0.370782,0.63928 1.010062,1.022848 0.63928,0.370783 1.431987,0.370783 z" />
        <path
           id="path997"
           style="font-style:normal;font-variant:normal;font-weight:300;font-stretch:normal;font-family:Comfortaa;-inkscape-font-specification:'Comfortaa Light';text-align:center;text-anchor:middle;fill:#4e5153;fill-opacity:1;stroke-width:0.31964"
           d="m -75.840905,70.68615 q -0.166212,0 -0.281283,-0.102285 -0.102285,-0.115071 -0.102285,-0.281283 v -9.218418 q 0,-0.178998 0.102285,-0.281283 0.115071,-0.102285 0.281283,-0.102285 h 2.55712 q 0.933349,0 1.649343,0.409139 0.728779,0.40914 1.137918,1.137919 0.409139,0.715993 0.409139,1.649342 0,0.933349 -0.409139,1.662128 -0.409139,0.728779 -1.137918,1.137918 -0.715994,0.40914 -1.649343,0.40914 h -2.173552 v 3.1964 q 0,0.166212 -0.102284,0.281283 -0.102285,0.102285 -0.281284,0.102285 z m 0.383568,-4.347104 h 2.173552 q 0.715994,0 1.252989,-0.306855 0.549781,-0.31964 0.856635,-0.86942 0.31964,-0.549781 0.31964,-1.265775 0,-0.715993 -0.31964,-1.252989 -0.306854,-0.54978 -0.856635,-0.856635 -0.536995,-0.31964 -1.252989,-0.31964 h -2.173552 z" />
        <path
           id="path999"
           style="font-style:normal;font-variant:normal;font-weight:300;font-stretch:normal;font-family:Comfortaa;-inkscape-font-specification:'Comfortaa Light';text-align:center;text-anchor:middle;fill:#4e5153;fill-opacity:1;stroke-width:0.31964"
           d="m -65.664367,70.762863 q -1.022848,0 -1.841126,-0.460281 -0.805493,-0.473068 -1.27856,-1.27856 -0.460282,-0.818279 -0.460282,-1.828341 0,-1.022848 0.460282,-1.828341 0.473067,-0.818278 1.27856,-1.27856 0.818278,-0.473067 1.841126,-0.473067 1.022848,0 1.828341,0.473067 0.805493,0.460282 1.265774,1.27856 0.473067,0.805493 0.473067,1.828341 l -0.31964,0.511424 q 0,0.869421 -0.43471,1.559843 -0.421925,0.690422 -1.150704,1.099562 -0.728779,0.396353 -1.662128,0.396353 z m 0,-0.715993 q 0.805493,0 1.431987,-0.370783 0.63928,-0.383568 0.997277,-1.022848 0.370782,-0.652065 0.370782,-1.457558 0,-0.818279 -0.370782,-1.457558 -0.357997,-0.652066 -0.997277,-1.022848 -0.626494,-0.383568 -1.431987,-0.383568 -0.792707,0 -1.431987,0.383568 -0.63928,0.370782 -1.010062,1.022848 -0.370783,0.639279 -0.370783,1.457558 0,0.805493 0.370783,1.457558 0.370782,0.63928 1.010062,1.022848 0.63928,0.370783 1.431987,0.370783 z m 3.1964,0.63928 q -0.178998,0 -0.294069,-0.102285 -0.102285,-0.115071 -0.102285,-0.281283 v -2.339765 l 0.242927,-0.767136 h 0.524209 v 3.106901 q 0,0.166212 -0.102284,0.281283 -0.102285,0.102285 -0.268498,0.102285 z" />
        <path
           id="path1001"
           style="font-style:normal;font-variant:normal;font-weight:300;font-stretch:normal;font-family:Comfortaa;-inkscape-font-specification:'Comfortaa Light';text-align:center;text-anchor:middle;fill:#4e5153;fill-opacity:1;stroke-width:0.31964"
           d="m -59.914839,66.415759 q 0.07671,-0.818278 0.447496,-1.444772 0.370783,-0.63928 0.95892,-0.997277 0.588138,-0.357997 1.304131,-0.357997 0.485853,0 0.754351,0.11507 0.268497,0.115071 0.204569,0.40914 -0.03836,0.191784 -0.178998,0.23014 -0.140642,0.03836 -0.345211,0.01279 -0.191784,-0.03836 -0.434711,-0.03836 -0.63928,0 -1.137918,0.268498 -0.498638,0.268497 -0.779922,0.741565 -0.281283,0.460281 -0.281283,1.061204 z m 0.127856,4.270391 q -0.166213,0 -0.281283,-0.102285 -0.102285,-0.115071 -0.102285,-0.281283 v -6.226587 q 0,-0.178999 0.102285,-0.281284 0.11507,-0.102284 0.281283,-0.102284 0.178999,0 0.281283,0.102284 0.102285,0.102285 0.102285,0.281284 v 6.226587 q 0,0.166212 -0.102285,0.281283 -0.102284,0.102285 -0.281283,0.102285 z" />
        <path
           id="path1003"
           style="font-style:normal;font-variant:normal;font-weight:300;font-stretch:normal;font-family:Comfortaa;-inkscape-font-specification:'Comfortaa Light';text-align:center;text-anchor:middle;fill:#4e5153;fill-opacity:1;stroke-width:0.31964"
           d="m -51.87989,70.762863 q -1.022848,0 -1.841126,-0.460281 -0.805493,-0.473068 -1.27856,-1.27856 -0.460282,-0.818279 -0.460282,-1.828341 0,-1.022848 0.460282,-1.828341 0.473067,-0.818278 1.27856,-1.27856 0.818278,-0.473067 1.841126,-0.473067 1.022848,0 1.828341,0.473067 0.805493,0.460282 1.265775,1.27856 0.473067,0.805493 0.473067,1.828341 l -0.31964,0.511424 q 0,0.869421 -0.434711,1.559843 -0.421924,0.690422 -1.150704,1.099562 -0.728779,0.396353 -1.662128,0.396353 z m 0,-0.715993 q 0.805493,0 1.431988,-0.370783 0.63928,-0.383568 0.997276,-1.022848 0.370783,-0.652065 0.370783,-1.457558 0,-0.818279 -0.370783,-1.457558 -0.357996,-0.652066 -0.997276,-1.022848 -0.626495,-0.383568 -1.431988,-0.383568 -0.792707,0 -1.431987,0.383568 -0.63928,0.370782 -1.010062,1.022848 -0.370783,0.639279 -0.370783,1.457558 0,0.805493 0.370783,1.457558 0.370782,0.63928 1.010062,1.022848 0.63928,0.370783 1.431987,0.370783 z m 3.1964,0.63928 q -0.178998,0 -0.294068,-0.102285 -0.102285,-0.115071 -0.102285,-0.281283 v -2.339765 l 0.242926,-0.767136 h 0.52421 v 3.106901 q 0,0.166212 -0.102285,0.281283 -0.102285,0.102285 -0.268498,0.102285 z" />
        <path
           id="path1005"
           style="font-style:normal;font-variant:normal;font-weight:300;font-stretch:normal;font-family:Comfortaa;-inkscape-font-specification:'Comfortaa Light';text-align:center;text-anchor:middle;fill:#4e5153;fill-opacity:1;stroke-width:0.31964"
           d="m -44.979665,70.68615 q -0.485853,0 -0.869421,-0.268498 -0.370782,-0.268498 -0.588138,-0.741565 -0.204569,-0.473067 -0.204569,-1.099561 v -7.492362 q 0,-0.178998 0.102285,-0.281283 0.11507,-0.102285 0.281283,-0.102285 0.178998,0 0.281283,0.102285 0.102285,0.102285 0.102285,0.281283 v 7.492362 q 0,0.588137 0.242926,0.971705 0.255712,0.370783 0.652066,0.370783 h 0.31964 q 0.140641,0 0.230141,0.102284 0.0895,0.102285 0.0895,0.281284 0,0.166212 -0.102285,0.281283 -0.102285,0.102285 -0.281283,0.102285 z" />
        <path
           id="path1007"
           style="font-style:normal;font-variant:normal;font-weight:300;font-stretch:normal;font-family:Comfortaa;-inkscape-font-specification:'Comfortaa Light';text-align:center;text-anchor:middle;fill:#4e5153;fill-opacity:1;stroke-width:0.31964"
           d="m -41.533544,70.68615 q -0.485853,0 -0.869421,-0.268498 -0.370782,-0.268498 -0.588137,-0.741565 -0.20457,-0.473067 -0.20457,-1.099561 v -7.492362 q 0,-0.178998 0.102285,-0.281283 0.11507,-0.102285 0.281283,-0.102285 0.178998,0 0.281283,0.102285 0.102285,0.102285 0.102285,0.281283 v 7.492362 q 0,0.588137 0.242926,0.971705 0.255712,0.370783 0.652066,0.370783 h 0.31964 q 0.140642,0 0.230141,0.102284 0.0895,0.102285 0.0895,0.281284 0,0.166212 -0.102285,0.281283 -0.102285,0.102285 -0.281283,0.102285 z" />
        <path
           id="path1009"
           style="font-style:normal;font-variant:normal;font-weight:300;font-stretch:normal;font-family:Comfortaa;-inkscape-font-specification:'Comfortaa Light';text-align:center;text-anchor:middle;fill:#4e5153;fill-opacity:1;stroke-width:0.31964"
           d="m -36.774304,70.750078 q -1.010062,0 -1.802769,-0.447496 -0.779922,-0.460282 -1.227418,-1.265775 -0.447496,-0.805493 -0.447496,-1.841126 0,-1.048419 0.421925,-1.841126 0.421925,-0.805493 1.163489,-1.265775 0.741565,-0.460281 1.700485,-0.460281 0.946134,0 1.674914,0.447496 0.728779,0.43471 1.137918,1.214632 0.409139,0.767136 0.409139,1.777198 0,0.166213 -0.102285,0.268497 -0.102284,0.0895 -0.268497,0.0895 h -5.625664 V 66.76097 h 5.830233 l -0.562566,0.421925 q 0.02557,-0.831064 -0.281283,-1.470344 -0.306855,-0.63928 -0.882207,-0.997276 -0.562566,-0.370783 -1.329702,-0.370783 -0.728779,0 -1.304131,0.370783 -0.562566,0.357996 -0.894992,0.997276 -0.31964,0.63928 -0.31964,1.48313 0,0.831064 0.345211,1.470344 0.345211,0.63928 0.95892,1.010062 0.613709,0.357997 1.406416,0.357997 0.498638,0 0.997277,-0.166213 0.511424,-0.178998 0.805493,-0.460281 0.102284,-0.102285 0.242926,-0.102285 0.153427,-0.01279 0.255712,0.07671 0.140642,0.115071 0.140642,0.255712 0.01279,0.140642 -0.115071,0.255712 -0.409139,0.370783 -1.07399,0.613709 -0.652066,0.242927 -1.252989,0.242927 z" />
        <path
           id="path1011"
           style="font-style:normal;font-variant:normal;font-weight:300;font-stretch:normal;font-family:Comfortaa;-inkscape-font-specification:'Comfortaa Light';text-align:center;text-anchor:middle;fill:#4e5153;fill-opacity:1;stroke-width:0.31964"
           d="m -30.670781,70.68615 q -0.485853,0 -0.869421,-0.268498 -0.370783,-0.268498 -0.588138,-0.741565 -0.204569,-0.473067 -0.204569,-1.099561 v -7.492362 q 0,-0.178998 0.102284,-0.281283 0.115071,-0.102285 0.281284,-0.102285 0.178998,0 0.281283,0.102285 0.102285,0.102285 0.102285,0.281283 v 7.492362 q 0,0.588137 0.242926,0.971705 0.255712,0.370783 0.652066,0.370783 h 0.31964 q 0.140641,0 0.23014,0.102284 0.0895,0.102285 0.0895,0.281284 0,0.166212 -0.102285,0.281283 -0.102285,0.102285 -0.281283,0.102285 z" />
        <path
           id="path1013"
           style="font-style:normal;font-variant:normal;font-weight:300;font-stretch:normal;font-family:Comfortaa;-inkscape-font-specification:'Comfortaa Light';text-align:center;text-anchor:middle;fill:#4e5153;fill-opacity:1;stroke-width:0.31964"
           d="m -116.49512,87.056434 q -0.16621,0 -0.28128,-0.102285 -0.10228,-0.11507 -0.10228,-0.281283 v -9.218417 q 0,-0.178999 0.10228,-0.281284 0.11507,-0.102284 0.28128,-0.102284 h 2.44205 q 0.93335,0 1.64935,0.396353 0.72877,0.383568 1.13791,1.061205 0.40914,0.677637 0.40914,1.572629 0,0.86942 -0.40914,1.547057 -0.40914,0.677637 -1.13791,1.061205 -0.716,0.383568 -1.64935,0.383568 h -2.05848 v 3.579968 q 0,0.166213 -0.10228,0.281283 -0.10229,0.102285 -0.28129,0.102285 z m 5.36996,0 q -0.14065,0 -0.21736,-0.05114 -0.0639,-0.06393 -0.12786,-0.153427 l -2.54433,-4.06582 0.79271,-0.178999 2.41648,3.861251 q 0.16621,0.255712 0.0639,0.421925 -0.0895,0.166213 -0.38356,0.166213 z m -4.98639,-4.730672 h 2.05848 q 0.716,0 1.25299,-0.281283 0.54978,-0.294069 0.85664,-0.792707 0.31964,-0.498639 0.31964,-1.150704 0,-0.664852 -0.31964,-1.176276 -0.30686,-0.511424 -0.85664,-0.792707 -0.53699,-0.294069 -1.25299,-0.294069 h -2.05848 z" />
        <path
           id="path1015"
           style="font-style:normal;font-variant:normal;font-weight:300;font-stretch:normal;font-family:Comfortaa;-inkscape-font-specification:'Comfortaa Light';text-align:center;text-anchor:middle;fill:#4e5153;fill-opacity:1;stroke-width:0.31964"
           d="m -106.14617,87.120362 q -1.01006,0 -1.80277,-0.447496 -0.77992,-0.460282 -1.22742,-1.265774 -0.4475,-0.805493 -0.4475,-1.841127 0,-1.048419 0.42193,-1.841126 0.42192,-0.805493 1.16349,-1.265775 0.74156,-0.460281 1.70048,-0.460281 0.94614,0 1.67492,0.447496 0.72878,0.43471 1.13792,1.214632 0.40914,0.767136 0.40914,1.777198 0,0.166213 -0.10229,0.268498 -0.10228,0.0895 -0.2685,0.0895 h -5.62566 v -0.664851 h 5.83023 l -0.56256,0.421925 q 0.0256,-0.831064 -0.28129,-1.470344 -0.30685,-0.63928 -0.8822,-0.997277 -0.56257,-0.370783 -1.32971,-0.370783 -0.72878,0 -1.30413,0.370783 -0.56256,0.357997 -0.89499,0.997277 -0.31964,0.63928 -0.31964,1.483129 0,0.831064 0.34521,1.470344 0.34521,0.63928 0.95892,1.010063 0.61371,0.357996 1.40642,0.357996 0.49864,0 0.99727,-0.166212 0.51143,-0.178999 0.8055,-0.460282 0.10228,-0.102285 0.24292,-0.102285 0.15343,-0.01279 0.25572,0.07671 0.14064,0.11507 0.14064,0.255712 0.0128,0.140641 -0.11507,0.255712 -0.40914,0.370782 -1.07399,0.613708 -0.65207,0.242927 -1.25299,0.242927 z" />
        <path
           id="path1017"
           style="font-style:normal;font-variant:normal;font-weight:300;font-stretch:normal;font-family:Comfortaa;-inkscape-font-specification:'Comfortaa Light';text-align:center;text-anchor:middle;fill:#4e5153;fill-opacity:1;stroke-width:0.31964"
           d="m -99.070941,87.133147 q -0.664851,0 -1.393629,-0.242926 -0.72878,-0.242926 -1.21463,-0.818278 -0.10229,-0.127856 -0.0895,-0.268498 0.0256,-0.153427 0.16621,-0.255712 0.12786,-0.0895 0.2685,-0.06393 0.15343,0.02557 0.24292,0.140642 0.37079,0.43471 0.895,0.613709 0.536992,0.166212 1.163486,0.166212 1.073991,0 1.521487,-0.383568 0.447496,-0.383568 0.447496,-0.894992 0,-0.498638 -0.485853,-0.818278 -0.473067,-0.332426 -1.470344,-0.473067 -1.278562,-0.178999 -1.892272,-0.690423 -0.61371,-0.511424 -0.61371,-1.18906 0,-0.63928 0.31964,-1.073991 0.31964,-0.447496 0.86942,-0.664851 0.562571,-0.230141 1.278565,-0.230141 0.869421,0 1.470344,0.31964 0.600923,0.306855 0.971706,0.831064 0.102284,0.127856 0.06393,0.281283 -0.02557,0.140642 -0.191783,0.230141 -0.127856,0.06393 -0.268498,0.03836 -0.140642,-0.02557 -0.242926,-0.153427 -0.31964,-0.409139 -0.779922,-0.613709 -0.447496,-0.217355 -1.048419,-0.217355 -0.805493,0 -1.252994,0.345211 -0.44749,0.345211 -0.44749,0.831064 0,0.332426 0.179,0.588138 0.19178,0.242926 0.613706,0.421924 0.421925,0.166213 1.125133,0.268498 0.95892,0.127856 1.508701,0.43471 0.562566,0.306855 0.792707,0.715994 0.242926,0.396354 0.242926,0.856635 0,0.600923 -0.383568,1.048419 -0.383568,0.447496 -1.010062,0.690423 -0.626494,0.23014 -1.355274,0.23014 z" />
        <path
           id="path1019"
           style="font-style:normal;font-variant:normal;font-weight:300;font-stretch:normal;font-family:Comfortaa;-inkscape-font-specification:'Comfortaa Light';text-align:center;text-anchor:middle;fill:#4e5153;fill-opacity:1;stroke-width:0.31964"
           d="m -93.967488,87.056434 q -0.166212,0 -0.281283,-0.102285 -0.102285,-0.11507 -0.102285,-0.281283 v -6.226587 q 0,-0.178999 0.102285,-0.281283 0.115071,-0.102285 0.281283,-0.102285 0.178999,0 0.281284,0.102285 0.102284,0.102284 0.102284,0.281283 v 6.226587 q 0,0.166213 -0.102284,0.281283 -0.102285,0.102285 -0.281284,0.102285 z m -0.01278,-8.464067 q -0.242927,0 -0.421925,-0.166213 -0.166213,-0.178998 -0.166213,-0.43471 0,-0.294069 0.178999,-0.434711 0.191784,-0.153427 0.421924,-0.153427 0.217356,0 0.396354,0.153427 0.191784,0.140642 0.191784,0.434711 0,0.255712 -0.178998,0.43471 -0.166213,0.166213 -0.421925,0.166213 z" />
        <path
           id="path1021"
           style="font-style:normal;font-variant:normal;font-weight:300;font-stretch:normal;font-family:Comfortaa;-inkscape-font-specification:'Comfortaa Light';text-align:center;text-anchor:middle;fill:#4e5153;fill-opacity:1;stroke-width:0.31964"
           d="m -88.65767,87.133147 q -0.664851,0 -1.39363,-0.242926 -0.728779,-0.242926 -1.214632,-0.818278 -0.102285,-0.127856 -0.0895,-0.268498 0.02557,-0.153427 0.166213,-0.255712 0.127856,-0.0895 0.268497,-0.06393 0.153427,0.02557 0.242927,0.140642 0.370782,0.43471 0.894992,0.613709 0.536995,0.166212 1.163489,0.166212 1.07399,0 1.521486,-0.383568 0.447496,-0.383568 0.447496,-0.894992 0,-0.498638 -0.485852,-0.818278 -0.473068,-0.332426 -1.470344,-0.473067 -1.27856,-0.178999 -1.892269,-0.690423 -0.613709,-0.511424 -0.613709,-1.18906 0,-0.63928 0.31964,-1.073991 0.31964,-0.447496 0.869421,-0.664851 0.562566,-0.230141 1.27856,-0.230141 0.869421,0 1.470344,0.31964 0.600923,0.306855 0.971705,0.831064 0.102285,0.127856 0.06393,0.281283 -0.02557,0.140642 -0.191784,0.230141 -0.127856,0.06393 -0.268497,0.03836 -0.140642,-0.02557 -0.242927,-0.153427 -0.31964,-0.409139 -0.779921,-0.613709 -0.447496,-0.217355 -1.048419,-0.217355 -0.805493,0 -1.252989,0.345211 -0.447496,0.345211 -0.447496,0.831064 0,0.332426 0.178998,0.588138 0.191784,0.242926 0.613709,0.421924 0.421925,0.166213 1.125133,0.268498 0.95892,0.127856 1.508701,0.43471 0.562566,0.306855 0.792707,0.715994 0.242926,0.396354 0.242926,0.856635 0,0.600923 -0.383568,1.048419 -0.383568,0.447496 -1.010062,0.690423 -0.626495,0.23014 -1.355274,0.23014 z" />
        <path
           id="path1023"
           style="font-style:normal;font-variant:normal;font-weight:300;font-stretch:normal;font-family:Comfortaa;-inkscape-font-specification:'Comfortaa Light';text-align:center;text-anchor:middle;fill:#4e5153;fill-opacity:1;stroke-width:0.31964"
           d="m -81.329524,87.056434 q -0.703208,-0.01279 -1.252989,-0.31964 -0.549781,-0.31964 -0.856635,-0.869421 -0.306854,-0.562566 -0.306854,-1.265774 V 78.23437 q 0,-0.178998 0.102284,-0.281283 0.115071,-0.115071 0.281284,-0.115071 0.178998,0 0.281283,0.115071 0.11507,0.102285 0.11507,0.281283 v 6.367229 q 0,0.741565 0.460282,1.214632 0.460281,0.460281 1.18906,0.460281 h 0.281284 q 0.178998,0 0.281283,0.115071 0.11507,0.102284 0.11507,0.281283 0,0.166213 -0.11507,0.281283 -0.102285,0.102285 -0.281283,0.102285 z m -3.413755,-6.047589 q -0.153427,0 -0.255712,-0.0895 -0.0895,-0.102285 -0.0895,-0.255712 0,-0.153427 0.0895,-0.242926 0.102285,-0.102285 0.255712,-0.102285 h 3.464897 q 0.153427,0 0.242927,0.102285 0.102284,0.0895 0.102284,0.242926 0,0.153427 -0.102284,0.255712 -0.0895,0.0895 -0.242927,0.0895 z" />
        <path
           id="path1025"
           style="font-style:normal;font-variant:normal;font-weight:300;font-stretch:normal;font-family:Comfortaa;-inkscape-font-specification:'Comfortaa Light';text-align:center;text-anchor:middle;fill:#4e5153;fill-opacity:1;stroke-width:0.31964"
           d="m -75.852892,87.133147 q -1.022848,0 -1.841126,-0.460281 -0.805493,-0.473067 -1.27856,-1.27856 -0.460281,-0.818278 -0.460281,-1.828341 0,-1.022848 0.460281,-1.828341 0.473067,-0.818278 1.27856,-1.27856 0.818278,-0.473067 1.841126,-0.473067 1.022848,0 1.828341,0.473067 0.805493,0.460282 1.265775,1.27856 0.473067,0.805493 0.473067,1.828341 0,1.010063 -0.473067,1.828341 -0.460282,0.805493 -1.265775,1.27856 -0.805493,0.460281 -1.828341,0.460281 z m 0,-0.715993 q 0.805493,0 1.431988,-0.370782 0.63928,-0.383568 0.997276,-1.022848 0.370783,-0.652066 0.370783,-1.470344 0,-0.805493 -0.370783,-1.444773 -0.357996,-0.652066 -0.997276,-1.022848 -0.626495,-0.383568 -1.431988,-0.383568 -0.792707,0 -1.431987,0.383568 -0.63928,0.370782 -1.010062,1.022848 -0.370782,0.63928 -0.370782,1.457558 0,0.805493 0.370782,1.457559 0.370782,0.63928 1.010062,1.022848 0.63928,0.370782 1.431987,0.370782 z" />
        <path
           id="path1027"
           style="font-style:normal;font-variant:normal;font-weight:300;font-stretch:normal;font-family:Comfortaa;-inkscape-font-specification:'Comfortaa Light';text-align:center;text-anchor:middle;fill:#4e5153;fill-opacity:1;stroke-width:0.31964"
           d="m -70.103367,82.786044 q 0.07671,-0.818279 0.447496,-1.444773 0.370782,-0.63928 0.95892,-0.997277 0.588137,-0.357997 1.304131,-0.357997 0.485853,0 0.75435,0.115071 0.268498,0.11507 0.20457,0.409139 -0.03836,0.191784 -0.178998,0.230141 -0.140642,0.03836 -0.345212,0.01279 -0.191784,-0.03836 -0.43471,-0.03836 -0.63928,0 -1.137918,0.268498 -0.498639,0.268498 -0.779922,0.741565 -0.281283,0.460281 -0.281283,1.061205 z m 0.127856,4.27039 q -0.166213,0 -0.281283,-0.102285 -0.102285,-0.11507 -0.102285,-0.281283 v -6.226587 q 0,-0.178999 0.102285,-0.281283 0.11507,-0.102285 0.281283,-0.102285 0.178998,0 0.281283,0.102285 0.102285,0.102284 0.102285,0.281283 v 6.226587 q 0,0.166213 -0.102285,0.281283 -0.102285,0.102285 -0.281283,0.102285 z" />
        <path
           id="path1029"
           style="font-style:normal;font-variant:normal;font-weight:300;font-stretch:normal;font-family:Comfortaa;-inkscape-font-specification:'Comfortaa Light';text-align:center;text-anchor:middle;fill:#4e5153;fill-opacity:1;stroke-width:0.31964"
           d="m -62.387257,87.133147 q -0.664851,0 -1.393631,-0.242926 -0.728779,-0.242926 -1.214632,-0.818278 -0.102284,-0.127856 -0.0895,-0.268498 0.02557,-0.153427 0.166213,-0.255712 0.127856,-0.0895 0.268498,-0.06393 0.153427,0.02557 0.242926,0.140642 0.370782,0.43471 0.894992,0.613709 0.536995,0.166212 1.16349,0.166212 1.07399,0 1.521486,-0.383568 0.447496,-0.383568 0.447496,-0.894992 0,-0.498638 -0.485853,-0.818278 -0.473067,-0.332426 -1.470344,-0.473067 -1.27856,-0.178999 -1.892269,-0.690423 -0.613708,-0.511424 -0.613708,-1.18906 0,-0.63928 0.31964,-1.073991 0.31964,-0.447496 0.86942,-0.664851 0.562567,-0.230141 1.27856,-0.230141 0.869421,0 1.470344,0.31964 0.600924,0.306855 0.971706,0.831064 0.102285,0.127856 0.06393,0.281283 -0.02557,0.140642 -0.191784,0.230141 -0.127856,0.06393 -0.268498,0.03836 -0.140641,-0.02557 -0.242926,-0.153427 -0.31964,-0.409139 -0.779922,-0.613709 -0.447496,-0.217355 -1.048419,-0.217355 -0.805493,0 -1.252989,0.345211 -0.447496,0.345211 -0.447496,0.831064 0,0.332426 0.178999,0.588138 0.191784,0.242926 0.613709,0.421924 0.421924,0.166213 1.125132,0.268498 0.95892,0.127856 1.508701,0.43471 0.562566,0.306855 0.792707,0.715994 0.242927,0.396354 0.242927,0.856635 0,0.600923 -0.383568,1.048419 -0.383568,0.447496 -1.010063,0.690423 -0.626494,0.23014 -1.355273,0.23014 z" />
      </g>
      <path
         style="fill:none;stroke:#fed700;stroke-width:1.0795;stroke-linecap:round;stroke-linejoin:round;stroke-miterlimit:4;stroke-dasharray:none;stroke-opacity:1"
         d="m -130.94411,11.771101 v 8.880544 l 3.55222,2.050876 -5.67671,3.277454 6.15262,3.55222 -6.15262,3.552217 6.15262,3.55222 -6.15262,3.55222 3.07631,1.77611 v 8.88055"
         id="path1607" />
      <path
         id="path1607-2"
         d="m -107.46623,11.7711 v 8.880545 l 3.55221,2.050875 -5.67671,3.277455 6.15262,3.552217 -6.15262,3.55222 6.15262,3.55222 -6.15262,3.55222 3.07631,1.77611 v 8.88055"
         style="fill:none;stroke:#fed700;stroke-width:1.0795;stroke-linecap:round;stroke-linejoin:round;stroke-miterlimit:4;stroke-dasharray:none;stroke-opacity:1" />
      <path
         style="fill:none;stroke:#fed700;stroke-width:1.0795;stroke-linecap:round;stroke-linejoin:round;stroke-miterlimit:4;stroke-dasharray:none;stroke-opacity:1"
         d="m -51.147024,11.7711 v 8.880545 l 3.552214,2.050876 -5.676712,3.277454 6.152625,3.552217 -6.152625,3.55222 6.152625,3.55222 -6.152625,3.55222 3.076311,1.77611 v 8.88055"
         id="path1607-2-0" />
      <path
         id="path1690"
         d="m -130.94411,11.771102 h 40.587497"
         style="fill:none;stroke:#fed700;stroke-width:0.805827;stroke-linecap:round;stroke-linejoin:miter;stroke-miterlimit:4;stroke-dasharray:none;stroke-opacity:1" />
      <path
         style="fill:none;stroke:#fed700;stroke-width:0.804559px;stroke-linecap:round;stroke-linejoin:miter;stroke-opacity:1"
         d="M -129.99229,50.845512 H -89.4048"
         id="path1690-2" />
      <circle
         r="1.2038528"
         cy="11.771102"
         cx="-130.94411"
         id="path1707"
         style="fill:#fed700;fill-opacity:1;stroke:#fed700;stroke-width:0.805824;stroke-linecap:round;stroke-linejoin:round;stroke-miterlimit:4;stroke-dasharray:none;stroke-opacity:1" />
      <circle
         style="fill:#fed700;fill-opacity:1;stroke:#fed700;stroke-width:0.805824;stroke-linecap:round;stroke-linejoin:round;stroke-miterlimit:4;stroke-dasharray:none;stroke-opacity:1"
         id="path1707-9"
         cx="-90.458199"
         cy="11.943803"
         r="1.2038528" />
      <circle
         style="fill:#fed700;fill-opacity:1;stroke:#fed700;stroke-width:0.805824;stroke-linecap:round;stroke-linejoin:round;stroke-miterlimit:4;stroke-dasharray:none;stroke-opacity:1"
         id="path1707-1"
         cx="-130.00345"
         cy="50.665237"
         r="1.2038528" />
      <circle
         r="1.2038528"
         cy="50.837936"
         cx="-89.517548"
         id="path1707-9-6"
         style="fill:#fed700;fill-opacity:1;stroke:#fed700;stroke-width:0.805824;stroke-linecap:round;stroke-linejoin:round;stroke-miterlimit:4;stroke-dasharray:none;stroke-opacity:1" />
      <circle
         r="1.2038528"
         cy="11.799039"
         cx="-107.48788"
         id="path1707-9-5"
         style="fill:#fed700;fill-opacity:1;stroke:#fed700;stroke-width:0.805824;stroke-linecap:round;stroke-linejoin:round;stroke-miterlimit:4;stroke-dasharray:none;stroke-opacity:1" />
      <circle
         style="fill:#fed700;fill-opacity:1;stroke:#fed700;stroke-width:0.805824;stroke-linecap:round;stroke-linejoin:round;stroke-miterlimit:4;stroke-dasharray:none;stroke-opacity:1"
         id="path1707-9-6-5"
         cx="-106.54723"
         cy="50.693169"
         r="1.2038528" />
    </g>
    <rect
       style="fill:none;fill-opacity:1;stroke:none;stroke-width:0.197656;stroke-linecap:round;stroke-linejoin:round;stroke-miterlimit:4;stroke-dasharray:none;stroke-opacity:1"
       id="rect846-0"
       width="172.98044"
       height="92.524414"
       x="0.93217969"
       y="1.7948973"
       ry="6.6088867" />
    <rect
       ry="6.6088867"
       y="93.374374"
       x="-176.58398"
       height="92.524414"
       width="172.98045"
       id="rect846-0-6"
       style="fill:none;fill-opacity:1;stroke:none;stroke-width:0.197656;stroke-linecap:round;stroke-linejoin:round;stroke-miterlimit:4;stroke-dasharray:none;stroke-opacity:1" />
    <rect
       ry="6.6088867"
       y="-106.44927"
       x="93.674706"
       height="92.524414"
       width="172.98045"
       id="rect846-0-4"
       style="fill:none;fill-opacity:1;stroke:none;stroke-width:0.197656;stroke-linecap:round;stroke-linejoin:round;stroke-miterlimit:4;stroke-dasharray:none;stroke-opacity:1" />
    <rect
       ry="6.6088867"
       y="-91.674454"
       x="-176.58398"
       height="92.524414"
       width="172.98045"
       id="rect846-0-0"
       style="fill:none;fill-opacity:1;stroke:none;stroke-width:0.197656;stroke-linecap:round;stroke-linejoin:round;stroke-miterlimit:4;stroke-dasharray:none;stroke-opacity:1" />
  </g>
</svg>
