<?xml version="1.0" encoding="UTF-8" standalone="no"?>
<svg
   xmlns:dc="http://purl.org/dc/elements/1.1/"
   xmlns:cc="http://creativecommons.org/ns#"
   xmlns:rdf="http://www.w3.org/1999/02/22-rdf-syntax-ns#"
   xmlns:svg="http://www.w3.org/2000/svg"
   xmlns="http://www.w3.org/2000/svg"
   xmlns:sodipodi="http://sodipodi.sourceforge.net/DTD/sodipodi-0.dtd"
   xmlns:inkscape="http://www.inkscape.org/namespaces/inkscape"
   sodipodi:docname="Voltage-Divider.svg"
   inkscape:version="1.0 (4035a4fb49, 2020-05-01)"
   id="svg8"
   version="1.1"
   viewBox="0 0 174.625 95.250003"
   height="360"
   width="660"
   inkscape:export-filename="C:\Users\Corey\Documents\KoBee\Website Assets\Calculator Assets\LED-Series-Resistor.png"
   inkscape:export-xdpi="96"
   inkscape:export-ydpi="96">
  <defs
     id="defs2">
    <marker
       inkscape:isstock="true"
       style="overflow:visible;"
       id="marker3841"
       refX="0.0"
       refY="0.0"
       orient="auto"
       inkscape:stockid="Arrow1Mend">
      <path
         transform="scale(0.4) rotate(180) translate(10,0)"
         style="fill-rule:evenodd;stroke:#4e5153;stroke-width:1pt;stroke-opacity:1;fill:#4e5153;fill-opacity:1"
         d="M 0.0,0.0 L 5.0,-5.0 L -12.5,0.0 L 5.0,5.0 L 0.0,0.0 z "
         id="path3839" />
    </marker>
    <marker
       inkscape:isstock="true"
       style="overflow:visible;"
       id="marker3831"
       refX="0.0"
       refY="0.0"
       orient="auto"
       inkscape:stockid="Arrow1Mend">
      <path
         transform="scale(0.4) rotate(180) translate(10,0)"
         style="fill-rule:evenodd;stroke:#4e5153;stroke-width:1pt;stroke-opacity:1;fill:#4e5153;fill-opacity:1"
         d="M 0.0,0.0 L 5.0,-5.0 L -12.5,0.0 L 5.0,5.0 L 0.0,0.0 z "
         id="path3829" />
    </marker>
    <marker
       inkscape:stockid="TriangleOutL"
       orient="auto"
       refY="0.0"
       refX="0.0"
       id="TriangleOutL"
       style="overflow:visible"
       inkscape:isstock="true">
      <path
         id="path2502"
         d="M 5.77,0.0 L -2.88,5.0 L -2.88,-5.0 L 5.77,0.0 z "
         style="fill-rule:evenodd;stroke:#000000;stroke-width:1pt;stroke-opacity:1;fill:#000000;fill-opacity:1"
         transform="scale(0.8)" />
    </marker>
    <marker
       inkscape:stockid="Arrow2Lend"
       orient="auto"
       refY="0.0"
       refX="0.0"
       id="marker2926"
       style="overflow:visible;"
       inkscape:isstock="true">
      <path
         id="path2924"
         style="fill-rule:evenodd;stroke-width:0.625;stroke-linejoin:round;stroke:#000000;stroke-opacity:1;fill:#000000;fill-opacity:1"
         d="M 8.7185878,4.0337352 L -2.2072895,0.016013256 L 8.7185884,-4.0017078 C 6.9730900,-1.6296469 6.9831476,1.6157441 8.7185878,4.0337352 z "
         transform="scale(1.1) rotate(180) translate(1,0)" />
    </marker>
    <marker
       inkscape:stockid="Arrow2Lend"
       orient="auto"
       refY="0.0"
       refX="0.0"
       id="marker2868"
       style="overflow:visible;"
       inkscape:isstock="true">
      <path
         id="path2866"
         style="fill-rule:evenodd;stroke-width:0.625;stroke-linejoin:round;stroke:#000000;stroke-opacity:1;fill:#000000;fill-opacity:1"
         d="M 8.7185878,4.0337352 L -2.2072895,0.016013256 L 8.7185884,-4.0017078 C 6.9730900,-1.6296469 6.9831476,1.6157441 8.7185878,4.0337352 z "
         transform="scale(1.1) rotate(180) translate(1,0)" />
    </marker>
    <marker
       inkscape:stockid="Arrow2Lend"
       orient="auto"
       refY="0.0"
       refX="0.0"
       id="Arrow2Lend"
       style="overflow:visible;"
       inkscape:isstock="true">
      <path
         id="path2381"
         style="fill-rule:evenodd;stroke-width:0.625;stroke-linejoin:round;stroke:#000000;stroke-opacity:1;fill:#000000;fill-opacity:1"
         d="M 8.7185878,4.0337352 L -2.2072895,0.016013256 L 8.7185884,-4.0017078 C 6.9730900,-1.6296469 6.9831476,1.6157441 8.7185878,4.0337352 z "
         transform="scale(1.1) rotate(180) translate(1,0)" />
    </marker>
    <marker
       inkscape:stockid="Arrow1Lend"
       orient="auto"
       refY="0.0"
       refX="0.0"
       id="Arrow1Lend"
       style="overflow:visible;"
       inkscape:isstock="true">
      <path
         id="path2363"
         d="M 0.0,0.0 L 5.0,-5.0 L -12.5,0.0 L 5.0,5.0 L 0.0,0.0 z "
         style="fill-rule:evenodd;stroke:#000000;stroke-width:1pt;stroke-opacity:1;fill:#000000;fill-opacity:1"
         transform="scale(0.8) rotate(180) translate(12.5,0)" />
    </marker>
    <marker
       inkscape:stockid="Arrow1Lstart"
       orient="auto"
       refY="0.0"
       refX="0.0"
       id="Arrow1Lstart"
       style="overflow:visible"
       inkscape:isstock="true">
      <path
         id="path2360"
         d="M 0.0,0.0 L 5.0,-5.0 L -12.5,0.0 L 5.0,5.0 L 0.0,0.0 z "
         style="fill-rule:evenodd;stroke:#000000;stroke-width:1pt;stroke-opacity:1;fill:#000000;fill-opacity:1"
         transform="scale(0.8) translate(12.5,0)" />
    </marker>
    <marker
       inkscape:stockid="TriangleInL"
       orient="auto"
       refY="0.0"
       refX="0.0"
       id="TriangleInL"
       style="overflow:visible"
       inkscape:isstock="true">
      <path
         id="path2493"
         d="M 5.77,0.0 L -2.88,5.0 L -2.88,-5.0 L 5.77,0.0 z "
         style="fill-rule:evenodd;stroke:#000000;stroke-width:1pt;stroke-opacity:1;fill:#000000;fill-opacity:1"
         transform="scale(-0.8)" />
    </marker>
    <marker
       inkscape:stockid="Arrow2Mstart"
       orient="auto"
       refY="0.0"
       refX="0.0"
       id="Arrow2Mstart"
       style="overflow:visible"
       inkscape:isstock="true">
      <path
         id="path2384"
         style="fill-rule:evenodd;stroke-width:0.625;stroke-linejoin:round;stroke:#000000;stroke-opacity:1;fill:#000000;fill-opacity:1"
         d="M 8.7185878,4.0337352 L -2.2072895,0.016013256 L 8.7185884,-4.0017078 C 6.9730900,-1.6296469 6.9831476,1.6157441 8.7185878,4.0337352 z "
         transform="scale(0.6) translate(0,0)" />
    </marker>
    <marker
       inkscape:isstock="true"
       style="overflow:visible"
       id="TriangleInL-7"
       refX="0"
       refY="0"
       orient="auto"
       inkscape:stockid="TriangleInL">
      <path
         transform="scale(-0.8)"
         style="fill:#000000;fill-opacity:1;fill-rule:evenodd;stroke:#000000;stroke-width:1pt;stroke-opacity:1"
         d="M 5.77,0 -2.88,5 V -5 Z"
         id="path2493-4" />
    </marker>
    <marker
       inkscape:isstock="true"
       style="overflow:visible"
       id="Arrow1Lstart-8"
       refX="0"
       refY="0"
       orient="auto"
       inkscape:stockid="Arrow1Lstart">
      <path
         transform="matrix(0.8,0,0,0.8,10,0)"
         style="fill:#000000;fill-opacity:1;fill-rule:evenodd;stroke:#000000;stroke-width:1pt;stroke-opacity:1"
         d="M 0,0 5,-5 -12.5,0 5,5 Z"
         id="path2360-1" />
    </marker>
    <marker
       inkscape:isstock="true"
       style="overflow:visible"
       id="TriangleOutL-0"
       refX="0"
       refY="0"
       orient="auto"
       inkscape:stockid="TriangleOutL">
      <path
         transform="scale(0.8)"
         style="fill:#000000;fill-opacity:1;fill-rule:evenodd;stroke:#000000;stroke-width:1pt;stroke-opacity:1"
         d="M 5.77,0 -2.88,5 V -5 Z"
         id="path2502-7" />
    </marker>
    <marker
       inkscape:stockid="Arrow1Mend"
       orient="auto"
       refY="0"
       refX="0"
       id="marker3831-4"
       style="overflow:visible"
       inkscape:isstock="true">
      <path
         id="path3829-7"
         d="M 0,0 5,-5 -12.5,0 5,5 Z"
         style="fill:#4e5153;fill-opacity:1;fill-rule:evenodd;stroke:#4e5153;stroke-width:1pt;stroke-opacity:1"
         transform="matrix(-0.4,0,0,-0.4,-4,0)" />
    </marker>
    <marker
       inkscape:stockid="Arrow1Mend"
       orient="auto"
       refY="0"
       refX="0"
       id="marker3841-2"
       style="overflow:visible"
       inkscape:isstock="true">
      <path
         id="path3839-2"
         d="M 0,0 5,-5 -12.5,0 5,5 Z"
         style="fill:#4e5153;fill-opacity:1;fill-rule:evenodd;stroke:#4e5153;stroke-width:1pt;stroke-opacity:1"
         transform="matrix(-0.4,0,0,-0.4,-4,0)" />
    </marker>
  </defs>
  <sodipodi:namedview
     inkscape:window-maximized="1"
     inkscape:window-y="477"
     inkscape:window-x="-8"
     inkscape:window-height="1377"
     inkscape:window-width="2560"
     units="px"
     showgrid="false"
     inkscape:document-rotation="0"
     inkscape:current-layer="layer1"
     inkscape:document-units="mm"
     inkscape:cy="182.14186"
     inkscape:cx="137.5306"
     inkscape:zoom="0.98994949"
     inkscape:pageshadow="2"
     inkscape:pageopacity="0.0"
     borderopacity="1.0"
     bordercolor="#666666"
     pagecolor="#ffffff"
     id="base"
     showguides="true" />
  <metadata
     id="metadata5">
    <rdf:RDF>
      <cc:Work
         rdf:about="">
        <dc:format>image/svg+xml</dc:format>
        <dc:type
           rdf:resource="http://purl.org/dc/dcmitype/StillImage" />
        <dc:title />
      </cc:Work>
    </rdf:RDF>
  </metadata>
  <g
     id="layer1"
     inkscape:groupmode="layer"
     inkscape:label="Layer 1">
    <rect
       ry="6.6088867"
       y="0.84995687"
       x="-176.58397"
       height="92.524414"
       width="172.98044"
       id="rect846"
       style="fill:none;fill-opacity:1;stroke:none;stroke-width:0.197656;stroke-linecap:round;stroke-linejoin:round;stroke-miterlimit:4;stroke-dasharray:none;stroke-opacity:1" />
    <rect
       style="fill:none;fill-opacity:1;stroke:none;stroke-width:0.197656;stroke-linecap:round;stroke-linejoin:round;stroke-miterlimit:4;stroke-dasharray:none;stroke-opacity:1"
       id="rect846-0"
       width="172.98044"
       height="92.524414"
       x="0.93217969"
       y="1.7948973"
       ry="6.6088867" />
    <rect
       ry="6.6088867"
       y="93.374374"
       x="-176.58398"
       height="92.524414"
       width="172.98045"
       id="rect846-0-6"
       style="fill:none;fill-opacity:1;stroke:none;stroke-width:0.197656;stroke-linecap:round;stroke-linejoin:round;stroke-miterlimit:4;stroke-dasharray:none;stroke-opacity:1" />
    <rect
       ry="6.6088867"
       y="-106.44927"
       x="93.674706"
       height="92.524414"
       width="172.98045"
       id="rect846-0-4"
       style="fill:none;fill-opacity:1;stroke:none;stroke-width:0.197656;stroke-linecap:round;stroke-linejoin:round;stroke-miterlimit:4;stroke-dasharray:none;stroke-opacity:1" />
    <g
       style="font-style:normal;font-weight:normal;font-size:12.7856px;line-height:1.25;font-family:sans-serif;fill:#4e5153;fill-opacity:1;stroke:none;stroke-width:0.31964"
       id="text844-8-04"
       aria-label="Voltage Divider">
      <path
         id="path1075"
         style="font-style:normal;font-variant:normal;font-weight:300;font-stretch:normal;font-family:Comfortaa;-inkscape-font-specification:'Comfortaa Light';text-align:center;text-anchor:middle;fill:#4e5153;fill-opacity:1;stroke-width:0.31964"
         d="m 37.218539,84.994537 q -0.242927,0 -0.345211,-0.242926 l -3.83568,-9.116133 q -0.127856,-0.294068 -0.01279,-0.460281 0.127856,-0.166213 0.345211,-0.166213 0.242927,0 0.370783,0.268498 l 3.682252,8.809278 h -0.370782 l 3.63111,-8.758136 q 0.06393,-0.178998 0.166213,-0.242926 0.102285,-0.07671 0.255712,-0.07671 0.230141,0 0.306855,0.191784 0.07671,0.191784 -0.02557,0.43471 l -3.822894,9.116133 q -0.06393,0.140642 -0.166213,0.191784 -0.0895,0.05114 -0.178998,0.05114 z" />
      <path
         id="path1077"
         style="font-style:normal;font-variant:normal;font-weight:300;font-stretch:normal;font-family:Comfortaa;-inkscape-font-specification:'Comfortaa Light';text-align:center;text-anchor:middle;fill:#4e5153;fill-opacity:1;stroke-width:0.31964"
         d="m 44.631589,85.071251 q -1.022848,0 -1.841126,-0.460282 -0.805493,-0.473067 -1.27856,-1.27856 -0.460281,-0.818278 -0.460281,-1.82834 0,-1.022848 0.460281,-1.828341 0.473067,-0.818279 1.27856,-1.27856 0.818278,-0.473067 1.841126,-0.473067 1.022848,0 1.828341,0.473067 0.805493,0.460281 1.265775,1.27856 0.473067,0.805493 0.473067,1.828341 0,1.010062 -0.473067,1.82834 -0.460282,0.805493 -1.265775,1.27856 -0.805493,0.460282 -1.828341,0.460282 z m 0,-0.715994 q 0.805493,0 1.431988,-0.370782 0.63928,-0.383568 0.997276,-1.022848 0.370783,-0.652066 0.370783,-1.470344 0,-0.805493 -0.370783,-1.444773 -0.357996,-0.652065 -0.997276,-1.022848 -0.626495,-0.383568 -1.431988,-0.383568 -0.792707,0 -1.431987,0.383568 -0.63928,0.370783 -1.010062,1.022848 -0.370783,0.63928 -0.370783,1.457559 0,0.805492 0.370783,1.457558 0.370782,0.63928 1.010062,1.022848 0.63928,0.370782 1.431987,0.370782 z" />
      <path
         id="path1079"
         style="font-style:normal;font-variant:normal;font-weight:300;font-stretch:normal;font-family:Comfortaa;-inkscape-font-specification:'Comfortaa Light';text-align:center;text-anchor:middle;fill:#4e5153;fill-opacity:1;stroke-width:0.31964"
         d="m 51.531819,84.994537 q -0.485853,0 -0.869421,-0.268497 -0.370783,-0.268498 -0.588138,-0.741565 -0.204569,-0.473067 -0.204569,-1.099562 v -7.492361 q 0,-0.178998 0.102285,-0.281283 0.11507,-0.102285 0.281283,-0.102285 0.178998,0 0.281283,0.102285 0.102285,0.102285 0.102285,0.281283 v 7.492361 q 0,0.588138 0.242926,0.971706 0.255712,0.370782 0.652066,0.370782 h 0.31964 q 0.140641,0 0.23014,0.102285 0.0895,0.102285 0.0895,0.281283 0,0.166213 -0.102285,0.281284 -0.102285,0.102284 -0.281283,0.102284 z" />
      <path
         id="path1081"
         style="font-style:normal;font-variant:normal;font-weight:300;font-stretch:normal;font-family:Comfortaa;-inkscape-font-specification:'Comfortaa Light';text-align:center;text-anchor:middle;fill:#4e5153;fill-opacity:1;stroke-width:0.31964"
         d="m 56.435494,84.994537 q -0.703208,-0.01278 -1.252988,-0.31964 -0.549781,-0.31964 -0.856636,-0.86942 -0.306854,-0.562567 -0.306854,-1.265775 v -6.367228 q 0,-0.178999 0.102285,-0.281284 0.11507,-0.11507 0.281283,-0.11507 0.178998,0 0.281283,0.11507 0.115071,0.102285 0.115071,0.281284 v 6.367228 q 0,0.741565 0.460281,1.214632 0.460282,0.460282 1.189061,0.460282 h 0.281283 q 0.178999,0 0.281283,0.11507 0.115071,0.102285 0.115071,0.281283 0,0.166213 -0.115071,0.281284 -0.102284,0.102284 -0.281283,0.102284 z m -3.413755,-6.047588 q -0.153427,0 -0.255712,-0.0895 -0.0895,-0.102284 -0.0895,-0.255712 0,-0.153427 0.0895,-0.242926 0.102285,-0.102285 0.255712,-0.102285 h 3.464898 q 0.153427,0 0.242926,0.102285 0.102285,0.0895 0.102285,0.242926 0,0.153428 -0.102285,0.255712 -0.0895,0.0895 -0.242926,0.0895 z" />
      <path
         id="path1083"
         style="font-style:normal;font-variant:normal;font-weight:300;font-stretch:normal;font-family:Comfortaa;-inkscape-font-specification:'Comfortaa Light';text-align:center;text-anchor:middle;fill:#4e5153;fill-opacity:1;stroke-width:0.31964"
         d="m 61.912127,85.071251 q -1.022848,0 -1.841126,-0.460282 -0.805493,-0.473067 -1.27856,-1.27856 -0.460282,-0.818278 -0.460282,-1.82834 0,-1.022848 0.460282,-1.828341 0.473067,-0.818279 1.27856,-1.27856 0.818278,-0.473067 1.841126,-0.473067 1.022848,0 1.828341,0.473067 0.805493,0.460281 1.265774,1.27856 0.473067,0.805493 0.473067,1.828341 l -0.31964,0.511424 q 0,0.86942 -0.43471,1.559843 -0.421925,0.690422 -1.150704,1.099561 -0.728779,0.396354 -1.662128,0.396354 z m 0,-0.715994 q 0.805493,0 1.431987,-0.370782 0.63928,-0.383568 0.997277,-1.022848 0.370782,-0.652066 0.370782,-1.457558 0,-0.818279 -0.370782,-1.457559 -0.357997,-0.652065 -0.997277,-1.022848 -0.626494,-0.383568 -1.431987,-0.383568 -0.792707,0 -1.431987,0.383568 -0.63928,0.370783 -1.010063,1.022848 -0.370782,0.63928 -0.370782,1.457559 0,0.805492 0.370782,1.457558 0.370783,0.63928 1.010063,1.022848 0.63928,0.370782 1.431987,0.370782 z m 3.1964,0.63928 q -0.178998,0 -0.294069,-0.102284 -0.102285,-0.115071 -0.102285,-0.281284 V 82.271205 L 64.9551,81.504069 h 0.524209 v 3.1069 q 0,0.166213 -0.102284,0.281284 -0.102285,0.102284 -0.268498,0.102284 z" />
      <path
         id="path1085"
         style="font-style:normal;font-variant:normal;font-weight:300;font-stretch:normal;font-family:Comfortaa;-inkscape-font-specification:'Comfortaa Light';text-align:center;text-anchor:middle;fill:#4e5153;fill-opacity:1;stroke-width:0.31964"
         d="m 70.602339,85.071251 q -1.048419,0 -1.853912,-0.460282 -0.805492,-0.460281 -1.265774,-1.265774 -0.460282,-0.805493 -0.460282,-1.841126 0,-1.04842 0.473068,-1.853912 0.473067,-0.805493 1.27856,-1.265775 0.818278,-0.460281 1.82834,-0.460281 1.048419,0 1.841127,0.460281 0.805492,0.460282 1.265774,1.265775 0.460282,0.805492 0.460282,1.853912 l -0.447496,0.511424 q 0,0.894992 -0.396354,1.585414 -0.396354,0.690422 -1.099562,1.086776 -0.703208,0.383568 -1.623771,0.383568 z m 0.05114,2.595477 q -1.061205,0 -1.815555,-0.396354 -0.741565,-0.396353 -1.227418,-1.010062 -0.102285,-0.127856 -0.102285,-0.268498 0,-0.140641 0.127856,-0.242926 0.127856,-0.0895 0.294069,-0.06393 0.178998,0.02557 0.268498,0.166213 0.396353,0.473067 1.010062,0.779921 0.613709,0.31964 1.444773,0.31964 0.792707,0 1.406416,-0.383568 0.626494,-0.383568 0.984491,-1.061205 0.357997,-0.664851 0.357997,-1.495915 v -2.03291 l 0.345211,-0.473067 h 0.421925 v 2.505977 q 0,1.035634 -0.460282,1.866698 -0.460282,0.831064 -1.252989,1.304131 -0.792707,0.485853 -1.802769,0.485853 z m -0.05114,-3.311471 q 0.818279,0 1.444773,-0.357996 0.63928,-0.370783 0.997277,-1.010063 0.357997,-0.652065 0.357997,-1.483129 0,-0.84385 -0.357997,-1.48313 -0.357997,-0.652066 -0.997277,-1.010062 -0.626494,-0.370783 -1.444773,-0.370783 -0.818278,0 -1.457558,0.370783 -0.63928,0.357996 -0.997277,1.010062 -0.357997,0.63928 -0.357997,1.48313 0,0.831064 0.357997,1.483129 0.357997,0.63928 0.997277,1.010063 0.63928,0.357996 1.457558,0.357996 z" />
      <path
         id="path1087"
         style="font-style:normal;font-variant:normal;font-weight:300;font-stretch:normal;font-family:Comfortaa;-inkscape-font-specification:'Comfortaa Light';text-align:center;text-anchor:middle;fill:#4e5153;fill-opacity:1;stroke-width:0.31964"
         d="m 79.190267,85.058465 q -1.010063,0 -1.80277,-0.447496 -0.779921,-0.460281 -1.227417,-1.265774 -0.447496,-0.805493 -0.447496,-1.841126 0,-1.04842 0.421924,-1.841127 0.421925,-0.805493 1.16349,-1.265774 0.741565,-0.460282 1.700485,-0.460282 0.946134,0 1.674913,0.447496 0.728779,0.434711 1.137919,1.214632 0.409139,0.767136 0.409139,1.777199 0,0.166212 -0.102285,0.268497 -0.102285,0.0895 -0.268498,0.0895 h -5.625663 v -0.664851 h 5.830233 l -0.562566,0.421925 q 0.02557,-0.831064 -0.281284,-1.470344 -0.306854,-0.63928 -0.882206,-0.997277 -0.562566,-0.370782 -1.329702,-0.370782 -0.728779,0 -1.304131,0.370782 -0.562567,0.357997 -0.894992,0.997277 -0.31964,0.63928 -0.31964,1.48313 0,0.831064 0.345211,1.470344 0.345211,0.63928 0.95892,1.010062 0.613709,0.357997 1.406416,0.357997 0.498638,0 0.997277,-0.166213 0.511423,-0.178998 0.805492,-0.460282 0.102285,-0.102284 0.242927,-0.102284 0.153427,-0.01279 0.255712,0.07671 0.140641,0.115071 0.140641,0.255712 0.01279,0.140642 -0.11507,0.255712 -0.409139,0.370783 -1.07399,0.613709 -0.652066,0.242926 -1.252989,0.242926 z" />
      <path
         id="path1089"
         style="font-style:normal;font-variant:normal;font-weight:300;font-stretch:normal;font-family:Comfortaa;-inkscape-font-specification:'Comfortaa Light';text-align:center;text-anchor:middle;fill:#4e5153;fill-opacity:1;stroke-width:0.31964"
         d="m 88.144582,84.994537 q -0.166213,0 -0.281283,-0.102284 -0.102285,-0.115071 -0.102285,-0.281284 v -9.218417 q 0,-0.178998 0.102285,-0.281283 0.11507,-0.102285 0.281283,-0.102285 h 2.301408 q 1.099561,0 2.007339,0.370782 0.920563,0.357997 1.585414,1.035634 0.677637,0.664851 1.035634,1.572629 0.370782,0.907777 0.370782,2.007339 0,1.099561 -0.370782,2.020125 -0.357997,0.907777 -1.035634,1.585414 -0.664851,0.664851 -1.585414,1.035634 -0.907778,0.357996 -2.007339,0.357996 z m 0.383568,-0.690422 h 1.91784 q 1.240203,0 2.186337,-0.562566 0.95892,-0.562567 1.495916,-1.534272 0.54978,-0.971706 0.54978,-2.211909 0,-1.240203 -0.54978,-2.199123 -0.536996,-0.971706 -1.495916,-1.534272 -0.946134,-0.562567 -2.186337,-0.562567 h -1.91784 z" />
      <path
         id="path1091"
         style="font-style:normal;font-variant:normal;font-weight:300;font-stretch:normal;font-family:Comfortaa;-inkscape-font-specification:'Comfortaa Light';text-align:center;text-anchor:middle;fill:#4e5153;fill-opacity:1;stroke-width:0.31964"
         d="m 98.011467,84.994537 q -0.166213,0 -0.281283,-0.102284 -0.102285,-0.115071 -0.102285,-0.281284 v -6.226587 q 0,-0.178998 0.102285,-0.281283 0.11507,-0.102285 0.281283,-0.102285 0.178998,0 0.281283,0.102285 0.102285,0.102285 0.102285,0.281283 v 6.226587 q 0,0.166213 -0.102285,0.281284 -0.102285,0.102284 -0.281283,0.102284 z m -0.01279,-8.464067 q -0.242926,0 -0.421924,-0.166212 -0.166213,-0.178999 -0.166213,-0.434711 0,-0.294069 0.178998,-0.43471 0.191784,-0.153427 0.421925,-0.153427 0.217355,0 0.396353,0.153427 0.191784,0.140641 0.191784,0.43471 0,0.255712 -0.178998,0.434711 -0.166213,0.166212 -0.421925,0.166212 z" />
      <path
         id="path1093"
         style="font-style:normal;font-variant:normal;font-weight:300;font-stretch:normal;font-family:Comfortaa;-inkscape-font-specification:'Comfortaa Light';text-align:center;text-anchor:middle;fill:#4e5153;fill-opacity:1;stroke-width:0.31964"
         d="m 103.34686,85.007323 q -0.24293,0 -0.358,-0.268498 l -2.91511,-6.239372 q -0.0512,-0.140642 0,-0.268498 0.0511,-0.140641 0.19178,-0.204569 0.14064,-0.06393 0.2685,-0.01279 0.14064,0.05114 0.20457,0.191784 l 2.86397,6.18823 h -0.47307 l 2.81284,-6.201016 q 0.0639,-0.140641 0.20457,-0.191784 0.15342,-0.05114 0.29406,0.01279 0.14065,0.06393 0.19179,0.20457 0.0639,0.127856 0,0.268497 l -2.87676,6.252158 q -0.12786,0.268498 -0.40914,0.268498 z" />
      <path
         id="path1095"
         style="font-style:normal;font-variant:normal;font-weight:300;font-stretch:normal;font-family:Comfortaa;-inkscape-font-specification:'Comfortaa Light';text-align:center;text-anchor:middle;fill:#4e5153;fill-opacity:1;stroke-width:0.31964"
         d="m 108.69943,84.994537 q -0.16621,0 -0.28128,-0.102284 -0.10229,-0.115071 -0.10229,-0.281284 v -6.226587 q 0,-0.178998 0.10229,-0.281283 0.11507,-0.102285 0.28128,-0.102285 0.179,0 0.28128,0.102285 0.10229,0.102285 0.10229,0.281283 v 6.226587 q 0,0.166213 -0.10229,0.281284 -0.10228,0.102284 -0.28128,0.102284 z m -0.0128,-8.464067 q -0.24292,0 -0.42192,-0.166212 -0.16621,-0.178999 -0.16621,-0.434711 0,-0.294069 0.17899,-0.43471 0.19179,-0.153427 0.42193,-0.153427 0.21735,0 0.39635,0.153427 0.19179,0.140641 0.19179,0.43471 0,0.255712 -0.179,0.434711 -0.16622,0.166212 -0.42193,0.166212 z" />
      <path
         id="path1097"
         style="font-style:normal;font-variant:normal;font-weight:300;font-stretch:normal;font-family:Comfortaa;-inkscape-font-specification:'Comfortaa Light';text-align:center;text-anchor:middle;fill:#4e5153;fill-opacity:1;stroke-width:0.31964"
         d="m 114.82752,85.071251 q -1.02284,0 -1.84112,-0.460282 -0.80549,-0.473067 -1.27856,-1.27856 -0.46028,-0.818278 -0.46028,-1.841126 0,-1.022848 0.46028,-1.828341 0.47307,-0.805493 1.27856,-1.265774 0.81828,-0.473067 1.84112,-0.473067 0.92057,0 1.64935,0.396353 0.74156,0.396354 1.1507,1.061205 v -3.989107 q 0,-0.178998 0.10229,-0.281283 0.11507,-0.102285 0.28128,-0.102285 0.179,0 0.28128,0.102285 0.10229,0.102285 0.10229,0.281283 v 6.175445 q -0.0128,0.997276 -0.48586,1.789984 -0.47306,0.792707 -1.27856,1.252988 -0.7927,0.460282 -1.80277,0.460282 z m 0,-0.715994 q 0.8055,0 1.43199,-0.370782 0.63928,-0.383568 0.99728,-1.022848 0.37078,-0.652066 0.37078,-1.470344 0,-0.818278 -0.37078,-1.457558 -0.358,-0.63928 -0.99728,-1.010063 -0.62649,-0.383568 -1.43199,-0.383568 -0.7927,0 -1.43198,0.383568 -0.63928,0.370783 -1.01006,1.010063 -0.37079,0.63928 -0.37079,1.457558 0,0.818278 0.37079,1.470344 0.37078,0.63928 1.01006,1.022848 0.63928,0.370782 1.43198,0.370782 z" />
      <path
         id="path1099"
         style="font-style:normal;font-variant:normal;font-weight:300;font-stretch:normal;font-family:Comfortaa;-inkscape-font-specification:'Comfortaa Light';text-align:center;text-anchor:middle;fill:#4e5153;fill-opacity:1;stroke-width:0.31964"
         d="m 123.79004,85.058465 q -1.01007,0 -1.80277,-0.447496 -0.77992,-0.460281 -1.22742,-1.265774 -0.4475,-0.805493 -0.4475,-1.841126 0,-1.04842 0.42193,-1.841127 0.42192,-0.805493 1.16349,-1.265774 0.74156,-0.460282 1.70048,-0.460282 0.94614,0 1.67492,0.447496 0.72878,0.434711 1.13791,1.214632 0.40914,0.767136 0.40914,1.777199 0,0.166212 -0.10228,0.268497 -0.10229,0.0895 -0.2685,0.0895 h -5.62566 v -0.664851 h 5.83023 l -0.56257,0.421925 q 0.0256,-0.831064 -0.28128,-1.470344 -0.30685,-0.63928 -0.88221,-0.997277 -0.56256,-0.370782 -1.3297,-0.370782 -0.72878,0 -1.30413,0.370782 -0.56257,0.357997 -0.89499,0.997277 -0.31964,0.63928 -0.31964,1.48313 0,0.831064 0.34521,1.470344 0.34521,0.63928 0.95892,1.010062 0.61371,0.357997 1.40642,0.357997 0.49863,0 0.99727,-0.166213 0.51143,-0.178998 0.8055,-0.460282 0.10228,-0.102284 0.24292,-0.102284 0.15343,-0.01279 0.25571,0.07671 0.14065,0.115071 0.14065,0.255712 0.0128,0.140642 -0.11507,0.255712 -0.40914,0.370783 -1.07399,0.613709 -0.65207,0.242926 -1.25299,0.242926 z" />
      <path
         id="path1101"
         style="font-style:normal;font-variant:normal;font-weight:300;font-stretch:normal;font-family:Comfortaa;-inkscape-font-specification:'Comfortaa Light';text-align:center;text-anchor:middle;fill:#4e5153;fill-opacity:1;stroke-width:0.31964"
         d="m 128.74285,80.724147 q 0.0767,-0.818278 0.4475,-1.444773 0.37078,-0.63928 0.95892,-0.997276 0.58814,-0.357997 1.30413,-0.357997 0.48585,0 0.75435,0.11507 0.2685,0.115071 0.20457,0.409139 -0.0383,0.191784 -0.179,0.230141 -0.14064,0.03836 -0.34521,0.01279 -0.19178,-0.03836 -0.43471,-0.03836 -0.63928,0 -1.13792,0.268497 -0.49863,0.268498 -0.77992,0.741565 -0.28128,0.460282 -0.28128,1.061205 z m 0.12786,4.27039 q -0.16621,0 -0.28128,-0.102284 -0.10229,-0.115071 -0.10229,-0.281284 v -6.226587 q 0,-0.178998 0.10229,-0.281283 0.11507,-0.102285 0.28128,-0.102285 0.179,0 0.28128,0.102285 0.10229,0.102285 0.10229,0.281283 v 6.226587 q 0,0.166213 -0.10229,0.281284 -0.10228,0.102284 -0.28128,0.102284 z" />
    </g>
    <path
       style="fill:none;stroke:#fed700;stroke-width:0.756163;stroke-linecap:round;stroke-linejoin:round;stroke-miterlimit:4;stroke-dasharray:none;stroke-opacity:1"
       d="m 113.66017,38.40772 v 6.2206 l 2.48823,1.43658 -3.97639,2.29577 4.30975,2.48824 -4.30975,2.48824 4.30975,2.48823 -4.30975,2.48824 2.15487,1.24412 v 6.2206"
       id="path1607-2-1-0" />
    <path
       id="path1607-2-1-3-8"
       d="m 112.99345,11.0371 v 6.2206 l 2.48824,1.43658 -3.9764,2.29577 4.30977,2.48824 -4.30977,2.48824 4.30977,2.48823 -4.30977,2.48824 2.15487,1.24412 v 6.2206"
       style="fill:none;stroke:#fed700;stroke-width:0.756163;stroke-linecap:round;stroke-linejoin:round;stroke-miterlimit:4;stroke-dasharray:none;stroke-opacity:1" />
    <path
       id="path2314-8"
       d="m 114.32689,65.77834 h 28.33202"
       style="fill:none;stroke:#fed700;stroke-width:1;stroke-linecap:round;stroke-linejoin:miter;stroke-miterlimit:4;stroke-dasharray:none;stroke-opacity:1" />
    <path
       style="fill:none;stroke:#fed700;stroke-width:1;stroke-linecap:round;stroke-linejoin:miter;stroke-miterlimit:4;stroke-dasharray:none;stroke-opacity:1"
       d="m 113.66017,38.40772 h 28.33201"
       id="path2314-2-5" />
    <circle
       r="1.2038528"
       cy="65.547821"
       cx="114.26154"
       id="path1707-9-7-0"
       style="fill:#fed700;fill-opacity:1;stroke:#fed700;stroke-width:0.805823;stroke-linecap:round;stroke-linejoin:round;stroke-miterlimit:4;stroke-dasharray:none;stroke-opacity:1" />
    <circle
       r="1.2038528"
       cy="38.08588"
       cx="113.66019"
       id="path1707-9-1-6"
       style="fill:#fed700;fill-opacity:1;stroke:#fed700;stroke-width:0.805823;stroke-linecap:round;stroke-linejoin:round;stroke-miterlimit:4;stroke-dasharray:none;stroke-opacity:1" />
    <circle
       r="1.2038528"
       cy="11.492558"
       cx="112.92519"
       id="path1707-9-0-7"
       style="fill:#fed700;fill-opacity:1;stroke:#fed700;stroke-width:0.805823;stroke-linecap:round;stroke-linejoin:round;stroke-miterlimit:4;stroke-dasharray:none;stroke-opacity:1" />
    <path
       id="path2358-3"
       d="M 131.95596,41.33562 V 62.83264"
       style="fill:none;stroke:#000000;stroke-width:0.155;stroke-linecap:butt;stroke-linejoin:miter;stroke-miterlimit:3;stroke-dasharray:none;stroke-opacity:1;marker-start:url(#TriangleInL-7);marker-mid:url(#Arrow1Lstart-8);marker-end:url(#TriangleOutL-0)" />
    <g
       style="font-style:normal;font-weight:normal;font-size:5.29167px;line-height:1.15;font-family:sans-serif;fill:#000000;fill-opacity:1;stroke:none;stroke-width:0.264583"
       id="text3420-2"
       aria-label="VOUT">
      <path
         id="path1104"
         style="font-style:normal;font-variant:normal;font-weight:normal;font-stretch:normal;font-size:5.29167px;font-family:Comfortaa;-inkscape-font-specification:Comfortaa;stroke-width:0.264583"
         d="m 134.96042,54.293674 q -0.13229,0 -0.1905,-0.132291 l -1.57162,-3.677711 q -0.0582,-0.148167 -0.0106,-0.232833 0.0529,-0.08996 0.17992,-0.08996 0.13229,0 0.1905,0.132292 l 1.4605,3.492502 h -0.11641 l 1.45521,-3.481919 q 0.0318,-0.07938 0.0794,-0.111125 0.0476,-0.03175 0.127,-0.03175 0.12171,0 0.16404,0.09525 0.0423,0.08996 -0.005,0.206376 l -1.57692,3.698877 q -0.0318,0.07408 -0.0794,0.105833 -0.0476,0.02646 -0.10584,0.02646 z" />
      <path
         id="path1106"
         style="font-style:normal;font-variant:normal;font-weight:normal;font-stretch:normal;font-size:2.11667px;font-family:Comfortaa;-inkscape-font-specification:Comfortaa;stroke-width:0.264583"
         d="m 137.82955,54.314841 q -0.18415,0 -0.33867,-0.0635 -0.15451,-0.0635 -0.26881,-0.1778 -0.11219,-0.1143 -0.17569,-0.268817 -0.0614,-0.154517 -0.0614,-0.338667 0,-0.182034 0.0614,-0.336551 0.0635,-0.154517 0.17569,-0.268817 0.1143,-0.1143 0.26881,-0.1778 0.15452,-0.0635 0.33867,-0.0635 0.18204,0 0.33655,0.0635 0.15452,0.0635 0.26882,0.1778 0.1143,0.1143 0.17568,0.268817 0.0635,0.154517 0.0635,0.336551 0,0.18415 -0.0635,0.338667 -0.0614,0.154517 -0.17568,0.268817 -0.1143,0.1143 -0.26882,0.1778 -0.15451,0.0635 -0.33655,0.0635 z m 0,-0.156633 q 0.14605,0 0.27094,-0.0508 0.12488,-0.05292 0.2159,-0.146051 0.0931,-0.09525 0.14393,-0.220133 0.0508,-0.127001 0.0508,-0.275167 0,-0.146051 -0.0508,-0.270934 -0.0508,-0.127 -0.14393,-0.220134 -0.091,-0.09525 -0.2159,-0.14605 -0.12489,-0.05292 -0.27094,-0.05292 -0.14816,0 -0.27305,0.05292 -0.12488,0.0508 -0.21802,0.14605 -0.091,0.09313 -0.14181,0.220134 -0.0508,0.124883 -0.0508,0.270934 0,0.148166 0.0508,0.275167 0.0508,0.124883 0.14181,0.220133 0.0931,0.09313 0.21802,0.146051 0.12489,0.0508 0.27305,0.0508 z" />
      <path
         id="path1108"
         style="font-style:normal;font-variant:normal;font-weight:normal;font-stretch:normal;font-size:2.11667px;font-family:Comfortaa;-inkscape-font-specification:Comfortaa;stroke-width:0.264583"
         d="m 139.67502,54.327541 q -0.19261,0 -0.3429,-0.07408 -0.14816,-0.07408 -0.23283,-0.205317 -0.0825,-0.131234 -0.0825,-0.300567 v -1.024469 q 0,-0.03598 0.0233,-0.05927 0.0233,-0.02328 0.0593,-0.02328 0.036,0 0.0593,0.02328 0.0233,0.02328 0.0233,0.05927 v 1.024469 q 0,0.124883 0.0614,0.220133 0.0635,0.09525 0.17569,0.150284 0.11218,0.05292 0.25611,0.05292 0.14182,0 0.25189,-0.05292 0.11006,-0.05503 0.17145,-0.150284 0.0635,-0.09525 0.0635,-0.220133 v -1.024469 q 0,-0.03598 0.0233,-0.05927 0.0233,-0.02328 0.0593,-0.02328 0.0381,0 0.0593,0.02328 0.0233,0.02328 0.0233,0.05927 v 1.024469 q 0,0.169333 -0.0847,0.300567 -0.0825,0.131233 -0.23072,0.205317 -0.14605,0.07408 -0.33655,0.07408 z" />
      <path
         id="path1110"
         style="font-style:normal;font-variant:normal;font-weight:normal;font-stretch:normal;font-size:2.11667px;font-family:Comfortaa;-inkscape-font-specification:Comfortaa;stroke-width:0.264583"
         d="m 141.22942,54.293674 q -0.0339,0 -0.0593,-0.02328 -0.0233,-0.0254 -0.0233,-0.05927 v -1.570569 h 0.1651 v 1.570569 q 0,0.03387 -0.0233,0.05927 -0.0233,0.02328 -0.0593,0.02328 z m -0.5842,-1.502835 q -0.0339,0 -0.055,-0.02117 -0.0212,-0.02117 -0.0212,-0.05292 0,-0.03387 0.0212,-0.05503 0.0212,-0.02117 0.055,-0.02117 h 1.17052 q 0.0339,0 0.055,0.02117 0.0212,0.02117 0.0212,0.05503 0,0.03175 -0.0212,0.05292 -0.0212,0.02117 -0.055,0.02117 z" />
    </g>
    <path
       id="path3434-9"
       d="m 31.989715,36.03138 h 12.42596"
       style="fill:none;stroke:#fed700;stroke-width:1;stroke-linecap:round;stroke-linejoin:miter;stroke-miterlimit:4;stroke-dasharray:none;stroke-opacity:1" />
    <path
       id="path3436-3"
       d="m 34.871785,38.67721 h 6.18935"
       style="fill:none;stroke:#fed700;stroke-width:1;stroke-linecap:round;stroke-linejoin:miter;stroke-miterlimit:4;stroke-dasharray:none;stroke-opacity:1" />
    <path
       style="fill:none;stroke:#fed700;stroke-width:1;stroke-linecap:round;stroke-linejoin:miter;stroke-miterlimit:4;stroke-dasharray:none;stroke-opacity:1"
       d="m 31.966085,41.32304 h 12.42597"
       id="path3434-8-9" />
    <path
       style="fill:none;stroke:#fed700;stroke-width:1;stroke-linecap:round;stroke-linejoin:miter;stroke-miterlimit:4;stroke-dasharray:none;stroke-opacity:1"
       d="m 34.848155,43.96888 h 6.18936"
       id="path3436-1-0" />
    <path
       id="path3456-8"
       d="M 112.99345,11.0371 H 38.022905 V 36.215"
       style="fill:none;stroke:#fed700;stroke-width:1;stroke-linecap:round;stroke-linejoin:miter;stroke-miterlimit:4;stroke-dasharray:none;stroke-opacity:1" />
    <path
       id="path3458-3"
       d="M 114.32689,65.77834 H 37.621995 V 43.69855"
       style="fill:none;stroke:#fed700;stroke-width:1;stroke-linecap:round;stroke-linejoin:miter;stroke-miterlimit:4;stroke-dasharray:none;stroke-opacity:1" />
    <rect
       ry="6.6088867"
       y="-91.674454"
       x="-176.58398"
       height="92.524414"
       width="172.98045"
       id="rect846-0-0"
       style="fill:none;fill-opacity:1;stroke:none;stroke-width:0.197656;stroke-linecap:round;stroke-linejoin:round;stroke-miterlimit:4;stroke-dasharray:none;stroke-opacity:1" />
  </g>
</svg>
