<?xml version="1.0" encoding="UTF-8" standalone="no"?>
<svg
   xmlns:dc="http://purl.org/dc/elements/1.1/"
   xmlns:cc="http://creativecommons.org/ns#"
   xmlns:rdf="http://www.w3.org/1999/02/22-rdf-syntax-ns#"
   xmlns:svg="http://www.w3.org/2000/svg"
   xmlns="http://www.w3.org/2000/svg"
   xmlns:sodipodi="http://sodipodi.sourceforge.net/DTD/sodipodi-0.dtd"
   xmlns:inkscape="http://www.inkscape.org/namespaces/inkscape"
   sodipodi:docname="555-Monostable.svg"
   inkscape:version="1.0 (4035a4fb49, 2020-05-01)"
   id="svg8"
   version="1.1"
   viewBox="0 0 171.97917 79.110416"
   height="299"
   width="650"
   inkscape:export-filename="C:\Users\Corey\Documents\KoBee\Support Data\Circuits\Resistors-In-Series.png"
   inkscape:export-xdpi="146.3"
   inkscape:export-ydpi="146.3">
  <defs
     id="defs2">
    <marker
       inkscape:isstock="true"
       style="overflow:visible"
       id="TriangleOutL"
       refX="0.0"
       refY="0.0"
       orient="auto"
       inkscape:stockid="TriangleOutL">
      <path
         transform="scale(0.8)"
         style="fill-rule:evenodd;stroke:#4e4c4c;stroke-width:1pt;stroke-opacity:1;fill:#4e4c4c;fill-opacity:1"
         d="M 5.77,0.0 L -2.88,5.0 L -2.88,-5.0 L 5.77,0.0 z "
         id="path1222" />
    </marker>
    <marker
       inkscape:isstock="true"
       style="overflow:visible"
       id="Arrow1Mstart"
       refX="0.0"
       refY="0.0"
       orient="auto"
       inkscape:stockid="Arrow1Mstart">
      <path
         transform="scale(0.4) translate(10,0)"
         style="fill-rule:evenodd;stroke:#000000;stroke-width:1pt;stroke-opacity:1;fill:#000000;fill-opacity:1"
         d="M 0.0,0.0 L 5.0,-5.0 L -12.5,0.0 L 5.0,5.0 L 0.0,0.0 z "
         id="path1086" />
    </marker>
    <marker
       inkscape:isstock="true"
       style="overflow:visible"
       id="Arrow1Lstart"
       refX="0.0"
       refY="0.0"
       orient="auto"
       inkscape:stockid="Arrow1Lstart">
      <path
         transform="scale(0.8) translate(12.5,0)"
         style="fill-rule:evenodd;stroke:#000000;stroke-width:1pt;stroke-opacity:1;fill:#000000;fill-opacity:1"
         d="M 0.0,0.0 L 5.0,-5.0 L -12.5,0.0 L 5.0,5.0 L 0.0,0.0 z "
         id="path1080" />
    </marker>
    <marker
       inkscape:isstock="true"
       style="overflow:visible"
       id="DiamondSstart"
       refX="0.0"
       refY="0.0"
       orient="auto"
       inkscape:stockid="DiamondSstart">
      <path
         transform="scale(0.2) translate(6,0)"
         style="fill-rule:evenodd;stroke:#000000;stroke-width:1pt;stroke-opacity:1;fill:#000000;fill-opacity:1"
         d="M 0,-7.0710768 L -7.0710894,0 L 0,7.0710589 L 7.0710462,0 L 0,-7.0710768 z "
         id="path1174" />
    </marker>
    <marker
       inkscape:isstock="true"
       style="overflow:visible"
       id="DiamondL"
       refX="0.0"
       refY="0.0"
       orient="auto"
       inkscape:stockid="DiamondL">
      <path
         transform="scale(0.8)"
         style="fill-rule:evenodd;stroke:#000000;stroke-width:1pt;stroke-opacity:1;fill:#000000;fill-opacity:1"
         d="M 0,-7.0710768 L -7.0710894,0 L 0,7.0710589 L 7.0710462,0 L 0,-7.0710768 z "
         id="path1159" />
    </marker>
    <marker
       inkscape:isstock="true"
       style="overflow:visible"
       id="Tail"
       refX="0.0"
       refY="0.0"
       orient="auto"
       inkscape:stockid="Tail">
      <g
         style="stroke:#000000;stroke-opacity:1;fill:#000000;fill-opacity:1"
         transform="scale(-1.2)"
         id="g1128">
        <path
           style="fill:#000000;fill-rule:evenodd;stroke:#000000;stroke-width:0.8;stroke-linecap:round;stroke-opacity:1;fill-opacity:1"
           d="M -3.8048674,-3.9585227 L 0.54352094,0"
           id="path1116" />
        <path
           style="fill:#000000;fill-rule:evenodd;stroke:#000000;stroke-width:0.8;stroke-linecap:round;stroke-opacity:1;fill-opacity:1"
           d="M -1.2866832,-3.9585227 L 3.0617053,0"
           id="path1118" />
        <path
           style="fill:#000000;fill-rule:evenodd;stroke:#000000;stroke-width:0.8;stroke-linecap:round;stroke-opacity:1;fill-opacity:1"
           d="M 1.3053582,-3.9585227 L 5.6537466,0"
           id="path1120" />
        <path
           style="fill:#000000;fill-rule:evenodd;stroke:#000000;stroke-width:0.8;stroke-linecap:round;stroke-opacity:1;fill-opacity:1"
           d="M -3.8048674,4.1775838 L 0.54352094,0.21974226"
           id="path1122" />
        <path
           style="fill:#000000;fill-rule:evenodd;stroke:#000000;stroke-width:0.8;stroke-linecap:round;stroke-opacity:1;fill-opacity:1"
           d="M -1.2866832,4.1775838 L 3.0617053,0.21974226"
           id="path1124" />
        <path
           style="fill:#000000;fill-rule:evenodd;stroke:#000000;stroke-width:0.8;stroke-linecap:round;stroke-opacity:1;fill-opacity:1"
           d="M 1.3053582,4.1775838 L 5.6537466,0.21974226"
           id="path1126" />
      </g>
    </marker>
    <marker
       inkscape:isstock="true"
       style="overflow:visible;"
       id="Arrow2Lend"
       refX="0.0"
       refY="0.0"
       orient="auto"
       inkscape:stockid="Arrow2Lend">
      <path
         transform="scale(1.1) rotate(180) translate(1,0)"
         d="M 8.7185878,4.0337352 L -2.2072895,0.016013256 L 8.7185884,-4.0017078 C 6.9730900,-1.6296469 6.9831476,1.6157441 8.7185878,4.0337352 z "
         style="fill-rule:evenodd;stroke-width:0.625;stroke-linejoin:round;stroke:#000000;stroke-opacity:1;fill:#000000;fill-opacity:1"
         id="path1101" />
    </marker>
    <marker
       inkscape:stockid="TriangleOutL"
       orient="auto"
       refY="0"
       refX="0"
       id="TriangleOutL-2"
       style="overflow:visible"
       inkscape:isstock="true">
      <path
         id="path1222-4"
         d="M 5.77,0 -2.88,5 V -5 Z"
         style="fill:#4e4c4c;fill-opacity:1;fill-rule:evenodd;stroke:#4e4c4c;stroke-width:1pt;stroke-opacity:1"
         transform="scale(0.8)" />
    </marker>
  </defs>
  <sodipodi:namedview
     inkscape:snap-global="false"
     inkscape:snap-bbox="true"
     showguides="false"
     inkscape:window-maximized="1"
     inkscape:window-y="477"
     inkscape:window-x="-8"
     inkscape:window-height="1377"
     inkscape:window-width="2560"
     showgrid="true"
     inkscape:document-rotation="0"
     inkscape:current-layer="text1107-9"
     inkscape:document-units="mm"
     inkscape:cy="-85.822751"
     inkscape:cx="228.61962"
     inkscape:zoom="1"
     inkscape:pageshadow="2"
     inkscape:pageopacity="0.0"
     borderopacity="1.0"
     bordercolor="#666666"
     pagecolor="#ffffff"
     id="base"
     units="px">
    <inkscape:grid
       dotted="false"
       empspacing="5"
       snapvisiblegridlinesonly="false"
       spacingy="1"
       spacingx="1"
       units="mm"
       id="grid842"
       type="xygrid" />
  </sodipodi:namedview>
  <metadata
     id="metadata5">
    <rdf:RDF>
      <cc:Work
         rdf:about="">
        <dc:format>image/svg+xml</dc:format>
        <dc:type
           rdf:resource="http://purl.org/dc/dcmitype/StillImage" />
        <dc:title></dc:title>
      </cc:Work>
    </rdf:RDF>
  </metadata>
  <g
     id="layer1"
     inkscape:groupmode="layer"
     inkscape:label="Layer 1">
    <g
       id="g2359"
       transform="matrix(3.1978989,0,0,3.1978989,-72.3936,-851.68182)" />
    <g
       style="stroke-width:1.45919"
       id="g2371"
       transform="matrix(0.61850709,0,0,0.61850709,-149.81612,-339.64067)"
       inkscape:export-xdpi="146.3"
       inkscape:export-ydpi="146.3"
       inkscape:export-filename="C:\Users\billb\Pictures\Feather M4 Test1.png">
      <g
         transform="translate(20.681403,20.681414)"
         id="g2369">
        <g
           transform="translate(-15.175587,5.1703626)"
           id="g2367">
          <path
             style="font-style:normal;font-weight:normal;font-size:8.32297px;line-height:1.25;font-family:sans-serif;fill:none;fill-opacity:1;stroke:#4e4c4c;stroke-width:1.51494;stroke-linecap:round;stroke-linejoin:miter;stroke-miterlimit:4;stroke-dasharray:none;stroke-opacity:1"
             d="m 283.71336,643.383 h 163.69887 v 0"
             id="path1459-2-5-3-3-6" />
          <path
             d="m 259.86662,564.59778 h 15.51113 c 2.86438,0 5.17035,2.30597 5.17035,5.17034 v 1e-5 c 0,2.86437 -2.30597,5.17034 -5.17035,5.17034 h -15.51113 c -2.86437,0 -5.17035,-2.30597 -5.17035,-5.17034 v -1e-5 c 0,-2.86437 2.30598,-5.17034 5.17035,-5.17034 z"
             style="fill:#fed700;fill-opacity:1;stroke:none;stroke-width:0.588701;stroke-linecap:round;stroke-linejoin:round;stroke-miterlimit:4;stroke-dasharray:none"
             id="rect1504-1-0" />
          <g
             style="font-style:normal;font-weight:normal;font-size:8.55555px;line-height:1.25;font-family:sans-serif;fill:#4e5153;fill-opacity:1;stroke:none;stroke-width:0.129882"
             id="text1107"
             aria-label="Vin">
            <path
               id="path1801"
               style="font-style:normal;font-variant:normal;font-weight:500;font-stretch:normal;font-size:8.55555px;font-family:Comfortaa;-inkscape-font-specification:'Comfortaa Medium';fill:#4e5153;fill-opacity:1;stroke-width:0.129882"
               d="m 263.72479,573.10907 q -0.231,0 -0.34222,-0.23956 l -2.52388,-5.8691 q -0.10267,-0.25667 -0.0171,-0.41067 0.0856,-0.16255 0.308,-0.16255 0.23956,0 0.34223,0.231 l 2.30999,5.52688 h -0.16255 l 2.31855,-5.51833 q 0.0599,-0.13689 0.13689,-0.18822 0.0856,-0.0513 0.22245,-0.0513 0.21388,0 0.29088,0.16255 0.077,0.16256 -0.009,0.35933 l -2.541,5.92044 q -0.0513,0.12834 -0.13689,0.18823 -0.0855,0.0513 -0.19678,0.0513 z" />
            <path
               id="path1803"
               style="font-style:normal;font-variant:normal;font-weight:500;font-stretch:normal;font-size:8.55555px;font-family:Comfortaa;-inkscape-font-specification:'Comfortaa Medium';fill:#4e5153;fill-opacity:1;stroke-width:0.129882"
               d="m 268.06807,573.10907 q -0.16255,0 -0.26522,-0.10267 -0.10267,-0.10266 -0.10267,-0.26522 v -3.94411 q 0,-0.17111 0.10267,-0.26522 0.10267,-0.10267 0.26522,-0.10267 0.16256,0 0.25667,0.10267 0.10267,0.0941 0.10267,0.26522 v 3.94411 q 0,0.16256 -0.10267,0.26522 -0.0941,0.10267 -0.25667,0.10267 z m -0.009,-5.52689 q -0.20534,0 -0.35078,-0.14544 -0.14544,-0.14544 -0.14544,-0.35933 0,-0.21389 0.14544,-0.35078 0.154,-0.14544 0.35933,-0.14544 0.19678,0 0.34222,0.14544 0.154,0.13689 0.154,0.35078 0,0.21389 -0.154,0.35933 -0.14544,0.14544 -0.35077,0.14544 z" />
            <path
               id="path1805"
               style="font-style:normal;font-variant:normal;font-weight:500;font-stretch:normal;font-size:8.55555px;font-family:Comfortaa;-inkscape-font-specification:'Comfortaa Medium';fill:#4e5153;fill-opacity:1;stroke-width:0.129882"
               d="m 274.08236,573.10907 q -0.16256,0 -0.26523,-0.10267 -0.10266,-0.10266 -0.10266,-0.25666 v -2.18167 q 0,-0.52189 -0.19678,-0.847 -0.19678,-0.33366 -0.53044,-0.49622 -0.32511,-0.16256 -0.75289,-0.16256 -0.39356,0 -0.71867,0.154 -0.32511,0.154 -0.51333,0.42778 -0.18822,0.26522 -0.18822,0.616 h -0.48767 q 0.009,-0.539 0.27378,-0.95822 0.27378,-0.42778 0.72722,-0.67589 0.45344,-0.24811 1.00955,-0.24811 0.60745,0 1.078,0.25667 0.47911,0.24811 0.75289,0.73577 0.27378,0.48767 0.27378,1.19778 v 2.18167 q 0,0.154 -0.10267,0.25666 -0.10266,0.10267 -0.25666,0.10267 z m -3.62756,0 q -0.16255,0 -0.26522,-0.0941 -0.10267,-0.10267 -0.10267,-0.26522 v -3.95267 q 0,-0.17111 0.10267,-0.26522 0.10267,-0.10267 0.26522,-0.10267 0.16256,0 0.25667,0.10267 0.10267,0.0941 0.10267,0.26522 v 3.95267 q 0,0.16255 -0.10267,0.26522 -0.0941,0.0941 -0.25667,0.0941 z" />
          </g>
          <path
             style="fill:none;stroke:#4e4c4c;stroke-width:1.51494;stroke-linecap:butt;stroke-linejoin:miter;stroke-miterlimit:4;stroke-dasharray:none;stroke-opacity:1"
             d="m 283.85905,596.66684 v 47.32625 0"
             id="path928" />
          <path
             id="path930"
             d="m 288.92133,596.25225 h -10.12457 v 0"
             style="fill:none;stroke:#4e4c4c;stroke-width:1.51494;stroke-linecap:round;stroke-linejoin:miter;stroke-miterlimit:4;stroke-dasharray:none;stroke-opacity:1" />
          <path
             style="fill:none;stroke:#4e4c4c;stroke-width:1.51494;stroke-linecap:round;stroke-linejoin:miter;stroke-miterlimit:4;stroke-dasharray:none;stroke-opacity:1"
             d="m 288.92133,584.28139 h -10.12457 v 0"
             id="path932" />
          <path
             style="fill:none;stroke:#4e4c4c;stroke-width:1.51494;stroke-linecap:round;stroke-linejoin:miter;stroke-miterlimit:4;stroke-dasharray:none;stroke-opacity:1"
             d="M 295.27879,590.55982 H 272.4393 v 0"
             id="path936" />
          <path
             id="path938"
             d="M 295.27879,578.17039 H 272.4393 v 0"
             style="fill:none;stroke:#4e4c4c;stroke-width:1.51494;stroke-linecap:round;stroke-linejoin:miter;stroke-miterlimit:4;stroke-dasharray:none;stroke-opacity:1" />
          <path
             d="m 315.73819,544.98065 h 15.51113 c 2.86437,0 5.17035,2.30598 5.17035,5.17035 v 0 c 0,2.86437 -2.30598,5.17035 -5.17035,5.17035 h -15.51113 c -2.86437,0 -5.17035,-2.30598 -5.17035,-5.17035 v 0 c 0,-2.86437 2.30598,-5.17035 5.17035,-5.17035 z"
             style="fill:#fed700;fill-opacity:1;stroke:none;stroke-width:0.588702;stroke-linecap:round;stroke-linejoin:round;stroke-miterlimit:4;stroke-dasharray:none"
             id="rect1504-9" />
          <path
             id="path1307"
             style="font-style:normal;font-variant:normal;font-weight:600;font-stretch:normal;font-size:8.323px;line-height:1.25;font-family:Comfortaa;-inkscape-font-specification:'Comfortaa Semi-Bold';fill:#4e5153;fill-opacity:1;stroke:none;stroke-width:0.303621"
             d="m 320.50183,553.40112 q -0.17479,0 -0.29131,-0.10819 -0.1082,-0.11653 -0.1082,-0.29131 v -5.70125 q 0,-0.17479 0.1082,-0.28299 0.11652,-0.11652 0.29131,-0.11652 h 1.51478 q 0.6159,0 1.09864,0.25801 0.48273,0.25802 0.74907,0.71578 0.27466,0.45777 0.27466,1.05702 0,0.56597 -0.27466,1.00709 -0.26634,0.44112 -0.74907,0.69081 -0.48274,0.24969 -1.09864,0.24969 h -1.1236 v 2.12236 q 0,0.17478 -0.1082,0.29131 -0.1082,0.10819 -0.28298,0.10819 z m 3.46236,0 q -0.11652,0 -0.19975,-0.0416 -0.0832,-0.0499 -0.14981,-0.14981 l -1.53143,-2.46361 0.78236,-0.2164 1.40659,2.26386 q 0.14149,0.22472 0.0416,0.41615 -0.0999,0.19142 -0.34957,0.19142 z m -3.07118,-3.26261 h 1.1236 q 0.39951,0 0.69913,-0.14982 0.30796,-0.15813 0.48274,-0.43279 0.17478,-0.27466 0.17478,-0.62423 0,-0.37453 -0.17478,-0.66584 -0.17478,-0.29962 -0.48274,-0.45776 -0.29962,-0.16646 -0.69913,-0.16646 h -1.1236 z" />
          <path
             id="path1309"
             style="font-style:normal;font-variant:normal;font-weight:600;font-stretch:normal;font-size:8.323px;line-height:1.25;font-family:Comfortaa;-inkscape-font-specification:'Comfortaa Semi-Bold';fill:#4e5153;fill-opacity:1;stroke:none;stroke-width:0.303621"
             d="m 326.48567,553.40112 q -0.14981,0 -0.26633,-0.10819 -0.11652,-0.11653 -0.11652,-0.28299 v -5.18523 l -0.68249,0.26634 q -0.12485,0.0499 -0.23304,0.0499 -0.16646,0 -0.28299,-0.1082 -0.1082,-0.1082 -0.1082,-0.27466 0,-0.11652 0.0583,-0.2164 0.0583,-0.0999 0.19142,-0.14981 l 1.29839,-0.45777 q 0.0416,-0.0166 0.0832,-0.025 0.0416,-0.008 0.0749,-0.008 0.17478,0 0.27466,0.11652 0.1082,0.1082 0.1082,0.27466 v 5.7179 q 0,0.16646 -0.11652,0.28299 -0.1082,0.10819 -0.28299,0.10819 z" />
          <path
             id="path1216"
             d="m 343.52475,643.07369 v -16.01686 0"
             style="font-style:normal;font-weight:normal;font-size:8.32297px;line-height:1.25;font-family:sans-serif;fill:none;fill-opacity:1;stroke:#4e4c4c;stroke-width:1.51493817;stroke-linecap:butt;stroke-linejoin:miter;stroke-miterlimit:4;stroke-dasharray:none;stroke-opacity:1" />
          <path
             style="font-style:normal;font-weight:normal;font-size:8.32297px;line-height:1.25;font-family:sans-serif;fill:none;fill-opacity:1;stroke:#4e4c4c;stroke-width:1.51493817;stroke-linecap:butt;stroke-linejoin:miter;stroke-miterlimit:4;stroke-dasharray:none;stroke-opacity:1"
             d="m 343.52475,620.28674 v -15.41286 0"
             id="path1218" />
          <path
             id="path1220"
             d="m 349.65738,626.97632 h -12.02612 v 0"
             style="font-style:normal;font-weight:normal;font-size:8.32297px;line-height:1.25;font-family:sans-serif;fill:none;fill-opacity:1;stroke:#4e4c4c;stroke-width:1.51493817;stroke-linecap:round;stroke-linejoin:miter;stroke-miterlimit:4;stroke-dasharray:none;stroke-opacity:1" />
          <path
             style="font-style:normal;font-weight:normal;font-size:8.32297px;line-height:1.25;font-family:sans-serif;fill:none;fill-opacity:1;stroke:#4e4c4c;stroke-width:1.51493817;stroke-linecap:round;stroke-linejoin:miter;stroke-miterlimit:4;stroke-dasharray:none;stroke-opacity:1"
             d="m 349.66978,620.50119 h -12.02611 v 0"
             id="path1222-1" />
          <path
             d="m 346.14872,643.383 a 2.6239972,2.6613202 0 0 1 -2.624,2.66132 2.6239972,2.6613202 0 0 1 -2.624,-2.66132 2.6239972,2.6613202 0 0 1 2.624,-2.66132 2.6239972,2.6613202 0 0 1 2.624,2.66132"
             inkscape:transform-center-y="0.072944278"
             inkscape:transform-center-x="-3.2587817"
             style="fill:#4e4c4c;fill-opacity:1;stroke:#4e4c4c;stroke-width:1.00591;stroke-linecap:round;stroke-linejoin:round;stroke-miterlimit:0.7;stroke-dasharray:none;stroke-dashoffset:0;stroke-opacity:1;paint-order:fill markers stroke"
             id="ellipse1022" />
          <path
             id="path2349"
             d="m 458.29063,579.03297 h 26.7148 v 0"
             style="fill:none;stroke:#4e4c4c;stroke-width:1.51494;stroke-linecap:round;stroke-linejoin:miter;stroke-miterlimit:4;stroke-dasharray:none;stroke-opacity:1" />
          <path
             d="m 315.54455,618.56842 h 15.51114 c 2.86437,0 5.17034,2.30597 5.17034,5.17035 v 0 c 0,2.86437 -2.30597,5.17034 -5.17034,5.17034 h -15.51114 c -2.86437,0 -5.17034,-2.30597 -5.17034,-5.17034 v 0 c 0,-2.86438 2.30597,-5.17035 5.17034,-5.17035 z"
             style="fill:#fed700;fill-opacity:1;stroke:none;stroke-width:0.588702;stroke-linecap:round;stroke-linejoin:round;stroke-miterlimit:4;stroke-dasharray:none"
             id="rect1504-3-9" />
          <g
             style="font-style:normal;font-weight:normal;font-size:8.55555px;line-height:1.25;font-family:sans-serif;fill:#4e5153;fill-opacity:1;stroke:none;stroke-width:0.129882"
             id="text1107-9"
             aria-label="C1">
            <path
               id="path1793"
               style="font-style:normal;font-variant:normal;font-weight:600;font-stretch:normal;font-size:8.55555px;font-family:Comfortaa;-inkscape-font-specification:'Comfortaa Semi-Bold';fill:#4e5153;fill-opacity:1;stroke-width:0.129882"
               d="m 322.36141,627.16954 q -0.693,0 -1.30044,-0.25667 -0.59889,-0.26522 -1.05234,-0.73577 -0.44488,-0.47056 -0.70155,-1.09511 -0.25667,-0.62456 -0.25667,-1.34323 0,-0.71011 0.24811,-1.32611 0.25667,-0.62455 0.71011,-1.09511 0.45345,-0.47055 1.05234,-0.73577 0.59889,-0.26523 1.30044,-0.26523 0.65022,0 1.12933,0.17967 0.48767,0.17111 0.96678,0.56467 0.0684,0.0513 0.0941,0.11978 0.0342,0.0599 0.0257,0.11977 0,0.0599 -0.0171,0.12834 -0.009,0.12833 -0.11122,0.21388 -0.0941,0.077 -0.23956,0.0856 -0.13689,0.009 -0.26522,-0.0941 -0.32511,-0.28233 -0.68445,-0.42778 -0.35077,-0.14544 -0.89833,-0.14544 -0.52189,0 -0.98389,0.21389 -0.45344,0.21388 -0.80422,0.58177 -0.34222,0.36789 -0.539,0.85556 -0.19678,0.47911 -0.19678,1.02666 0,0.55612 0.19678,1.04378 0.19678,0.48767 0.539,0.85556 0.35078,0.36789 0.80422,0.57322 0.462,0.20533 0.98389,0.20533 0.45345,0 0.847,-0.14544 0.40211,-0.154 0.77,-0.42778 0.13689,-0.10267 0.27378,-0.0856 0.13689,0.009 0.231,0.11123 0.10266,0.0941 0.10266,0.26522 0,0.0856 -0.0342,0.16255 -0.0257,0.0684 -0.0941,0.12834 -0.45344,0.385 -0.98389,0.56466 -0.53044,0.17967 -1.11222,0.17967 z" />
            <path
               id="path1795"
               style="font-style:normal;font-variant:normal;font-weight:600;font-stretch:normal;font-size:8.55555px;font-family:Comfortaa;-inkscape-font-specification:'Comfortaa Semi-Bold';fill:#4e5153;fill-opacity:1;stroke-width:0.129882"
               d="m 327.19864,627.08398 q -0.154,0 -0.27378,-0.11122 -0.11978,-0.11978 -0.11978,-0.29089 v -5.3301 l -0.70155,0.27377 q -0.12834,0.0513 -0.23956,0.0513 -0.17111,0 -0.29089,-0.11123 -0.11122,-0.11122 -0.11122,-0.28233 0,-0.11978 0.0599,-0.22244 0.0599,-0.10267 0.19678,-0.154 l 1.33466,-0.47056 q 0.0428,-0.0171 0.0856,-0.0257 0.0428,-0.009 0.077,-0.009 0.17967,0 0.28233,0.11978 0.11122,0.11122 0.11122,0.28233 v 5.87766 q 0,0.17111 -0.11977,0.29089 -0.11122,0.11122 -0.29089,0.11122 z" />
          </g>
          <g
             style="font-style:normal;font-weight:normal;font-size:8.55555px;line-height:1.25;font-family:sans-serif;fill:#4e4c4c;fill-opacity:1;stroke:none;stroke-width:0.129882"
             id="text1107-9-10"
             aria-label="1">
            <path
               id="path1790"
               style="font-style:normal;font-variant:normal;font-weight:600;font-stretch:normal;font-size:8.55555px;font-family:Comfortaa;-inkscape-font-specification:'Comfortaa Semi-Bold';fill:#4e4c4c;fill-opacity:1;stroke-width:0.129882"
               d="m 425.55608,604.67407 q -0.154,0 -0.27378,-0.11122 -0.11978,-0.11978 -0.11978,-0.29089 v -5.33011 l -0.70155,0.27378 q -0.12834,0.0513 -0.23956,0.0513 -0.17111,0 -0.29089,-0.11122 -0.11122,-0.11122 -0.11122,-0.28233 0,-0.11978 0.0599,-0.22244 0.0599,-0.10267 0.19678,-0.154 l 1.33466,-0.47056 q 0.0428,-0.0171 0.0856,-0.0257 0.0428,-0.009 0.077,-0.009 0.17967,0 0.28233,0.11978 0.11122,0.11122 0.11122,0.28233 v 5.87766 q 0,0.17111 -0.11977,0.29089 -0.11122,0.11122 -0.29089,0.11122 z" />
          </g>
          <path
             d="m 476.11023,565.8941 h 15.51113 c 2.86437,0 5.17035,2.30598 5.17035,5.17035 v 0 c 0,2.86437 -2.30598,5.17035 -5.17035,5.17035 h -15.51113 c -2.86438,0 -5.17035,-2.30598 -5.17035,-5.17035 v 0 c 0,-2.86437 2.30597,-5.17035 5.17035,-5.17035 z"
             style="fill:#fed700;fill-opacity:1;stroke:none;stroke-width:0.588701;stroke-linecap:round;stroke-linejoin:round;stroke-miterlimit:4;stroke-dasharray:none"
             id="rect1504-1-0-3" />
          <g
             style="font-style:normal;font-weight:normal;font-size:8.55555px;line-height:1.25;font-family:sans-serif;fill:#4e5153;fill-opacity:1;stroke:none;stroke-width:0.129882"
             id="text1107-9-9"
             aria-label="OUT">
            <path
               id="path1782"
               style="font-style:normal;font-variant:normal;font-weight:500;font-stretch:normal;font-size:8.55555px;font-family:Comfortaa;-inkscape-font-specification:'Comfortaa Medium';fill:#4e5153;fill-opacity:1;stroke-width:0.129882"
               d="m 477.30797,574.46526 q -0.74433,0 -1.36889,-0.25667 -0.62455,-0.25667 -1.08655,-0.71011 -0.45345,-0.462 -0.70156,-1.08656 -0.24811,-0.63311 -0.24811,-1.37744 0,-0.74433 0.24811,-1.36889 0.24811,-0.62455 0.70156,-1.078 0.462,-0.462 1.08655,-0.71866 0.62456,-0.25667 1.36889,-0.25667 0.74433,0 1.36033,0.25667 0.62456,0.25666 1.08656,0.71866 0.462,0.45345 0.71011,1.078 0.24811,0.62456 0.24811,1.36889 0,0.74433 -0.24811,1.37744 -0.24811,0.62456 -0.71011,1.08656 -0.462,0.45344 -1.08656,0.71011 -0.616,0.25667 -1.36033,0.25667 z m 0,-0.693 q 0.58178,0 1.06944,-0.20534 0.49623,-0.20533 0.85556,-0.57322 0.35933,-0.37644 0.55611,-0.87267 0.20533,-0.50477 0.20533,-1.08655 0,-0.58178 -0.20533,-1.078 -0.19678,-0.49622 -0.55611,-0.86411 -0.35933,-0.37644 -0.85556,-0.58178 -0.48766,-0.20533 -1.06944,-0.20533 -0.58178,0 -1.078,0.20533 -0.48767,0.20534 -0.85555,0.58178 -0.35934,0.36789 -0.55612,0.86411 -0.19677,0.49622 -0.19677,1.078 0,0.58178 0.19677,1.08655 0.19678,0.49623 0.55612,0.87267 0.36788,0.36789 0.85555,0.57322 0.49622,0.20534 1.078,0.20534 z" />
            <path
               id="path1784"
               style="font-style:normal;font-variant:normal;font-weight:500;font-stretch:normal;font-size:8.55555px;font-family:Comfortaa;-inkscape-font-specification:'Comfortaa Medium';fill:#4e5153;fill-opacity:1;stroke-width:0.129882"
               d="m 484.81012,574.51659 q -0.78711,0 -1.40311,-0.29945 -0.616,-0.29944 -0.95822,-0.82988 -0.34223,-0.539 -0.34223,-1.22345 v -4.09811 q 0,-0.16255 0.10267,-0.26522 0.11122,-0.10266 0.26522,-0.10266 0.16256,0 0.26522,0.10266 0.11123,0.10267 0.11123,0.26522 v 4.09811 q 0,0.48767 0.24811,0.86411 0.24811,0.37645 0.693,0.59034 0.44489,0.20533 1.01811,0.20533 0.56466,0 1.001,-0.20533 0.43633,-0.21389 0.67588,-0.59034 0.24812,-0.37644 0.24812,-0.86411 v -4.09811 q 0,-0.16255 0.10266,-0.26522 0.11122,-0.10266 0.27378,-0.10266 0.16256,0 0.26522,0.10266 0.10267,0.10267 0.10267,0.26522 v 4.09811 q 0,0.68445 -0.34222,1.22345 -0.34223,0.53044 -0.94967,0.82988 -0.59889,0.29945 -1.37744,0.29945 z" />
            <path
               id="path1786"
               style="font-style:normal;font-variant:normal;font-weight:500;font-stretch:normal;font-size:8.55555px;font-family:Comfortaa;-inkscape-font-specification:'Comfortaa Medium';fill:#4e5153;fill-opacity:1;stroke-width:0.129882"
               d="m 491.14229,574.3797 q -0.154,0 -0.26522,-0.10267 -0.10267,-0.11122 -0.10267,-0.26522 v -6.31399 h 0.74434 v 6.31399 q 0,0.154 -0.11122,0.26522 -0.10267,0.10267 -0.26523,0.10267 z m -2.33566,-6.006 q -0.154,0 -0.24811,-0.0941 -0.0941,-0.0941 -0.0941,-0.23955 0,-0.154 0.0941,-0.24811 0.0941,-0.0941 0.24811,-0.0941 h 4.67988 q 0.154,0 0.24811,0.0941 0.0941,0.0941 0.0941,0.24811 0,0.14544 -0.0941,0.23955 -0.0941,0.0941 -0.24811,0.0941 z" />
          </g>
          <path
             style="fill:none;stroke:#4e5153;stroke-width:1.51494;stroke-linecap:round;stroke-linejoin:round;stroke-miterlimit:4;stroke-dasharray:none;stroke-opacity:1"
             d="m 343.54882,531.05198 v 8.68136 l 3.40104,2.0049 -7.51109,3.20392 8.14078,3.47256 -8.14078,3.47253 8.14078,3.47256 -8.14078,3.47253 4.07039,1.73629 V 569.25"
             id="path1279"
             sodipodi:nodetypes="cccccccccc" />
          <path
             d="m 346.14872,607.90692 a 2.6239972,2.6613202 0 0 1 -2.624,2.66132 2.6239972,2.6613202 0 0 1 -2.624,-2.66132 2.6239972,2.6613202 0 0 1 2.624,-2.66132 2.6239972,2.6613202 0 0 1 2.624,2.66132"
             inkscape:transform-center-y="0.072944278"
             inkscape:transform-center-x="-3.2587817"
             style="fill:#4e4c4c;fill-opacity:1;stroke:#4e4c4c;stroke-width:1.00591;stroke-linecap:round;stroke-linejoin:round;stroke-miterlimit:0.7;stroke-dasharray:none;stroke-dashoffset:0;stroke-opacity:1;paint-order:fill markers stroke"
             id="ellipse1285" />
          <path
             d="m 346.14872,568.43274 a 2.6239972,2.6613202 0 0 1 -2.624,2.66132 2.6239972,2.6613202 0 0 1 -2.624,-2.66132 2.6239972,2.6613202 0 0 1 2.624,-2.66132 2.6239972,2.6613202 0 0 1 2.624,2.66132"
             inkscape:transform-center-y="0.072944278"
             inkscape:transform-center-x="-3.2587817"
             style="fill:#4e4c4c;fill-opacity:1;stroke:#4e4c4c;stroke-width:1.00591;stroke-linecap:round;stroke-linejoin:round;stroke-miterlimit:0.7;stroke-dasharray:none;stroke-dashoffset:0;stroke-opacity:1;paint-order:fill markers stroke"
             id="ellipse1287" />
          <path
             id="path1289"
             d="M 283.71175,531.07847 H 446.9862 v 0"
             style="font-style:normal;font-weight:normal;font-size:8.32297px;line-height:1.25;font-family:sans-serif;fill:none;fill-opacity:1;stroke:#4e4c4c;stroke-width:1.51494;stroke-linecap:round;stroke-linejoin:miter;stroke-miterlimit:4;stroke-dasharray:none;stroke-opacity:1" />
          <path
             d="m 346.14872,531.07849 a 2.6239972,2.6613202 0 0 1 -2.624,2.66132 2.6239972,2.6613202 0 0 1 -2.624,-2.66132 2.6239972,2.6613202 0 0 1 2.624,-2.66132 2.6239972,2.6613202 0 0 1 2.624,2.66132"
             inkscape:transform-center-y="0.072944278"
             inkscape:transform-center-x="-3.2587817"
             style="fill:#4e4c4c;fill-opacity:1;stroke:#4e4c4c;stroke-width:1.00591;stroke-linecap:round;stroke-linejoin:round;stroke-miterlimit:0.7;stroke-dasharray:none;stroke-dashoffset:0;stroke-opacity:1;paint-order:fill markers stroke"
             id="ellipse1291" />
          <path
             id="path1310"
             d="m 283.85905,531.31048 v 46.14987 0"
             style="fill:none;stroke:#4e4c4c;stroke-width:1.51494;stroke-linecap:round;stroke-linejoin:miter;stroke-miterlimit:4;stroke-dasharray:none;stroke-opacity:1" />
          <path
             d="m 399.59082,549.7572 h 58.18232 v 58.93854 h -58.18232 z"
             style="fill:none;fill-opacity:1;stroke:#4e4c4c;stroke-width:1.74966;stroke-linecap:round;stroke-linejoin:round;stroke-miterlimit:4;stroke-dasharray:none;stroke-opacity:1"
             id="rect1312" />
          <path
             style="font-style:normal;font-weight:normal;font-size:8.32297px;line-height:1.25;font-family:sans-serif;fill:none;fill-opacity:1;stroke:#4e4c4c;stroke-width:1.67815;stroke-linecap:butt;stroke-linejoin:miter;stroke-miterlimit:4;stroke-dasharray:none;stroke-opacity:1"
             d="m 447.27686,646.09853 v -16.01686 0"
             id="path1412" />
          <path
             id="path1414"
             d="m 447.27686,623.31158 v -15.41286 0"
             style="font-style:normal;font-weight:normal;font-size:8.32297px;line-height:1.25;font-family:sans-serif;fill:none;fill-opacity:1;stroke:#4e4c4c;stroke-width:1.67815;stroke-linecap:butt;stroke-linejoin:miter;stroke-miterlimit:4;stroke-dasharray:none;stroke-opacity:1" />
          <path
             style="font-style:normal;font-weight:normal;font-size:8.32297px;line-height:1.25;font-family:sans-serif;fill:none;fill-opacity:1;stroke:#4e4c4c;stroke-width:1.67815;stroke-linecap:round;stroke-linejoin:miter;stroke-miterlimit:4;stroke-dasharray:none;stroke-opacity:1"
             d="m 453.40949,630.00116 h -12.02612 v 0"
             id="path1416" />
          <path
             id="path1418"
             d="m 453.42189,623.52603 h -12.02611 v 0"
             style="font-style:normal;font-weight:normal;font-size:8.32297px;line-height:1.25;font-family:sans-serif;fill:none;fill-opacity:1;stroke:#4e4c4c;stroke-width:1.67815;stroke-linecap:round;stroke-linejoin:miter;stroke-miterlimit:4;stroke-dasharray:none;stroke-opacity:1" />
          <path
             d="m 449.90082,643.383 a 2.6239972,2.6613202 0 0 1 -2.624,2.66132 2.6239972,2.6613202 0 0 1 -2.62399,-2.66132 2.6239972,2.6613202 0 0 1 2.62399,-2.66132 2.6239972,2.6613202 0 0 1 2.624,2.66132"
             inkscape:transform-center-y="0.072944278"
             inkscape:transform-center-x="-3.2587817"
             style="fill:#4e4c4c;fill-opacity:1;stroke:#4e4c4c;stroke-width:1.00591;stroke-linecap:round;stroke-linejoin:round;stroke-miterlimit:0.7;stroke-dasharray:none;stroke-dashoffset:0;stroke-opacity:1;paint-order:fill markers stroke"
             id="ellipse1422" />
          <path
             style="font-style:normal;font-weight:normal;font-size:8.32297px;line-height:1.25;font-family:sans-serif;fill:none;fill-opacity:1;stroke:#4e4c4c;stroke-width:1.51494;stroke-linecap:butt;stroke-linejoin:miter;stroke-miterlimit:4;stroke-dasharray:none;stroke-opacity:1"
             d="m 424.89302,643.07369 v -33.71219 0"
             id="path1445" />
          <path
             d="m 427.51697,643.383 a 2.6239972,2.6613202 0 0 1 -2.624,2.66132 2.6239972,2.6613202 0 0 1 -2.62399,-2.66132 2.6239972,2.6613202 0 0 1 2.62399,-2.66132 2.6239972,2.6613202 0 0 1 2.624,2.66132"
             inkscape:transform-center-y="0.072944278"
             inkscape:transform-center-x="-3.2587817"
             style="fill:#4e4c4c;fill-opacity:1;stroke:#4e4c4c;stroke-width:1.00591;stroke-linecap:round;stroke-linejoin:round;stroke-miterlimit:0.7;stroke-dasharray:none;stroke-dashoffset:0;stroke-opacity:1;paint-order:fill markers stroke"
             id="ellipse1447" />
          <g
             style="font-style:normal;font-weight:normal;font-size:8.55555px;line-height:1.25;font-family:sans-serif;fill:#4e4c4c;fill-opacity:1;stroke:none;stroke-width:0.129882"
             id="text1487"
             aria-label="5">
            <path
               id="path1773"
               style="font-style:normal;font-variant:normal;font-weight:600;font-stretch:normal;font-size:8.55555px;font-family:Comfortaa;-inkscape-font-specification:'Comfortaa Semi-Bold';fill:#4e4c4c;fill-opacity:1;stroke-width:0.129882"
               d="m 447.43085,604.67407 q -0.62456,0 -1.11222,-0.28233 -0.48767,-0.29089 -0.77856,-0.77856 -0.28233,-0.49622 -0.28233,-1.12077 0,-0.17111 0.11122,-0.28234 0.11122,-0.11977 0.28234,-0.11977 0.17111,0 0.29088,0.11977 0.11978,0.11123 0.11978,0.28234 0,0.39355 0.17967,0.71011 0.17967,0.308 0.48766,0.48766 0.308,0.17967 0.70156,0.17967 0.39356,0 0.70156,-0.17967 0.30799,-0.17966 0.48766,-0.48766 0.17967,-0.31656 0.17967,-0.71011 0,-0.39356 -0.17967,-0.70156 -0.17967,-0.308 -0.48766,-0.48766 -0.308,-0.17967 -0.70156,-0.17967 h -1.45444 q -0.17111,0 -0.28234,-0.11122 -0.11122,-0.11978 -0.11122,-0.29089 v -2.32711 q 0,-0.17111 0.11122,-0.28233 0.11123,-0.11978 0.28234,-0.11978 h 2.90888 q 0.16256,0 0.28234,0.11978 0.11977,0.11977 0.11977,0.28233 0,0.16255 -0.11977,0.28233 -0.11123,0.11978 -0.28234,0.11978 h -2.50677 v 1.52289 h 1.05233 q 0.62456,0 1.11222,0.29089 0.48767,0.28233 0.77,0.77855 0.29089,0.48767 0.29089,1.10367 0,0.616 -0.29089,1.11222 -0.28233,0.49622 -0.77,0.78711 -0.48766,0.28233 -1.11222,0.28233 z" />
          </g>
          <path
             sodipodi:nodetypes="cccc"
             id="path1489"
             d="m 400.18014,595.6815 h -21.77887 v 12.25061 h -33.91605"
             style="fill:none;stroke:#4e4c4c;stroke-width:1.51494;stroke-linecap:butt;stroke-linejoin:miter;stroke-miterlimit:4;stroke-dasharray:none;stroke-opacity:1" />
          <g
             style="font-style:normal;font-weight:normal;font-size:8.55555px;line-height:1.25;font-family:sans-serif;fill:#4e4c4c;fill-opacity:1;stroke:none;stroke-width:0.129882"
             id="text1107-9-10-7"
             aria-label="2">
            <path
               id="path1770"
               style="font-style:normal;font-variant:normal;font-weight:600;font-stretch:normal;font-size:8.55555px;font-family:Comfortaa;-inkscape-font-specification:'Comfortaa Semi-Bold';fill:#4e4c4c;fill-opacity:1;stroke-width:0.129882"
               d="m 405.53359,599.02081 q -0.17111,0 -0.29089,-0.11122 -0.11122,-0.11978 -0.11122,-0.29089 0,-0.17111 0.11122,-0.28233 l 2.48111,-2.91744 q 0.24811,-0.27378 0.385,-0.54756 0.13689,-0.27378 0.13689,-0.51333 0,-0.385 -0.14544,-0.66733 -0.13689,-0.29089 -0.39356,-0.44489 -0.24811,-0.16256 -0.59889,-0.16256 -0.33366,0 -0.60744,0.17967 -0.27378,0.17111 -0.42778,0.462 -0.154,0.28233 -0.154,0.63311 0,0.16255 -0.11978,0.28233 -0.11122,0.11122 -0.28233,0.11122 -0.16256,0 -0.28233,-0.11122 -0.11978,-0.11978 -0.11978,-0.28233 0,-0.58178 0.25667,-1.03522 0.26522,-0.45345 0.71866,-0.71867 0.45345,-0.26522 1.01811,-0.26522 0.57322,0 1.001,0.24811 0.43633,0.24811 0.66733,0.70155 0.23956,0.45345 0.23956,1.06945 0,0.27378 -0.11122,0.54755 -0.10267,0.27378 -0.27378,0.53045 -0.16256,0.24811 -0.34222,0.45344 l -2.03622,2.32711 h 2.48966 q 0.17111,0 0.29089,0.12833 0.11978,0.11978 0.11978,0.27378 0,0.17111 -0.11978,0.29089 -0.11978,0.11122 -0.29089,0.11122 z" />
          </g>
          <g
             style="font-style:normal;font-weight:normal;font-size:8.55555px;line-height:1.25;font-family:sans-serif;fill:#4e4c4c;fill-opacity:1;stroke:none;stroke-width:0.129882"
             id="text1511"
             aria-label="6">
            <path
               id="path1767"
               style="font-style:normal;font-variant:normal;font-weight:600;font-stretch:normal;font-size:8.55555px;font-family:Comfortaa;-inkscape-font-specification:'Comfortaa Semi-Bold';fill:#4e4c4c;fill-opacity:1;stroke-width:0.129882"
               d="m 407.13348,582.12378 q -0.59033,0 -1.05233,-0.25667 -0.45345,-0.26522 -0.71011,-0.71866 -0.25667,-0.462 -0.25667,-1.04378 0,-0.59033 0.25667,-1.04378 0.25666,-0.462 0.71011,-0.71866 0.462,-0.26523 1.05233,-0.26523 0.58178,0 1.03522,0.26523 0.45344,0.25666 0.71011,0.71866 0.25667,0.45345 0.25667,1.04378 0,0.58178 -0.25667,1.04378 -0.25667,0.45344 -0.71011,0.71866 -0.45344,0.25667 -1.03522,0.25667 z m -0.009,-0.71867 q 0.35934,0 0.64167,-0.16255 0.29089,-0.17111 0.45344,-0.462 0.16256,-0.29945 0.16256,-0.67589 0,-0.385 -0.16256,-0.67589 -0.16255,-0.29944 -0.45344,-0.47055 -0.28233,-0.17112 -0.64167,-0.17112 -0.36789,0 -0.65022,0.17112 -0.28233,0.17111 -0.44489,0.47055 -0.154,0.29089 -0.154,0.67589 0,0.37644 0.154,0.67589 0.16256,0.29089 0.44489,0.462 0.28233,0.16255 0.65022,0.16255 z m -1.73677,-2.36988 2.02766,-3.37089 q 0.13689,-0.21389 0.35933,-0.21389 0.16256,0 0.27378,0.0941 0.11122,0.0941 0.13689,0.23956 0.0257,0.13689 -0.0599,0.27377 l -1.27477,2.11323 z" />
          </g>
          <g
             style="font-style:normal;font-weight:normal;font-size:8.55555px;line-height:1.25;font-family:sans-serif;fill:#4e4c4c;fill-opacity:1;stroke:none;stroke-width:0.129882"
             id="text1515"
             aria-label="7">
            <path
               id="path1764"
               style="font-style:normal;font-variant:normal;font-weight:600;font-stretch:normal;font-size:8.55555px;font-family:Comfortaa;-inkscape-font-specification:'Comfortaa Semi-Bold';fill:#4e4c4c;fill-opacity:1;stroke-width:0.129882"
               d="m 405.84159,564.97614 q -0.16255,0 -0.28233,-0.11123 -0.11978,-0.11977 -0.11978,-0.29089 0,-0.0599 0.0171,-0.11977 0.0257,-0.0599 0.0599,-0.13689 l 2.48966,-5.21889 h -2.72066 q -0.17111,0 -0.29089,-0.11122 -0.11122,-0.11978 -0.11122,-0.29089 0,-0.17111 0.11122,-0.28233 0.11978,-0.11978 0.29089,-0.11978 h 3.33666 q 0.16256,0 0.28234,0.11978 0.11977,0.11122 0.11977,0.28233 0,0.0513 -0.0171,0.10267 -0.0171,0.0513 -0.0428,0.11122 l -2.75489,5.84344 q -0.12833,0.22245 -0.36789,0.22245 z" />
          </g>
          <path
             id="path1519"
             d="m 399.68836,561.46664 h -40.609 v 7.16769 H 344.4064"
             style="fill:none;stroke:#4e4c4c;stroke-width:1.51494;stroke-linecap:butt;stroke-linejoin:round;stroke-miterlimit:4;stroke-dasharray:none;stroke-opacity:1" />
          <path
             id="path1521"
             d="m 424.89302,549.81928 v -18.7399 0"
             style="font-style:normal;font-weight:normal;font-size:8.32297px;line-height:1.25;font-family:sans-serif;fill:none;fill-opacity:1;stroke:#4e4c4c;stroke-width:1.51494;stroke-linecap:butt;stroke-linejoin:miter;stroke-miterlimit:4;stroke-dasharray:none;stroke-opacity:1" />
          <path
             style="font-style:normal;font-weight:normal;font-size:8.32297px;line-height:1.25;font-family:sans-serif;fill:none;fill-opacity:1;stroke:#4e4c4c;stroke-width:1.51494;stroke-linecap:butt;stroke-linejoin:miter;stroke-miterlimit:4;stroke-dasharray:none;stroke-opacity:1"
             d="m 447.42537,549.81928 v -18.7399 0"
             id="path1523" />
          <g
             style="font-style:normal;font-weight:normal;font-size:8.55555px;line-height:1.25;font-family:sans-serif;fill:#4e4c4c;fill-opacity:1;stroke:none;stroke-width:0.129882"
             id="text1527"
             aria-label="4">
            <path
               id="path1761"
               style="font-style:normal;font-variant:normal;font-weight:600;font-stretch:normal;font-size:8.55555px;font-family:Comfortaa;-inkscape-font-specification:'Comfortaa Semi-Bold';fill:#4e4c4c;fill-opacity:1;stroke-width:0.129882"
               d="m 426.13101,561.22699 q -0.16255,0 -0.27377,-0.11122 -0.11123,-0.11978 -0.11123,-0.29089 v -1.13789 h -2.91744 q -0.17966,0 -0.28233,-0.11122 -0.10267,-0.11122 -0.11978,-0.25667 -0.009,-0.14544 0.077,-0.26522 l 3.31955,-4.33766 q 0.0599,-0.077 0.13689,-0.11978 0.0856,-0.0513 0.18822,-0.0513 0.17112,0 0.27378,0.11977 0.10267,0.11123 0.10267,0.29089 v 4.004 h 0.56467 q 0.17111,0 0.28233,0.0855 0.11978,0.077 0.11978,0.28234 0,0.14544 -0.11978,0.25666 -0.11122,0.10267 -0.28233,0.10267 h -0.56467 v 1.13789 q 0,0.17111 -0.11122,0.29089 -0.11123,0.11122 -0.28234,0.11122 z m -2.84044,-2.01911 -0.19678,-0.24811 h 2.65222 v -3.57622 l 0.23956,0.29089 z" />
          </g>
          <g
             style="font-style:normal;font-weight:normal;font-size:8.55555px;line-height:1.25;font-family:sans-serif;fill:#4e4c4c;fill-opacity:1;stroke:none;stroke-width:0.129882"
             id="text1531"
             aria-label="8">
            <path
               id="path1758"
               style="font-style:normal;font-variant:normal;font-weight:600;font-stretch:normal;font-size:8.55555px;font-family:Comfortaa;-inkscape-font-specification:'Comfortaa Semi-Bold';fill:#4e4c4c;fill-opacity:1;stroke-width:0.129882"
               d="m 447.04752,561.23555 q -0.56467,0 -1.01811,-0.26523 -0.45345,-0.27377 -0.71011,-0.73577 -0.25667,-0.47056 -0.25667,-1.05234 0,-0.56466 0.25667,-1.00955 0.25666,-0.45345 0.70155,-0.71011 0.45345,-0.25667 1.02667,-0.25667 0.56466,0 1.00955,0.25667 0.45345,0.25666 0.71011,0.71011 0.26522,0.44489 0.25667,1.00955 0,0.58178 -0.26522,1.05234 -0.25667,0.462 -0.70156,0.73577 -0.44489,0.26523 -1.00955,0.26523 z m 0,-0.72723 q 0.33366,0 0.59889,-0.17966 0.27377,-0.17967 0.42777,-0.47911 0.154,-0.29945 0.154,-0.66734 0.009,-0.35933 -0.14544,-0.64166 -0.154,-0.28234 -0.42778,-0.44489 -0.26522,-0.17111 -0.60744,-0.17111 -0.34222,0 -0.616,0.17111 -0.26522,0.16255 -0.41922,0.44489 -0.154,0.28233 -0.154,0.64166 0,0.36789 0.14544,0.66734 0.154,0.29944 0.42778,0.47911 0.27378,0.17966 0.616,0.17966 z m 0,-2.70355 q -0.47911,0 -0.86411,-0.21389 -0.37645,-0.21389 -0.59889,-0.58178 -0.21389,-0.36788 -0.21389,-0.82988 0,-0.47912 0.21389,-0.85556 0.22244,-0.37644 0.59889,-0.59889 0.385,-0.22244 0.86411,-0.22244 0.47911,-0.009 0.85555,0.21389 0.385,0.21389 0.59889,0.59888 0.22244,0.37645 0.21389,0.86412 0,0.462 -0.22245,0.82988 -0.21388,0.36789 -0.59888,0.58178 -0.37645,0.21389 -0.847,0.21389 z m 0,-0.66733 q 0.25666,0 0.45344,-0.12834 0.20533,-0.13689 0.32511,-0.35933 0.11978,-0.22244 0.11978,-0.48767 0.009,-0.26522 -0.11122,-0.47055 -0.11978,-0.21389 -0.32511,-0.33367 -0.19678,-0.11977 -0.462,-0.11977 -0.385,0 -0.64167,0.26522 -0.25667,0.25666 -0.26522,0.65877 -0.009,0.40212 0.24811,0.693 0.26522,0.28234 0.65878,0.28234 z" />
          </g>
          <g
             style="font-style:normal;font-weight:normal;font-size:8.55555px;line-height:1.25;font-family:sans-serif;fill:#4e4c4c;fill-opacity:1;stroke:none;stroke-width:0.129882"
             id="text1535"
             aria-label="0.1nF">
            <path
               id="path1747"
               style="font-style:normal;font-variant:normal;font-weight:600;font-stretch:normal;font-size:8.55555px;font-family:Comfortaa;-inkscape-font-specification:'Comfortaa Semi-Bold';fill:#4e4c4c;fill-opacity:1;stroke-width:0.129882"
               d="m 459.53217,629.94519 q -0.65022,0 -1.10366,-0.39355 -0.45345,-0.40212 -0.693,-1.14645 -0.23956,-0.75289 -0.23956,-1.80522 0,-1.05233 0.23956,-1.79666 0.23955,-0.75289 0.693,-1.14645 0.45344,-0.40211 1.10366,-0.40211 0.65023,0 1.10367,0.41067 0.45344,0.40211 0.693,1.155 0.23956,0.74433 0.23956,1.77955 0,1.03522 -0.23956,1.78811 -0.23956,0.74433 -0.693,1.155 -0.45344,0.40211 -1.10367,0.40211 z m 0,-0.81278 q 0.41067,0 0.68445,-0.32511 0.27378,-0.33366 0.40211,-0.90689 0.13689,-0.57322 0.13689,-1.30044 0,-0.72722 -0.13689,-1.30044 -0.13689,-0.57322 -0.41067,-0.90689 -0.26522,-0.33367 -0.67589,-0.33367 -0.41922,0 -0.69299,0.33367 -0.26523,0.32511 -0.40212,0.89833 -0.12833,0.57322 -0.12833,1.309 0,0.73578 0.12833,1.309 0.13689,0.56467 0.41067,0.89833 0.27378,0.32511 0.68444,0.32511 z" />
            <path
               id="path1749"
               style="font-style:normal;font-variant:normal;font-weight:600;font-stretch:normal;font-size:8.55555px;font-family:Comfortaa;-inkscape-font-specification:'Comfortaa Semi-Bold';fill:#4e4c4c;fill-opacity:1;stroke-width:0.129882"
               d="m 462.64733,630.08208 q -0.22244,0 -0.39355,-0.16256 -0.16256,-0.17111 -0.16256,-0.39355 0,-0.23956 0.16256,-0.40211 0.17111,-0.17111 0.39355,-0.17111 0.23956,0 0.40211,0.17111 0.16256,0.16255 0.16256,0.40211 0,0.22244 -0.16256,0.39355 -0.16255,0.16256 -0.40211,0.16256 z" />
            <path
               id="path1751"
               style="font-style:normal;font-variant:normal;font-weight:600;font-stretch:normal;font-size:8.55555px;font-family:Comfortaa;-inkscape-font-specification:'Comfortaa Semi-Bold';fill:#4e4c4c;fill-opacity:1;stroke-width:0.129882"
               d="m 465.68856,629.94519 q -0.154,0 -0.27378,-0.11122 -0.11977,-0.11978 -0.11977,-0.29089 v -5.33011 l -0.70156,0.27378 q -0.12833,0.0513 -0.23955,0.0513 -0.17112,0 -0.29089,-0.11122 -0.11123,-0.11122 -0.11123,-0.28233 0,-0.11978 0.0599,-0.22245 0.0599,-0.10266 0.19678,-0.154 l 1.33467,-0.47055 q 0.0428,-0.0171 0.0856,-0.0257 0.0428,-0.009 0.077,-0.009 0.17967,0 0.28234,0.11977 0.11122,0.11123 0.11122,0.28234 v 5.87766 q 0,0.17111 -0.11978,0.29089 -0.11122,0.11122 -0.29089,0.11122 z" />
            <path
               id="path1753"
               style="font-style:normal;font-variant:normal;font-weight:600;font-stretch:normal;font-size:8.55555px;font-family:Comfortaa;-inkscape-font-specification:'Comfortaa Semi-Bold';fill:#4e4c4c;fill-opacity:1;stroke-width:0.129882"
               d="m 471.7003,629.95375 q -0.17111,0 -0.29088,-0.11123 -0.11123,-0.11977 -0.11123,-0.29088 v -2.14745 q 0,-0.49622 -0.18822,-0.81278 -0.17966,-0.32511 -0.50478,-0.47911 -0.31655,-0.16255 -0.71866,-0.16255 -0.385,0 -0.693,0.154 -0.29945,0.154 -0.47911,0.41067 -0.17967,0.25666 -0.17967,0.58177 h -0.52189 q 0.009,-0.539 0.27378,-0.95822 0.26522,-0.42778 0.71867,-0.66733 0.45344,-0.24811 1.01811,-0.24811 0.59033,0 1.06089,0.25666 0.47055,0.24811 0.74433,0.73578 0.27378,0.48767 0.27378,1.18922 v 2.14745 q 0,0.17111 -0.11978,0.29088 -0.11122,0.11123 -0.28234,0.11123 z m -3.56766,0 q -0.17967,0 -0.29089,-0.11123 -0.11122,-0.11977 -0.11122,-0.29088 v -3.88422 q 0,-0.17967 0.11122,-0.29089 0.11122,-0.11123 0.29089,-0.11123 0.17967,0 0.29089,0.11123 0.11122,0.11122 0.11122,0.29089 v 3.88422 q 0,0.17111 -0.11122,0.29088 -0.11122,0.11123 -0.29089,0.11123 z" />
            <path
               id="path1755"
               style="font-style:normal;font-variant:normal;font-weight:600;font-stretch:normal;font-size:8.55555px;font-family:Comfortaa;-inkscape-font-specification:'Comfortaa Semi-Bold';fill:#4e4c4c;fill-opacity:1;stroke-width:0.129882"
               d="m 473.50285,629.94519 q -0.17111,0 -0.29089,-0.11978 -0.11977,-0.11977 -0.11977,-0.29089 v -5.86055 q 0,-0.17966 0.11977,-0.29089 0.11978,-0.11977 0.29089,-0.11977 h 3.91844 q 0.17967,0 0.29089,0.11122 0.11123,0.10266 0.11123,0.27378 0,0.16255 -0.11123,0.27377 -0.11122,0.10267 -0.29089,0.10267 h -3.50777 v 2.17311 h 2.52389 q 0.17966,0 0.29088,0.11122 0.11123,0.10267 0.11123,0.27378 0,0.16255 -0.11123,0.27378 -0.11122,0.10266 -0.29088,0.10266 h -2.52389 v 2.57522 q 0,0.17112 -0.11978,0.29089 -0.11978,0.11978 -0.29089,0.11978 z" />
          </g>
          <path
             d="m 449.90082,531.31647 a 2.6239972,2.6613202 0 0 1 -2.624,2.66132 2.6239972,2.6613202 0 0 1 -2.62399,-2.66132 2.6239972,2.6613202 0 0 1 2.62399,-2.66132 2.6239972,2.6613202 0 0 1 2.624,2.66132"
             inkscape:transform-center-y="0.072944278"
             inkscape:transform-center-x="-3.2587817"
             style="fill:#4e4c4c;fill-opacity:1;stroke:#4e4c4c;stroke-width:1.00591;stroke-linecap:round;stroke-linejoin:round;stroke-miterlimit:0.7;stroke-dasharray:none;stroke-dashoffset:0;stroke-opacity:1;paint-order:fill markers stroke"
             id="ellipse1537" />
          <path
             d="m 427.51697,531.31647 a 2.6239972,2.6613202 0 0 1 -2.624,2.66132 2.6239972,2.6613202 0 0 1 -2.62399,-2.66132 2.6239972,2.6613202 0 0 1 2.62399,-2.66132 2.6239972,2.6613202 0 0 1 2.624,2.66132"
             inkscape:transform-center-y="0.072944278"
             inkscape:transform-center-x="-3.2587817"
             style="fill:#4e4c4c;fill-opacity:1;stroke:#4e4c4c;stroke-width:1.00591;stroke-linecap:round;stroke-linejoin:round;stroke-miterlimit:0.7;stroke-dasharray:none;stroke-dashoffset:0;stroke-opacity:1;paint-order:fill markers stroke"
             id="ellipse1539" />
          <g
             style="font-style:normal;font-weight:normal;font-size:8.55555px;line-height:1.25;font-family:sans-serif;fill:#4e4c4c;fill-opacity:1;stroke:none;stroke-width:0.129882"
             id="text1547"
             aria-label="3">
            <path
               id="path1742"
               style="font-style:normal;font-variant:normal;font-weight:600;font-stretch:normal;font-size:8.55555px;font-family:Comfortaa;-inkscape-font-specification:'Comfortaa Semi-Bold';fill:#4e4c4c;fill-opacity:1;stroke-width:0.129882"
               d="m 451.50657,582.14089 q -0.62456,0 -1.12078,-0.26522 -0.48766,-0.27378 -0.77,-0.73578 -0.27377,-0.462 -0.27377,-1.03522 0,-0.17967 0.10266,-0.29944 0.11122,-0.11978 0.26522,-0.11978 0.16256,0 0.26523,0.11978 0.10266,0.11977 0.10266,0.29944 0,0.35933 0.17967,0.66733 0.18822,0.29945 0.49622,0.47911 0.31656,0.17111 0.71011,0.17111 0.59889,0 0.94967,-0.32511 0.35933,-0.33366 0.35933,-0.90688 0,-0.385 -0.16255,-0.67589 -0.16256,-0.29945 -0.44489,-0.47056 -0.27378,-0.17111 -0.62456,-0.17111 -0.17111,0 -0.29089,-0.11122 -0.11122,-0.11978 -0.11122,-0.29945 0,-0.17111 0.11122,-0.28233 0.11978,-0.11122 0.29089,-0.11122 0.25667,0 0.48767,-0.12833 0.23955,-0.13689 0.385,-0.35934 0.14544,-0.22244 0.14544,-0.50477 0,-0.40212 -0.28233,-0.66734 -0.28233,-0.27378 -0.74433,-0.27378 -0.33367,0 -0.60745,0.13689 -0.27378,0.12834 -0.43633,0.35078 -0.154,0.21389 -0.154,0.49622 0,0.17967 -0.10267,0.29945 -0.10266,0.11977 -0.26522,0.11977 -0.154,0 -0.26522,-0.11122 -0.10267,-0.11978 -0.10267,-0.29089 0,-0.48766 0.24811,-0.87266 0.25667,-0.39356 0.693,-0.616 0.43634,-0.22245 0.98389,-0.22245 0.50478,0 0.90689,0.22245 0.40211,0.21389 0.63311,0.59033 0.23955,0.36789 0.23955,0.83845 0,0.32511 -0.14544,0.59033 -0.14544,0.25666 -0.37644,0.45344 -0.231,0.19678 -0.49623,0.31656 0.44489,0.14544 0.72723,0.41066 0.29088,0.25667 0.41922,0.60745 0.13689,0.34222 0.13689,0.73578 0,0.56466 -0.28234,1.00955 -0.27377,0.43633 -0.74433,0.693 -0.47055,0.24811 -1.03522,0.24811 z" />
          </g>
          <g
             style="font-style:normal;font-weight:normal;font-size:8.55555px;line-height:1.25;font-family:sans-serif;fill:#4e4c4c;fill-opacity:1;stroke:none;stroke-width:0.129882"
             id="text1556"
             aria-label="555">
            <path
               id="path1735"
               style="font-style:normal;font-variant:normal;font-weight:600;font-stretch:normal;font-size:8.55555px;font-family:Comfortaa;-inkscape-font-specification:'Comfortaa Semi-Bold';fill:#4e4c4c;fill-opacity:1;stroke-width:0.129882"
               d="m 423.30133,582.12378 q -0.62455,0 -1.11222,-0.28233 -0.48766,-0.29089 -0.77855,-0.77856 -0.28234,-0.49622 -0.28234,-1.12078 0,-0.17111 0.11123,-0.28233 0.11122,-0.11978 0.28233,-0.11978 0.17111,0 0.29089,0.11978 0.11978,0.11122 0.11978,0.28233 0,0.39356 0.17966,0.71011 0.17967,0.308 0.48767,0.48767 0.308,0.17967 0.70155,0.17967 0.39356,0 0.70156,-0.17967 0.308,-0.17967 0.48766,-0.48767 0.17967,-0.31655 0.17967,-0.71011 0,-0.39355 -0.17967,-0.70155 -0.17966,-0.308 -0.48766,-0.48767 -0.308,-0.17966 -0.70156,-0.17966 h -1.45444 q -0.17111,0 -0.28233,-0.11123 -0.11123,-0.11977 -0.11123,-0.29088 v -2.32711 q 0,-0.17112 0.11123,-0.28234 0.11122,-0.11977 0.28233,-0.11977 h 2.90889 q 0.16255,0 0.28233,0.11977 0.11978,0.11978 0.11978,0.28234 0,0.16255 -0.11978,0.28233 -0.11122,0.11978 -0.28233,0.11978 H 422.249 v 1.52288 h 1.05233 q 0.62456,0 1.11222,0.29089 0.48767,0.28234 0.77,0.77856 0.29089,0.48766 0.29089,1.10366 0,0.616 -0.29089,1.11223 -0.28233,0.49622 -0.77,0.78711 -0.48766,0.28233 -1.11222,0.28233 z" />
            <path
               id="path1737"
               style="font-style:normal;font-variant:normal;font-weight:600;font-stretch:normal;font-size:8.55555px;font-family:Comfortaa;-inkscape-font-specification:'Comfortaa Semi-Bold';fill:#4e4c4c;fill-opacity:1;stroke-width:0.129882"
               d="m 428.68197,582.12378 q -0.62455,0 -1.11222,-0.28233 -0.48767,-0.29089 -0.77855,-0.77856 -0.28234,-0.49622 -0.28234,-1.12078 0,-0.17111 0.11122,-0.28233 0.11123,-0.11978 0.28234,-0.11978 0.17111,0 0.29089,0.11978 0.11977,0.11122 0.11977,0.28233 0,0.39356 0.17967,0.71011 0.17967,0.308 0.48767,0.48767 0.308,0.17967 0.70155,0.17967 0.39356,0 0.70156,-0.17967 0.308,-0.17967 0.48766,-0.48767 0.17967,-0.31655 0.17967,-0.71011 0,-0.39355 -0.17967,-0.70155 -0.17966,-0.308 -0.48766,-0.48767 -0.308,-0.17966 -0.70156,-0.17966 h -1.45444 q -0.17111,0 -0.28233,-0.11123 -0.11123,-0.11977 -0.11123,-0.29088 v -2.32711 q 0,-0.17112 0.11123,-0.28234 0.11122,-0.11977 0.28233,-0.11977 h 2.90889 q 0.16255,0 0.28233,0.11977 0.11978,0.11978 0.11978,0.28234 0,0.16255 -0.11978,0.28233 -0.11122,0.11978 -0.28233,0.11978 h -2.50678 v 1.52288 h 1.05233 q 0.62456,0 1.11222,0.29089 0.48767,0.28234 0.77,0.77856 0.29089,0.48766 0.29089,1.10366 0,0.616 -0.29089,1.11223 -0.28233,0.49622 -0.77,0.78711 -0.48766,0.28233 -1.11222,0.28233 z" />
            <path
               id="path1739"
               style="font-style:normal;font-variant:normal;font-weight:600;font-stretch:normal;font-size:8.55555px;font-family:Comfortaa;-inkscape-font-specification:'Comfortaa Semi-Bold';fill:#4e4c4c;fill-opacity:1;stroke-width:0.129882"
               d="m 434.06261,582.12378 q -0.62455,0 -1.11222,-0.28233 -0.48767,-0.29089 -0.77856,-0.77856 -0.28233,-0.49622 -0.28233,-1.12078 0,-0.17111 0.11122,-0.28233 0.11123,-0.11978 0.28234,-0.11978 0.17111,0 0.29088,0.11978 0.11978,0.11122 0.11978,0.28233 0,0.39356 0.17967,0.71011 0.17967,0.308 0.48767,0.48767 0.308,0.17967 0.70155,0.17967 0.39356,0 0.70156,-0.17967 0.308,-0.17967 0.48766,-0.48767 0.17967,-0.31655 0.17967,-0.71011 0,-0.39355 -0.17967,-0.70155 -0.17966,-0.308 -0.48766,-0.48767 -0.308,-0.17966 -0.70156,-0.17966 h -1.45444 q -0.17111,0 -0.28234,-0.11123 -0.11122,-0.11977 -0.11122,-0.29088 v -2.32711 q 0,-0.17112 0.11122,-0.28234 0.11123,-0.11977 0.28234,-0.11977 h 2.90888 q 0.16256,0 0.28234,0.11977 0.11977,0.11978 0.11977,0.28234 0,0.16255 -0.11977,0.28233 -0.11123,0.11978 -0.28234,0.11978 h -2.50677 v 1.52288 h 1.05233 q 0.62456,0 1.11222,0.29089 0.48767,0.28234 0.77,0.77856 0.29089,0.48766 0.29089,1.10366 0,0.616 -0.29089,1.11223 -0.28233,0.49622 -0.77,0.78711 -0.48766,0.28233 -1.11222,0.28233 z" />
          </g>
          <path
             id="path1728"
             d="m 343.52475,606.71186 v -39.61051 0"
             style="font-style:normal;font-weight:normal;font-size:8.32297px;line-height:1.25;font-family:sans-serif;fill:none;fill-opacity:1;stroke:#4e4c4c;stroke-width:1.51493817;stroke-linecap:butt;stroke-linejoin:miter;stroke-miterlimit:4;stroke-dasharray:none;stroke-opacity:1" />
          <path
             id="path1730"
             d="M 399.67708,579.27643 H 369.1976 v 9.61243 h -25.56341"
             style="fill:none;stroke:#4e4c4c;stroke-width:1.51494;stroke-linecap:butt;stroke-linejoin:miter;stroke-miterlimit:4;stroke-dasharray:none;stroke-opacity:1" />
          <path
             d="m 346.14872,588.77478 a 2.6239972,2.6613202 0 0 1 -2.624,2.66132 2.6239972,2.6613202 0 0 1 -2.624,-2.66132 2.6239972,2.6613202 0 0 1 2.624,-2.66132 2.6239972,2.6613202 0 0 1 2.624,2.66132"
             inkscape:transform-center-y="0.072944278"
             inkscape:transform-center-x="-3.2587817"
             style="fill:#4e4c4c;fill-opacity:1;stroke:#4e4c4c;stroke-width:1.00591;stroke-linecap:round;stroke-linejoin:round;stroke-miterlimit:0.7;stroke-dasharray:none;stroke-dashoffset:0;stroke-opacity:1;paint-order:fill markers stroke"
             id="ellipse1732" />
        </g>
      </g>
    </g>
  </g>
</svg>
