<?xml version="1.0" encoding="UTF-8" standalone="no"?><!DOCTYPE svg PUBLIC "-//W3C//DTD SVG 1.1//EN" "http://www.w3.org/Graphics/SVG/1.1/DTD/svg11.dtd"><svg width="100%" height="100%" viewBox="0 0 600 300" version="1.1" xmlns="http://www.w3.org/2000/svg" xmlns:xlink="http://www.w3.org/1999/xlink" xml:space="preserve" xmlns:serif="http://www.serif.com/" style="fill-rule:evenodd;clip-rule:evenodd;stroke-linejoin:round;stroke-miterlimit:1.5;"><path d="M247.671,61.935l-0,21.326l118.277,0" style="fill:none;stroke:#000;stroke-width:5.83px;"/><path d="M365.948,83.261l39.388,0l0,-21.326l17.214,0l0,21.603l95.299,0l0,66.462l16.95,0" style="fill:none;stroke:#000;stroke-width:5.83px;stroke-miterlimit:4;"/><path d="M517.849,209.287l0,66.646l-46.625,0" style="fill:none;stroke:#000;stroke-width:5.83px;"/><path d="M471.224,275.933l-65.888,0" style="fill:none;stroke:#000;stroke-width:5.83px;stroke-linecap:round;stroke-dasharray:2.92,8.75,5.83,8.75,5.83,8.75;"/><path d="M405.336,275.933l-93.067,0l0,-16.356" style="fill:none;stroke:#000;stroke-width:5.83px;"/><path d="M225.621,61.935l0,21.465l-165.45,-0l-0,65.689" style="fill:none;stroke:#000;stroke-width:5.83px;"/><path d="M294.949,259.577l-0,16.356l-234.778,0c-0,0 -0,-65.689 -0,-65.689" style="fill:none;stroke:#000;stroke-width:5.83px;"/><g><g><g><path d="M86.989,153.723l0,71.765c0,7.4 -6.008,13.409 -13.409,13.409l-26.818,-0c-7.401,-0 -13.41,-6.009 -13.41,-13.409l0,-71.765c0,-7.401 6.009,-13.41 13.41,-13.41l26.818,0c7.401,0 13.409,6.009 13.409,13.41Z" style="fill:#2cd08d;"/></g><path d="M86.989,189.605l0,35.883c0,7.4 -6.008,13.409 -13.409,13.409l-26.818,-0c-7.401,-0 -13.41,-6.009 -13.41,-13.409l0,-35.883l53.637,0Z" style="fill:#fe3b65;"/></g><path d="M51.439,167.014l17.463,-0" style="fill:none;stroke:#000;stroke-width:6.25px;stroke-linecap:round;"/><path d="M51.439,214.303l17.463,0" style="fill:none;stroke:#000;stroke-width:6.25px;stroke-linecap:round;"/><path d="M60.171,158.282l-0,17.463" style="fill:none;stroke:#000;stroke-width:6.25px;stroke-linecap:round;"/></g><path d="M276.562,49.947l-5,-7.5l5,-7.5" style="fill:none;stroke:#000;stroke-width:3.33px;stroke-linecap:round;stroke-linejoin:miter;stroke-miterlimit:10;"/><path d="M301.294,42.447l-29.732,0" style="fill:none;stroke:#000;stroke-width:3.33px;stroke-linecap:round;stroke-miterlimit:4;"/><path d="M451.321,49.947l-5,-7.5l5,-7.5" style="fill:none;stroke:#000;stroke-width:3.33px;stroke-linecap:round;stroke-linejoin:miter;stroke-miterlimit:10;"/><path d="M476.053,42.447l-29.732,0" style="fill:none;stroke:#000;stroke-width:3.33px;stroke-linecap:round;stroke-miterlimit:4;"/><path d="M347.163,237.41l-5,-7.5l5,-7.5" style="fill:none;stroke:#000;stroke-width:3.33px;stroke-linecap:round;stroke-linejoin:miter;stroke-miterlimit:10;"/><path d="M371.895,229.91l-29.732,-0" style="fill:none;stroke:#000;stroke-width:3.33px;stroke-linecap:round;stroke-miterlimit:4;"/><path d="M554.216,200.423l7.5,-5l7.5,5" style="fill:none;stroke:#000;stroke-width:3.33px;stroke-linecap:round;stroke-linejoin:miter;stroke-miterlimit:10;"/><path d="M561.716,225.155l-0,-29.732" style="fill:none;stroke:#000;stroke-width:3.33px;stroke-linecap:round;stroke-miterlimit:4;"/><path d="M367.182,42.447c-0,7.274 -5.905,13.179 -13.179,13.179l-39.53,0c-7.274,0 -13.179,-5.905 -13.179,-13.179c0,-7.273 5.905,-13.178 13.179,-13.178l39.53,-0c7.274,-0 13.179,5.905 13.179,13.178Z" style="fill:#fed700;"/><path d="M541.941,42.447c0,7.274 -5.905,13.179 -13.179,13.179l-39.53,0c-7.274,0 -13.179,-5.905 -13.179,-13.179c0,-7.273 5.905,-13.178 13.179,-13.178l39.53,-0c7.274,-0 13.179,5.905 13.179,13.178Z" style="fill:#fed700;"/><path d="M437.783,229.91c0,7.273 -5.905,13.179 -13.179,13.179l-39.53,-0c-7.274,-0 -13.179,-5.906 -13.179,-13.179c0,-7.274 5.905,-13.179 13.179,-13.179l39.53,0c7.274,0 13.179,5.905 13.179,13.179Z" style="fill:#fed700;"/><path d="M594.659,232.661c0,7.273 -5.905,13.178 -13.178,13.178l-39.531,0c-7.273,0 -13.178,-5.905 -13.178,-13.178c-0,-7.274 5.905,-13.179 13.178,-13.179l39.531,-0c7.273,-0 13.178,5.905 13.178,13.179Z" style="fill:#fed700;"/><g transform="matrix(22.7219,0,0,22.7219,345.366,49.6423)"></g><text x="321.823px" y="49.642px" style="font-family:'Calibri-Bold', 'Calibri';font-weight:700;font-size:22.722px;">C1</text><g transform="matrix(22.7219,0,0,22.7219,520.785,49.6367)"></g><text x="497.242px" y="49.637px" style="font-family:'Calibri-Bold', 'Calibri';font-weight:700;font-size:22.722px;">C2</text><g transform="matrix(22.7219,0,0,22.7219,417.304,237.099)"></g><text x="393.084px" y="237.099px" style="font-family:'Calibri-Bold', 'Calibri';font-weight:700;font-size:22.722px;">Cn</text><g transform="matrix(22.7219,0,0,22.7219,573.537,239.839)"></g><text x="549.994px" y="239.839px" style="font-family:'Calibri-Bold', 'Calibri';font-weight:700;font-size:22.722px;">C3</text><g><g><path d="M252.496,61.935l-33.344,0c-0,0 -5.477,-1.438 -4.913,-5.386c0.339,-2.375 1.165,-3.305 1.429,-4.281c0.239,-0.883 -0.037,-1.835 -0.555,-3.364c-0.778,-2.291 -2.362,-4.669 -4.343,-7.282c-2.527,-3.335 -2.403,-11.985 0.449,-18.92c1.866,-4.536 5.612,-8.142 8.068,-9.73c2.044,-1.321 3.343,-1.846 5.625,-2.77c3.362,-1.361 8.035,-2.207 9.974,-2.089c1.94,-0.118 8.488,0.728 11.849,2.089c2.283,0.924 3.581,1.449 5.625,2.77c2.456,1.588 6.203,5.194 8.069,9.73c2.852,6.935 2.976,15.585 0.449,18.92c-1.981,2.613 -3.566,4.991 -4.343,7.282c-0.519,1.529 -0.794,2.481 -0.555,3.364c0.264,0.976 1.09,1.906 1.429,4.281c0.563,3.948 -4.913,5.386 -4.913,5.386Z" style="fill:#f39a39;"/><g transform="matrix(18.3033,0,0,18.3033,252.425,37.0237)"></g><text x="219.474px" y="37.024px" style="font-family:'CourierNewPSMT', 'Courier New';font-size:18.303px;fill:#535353;">104</text><path d="M221.511,39.491l28.716,-0" style="fill:none;stroke:#3c484a;stroke-width:0.83px;stroke-linecap:round;"/></g><g><path d="M430.78,61.935l-33.344,0c-0,0 -5.477,-1.438 -4.913,-5.386c0.339,-2.375 1.165,-3.305 1.429,-4.281c0.239,-0.883 -0.037,-1.835 -0.555,-3.364c-0.778,-2.291 -2.362,-4.669 -4.343,-7.282c-2.527,-3.335 -2.403,-11.985 0.449,-18.92c1.866,-4.536 5.613,-8.142 8.068,-9.73c2.044,-1.321 3.343,-1.846 5.626,-2.77c3.361,-1.361 8.034,-2.207 9.973,-2.089c1.94,-0.118 8.488,0.728 11.849,2.089c2.283,0.924 3.582,1.449 5.625,2.77c2.456,1.588 6.203,5.194 8.069,9.73c2.852,6.935 2.976,15.585 0.449,18.92c-1.981,2.613 -3.566,4.991 -4.343,7.282c-0.519,1.529 -0.794,2.481 -0.555,3.364c0.264,0.976 1.09,1.906 1.429,4.281c0.564,3.948 -4.913,5.386 -4.913,5.386Z" style="fill:#f39a39;"/><g transform="matrix(18.3033,0,0,18.3033,430.709,37.0237)"></g><text x="397.758px" y="37.024px" style="font-family:'CourierNewPSMT', 'Courier New';font-size:18.303px;fill:#535353;">104</text><path d="M399.796,39.491l28.715,-0" style="fill:none;stroke:#3c484a;stroke-width:0.83px;stroke-linecap:round;"/></g></g><path d="M517.849,209.287l0,-39.364l16.95,0" style="fill:none;stroke:#000;stroke-width:5.83px;stroke-linecap:round;stroke-miterlimit:4;"/><g><path d="M320.173,259.577l-33.345,0c0,0 -5.476,-1.438 -4.913,-5.386c0.339,-2.375 1.165,-3.305 1.429,-4.281c0.239,-0.883 -0.036,-1.836 -0.555,-3.364c-0.777,-2.292 -2.362,-4.669 -4.343,-7.283c-2.527,-3.334 -2.403,-11.984 0.449,-18.919c1.866,-4.537 5.613,-8.142 8.069,-9.73c2.044,-1.321 3.343,-1.847 5.625,-2.771c3.362,-1.361 8.034,-2.206 9.974,-2.088c1.939,-0.118 8.487,0.727 11.849,2.088c2.282,0.924 3.581,1.45 5.625,2.771c2.456,1.588 6.203,5.193 8.068,9.73c2.852,6.935 2.976,15.585 0.449,18.919c-1.981,2.614 -3.565,4.991 -4.342,7.283c-0.519,1.528 -0.795,2.481 -0.556,3.364c0.264,0.976 1.09,1.906 1.429,4.281c0.564,3.948 -4.912,5.386 -4.912,5.386Z" style="fill:#f39a39;"/><g transform="matrix(18.3033,0,0,18.3033,320.102,234.665)"></g><text x="287.15px" y="234.665px" style="font-family:'CourierNewPSMT', 'Courier New';font-size:18.303px;fill:#535353;">104</text><path d="M289.188,237.133l28.715,-0" style="fill:none;stroke:#3c484a;stroke-width:0.83px;stroke-linecap:round;"/></g><g><path d="M534.799,177.624l0,-33.344c0,-0 1.438,-5.477 5.386,-4.913c2.376,0.339 3.305,1.165 4.281,1.429c0.883,0.239 1.836,-0.036 3.365,-0.555c2.291,-0.777 4.668,-2.362 7.282,-4.343c3.335,-2.527 11.984,-2.403 18.919,0.449c4.537,1.866 8.143,5.613 9.73,8.069c1.321,2.043 1.847,3.342 2.771,5.625c1.361,3.361 2.206,8.034 2.088,9.974c0.118,1.939 -0.727,8.487 -2.088,11.848c-0.924,2.283 -1.45,3.582 -2.771,5.626c-1.587,2.456 -5.193,6.202 -9.73,8.068c-6.935,2.852 -15.584,2.976 -18.919,0.449c-2.614,-1.981 -4.991,-3.565 -7.282,-4.343c-1.529,-0.518 -2.482,-0.794 -3.365,-0.555c-0.976,0.264 -1.905,1.09 -4.281,1.429c-3.948,0.564 -5.386,-4.913 -5.386,-4.913Z" style="fill:#f39a39;"/><g transform="matrix(6.12323e-17,1,-1,6.12323e-17,707.654,-479.378)"><g transform="matrix(18.3033,0,0,18.3033,656.932,147.943)"></g><text x="623.981px" y="147.943px" style="font-family:'CourierNewPSMT', 'Courier New';font-size:18.303px;fill:#535353;">104</text></g><path d="M557.243,146.64l0,28.715" style="fill:none;stroke:#3c484a;stroke-width:0.83px;stroke-linecap:round;"/></g><path d="M123.372,93.207l-9.808,-9.807l9.531,-9.531" style="fill:none;stroke:#000;stroke-width:6.25px;stroke-linecap:round;stroke-linejoin:miter;stroke-miterlimit:4;"/><path d="M340.16,93.069l-9.807,-9.808l9.53,-9.53" style="fill:none;stroke:#000;stroke-width:6.25px;stroke-linecap:round;stroke-linejoin:miter;stroke-miterlimit:4;"/><path d="M118.468,266.264l9.807,9.808l-9.53,9.53" style="fill:none;stroke:#000;stroke-width:6.25px;stroke-linecap:round;stroke-linejoin:miter;stroke-miterlimit:4;"/><path d="M484.729,266.264l9.808,9.808l-9.531,9.53" style="fill:none;stroke:#000;stroke-width:6.25px;stroke-linecap:round;stroke-linejoin:miter;stroke-miterlimit:4;"/><path d="M508.18,121.006l9.808,-9.807l9.53,9.53" style="fill:none;stroke:#000;stroke-width:6.25px;stroke-linecap:round;stroke-linejoin:miter;stroke-miterlimit:4;"/></svg>