<?xml version="1.0" encoding="UTF-8" standalone="no"?><!DOCTYPE svg PUBLIC "-//W3C//DTD SVG 1.1//EN" "http://www.w3.org/Graphics/SVG/1.1/DTD/svg11.dtd"><svg width="100%" height="100%" viewBox="0 0 600 300" version="1.1" xmlns="http://www.w3.org/2000/svg" xmlns:xlink="http://www.w3.org/1999/xlink" xml:space="preserve" xmlns:serif="http://www.serif.com/" style="fill-rule:evenodd;clip-rule:evenodd;stroke-linejoin:round;"><path d="M123.727,210.244l-13.22,-0l0,-175.316" style="fill:none;stroke:#000;stroke-width:5.83px;"/><path d="M347.353,169.61l-13.22,-0l0,-134.682" style="fill:none;stroke:#000;stroke-width:5.83px;"/><path d="M123.727,229.91l-13.22,-0l0,46.023" style="fill:none;stroke:#000;stroke-width:5.83px;"/><path d="M347.353,187.804l-13.22,0l0,88.129" style="fill:none;stroke:#000;stroke-width:5.83px;"/><path d="M517.849,209.287l0,66.646l-46.625,0" style="fill:none;stroke:#000;stroke-width:5.83px;stroke-miterlimit:1.5;"/><path d="M471.224,275.933l-65.888,0" style="fill:none;stroke:#000;stroke-width:5.83px;stroke-linecap:round;stroke-miterlimit:1.5;stroke-dasharray:2.92,8.75,5.83,8.75,5.83,8.75;"/><path d="M60.171,238.897l-0,37.036l345.165,0" style="fill:none;stroke:#000;stroke-width:5.83px;"/><g><g><g><path d="M86.989,153.723l0,71.765c0,7.4 -6.008,13.409 -13.409,13.409l-26.818,-0c-7.401,-0 -13.41,-6.009 -13.41,-13.409l0,-71.765c0,-7.401 6.009,-13.41 13.41,-13.41l26.818,0c7.401,0 13.409,6.009 13.409,13.41Z" style="fill:#2cd08d;"/></g><path d="M86.989,189.605l0,35.883c0,7.4 -6.008,13.409 -13.409,13.409l-26.818,-0c-7.401,-0 -13.41,-6.009 -13.41,-13.409l0,-35.883l53.637,0Z" style="fill:#fe3b65;"/></g><path d="M51.439,167.014l17.463,-0" style="fill:none;stroke:#000;stroke-width:6.25px;stroke-linecap:round;stroke-miterlimit:1.5;"/><path d="M51.439,214.303l17.463,0" style="fill:none;stroke:#000;stroke-width:6.25px;stroke-linecap:round;stroke-miterlimit:1.5;"/><path d="M60.171,158.282l-0,17.463" style="fill:none;stroke:#000;stroke-width:6.25px;stroke-linecap:round;stroke-miterlimit:1.5;"/></g><path d="M205.888,139.158l5,5l-5,5" style="fill:none;stroke:#000;stroke-width:3.33px;stroke-linecap:round;stroke-linejoin:miter;stroke-miterlimit:10;"/><path d="M173.103,128.025l-0,16.133l37.785,0" style="fill:none;stroke:#000;stroke-width:3.33px;stroke-linecap:round;"/><path d="M410.811,181.182l-5,-5l5,-5" style="fill:none;stroke:#000;stroke-width:3.33px;stroke-linecap:round;stroke-linejoin:miter;stroke-miterlimit:10;"/><path d="M443.596,131.735l-0,44.447l-37.785,-0" style="fill:none;stroke:#000;stroke-width:3.33px;stroke-linecap:round;"/><path d="M187.185,221.527l-5,-5l5,-5" style="fill:none;stroke:#000;stroke-width:3.33px;stroke-linecap:round;stroke-linejoin:miter;stroke-miterlimit:10;"/><path d="M219.97,232.661l-0,-16.134l-37.785,0" style="fill:none;stroke:#000;stroke-width:3.33px;stroke-linecap:round;"/><path d="M554.216,200.423l7.5,-5l7.5,5" style="fill:none;stroke:#000;stroke-width:3.33px;stroke-linecap:round;stroke-linejoin:miter;stroke-miterlimit:10;"/><path d="M561.716,225.155l-0,-29.732" style="fill:none;stroke:#000;stroke-width:3.33px;stroke-linecap:round;"/><path d="M207.072,114.846c-0,7.274 -5.905,13.179 -13.179,13.179l-39.53,-0c-7.274,-0 -13.179,-5.905 -13.179,-13.179c0,-7.274 5.905,-13.179 13.179,-13.179l39.53,0c7.274,0 13.179,5.905 13.179,13.179Z" style="fill:#fed700;"/><path d="M476.54,118.556c-0,7.273 -5.905,13.179 -13.179,13.179l-39.53,-0c-7.274,-0 -13.179,-5.906 -13.179,-13.179c-0,-7.274 5.905,-13.179 13.179,-13.179l39.53,0c7.274,0 13.179,5.905 13.179,13.179Z" style="fill:#fed700;"/><path d="M252.914,245.839c-0,7.274 -5.905,13.179 -13.179,13.179l-39.53,0c-7.274,0 -13.179,-5.905 -13.179,-13.179c-0,-7.273 5.905,-13.178 13.179,-13.178l39.53,-0c7.274,-0 13.179,5.905 13.179,13.178Z" style="fill:#fed700;"/><path d="M594.659,232.661c0,7.273 -5.905,13.178 -13.178,13.178l-39.531,0c-7.273,0 -13.178,-5.905 -13.178,-13.178c-0,-7.274 5.905,-13.179 13.178,-13.179l39.531,-0c7.273,-0 13.178,5.905 13.178,13.179Z" style="fill:#fed700;"/><g transform="matrix(22.7219,0,0,22.7219,185.256,122.041)"></g><text x="161.713px" y="122.041px" style="font-family:'Calibri-Bold', 'Calibri';font-weight:700;font-size:22.722px;">C2</text><g transform="matrix(22.7219,0,0,22.7219,454.724,125.751)"></g><text x="431.181px" y="125.751px" style="font-family:'Calibri-Bold', 'Calibri';font-weight:700;font-size:22.722px;">C3</text><g transform="matrix(22.7219,0,0,22.7219,231.098,253.034)"></g><text x="207.555px" y="253.034px" style="font-family:'Calibri-Bold', 'Calibri';font-weight:700;font-size:22.722px;">C1</text><g transform="matrix(22.7219,0,0,22.7219,574.214,239.839)"></g><text x="549.994px" y="239.839px" style="font-family:'Calibri-Bold', 'Calibri';font-weight:700;font-size:22.722px;">Cn</text><g><path d="M123.727,235.659l-0,-33.344c-0,-0 1.438,-5.477 5.386,-4.913c2.375,0.339 3.305,1.165 4.281,1.429c0.883,0.239 1.835,-0.036 3.364,-0.555c2.291,-0.777 4.669,-2.362 7.282,-4.343c3.335,-2.527 11.985,-2.403 18.92,0.449c4.537,1.866 8.142,5.613 9.73,8.069c1.321,2.043 1.847,3.342 2.771,5.625c1.36,3.361 2.206,8.034 2.088,9.974c0.118,1.939 -0.728,8.487 -2.088,11.848c-0.924,2.283 -1.45,3.582 -2.771,5.626c-1.588,2.455 -5.193,6.202 -9.73,8.068c-6.935,2.852 -15.585,2.976 -18.92,0.449c-2.613,-1.981 -4.991,-3.565 -7.282,-4.343c-1.529,-0.518 -2.481,-0.794 -3.364,-0.555c-0.976,0.264 -1.906,1.09 -4.281,1.429c-3.948,0.564 -5.386,-4.913 -5.386,-4.913Z" style="fill:#f39a39;"/><g transform="matrix(6.12323e-17,1,-1,6.12323e-17,354.616,-10.2711)"><g transform="matrix(18.3033,0,0,18.3033,245.859,205.978)"></g><text x="212.908px" y="205.978px" style="font-family:'CourierNewPSMT', 'Courier New';font-size:18.303px;fill:#535353;">104</text></g><path d="M146.171,204.675l0,28.715" style="fill:none;stroke:#3c484a;stroke-width:0.83px;stroke-linecap:round;stroke-miterlimit:1.5;"/></g><g><path d="M347.353,192.359l-0,-33.345c-0,0 1.438,-5.476 5.386,-4.912c2.375,0.339 3.305,1.165 4.281,1.429c0.883,0.239 1.835,-0.037 3.364,-0.556c2.291,-0.777 4.669,-2.361 7.283,-4.342c3.334,-2.527 11.984,-2.403 18.919,0.449c4.537,1.865 8.142,5.612 9.73,8.068c1.321,2.044 1.847,3.343 2.771,5.625c1.361,3.362 2.206,8.035 2.088,9.974c0.118,1.94 -0.727,8.487 -2.088,11.849c-0.924,2.282 -1.45,3.581 -2.771,5.625c-1.588,2.456 -5.193,6.203 -9.73,8.069c-6.935,2.852 -15.585,2.976 -18.919,0.449c-2.614,-1.981 -4.992,-3.566 -7.283,-4.343c-1.529,-0.519 -2.481,-0.794 -3.364,-0.555c-0.976,0.264 -1.906,1.09 -4.281,1.429c-3.948,0.563 -5.386,-4.913 -5.386,-4.913Z" style="fill:#f39a39;"/><g transform="matrix(6.12323e-17,1,-1,6.12323e-17,534.942,-277.198)"><g transform="matrix(18.3033,0,0,18.3033,469.486,162.677)"></g><text x="436.534px" y="162.677px" style="font-family:'CourierNewPSMT', 'Courier New';font-size:18.303px;fill:#535353;">104</text></g><path d="M369.797,161.374l0,28.715" style="fill:none;stroke:#3c484a;stroke-width:0.83px;stroke-linecap:round;stroke-miterlimit:1.5;"/></g><path d="M60.171,62.866l-0,-27.938l187.5,0" style="fill:none;stroke:#000;stroke-width:5.83px;"/><path d="M60.171,140.313l-0,-80.423" style="fill:none;stroke:#000;stroke-width:5.83px;"/><path d="M517.849,209.287l0,-39.364l16.95,0" style="fill:none;stroke:#000;stroke-width:5.83px;stroke-linecap:round;"/><g><path d="M269.346,121.379l-0,33.344c-0,0 -1.438,5.477 -5.386,4.913c-2.376,-0.339 -3.305,-1.165 -4.281,-1.429c-0.884,-0.239 -1.836,0.036 -3.365,0.555c-2.291,0.777 -4.668,2.362 -7.282,4.343c-3.335,2.527 -11.985,2.403 -18.919,-0.449c-4.537,-1.866 -8.143,-5.613 -9.73,-8.069c-1.321,-2.044 -1.847,-3.342 -2.771,-5.625c-1.361,-3.361 -2.206,-8.034 -2.088,-9.974c-0.118,-1.939 0.727,-8.487 2.088,-11.849c0.924,-2.282 1.45,-3.581 2.771,-5.625c1.587,-2.456 5.193,-6.202 9.73,-8.068c6.934,-2.852 15.584,-2.976 18.919,-0.449c2.614,1.981 4.991,3.565 7.282,4.343c1.529,0.518 2.481,0.794 3.365,0.555c0.976,-0.264 1.905,-1.09 4.281,-1.429c3.948,-0.564 5.386,4.913 5.386,4.913Z" style="fill:#f39a39;"/><g transform="matrix(6.12323e-17,-1,1,6.12323e-17,25.7635,395.494)"><g transform="matrix(18.3033,0,0,18.3033,274.045,218.671)"></g><text x="241.093px" y="218.671px" style="font-family:'CourierNewPSMT', 'Courier New';font-size:18.303px;fill:#535353;">104</text></g><path d="M246.901,152.363l0,-28.715" style="fill:none;stroke:#3c484a;stroke-width:0.83px;stroke-linecap:round;stroke-miterlimit:1.5;"/></g><path d="M269.346,146.752l17.589,0l0,129.181" style="fill:none;stroke:#000;stroke-width:5.83px;"/><path d="M269.346,128.976l17.589,-0l0,-94.048" style="fill:none;stroke:#000;stroke-width:5.83px;"/><g><path d="M534.799,177.624l0,-33.344c0,-0 1.438,-5.477 5.386,-4.913c2.376,0.339 3.305,1.165 4.281,1.429c0.883,0.239 1.836,-0.036 3.365,-0.555c2.291,-0.777 4.668,-2.362 7.282,-4.343c3.335,-2.527 11.984,-2.403 18.919,0.449c4.537,1.866 8.143,5.613 9.73,8.069c1.321,2.043 1.847,3.342 2.771,5.625c1.361,3.361 2.206,8.034 2.088,9.974c0.118,1.939 -0.727,8.487 -2.088,11.848c-0.924,2.283 -1.45,3.582 -2.771,5.626c-1.587,2.456 -5.193,6.202 -9.73,8.068c-6.935,2.852 -15.584,2.976 -18.919,0.449c-2.614,-1.981 -4.991,-3.565 -7.282,-4.343c-1.529,-0.518 -2.482,-0.794 -3.365,-0.555c-0.976,0.264 -1.905,1.09 -4.281,1.429c-3.948,0.564 -5.386,-4.913 -5.386,-4.913Z" style="fill:#f39a39;"/><g transform="matrix(6.12323e-17,1,-1,6.12323e-17,707.654,-479.378)"><g transform="matrix(18.3033,0,0,18.3033,656.932,147.943)"></g><text x="623.981px" y="147.943px" style="font-family:'CourierNewPSMT', 'Courier New';font-size:18.303px;fill:#535353;">104</text></g><path d="M557.243,146.64l0,28.715" style="fill:none;stroke:#3c484a;stroke-width:0.83px;stroke-linecap:round;stroke-miterlimit:1.5;"/></g><path d="M182.463,44.597l-9.807,-9.807l9.53,-9.531" style="fill:none;stroke:#000;stroke-width:6.25px;stroke-linecap:round;stroke-linejoin:miter;"/><path d="M170.02,266.264l9.808,9.808l-9.531,9.53" style="fill:none;stroke:#000;stroke-width:6.25px;stroke-linecap:round;stroke-linejoin:miter;"/><path d="M484.729,266.264l9.808,9.808l-9.531,9.53" style="fill:none;stroke:#000;stroke-width:6.25px;stroke-linecap:round;stroke-linejoin:miter;"/><path d="M509.434,52.441l9.807,-9.808l9.531,9.531" style="fill:none;stroke:#000;stroke-width:6.25px;stroke-linecap:round;stroke-linejoin:miter;"/><path d="M246.886,34.928l270.963,0l0,115.072l16.95,0" style="fill:none;stroke:#000;stroke-width:5.83px;"/></svg>