<?xml version="1.0" encoding="UTF-8" standalone="no"?><!DOCTYPE svg PUBLIC "-//W3C//DTD SVG 1.1//EN" "http://www.w3.org/Graphics/SVG/1.1/DTD/svg11.dtd"><svg width="100%" height="100%" viewBox="0 0 600 300" version="1.1" xmlns="http://www.w3.org/2000/svg" xmlns:xlink="http://www.w3.org/1999/xlink" xml:space="preserve" xmlns:serif="http://www.serif.com/" style="fill-rule:evenodd;clip-rule:evenodd;stroke-linejoin:round;stroke-miterlimit:1.5;"><g><g><path d="M199.02,20.058c-0,0 -6.966,-2.601 -11.82,-1.854c-2.152,0.331 -4.318,2.27 -4.318,4.448l0,24.734c0,2.401 2.166,4.117 4.318,4.448c4.854,0.746 11.82,-1.855 11.82,-1.855l69.13,0c0,0 6.966,2.601 11.82,1.855c2.152,-0.331 4.318,-2.27 4.318,-4.448l-0,-24.734c-0,-2.402 -2.166,-4.117 -4.318,-4.448c-3.962,-0.61 -9.331,1.011 -11.17,1.628c-0.415,0.138 -0.65,0.226 -0.65,0.226l-69.13,0" style="fill:#009a19;"/><rect x="204.226" y="20.058" width="10.297" height="29.921" style="fill:#005614;"/><rect x="217.11" y="20.058" width="10.297" height="29.921" style="fill:#005614;"/><rect x="229.994" y="20.058" width="10.297" height="29.921" style="fill:#005614;"/><rect x="254.899" y="20.058" width="10.297" height="29.921" style="fill:#005614;"/></g><g><path d="M371.617,20.058c-0,0 -6.966,-2.601 -11.82,-1.854c-2.152,0.331 -4.318,2.27 -4.318,4.448l-0,24.734c-0,2.401 2.166,4.117 4.318,4.448c4.854,0.746 11.82,-1.855 11.82,-1.855l69.13,0c-0,0 6.966,2.601 11.82,1.855c2.152,-0.331 4.318,-2.27 4.318,-4.448l-0,-24.734c-0,-2.402 -2.166,-4.117 -4.318,-4.448c-3.962,-0.61 -9.331,1.011 -11.171,1.628c-0.414,0.138 -0.649,0.226 -0.649,0.226l-69.13,0" style="fill:#009a19;"/><rect x="376.823" y="20.058" width="10.297" height="29.921" style="fill:#005614;"/><rect x="389.707" y="20.058" width="10.297" height="29.921" style="fill:#005614;"/><rect x="402.591" y="20.058" width="10.297" height="29.921" style="fill:#005614;"/><rect x="427.496" y="20.058" width="10.297" height="29.921" style="fill:#005614;"/></g><g><path d="M285.318,250.021c0,-0 -6.965,-2.601 -11.819,-1.855c-2.153,0.331 -4.318,2.27 -4.318,4.448l-0,24.734c-0,2.402 2.165,4.117 4.318,4.448c4.854,0.747 11.819,-1.854 11.819,-1.854l69.131,-0c-0,-0 6.965,2.601 11.819,1.854c2.153,-0.331 4.318,-2.27 4.318,-4.448l0,-24.734c0,-2.401 -2.165,-4.117 -4.318,-4.448c-3.962,-0.609 -9.33,1.012 -11.17,1.628c-0.414,0.139 -0.649,0.227 -0.649,0.227l-69.131,-0" style="fill:#009a19;"/><rect x="290.525" y="250.021" width="10.297" height="29.921" style="fill:#005614;"/><rect x="303.409" y="250.021" width="10.297" height="29.921" style="fill:#005614;"/><rect x="316.293" y="250.021" width="10.297" height="29.921" style="fill:#005614;"/><rect x="341.197" y="250.021" width="10.297" height="29.921" style="fill:#005614;"/></g><g><path d="M548.734,113.067c0,0 2.601,-6.966 1.855,-11.82c-0.331,-2.152 -2.271,-4.318 -4.448,-4.318l-24.734,0c-2.402,0 -4.117,2.166 -4.448,4.318c-0.747,4.854 1.854,11.82 1.854,11.82l0,69.13c0,0 -2.601,6.966 -1.854,11.82c0.331,2.152 2.27,4.318 4.448,4.318l24.734,0c2.401,0 4.117,-2.166 4.448,-4.318c0.609,-3.962 -1.012,-9.331 -1.628,-11.17c-0.139,-0.414 -0.227,-0.65 -0.227,-0.65l0,-69.13" style="fill:#009a19;"/><path d="M548.734,128.571l-29.921,-0l0,-10.297l29.921,-0l0,10.297Z" style="fill:#005614;"/><path d="M548.734,141.455l-29.921,-0l0,-10.297l29.921,-0l0,10.297Z" style="fill:#005614;"/><path d="M548.734,154.339l-29.921,-0l0,-10.297l29.921,-0l0,10.297Z" style="fill:#005614;"/><path d="M548.734,179.244l-29.921,-0l0,-10.298l29.921,0l0,10.298Z" style="fill:#005614;"/></g><path d="M456.885,35.019l76.889,-0l-0,61.91" style="fill:none;stroke:#000;stroke-width:5.83px;"/><circle cx="533.774" cy="264.981" r="2.915" style="fill:#060001;stroke:#000;stroke-width:6.25px;stroke-linecap:round;stroke-linejoin:miter;stroke-miterlimit:4;"/><path d="M284.288,35.019l71.191,-0" style="fill:none;stroke:#000;stroke-width:5.83px;"/><path d="M533.774,198.335l-0,66.646l-46.625,0" style="fill:none;stroke:#000;stroke-width:5.83px;"/><path d="M487.149,264.981l-65.888,0" style="fill:none;stroke:#000;stroke-width:5.83px;stroke-linecap:round;stroke-dasharray:2.92,8.75,5.83,8.75,5.83,8.75;"/><path d="M421.261,264.981l-50.675,0" style="fill:none;stroke:#000;stroke-width:5.83px;"/><path d="M182.882,35.019l-106.787,-0l0,65.689" style="fill:none;stroke:#000;stroke-width:5.83px;"/><path d="M269.181,264.981l-193.086,0c0,0 0,-65.689 0,-65.689" style="fill:none;stroke:#000;stroke-width:5.83px;"/><g><g><path d="M102.914,114.118l-0,71.764c-0,7.401 -6.009,13.41 -13.41,13.41l-26.818,-0c-7.401,-0 -13.409,-6.009 -13.409,-13.41l-0,-71.764c-0,-7.401 6.008,-13.41 13.409,-13.41l26.818,0c7.401,0 13.41,6.009 13.41,13.41Z" style="fill:#2cd08d;"/></g><path d="M102.914,150l-0,35.882c-0,7.401 -6.009,13.41 -13.41,13.41l-26.818,-0c-7.401,-0 -13.409,-6.009 -13.409,-13.41l-0,-35.882l53.637,-0Z" style="fill:#fe3b65;"/></g><path d="M67.364,127.408l17.463,0" style="fill:none;stroke:#000;stroke-width:6.25px;stroke-linecap:round;"/><path d="M67.364,174.698l17.463,0" style="fill:none;stroke:#000;stroke-width:6.25px;stroke-linecap:round;"/><path d="M76.095,118.677l0,17.463" style="fill:none;stroke:#000;stroke-width:6.25px;stroke-linecap:round;"/><path d="M327.383,237.293l-7.5,5l-7.5,-5" style="fill:none;stroke:#000;stroke-width:3.33px;stroke-linecap:round;stroke-linejoin:miter;stroke-miterlimit:10;"/><path d="M340.416,221.709l-20.533,-0l0,20.584" style="fill:none;stroke:#000;stroke-width:3.33px;stroke-linecap:round;stroke-miterlimit:4;"/><path d="M398.682,60.635l7.5,-5l7.5,5" style="fill:none;stroke:#000;stroke-width:3.33px;stroke-linecap:round;stroke-linejoin:miter;stroke-miterlimit:10;"/><path d="M426.714,76.22l-20.532,0l-0,-20.585" style="fill:none;stroke:#000;stroke-width:3.33px;stroke-linecap:round;stroke-miterlimit:4;"/><path d="M507.068,144.038l5,7.5l-5,7.5" style="fill:none;stroke:#000;stroke-width:3.33px;stroke-linecap:round;stroke-linejoin:miter;stroke-miterlimit:10;"/><path d="M482.336,151.538l29.732,-0" style="fill:none;stroke:#000;stroke-width:3.33px;stroke-linecap:round;stroke-miterlimit:4;"/><path d="M406.303,221.709c0,4.612 -3.744,8.356 -8.356,8.356l-49.175,0c-4.612,0 -8.356,-3.744 -8.356,-8.356c-0,-4.613 3.744,-8.357 8.356,-8.357l49.175,-0c4.612,-0 8.356,3.744 8.356,8.357Z" style="fill:#fed700;"/><path d="M482.336,151.538c-0,4.612 -3.745,8.356 -8.357,8.356l-49.174,0c-4.613,0 -8.357,-3.744 -8.357,-8.356c-0,-4.613 3.744,-8.357 8.357,-8.357l49.174,-0c4.612,-0 8.357,3.744 8.357,8.357Z" style="fill:#fed700;"/><path d="M226.085,60.635l7.5,-5l7.5,5" style="fill:none;stroke:#000;stroke-width:3.33px;stroke-linecap:round;stroke-linejoin:miter;stroke-miterlimit:10;"/><path d="M254.117,76.22l-20.532,0l-0,-20.585" style="fill:none;stroke:#000;stroke-width:3.33px;stroke-linecap:round;stroke-miterlimit:4;"/><path d="M492.602,76.22c-0,4.612 -3.745,8.357 -8.357,8.357l-49.174,-0c-4.612,-0 -8.357,-3.745 -8.357,-8.357c0,-4.612 3.745,-8.356 8.357,-8.356l49.174,-0c4.612,-0 8.357,3.744 8.357,8.356Z" style="fill:#fed700;"/><path d="M320.005,76.22c0,4.612 -3.744,8.357 -8.357,8.357l-49.174,-0c-4.612,-0 -8.357,-3.745 -8.357,-8.357c0,-4.612 3.745,-8.356 8.357,-8.356l49.174,-0c4.613,-0 8.357,3.744 8.357,8.356Z" style="fill:#fed700;"/><g transform="matrix(13.8464,0,0,13.8464,380.905,226.063)"></g><text x="365.679px" y="226.063px" style="font-family:'Calibri-Bold', 'Calibri';font-weight:700;font-size:13.846px;">Rn</text><g transform="matrix(13.8464,0,0,13.8464,456.619,155.912)"></g><text x="441.806px" y="155.912px" style="font-family:'Calibri-Bold', 'Calibri';font-weight:700;font-size:13.846px;">R3</text><g transform="matrix(13.8464,0,0,13.8464,466.865,80.6521)"></g><text x="452.052px" y="80.652px" style="font-family:'Calibri-Bold', 'Calibri';font-weight:700;font-size:13.846px;">R2</text><g transform="matrix(13.8464,0,0,13.8464,294.309,80.6048)"></g><text x="279.496px" y="80.605px" style="font-family:'Calibri-Bold', 'Calibri';font-weight:700;font-size:13.846px;">R1</text><path d="M139.296,44.826l-9.807,-9.807l9.53,-9.531" style="fill:none;stroke:#000;stroke-width:6.25px;stroke-linecap:round;stroke-linejoin:miter;stroke-miterlimit:4;"/><path d="M329.691,44.826l-9.808,-9.807l9.531,-9.531" style="fill:none;stroke:#000;stroke-width:6.25px;stroke-linecap:round;stroke-linejoin:miter;stroke-miterlimit:4;"/><path d="M134.392,255.312l9.808,9.808l-9.531,9.53" style="fill:none;stroke:#000;stroke-width:6.25px;stroke-linecap:round;stroke-linejoin:miter;stroke-miterlimit:4;"/><path d="M500.654,255.312l9.807,9.808l-9.53,9.53" style="fill:none;stroke:#000;stroke-width:6.25px;stroke-linecap:round;stroke-linejoin:miter;stroke-miterlimit:4;"/><path d="M524.105,63.44l9.807,-9.808l9.531,9.531" style="fill:none;stroke:#000;stroke-width:6.25px;stroke-linecap:round;stroke-linejoin:miter;stroke-miterlimit:4;"/></g></svg>