<?xml version="1.0" encoding="UTF-8" standalone="no"?><!DOCTYPE svg PUBLIC "-//W3C//DTD SVG 1.1//EN" "http://www.w3.org/Graphics/SVG/1.1/DTD/svg11.dtd"><svg width="100%" height="100%" viewBox="0 0 600 300" version="1.1" xmlns="http://www.w3.org/2000/svg" xmlns:xlink="http://www.w3.org/1999/xlink" xml:space="preserve" xmlns:serif="http://www.serif.com/" style="fill-rule:evenodd;clip-rule:evenodd;stroke-linejoin:round;"><g><g><path d="M548.734,113.067c0,0 2.601,-6.966 1.855,-11.82c-0.331,-2.152 -2.271,-4.318 -4.448,-4.318l-24.734,0c-2.402,0 -4.117,2.166 -4.448,4.318c-0.747,4.854 1.854,11.82 1.854,11.82l0,69.13c0,0 -2.601,6.966 -1.854,11.82c0.331,2.152 2.27,4.318 4.448,4.318l24.734,0c2.401,0 4.117,-2.166 4.448,-4.318c0.609,-3.962 -1.012,-9.331 -1.628,-11.17c-0.139,-0.414 -0.227,-0.65 -0.227,-0.65l0,-69.13" style="fill:#009a19;"/><path d="M548.734,128.571l-29.921,-0l0,-10.297l29.921,-0l0,10.297Z" style="fill:#005614;"/><path d="M548.734,141.455l-29.921,-0l0,-10.297l29.921,-0l0,10.297Z" style="fill:#005614;"/><path d="M548.734,154.339l-29.921,-0l0,-10.297l29.921,-0l0,10.297Z" style="fill:#005614;"/><path d="M548.734,179.244l-29.921,-0l0,-10.298l29.921,0l0,10.298Z" style="fill:#005614;"/></g></g><g><g><path d="M386.485,113.067c-0,0 2.601,-6.966 1.855,-11.82c-0.332,-2.152 -2.271,-4.318 -4.449,-4.318l-24.733,0c-2.402,0 -4.117,2.166 -4.449,4.318c-0.746,4.854 1.855,11.82 1.855,11.82l0,69.13c0,0 -2.601,6.966 -1.855,11.82c0.332,2.152 2.271,4.318 4.449,4.318l24.733,0c2.402,0 4.117,-2.166 4.449,-4.318c0.609,-3.962 -1.012,-9.331 -1.628,-11.17c-0.139,-0.414 -0.227,-0.65 -0.227,-0.65l-0,-69.13" style="fill:#009a19;"/><path d="M386.485,128.571l-29.921,-0l0,-10.297l29.921,-0l-0,10.297Z" style="fill:#005614;"/><path d="M386.485,141.455l-29.921,-0l0,-10.297l29.921,-0l-0,10.297Z" style="fill:#005614;"/><path d="M386.485,154.339l-29.921,-0l0,-10.297l29.921,-0l-0,10.297Z" style="fill:#005614;"/><path d="M386.485,179.244l-29.921,-0l0,-10.298l29.921,0l-0,10.298Z" style="fill:#005614;"/></g></g><g><g><path d="M197.843,113.067c-0,0 2.601,-6.966 1.854,-11.82c-0.331,-2.152 -2.27,-4.318 -4.448,-4.318l-24.734,0c-2.401,0 -4.117,2.166 -4.448,4.318c-0.747,4.854 1.855,11.82 1.855,11.82l-0,69.13c-0,0 -2.602,6.966 -1.855,11.82c0.331,2.152 2.27,4.318 4.448,4.318l24.734,0c2.401,0 4.117,-2.166 4.448,-4.318c0.609,-3.962 -1.011,-9.331 -1.628,-11.17c-0.139,-0.414 -0.226,-0.65 -0.226,-0.65l-0,-69.13" style="fill:#009a19;"/><path d="M197.843,128.571l-29.921,-0l-0,-10.297l29.921,-0l-0,10.297Z" style="fill:#005614;"/><path d="M197.843,141.455l-29.921,-0l-0,-10.297l29.921,-0l-0,10.297Z" style="fill:#005614;"/><path d="M197.843,154.339l-29.921,-0l-0,-10.297l29.921,-0l-0,10.297Z" style="fill:#005614;"/><path d="M197.843,179.244l-29.921,-0l-0,-10.298l29.921,0l-0,10.298Z" style="fill:#005614;"/></g></g><g><g><path d="M292.164,113.067c-0,0 2.601,-6.966 1.854,-11.82c-0.331,-2.152 -2.27,-4.318 -4.448,-4.318l-24.734,0c-2.401,0 -4.117,2.166 -4.448,4.318c-0.746,4.854 1.855,11.82 1.855,11.82l-0,69.13c-0,0 -2.601,6.966 -1.855,11.82c0.331,2.152 2.271,4.318 4.448,4.318l24.734,0c2.402,0 4.117,-2.166 4.448,-4.318c0.61,-3.962 -1.011,-9.331 -1.628,-11.17c-0.138,-0.414 -0.226,-0.65 -0.226,-0.65l-0,-69.13" style="fill:#009a19;"/><path d="M292.164,128.571l-29.921,-0l-0,-10.297l29.921,-0l-0,10.297Z" style="fill:#005614;"/><path d="M292.164,141.455l-29.921,-0l-0,-10.297l29.921,-0l-0,10.297Z" style="fill:#005614;"/><path d="M292.164,154.339l-29.921,-0l-0,-10.297l29.921,-0l-0,10.297Z" style="fill:#005614;"/><path d="M292.164,179.244l-29.921,-0l-0,-10.298l29.921,0l-0,10.298Z" style="fill:#005614;"/></g></g><path d="M182.882,96.929l0,-61.772" style="fill:none;stroke:#000;stroke-width:5.83px;"/><path d="M182.882,264.981l0,-66.646" style="fill:none;stroke:#000;stroke-width:5.83px;"/><path d="M277.203,264.981l0,-66.646" style="fill:none;stroke:#000;stroke-width:5.83px;"/><path d="M371.524,264.981l0,-66.646" style="fill:none;stroke:#000;stroke-width:5.83px;"/><path d="M277.203,96.929l0,-61.772" style="fill:none;stroke:#000;stroke-width:5.83px;"/><path d="M371.524,96.929l0,-61.772" style="fill:none;stroke:#000;stroke-width:5.83px;"/><path d="M486.68,35.019l47.094,-0l-0,61.91" style="fill:none;stroke:#000;stroke-width:5.83px;stroke-miterlimit:1.5;"/><path d="M533.774,198.335l-0,66.646l-46.625,0" style="fill:none;stroke:#000;stroke-width:5.83px;stroke-miterlimit:1.5;"/><path d="M487.149,264.981l-65.888,0" style="fill:none;stroke:#000;stroke-width:5.83px;stroke-linecap:round;stroke-miterlimit:1.5;stroke-dasharray:2.92,8.75,5.83,8.75,5.83,8.75;"/><path d="M487.149,35.019l-65.888,-0" style="fill:none;stroke:#000;stroke-width:5.83px;stroke-linecap:round;stroke-miterlimit:1.5;stroke-dasharray:2.92,8.75,5.83,8.75,5.83,8.75;"/><path d="M421.261,264.981l-238.379,0" style="fill:none;stroke:#000;stroke-width:5.83px;stroke-miterlimit:1.5;"/><path d="M421.261,35.019l-345.166,-0l0,65.689" style="fill:none;stroke:#000;stroke-width:5.83px;stroke-miterlimit:1.5;"/><path d="M182.882,264.981l-106.787,0c0,0 0,-65.689 0,-65.689" style="fill:none;stroke:#000;stroke-width:5.83px;stroke-miterlimit:1.5;"/><g><g><path d="M102.914,114.118l-0,71.764c-0,7.401 -6.009,13.41 -13.41,13.41l-26.818,-0c-7.401,-0 -13.409,-6.009 -13.409,-13.41l-0,-71.764c-0,-7.401 6.008,-13.41 13.409,-13.41l26.818,0c7.401,0 13.41,6.009 13.41,13.41Z" style="fill:#2cd08d;"/></g><path d="M102.914,150l-0,35.882c-0,7.401 -6.009,13.41 -13.41,13.41l-26.818,-0c-7.401,-0 -13.409,-6.009 -13.409,-13.41l-0,-35.882l53.637,-0Z" style="fill:#fe3b65;"/></g><path d="M67.364,127.408l17.463,0" style="fill:none;stroke:#000;stroke-width:6.25px;stroke-linecap:round;stroke-miterlimit:1.5;"/><path d="M67.364,174.698l17.463,0" style="fill:none;stroke:#000;stroke-width:6.25px;stroke-linecap:round;stroke-miterlimit:1.5;"/><path d="M76.095,118.677l0,17.463" style="fill:none;stroke:#000;stroke-width:6.25px;stroke-linecap:round;stroke-miterlimit:1.5;"/><path d="M304.744,149.596l-5,-7.5l5,-7.5" style="fill:none;stroke:#000;stroke-width:3.33px;stroke-linecap:round;stroke-linejoin:miter;stroke-miterlimit:10;"/><path d="M324.659,211.783l0,-69.687l-24.915,-0" style="fill:none;stroke:#000;stroke-width:3.33px;stroke-linecap:round;"/><path d="M399.337,149.596l-5,-7.5l5,-7.5" style="fill:none;stroke:#000;stroke-width:3.33px;stroke-linecap:round;stroke-linejoin:miter;stroke-miterlimit:10;"/><path d="M419.253,211.783l-0,-69.687l-24.916,-0" style="fill:none;stroke:#000;stroke-width:3.33px;stroke-linecap:round;"/><path d="M503.458,140.132l5,7.5l-5,7.5" style="fill:none;stroke:#000;stroke-width:3.33px;stroke-linecap:round;stroke-linejoin:miter;stroke-miterlimit:10;"/><path d="M483.542,77.945l0,69.687l24.916,0" style="fill:none;stroke:#000;stroke-width:3.33px;stroke-linecap:round;"/><path d="M210.422,149.596l-5,-7.5l5,-7.5" style="fill:none;stroke:#000;stroke-width:3.33px;stroke-linecap:round;stroke-linejoin:miter;stroke-miterlimit:10;"/><path d="M230.338,211.783l0,-69.687l-24.916,-0" style="fill:none;stroke:#000;stroke-width:3.33px;stroke-linecap:round;"/><path d="M357.172,220.14c-0,4.612 -3.745,8.356 -8.357,8.356l-49.174,0c-4.613,0 -8.357,-3.744 -8.357,-8.356c-0,-4.613 3.744,-8.357 8.357,-8.357l49.174,-0c4.612,-0 8.357,3.744 8.357,8.357Z" style="fill:#fed700;"/><path d="M451.765,220.14c0,4.612 -3.744,8.356 -8.357,8.356l-49.174,0c-4.612,0 -8.357,-3.744 -8.357,-8.356c0,-4.613 3.745,-8.357 8.357,-8.357l49.174,-0c4.613,-0 8.357,3.744 8.357,8.357Z" style="fill:#fed700;"/><path d="M516.824,69.588c0,4.613 -3.745,8.357 -8.357,8.357l-49.174,0c-4.612,0 -8.357,-3.744 -8.357,-8.357c0,-4.612 3.745,-8.356 8.357,-8.356l49.174,-0c4.612,-0 8.357,3.744 8.357,8.356Z" style="fill:#fed700;"/><path d="M262.851,220.14c-0,4.612 -3.745,8.356 -8.357,8.356l-49.175,0c-4.612,0 -8.356,-3.744 -8.356,-8.356c-0,-4.613 3.744,-8.357 8.356,-8.357l49.175,-0c4.612,-0 8.357,3.744 8.357,8.357Z" style="fill:#fed700;"/><g transform="matrix(13.8464,0,0,13.8464,331.435,224.571)"></g><text x="316.622px" y="224.571px" style="font-family:'Calibri-Bold', 'Calibri';font-weight:700;font-size:13.846px;">R2</text><g transform="matrix(13.8464,0,0,13.8464,426.028,224.571)"></g><text x="411.215px" y="224.571px" style="font-family:'Calibri-Bold', 'Calibri';font-weight:700;font-size:13.846px;">R2</text><g transform="matrix(13.8464,0,0,13.8464,492.338,73.956)"></g><text x="475.422px" y="73.956px" style="font-family:'Calibri-Bold', 'Calibri';font-weight:700;font-size:13.846px;">RN</text><g transform="matrix(13.8464,0,0,13.8464,237.154,224.524)"></g><text x="222.341px" y="224.524px" style="font-family:'Calibri-Bold', 'Calibri';font-weight:700;font-size:13.846px;">R1</text><path d="M124.585,44.826l-9.808,-9.807l9.531,-9.531" style="fill:none;stroke:#000;stroke-width:6.25px;stroke-linecap:round;stroke-linejoin:miter;"/><path d="M410.697,44.826l-9.807,-9.807l9.53,-9.531" style="fill:none;stroke:#000;stroke-width:6.25px;stroke-linecap:round;stroke-linejoin:miter;"/><path d="M119.681,255.312l9.808,9.808l-9.531,9.53" style="fill:none;stroke:#000;stroke-width:6.25px;stroke-linecap:round;stroke-linejoin:miter;"/><path d="M400.89,255.312l9.807,9.808l-9.53,9.53" style="fill:none;stroke:#000;stroke-width:6.25px;stroke-linecap:round;stroke-linejoin:miter;"/></svg>