<?xml version="1.0" encoding="UTF-8" standalone="no"?>
<svg
   xmlns:dc="http://purl.org/dc/elements/1.1/"
   xmlns:cc="http://creativecommons.org/ns#"
   xmlns:rdf="http://www.w3.org/1999/02/22-rdf-syntax-ns#"
   xmlns:svg="http://www.w3.org/2000/svg"
   xmlns="http://www.w3.org/2000/svg"
   xmlns:sodipodi="http://sodipodi.sourceforge.net/DTD/sodipodi-0.dtd"
   xmlns:inkscape="http://www.inkscape.org/namespaces/inkscape"
   height="542"
   width="433.94321"
   version="1.1"
   id="Capa_1"
   x="0px"
   y="0px"
   viewBox="0 0 433.94321 542"
   xml:space="preserve"
   sodipodi:docname="EquationIcon.svg"
   inkscape:version="1.0 (4035a4fb49, 2020-05-01)"><metadata
   id="metadata52"><rdf:RDF><cc:Work
       rdf:about=""><dc:format>image/svg+xml</dc:format><dc:type
         rdf:resource="http://purl.org/dc/dcmitype/StillImage" /><dc:title /></cc:Work></rdf:RDF></metadata><defs
   id="defs50" /><sodipodi:namedview
   fit-margin-bottom="0"
   fit-margin-right="0"
   fit-margin-left="0"
   fit-margin-top="0"
   inkscape:document-rotation="0"
   pagecolor="#ffffff"
   bordercolor="#666666"
   borderopacity="1"
   objecttolerance="10"
   gridtolerance="10"
   guidetolerance="10"
   inkscape:pageopacity="0"
   inkscape:pageshadow="2"
   inkscape:window-width="2560"
   inkscape:window-height="1377"
   id="namedview48"
   showgrid="false"
   inkscape:zoom="0.38773482"
   inkscape:cx="284.32968"
   inkscape:cy="-247.92014"
   inkscape:window-x="-8"
   inkscape:window-y="472"
   inkscape:window-maximized="1"
   inkscape:current-layer="Capa_1" />
<linearGradient
   id="SVGID_1_"
   gradientUnits="userSpaceOnUse"
   x1="54.0158"
   y1="258"
   x2="457.98419"
   y2="258"
   gradientTransform="matrix(1,0,0,-1,0,514)">
	<stop
   offset="0"
   style="stop-color:#fef900;stop-opacity:1"
   id="stop2" />
	<stop
   offset="0.021"
   style="stop-color:#fef900;stop-opacity:1"
   id="stop4" />
	<stop
   offset="0.25688457"
   style="stop-color:#fef900;stop-opacity:1"
   id="stop6" />
	<stop
   offset="0.71426225"
   style="stop-color:#fed700;stop-opacity:1"
   id="stop8" />
	<stop
   offset="0.796"
   style="stop-color:#fed700;stop-opacity:1"
   id="stop10" />
	<stop
   offset="1"
   style="stop-color:#fed700;stop-opacity:1"
   id="stop12" />
</linearGradient>
<g
   id="g852"
   style="opacity:1;fill:#fed700;fill-opacity:1"><path
     style="color:#000000;font-style:normal;font-variant:normal;font-weight:normal;font-stretch:normal;font-size:medium;line-height:normal;font-family:sans-serif;font-variant-ligatures:normal;font-variant-position:normal;font-variant-caps:normal;font-variant-numeric:normal;font-variant-alternates:normal;font-variant-east-asian:normal;font-feature-settings:normal;font-variation-settings:normal;text-indent:0;text-align:start;text-decoration:none;text-decoration-line:none;text-decoration-style:solid;text-decoration-color:#000000;letter-spacing:normal;word-spacing:normal;text-transform:none;writing-mode:lr-tb;direction:ltr;text-orientation:mixed;dominant-baseline:auto;baseline-shift:baseline;text-anchor:start;white-space:normal;shape-padding:0;shape-margin:0;inline-size:0;clip-rule:nonzero;display:inline;overflow:visible;visibility:visible;isolation:auto;mix-blend-mode:normal;color-interpolation:sRGB;color-interpolation-filters:linearRGB;solid-color:#000000;solid-opacity:1;vector-effect:none;fill:#fed700;fill-opacity:1;fill-rule:nonzero;stroke:none;stroke-width:30;stroke-linecap:butt;stroke-linejoin:miter;stroke-miterlimit:4;stroke-dasharray:none;stroke-dashoffset:0;stroke-opacity:1;color-rendering:auto;image-rendering:auto;shape-rendering:auto;text-rendering:auto;enable-background:accumulate;stop-color:#000000;stop-opacity:1"
     d="m 180.9432,355 c -5.094,0 -10.187,-1.932 -14.087,-5.803 -7.841,-7.78 -7.891,-20.443 -0.11,-28.284 L 211.9642,275.341 26.158202,82.732 c -11.153,-11.625 -14.267,-28.653 -7.97,-43.421 6.297,-14.769 20.741,-24.311 36.795,-24.311 H 338.9432 c 44.112,0 80,35.888 80,80 0,11.046 -8.954,20 -20,20 -11.046,0 -20,-8.954 -20,-20 0,-22.056 -17.944,-40 -40,-40 H 54.983202 L 254.3372,261.652 c 7.55,7.827 7.463,20.253 -0.197,27.973 l -59,59.462 c -3.909,3.94 -9.053,5.913 -14.197,5.913 z m 238,92 c 0,-11.046 -8.954,-20 -20,-20 -11.046,0 -20,8.954 -20,20 0,22.056 -17.944,40 -40,40 H 56.984202 c 0.018,-0.018 0.037,-0.039 0.06,-0.061 L 122.1672,421.06 c 7.766,-7.855 7.692,-20.518 -0.163,-28.284 -7.855,-7.765 -20.518,-7.691 -28.283998,0.164 l -65.063,65.818 c -11.454,11.488 -14.837,28.593 -8.617,43.577 6.219,14.983 20.721,24.665 36.943,24.665 H 338.9432 c 44.112,0 80,-35.888 80,-80 z"
     id="path854" /><path
     style="color:#000000;font-style:normal;font-variant:normal;font-weight:normal;font-stretch:normal;font-size:medium;line-height:normal;font-family:sans-serif;font-variant-ligatures:normal;font-variant-position:normal;font-variant-caps:normal;font-variant-numeric:normal;font-variant-alternates:normal;font-variant-east-asian:normal;font-feature-settings:normal;font-variation-settings:normal;text-indent:0;text-align:start;text-decoration:none;text-decoration-line:none;text-decoration-style:solid;text-decoration-color:#000000;letter-spacing:normal;word-spacing:normal;text-transform:none;writing-mode:lr-tb;direction:ltr;text-orientation:mixed;dominant-baseline:auto;baseline-shift:baseline;text-anchor:start;white-space:normal;shape-padding:0;shape-margin:0;inline-size:0;clip-rule:nonzero;display:inline;overflow:visible;visibility:visible;isolation:auto;mix-blend-mode:normal;color-interpolation:sRGB;color-interpolation-filters:linearRGB;solid-color:#000000;solid-opacity:1;vector-effect:none;fill:#fed700;fill-opacity:1;fill-rule:nonzero;stroke:none;stroke-width:30;stroke-linecap:butt;stroke-linejoin:miter;stroke-miterlimit:4;stroke-dasharray:none;stroke-dashoffset:0;stroke-opacity:1;color-rendering:auto;image-rendering:auto;shape-rendering:auto;text-rendering:auto;enable-background:accumulate;stop-color:#000000;stop-opacity:1"
     d="M 54.982422 0 C 32.984732 0 13.019128 13.190421 4.390625 33.427734 C -4.2379047 53.66374 0.080634068 77.218309 15.333984 93.117188 L 15.347656 93.130859 L 190.98047 275.19336 L 156.09766 310.34766 L 156.09961 310.34766 C 142.60899 323.94231 142.69587 346.35413 156.28906 359.84375 C 156.28943 359.84411 156.29065 359.84339 156.29102 359.84375 C 156.29138 359.84411 156.29065 359.84534 156.29102 359.8457 C 163.05381 366.55714 172.05753 370 180.94336 370 C 189.9229 370 199.00947 366.4857 205.78906 359.65234 L 264.78906 300.18945 C 278.07739 286.79704 278.23015 264.81615 265.13281 251.23828 L 90.294922 70 L 338.94336 70 C 352.8637 70 363.94336 81.079655 363.94336 95 C 363.94336 114.1521 379.79126 130 398.94336 130 C 418.09546 130 433.94336 114.1521 433.94336 95 C 433.94336 42.752345 391.19101 9.4739031e-15 338.94336 0 L 54.982422 0 z M 54.982422 30 L 338.94336 30 C 374.9197 30 403.94336 59.023655 403.94336 95 C 403.94336 97.939898 401.88326 100 398.94336 100 C 396.00346 100 393.94336 97.939898 393.94336 95 C 393.94336 64.808345 369.13501 40 338.94336 40 L 35.039062 40 C 39.679912 33.78022 46.930748 30 54.982422 30 z M 30.337891 51.056641 L 243.54102 272.06641 C 245.54367 274.14254 245.52386 277.01296 243.49219 279.06055 L 184.49219 338.52148 C 183.45378 339.56813 182.25182 340 180.94336 340 C 179.64206 340 178.46081 339.58005 177.42383 338.55078 L 177.42188 338.55078 L 177.42188 338.54883 C 175.33505 336.47824 175.32186 333.5652 177.39258 331.47852 L 177.39453 331.47852 L 232.94922 275.48828 L 36.982422 72.347656 C 31.381715 66.509925 29.084984 58.688519 30.337891 51.056641 z M 107.74219 372.0957 C 98.753816 372.14784 89.784987 375.58512 83.052734 382.39453 L 18.035156 448.16797 C 2.3674567 463.88218 -2.3225374 487.58994 6.1855469 508.08594 C 14.692629 528.58145 34.791984 542 56.982422 542 L 338.94336 542 C 391.19101 542 433.94336 499.24765 433.94336 447 C 433.94336 427.8479 418.09546 412 398.94336 412 C 379.79126 412 363.94336 427.8479 363.94336 447 C 363.94336 460.92035 352.8637 472 338.94336 472 L 92.902344 472 L 132.83398 431.60547 C 146.30016 417.98497 146.16959 395.57388 132.55078 382.10938 L 132.54883 382.10938 C 125.7384 375.37698 116.73056 372.04357 107.74219 372.0957 z M 107.91406 401.90625 C 109.16244 401.89888 110.41442 402.41076 111.45898 403.44336 C 113.55017 405.51085 113.56583 408.42417 111.5 410.51367 L 46.439453 476.33203 C 46.471208 476.30125 46.299012 476.47052 46.376953 476.39258 L 46.376953 476.39453 L 32.261719 490.50781 C 31.123531 482.83538 33.561971 475.08391 39.279297 469.34961 L 39.302734 469.32617 L 104.38867 403.48438 C 105.42201 402.44016 106.66651 401.91361 107.91406 401.90625 z M 398.94336 442 C 401.88326 442 403.94336 444.0601 403.94336 447 C 403.94336 482.97635 374.9197 512 338.94336 512 L 56.982422 512 C 48.872976 512 41.652112 508.24031 37.023438 502 L 338.94336 502 C 369.13501 502 393.94336 477.19165 393.94336 447 C 393.94336 444.0601 396.00346 442 398.94336 442 z "
     id="path856" /></g>
<g
   transform="translate(-39.040798,15)"
   id="g17">
</g>
<g
   transform="translate(-39.040798,15)"
   id="g19">
</g>
<g
   transform="translate(-39.040798,15)"
   id="g21">
</g>
<g
   transform="translate(-39.040798,15)"
   id="g23">
</g>
<g
   transform="translate(-39.040798,15)"
   id="g25">
</g>
<g
   transform="translate(-39.040798,15)"
   id="g27">
</g>
<g
   transform="translate(-39.040798,15)"
   id="g29">
</g>
<g
   transform="translate(-39.040798,15)"
   id="g31">
</g>
<g
   transform="translate(-39.040798,15)"
   id="g33">
</g>
<g
   transform="translate(-39.040798,15)"
   id="g35">
</g>
<g
   transform="translate(-39.040798,15)"
   id="g37">
</g>
<g
   transform="translate(-39.040798,15)"
   id="g39">
</g>
<g
   transform="translate(-39.040798,15)"
   id="g41">
</g>
<g
   transform="translate(-39.040798,15)"
   id="g43">
</g>
<g
   transform="translate(-39.040798,15)"
   id="g45">
</g>
</svg>
