<?xml version="1.0" encoding="UTF-8" standalone="no"?>
<svg
   xmlns:dc="http://purl.org/dc/elements/1.1/"
   xmlns:cc="http://creativecommons.org/ns#"
   xmlns:rdf="http://www.w3.org/1999/02/22-rdf-syntax-ns#"
   xmlns:svg="http://www.w3.org/2000/svg"
   xmlns="http://www.w3.org/2000/svg"
   xmlns:sodipodi="http://sodipodi.sourceforge.net/DTD/sodipodi-0.dtd"
   xmlns:inkscape="http://www.inkscape.org/namespaces/inkscape"
   inkscape:export-ydpi="146.3"
   inkscape:export-xdpi="146.3"
   inkscape:export-filename="C:\Users\Corey\Documents\KoBee\Support Data\Circuits\Resistors-In-Series.png"
   width="650"
   height="299"
   viewBox="0 0 171.97917 79.110416"
   version="1.1"
   id="svg8"
   inkscape:version="1.0 (4035a4fb49, 2020-05-01)"
   sodipodi:docname="Load-Voltage-Divider.svg">
  <defs
     id="defs2">
    <marker
       inkscape:stockid="TriangleOutL"
       orient="auto"
       refY="0.0"
       refX="0.0"
       id="TriangleOutL"
       style="overflow:visible"
       inkscape:isstock="true">
      <path
         id="path1222"
         d="M 5.77,0.0 L -2.88,5.0 L -2.88,-5.0 L 5.77,0.0 z "
         style="fill-rule:evenodd;stroke:#4e4c4c;stroke-width:1pt;stroke-opacity:1;fill:#4e4c4c;fill-opacity:1"
         transform="scale(0.8)" />
    </marker>
    <marker
       inkscape:stockid="Arrow1Mstart"
       orient="auto"
       refY="0.0"
       refX="0.0"
       id="Arrow1Mstart"
       style="overflow:visible"
       inkscape:isstock="true">
      <path
         id="path1086"
         d="M 0.0,0.0 L 5.0,-5.0 L -12.5,0.0 L 5.0,5.0 L 0.0,0.0 z "
         style="fill-rule:evenodd;stroke:#000000;stroke-width:1pt;stroke-opacity:1;fill:#000000;fill-opacity:1"
         transform="scale(0.4) translate(10,0)" />
    </marker>
    <marker
       inkscape:stockid="Arrow1Lstart"
       orient="auto"
       refY="0.0"
       refX="0.0"
       id="Arrow1Lstart"
       style="overflow:visible"
       inkscape:isstock="true">
      <path
         id="path1080"
         d="M 0.0,0.0 L 5.0,-5.0 L -12.5,0.0 L 5.0,5.0 L 0.0,0.0 z "
         style="fill-rule:evenodd;stroke:#000000;stroke-width:1pt;stroke-opacity:1;fill:#000000;fill-opacity:1"
         transform="scale(0.8) translate(12.5,0)" />
    </marker>
    <marker
       inkscape:stockid="DiamondSstart"
       orient="auto"
       refY="0.0"
       refX="0.0"
       id="DiamondSstart"
       style="overflow:visible"
       inkscape:isstock="true">
      <path
         id="path1174"
         d="M 0,-7.0710768 L -7.0710894,0 L 0,7.0710589 L 7.0710462,0 L 0,-7.0710768 z "
         style="fill-rule:evenodd;stroke:#000000;stroke-width:1pt;stroke-opacity:1;fill:#000000;fill-opacity:1"
         transform="scale(0.2) translate(6,0)" />
    </marker>
    <marker
       inkscape:stockid="DiamondL"
       orient="auto"
       refY="0.0"
       refX="0.0"
       id="DiamondL"
       style="overflow:visible"
       inkscape:isstock="true">
      <path
         id="path1159"
         d="M 0,-7.0710768 L -7.0710894,0 L 0,7.0710589 L 7.0710462,0 L 0,-7.0710768 z "
         style="fill-rule:evenodd;stroke:#000000;stroke-width:1pt;stroke-opacity:1;fill:#000000;fill-opacity:1"
         transform="scale(0.8)" />
    </marker>
    <marker
       inkscape:stockid="Tail"
       orient="auto"
       refY="0.0"
       refX="0.0"
       id="Tail"
       style="overflow:visible"
       inkscape:isstock="true">
      <g
         id="g1128"
         transform="scale(-1.2)"
         style="stroke:#000000;stroke-opacity:1;fill:#000000;fill-opacity:1">
        <path
           id="path1116"
           d="M -3.8048674,-3.9585227 L 0.54352094,0"
           style="fill:#000000;fill-rule:evenodd;stroke:#000000;stroke-width:0.8;stroke-linecap:round;stroke-opacity:1;fill-opacity:1" />
        <path
           id="path1118"
           d="M -1.2866832,-3.9585227 L 3.0617053,0"
           style="fill:#000000;fill-rule:evenodd;stroke:#000000;stroke-width:0.8;stroke-linecap:round;stroke-opacity:1;fill-opacity:1" />
        <path
           id="path1120"
           d="M 1.3053582,-3.9585227 L 5.6537466,0"
           style="fill:#000000;fill-rule:evenodd;stroke:#000000;stroke-width:0.8;stroke-linecap:round;stroke-opacity:1;fill-opacity:1" />
        <path
           id="path1122"
           d="M -3.8048674,4.1775838 L 0.54352094,0.21974226"
           style="fill:#000000;fill-rule:evenodd;stroke:#000000;stroke-width:0.8;stroke-linecap:round;stroke-opacity:1;fill-opacity:1" />
        <path
           id="path1124"
           d="M -1.2866832,4.1775838 L 3.0617053,0.21974226"
           style="fill:#000000;fill-rule:evenodd;stroke:#000000;stroke-width:0.8;stroke-linecap:round;stroke-opacity:1;fill-opacity:1" />
        <path
           id="path1126"
           d="M 1.3053582,4.1775838 L 5.6537466,0.21974226"
           style="fill:#000000;fill-rule:evenodd;stroke:#000000;stroke-width:0.8;stroke-linecap:round;stroke-opacity:1;fill-opacity:1" />
      </g>
    </marker>
    <marker
       inkscape:stockid="Arrow2Lend"
       orient="auto"
       refY="0.0"
       refX="0.0"
       id="Arrow2Lend"
       style="overflow:visible;"
       inkscape:isstock="true">
      <path
         id="path1101"
         style="fill-rule:evenodd;stroke-width:0.625;stroke-linejoin:round;stroke:#000000;stroke-opacity:1;fill:#000000;fill-opacity:1"
         d="M 8.7185878,4.0337352 L -2.2072895,0.016013256 L 8.7185884,-4.0017078 C 6.9730900,-1.6296469 6.9831476,1.6157441 8.7185878,4.0337352 z "
         transform="scale(1.1) rotate(180) translate(1,0)" />
    </marker>
    <marker
       inkscape:isstock="true"
       style="overflow:visible"
       id="TriangleOutL-2"
       refX="0"
       refY="0"
       orient="auto"
       inkscape:stockid="TriangleOutL">
      <path
         transform="scale(0.8)"
         style="fill:#4e4c4c;fill-opacity:1;fill-rule:evenodd;stroke:#4e4c4c;stroke-width:1pt;stroke-opacity:1"
         d="M 5.77,0 -2.88,5 V -5 Z"
         id="path1222-4" />
    </marker>
  </defs>
  <sodipodi:namedview
     units="px"
     id="base"
     pagecolor="#ffffff"
     bordercolor="#666666"
     borderopacity="1.0"
     inkscape:pageopacity="0.0"
     inkscape:pageshadow="2"
     inkscape:zoom="1"
     inkscape:cx="-81.874148"
     inkscape:cy="232.40396"
     inkscape:document-units="mm"
     inkscape:current-layer="g2367"
     inkscape:document-rotation="0"
     showgrid="true"
     inkscape:window-width="2560"
     inkscape:window-height="1377"
     inkscape:window-x="-8"
     inkscape:window-y="477"
     inkscape:window-maximized="1"
     showguides="false"
     inkscape:snap-bbox="true"
     inkscape:snap-global="false">
    <inkscape:grid
       type="xygrid"
       id="grid842"
       units="mm"
       spacingx="1"
       spacingy="1"
       snapvisiblegridlinesonly="false"
       empspacing="5"
       dotted="false" />
  </sodipodi:namedview>
  <metadata
     id="metadata5">
    <rdf:RDF>
      <cc:Work
         rdf:about="">
        <dc:format>image/svg+xml</dc:format>
        <dc:type
           rdf:resource="http://purl.org/dc/dcmitype/StillImage" />
        <dc:title />
      </cc:Work>
    </rdf:RDF>
  </metadata>
  <g
     inkscape:label="Layer 1"
     inkscape:groupmode="layer"
     id="layer1">
    <g
       transform="matrix(3.1978989,0,0,3.1978989,-72.3936,-851.68182)"
       id="g2359" />
    <g
       inkscape:export-filename="C:\Users\billb\Pictures\Feather M4 Test1.png"
       inkscape:export-ydpi="146.3"
       inkscape:export-xdpi="146.3"
       transform="matrix(0.61850709,0,0,0.61850709,-149.81612,-339.64067)"
       id="g2371"
       style="stroke-width:1.45919">
      <g
         id="g2369"
         transform="translate(20.681403,20.681414)">
        <g
           id="g2367"
           transform="translate(-15.175587,5.1703626)">
          <path
             id="path1459-2-5-3"
             d="m 275.01668,642.06302 h 134.11849 v 0"
             style="fill:none;stroke:#4e4c4c;stroke-width:1.51494;stroke-linecap:round;stroke-linejoin:miter;stroke-miterlimit:4;stroke-dasharray:none;stroke-opacity:1" />
          <rect
             ry="5.1703463"
             y="562.63489"
             x="242.69768"
             height="10.340693"
             width="25.851826"
             id="rect1504-1-0"
             style="fill:#fed700;fill-opacity:1;stroke:none;stroke-width:0.588701;stroke-linecap:round;stroke-linejoin:round;stroke-miterlimit:4;stroke-dasharray:none" />
          <g
             style="font-style:normal;font-weight:normal;font-size:8.32297px;line-height:1.25;font-family:sans-serif;fill:#000000;fill-opacity:1;stroke:none;stroke-width:0.303621"
             id="text1508-2-5"
             aria-label="Vin">
            <path
               id="path1275"
               style="font-style:normal;font-variant:normal;font-weight:600;font-stretch:normal;font-family:Comfortaa;-inkscape-font-specification:'Comfortaa Semi-Bold';fill:#4e5153;fill-opacity:1;stroke-width:0.303621"
               d="m 251.79524,571.05536 q -0.24969,0 -0.35789,-0.24969 l -2.45528,-5.6513 q -0.10819,-0.26633 -0.025,-0.43279 0.0916,-0.16646 0.33291,-0.16646 0.26634,0 0.36622,0.24137 l 2.18894,5.25179 h -0.11652 l 2.21391,-5.24347 q 0.0583,-0.14149 0.14149,-0.19143 0.0832,-0.0583 0.22472,-0.0583 0.23304,0 0.31627,0.16646 0.0916,0.16646 0,0.37453 l -2.47192,5.70956 q -0.0583,0.12484 -0.14982,0.19143 -0.0832,0.0583 -0.20807,0.0583 z" />
            <path
               id="path1277"
               style="font-style:normal;font-variant:normal;font-weight:600;font-stretch:normal;font-family:Comfortaa;-inkscape-font-specification:'Comfortaa Semi-Bold';fill:#4e5153;fill-opacity:1;stroke-width:0.303621"
               d="m 256.07715,571.05536 q -0.17479,0 -0.28298,-0.1082 -0.1082,-0.1082 -0.1082,-0.28298 v -3.77031 q 0,-0.17478 0.1082,-0.28298 0.10819,-0.1082 0.28298,-0.1082 0.17478,0 0.28298,0.1082 0.1082,0.1082 0.1082,0.28298 v 3.77031 q 0,0.17478 -0.1082,0.28298 -0.1082,0.1082 -0.28298,0.1082 z m 0,-5.33503 q -0.20808,0 -0.36621,-0.14981 -0.14982,-0.15814 -0.14982,-0.36621 0,-0.22472 0.14982,-0.36621 0.15813,-0.14981 0.36621,-0.14981 0.20807,0 0.35789,0.14981 0.15813,0.14149 0.15813,0.36621 0,0.20807 -0.14981,0.36621 -0.14982,0.14981 -0.36621,0.14981 z" />
            <path
               id="path1279"
               style="font-style:normal;font-variant:normal;font-weight:600;font-stretch:normal;font-family:Comfortaa;-inkscape-font-specification:'Comfortaa Semi-Bold';fill:#4e5153;fill-opacity:1;stroke-width:0.303621"
               d="m 261.93509,571.06368 q -0.16646,0 -0.28298,-0.1082 -0.1082,-0.11652 -0.1082,-0.28298 v -2.08906 q 0,-0.48274 -0.18311,-0.79069 -0.17478,-0.31627 -0.49105,-0.46608 -0.30795,-0.15814 -0.69913,-0.15814 -0.37454,0 -0.67416,0.14982 -0.29131,0.14981 -0.46609,0.3995 -0.17478,0.24969 -0.17478,0.56596 h -0.5077 q 0.008,-0.52435 0.26633,-0.93217 0.25801,-0.41615 0.69913,-0.64919 0.44112,-0.24137 0.99044,-0.24137 0.57428,0 1.03204,0.24969 0.45777,0.24136 0.7241,0.71577 0.26634,0.47441 0.26634,1.1569 v 2.08906 q 0,0.16646 -0.11652,0.28298 -0.1082,0.1082 -0.27466,0.1082 z m -3.47068,0 q -0.17478,0 -0.28298,-0.1082 -0.1082,-0.11652 -0.1082,-0.28298 v -3.77863 q 0,-0.17478 0.1082,-0.28298 0.1082,-0.1082 0.28298,-0.1082 0.17478,0 0.28298,0.1082 0.1082,0.1082 0.1082,0.28298 v 3.77863 q 0,0.16646 -0.1082,0.28298 -0.1082,0.1082 -0.28298,0.1082 z" />
          </g>
          <path
             id="path1607-6-9"
             d="m 408.08258,586.70899 v 12.57538 l 5.03016,2.90418 -8.03855,4.64105 8.71247,5.03017 -8.71247,5.03014 8.71247,5.03017 -8.71247,5.03014 4.35624,2.5151 v 12.57538"
             style="fill:none;stroke:#4e5153;stroke-width:1.51494;stroke-linecap:round;stroke-linejoin:round;stroke-miterlimit:4;stroke-dasharray:none;stroke-opacity:1" />
          <path
             style="fill:none;stroke:#4e5153;stroke-width:1.51494;stroke-linecap:round;stroke-linejoin:round;stroke-miterlimit:4;stroke-dasharray:none;stroke-opacity:1"
             d="m 406.7403,531.65685 v 12.57538 l 5.03016,2.90418 -8.03855,4.64105 8.71247,5.03017 -8.71247,5.03014 8.71247,5.03017 -8.71247,5.03014 4.35623,2.5151 v 12.57538"
             id="path909" />
          <path
             style="fill:none;stroke:#4e4c4c;stroke-width:1.51494;stroke-linecap:round;stroke-linejoin:miter;stroke-miterlimit:4;stroke-dasharray:none;stroke-opacity:1"
             d="m 275.01668,531.70455 h 131.58438 v 0"
             id="path911" />
          <path
             style="fill:none;stroke:#4e4c4c;stroke-width:1.51494;stroke-linecap:round;stroke-linejoin:miter;stroke-miterlimit:4;stroke-dasharray:none;stroke-opacity:1"
             d="m 274.97887,601.51077 v 40.41991 0"
             id="path1459-2-5-3-2" />
          <path
             id="path928"
             d="m 274.97887,531.67611 v 46.14987 0"
             style="fill:none;stroke:#4e4c4c;stroke-width:1.51494;stroke-linecap:round;stroke-linejoin:miter;stroke-miterlimit:4;stroke-dasharray:none;stroke-opacity:1" />
          <path
             style="fill:none;stroke:#4e4c4c;stroke-width:1.51494;stroke-linecap:round;stroke-linejoin:miter;stroke-miterlimit:4;stroke-dasharray:none;stroke-opacity:1"
             d="m 281.44606,601.18179 h -12.93437 v 0"
             id="path930" />
          <path
             id="path932"
             d="m 281.44606,585.88875 h -12.93437 v 0"
             style="fill:none;stroke:#4e4c4c;stroke-width:1.51494;stroke-linecap:round;stroke-linejoin:miter;stroke-miterlimit:4;stroke-dasharray:none;stroke-opacity:1" />
          <path
             id="path936"
             d="m 289.56785,593.90958 h -29.17796 v 0"
             style="fill:none;stroke:#4e4c4c;stroke-width:1.51494;stroke-linecap:round;stroke-linejoin:miter;stroke-miterlimit:4;stroke-dasharray:none;stroke-opacity:1" />
          <path
             style="fill:none;stroke:#4e4c4c;stroke-width:1.51494;stroke-linecap:round;stroke-linejoin:miter;stroke-miterlimit:4;stroke-dasharray:none;stroke-opacity:1"
             d="m 289.56785,578.08181 h -29.17796 v 0"
             id="path938" />
          <rect
             style="fill:#fed700;fill-opacity:1;stroke:none;stroke-width:0.588702;stroke-linecap:round;stroke-linejoin:round;stroke-miterlimit:4;stroke-dasharray:none"
             id="rect1504-9"
             width="25.851826"
             height="10.340693"
             x="375.27496"
             y="552.93414"
             ry="5.1703463" />
          <g
             style="font-style:normal;font-weight:normal;font-size:8.323px;line-height:1.25;font-family:sans-serif;fill:#000000;fill-opacity:1;stroke:none;stroke-width:0.303621"
             id="text1508-00"
             aria-label="R1">
            <path
               id="path1307"
               style="font-style:normal;font-variant:normal;font-weight:600;font-stretch:normal;font-family:Comfortaa;-inkscape-font-specification:'Comfortaa Semi-Bold';fill:#4e5153;fill-opacity:1;stroke-width:0.303621"
               d="m 385.20895,561.35461 q -0.17479,0 -0.29131,-0.10819 -0.1082,-0.11653 -0.1082,-0.29131 v -5.70125 q 0,-0.17479 0.1082,-0.28299 0.11652,-0.11652 0.29131,-0.11652 h 1.51478 q 0.6159,0 1.09864,0.25801 0.48273,0.25802 0.74907,0.71578 0.27466,0.45777 0.27466,1.05702 0,0.56597 -0.27466,1.00709 -0.26634,0.44112 -0.74907,0.69081 -0.48274,0.24969 -1.09864,0.24969 h -1.1236 v 2.12236 q 0,0.17478 -0.1082,0.29131 -0.1082,0.10819 -0.28298,0.10819 z m 3.46236,0 q -0.11652,0 -0.19975,-0.0416 -0.0832,-0.0499 -0.14981,-0.14981 l -1.53143,-2.46361 0.78236,-0.2164 1.40659,2.26386 q 0.14149,0.22472 0.0416,0.41615 -0.0999,0.19142 -0.34957,0.19142 z m -3.07118,-3.26261 h 1.1236 q 0.39951,0 0.69913,-0.14982 0.30796,-0.15813 0.48274,-0.43279 0.17478,-0.27466 0.17478,-0.62423 0,-0.37453 -0.17478,-0.66584 -0.17478,-0.29962 -0.48274,-0.45776 -0.29962,-0.16646 -0.69913,-0.16646 h -1.1236 z" />
            <path
               id="path1309"
               style="font-style:normal;font-variant:normal;font-weight:600;font-stretch:normal;font-family:Comfortaa;-inkscape-font-specification:'Comfortaa Semi-Bold';fill:#4e5153;fill-opacity:1;stroke-width:0.303621"
               d="m 391.19279,561.35461 q -0.14981,0 -0.26633,-0.10819 -0.11652,-0.11653 -0.11652,-0.28299 v -5.18523 l -0.68249,0.26634 q -0.12485,0.0499 -0.23304,0.0499 -0.16646,0 -0.28299,-0.1082 -0.1082,-0.1082 -0.1082,-0.27466 0,-0.11652 0.0583,-0.2164 0.0583,-0.0999 0.19142,-0.14981 l 1.29839,-0.45777 q 0.0416,-0.0166 0.0832,-0.025 0.0416,-0.008 0.0749,-0.008 0.17478,0 0.27466,0.11652 0.1082,0.1082 0.1082,0.27466 v 5.7179 q 0,0.16646 -0.11652,0.28299 -0.1082,0.10819 -0.28299,0.10819 z" />
          </g>
          <rect
             ry="5.1703463"
             y="609.52197"
             x="375.27496"
             height="10.340693"
             width="25.851826"
             id="rect1504-3-9"
             style="fill:#fed700;fill-opacity:1;stroke:none;stroke-width:0.588702;stroke-linecap:round;stroke-linejoin:round;stroke-miterlimit:4;stroke-dasharray:none" />
          <g
             style="font-style:normal;font-weight:normal;font-size:8.323px;line-height:1.25;font-family:sans-serif;fill:#000000;fill-opacity:1;stroke:none;stroke-width:0.303621"
             id="text1508-0-0"
             aria-label="R2">
            <path
               id="path1302"
               style="font-style:normal;font-variant:normal;font-weight:600;font-stretch:normal;font-family:Comfortaa;-inkscape-font-specification:'Comfortaa Semi-Bold';fill:#4e5153;fill-opacity:1;stroke-width:0.303621"
               d="m 384.17275,617.94244 q -0.17478,0 -0.2913,-0.1082 -0.1082,-0.11652 -0.1082,-0.2913 v -5.70126 q 0,-0.17478 0.1082,-0.28298 0.11652,-0.11652 0.2913,-0.11652 h 1.51479 q 0.6159,0 1.09863,0.25801 0.48274,0.25802 0.74907,0.71578 0.27466,0.45777 0.27466,1.05702 0,0.56597 -0.27466,1.00709 -0.26633,0.44111 -0.74907,0.6908 -0.48273,0.24969 -1.09863,0.24969 h -1.12361 v 2.12237 q 0,0.17478 -0.1082,0.2913 -0.10819,0.1082 -0.28298,0.1082 z m 3.46237,0 q -0.11652,0 -0.19975,-0.0416 -0.0832,-0.0499 -0.14982,-0.14982 l -1.53143,-2.4636 0.78236,-0.2164 1.40659,2.26385 q 0.14149,0.22473 0.0416,0.41615 -0.0999,0.19143 -0.34957,0.19143 z m -3.07119,-3.26261 h 1.12361 q 0.3995,0 0.69913,-0.14982 0.30795,-0.15813 0.48273,-0.43279 0.17479,-0.27466 0.17479,-0.62423 0,-0.37453 -0.17479,-0.66584 -0.17478,-0.29963 -0.48273,-0.45776 -0.29963,-0.16646 -0.69913,-0.16646 h -1.12361 z" />
            <path
               id="path1304"
               style="font-style:normal;font-variant:normal;font-weight:600;font-stretch:normal;font-family:Comfortaa;-inkscape-font-specification:'Comfortaa Semi-Bold';fill:#4e5153;fill-opacity:1;stroke-width:0.303621"
               d="m 389.1079,617.94244 q -0.16646,0 -0.28298,-0.1082 -0.1082,-0.11652 -0.1082,-0.28298 0,-0.16646 0.1082,-0.27466 l 2.41367,-2.83814 q 0.24137,-0.26634 0.37453,-0.53267 0.13317,-0.26634 0.13317,-0.49938 0,-0.37454 -0.14149,-0.6492 -0.13317,-0.28298 -0.38286,-0.43279 -0.24136,-0.15814 -0.58261,-0.15814 -0.32459,0 -0.59093,0.17478 -0.26634,0.16646 -0.41615,0.44945 -0.14981,0.27466 -0.14981,0.6159 0,0.15814 -0.11653,0.27466 -0.10819,0.1082 -0.27465,0.1082 -0.15814,0 -0.27466,-0.1082 -0.11653,-0.11652 -0.11653,-0.27466 0,-0.56597 0.24969,-1.00708 0.25802,-0.44112 0.69914,-0.69914 0.44112,-0.25801 0.99043,-0.25801 0.55764,0 0.97379,0.24137 0.42448,0.24136 0.6492,0.68248 0.23304,0.44112 0.23304,1.04038 0,0.26633 -0.1082,0.53267 -0.0999,0.26634 -0.26633,0.51603 -0.15814,0.24136 -0.33292,0.44112 l -1.98088,2.26385 h 2.422 q 0.16646,0 0.28298,0.12485 0.11652,0.11652 0.11652,0.26633 0,0.16646 -0.11652,0.28298 -0.11652,0.1082 -0.28298,0.1082 z" />
          </g>
          <ellipse
             inkscape:transform-center-y="0.09921875"
             inkscape:transform-center-x="-4.4317708"
             ry="3.6192484"
             rx="3.5684912"
             style="fill:#4e4c4c;fill-opacity:1;stroke:#4e4c4c;stroke-width:1.36798;stroke-linecap:round;stroke-linejoin:round;stroke-miterlimit:0.7;stroke-dasharray:none;stroke-dashoffset:0;stroke-opacity:1;paint-order:fill markers stroke"
             id="path1389-0-9-3-8-4-5-6-5"
             cx="408.1918"
             cy="585.82574" />
          <ellipse
             cy="641.55847"
             cx="408.98694"
             id="ellipse1020"
             style="fill:#4e4c4c;fill-opacity:1;stroke:#4e4c4c;stroke-width:1.36798;stroke-linecap:round;stroke-linejoin:round;stroke-miterlimit:0.7;stroke-dasharray:none;stroke-dashoffset:0;stroke-opacity:1;paint-order:fill markers stroke"
             rx="3.5684912"
             ry="3.6192484"
             inkscape:transform-center-x="-4.4317708"
             inkscape:transform-center-y="0.09921875" />
          <ellipse
             inkscape:transform-center-y="0.09921875"
             inkscape:transform-center-x="-4.4317708"
             ry="3.6192484"
             rx="3.5684912"
             style="fill:#4e4c4c;fill-opacity:1;stroke:#4e4c4c;stroke-width:1.36798;stroke-linecap:round;stroke-linejoin:round;stroke-miterlimit:0.7;stroke-dasharray:none;stroke-dashoffset:0;stroke-opacity:1;paint-order:fill markers stroke"
             id="ellipse1022"
             cx="406.84805"
             cy="532.90302" />
          <path
             style="fill:none;stroke:#4e4c4c;stroke-width:1.51494;stroke-linecap:round;stroke-linejoin:miter;stroke-miterlimit:4;stroke-dasharray:none;stroke-opacity:1"
             d="m 409.33879,642.06302 h 46.75909 v 0"
             id="path1024" />
          <path
             id="path1028"
             d="m 409.33879,585.95218 h 46.75909 v 0"
             style="fill:none;stroke:#4e4c4c;stroke-width:1.51494;stroke-linecap:round;stroke-linejoin:miter;stroke-miterlimit:4;stroke-dasharray:none;stroke-opacity:1" />
          <rect
             style="fill:#fed700;fill-opacity:1;stroke:none;stroke-width:0.588701;stroke-linecap:round;stroke-linejoin:round;stroke-miterlimit:4;stroke-dasharray:none"
             id="rect1504-1-0-3"
             width="25.851826"
             height="10.340693"
             x="482.93848"
             y="609.06824"
             ry="5.1703463" />
          <g
             style="font-style:normal;font-weight:normal;font-size:8.32297px;line-height:1.25;font-family:sans-serif;fill:#000000;fill-opacity:1;stroke:none;stroke-width:0.303621"
             id="text1508-2-5-6"
             aria-label="Vout">
            <path
               id="path1288"
               style="font-style:normal;font-variant:normal;font-weight:600;font-stretch:normal;font-family:Comfortaa;-inkscape-font-specification:'Comfortaa Semi-Bold';fill:#4e5153;fill-opacity:1;stroke-width:0.303621"
               d="m 489.07194,617.4679 q -0.24969,0 -0.35789,-0.24969 l -2.45527,-5.6513 q -0.1082,-0.26634 -0.025,-0.43279 0.0915,-0.16646 0.33292,-0.16646 0.26633,0 0.36621,0.24136 l 2.18894,5.2518 h -0.11652 l 2.21391,-5.24348 q 0.0583,-0.14149 0.14149,-0.19142 0.0832,-0.0583 0.22472,-0.0583 0.23304,0 0.31627,0.16646 0.0915,0.16645 0,0.37453 l -2.47192,5.70956 q -0.0583,0.12484 -0.14981,0.19142 -0.0832,0.0583 -0.20808,0.0583 z" />
            <path
               id="path1290"
               style="font-style:normal;font-variant:normal;font-weight:600;font-stretch:normal;font-family:Comfortaa;-inkscape-font-specification:'Comfortaa Semi-Bold';fill:#4e5153;fill-opacity:1;stroke-width:0.303621"
               d="m 494.01657,617.50119 q -0.66584,0 -1.19019,-0.29131 -0.51602,-0.29962 -0.81565,-0.81565 -0.2913,-0.52434 -0.2913,-1.19851 0,-0.68248 0.2913,-1.1985 0.29963,-0.52435 0.81565,-0.81565 0.52435,-0.29963 1.19019,-0.29963 0.66583,0 1.18186,0.29963 0.51602,0.2913 0.81565,0.81565 0.29963,0.51602 0.29963,1.1985 0,0.67417 -0.29963,1.19851 -0.2913,0.51603 -0.80733,0.81565 -0.51602,0.29131 -1.19018,0.29131 z m 0,-0.69081 q 0.44944,0 0.799,-0.20807 0.34957,-0.20808 0.54932,-0.56597 0.19975,-0.36621 0.19975,-0.84062 0,-0.4744 -0.19975,-0.84062 -0.19975,-0.36621 -0.54932,-0.57428 -0.34956,-0.20807 -0.799,-0.20807 -0.44944,0 -0.79901,0.20807 -0.34956,0.20807 -0.54931,0.57428 -0.19976,0.36622 -0.19976,0.84062 0,0.47441 0.19976,0.84062 0.19975,0.35789 0.54931,0.56597 0.34957,0.20807 0.79901,0.20807 z" />
            <path
               id="path1292"
               style="font-style:normal;font-variant:normal;font-weight:600;font-stretch:normal;font-family:Comfortaa;-inkscape-font-specification:'Comfortaa Semi-Bold';fill:#4e5153;fill-opacity:1;stroke-width:0.303621"
               d="m 499.51623,617.50951 q -0.58261,0 -1.04037,-0.24137 -0.45777,-0.24968 -0.7241,-0.72409 -0.26634,-0.47441 -0.26634,-1.1569 v -2.08906 q 0,-0.16646 0.1082,-0.27466 0.11652,-0.11652 0.28298,-0.11652 0.16646,0 0.27466,0.11652 0.11652,0.1082 0.11652,0.27466 v 2.08906 q 0,0.48274 0.18311,0.79901 0.1831,0.30795 0.49105,0.46608 0.31628,0.14982 0.70746,0.14982 0.37453,0 0.66583,-0.14982 0.29963,-0.14981 0.47441,-0.3995 0.17479,-0.24969 0.17479,-0.56596 h 0.49937 q -0.008,0.51602 -0.26633,0.93217 -0.25801,0.41615 -0.69913,0.65752 -0.4328,0.23304 -0.98211,0.23304 z m 1.83105,-0.0416 q -0.16646,0 -0.27466,-0.1082 -0.10819,-0.1082 -0.10819,-0.28298 v -3.77863 q 0,-0.17479 0.10819,-0.28298 0.1082,-0.1082 0.27466,-0.1082 0.17478,0 0.28298,0.1082 0.1082,0.10819 0.1082,0.28298 v 3.77863 q 0,0.17478 -0.1082,0.28298 -0.1082,0.1082 -0.28298,0.1082 z" />
            <path
               id="path1294"
               style="font-style:normal;font-variant:normal;font-weight:600;font-stretch:normal;font-family:Comfortaa;-inkscape-font-specification:'Comfortaa Semi-Bold';fill:#4e5153;fill-opacity:1;stroke-width:0.303621"
               d="m 504.93188,617.4679 q -0.42447,0 -0.76571,-0.20808 -0.33292,-0.2164 -0.53267,-0.57428 -0.19143,-0.36621 -0.19143,-0.8323 v -4.00335 q 0,-0.16646 0.1082,-0.27466 0.1082,-0.1082 0.27466,-0.1082 0.17478,0 0.28298,0.1082 0.1082,0.1082 0.1082,0.27466 v 4.00335 q 0,0.36621 0.19975,0.60758 0.20807,0.24136 0.51602,0.24136 h 0.26634 q 0.14149,0 0.23304,0.1082 0.0999,0.1082 0.0999,0.27466 0,0.16646 -0.12485,0.27466 -0.12484,0.1082 -0.31627,0.1082 z m -1.9226,-3.72037 q -0.15814,0 -0.25802,-0.0915 -0.0999,-0.0999 -0.0999,-0.23305 0,-0.15813 0.0999,-0.24969 0.0999,-0.0915 0.25802,-0.0915 h 1.98919 q 0.15813,0 0.25801,0.0915 0.0999,0.0916 0.0999,0.24969 0,0.13317 -0.0999,0.23305 -0.0999,0.0915 -0.25801,0.0915 z" />
          </g>
          <path
             style="fill:none;stroke:#4e4c4c;stroke-width:0.406658;stroke-linecap:round;stroke-linejoin:miter;stroke-miterlimit:3.4;stroke-dasharray:none;stroke-opacity:1;marker-end:url(#TriangleOutL)"
             d="M 495.89851,608.27796 V 589.89485"
             id="path1676" />
          <path
             id="path1676-0"
             d="m 495.93632,619.96292 v 18.38312"
             style="fill:none;stroke:#4e4c4c;stroke-width:0.406658;stroke-linecap:round;stroke-linejoin:miter;stroke-miterlimit:3.4;stroke-dasharray:none;stroke-opacity:1;marker-end:url(#TriangleOutL-2)" />
          <path
             style="fill:none;stroke:#4e5153;stroke-width:1.51494;stroke-linecap:round;stroke-linejoin:round;stroke-miterlimit:4;stroke-dasharray:none;stroke-opacity:1"
             d="m 457.49088,586.70899 v 12.57538 l 5.03016,2.90418 -8.03855,4.64105 8.71246,5.03017 -8.71246,5.03014 8.71246,5.03017 -8.71246,5.03014 4.35623,2.5151 v 12.57538"
             id="path2341" />
          <ellipse
             cy="585.82574"
             cx="457.6001"
             id="ellipse2343"
             style="fill:#4e4c4c;fill-opacity:1;stroke:#4e4c4c;stroke-width:1.36798;stroke-linecap:round;stroke-linejoin:round;stroke-miterlimit:0.7;stroke-dasharray:none;stroke-dashoffset:0;stroke-opacity:1;paint-order:fill markers stroke"
             rx="3.5684912"
             ry="3.6192484"
             inkscape:transform-center-x="-4.4317708"
             inkscape:transform-center-y="0.09921875" />
          <ellipse
             inkscape:transform-center-y="0.09921875"
             inkscape:transform-center-x="-4.4317708"
             ry="3.6192484"
             rx="3.5684912"
             style="fill:#4e4c4c;fill-opacity:1;stroke:#4e4c4c;stroke-width:1.36798;stroke-linecap:round;stroke-linejoin:round;stroke-miterlimit:0.7;stroke-dasharray:none;stroke-dashoffset:0;stroke-opacity:1;paint-order:fill markers stroke"
             id="ellipse2345"
             cx="458.39523"
             cy="641.55847" />
          <path
             id="path2347"
             d="m 460.2443,642.06302 h 46.75909 v 0"
             style="fill:none;stroke:#4e4c4c;stroke-width:1.51494;stroke-linecap:round;stroke-linejoin:miter;stroke-miterlimit:4;stroke-dasharray:none;stroke-opacity:1" />
          <path
             style="fill:none;stroke:#4e4c4c;stroke-width:1.51494;stroke-linecap:round;stroke-linejoin:miter;stroke-miterlimit:4;stroke-dasharray:none;stroke-opacity:1"
             d="m 460.2443,585.95218 h 46.75909 v 0"
             id="path2349" />
          <rect
             ry="5.1703463"
             y="609.52197"
             x="427.03601"
             height="10.340693"
             width="25.851826"
             id="rect2361"
             style="fill:#fed700;fill-opacity:1;stroke:none;stroke-width:0.588702;stroke-linecap:round;stroke-linejoin:round;stroke-miterlimit:4;stroke-dasharray:none" />
          <g
             style="font-style:normal;font-weight:normal;font-size:8.323px;line-height:1.25;font-family:sans-serif;fill:#000000;fill-opacity:1;stroke:none;stroke-width:0.303621"
             id="text2365"
             aria-label="RL">
            <path
               id="path1297"
               style="font-style:normal;font-variant:normal;font-weight:600;font-stretch:normal;font-family:Comfortaa;-inkscape-font-specification:'Comfortaa Semi-Bold';fill:#4e5153;fill-opacity:1;stroke-width:0.303621"
               d="m 435.61337,617.94244 q -0.17479,0 -0.29131,-0.1082 -0.1082,-0.11652 -0.1082,-0.2913 v -5.70126 q 0,-0.17478 0.1082,-0.28298 0.11652,-0.11652 0.29131,-0.11652 h 1.51478 q 0.6159,0 1.09864,0.25801 0.48273,0.25802 0.74907,0.71578 0.27466,0.45777 0.27466,1.05702 0,0.56597 -0.27466,1.00709 -0.26634,0.44111 -0.74907,0.6908 -0.48274,0.24969 -1.09864,0.24969 h -1.1236 v 2.12237 q 0,0.17478 -0.1082,0.2913 -0.1082,0.1082 -0.28298,0.1082 z m 3.46236,0 q -0.11652,0 -0.19975,-0.0416 -0.0832,-0.0499 -0.14981,-0.14982 l -1.53143,-2.4636 0.78236,-0.2164 1.40658,2.26385 q 0.1415,0.22473 0.0416,0.41615 -0.0999,0.19143 -0.34957,0.19143 z m -3.07118,-3.26261 h 1.1236 q 0.39951,0 0.69913,-0.14982 0.30795,-0.15813 0.48274,-0.43279 0.17478,-0.27466 0.17478,-0.62423 0,-0.37453 -0.17478,-0.66584 -0.17479,-0.29963 -0.48274,-0.45776 -0.29962,-0.16646 -0.69913,-0.16646 h -1.1236 z" />
            <path
               id="path1299"
               style="font-style:normal;font-variant:normal;font-weight:600;font-stretch:normal;font-family:Comfortaa;-inkscape-font-specification:'Comfortaa Semi-Bold';fill:#4e5153;fill-opacity:1;stroke-width:0.303621"
               d="m 440.82317,617.94244 q -0.16646,0 -0.28298,-0.1082 -0.1082,-0.11652 -0.1082,-0.2913 v -5.70126 q 0,-0.16646 0.11652,-0.28298 0.11653,-0.11652 0.27466,-0.11652 0.16646,0 0.28299,0.11652 0.11652,0.11652 0.11652,0.28298 v 5.3184 h 3.08783 q 0.16646,0 0.28298,0.11652 0.11652,0.1082 0.11652,0.27466 0,0.16646 -0.11652,0.28298 -0.11652,0.1082 -0.28298,0.1082 z" />
          </g>
        </g>
      </g>
    </g>
  </g>
</svg>
