<?xml version="1.0" encoding="UTF-8" standalone="no"?><!DOCTYPE svg PUBLIC "-//W3C//DTD SVG 1.1//EN" "http://www.w3.org/Graphics/SVG/1.1/DTD/svg11.dtd"><svg width="100%" height="100%" viewBox="0 0 600 300" version="1.1" xmlns="http://www.w3.org/2000/svg" xmlns:xlink="http://www.w3.org/1999/xlink" xml:space="preserve" xmlns:serif="http://www.serif.com/" style="fill-rule:evenodd;clip-rule:evenodd;stroke-linejoin:round;"><g><g><g><g><path d="M372.519,174.29c-0,-0 2.601,-6.966 1.854,-11.82c-0.331,-2.152 -2.27,-4.318 -4.448,-4.318l-24.734,0c-2.401,0 -4.117,2.166 -4.448,4.318c-0.746,4.854 1.855,11.82 1.855,11.82l-0,69.13c-0,0 -2.601,6.966 -1.855,11.82c0.331,2.152 2.271,4.318 4.448,4.318l24.734,-0c2.402,-0 4.117,-2.166 4.448,-4.318c0.61,-3.962 -1.011,-9.331 -1.628,-11.17c-0.138,-0.415 -0.226,-0.65 -0.226,-0.65l-0,-69.13" style="fill:#009a19;"/><path d="M372.519,189.794l-29.921,-0l-0,-10.298l29.921,0l-0,10.298Z" style="fill:#005614;"/><path d="M372.519,202.678l-29.921,-0l-0,-10.298l29.921,0l-0,10.298Z" style="fill:#005614;"/><path d="M372.519,215.562l-29.921,-0l-0,-10.298l29.921,0l-0,10.298Z" style="fill:#005614;"/><path d="M372.519,240.466l-29.921,0l-0,-10.297l29.921,0l-0,10.297Z" style="fill:#005614;"/><path d="M372.519,48.729c-0,0 2.601,-6.965 1.854,-11.819c-0.331,-2.153 -2.27,-4.318 -4.448,-4.318l-24.734,-0c-2.401,-0 -4.117,2.165 -4.448,4.318c-0.746,4.854 1.855,11.819 1.855,11.819l-0,69.131c-0,-0 -2.601,6.965 -1.855,11.819c0.331,2.153 2.271,4.318 4.448,4.318l24.734,0c2.402,0 4.117,-2.165 4.448,-4.318c0.61,-3.962 -1.011,-9.33 -1.628,-11.17c-0.138,-0.414 -0.226,-0.649 -0.226,-0.649l-0,-69.131" style="fill:#009a19;"/><path d="M372.519,64.233l-29.921,0l-0,-10.297l29.921,-0l-0,10.297Z" style="fill:#005614;"/><path d="M372.519,77.117l-29.921,0l-0,-10.297l29.921,-0l-0,10.297Z" style="fill:#005614;"/><path d="M372.519,90.001l-29.921,0l-0,-10.297l29.921,-0l-0,10.297Z" style="fill:#005614;"/><path d="M372.519,114.906l-29.921,-0l-0,-10.297l29.921,-0l-0,10.297Z" style="fill:#005614;"/><path d="M214.5,283.713l143.058,-0l0,-24.155" style="fill:none;stroke:#000;stroke-width:5.83px;"/><path d="M107.713,103.502l0,-87.215l249.845,0l0,16.305" style="fill:none;stroke:#000;stroke-width:5.83px;"/><path d="M357.558,133.997l0,24.155" style="fill:none;stroke:#000;stroke-width:5.83px;"/><path d="M214.5,283.713l-106.787,-0c0,-0 0,-81.628 0,-81.628" style="fill:none;stroke:#000;stroke-width:5.83px;stroke-miterlimit:1.5;"/><path d="M134.532,116.911l-0,71.765c-0,7.4 -6.009,13.409 -13.41,13.409l-26.818,-0c-7.401,-0 -13.409,-6.009 -13.409,-13.409l-0,-71.765c-0,-7.401 6.008,-13.409 13.409,-13.409l26.818,-0c7.401,-0 13.41,6.008 13.41,13.409Z" style="fill:#2cd08d;"/><path d="M134.532,152.793l-0,35.883c-0,7.4 -6.009,13.409 -13.41,13.409l-26.818,-0c-7.401,-0 -13.409,-6.009 -13.409,-13.409l-0,-35.883l53.637,0Z" style="fill:#fe3b65;"/><path d="M98.982,130.202l17.463,-0" style="fill:none;stroke:#000;stroke-width:6.25px;stroke-linecap:round;stroke-miterlimit:1.5;"/><path d="M98.982,177.491l17.463,0" style="fill:none;stroke:#000;stroke-width:6.25px;stroke-linecap:round;stroke-miterlimit:1.5;"/><path d="M107.713,121.47l0,17.463" style="fill:none;stroke:#000;stroke-width:6.25px;stroke-linecap:round;stroke-miterlimit:1.5;"/><path d="M467.306,159.088l7.5,-5l7.5,5" style="fill:none;stroke:#000;stroke-width:3.33px;stroke-linecap:round;stroke-linejoin:miter;stroke-miterlimit:10;"/><path d="M474.806,202.085l0,-47.997" style="fill:none;stroke:#000;stroke-width:3.33px;stroke-linecap:round;"/><path d="M328.019,75.795l5,7.5l-5,7.5" style="fill:none;stroke:#000;stroke-width:3.33px;stroke-linecap:round;stroke-linejoin:miter;stroke-miterlimit:10;"/><path d="M298.524,83.295l34.495,-0" style="fill:none;stroke:#000;stroke-width:3.33px;stroke-linecap:round;"/><path d="M328.019,201.355l5,7.5l-5,7.5" style="fill:none;stroke:#000;stroke-width:3.33px;stroke-linecap:round;stroke-linejoin:miter;stroke-miterlimit:10;"/><path d="M298.524,208.855l34.495,-0" style="fill:none;stroke:#000;stroke-width:3.33px;stroke-linecap:round;"/><path d="M482.306,271.439l-7.5,5l-7.5,-5" style="fill:none;stroke:#000;stroke-width:3.33px;stroke-linecap:round;stroke-linejoin:miter;stroke-miterlimit:10;"/><path d="M474.806,228.442l0,47.997" style="fill:none;stroke:#000;stroke-width:3.33px;stroke-linecap:round;"/><path d="M519.105,215.264c0,7.273 -5.905,13.178 -13.178,13.178l-62.241,0c-7.274,0 -13.179,-5.905 -13.179,-13.178c0,-7.274 5.905,-13.179 13.179,-13.179l62.241,-0c7.273,-0 13.178,5.905 13.178,13.179Z" style="fill:#d08f7d;"/><path d="M461.361,221.837c-0.037,0.126 -0.085,0.23 -0.144,0.311c-0.059,0.074 -0.155,0.133 -0.289,0.177c-0.133,0.037 -0.314,0.06 -0.543,0.067c-0.23,0.015 -0.529,0.022 -0.899,0.022c-0.296,0 -0.551,-0.004 -0.765,-0.011c-0.208,0 -0.385,-0.007 -0.533,-0.022c-0.148,-0.015 -0.27,-0.037 -0.366,-0.067c-0.089,-0.029 -0.167,-0.066 -0.233,-0.111c-0.059,-0.044 -0.107,-0.096 -0.144,-0.155c-0.03,-0.067 -0.059,-0.148 -0.089,-0.244l-4.272,-12.726c-0.088,-0.266 -0.144,-0.477 -0.166,-0.632c-0.015,-0.155 0.022,-0.27 0.111,-0.344c0.096,-0.081 0.255,-0.129 0.477,-0.144c0.222,-0.022 0.533,-0.033 0.932,-0.033c0.34,-0 0.607,0.007 0.799,0.022c0.192,0.015 0.34,0.04 0.444,0.077c0.103,0.037 0.173,0.093 0.21,0.167c0.045,0.074 0.086,0.166 0.122,0.277l3.495,11.073l0.011,-0l3.429,-11.017c0.029,-0.126 0.066,-0.226 0.111,-0.3c0.044,-0.081 0.118,-0.144 0.221,-0.189c0.111,-0.044 0.267,-0.073 0.466,-0.088c0.2,-0.015 0.474,-0.022 0.821,-0.022c0.341,-0 0.603,0.011 0.788,0.033c0.192,0.022 0.322,0.077 0.388,0.166c0.074,0.082 0.097,0.2 0.067,0.355c-0.022,0.156 -0.078,0.363 -0.166,0.622l-4.283,12.736Z" style="fill-rule:nonzero;"/><path d="M476.439,216.922c-0,0.843 -0.111,1.613 -0.333,2.308c-0.222,0.695 -0.559,1.294 -1.01,1.797c-0.451,0.503 -1.017,0.892 -1.697,1.165c-0.681,0.274 -1.476,0.411 -2.386,0.411c-0.88,-0 -1.645,-0.122 -2.296,-0.366c-0.651,-0.244 -1.191,-0.599 -1.62,-1.065c-0.429,-0.466 -0.747,-1.04 -0.954,-1.72c-0.207,-0.681 -0.311,-1.457 -0.311,-2.33c0,-0.843 0.111,-1.612 0.333,-2.308c0.229,-0.702 0.57,-1.301 1.021,-1.797c0.451,-0.503 1.013,-0.891 1.686,-1.165c0.681,-0.274 1.476,-0.41 2.386,-0.41c0.887,-0 1.656,0.122 2.307,0.366c0.651,0.236 1.187,0.588 1.609,1.054c0.429,0.466 0.747,1.039 0.954,1.719c0.207,0.681 0.311,1.461 0.311,2.341Zm-2.874,0.111c0,-0.488 -0.04,-0.935 -0.122,-1.342c-0.074,-0.414 -0.203,-0.773 -0.388,-1.076c-0.185,-0.304 -0.433,-0.54 -0.743,-0.71c-0.304,-0.171 -0.688,-0.256 -1.154,-0.256c-0.415,0 -0.777,0.078 -1.088,0.233c-0.31,0.148 -0.565,0.37 -0.765,0.666c-0.2,0.288 -0.351,0.64 -0.455,1.054c-0.096,0.407 -0.144,0.873 -0.144,1.398c-0,0.488 0.04,0.939 0.122,1.353c0.081,0.407 0.211,0.762 0.388,1.066c0.185,0.303 0.433,0.54 0.743,0.71c0.311,0.162 0.696,0.244 1.154,0.244c0.422,-0 0.788,-0.074 1.099,-0.222c0.31,-0.155 0.566,-0.377 0.765,-0.666c0.2,-0.288 0.348,-0.636 0.444,-1.043c0.096,-0.414 0.144,-0.884 0.144,-1.409Z" style="fill-rule:nonzero;"/><path d="M488.033,221.97c-0,0.074 -0.019,0.141 -0.056,0.2c-0.037,0.052 -0.103,0.096 -0.2,0.133c-0.088,0.037 -0.21,0.063 -0.366,0.078c-0.148,0.022 -0.336,0.033 -0.565,0.033c-0.245,0 -0.444,-0.011 -0.6,-0.033c-0.148,-0.015 -0.266,-0.041 -0.355,-0.078c-0.088,-0.037 -0.151,-0.081 -0.188,-0.133c-0.037,-0.059 -0.056,-0.126 -0.056,-0.2l0,-1.142c-0.547,0.591 -1.105,1.035 -1.675,1.331c-0.562,0.296 -1.146,0.444 -1.753,0.444c-0.68,-0 -1.254,-0.111 -1.72,-0.333c-0.458,-0.222 -0.832,-0.525 -1.12,-0.91c-0.281,-0.384 -0.485,-0.828 -0.61,-1.331c-0.119,-0.511 -0.178,-1.143 -0.178,-1.897l0,-6.058c0,-0.074 0.019,-0.137 0.056,-0.189c0.044,-0.059 0.118,-0.107 0.221,-0.144c0.111,-0.037 0.256,-0.063 0.433,-0.078c0.185,-0.022 0.411,-0.033 0.677,-0.033c0.274,0 0.499,0.011 0.677,0.033c0.177,0.015 0.318,0.041 0.421,0.078c0.111,0.037 0.189,0.085 0.233,0.144c0.045,0.052 0.067,0.115 0.067,0.189l-0,5.592c-0,0.517 0.033,0.913 0.1,1.187c0.066,0.273 0.166,0.51 0.299,0.71c0.141,0.192 0.315,0.344 0.522,0.455c0.214,0.103 0.462,0.155 0.743,0.155c0.355,0 0.71,-0.129 1.065,-0.388c0.363,-0.259 0.747,-0.636 1.154,-1.132l-0,-6.579c-0,-0.074 0.018,-0.137 0.055,-0.189c0.045,-0.059 0.119,-0.107 0.222,-0.144c0.111,-0.037 0.256,-0.063 0.433,-0.078c0.178,-0.022 0.403,-0.033 0.677,-0.033c0.273,0 0.499,0.011 0.677,0.033c0.177,0.015 0.318,0.041 0.421,0.078c0.104,0.037 0.178,0.085 0.222,0.144c0.044,0.052 0.067,0.115 0.067,0.189l-0,9.896Z" style="fill-rule:nonzero;"/><path d="M496.698,220.994c-0,0.325 -0.023,0.577 -0.067,0.754c-0.037,0.171 -0.089,0.293 -0.155,0.367c-0.067,0.066 -0.167,0.129 -0.3,0.188c-0.126,0.052 -0.277,0.096 -0.455,0.133c-0.17,0.045 -0.358,0.078 -0.566,0.1c-0.199,0.022 -0.403,0.033 -0.61,0.033c-0.555,0 -1.035,-0.07 -1.442,-0.21c-0.407,-0.141 -0.743,-0.355 -1.01,-0.644c-0.266,-0.296 -0.462,-0.666 -0.588,-1.109c-0.125,-0.444 -0.188,-0.969 -0.188,-1.576l-0,-5.07l-1.187,0c-0.141,0 -0.248,-0.085 -0.322,-0.255c-0.074,-0.178 -0.111,-0.47 -0.111,-0.877c-0,-0.214 0.007,-0.395 0.022,-0.543c0.022,-0.148 0.052,-0.263 0.089,-0.344c0.037,-0.089 0.081,-0.152 0.133,-0.189c0.059,-0.037 0.126,-0.055 0.2,-0.055l1.176,-0l-0,-2.208c-0,-0.074 0.018,-0.141 0.055,-0.2c0.045,-0.059 0.118,-0.107 0.222,-0.144c0.111,-0.044 0.255,-0.074 0.433,-0.089c0.185,-0.022 0.41,-0.033 0.677,-0.033c0.273,-0 0.499,0.011 0.676,0.033c0.185,0.015 0.329,0.045 0.433,0.089c0.104,0.037 0.177,0.085 0.222,0.144c0.044,0.059 0.066,0.126 0.066,0.2l0,2.208l2.153,-0c0.074,-0 0.137,0.018 0.188,0.055c0.06,0.037 0.108,0.1 0.145,0.189c0.037,0.081 0.063,0.196 0.077,0.344c0.022,0.148 0.034,0.329 0.034,0.543c-0,0.407 -0.037,0.699 -0.111,0.877c-0.074,0.17 -0.182,0.255 -0.322,0.255l-2.164,0l0,4.649c0,0.54 0.085,0.946 0.256,1.22c0.17,0.266 0.473,0.399 0.909,0.399c0.148,0 0.281,-0.011 0.4,-0.033c0.118,-0.029 0.222,-0.059 0.31,-0.089c0.097,-0.037 0.174,-0.066 0.233,-0.088c0.067,-0.03 0.126,-0.045 0.178,-0.045c0.044,0 0.085,0.015 0.122,0.045c0.044,0.022 0.078,0.074 0.1,0.155c0.022,0.074 0.041,0.178 0.055,0.311c0.022,0.133 0.034,0.303 0.034,0.51Z" style="fill-rule:nonzero;"/><path d="M298.524,208.855c-0,7.274 -5.906,13.179 -13.179,13.179l-39.531,-0c-7.273,-0 -13.178,-5.905 -13.178,-13.179c-0,-7.274 5.905,-13.179 13.178,-13.179l39.531,0c7.273,0 13.179,5.905 13.179,13.179Z" style="fill:#fed700;"/><path d="M265.313,215.75c0,0.082 -0.014,0.152 -0.044,0.211c-0.03,0.052 -0.1,0.096 -0.211,0.133c-0.111,0.037 -0.273,0.063 -0.488,0.078c-0.214,0.015 -0.507,0.022 -0.876,0.022c-0.311,0 -0.559,-0.007 -0.744,-0.022c-0.185,-0.015 -0.333,-0.041 -0.444,-0.078c-0.103,-0.044 -0.177,-0.096 -0.221,-0.155c-0.045,-0.067 -0.082,-0.144 -0.111,-0.233l-1.287,-3.206c-0.156,-0.363 -0.307,-0.685 -0.455,-0.966c-0.148,-0.281 -0.315,-0.514 -0.5,-0.699c-0.177,-0.192 -0.384,-0.336 -0.621,-0.432c-0.237,-0.096 -0.51,-0.145 -0.821,-0.145l-0.91,0l0,5.47c0,0.074 -0.025,0.141 -0.077,0.2c-0.045,0.059 -0.122,0.107 -0.233,0.144c-0.111,0.037 -0.259,0.067 -0.444,0.089c-0.185,0.022 -0.422,0.033 -0.71,0.033c-0.281,0 -0.518,-0.011 -0.71,-0.033c-0.185,-0.022 -0.333,-0.052 -0.444,-0.089c-0.111,-0.037 -0.189,-0.085 -0.233,-0.144c-0.044,-0.059 -0.066,-0.126 -0.066,-0.2l-0,-13.036c-0,-0.326 0.081,-0.559 0.244,-0.699c0.17,-0.148 0.377,-0.222 0.621,-0.222l3.717,0c0.377,0 0.687,0.007 0.932,0.022c0.244,0.015 0.466,0.034 0.665,0.056c0.577,0.081 1.095,0.222 1.553,0.421c0.466,0.2 0.858,0.463 1.177,0.788c0.325,0.318 0.573,0.699 0.743,1.143c0.17,0.436 0.255,0.939 0.255,1.509c0,0.48 -0.063,0.92 -0.189,1.32c-0.118,0.392 -0.295,0.743 -0.532,1.054c-0.237,0.311 -0.529,0.581 -0.877,0.81c-0.347,0.229 -0.743,0.414 -1.187,0.555c0.215,0.103 0.414,0.229 0.599,0.377c0.193,0.148 0.37,0.329 0.533,0.543c0.17,0.207 0.329,0.448 0.477,0.722c0.148,0.266 0.292,0.569 0.433,0.909l1.209,2.829c0.111,0.282 0.185,0.489 0.222,0.622c0.037,0.125 0.055,0.225 0.055,0.299Zm-3.761,-9.741c0,-0.473 -0.107,-0.873 -0.321,-1.198c-0.215,-0.325 -0.566,-0.555 -1.054,-0.688c-0.148,-0.037 -0.318,-0.066 -0.511,-0.089c-0.185,-0.022 -0.444,-0.033 -0.776,-0.033l-1.31,0l0,4.072l1.487,-0c0.414,-0 0.777,-0.048 1.087,-0.144c0.311,-0.104 0.57,-0.245 0.777,-0.422c0.207,-0.185 0.362,-0.403 0.466,-0.655c0.104,-0.251 0.155,-0.532 0.155,-0.843Z" style="fill-rule:nonzero;"/><path d="M276.497,214.94c-0,0.215 -0.011,0.4 -0.033,0.555c-0.015,0.148 -0.041,0.27 -0.078,0.366c-0.037,0.096 -0.085,0.167 -0.144,0.211c-0.06,0.037 -0.126,0.056 -0.2,0.056l-8.255,-0c-0.162,-0 -0.303,-0.015 -0.421,-0.045c-0.118,-0.029 -0.215,-0.085 -0.289,-0.166c-0.074,-0.089 -0.129,-0.215 -0.166,-0.377c-0.03,-0.163 -0.044,-0.374 -0.044,-0.633c-0,-0.244 0.011,-0.451 0.033,-0.621c0.022,-0.178 0.063,-0.333 0.122,-0.466c0.059,-0.141 0.133,-0.274 0.222,-0.4c0.096,-0.133 0.218,-0.277 0.366,-0.432l2.485,-2.663c0.496,-0.518 0.895,-0.987 1.198,-1.409c0.304,-0.429 0.54,-0.817 0.71,-1.165c0.171,-0.355 0.285,-0.68 0.344,-0.976c0.067,-0.296 0.1,-0.577 0.1,-0.843c0,-0.245 -0.04,-0.474 -0.122,-0.688c-0.074,-0.222 -0.188,-0.415 -0.344,-0.577c-0.148,-0.163 -0.336,-0.289 -0.566,-0.377c-0.229,-0.097 -0.499,-0.145 -0.809,-0.145c-0.437,0 -0.825,0.056 -1.165,0.167c-0.333,0.111 -0.629,0.236 -0.888,0.377c-0.251,0.133 -0.462,0.259 -0.632,0.377c-0.171,0.111 -0.304,0.167 -0.4,0.167c-0.066,-0 -0.126,-0.023 -0.177,-0.067c-0.045,-0.044 -0.082,-0.118 -0.111,-0.222c-0.03,-0.103 -0.056,-0.24 -0.078,-0.41c-0.015,-0.178 -0.022,-0.392 -0.022,-0.644c-0,-0.17 0.004,-0.311 0.011,-0.421c0.015,-0.119 0.033,-0.219 0.055,-0.3c0.023,-0.089 0.052,-0.163 0.089,-0.222c0.037,-0.066 0.1,-0.144 0.189,-0.233c0.096,-0.089 0.266,-0.2 0.51,-0.333c0.252,-0.14 0.559,-0.273 0.921,-0.399c0.362,-0.133 0.762,-0.244 1.198,-0.333c0.437,-0.089 0.892,-0.133 1.365,-0.133c0.747,-0 1.398,0.096 1.953,0.288c0.562,0.185 1.028,0.448 1.397,0.788c0.37,0.333 0.644,0.732 0.821,1.198c0.185,0.459 0.278,0.954 0.278,1.487c-0,0.466 -0.045,0.925 -0.133,1.376c-0.089,0.451 -0.274,0.939 -0.555,1.464c-0.281,0.518 -0.677,1.095 -1.187,1.731c-0.51,0.629 -1.187,1.361 -2.03,2.197l-1.676,1.719l5.659,0c0.073,0 0.14,0.023 0.199,0.067c0.067,0.044 0.122,0.115 0.167,0.211c0.044,0.088 0.077,0.211 0.1,0.366c0.022,0.148 0.033,0.325 0.033,0.532Z" style="fill-rule:nonzero;"/><path d="M298.524,83.295c-0,7.273 -5.906,13.178 -13.179,13.178l-39.531,0c-7.273,0 -13.178,-5.905 -13.178,-13.178c-0,-7.274 5.905,-13.179 13.178,-13.179l39.531,-0c7.273,-0 13.179,5.905 13.179,13.179Z" style="fill:#fed700;"/><path d="M265.38,90.112c-0,0.082 -0.015,0.152 -0.044,0.211c-0.03,0.052 -0.1,0.096 -0.211,0.133c-0.111,0.037 -0.274,0.063 -0.488,0.078c-0.215,0.015 -0.507,0.022 -0.877,0.022c-0.311,-0 -0.558,-0.007 -0.743,-0.022c-0.185,-0.015 -0.333,-0.041 -0.444,-0.078c-0.104,-0.044 -0.178,-0.096 -0.222,-0.155c-0.044,-0.067 -0.081,-0.144 -0.111,-0.233l-1.287,-3.207c-0.155,-0.362 -0.307,-0.684 -0.455,-0.965c-0.148,-0.281 -0.314,-0.514 -0.499,-0.699c-0.177,-0.192 -0.385,-0.336 -0.621,-0.432c-0.237,-0.097 -0.511,-0.145 -0.821,-0.145l-0.91,0l-0,5.47c-0,0.074 -0.026,0.141 -0.078,0.2c-0.044,0.059 -0.122,0.107 -0.233,0.144c-0.111,0.037 -0.259,0.066 -0.443,0.089c-0.185,0.022 -0.422,0.033 -0.711,0.033c-0.281,-0 -0.517,-0.011 -0.71,-0.033c-0.184,-0.023 -0.332,-0.052 -0.443,-0.089c-0.111,-0.037 -0.189,-0.085 -0.233,-0.144c-0.045,-0.059 -0.067,-0.126 -0.067,-0.2l0,-13.036c0,-0.326 0.081,-0.559 0.244,-0.699c0.17,-0.148 0.377,-0.222 0.621,-0.222l3.717,-0c0.377,-0 0.688,0.007 0.932,0.022c0.244,0.015 0.466,0.033 0.666,0.056c0.577,0.081 1.094,0.221 1.553,0.421c0.466,0.2 0.858,0.462 1.176,0.788c0.326,0.318 0.573,0.699 0.743,1.143c0.171,0.436 0.256,0.939 0.256,1.509c-0,0.48 -0.063,0.92 -0.189,1.32c-0.118,0.392 -0.296,0.743 -0.533,1.054c-0.236,0.31 -0.528,0.58 -0.876,0.81c-0.348,0.229 -0.743,0.414 -1.187,0.554c0.214,0.104 0.414,0.23 0.599,0.378c0.192,0.148 0.37,0.329 0.532,0.543c0.171,0.207 0.33,0.448 0.478,0.721c0.147,0.267 0.292,0.57 0.432,0.91l1.21,2.829c0.111,0.281 0.184,0.488 0.221,0.622c0.037,0.125 0.056,0.225 0.056,0.299Zm-3.761,-9.741c-0,-0.473 -0.107,-0.873 -0.322,-1.198c-0.214,-0.326 -0.566,-0.555 -1.054,-0.688c-0.148,-0.037 -0.318,-0.067 -0.51,-0.089c-0.185,-0.022 -0.444,-0.033 -0.777,-0.033l-1.309,-0l-0,4.072l1.487,-0c0.414,-0 0.776,-0.048 1.087,-0.145c0.311,-0.103 0.569,-0.244 0.777,-0.421c0.207,-0.185 0.362,-0.403 0.466,-0.655c0.103,-0.251 0.155,-0.532 0.155,-0.843Z" style="fill-rule:nonzero;"/><path d="M276.43,89.38c0,0.207 -0.011,0.385 -0.033,0.532c-0.022,0.141 -0.056,0.256 -0.1,0.344c-0.037,0.082 -0.081,0.141 -0.133,0.178c-0.052,0.037 -0.111,0.055 -0.178,0.055l-7.921,0c-0.059,0 -0.115,-0.018 -0.167,-0.055c-0.051,-0.037 -0.099,-0.096 -0.144,-0.178c-0.037,-0.088 -0.066,-0.203 -0.089,-0.344c-0.022,-0.147 -0.033,-0.325 -0.033,-0.532c0,-0.215 0.008,-0.392 0.022,-0.533c0.023,-0.148 0.052,-0.266 0.089,-0.355c0.044,-0.088 0.093,-0.151 0.144,-0.188c0.052,-0.045 0.111,-0.067 0.178,-0.067l2.674,0l-0,-9.342l-2.308,1.276c-0.17,0.082 -0.311,0.133 -0.422,0.156c-0.103,0.014 -0.188,-0.008 -0.255,-0.067c-0.059,-0.066 -0.1,-0.177 -0.122,-0.333c-0.022,-0.155 -0.033,-0.373 -0.033,-0.654c-0,-0.178 0.004,-0.322 0.011,-0.433c0.007,-0.118 0.026,-0.218 0.055,-0.3c0.03,-0.081 0.071,-0.147 0.122,-0.199c0.052,-0.052 0.123,-0.108 0.211,-0.167l3.085,-1.997c0.037,-0.029 0.081,-0.051 0.133,-0.066c0.059,-0.022 0.133,-0.037 0.222,-0.045c0.088,-0.014 0.203,-0.022 0.344,-0.022c0.147,-0.007 0.336,-0.011 0.565,-0.011c0.281,0 0.507,0.007 0.677,0.022c0.178,0.008 0.311,0.026 0.4,0.056c0.088,0.022 0.147,0.055 0.177,0.1c0.03,0.044 0.044,0.099 0.044,0.166l0,11.86l2.341,0c0.067,0 0.126,0.022 0.178,0.067c0.059,0.037 0.107,0.1 0.144,0.188c0.045,0.089 0.074,0.207 0.089,0.355c0.022,0.141 0.033,0.318 0.033,0.533Z" style="fill-rule:nonzero;"/><path d="M357.558,146.075l117.248,-0" style="fill:none;stroke:#000;stroke-width:5.83px;stroke-linecap:round;"/><path d="M357.558,283.713l117.248,-0" style="fill:none;stroke:#000;stroke-width:5.83px;stroke-linecap:round;"/></g></g></g></g><circle cx="357.514" cy="283.713" r="7" style="stroke:#000;stroke-width:3.33px;stroke-linecap:round;"/><circle cx="357.514" cy="145.979" r="7" style="stroke:#000;stroke-width:3.33px;stroke-linecap:round;"/></svg>